<svg xmlns="http://www.w3.org/2000/svg" viewBox="0 0 512 512" fill="#f2f2f2"><path d="M256 109.3c47.8 0 53.4.2 72.3 1 17.4.8 26.9 3.7 33.2 6.2 8.4 3.2 14.3 7.1 20.6 13.4 6.3 6.3 10.1 12.2 13.4 20.6 2.5 6.3 5.4 15.8 6.2 33.2.9 18.9 1 24.5 1 72.3s-.2 53.4-1 72.3c-.8 17.4-3.7 26.9-6.2 33.2-3.2 8.4-7.1 14.3-13.4 20.6-6.3 6.3-12.2 10.1-20.6 13.4-6.3 2.5-15.8 5.4-33.2 6.2-18.9.9-24.5 1-72.3 1s-53.4-.2-72.3-1c-17.4-.8-26.9-3.7-33.2-6.2-8.4-3.2-14.3-7.1-20.6-13.4-6.3-6.3-10.1-12.2-13.4-20.6-2.5-6.3-5.4-15.8-6.2-33.2-.9-18.9-1-24.5-1-72.3s.2-53.4 1-72.3c.8-17.4 3.7-26.9 6.2-33.2 3.2-8.4 7.1-14.3 13.4-20.6 6.3-6.3 12.2-10.1 20.6-13.4 6.3-2.5 15.8-5.4 33.2-6.2 18.9-.8 24.5-1 72.3-1m0-32.2c-48.6 0-54.7.2-73.8 1.1-19 .9-32.1 3.9-43.4 8.3-11.8 4.6-21.7 10.7-31.7 20.6C97.2 117 91 127 86.5 138.8c-4.4 11.4-7.4 24.4-8.3 43.4-.9 19.1-1.1 25.2-1.1 73.8 0 48.6.2 54.7 1.1 73.8.9 19 3.9 32.1 8.3 43.4 4.6 11.8 10.7 21.7 20.6 31.7 9.9 9.9 19.9 16.1 31.7 20.6 11.4 4.4 24.4 7.4 43.4 8.3 19.1.9 25.2 1.1 73.8 1.1s54.7-.2 73.8-1.1c19-.9 32.1-3.9 43.4-8.3 11.8-4.6 21.7-10.7 31.7-20.6 9.9-9.9 16.1-19.9 20.6-31.7 4.4-11.4 7.4-24.4 8.3-43.4.9-19.1 1.1-25.2 1.1-73.8s-.2-54.7-1.1-73.8c-.9-19-3.9-32.1-8.3-43.4-4.6-11.8-10.7-21.7-20.6-31.7C395 97.2 385 91 373.2 86.5c-11.4-4.4-24.4-7.4-43.4-8.3-19.1-.9-25.2-1.1-73.8-1.1z"/><path d="M256 164.1c-50.7 0-91.9 41.1-91.9 91.9s41.1 91.9 91.9 91.9 91.9-41.1 91.9-91.9-41.2-91.9-91.9-91.9zm0 151.5c-32.9 0-59.6-26.7-59.6-59.6s26.7-59.6 59.6-59.6 59.6 26.7 59.6 59.6-26.7 59.6-59.6 59.6z"/><circle cx="351.5" cy="160.5" r="21.5"/></svg>