<?xml version="1.0" standalone="no"?>
<!DOCTYPE svg PUBLIC "-//W3C//DTD SVG 1.1//EN" "http://www.w3.org/Graphics/SVG/1.1/DTD/svg11.dtd" >
<svg xmlns="http://www.w3.org/2000/svg">
<metadata></metadata>
<defs>
<font id="argon_personalregular" horiz-adv-x="1228" >
<font-face units-per-em="2048" ascent="1638" descent="-410" />
<missing-glyph horiz-adv-x="819" />
<glyph horiz-adv-x="0" />
<glyph horiz-adv-x="682" />
<glyph unicode=" "  horiz-adv-x="819" />
<glyph unicode="&#x09;" horiz-adv-x="819" />
<glyph unicode="&#xa0;" horiz-adv-x="819" />
<glyph unicode="!" horiz-adv-x="798" d="M295 135q0 54 39 92.5t96 38.5q55 0 93 -38.5t38 -92.5q0 -56 -38 -95.5t-93 -39.5q-57 0 -96 39.5t-39 95.5zM322 375v1063h215v-1063h-215zM358 135q0 -32 20.5 -53t51.5 -21t52.5 21.5t21.5 52.5q0 29 -22.5 50.5t-51.5 21.5q-30 0 -51 -21t-21 -51zM395 135 q0 12 11 23.5t24 11.5t24 -11.5t11 -23.5q0 -14 -11 -25.5t-24 -11.5q-14 0 -24.5 10t-10.5 27zM395 438h68v926h-68v-926z" />
<glyph unicode="&#x22;" d="M242 1217l26 24q73 70 107 113q28 -19 59 -25q-16 -24 -98 -106l45 -25q63 63 106 123l37 57l-55 -10h-12q-54 4 -88.5 42.5t-34.5 92.5q0 55 40 95t95 40q38 0 63 -14q80 -44 80 -145q0 -145 -209 -342l-18 -19zM395 1503q0 -29 19.5 -50.5t48.5 -22.5h10q20 0 33 8 q39 16 39 65q0 18 -11 37t-24 25l-2 2q-17 10 -39 10q-31 0 -52.5 -21.5t-21.5 -52.5zM434 1503q0 13 11 24t24 11t24 -11t11 -24q0 -14 -9.5 -24.5t-25.5 -10.5q-13 0 -24 11t-11 24zM612 1217l27 24q68 66 106 113q28 -19 60 -25q-16 -24 -98 -106l45 -25q63 63 106 123 l37 57l-55 -10h-13q-54 4 -88 42.5t-34 92.5q0 55 39.5 95t95.5 40q38 0 63 -14q80 -44 80 -145q0 -145 -209 -342l-18 -19zM766 1503q0 -29 19.5 -50.5t48.5 -22.5h10q20 0 33 8q18 7 28 25.5t10 39.5q0 18 -10.5 37t-23.5 25l-2 2q-17 10 -39 10q-31 0 -52.5 -21.5 t-21.5 -52.5zM805 1503q0 13 10.5 24t24.5 11q13 0 23.5 -10.5t10.5 -24.5q0 -15 -9 -25t-25 -10q-14 0 -24.5 11t-10.5 24z" />
<glyph unicode="#" />
<glyph unicode="%" />
<glyph unicode="'" horiz-adv-x="471" d="M10 1217l27 24q68 66 106 113q28 -19 60 -25q-14 -21 -99 -106l46 -25q64 63 106 123l37 57l-55 -10h-13q-54 4 -88.5 42.5t-34.5 92.5q0 55 40 95t96 40q38 0 63 -14q80 -44 80 -145q0 -145 -209 -342l-18 -19zM164 1503q0 -30 19 -51t48 -22h11q19 0 32 8q39 16 39 65 q0 18 -10.5 37t-23.5 25l-3 2q-17 10 -38 10q-31 0 -52.5 -21.5t-21.5 -52.5zM203 1503q0 13 10.5 24t24.5 11q13 0 23.5 -10.5t10.5 -24.5q0 -15 -9 -25t-25 -10q-14 0 -24.5 11t-10.5 24z" />
<glyph unicode="(" d="M332 -145v1656h473v-221h-258l2 -1214h256v-221h-473zM406 -68h325v70l-258 2v1364h258v70h-325v-1506z" />
<glyph unicode=")" d="M362 76h256l3 1214h-259v221h474v-1656h-474v221zM436 2v-70h326v1506h-326v-70h258v-1364z" />
<glyph unicode="*" />
<glyph unicode="+" />
<glyph unicode="," horiz-adv-x="532" d="M127 -162l27 25q72 69 106 112q26 -17 59 -24q-18 -27 -98 -107l45 -24q67 67 107 123l37 57l-56 -10h-12q-54 4 -88.5 42.5t-34.5 92.5q0 55 39.5 95t95.5 40q39 0 64 -14q80 -44 80 -146q0 -145 -209 -342l-19 -18zM281 125q0 -30 19 -51.5t48 -22.5h10q20 0 33 8 q18 7 28.5 26t10.5 40q0 18 -11 36.5t-24 24.5l-2 2q-18 11 -39 11q-31 0 -52 -21.5t-21 -52.5zM319 125q0 13 10.5 24t24.5 11t24.5 -11t10.5 -24q0 -14 -9.5 -24.5t-25.5 -10.5q-14 0 -24.5 11t-10.5 24z" />
<glyph unicode="-" d="M254 385v215h713v-215h-713zM328 459h575v67h-575v-67z" />
<glyph unicode="." horiz-adv-x="798" d="M313 131q0 -56 39.5 -95.5t96.5 -39.5q55 0 93 39.5t38 95.5q0 54 -38 92.5t-93 38.5q-57 0 -96.5 -38.5t-39.5 -92.5zM377 131q0 30 21 51t51 21q29 0 51 -21.5t22 -50.5q0 -31 -21 -52.5t-52 -21.5t-51.5 21t-20.5 53zM414 131q0 -17 10.5 -27t24.5 -10q13 0 23.5 11.5 t10.5 25.5q0 12 -10.5 23.5t-23.5 11.5t-24 -11.5t-11 -23.5z" />
<glyph unicode="/" d="M211 0l575 1438h215l-575 -1438h-215zM305 63h68l2 -2l528 1303h-67z" />
<glyph unicode="0" d="M76 315v170h30q66 0 66 -49q0 -39 -37 -49l51 -72h-30l-50 70h-4v-70h-26zM102 408h9q36 0 36 26q0 27 -36 27h-9v-53zM117 756h28l48 -117l47 117h28l-75 -183zM213 315v170h94v-24h-69v-41h67v-25h-67v-55h69v-25h-94zM289 586v170h94v-23h-68v-41h66v-24h-66v-58h68 v-24h-94zM332 399q0 37 26.5 63.5t63.5 26.5q36 0 62 -27t26 -65q0 -32 -25 -57l29 -29h-33l-12 15q-21 -15 -49 -15q-33 0 -60.5 26t-27.5 62zM358 399q0 -26 18.5 -44.5t43.5 -18.5q18 0 31 8l-41 39h32l25 -25q16 16 16 41q0 27 -17.5 46.5t-45.5 19.5q-26 0 -44 -19.5 t-18 -46.5zM399 858v170h86v-24h-59v-41h55v-25h-55v-80h-27zM418 586v170h28q35 0 50.5 -11.5t15.5 -37.5q0 -39 -37 -48l53 -73h-32l-50 69h-4v-69h-24zM442 678h9q36 0 36 29q0 26 -34 26h-11v-55zM514 918v110h27v-102q0 -47 37 -47q36 0 36 47v102h27v-110 q0 -26 -18.5 -45t-44.5 -19q-29 0 -46.5 18.5t-17.5 45.5zM543 375v110h24v-102q0 -47 39 -47q20 0 28.5 11t8.5 36v102h27v-110q0 -26 -19 -45t-45 -19q-28 0 -45.5 18.5t-17.5 45.5zM545 633l26 6q0 -31 29 -31q11 0 20 9.5t9 17.5l-2 10l-4 8l-9 6l-10 7l-16 6 q-35 15 -35 43q0 19 15.5 32t35.5 13q29 0 45 -29l-20 -12l-11 14q-2 2 -14 2q-11 0 -18.5 -6.5t-7.5 -13.5q0 -12 20 -21l16 -6q39 -14 39 -51q0 -25 -14 -39t-39 -14q-46 0 -55 49zM682 858v170h25v-147h51v-23h-76zM684 586v170h27v-170h-27zM709 315v170h26v-170h-26z M743 672q0 37 26.5 62.5t64.5 25.5q37 0 62.5 -25.5t25.5 -62.5q0 -36 -27 -62t-64 -26q-39 0 -63.5 23.5t-24.5 64.5zM770 672q0 -28 18 -46t43 -18q26 0 45 19t19 45t-19 44.5t-45 18.5q-25 0 -43 -19t-18 -44zM776 315v170h31q65 0 65 -49q0 -16 -10 -33q-13 -13 -28 -16 l53 -72h-31l-49 70h-4v-70h-27zM782 858v170h25v-147h51v-23h-76zM803 408h8q35 0 35 26q0 27 -35 27h-8v-53zM911 315v170h95v-24h-68v-41h66v-25h-66v-55h68v-25h-95zM954 586v182l123 -129v117h27v-181l-125 132v-121h-25zM1040 315v170h35q46 0 71 -23.5t25 -62.5 t-25 -61.5t-71 -22.5h-35zM1065 340h12q27 0 29 2l20 12q21 21 21 45q0 27 -18 44.5t-52 17.5h-12v-121z" />
<glyph unicode="1" d="M76 315h26v70h4l50 -70h30l-51 72q18 4 27 16q10 17 10 33q0 49 -66 49h-30v-170zM102 408v53h9q36 0 36 -27q0 -26 -36 -26h-9zM117 756l76 -183l75 183h-28l-47 -117l-48 117h-28zM213 315h94v25h-69v55h67v25h-67v41h69v24h-94v-170zM289 586h94v24h-68v58h66v24h-66 v41h68v23h-94v-170zM332 399q0 -36 27.5 -62t60.5 -26q28 0 49 15l12 -15h33l-29 29q25 25 25 57q0 38 -26 65t-62 27q-37 0 -63.5 -26.5t-26.5 -63.5zM358 399q0 27 18 46.5t44 19.5q28 0 45.5 -19.5t17.5 -46.5q0 -25 -16 -41l-25 25h-32l41 -39q-13 -8 -31 -8 q-25 0 -43.5 18.5t-18.5 44.5zM399 858h27v80h55v25h-55v41h59v24h-86v-170zM418 586h24v69h4l50 -69h32l-53 73q17 3 27 17q10 10 10 31q0 26 -15.5 37.5t-50.5 11.5h-28v-170zM442 678v55h11q34 0 34 -26q0 -29 -36 -29h-9zM514 918q0 -27 17.5 -45.5t46.5 -18.5 q28 0 45 20q18 15 18 44v110h-27v-102q0 -47 -36 -47q-37 0 -37 47v102h-27v-110zM543 375q0 -27 17.5 -45.5t45.5 -18.5q26 0 45 19t19 45v110h-27v-102q0 -25 -8.5 -36t-28.5 -11q-39 0 -39 47v102h-24v-110zM545 633q9 -49 55 -49q25 0 39 14t14 39q0 37 -39 51l-16 6 q-20 9 -20 21q0 7 7.5 13.5t18.5 6.5q12 0 14 -2l11 -14l20 12q-16 29 -45 29q-20 0 -35.5 -13t-15.5 -32q0 -28 35 -43l16 -6l10 -7l9 -6l4 -8l2 -10q0 -8 -9 -17.5t-20 -9.5q-29 0 -29 31zM682 858h76v23h-51v147h-25v-170zM684 586h27v170h-27v-170zM709 315h26v170h-26 v-170zM743 672q0 -41 24.5 -64.5t63.5 -23.5q37 0 64 26t27 62q0 37 -27 61q-24 27 -61 27q-38 0 -64.5 -25.5t-26.5 -62.5zM770 672q0 25 18 44t43 19q26 0 45 -18.5t19 -44.5q0 -27 -18 -45q-19 -19 -46 -19q-25 0 -43 18t-18 46zM776 315h27v70h4l49 -70h31l-53 72 q15 3 28 16q10 17 10 33q0 49 -65 49h-31v-170zM782 858h76v23h-51v147h-25v-170zM803 408v53h8q35 0 35 -27q0 -26 -35 -26h-8zM911 315h95v25h-68v55h66v25h-66v41h68v24h-95v-170zM954 586h25v121l125 -132v181h-27v-117l-123 129v-182zM1040 315h35q46 0 71 22.5 t25 61.5q0 41 -26 64q-22 22 -70 22h-35v-170zM1065 340v121h12q34 0 52 -17.5t18 -44.5q0 -24 -21 -45l-20 -12q-2 -2 -29 -2h-12z" />
<glyph unicode="2" d="M76 315v170h30q66 0 66 -49q0 -39 -37 -49l51 -72h-30l-50 70h-4v-70h-26zM102 408h9q36 0 36 26q0 27 -36 27h-9v-53zM117 756h28l48 -117l47 117h28l-75 -183zM213 315v170h94v-24h-69v-41h67v-25h-67v-55h69v-25h-94zM289 586v170h94v-23h-68v-41h66v-24h-66v-58h68 v-24h-94zM332 399q0 37 26.5 63.5t63.5 26.5q36 0 62 -27t26 -65q0 -32 -25 -57l29 -29h-33l-12 15q-21 -15 -49 -15q-33 0 -60.5 26t-27.5 62zM358 399q0 -26 18.5 -44.5t43.5 -18.5q18 0 31 8l-41 39h32l25 -25q16 16 16 41q0 27 -17.5 46.5t-45.5 19.5q-26 0 -44 -19.5 t-18 -46.5zM399 858v170h86v-24h-59v-41h55v-25h-55v-80h-27zM418 586v170h28q35 0 50.5 -11.5t15.5 -37.5q0 -39 -37 -48l53 -73h-32l-50 69h-4v-69h-24zM442 678h9q36 0 36 29q0 26 -34 26h-11v-55zM514 918v110h27v-102q0 -47 37 -47q36 0 36 47v102h27v-110 q0 -26 -18.5 -45t-44.5 -19q-29 0 -46.5 18.5t-17.5 45.5zM543 375v110h24v-102q0 -47 39 -47q20 0 28.5 11t8.5 36v102h27v-110q0 -26 -19 -45t-45 -19q-28 0 -45.5 18.5t-17.5 45.5zM545 633l26 6q0 -31 29 -31q11 0 20 9.5t9 17.5l-2 10l-4 8l-9 6l-10 7l-16 6 q-35 15 -35 43q0 19 15.5 32t35.5 13q29 0 45 -29l-20 -12l-11 14q-2 2 -14 2q-11 0 -18.5 -6.5t-7.5 -13.5q0 -12 20 -21l16 -6q39 -14 39 -51q0 -25 -14 -39t-39 -14q-46 0 -55 49zM682 858v170h25v-147h51v-23h-76zM684 586v170h27v-170h-27zM709 315v170h26v-170h-26z M743 672q0 37 26.5 62.5t64.5 25.5q37 0 62.5 -25.5t25.5 -62.5q0 -36 -27 -62t-64 -26q-39 0 -63.5 23.5t-24.5 64.5zM770 672q0 -28 18 -46t43 -18q26 0 45 19t19 45t-19 44.5t-45 18.5q-25 0 -43 -19t-18 -44zM776 315v170h31q65 0 65 -49q0 -16 -10 -33q-13 -13 -28 -16 l53 -72h-31l-49 70h-4v-70h-27zM782 858v170h25v-147h51v-23h-76zM803 408h8q35 0 35 26q0 27 -35 27h-8v-53zM911 315v170h95v-24h-68v-41h66v-25h-66v-55h68v-25h-95zM954 586v182l123 -129v117h27v-181l-125 132v-121h-25zM1040 315v170h35q46 0 71 -23.5t25 -62.5 t-25 -61.5t-71 -22.5h-35zM1065 340h12q27 0 29 2l20 12q21 21 21 45q0 27 -18 44.5t-52 17.5h-12v-121z" />
<glyph unicode="3" d="M76 315v170h30q66 0 66 -49q0 -39 -37 -49l51 -72h-30l-50 70h-4v-70h-26zM102 408h9q36 0 36 26q0 27 -36 27h-9v-53zM117 756h28l48 -117l47 117h28l-75 -183zM213 315v170h94v-24h-69v-41h67v-25h-67v-55h69v-25h-94zM289 586v170h94v-23h-68v-41h66v-24h-66v-58h68 v-24h-94zM332 399q0 37 26.5 63.5t63.5 26.5q36 0 62 -27t26 -65q0 -32 -25 -57l29 -29h-33l-12 15q-21 -15 -49 -15q-33 0 -60.5 26t-27.5 62zM358 399q0 -26 18.5 -44.5t43.5 -18.5q18 0 31 8l-41 39h32l25 -25q16 16 16 41q0 27 -17.5 46.5t-45.5 19.5q-26 0 -44 -19.5 t-18 -46.5zM399 858v170h86v-24h-59v-41h55v-25h-55v-80h-27zM418 586v170h28q35 0 50.5 -11.5t15.5 -37.5q0 -39 -37 -48l53 -73h-32l-50 69h-4v-69h-24zM442 678h9q36 0 36 29q0 26 -34 26h-11v-55zM514 918v110h27v-102q0 -47 37 -47q36 0 36 47v102h27v-110 q0 -26 -18.5 -45t-44.5 -19q-29 0 -46.5 18.5t-17.5 45.5zM543 375v110h24v-102q0 -47 39 -47q20 0 28.5 11t8.5 36v102h27v-110q0 -26 -19 -45t-45 -19q-28 0 -45.5 18.5t-17.5 45.5zM545 633l26 6q0 -31 29 -31q11 0 20 9.5t9 17.5l-2 10l-4 8l-9 6l-10 7l-16 6 q-35 15 -35 43q0 19 15.5 32t35.5 13q29 0 45 -29l-20 -12l-11 14q-2 2 -14 2q-11 0 -18.5 -6.5t-7.5 -13.5q0 -12 20 -21l16 -6q39 -14 39 -51q0 -25 -14 -39t-39 -14q-46 0 -55 49zM682 858v170h25v-147h51v-23h-76zM684 586v170h27v-170h-27zM709 315v170h26v-170h-26z M743 672q0 37 26.5 62.5t64.5 25.5q37 0 62.5 -25.5t25.5 -62.5q0 -36 -27 -62t-64 -26q-39 0 -63.5 23.5t-24.5 64.5zM770 672q0 -28 18 -46t43 -18q26 0 45 19t19 45t-19 44.5t-45 18.5q-25 0 -43 -19t-18 -44zM776 315v170h31q65 0 65 -49q0 -16 -10 -33q-13 -13 -28 -16 l53 -72h-31l-49 70h-4v-70h-27zM782 858v170h25v-147h51v-23h-76zM803 408h8q35 0 35 26q0 27 -35 27h-8v-53zM911 315v170h95v-24h-68v-41h66v-25h-66v-55h68v-25h-95zM954 586v182l123 -129v117h27v-181l-125 132v-121h-25zM1040 315v170h35q46 0 71 -23.5t25 -62.5 t-25 -61.5t-71 -22.5h-35zM1065 340h12q27 0 29 2l20 12q21 21 21 45q0 27 -18 44.5t-52 17.5h-12v-121z" />
<glyph unicode="4" d="M76 315v170h30q66 0 66 -49q0 -39 -37 -49l51 -72h-30l-50 70h-4v-70h-26zM102 408h9q36 0 36 26q0 27 -36 27h-9v-53zM117 756h28l48 -117l47 117h28l-75 -183zM213 315v170h94v-24h-69v-41h67v-25h-67v-55h69v-25h-94zM289 586v170h94v-23h-68v-41h66v-24h-66v-58h68 v-24h-94zM332 399q0 37 26.5 63.5t63.5 26.5q36 0 62 -27t26 -65q0 -32 -25 -57l29 -29h-33l-12 15q-21 -15 -49 -15q-33 0 -60.5 26t-27.5 62zM358 399q0 -26 18.5 -44.5t43.5 -18.5q18 0 31 8l-41 39h32l25 -25q16 16 16 41q0 27 -17.5 46.5t-45.5 19.5q-26 0 -44 -19.5 t-18 -46.5zM399 858v170h86v-24h-59v-41h55v-25h-55v-80h-27zM418 586v170h28q35 0 50.5 -11.5t15.5 -37.5q0 -39 -37 -48l53 -73h-32l-50 69h-4v-69h-24zM442 678h9q36 0 36 29q0 26 -34 26h-11v-55zM514 918v110h27v-102q0 -47 37 -47q36 0 36 47v102h27v-110 q0 -26 -18.5 -45t-44.5 -19q-29 0 -46.5 18.5t-17.5 45.5zM543 375v110h24v-102q0 -47 39 -47q20 0 28.5 11t8.5 36v102h27v-110q0 -26 -19 -45t-45 -19q-28 0 -45.5 18.5t-17.5 45.5zM545 633l26 6q0 -31 29 -31q11 0 20 9.5t9 17.5l-2 10l-4 8l-9 6l-10 7l-16 6 q-35 15 -35 43q0 19 15.5 32t35.5 13q29 0 45 -29l-20 -12l-11 14q-2 2 -14 2q-11 0 -18.5 -6.5t-7.5 -13.5q0 -12 20 -21l16 -6q39 -14 39 -51q0 -25 -14 -39t-39 -14q-46 0 -55 49zM682 858v170h25v-147h51v-23h-76zM684 586v170h27v-170h-27zM709 315v170h26v-170h-26z M743 672q0 37 26.5 62.5t64.5 25.5q37 0 62.5 -25.5t25.5 -62.5q0 -36 -27 -62t-64 -26q-39 0 -63.5 23.5t-24.5 64.5zM770 672q0 -28 18 -46t43 -18q26 0 45 19t19 45t-19 44.5t-45 18.5q-25 0 -43 -19t-18 -44zM776 315v170h31q65 0 65 -49q0 -16 -10 -33q-13 -13 -28 -16 l53 -72h-31l-49 70h-4v-70h-27zM782 858v170h25v-147h51v-23h-76zM803 408h8q35 0 35 26q0 27 -35 27h-8v-53zM911 315v170h95v-24h-68v-41h66v-25h-66v-55h68v-25h-95zM954 586v182l123 -129v117h27v-181l-125 132v-121h-25zM1040 315v170h35q46 0 71 -23.5t25 -62.5 t-25 -61.5t-71 -22.5h-35zM1065 340h12q27 0 29 2l20 12q21 21 21 45q0 27 -18 44.5t-52 17.5h-12v-121z" />
<glyph unicode="5" d="M76 315v170h30q66 0 66 -49q0 -39 -37 -49l51 -72h-30l-50 70h-4v-70h-26zM102 408h9q36 0 36 26q0 27 -36 27h-9v-53zM117 756h28l48 -117l47 117h28l-75 -183zM213 315v170h94v-24h-69v-41h67v-25h-67v-55h69v-25h-94zM289 586v170h94v-23h-68v-41h66v-24h-66v-58h68 v-24h-94zM332 399q0 37 26.5 63.5t63.5 26.5q36 0 62 -27t26 -65q0 -32 -25 -57l29 -29h-33l-12 15q-21 -15 -49 -15q-33 0 -60.5 26t-27.5 62zM358 399q0 -26 18.5 -44.5t43.5 -18.5q18 0 31 8l-41 39h32l25 -25q16 16 16 41q0 27 -17.5 46.5t-45.5 19.5q-26 0 -44 -19.5 t-18 -46.5zM399 858v170h86v-24h-59v-41h55v-25h-55v-80h-27zM418 586v170h28q35 0 50.5 -11.5t15.5 -37.5q0 -39 -37 -48l53 -73h-32l-50 69h-4v-69h-24zM442 678h9q36 0 36 29q0 26 -34 26h-11v-55zM514 918v110h27v-102q0 -47 37 -47q36 0 36 47v102h27v-110 q0 -26 -18.5 -45t-44.5 -19q-29 0 -46.5 18.5t-17.5 45.5zM543 375v110h24v-102q0 -47 39 -47q20 0 28.5 11t8.5 36v102h27v-110q0 -26 -19 -45t-45 -19q-28 0 -45.5 18.5t-17.5 45.5zM545 633l26 6q0 -31 29 -31q11 0 20 9.5t9 17.5l-2 10l-4 8l-9 6l-10 7l-16 6 q-35 15 -35 43q0 19 15.5 32t35.5 13q29 0 45 -29l-20 -12l-11 14q-2 2 -14 2q-11 0 -18.5 -6.5t-7.5 -13.5q0 -12 20 -21l16 -6q39 -14 39 -51q0 -25 -14 -39t-39 -14q-46 0 -55 49zM682 858v170h25v-147h51v-23h-76zM684 586v170h27v-170h-27zM709 315v170h26v-170h-26z M743 672q0 37 26.5 62.5t64.5 25.5q37 0 62.5 -25.5t25.5 -62.5q0 -36 -27 -62t-64 -26q-39 0 -63.5 23.5t-24.5 64.5zM770 672q0 -28 18 -46t43 -18q26 0 45 19t19 45t-19 44.5t-45 18.5q-25 0 -43 -19t-18 -44zM776 315v170h31q65 0 65 -49q0 -16 -10 -33q-13 -13 -28 -16 l53 -72h-31l-49 70h-4v-70h-27zM782 858v170h25v-147h51v-23h-76zM803 408h8q35 0 35 26q0 27 -35 27h-8v-53zM911 315v170h95v-24h-68v-41h66v-25h-66v-55h68v-25h-95zM954 586v182l123 -129v117h27v-181l-125 132v-121h-25zM1040 315v170h35q46 0 71 -23.5t25 -62.5 t-25 -61.5t-71 -22.5h-35zM1065 340h12q27 0 29 2l20 12q21 21 21 45q0 27 -18 44.5t-52 17.5h-12v-121z" />
<glyph unicode="6" d="M76 315v170h30q66 0 66 -49q0 -39 -37 -49l51 -72h-30l-50 70h-4v-70h-26zM102 408h9q36 0 36 26q0 27 -36 27h-9v-53zM117 756h28l48 -117l47 117h28l-75 -183zM213 315v170h94v-24h-69v-41h67v-25h-67v-55h69v-25h-94zM289 586v170h94v-23h-68v-41h66v-24h-66v-58h68 v-24h-94zM332 399q0 37 26.5 63.5t63.5 26.5q36 0 62 -27t26 -65q0 -32 -25 -57l29 -29h-33l-12 15q-21 -15 -49 -15q-33 0 -60.5 26t-27.5 62zM358 399q0 -26 18.5 -44.5t43.5 -18.5q18 0 31 8l-41 39h32l25 -25q16 16 16 41q0 27 -17.5 46.5t-45.5 19.5q-26 0 -44 -19.5 t-18 -46.5zM399 858v170h86v-24h-59v-41h55v-25h-55v-80h-27zM418 586v170h28q35 0 50.5 -11.5t15.5 -37.5q0 -39 -37 -48l53 -73h-32l-50 69h-4v-69h-24zM442 678h9q36 0 36 29q0 26 -34 26h-11v-55zM514 918v110h27v-102q0 -47 37 -47q36 0 36 47v102h27v-110 q0 -26 -18.5 -45t-44.5 -19q-29 0 -46.5 18.5t-17.5 45.5zM543 375v110h24v-102q0 -47 39 -47q20 0 28.5 11t8.5 36v102h27v-110q0 -26 -19 -45t-45 -19q-28 0 -45.5 18.5t-17.5 45.5zM545 633l26 6q0 -31 29 -31q11 0 20 9.5t9 17.5l-2 10l-4 8l-9 6l-10 7l-16 6 q-35 15 -35 43q0 19 15.5 32t35.5 13q29 0 45 -29l-20 -12l-11 14q-2 2 -14 2q-11 0 -18.5 -6.5t-7.5 -13.5q0 -12 20 -21l16 -6q39 -14 39 -51q0 -25 -14 -39t-39 -14q-46 0 -55 49zM682 858v170h25v-147h51v-23h-76zM684 586v170h27v-170h-27zM709 315v170h26v-170h-26z M743 672q0 37 26.5 62.5t64.5 25.5q37 0 62.5 -25.5t25.5 -62.5q0 -36 -27 -62t-64 -26q-39 0 -63.5 23.5t-24.5 64.5zM770 672q0 -28 18 -46t43 -18q26 0 45 19t19 45t-19 44.5t-45 18.5q-25 0 -43 -19t-18 -44zM776 315v170h31q65 0 65 -49q0 -16 -10 -33q-13 -13 -28 -16 l53 -72h-31l-49 70h-4v-70h-27zM782 858v170h25v-147h51v-23h-76zM803 408h8q35 0 35 26q0 27 -35 27h-8v-53zM911 315v170h95v-24h-68v-41h66v-25h-66v-55h68v-25h-95zM954 586v182l123 -129v117h27v-181l-125 132v-121h-25zM1040 315v170h35q46 0 71 -23.5t25 -62.5 t-25 -61.5t-71 -22.5h-35zM1065 340h12q27 0 29 2l20 12q21 21 21 45q0 27 -18 44.5t-52 17.5h-12v-121z" />
<glyph unicode="7" d="M76 315v170h30q66 0 66 -49q0 -39 -37 -49l51 -72h-30l-50 70h-4v-70h-26zM102 408h9q36 0 36 26q0 27 -36 27h-9v-53zM117 756h28l48 -117l47 117h28l-75 -183zM213 315v170h94v-24h-69v-41h67v-25h-67v-55h69v-25h-94zM289 586v170h94v-23h-68v-41h66v-24h-66v-58h68 v-24h-94zM332 399q0 37 26.5 63.5t63.5 26.5q36 0 62 -27t26 -65q0 -32 -25 -57l29 -29h-33l-12 15q-21 -15 -49 -15q-33 0 -60.5 26t-27.5 62zM358 399q0 -26 18.5 -44.5t43.5 -18.5q18 0 31 8l-41 39h32l25 -25q16 16 16 41q0 27 -17.5 46.5t-45.5 19.5q-26 0 -44 -19.5 t-18 -46.5zM399 858v170h86v-24h-59v-41h55v-25h-55v-80h-27zM418 586v170h28q35 0 50.5 -11.5t15.5 -37.5q0 -39 -37 -48l53 -73h-32l-50 69h-4v-69h-24zM442 678h9q36 0 36 29q0 26 -34 26h-11v-55zM514 918v110h27v-102q0 -47 37 -47q36 0 36 47v102h27v-110 q0 -26 -18.5 -45t-44.5 -19q-29 0 -46.5 18.5t-17.5 45.5zM543 375v110h24v-102q0 -47 39 -47q20 0 28.5 11t8.5 36v102h27v-110q0 -26 -19 -45t-45 -19q-28 0 -45.5 18.5t-17.5 45.5zM545 633l26 6q0 -31 29 -31q11 0 20 9.5t9 17.5l-2 10l-4 8l-9 6l-10 7l-16 6 q-35 15 -35 43q0 19 15.5 32t35.5 13q29 0 45 -29l-20 -12l-11 14q-2 2 -14 2q-11 0 -18.5 -6.5t-7.5 -13.5q0 -12 20 -21l16 -6q39 -14 39 -51q0 -25 -14 -39t-39 -14q-46 0 -55 49zM682 858v170h25v-147h51v-23h-76zM684 586v170h27v-170h-27zM709 315v170h26v-170h-26z M743 672q0 37 26.5 62.5t64.5 25.5q37 0 62.5 -25.5t25.5 -62.5q0 -36 -27 -62t-64 -26q-39 0 -63.5 23.5t-24.5 64.5zM770 672q0 -28 18 -46t43 -18q26 0 45 19t19 45t-19 44.5t-45 18.5q-25 0 -43 -19t-18 -44zM776 315v170h31q65 0 65 -49q0 -16 -10 -33q-13 -13 -28 -16 l53 -72h-31l-49 70h-4v-70h-27zM782 858v170h25v-147h51v-23h-76zM803 408h8q35 0 35 26q0 27 -35 27h-8v-53zM911 315v170h95v-24h-68v-41h66v-25h-66v-55h68v-25h-95zM954 586v182l123 -129v117h27v-181l-125 132v-121h-25zM1040 315v170h35q46 0 71 -23.5t25 -62.5 t-25 -61.5t-71 -22.5h-35zM1065 340h12q27 0 29 2l20 12q21 21 21 45q0 27 -18 44.5t-52 17.5h-12v-121z" />
<glyph unicode="8" d="M76 315v170h30q66 0 66 -49q0 -39 -37 -49l51 -72h-30l-50 70h-4v-70h-26zM102 408h9q36 0 36 26q0 27 -36 27h-9v-53zM117 756h28l48 -117l47 117h28l-75 -183zM213 315v170h94v-24h-69v-41h67v-25h-67v-55h69v-25h-94zM289 586v170h94v-23h-68v-41h66v-24h-66v-58h68 v-24h-94zM332 399q0 37 26.5 63.5t63.5 26.5q36 0 62 -27t26 -65q0 -32 -25 -57l29 -29h-33l-12 15q-21 -15 -49 -15q-33 0 -60.5 26t-27.5 62zM358 399q0 -26 18.5 -44.5t43.5 -18.5q18 0 31 8l-41 39h32l25 -25q16 16 16 41q0 27 -17.5 46.5t-45.5 19.5q-26 0 -44 -19.5 t-18 -46.5zM399 858v170h86v-24h-59v-41h55v-25h-55v-80h-27zM418 586v170h28q35 0 50.5 -11.5t15.5 -37.5q0 -39 -37 -48l53 -73h-32l-50 69h-4v-69h-24zM442 678h9q36 0 36 29q0 26 -34 26h-11v-55zM514 918v110h27v-102q0 -47 37 -47q36 0 36 47v102h27v-110 q0 -26 -18.5 -45t-44.5 -19q-29 0 -46.5 18.5t-17.5 45.5zM543 375v110h24v-102q0 -47 39 -47q20 0 28.5 11t8.5 36v102h27v-110q0 -26 -19 -45t-45 -19q-28 0 -45.5 18.5t-17.5 45.5zM545 633l26 6q0 -31 29 -31q11 0 20 9.5t9 17.5l-2 10l-4 8l-9 6l-10 7l-16 6 q-35 15 -35 43q0 19 15.5 32t35.5 13q29 0 45 -29l-20 -12l-11 14q-2 2 -14 2q-11 0 -18.5 -6.5t-7.5 -13.5q0 -12 20 -21l16 -6q39 -14 39 -51q0 -25 -14 -39t-39 -14q-46 0 -55 49zM682 858v170h25v-147h51v-23h-76zM684 586v170h27v-170h-27zM709 315v170h26v-170h-26z M743 672q0 37 26.5 62.5t64.5 25.5q37 0 62.5 -25.5t25.5 -62.5q0 -36 -27 -62t-64 -26q-39 0 -63.5 23.5t-24.5 64.5zM770 672q0 -28 18 -46t43 -18q26 0 45 19t19 45t-19 44.5t-45 18.5q-25 0 -43 -19t-18 -44zM776 315v170h31q65 0 65 -49q0 -16 -10 -33q-13 -13 -28 -16 l53 -72h-31l-49 70h-4v-70h-27zM782 858v170h25v-147h51v-23h-76zM803 408h8q35 0 35 26q0 27 -35 27h-8v-53zM911 315v170h95v-24h-68v-41h66v-25h-66v-55h68v-25h-95zM954 586v182l123 -129v117h27v-181l-125 132v-121h-25zM1040 315v170h35q46 0 71 -23.5t25 -62.5 t-25 -61.5t-71 -22.5h-35zM1065 340h12q27 0 29 2l20 12q21 21 21 45q0 27 -18 44.5t-52 17.5h-12v-121z" />
<glyph unicode="9" d="M76 315v170h30q66 0 66 -49q0 -39 -37 -49l51 -72h-30l-50 70h-4v-70h-26zM102 408h9q36 0 36 26q0 27 -36 27h-9v-53zM117 756h28l48 -117l47 117h28l-75 -183zM213 315v170h94v-24h-69v-41h67v-25h-67v-55h69v-25h-94zM289 586v170h94v-23h-68v-41h66v-24h-66v-58h68 v-24h-94zM332 399q0 37 26.5 63.5t63.5 26.5q36 0 62 -27t26 -65q0 -32 -25 -57l29 -29h-33l-12 15q-21 -15 -49 -15q-33 0 -60.5 26t-27.5 62zM358 399q0 -26 18.5 -44.5t43.5 -18.5q18 0 31 8l-41 39h32l25 -25q16 16 16 41q0 27 -17.5 46.5t-45.5 19.5q-26 0 -44 -19.5 t-18 -46.5zM399 858v170h86v-24h-59v-41h55v-25h-55v-80h-27zM418 586v170h28q35 0 50.5 -11.5t15.5 -37.5q0 -39 -37 -48l53 -73h-32l-50 69h-4v-69h-24zM442 678h9q36 0 36 29q0 26 -34 26h-11v-55zM514 918v110h27v-102q0 -47 37 -47q36 0 36 47v102h27v-110 q0 -26 -18.5 -45t-44.5 -19q-29 0 -46.5 18.5t-17.5 45.5zM543 375v110h24v-102q0 -47 39 -47q20 0 28.5 11t8.5 36v102h27v-110q0 -26 -19 -45t-45 -19q-28 0 -45.5 18.5t-17.5 45.5zM545 633l26 6q0 -31 29 -31q11 0 20 9.5t9 17.5l-2 10l-4 8l-9 6l-10 7l-16 6 q-35 15 -35 43q0 19 15.5 32t35.5 13q29 0 45 -29l-20 -12l-11 14q-2 2 -14 2q-11 0 -18.5 -6.5t-7.5 -13.5q0 -12 20 -21l16 -6q39 -14 39 -51q0 -25 -14 -39t-39 -14q-46 0 -55 49zM682 858v170h25v-147h51v-23h-76zM684 586v170h27v-170h-27zM709 315v170h26v-170h-26z M743 672q0 37 26.5 62.5t64.5 25.5q37 0 62.5 -25.5t25.5 -62.5q0 -36 -27 -62t-64 -26q-39 0 -63.5 23.5t-24.5 64.5zM770 672q0 -28 18 -46t43 -18q26 0 45 19t19 45t-19 44.5t-45 18.5q-25 0 -43 -19t-18 -44zM776 315v170h31q65 0 65 -49q0 -16 -10 -33q-13 -13 -28 -16 l53 -72h-31l-49 70h-4v-70h-27zM782 858v170h25v-147h51v-23h-76zM803 408h8q35 0 35 26q0 27 -35 27h-8v-53zM911 315v170h95v-24h-68v-41h66v-25h-66v-55h68v-25h-95zM954 586v182l123 -129v117h27v-181l-125 132v-121h-25zM1040 315v170h35q46 0 71 -23.5t25 -62.5 t-25 -61.5t-71 -22.5h-35zM1065 340h12q27 0 29 2l20 12q21 21 21 45q0 27 -18 44.5t-52 17.5h-12v-121z" />
<glyph unicode=":" d="M512 135q0 -56 39 -95.5t96 -39.5q55 0 93 39.5t38 95.5q0 54 -38 92.5t-93 38.5q-57 0 -96 -38.5t-39 -92.5zM512 893q0 -56 39 -95.5t96 -39.5q55 0 93 39.5t38 95.5q0 54 -38 92.5t-93 38.5q-57 0 -96 -38.5t-39 -92.5zM575 135q0 30 21 51t51 21q29 0 51.5 -21.5 t22.5 -50.5q0 -31 -21.5 -52.5t-52.5 -21.5t-51.5 21t-20.5 53zM575 893q0 30 21 51t51 21q29 0 51.5 -21.5t22.5 -50.5q0 -31 -21.5 -52.5t-52.5 -21.5t-51.5 21t-20.5 53zM612 135q0 -17 10.5 -27t24.5 -10q13 0 24 11.5t11 25.5q0 12 -11 23.5t-24 11.5t-24 -11.5 t-11 -23.5zM612 893q0 -17 10.5 -27t24.5 -10q13 0 24 11.5t11 25.5q0 12 -11 23.5t-24 11.5t-24 -11.5t-11 -23.5z" />
<glyph unicode=";" d="M340 -152l27 25q68 66 106 113q28 -19 59 -25q-16 -24 -98 -106l45 -25q67 67 107 123l37 57l-56 -10h-12q-54 4 -88.5 42.5t-34.5 92.5q0 55 40 95t95 40q39 0 64 -14q80 -44 80 -145q0 -145 -209 -342l-19 -19zM451 903q0 -56 39 -95.5t96 -39.5q55 0 93 39.5t38 95.5 q0 54 -38 92.5t-93 38.5q-57 0 -96 -38.5t-39 -92.5zM494 135q0 -30 19 -51.5t48 -22.5h10q18 0 33 9q39 16 39 65q0 18 -11 37t-24 25l-2 2q-17 10 -39 10q-31 0 -52 -21.5t-21 -52.5zM514 903q0 30 21 51t51 21q29 0 51 -21.5t22 -50.5q0 -31 -21 -52.5t-52 -21.5 t-51.5 21t-20.5 53zM532 135q0 13 11 24t24 11t24 -11t11 -24q0 -14 -9.5 -24.5t-25.5 -10.5q-13 0 -24 11t-11 24zM551 903q0 -17 10.5 -27t24.5 -10q13 0 24 11.5t11 25.5q0 12 -11 23.5t-24 11.5t-24 -11.5t-11 -23.5z" />
<glyph unicode="&#x3c;" />
<glyph unicode="=" />
<glyph unicode="&#x3e;" />
<glyph unicode="?" d="M336 135q0 54 39 92.5t96 38.5q55 0 93 -38.5t38 -92.5q0 -56 -38 -95.5t-93 -39.5q-57 0 -96 39.5t-39 95.5zM346 1217v217h408q105 0 188 -62q115 -89 115 -268q0 -161 -89.5 -243.5t-267.5 -82.5h-131v-409h-219v628h201q105 0 166 7q56 5 80 28t24 72q0 43 -18 70 q-18 28 -44 35.5t-91 7.5h-322zM399 135q0 -32 20.5 -53t51.5 -21t52.5 21.5t21.5 52.5q0 29 -22.5 50.5t-51.5 21.5q-30 0 -51 -21t-21 -51zM420 434h80v416h200q143 0 213 62.5t70 191.5q0 121 -61.5 188.5t-167.5 67.5h-334v-70h184l23 2h67q39 0 119 -22 q49 -25 68.5 -61.5t19.5 -104.5q0 -66 -21.5 -102.5t-70.5 -55.5q-36 -13 -68 -16.5t-120 -3.5h-201v-492zM436 135q0 12 11 23.5t24 11.5t24 -11.5t11 -23.5q0 -14 -11 -25.5t-24 -11.5q-14 0 -24.5 10t-10.5 27z" />
<glyph unicode="A" horiz-adv-x="1540" d="M0 2l641 1432h131l645 -1432l-377 -2l-131 297l-534 2l-72 -172h-90l104 240h635l131 -293h217l-569 1290h-49l-567 -1290h243l66 162h422l31 -70h-408l-70 -164h-399zM338 424l369 827l503 -1122h-84l-419 954l-250 -596h362l-112 246l-76 -186h-80l156 375l225 -498 h-594z" />
<glyph unicode="B" horiz-adv-x="1181" d="M0 2v1423h74v-1349h528q196 0 300 94.5t104 273.5q0 147 -37 193l-39 45l-27 27l23 22l20 33q51 92 51 213q0 182 -102 277.5t-293 95.5h-391v-469h410q100 0 100 96q0 53 -27.5 81.5t-72.5 28.5h-269v-143h-73v215h342q70 0 112 -39q62 -59 62 -143q0 -81 -46 -125.5 t-128 -44.5h-482v616h473q217 0 337 -116.5t120 -329.5q0 -156 -72 -266q82 -107 82 -267q0 -209 -127 -325.5t-350 -116.5h-602zM139 135v475h482q82 0 131 -46.5t49 -125.5q0 -48 -19 -84q-43 -88 -161 -88h-342v209h73v-135h269q106 0 106 98q0 97 -106 97h-410v-324h440 q59 0 113 31q106 63 106 188q0 112 -61 178t-164 66h-504v74h504q98 0 157.5 67t59.5 174q0 61 -28 115q-30 52 -80.5 82.5t-102.5 30.5h-370v73h370q86 0 150 -37q65 -38 101 -108t36 -156q0 -96 -38.5 -167.5t-108.5 -110.5l53 -39q100 -87 100 -242q0 -123 -90 -213 q-94 -82 -203 -82h-512z" />
<glyph unicode="C" d="M-6 715q0 190 98 358q97 166 260 260t357 94q134 0 259 -48t224 -136l29 -29l-52 -53l-16 17l-12 10q-88 82 -199 125t-233 43q-172 0 -320 -86q-149 -86 -235 -234.5t-86 -320.5t86 -320t234.5 -233.5t320.5 -85.5q104 0 198 32.5t207 106.5l-115 170 q-88 -56 -153.5 -79t-136.5 -23q-108 0 -211 59q-100 60 -159.5 162t-59.5 211q0 112 59 215q60 103 156.5 159t214.5 56q133 0 249 -78q4 -5 15 -8l45 51l-17 14q-145 95 -292 95q-101 0 -193.5 -38.5t-163.5 -111.5q-147 -147 -147 -354q0 -101 38 -193.5t109 -163.5 q72 -72 164.5 -110.5t192.5 -38.5q143 0 268 82l41 -62q-145 -92 -309 -92q-115 0 -220.5 44t-187.5 126t-126 187.5t-44 220.5q0 230 170 409q174 168 408 168q190 0 333 -110q37 -22 56 -41l22 -23l-137 -162l-31 23q-18 18 -37 29q-89 65 -206 65q-94 0 -177 -47 q-84 -48 -132 -130t-48 -181q0 -94 51 -174q50 -84 132 -133.5t174 -49.5q66 0 124.5 23t155.5 86l33 20l195 -292l-29 -19q-137 -94 -247.5 -135t-231.5 -41q-189 0 -355 96q-165 97 -262.5 264t-97.5 355z" />
<glyph unicode="D" horiz-adv-x="1349" d="M33 2v1298h583q179 0 353 -174q78 -86 119.5 -192t41.5 -217q0 -227 -167 -406q-75 -79 -167.5 -124.5t-177.5 -45.5h-305v37l2 846h72l-2 -809h233q67 0 144 39.5t145 107.5q72 75 111 168t39 187q0 127 -62 248q-63 121 -164.5 190.5t-214.5 69.5l-510 2v-1149h527 q135 0 272 94q139 92 215 235t76 310q0 156 -78 309q-80 151 -211.5 240.5t-273.5 89.5l-600 2v74h600q115 0 228 -54t206 -151q98 -104 149.5 -235.5t51.5 -274.5t-53.5 -275t-153.5 -235q-91 -97 -204.5 -151t-223.5 -54h-600zM170 1155l440 2q100 0 189 -59 q90 -61 143 -165t53 -214q0 -104 -55 -205t-149.5 -167t-180.5 -66h-145v73h145q51 0 106.5 30.5t102.5 84.5q48 55 75.5 121.5t27.5 128.5q0 94 -43 176q-42 81 -120.5 135.5t-148.5 54.5l-364 -2v-946h-74z" />
<glyph unicode="E" horiz-adv-x="1050" d="M0 0h932v352h-578v123h-73v-196h577v-205h-784v1356h-74v-1430zM139 137h647v74h-573v340h623v352h-482v318h422v73h-495v-465h481v-204h-623v-488zM139 690h551v74h-477v592h635v-203h-418v-74h492v351h-783v-740z" />
<glyph unicode="F" horiz-adv-x="1030" d="M0 0h348v512h479v215h-551v-74h478v-67h-480v-512h-200v1360h-74v-1434zM137 131h72v1229h645v-201h-438v-74h512v349h-791v-1303zM274 788h553v76h-479v363h443v73h-517v-512z" />
<glyph unicode="G" horiz-adv-x="1351" d="M10 715q0 -183 99 -353q97 -168 261.5 -265t354.5 -97q122 0 231 40t246 134l15 12v584h-521v-74h449v-471q-130 -85 -222.5 -118t-197.5 -33q-171 0 -319 86q-149 86 -235.5 234.5t-86.5 320.5q0 170 86 321q86 149 234.5 235.5t320.5 86.5q122 0 233 -43t199 -125 l29 -29l51 53l-14 17q-9 9 -17 12q-98 91 -223 140t-258 49q-190 0 -356 -93q-162 -94 -260.5 -263.5t-98.5 -360.5zM147 715q0 -152 78 -287q78 -134 212 -211.5t288 -77.5q173 0 307 92l47 37v365h-383v-209h170v-33q-62 -33 -141 -33q-95 0 -178 50q-81 47 -129.5 130.5 t-48.5 176.5q0 98 49 180q47 81 130.5 129.5t176.5 48.5q116 0 205 -65l65 -52l148 160l-27 27l-53 41q-163 108 -338 108q-160 0 -289 -75q-132 -75 -210.5 -211t-78.5 -291zM221 715q0 134 68 252q68 117 184.5 184.5t251.5 67.5q160 0 295 -97l16 -12l-49 -53l-14 10 q-116 78 -248 78q-117 0 -215 -58q-100 -57 -157.5 -156t-57.5 -216q0 -121 57 -213q55 -98 158.5 -157.5t214.5 -59.5q94 0 195 49l20 10v154h-170v61h236v-256l-15 -12q-116 -78 -266 -78q-134 0 -252 68q-117 68 -184.5 183.5t-67.5 250.5z" />
<glyph unicode="H" horiz-adv-x="1331" d="M16 0h357v471h-76v-395h-207v1282h207v-397h76v473h-357v-1434zM156 125h75v412h625v-537h221v752h-921v-72h848v-604h-76v536h-772v-487zM158 825h770v609h-72v-537h-625v401h-73v-473zM1004 819h73v539h70v-1358h72v1434h-215v-615z" />
<glyph unicode="I" horiz-adv-x="681" d="M164 0h354v1434h-74v-1360h-206v1286h67v-1223h74v1297h-215v-1434z" />
<glyph unicode="J" horiz-adv-x="931" d="M41 195l16 -23l35 -35q40 -42 59.5 -55t84.5 -45q75 -37 170 -37q68 0 81 8q195 37 279 176t84 422v826h-74v-826q0 -251 -69.5 -372t-231.5 -152q-37 -6 -69 -6q-80 0 -153.5 33t-117.5 88l113 143q89 -74 160 -74q165 0 165 297v795h64v-797q0 -158 -41.5 -240 t-134.5 -108q-13 -8 -58 -8q-69 0 -137 51q-4 4 -6 4l-2 2l-43 -59h2l6 -6q98 -68 178 -68q37 0 80 12q121 37 175.5 136t54.5 284v873l-211 -2v-869q0 -223 -92 -223q-29 0 -73.5 26.5t-64.5 55.5l-30 31z" />
<glyph unicode="K" horiz-adv-x="1351" d="M51 -2v1436h74v-1362h209v540l543 684h94l-561 -710v-586zM190 125v528l609 781h452l-635 -811l367 -498h-92l-369 498l578 735h-266l-570 -729v-504h-74zM190 776v658h218v-381l-76 -95v400h-68v-488zM479 444v123l367 -495h260l-401 542l47 60l501 -674h-444z" />
<glyph unicode="L" horiz-adv-x="944" d="M0 0h821v344h-407v-74h334v-196h-674v1288h61v-1227h76v1301h-211v-1436zM279 135h403v76h-330v1225h-73v-1301z" />
<glyph unicode="M" horiz-adv-x="1710" d="M0 0l217 1430l12 -21l588 -1108l68 -125l205 389l2 -14l16 -109l-223 -424l-627 1180l-172 -1122h209l70 459l16 -31l43 -80l-66 -424h-358zM160 129l133 856l524 -985h-84l-401 756l-99 -627h-73zM289 1436h84l510 -959l286 531l154 -1008h-74l-119 778l-247 -459z M846 707l96 178l291 551h158l217 -1436h-217l-7 31h2l-163 1073l57 108l18 -122l156 -1014h68l-35 235l-154 1000l-6 49h-49l-68 -125l-6 -14l-180 -336l-135 -256z" />
<glyph unicode="N" horiz-adv-x="1357" d="M61 0v1374l1053 -1063v-108l-981 995v-1198h-72zM100 1434h103l837 -850v706h74v-887zM201 0v1032l938 -950l8 -8h35v1288h-209v-614l-74 79v607h356v-1434h-131l-850 852v-778h66v608l76 -78v-604h-215z" />
<glyph unicode="O" horiz-adv-x="1439" d="M0 719q0 -192 98 -357q98 -166 267 -264t356 -98q190 0 358 98q165 96 263 266t98 355q0 182 -97 356q-97 167 -265 265t-357 98q-182 0 -356 -97q-169 -98 -267 -265t-98 -357zM76 719q0 174 86 325q87 150 235 236t324 86q172 0 323 -86q152 -86 238 -235t86 -326 q0 -176 -86 -324q-87 -150 -236 -235.5t-325 -85.5t-324 86q-150 87 -235.5 235t-85.5 324zM135 719q0 -156 80 -289q77 -134 215 -212.5t291 -78.5q154 0 293 80q134 77 209 210.5t75 289.5q0 166 -71 299q-74 132 -206.5 205t-299.5 73q-168 0 -297 -75 q-133 -75 -211 -211t-78 -291zM213 719q0 138 68 256q68 116 186 183t254 67q131 0 254 -66q118 -68 185 -184.5t67 -255.5q0 -134 -68 -252q-70 -120 -185 -188t-253 -68q-141 0 -254 70q-117 68 -185.5 185t-68.5 253zM272 719q0 -115 62 -221t164 -166t223 -60 q120 0 223 62q103 60 159 161t56 224q0 126 -57 225q-57 100 -160 159.5t-221 59.5q-126 0 -225 -57q-102 -57 -163 -161.5t-61 -225.5zM348 719q0 101 51 184q51 86 137.5 136.5t184.5 50.5t184 -50q85 -49 133.5 -135t48.5 -186q0 -99 -47 -182q-50 -87 -133.5 -136 t-185.5 -49q-107 0 -189 49q-86 49 -135 134t-49 184z" />
<glyph unicode="P" horiz-adv-x="1097" d="M31 0h354v494h176q215 0 334 125t119 352q0 219 -127.5 342t-351.5 123h-363v-662h332q217 0 217 197q0 85 -45.5 131.5t-130.5 46.5h-232v-240l76 2v166h156q106 0 106 -106q0 -66 -33.5 -93.5t-113.5 -27.5h-262v510h293q198 0 302.5 -99.5t104.5 -289.5 q0 -119 -38 -206.5t-111 -131.5q-94 -64 -232 -64h-252v-493h-203v1360h-75v-1436zM172 123h70v512h274q177 0 266.5 82.5t89.5 243.5q0 107 -36 178q-36 72 -107 111.5t-160 39.5h-256v-73h256q107 0 168.5 -67.5t61.5 -188.5q0 -129 -70 -191.5t-213 -62.5h-344v-584z" />
<glyph unicode="Q" horiz-adv-x="1558" d="M0 715q0 190 98 358q97 168 262 264.5t359 96.5q182 0 356 -97q166 -97 263.5 -265t97.5 -357q0 -173 -81.5 -329.5t-224.5 -256.5l-2 -2l-30 -21l313 -509h-422l-344 544q-104 13 -196 61t-158 122q-74 80 -114 181.5t-40 209.5q0 156 78 291q79 133 213 210.5t291 77.5 q152 0 291 -80q137 -80 211.5 -210t74.5 -289q0 -162 -82.5 -299.5t-224.5 -212.5l-31 -15l-118 189l39 16q93 47 146.5 133.5t53.5 190.5q0 99 -47 182q-49 84 -132.5 131t-182.5 47q-97 0 -180 -47q-84 -48 -132.5 -131t-48.5 -182q0 -97 50 -180q47 -85 130.5 -134 t180.5 -49h22l23 4l397 -626h-86l-350 549q-116 0 -219 59q-102 60 -161.5 162t-59.5 215q0 114 59 217q60 101 162 160t213 59q122 0 221 -57q100 -57 157.5 -157.5t57.5 -221.5q0 -112 -55 -210.5t-152 -158.5l39 -63q112 69 174 182.5t62 247.5q0 131 -66 254 q-68 119 -184 186.5t-252 67.5t-254 -68t-185 -184.5t-67 -255.5q0 -128 61 -238q62 -110 171.5 -183.5t226.5 -80.5l18 -2l340 -541h248l-37 62l-246 397l95 61q127 90 198.5 229.5t71.5 295.5q0 174 -86 325q-86 148 -235.5 234t-319.5 86q-171 0 -322 -86 q-152 -86 -237.5 -234t-85.5 -325q0 -121 44 -233.5t126 -200.5q145 -157 352 -195l49 -86q-130 13 -249 72.5t-210 156.5q-186 211 -186 486z" />
<glyph unicode="R" horiz-adv-x="1275" d="M82 0v1434h74v-1360h206v524l191 2l283 -526h235l-227 428l67 26l283 -528h-403l-281 526h-72v-526h-356zM221 125v1309h363q176 0 299.5 -57.5t185.5 -166.5q53 -103 53 -227q0 -188 -96 -300t-281 -144l224 -416h-84l-256 473l55 6q174 19 269.5 117.5t95.5 263.5 q0 182 -121 279.5t-344 97.5h-289v-1235h-74zM360 803v201h76v-127h119q205 0 205 106q0 92 -164 92h-236v215h258q169 0 266 -83t97 -234q0 -159 -101 -234t-313 -75h-205v71h205q173 0 256.5 58.5t83.5 179.5q0 117 -76 180.5t-213 63.5h-182v-70h160q159 0 211 -76 q27 -35 27 -88q0 -88 -71.5 -134t-207.5 -46h-195z" />
<glyph unicode="S" horiz-adv-x="1103" d="M0 178l180 291l31 -18q75 -48 161.5 -78.5t151.5 -30.5q84 0 105 49q8 13 8 41q0 16 -6 25l-2 4q-26 47 -152 88l-24 8q-277 83 -371 272q-37 73 -37 168q0 92 37 179l6 14q87 173 270 223q50 21 144 21q222 0 520 -181l-39 -63q-274 170 -483 170q-2 0 -15.5 -2 t-44.5 -6.5t-63 -8.5q-152 -46 -223 -186l-4 -8q-31 -79 -31 -152q0 -71 31 -135q76 -162 323 -235l6 -2l21 -7q83 -27 128.5 -56t65.5 -70l4 -9q13 -32 13 -51q0 -43 -15 -70l-2 -4q-30 -61 -100 -79q-15 -9 -70 -9q-111 0 -262 68l-57 31l-103 -166l58 -31 q214 -98 364 -98q1 0 123 16q152 46 223 186l4 9q33 62 33 153q0 74 -30 135q-50 102 -170 170q-59 29 -99 45l-51 17l-27 8q-165 49 -206 133q-11 18 -11 49q0 47 15 74l2 4q35 65 100 82q13 8 72 8q120 0 317 -98l33 51q-195 109 -356 109l-82 -11q-92 -27 -142 -116 q-20 -39 -20 -97q0 -43 18 -81q48 -105 242 -164l27 -8q98 -33 163 -68q144 -76 144 -240q0 -90 -41 -161q-41 -70 -114 -107t-165 -37q-158 0 -333 88l2 4l34 60q197 -78 295 -78q154 0 219 115q29 56 29 114q0 110 -98 168q-58 34 -101 49l-55 21l-26 8q-225 67 -289 205 q-25 55 -25 110q0 75 27 127q62 120 188 158q25 14 109 14q93 0 209.5 -38.5t210.5 -100.5l32 -18l-110 -176l-31 18q-75 48 -161.5 78.5t-151.5 30.5q-50 0 -68 -9q-20 -8 -32.5 -30.5t-12.5 -53.5l4 -22q9 -15 45 -43q28 -23 115 -51l29 -9q272 -86 354 -251 q47 -118 47 -187q0 -85 -37 -178l-8 -14q-87 -173 -270 -226q-64 -18 -142 -18q-117 0 -250.5 43.5t-242.5 116.5z" />
<glyph unicode="T" horiz-adv-x="1187" d="M41 1094h317v-1094h353v1030h-74v-954h-205v1091h-391v-73zM41 1225h874v73h-800v64h870v-195h-489v-1032h73v959h490v342h-1018v-211z" />
<glyph unicode="U" horiz-adv-x="1425" d="M143 569q0 -265 150 -415q151 -154 450 -154q291 0 439 154q151 154 151 415v863h-73v-863q0 -228 -130 -364q-125 -131 -387 -131q-260 0 -393 125.5t-133 369.5v789h203v-789q0 -143 80 -219t233 -76q151 0 237.5 79.5t86.5 215.5v789h63v-789q0 -174 -96.5 -266 t-284.5 -92t-286.5 92t-98.5 266v731h-73v-731q0 -143 55 -241q54 -100 149 -145.5t254 -45.5q261 0 371 148q84 113 84 284v863h-211v-863q0 -106 -64.5 -163.5t-185.5 -57.5q-125 0 -183 52.5t-58 168.5v863h-349v-863z" />
<glyph unicode="V" horiz-adv-x="1677" d="M0 1434h399l353 -729l-43 -89l-357 742h-231l588 -1215l626 1291h240l-696 -1434h-84l659 1358h-72l-657 -1358h-35zM223 1292h84l404 -833l469 975h86l-555 -1149z" />
<glyph unicode="W" horiz-adv-x="1927" d="M-20 1434h219l309 -1008l39 -119l-39 -96h-12l-33 111l-320 1040h-63l82 -275l299 -960l16 -55h37l195 467l39 94l55 131l39 -92l-54 -133l-38 -95l-187 -444h-141zM264 1434h78l248 -820l217 500l485 -1116h-80l-405 930l-225 -539zM565 891l217 504h54l503 -1164 l119 387l209 685l19 59h-209l-172 -561l-43 102l159 531h363l-432 -1418l-19 41l-459 1063l-65 150l-211 -488zM903 1395h80l291 -670l43 -102l209 684h78l-275 -895z" />
<glyph unicode="X" horiz-adv-x="1433" d="M0 -2l461 727l-451 707h88l451 -705l-414 -653h70l868 1358h248l-535 -836l306 -475h-88l-304 475l486 762h-74l-868 -1358zM162 1434h254l213 -332l-43 -70l-211 328h-78l289 -440l78 120l2 4l245 390h88l-413 -650zM315 0l344 535l304 -461h233l-334 516l45 69l6 -10 l418 -649h-409l-260 399l-259 -399h-88z" />
<glyph unicode="Y" horiz-adv-x="1474" d="M0 1434h90l498 -711l-2 -649h211v649l444 637h-80l-436 -633l2 -596h-74v621l471 682h258l-512 -734v-700h-360v700zM170 1434h258l236 -332l-46 -66l-229 324h-80l303 -428l342 502h90l-432 -633l-34 53z" />
<glyph unicode="Z" horiz-adv-x="1249" d="M0 0l641 1227h-467v-66h361l-37 -74h-398v213h664l-643 -1226h842v200h-347l39 74h381v-348h-1036zM100 1360v74h889l-674 -1295h-88l641 1221h-768zM385 139l678 1295h84l-639 -1221h385v-74h-508z" />
<glyph unicode="[" d="M332 -145h473v221h-256l-2 1214h258v221h-473v-1656zM406 -68v1506h325v-70h-258v-1364l258 -2v-70h-325z" />
<glyph unicode="\" d="M211 1438h215l575 -1438h-215zM309 1364l529 -1303l2 2h67l-530 1301h-68z" />
<glyph unicode="]" d="M362 76h256l3 1214h-259v221h474v-1656h-474v221zM436 2v-70h326v1506h-326v-70h258v-1364z" />
<glyph unicode="^" />
<glyph unicode="_" />
<glyph unicode="`" />
<glyph unicode="a" horiz-adv-x="1540" d="M0 2l641 1432h131l645 -1432l-377 -2l-131 297l-534 2l-72 -172h-90l104 240h635l131 -293h217l-569 1290h-49l-567 -1290h243l66 162h422l31 -70h-408l-70 -164h-399zM338 424l369 827l503 -1122h-84l-419 954l-250 -596h366l-116 246l-76 -186h-80l156 375l225 -498 h-594z" />
<glyph unicode="b" horiz-adv-x="1181" d="M0 2v1423h74v-1349h528q196 0 300 94.5t104 273.5q0 147 -37 193l-39 45l-27 27l23 22l20 33q51 92 51 213q0 182 -102 277.5t-293 95.5h-391v-469h410q100 0 100 96q0 53 -27.5 81.5t-72.5 28.5h-269v-143h-73v215h342q70 0 112 -39q62 -59 62 -143q0 -81 -46 -125.5 t-128 -44.5h-482v616h473q217 0 337 -116.5t120 -329.5q0 -156 -72 -266q82 -107 82 -267q0 -209 -127 -325.5t-350 -116.5h-602zM139 135v475h482q82 0 131 -46.5t49 -125.5q0 -48 -19 -84q-43 -88 -161 -88h-342v209h73v-135h269q106 0 106 98q0 97 -106 97h-410v-324h440 q59 0 113 31q106 63 106 188q0 112 -61 178t-164 66h-504v74h504q98 0 157.5 67t59.5 174q0 61 -28 115q-30 52 -80.5 82.5t-102.5 30.5h-370v73h370q86 0 150 -37q65 -38 101 -108t36 -156q0 -96 -38.5 -167.5t-108.5 -110.5l53 -39q100 -87 100 -242q0 -123 -90 -213 q-94 -82 -203 -82h-512z" />
<glyph unicode="c" d="M-6 715q0 190 98 358q97 166 260 260t357 94q134 0 259 -48t224 -136l29 -29l-52 -53l-16 17l-12 10q-88 82 -199 125t-233 43q-172 0 -320 -86q-149 -86 -235 -234.5t-86 -320.5t86 -320t234.5 -233.5t320.5 -85.5q104 0 198 32.5t207 106.5l-115 170 q-88 -56 -153.5 -79t-136.5 -23q-108 0 -211 59q-100 60 -159.5 162t-59.5 211q0 112 59 215q60 103 156.5 159t214.5 56q133 0 249 -78q4 -5 15 -8l45 51l-17 14q-145 95 -292 95q-101 0 -193.5 -38.5t-163.5 -111.5q-147 -147 -147 -354q0 -101 38 -193.5t109 -163.5 q72 -72 164.5 -110.5t192.5 -38.5q143 0 268 82l41 -62q-145 -92 -309 -92q-115 0 -220.5 44t-187.5 126t-126 187.5t-44 220.5q0 230 170 409q174 168 408 168q190 0 333 -110q37 -22 56 -41l22 -23l-137 -162l-31 23q-18 18 -37 29q-89 65 -206 65q-94 0 -177 -47 q-84 -48 -132 -130t-48 -181q0 -94 51 -174q50 -84 132 -133.5t174 -49.5q66 0 124.5 23t155.5 86l33 20l195 -292l-29 -19q-137 -94 -247.5 -135t-231.5 -41q-189 0 -355 96q-165 97 -262.5 264t-97.5 355z" />
<glyph unicode="d" horiz-adv-x="1308" d="M33 2v1298h583q179 0 353 -174q78 -86 119.5 -192t41.5 -217q0 -227 -167 -406q-75 -79 -167.5 -124.5t-177.5 -45.5h-305v37l2 846h72l-2 -809h233q67 0 144 39.5t145 107.5q72 75 111 168t39 187q0 127 -62 248q-63 121 -164.5 190.5t-214.5 69.5l-510 2v-1149h527 q135 0 272 94q139 92 215 235t76 310q0 156 -78 309q-80 151 -211.5 240.5t-273.5 89.5l-600 2v74h600q115 0 228 -54t206 -151q98 -104 149.5 -235.5t51.5 -274.5t-53.5 -275t-153.5 -235q-91 -97 -204.5 -151t-223.5 -54h-600zM170 1155l440 2q100 0 189 -59 q90 -61 143 -165t53 -214q0 -104 -55 -205t-149.5 -167t-180.5 -66h-145v73h145q51 0 106.5 30.5t102.5 84.5q48 55 75.5 121.5t27.5 128.5q0 94 -43 176q-42 81 -120.5 135.5t-148.5 54.5l-364 -2v-946h-74z" />
<glyph unicode="e" horiz-adv-x="1050" d="M0 0h932v352h-578v123h-73v-196h577v-205h-784v1356h-74v-1430zM139 137h647v74h-573v340h623v352h-482v318h422v73h-495v-465h481v-204h-623v-488zM139 690h551v74h-477v592h635v-203h-418v-74h492v351h-783v-740z" />
<glyph unicode="f" horiz-adv-x="1030" d="M0 0h348v512h479v215h-551v-74h478v-67h-480v-512h-200v1360h-74v-1434zM137 131h72v1229h645v-201h-438v-74h512v349h-791v-1303zM274 788h553v76h-479v363h443v73h-517v-512z" />
<glyph unicode="g" horiz-adv-x="1351" d="M10 715q0 -183 99 -353q97 -168 261.5 -265t354.5 -97q122 0 231 40t246 134l15 12v584h-521v-74h449v-471q-130 -85 -222.5 -118t-197.5 -33q-171 0 -319 86q-149 86 -235.5 234.5t-86.5 320.5q0 170 86 321q86 149 234.5 235.5t320.5 86.5q122 0 233 -43t199 -125 l29 -29l51 53l-14 17q-9 9 -17 12q-98 91 -223 140t-258 49q-190 0 -356 -93q-162 -94 -260.5 -263.5t-98.5 -360.5zM147 715q0 -152 78 -287q78 -134 212 -211.5t288 -77.5q173 0 307 92l47 37v365h-383v-209h170v-33q-62 -33 -141 -33q-95 0 -178 50q-81 47 -129.5 130.5 t-48.5 176.5q0 98 49 180q47 81 130.5 129.5t176.5 48.5q116 0 205 -65l65 -52l148 160l-27 27l-53 41q-163 108 -338 108q-160 0 -289 -75q-132 -75 -210.5 -211t-78.5 -291zM221 715q0 134 68 252q68 117 184.5 184.5t251.5 67.5q160 0 295 -97l16 -12l-49 -53l-14 10 q-116 78 -248 78q-117 0 -215 -58q-100 -57 -157.5 -156t-57.5 -216q0 -121 57 -213q55 -98 158.5 -157.5t214.5 -59.5q94 0 195 49l20 10v154h-170v61h236v-256l-15 -12q-116 -78 -266 -78q-134 0 -252 68q-117 68 -184.5 183.5t-67.5 250.5z" />
<glyph unicode="h" horiz-adv-x="1331" d="M16 0h357v471h-76v-395h-207v1282h207v-397h76v473h-357v-1434zM156 125h75v412h625v-537h221v752h-921v-72h848v-604h-76v536h-772v-487zM158 825h770v609h-72v-537h-625v401h-73v-473zM1004 819h73v539h70v-1358h72v1434h-215v-615z" />
<glyph unicode="i" horiz-adv-x="681" d="M164 0h354v1434h-74v-1360h-206v1286h67v-1223h74v1297h-215v-1434z" />
<glyph unicode="j" horiz-adv-x="931" d="M41 195l16 -23l35 -35q40 -42 59.5 -55t84.5 -45q75 -37 170 -37q68 0 81 8q195 37 279 176t84 422v826h-74v-826q0 -251 -69.5 -372t-231.5 -152q-37 -6 -69 -6q-80 0 -153.5 33t-117.5 88l113 143q89 -74 160 -74q165 0 165 297v795h64v-797q0 -158 -41.5 -240 t-134.5 -108q-13 -8 -58 -8q-69 0 -137 51q-4 4 -6 4l-2 2l-43 -59h2l6 -6q98 -68 178 -68q37 0 80 12q121 37 175.5 136t54.5 284v873l-211 -2v-869q0 -223 -92 -223q-29 0 -73.5 26.5t-64.5 55.5l-30 31z" />
<glyph unicode="k" horiz-adv-x="1351" d="M51 -2v1436h74v-1362h209v540l543 684h94l-561 -710v-586zM190 125v528l609 781h452l-635 -811l367 -498h-92l-369 498l578 735h-266l-570 -729v-504h-74zM190 776v658h218v-381l-76 -95v400h-68v-488zM479 444v123l367 -495h260l-401 542l47 60l501 -674h-444z" />
<glyph unicode="l" horiz-adv-x="944" d="M0 0h821v344h-407v-74h334v-196h-674v1288h61v-1227h76v1301h-211v-1436zM279 135h403v76h-330v1225h-73v-1301z" />
<glyph unicode="m" horiz-adv-x="1710" d="M0 0l217 1430l12 -21l588 -1108l68 -125l205 389l2 -14l16 -109l-223 -424l-627 1180l-172 -1122h209l70 459l16 -31l43 -80l-66 -424h-358zM160 129l133 856l524 -985h-84l-401 756l-99 -627h-73zM289 1436h84l510 -959l286 531l154 -1008h-74l-119 778l-247 -459z M846 707l96 178l291 551h158l217 -1436h-217l-7 31h2l-163 1073l57 108l18 -122l156 -1014h68l-35 235l-154 1000l-6 49h-49l-68 -125l-6 -14l-180 -336l-135 -256z" />
<glyph unicode="n" horiz-adv-x="1357" d="M61 0v1374l1053 -1063v-108l-981 995v-1198h-72zM100 1434h103l837 -850v706h74v-887zM201 0v1032l938 -950l8 -8h35v1288h-209v-614l-74 79v607h356v-1434h-131l-850 852v-778h66v608l76 -78v-604h-215z" />
<glyph unicode="o" horiz-adv-x="1439" d="M0 719q0 -192 98 -357q98 -166 267 -264t356 -98q190 0 358 98q165 96 263 266t98 355q0 182 -97 356q-97 167 -265 265t-357 98q-182 0 -356 -97q-169 -98 -267 -265t-98 -357zM76 719q0 174 86 325q87 150 235 236t324 86q172 0 323 -86q152 -86 238 -235t86 -326 q0 -176 -86 -324q-87 -150 -236 -235.5t-325 -85.5t-324 86q-150 87 -235.5 235t-85.5 324zM135 719q0 -156 80 -289q77 -134 215 -212.5t291 -78.5q154 0 293 80q134 77 209 210.5t75 289.5q0 166 -71 299q-74 132 -206.5 205t-299.5 73q-168 0 -297 -75 q-133 -75 -211 -211t-78 -291zM213 719q0 138 68 256q68 116 186 183t254 67q131 0 254 -66q118 -68 185 -184.5t67 -255.5q0 -134 -68 -252q-70 -120 -185 -188t-253 -68q-141 0 -254 70q-117 68 -185.5 185t-68.5 253zM272 719q0 -115 62 -221t164 -166t223 -60 q120 0 223 62q103 60 159 161t56 224q0 126 -57 225q-57 100 -160 159.5t-221 59.5q-126 0 -225 -57q-102 -57 -163 -161.5t-61 -225.5zM348 719q0 101 51 184q51 86 137.5 136.5t184.5 50.5t184 -50q85 -49 133.5 -135t48.5 -186q0 -99 -47 -182q-50 -87 -133.5 -136 t-185.5 -49q-107 0 -189 49q-86 49 -135 134t-49 184z" />
<glyph unicode="p" horiz-adv-x="1097" d="M31 0h354v494h176q215 0 334 125t119 352q0 219 -127.5 342t-351.5 123h-363v-662h332q217 0 217 197q0 85 -45.5 131.5t-130.5 46.5h-232v-240l76 2v166h156q106 0 106 -106q0 -66 -33.5 -93.5t-113.5 -27.5h-262v510h293q198 0 302.5 -99.5t104.5 -289.5 q0 -119 -38 -206.5t-111 -131.5q-94 -64 -232 -64h-252v-493h-203v1360h-75v-1436zM172 123h70v512h274q177 0 266.5 82.5t89.5 243.5q0 107 -36 178q-36 72 -107 111.5t-160 39.5h-256v-73h256q107 0 168.5 -67.5t61.5 -188.5q0 -129 -70 -191.5t-213 -62.5h-344v-584z" />
<glyph unicode="q" horiz-adv-x="1558" d="M0 715q0 190 98 358q97 168 262 264.5t359 96.5q182 0 356 -97q166 -97 263.5 -265t97.5 -357q0 -173 -81.5 -329.5t-224.5 -256.5l-2 -2l-30 -21l313 -509h-422l-344 544q-104 13 -196 61t-158 122q-74 80 -114 181.5t-40 209.5q0 156 78 291q79 133 213 210.5t291 77.5 q152 0 291 -80q137 -80 211.5 -210t74.5 -289q0 -162 -82.5 -299.5t-224.5 -212.5l-31 -15l-118 189l39 16q93 47 146.5 133.5t53.5 190.5q0 99 -47 182q-49 84 -132.5 131t-182.5 47q-97 0 -180 -47q-84 -48 -132.5 -131t-48.5 -182q0 -97 50 -180q47 -85 130.5 -134 t180.5 -49h22l23 4l397 -626h-86l-350 549q-116 0 -219 59q-102 60 -161.5 162t-59.5 215q0 114 59 217q60 101 162 160t213 59q122 0 221 -57q100 -57 157.5 -157.5t57.5 -221.5q0 -112 -55 -210.5t-152 -158.5l39 -63q112 69 174 182.5t62 247.5q0 131 -66 254 q-68 119 -184 186.5t-252 67.5t-254 -68t-185 -184.5t-67 -255.5q0 -128 61 -238q62 -110 171.5 -183.5t226.5 -80.5l18 -2l340 -541h248l-37 62l-246 397l95 61q127 90 198.5 229.5t71.5 295.5q0 174 -86 325q-86 148 -235.5 234t-319.5 86q-171 0 -322 -86 q-152 -86 -237.5 -234t-85.5 -325q0 -121 44 -233.5t126 -200.5q145 -157 352 -195l49 -86q-130 13 -249 72.5t-210 156.5q-186 211 -186 486z" />
<glyph unicode="r" horiz-adv-x="1275" d="M82 0v1434h74v-1360h206v524l191 2l283 -526h235l-227 428l67 26l283 -528h-403l-281 526h-72v-526h-356zM221 125v1309h363q176 0 299.5 -57.5t185.5 -166.5q53 -103 53 -227q0 -188 -96 -300t-281 -144l224 -416h-84l-256 473l55 6q174 19 269.5 117.5t95.5 263.5 q0 182 -121 279.5t-344 97.5h-289v-1235h-74zM360 803v201h76v-127h119q205 0 205 106q0 92 -164 92h-236v215h258q169 0 266 -83t97 -234q0 -159 -101 -234t-313 -75h-205v71h205q173 0 256.5 58.5t83.5 179.5q0 117 -76 180.5t-213 63.5h-182v-70h160q159 0 211 -76 q27 -35 27 -88q0 -88 -71.5 -134t-207.5 -46h-195z" />
<glyph unicode="s" horiz-adv-x="1103" d="M0 178l180 291l31 -18q75 -48 161.5 -78.5t151.5 -30.5q84 0 105 49q8 13 8 41q0 16 -6 25l-2 4q-26 47 -152 88l-24 8q-277 83 -371 272q-37 73 -37 168q0 92 37 179l6 14q87 173 270 223q50 21 144 21q222 0 520 -181l-39 -63q-274 170 -483 170q-2 0 -15.5 -2 t-44.5 -6.5t-63 -8.5q-152 -46 -223 -186l-4 -8q-31 -79 -31 -152q0 -71 31 -135q76 -162 323 -235l6 -2l21 -7q83 -27 128.5 -56t65.5 -70l4 -9q13 -32 13 -51q0 -43 -15 -70l-2 -4q-30 -61 -100 -79q-15 -9 -70 -9q-111 0 -262 68l-57 31l-103 -166l58 -31 q214 -98 364 -98q1 0 123 16q152 46 223 186l4 9q33 62 33 153q0 74 -30 135q-50 102 -170 170q-59 29 -99 45l-51 17l-27 8q-165 49 -206 133q-11 18 -11 49q0 47 15 74l2 4q35 65 100 82q13 8 72 8q120 0 317 -98l33 51q-195 109 -356 109l-82 -11q-92 -27 -142 -116 q-20 -39 -20 -97q0 -43 18 -81q48 -105 242 -164l27 -8q98 -33 163 -68q144 -76 144 -240q0 -90 -41 -161q-41 -70 -114 -107t-165 -37q-158 0 -333 88l2 4l34 60q197 -78 295 -78q154 0 219 115q29 56 29 114q0 110 -98 168q-58 34 -101 49l-55 21l-26 8q-225 67 -289 205 q-25 55 -25 110q0 75 27 127q62 120 188 158q25 14 109 14q93 0 209.5 -38.5t210.5 -100.5l32 -18l-110 -176l-31 18q-75 48 -161.5 78.5t-151.5 30.5q-50 0 -68 -9q-20 -8 -32.5 -30.5t-12.5 -53.5l4 -22q9 -15 45 -43q28 -23 115 -51l29 -9q272 -86 354 -251 q47 -118 47 -187q0 -85 -37 -178l-8 -14q-87 -173 -270 -226q-64 -18 -142 -18q-117 0 -250.5 43.5t-242.5 116.5z" />
<glyph unicode="t" horiz-adv-x="1187" d="M41 1094h317v-1094h353v1030h-74v-954h-205v1091h-391v-73zM41 1225h874v73h-800v64h870v-195h-489v-1032h73v959h490v342h-1018v-211z" />
<glyph unicode="u" horiz-adv-x="1425" d="M143 569q0 -265 150 -415q151 -154 450 -154q291 0 439 154q151 154 151 415v863h-73v-863q0 -228 -130 -364q-125 -131 -387 -131q-260 0 -393 125.5t-133 369.5v789h203v-789q0 -143 80 -219t233 -76q151 0 237.5 79.5t86.5 215.5v789h63v-789q0 -174 -96.5 -266 t-284.5 -92t-286.5 92t-98.5 266v731h-73v-731q0 -143 55 -241q54 -100 149 -145.5t254 -45.5q261 0 371 148q84 113 84 284v863h-211v-863q0 -106 -64.5 -163.5t-185.5 -57.5q-125 0 -183 52.5t-58 168.5v863h-349v-863z" />
<glyph unicode="v" horiz-adv-x="1677" d="M0 1434h399l353 -729l-43 -89l-357 742h-231l588 -1215l626 1291h240l-696 -1434h-84l659 1358h-72l-657 -1358h-35zM223 1292h84l404 -833l469 975h86l-555 -1149z" />
<glyph unicode="w" horiz-adv-x="1927" d="M-20 1434h219l309 -1008l39 -119l-39 -96h-12l-33 111l-320 1040h-63l82 -275l299 -960l16 -55h37l195 467l39 94l55 131l39 -92l-54 -133l-38 -95l-187 -444h-141zM264 1434h78l248 -820l217 500l485 -1116h-80l-405 930l-225 -539zM565 891l217 504h54l503 -1164 l119 387l209 685l19 59h-209l-172 -561l-43 102l159 531h363l-432 -1418l-19 41l-459 1063l-65 150l-211 -488zM903 1395h80l291 -670l43 -102l209 684h78l-275 -895z" />
<glyph unicode="x" horiz-adv-x="1433" d="M0 -2l461 727l-451 707h88l451 -705l-414 -653h70l868 1358h248l-535 -836l306 -475h-88l-304 475l486 762h-74l-868 -1358zM162 1434h254l213 -332l-43 -70l-211 328h-78l289 -440l78 120l2 4l245 390h88l-413 -650zM315 0l344 535l304 -461h233l-334 516l45 69l6 -10 l418 -649h-409l-260 399l-259 -399h-88z" />
<glyph unicode="y" horiz-adv-x="1474" d="M0 1434h90l498 -711l-2 -649h211v649l444 637h-80l-436 -633l2 -596h-74v621l471 682h258l-512 -734v-700h-360v700zM170 1434h258l236 -332l-46 -66l-229 324h-80l303 -428l342 502h90l-432 -633l-34 53z" />
<glyph unicode="z" horiz-adv-x="1249" d="M0 0l641 1227h-467v-66h361l-37 -74h-398v213h664l-643 -1226h842v200h-347l39 74h381v-348h-1036zM100 1360v74h889l-674 -1295h-88l641 1221h-768zM385 139l678 1295h84l-639 -1221h385v-74h-508z" />
<glyph unicode="{" />
<glyph unicode="}" />
<glyph unicode="~" />
<glyph unicode="&#xa1;" />
<glyph unicode="&#xa8;" />
<glyph unicode="&#xac;" />
<glyph unicode="&#xad;" d="M254 385v215h713v-215h-713zM328 459h575v67h-575v-67z" />
<glyph unicode="&#xaf;" />
<glyph unicode="&#xb1;" />
<glyph unicode="&#xb4;" />
<glyph unicode="&#xb7;" />
<glyph unicode="&#xb8;" />
<glyph unicode="&#xbf;" />
<glyph unicode="&#xd7;" />
<glyph unicode="&#xf7;" />
<glyph unicode="&#x2c6;" />
<glyph unicode="&#x2dc;" />
<glyph unicode="&#x2000;" horiz-adv-x="819" />
<glyph unicode="&#x2001;" horiz-adv-x="1638" />
<glyph unicode="&#x2002;" horiz-adv-x="819" />
<glyph unicode="&#x2003;" horiz-adv-x="1638" />
<glyph unicode="&#x2004;" horiz-adv-x="546" />
<glyph unicode="&#x2005;" horiz-adv-x="409" />
<glyph unicode="&#x2006;" horiz-adv-x="273" />
<glyph unicode="&#x2007;" horiz-adv-x="273" />
<glyph unicode="&#x2008;" horiz-adv-x="204" />
<glyph unicode="&#x2009;" horiz-adv-x="327" />
<glyph unicode="&#x200a;" horiz-adv-x="91" />
<glyph unicode="&#x2010;" d="M254 385v215h713v-215h-713zM328 459h575v67h-575v-67z" />
<glyph unicode="&#x2011;" d="M254 385v215h713v-215h-713zM328 459h575v67h-575v-67z" />
<glyph unicode="&#x2012;" d="M254 385v215h713v-215h-713zM328 459h575v67h-575v-67z" />
<glyph unicode="&#x2013;" d="M254 385v215h713v-215h-713zM328 459h575v67h-575v-67z" />
<glyph unicode="&#x2014;" />
<glyph unicode="&#x2022;" />
<glyph unicode="&#x2026;" />
<glyph unicode="&#x202f;" horiz-adv-x="327" />
<glyph unicode="&#x205f;" horiz-adv-x="409" />
<glyph unicode="&#x25fc;" horiz-adv-x="1433" d="M0 0v1434h1434v-1434h-1434z" />
</font>
</defs>
</svg>
