<?xml version="1.0" standalone="no"?>
<!DOCTYPE svg PUBLIC "-//W3C//DTD SVG 1.1//EN" "http://www.w3.org/Graphics/SVG/1.1/DTD/svg11.dtd" >
<svg xmlns="http://www.w3.org/2000/svg">
<metadata></metadata>
<defs>
<font id="freightbigboldregular" horiz-adv-x="1343" >
<font-face units-per-em="2048" ascent="1638" descent="-410" />
<missing-glyph horiz-adv-x="266" />
<glyph horiz-adv-x="0" />
<glyph horiz-adv-x="0" />
<glyph horiz-adv-x="682" />
<glyph unicode=" "  horiz-adv-x="266" />
<glyph unicode="&#x09;" horiz-adv-x="266" />
<glyph unicode="&#xa0;" horiz-adv-x="266" />
<glyph unicode="!" horiz-adv-x="550" d="M139 111q0 53 40 92t97 39q59 0 98.5 -40t39.5 -91q0 -55 -39.5 -96.5t-98.5 -41.5q-57 0 -97 40t-40 98zM142 1223q1 24 14.5 43.5t41 31t76.5 11.5h7q49 0 76.5 -11.5t40 -31t13.5 -44t-3 -48.5l-121 -779q-2 -10 -9.5 -10t-9.5 10l-123 779q-4 25 -3 49z" />
<glyph unicode="&#x22;" horiz-adv-x="688" d="M-4 825l215 496h4l145 -64l-354 -432h-10zM348 825l215 496h2l146 -64l-351 -432h-12z" />
<glyph unicode="#" horiz-adv-x="1011" d="M-31 395v17h289l119 452h-285v17h289l108 413h23l-109 -413h334l109 413h22l-108 -413h282v-17h-286l-119 -452h283v-17h-287l-107 -405h-22l106 405h-334l-106 -405h-23l107 405h-285zM281 412h333l119 452h-334z" />
<glyph unicode="$" horiz-adv-x="985" d="M53 373h15l122 -226q63 -78 142 -112l135 514q-8 2 -29 10q-72 27 -136 57.5t-112.5 72.5t-77 98.5t-28.5 136.5q0 78 33 146.5t90 120.5t136 83t173 31q35 0 73 -4.5t75 -10.5l59 223h20q-18 -61 -30 -112q-10 -43 -19.5 -79t-11.5 -36q33 -8 62.5 -15t56.5 -18l84 29 l6 -354h-10l-174 295q-14 12 -35 20l-8 -31q-9 -32 -21 -81.5t-27.5 -105.5t-29 -105.5t-22.5 -81.5l-9 -33q4 -2 8 -3t8 -3q80 -27 152 -60.5t126 -81t86 -112t32 -154.5q0 -80 -36 -154.5t-100.5 -133t-153.5 -93.5t-194 -35q-37 0 -73.5 2.5t-71.5 6.5l-3 -14 q-3 -15 -9.5 -37.5t-13.5 -51t-15 -59.5q-18 -70 -43 -160h-21q25 90 43 162q16 61 29.5 111.5t11.5 50.5q-68 8 -128 22.5t-113 34.5zM279 1069q0 -53 19 -92t54 -68.5t82 -53.5t103 -44q35 123 59 221q10 41 20.5 81t18.5 70.5t11 40.5l7 27q-70 33 -143 33 q-49 0 -92 -16.5t-74 -46t-48 -68.5t-17 -84zM350 27q70 -29 142 -29q119 0 196.5 68.5t77.5 189.5q0 59 -21.5 102t-59.5 76t-89 58.5t-109 48.5z" />
<glyph unicode="%" horiz-adv-x="1083" d="M16 1049q0 53 17.5 100t50.5 83t80 57.5t106 21.5t107.5 -21.5t81.5 -57.5t50 -83t17 -100q0 -51 -17 -98.5t-50 -83.5t-81.5 -56t-107.5 -20t-106 20t-80 56t-50.5 83t-17.5 99zM41 1049q0 -100 61.5 -169t167.5 -69t169 68.5t63 169.5q0 49 -16.5 93t-46 76.5t-72.5 52 t-97 19.5q-53 0 -95 -19.5t-71.5 -52t-46 -76.5t-16.5 -93zM88 -29l877 1340h24l-876 -1340h-25zM557 229q0 53 17.5 101.5t50 84.5t80 57.5t106.5 21.5t107.5 -21.5t81 -57.5t50 -84t17.5 -102q0 -51 -17.5 -97t-50 -82t-81 -56.5t-107.5 -20.5t-106.5 20.5t-80 56.5 t-50 82t-17.5 97zM582 231q0 -100 61.5 -168.5t167.5 -68.5t168.5 68.5t62.5 168.5q0 49 -16 93.5t-46 77t-73 52t-96 19.5t-95 -19.5t-72 -52t-46 -76.5t-16 -94z" />
<glyph unicode="&#x26;" horiz-adv-x="1490" d="M20 338q0 78 28 142.5t79 116.5t120.5 90t151.5 61q-82 37 -140 105.5t-58 158.5q0 61 33.5 113.5t87 92t120 62.5t129.5 23q76 0 139.5 -17.5t109.5 -47.5t72 -71t26 -88q0 -45 -22 -83t-58.5 -66.5t-83.5 -47t-99 -28.5q49 -23 105.5 -67t109 -98t96.5 -113.5 t72 -110.5q78 106 119 180t41 121q0 78 -178 94l-23 2l-6 12h537l-6 -12l-25 -2q-43 -2 -77 -12t-65.5 -33.5t-65.5 -61.5t-81 -100l-159 -211q45 -98 83.5 -163.5t74.5 -104.5t73 -54.5t78 -15.5q51 0 91 26t69 58l14 -8q-27 -29 -62.5 -64.5t-77.5 -66.5t-91.5 -52.5 t-102.5 -21.5q-125 0 -199.5 71t-134.5 208q-106 -121 -214.5 -200t-233.5 -79q-92 0 -166 29t-124 78t-78 115.5t-28 140.5zM246 434q0 -61 23.5 -116.5t64.5 -95.5t97.5 -63.5t119.5 -23.5q78 0 153.5 32t151.5 105q-31 76 -75 146.5t-99 132t-120.5 110t-141.5 78.5 q-102 -63 -138 -140t-36 -165zM410 1096q0 -148 225 -234q47 31 64.5 84t17.5 119q0 39 -9.5 78t-30 70.5t-49 51t-69.5 19.5q-70 0 -109.5 -54t-39.5 -134z" />
<glyph unicode="'" horiz-adv-x="342" d="M-4 825l215 496h4l145 -64l-354 -432h-10z" />
<glyph unicode="(" horiz-adv-x="647" d="M106 377q0 186 52.5 341.5t132.5 275.5t173 204t175 127l10 -16q-80 -45 -172 -129t-169 -203t-128 -270.5t-51 -329.5q0 -180 51 -331.5t128 -270.5t169 -202t172 -128l-10 -16q-82 45 -175 130t-173 204.5t-132.5 274.5t-52.5 339z" />
<glyph unicode=")" horiz-adv-x="647" d="M-2 -555q80 45 172 128t169 202t128 270.5t51 331.5q0 178 -51 329.5t-128 270.5t-169 203t-172 129l10 16q82 -43 175 -127t173 -204t132.5 -275.5t52.5 -341.5q0 -184 -52.5 -339t-132.5 -274.5t-173 -204.5t-175 -130z" />
<glyph unicode="*" horiz-adv-x="638" d="M16 1192q0 4 9 4l141 12l127 -221q2 -6 6 -5t4 5l-8 266l123 62q4 4 4 2t2 -4l57 -119l-170 -207q-4 -4 -1 -9t7 -3l246 96l99 -94q8 -8 0 -8l-99 -92l-246 96q-4 2 -7 -4t1 -11l168 -204l-57 -117q-4 -8 -8 -4l-119 63l10 260q0 6 -4 9.5t-6 -0.5l-129 -222l-139 11 q-8 0 -9 6l23 137l248 70q6 6 0 14l-248 74z" />
<glyph unicode="+" horiz-adv-x="886" d="M14 475l4 21h414v417h23v-417h413l4 -21h-415l-2 -426h-23v426h-418z" />
<glyph unicode="," horiz-adv-x="405" d="M44 153.5q3 30.5 20.5 58.5t49 46t76.5 18q86 0 134.5 -53t48.5 -131q0 -47 -21.5 -99t-61.5 -99.5t-96.5 -87t-123.5 -64.5l-9 8q90 45 133.5 108.5t43.5 129.5q0 43 -17.5 72.5t-45.5 43t-60.5 12.5t-61.5 -18q-12 25 -9 55.5z" />
<glyph unicode="-" horiz-adv-x="573" d="M37 438l6 82h494l-7 -82h-493z" />
<glyph unicode="." horiz-adv-x="436" d="M80 117q0 53 40 93t99 40q57 0 97 -41t40 -92q0 -57 -40 -98.5t-97 -41.5q-59 0 -99 41t-40 99z" />
<glyph unicode="/" horiz-adv-x="509" d="M33 -506l430 1796h20l-430 -1796h-20z" />
<glyph unicode="0" horiz-adv-x="1173" d="M61 489q0 115 42 211.5t115 165t170 106.5t206 38t203 -37t164.5 -104.5t110.5 -163t40 -209.5q0 -117 -42 -212.5t-114.5 -164t-168.5 -106.5t-207 -38q-109 0 -204 37t-165 103.5t-110 162t-40 211.5zM317 508q0 -246 67 -379t202 -133q61 0 110 38t85 103.5 t55.5 154.5t19.5 189q0 236 -68.5 373t-201.5 137q-59 0 -108.5 -38t-85.5 -103.5t-55.5 -153.5t-19.5 -188z" />
<glyph unicode="1" horiz-adv-x="718" d="M57 920l6 14l429 63v-956q0 -12 24.5 -17.5t87.5 -9.5l45 -2l6 -12h-559l6 12l54 2q49 2 71.5 7.5t22.5 23.5v852z" />
<glyph unicode="2" horiz-adv-x="962" d="M33 55q147 113 245.5 193t157 143.5t83 120.5t24.5 125q0 49 -17.5 90t-46 69.5t-68.5 45t-85 16.5q-86 0 -149.5 -41t-110.5 -133l-15 6q66 147 171.5 231.5t248.5 84.5q66 0 120 -20.5t94 -55.5t62.5 -83t22.5 -104q0 -70 -34 -130t-100.5 -122.5t-166.5 -135 t-233 -171.5v-4l526 -2q27 0 62.5 57.5t95.5 200.5l10 23l16 -4l-102 -455h-801z" />
<glyph unicode="3" horiz-adv-x="880" d="M16 -246q0 49 33 81t82 32q41 0 71.5 -20.5t51 -53.5t29 -75t2.5 -87q4 -2 27.5 -7t45.5 -5q53 0 99.5 24.5t81 68.5t55 103.5t20.5 129.5q0 74 -21.5 135t-61 105t-95 69t-123.5 25q-47 0 -90 -11.5t-84 -29.5l-6 18q98 55 171 97t121 84t72.5 88t24.5 108 q0 102 -60.5 163.5t-158.5 61.5q-86 0 -149.5 -40t-104.5 -132l-14 6q59 145 160.5 229.5t242.5 84.5q70 0 126.5 -20.5t96 -55.5t61 -82t21.5 -100q0 -61 -25.5 -109.5t-67.5 -87.5t-94 -68.5t-107 -58.5v-2q92 -2 163.5 -33t119.5 -81t73.5 -115.5t25.5 -139.5 q0 -90 -39.5 -173t-110.5 -148.5t-167 -104.5t-209 -39q-135 0 -212 49.5t-77 116.5z" />
<glyph unicode="4" horiz-adv-x="1030" d="M23 29l651 954h96v-819h242l-51 -154h-191v-387h-223v387h-522zM143 166h404v586h-2z" />
<glyph unicode="5" horiz-adv-x="837" d="M-41 -244q0 49 34 83t85 34q39 0 68.5 -21.5t47 -54.5t23.5 -72.5t0 -76.5q23 -10 44.5 -17.5t55.5 -7.5q49 0 93.5 22.5t78 63.5t54 97.5t20.5 125.5q0 174 -131 271.5t-371 115.5l168 654h562l-48 -215h-546l-58 -232q168 -14 286 -55t192.5 -101.5t108.5 -137 t34 -166.5q0 -96 -44 -182.5t-117 -152t-167 -103.5t-194 -38q-152 0 -215.5 45.5t-63.5 120.5z" />
<glyph unicode="6" horiz-adv-x="1075" d="M55 485q0 174 74 325t202 266.5t303 187t378 88.5l4 -15q-147 -23 -262 -87t-199 -154t-137 -195.5t-80 -210.5l2 -4q68 55 147.5 89t163.5 34q80 0 147.5 -25.5t117 -75t78 -120t28.5 -160.5q0 -98 -37 -181t-101.5 -143.5t-151.5 -95.5t-185 -35q-111 0 -201 39 t-154.5 108.5t-100.5 163t-36 201.5zM313 473q0 -109 14.5 -197t45 -151.5t77.5 -97t113 -33.5q102 0 158.5 98t56.5 279q0 172 -74.5 263t-191.5 91q-55 0 -100 -20.5t-74 -49.5q-10 -18 -17.5 -68t-7.5 -114z" />
<glyph unicode="7" horiz-adv-x="917" d="M45 582l47 393h803l2 -14l-539 -1338h-204l643 1141v8h-357q-100 0 -166.5 -6t-107.5 -25.5t-62.5 -53.5t-33.5 -89l-4 -18z" />
<glyph unicode="8" horiz-adv-x="1019" d="M57 311q0 53 24.5 99.5t66.5 83t99.5 64.5t121.5 42v4q-59 29 -110.5 60.5t-89.5 70.5t-59.5 87t-21.5 108q0 72 27.5 140.5t81 121.5t129 86t174.5 33q94 0 173 -22.5t136 -63.5t90 -99.5t33 -130.5q0 -47 -22.5 -88t-62.5 -74.5t-92.5 -60.5t-111.5 -43v-2 q68 -29 126 -63.5t101 -77.5t68 -97.5t25 -121.5q0 -80 -33 -152t-92.5 -127t-141.5 -87t-180 -32q-100 0 -184 25.5t-145.5 71t-95.5 108t-34 137.5zM276 324q0 -57 17.5 -117t50.5 -106t79 -75.5t103 -29.5q55 0 99.5 19.5t75 52t47 76.5t16.5 94q0 61 -27.5 111t-77 93 t-118 80t-148.5 70q-59 -39 -88 -107.5t-29 -160.5zM291 1057q0 -111 85.5 -186t241.5 -136q51 39 75 103.5t24 138.5q0 59 -15.5 116.5t-44 101.5t-69.5 71.5t-94 27.5q-49 0 -87 -20.5t-64 -53t-39 -75.5t-13 -88z" />
<glyph unicode="9" horiz-adv-x="1075" d="M49 559q0 100 39 183t104.5 142.5t152.5 92.5t183 33q111 0 202 -40t154.5 -108.5t98.5 -162t35 -199.5q0 -172 -74 -322.5t-202 -266.5t-303 -188.5t-378 -89.5l-4 15q147 23 262 87t199 154.5t137.5 195.5t79.5 210l-4 2q-66 -55 -146.5 -89t-162.5 -34 q-78 0 -146.5 25.5t-119 75t-79 121t-28.5 163.5zM295 616q0 -160 72.5 -257t193.5 -97q55 0 98 18.5t76 49.5q10 18 16.5 69.5t6.5 116.5q0 90 -12.5 175t-41 150.5t-75.5 106.5t-117 41q-92 0 -154.5 -93t-62.5 -280z" />
<glyph unicode=":" horiz-adv-x="432" d="M80 113q0 53 40 93t99 40q57 0 97 -40t40 -93t-40 -94.5t-97 -41.5q-59 0 -99 41t-40 95zM80 723q0 53 40 93t99 40q57 0 97 -40t40 -93q0 -55 -40 -97t-97 -42q-59 0 -99 41t-40 98z" />
<glyph unicode=";" horiz-adv-x="405" d="M44 151.5q3 30.5 20.5 58.5t49 47t76.5 19q86 0 134.5 -54t48.5 -130q0 -49 -21.5 -99t-61.5 -97.5t-96.5 -87t-123.5 -64.5l-9 10q90 45 133.5 106.5t43.5 127.5q0 43 -17.5 71.5t-45.5 43t-60.5 13.5t-61.5 -18q-12 23 -9 53.5zM70 723q0 53 40 93t97 40q59 0 98 -41 t39 -92q0 -57 -39 -98t-98 -41q-57 0 -97 41t-40 98z" />
<glyph unicode="&#x3c;" horiz-adv-x="860" d="M10 471v23l815 401l11 -23l-793 -387v-4l793 -391l-11 -22z" />
<glyph unicode="=" horiz-adv-x="876" d="M31 293l6 20h803l6 -20h-815zM31 672h815l-6 -21h-803z" />
<glyph unicode="&#x3e;" horiz-adv-x="860" d="M25 90l792 391v4l-792 387l10 23l815 -401v-23l-815 -403z" />
<glyph unicode="?" horiz-adv-x="657" d="M39 1196q-4 51 29.5 82t117.5 31q94 0 170 -38t128.5 -100.5t81 -141.5t28.5 -159q0 -53 -8 -90t-26.5 -64.5t-49.5 -48t-78 -38.5q-100 -39 -146 -62.5t-46 -64.5q0 -39 22.5 -66.5t65.5 -64.5l-15 -4q-33 25 -65.5 56.5t-58 65t-41 66.5t-15.5 59q0 80 63.5 120 t168.5 77q57 20 96 36.5t61.5 32t32.5 31t10 35.5q0 61 -74.5 111.5t-232.5 50.5q-53 0 -95 -7t-73 -16q-20 16 -34.5 46t-16.5 65zM176 111q0 53 40 93t97 40q59 0 98.5 -40t39.5 -93t-39.5 -94.5t-98.5 -41.5q-57 0 -97 41t-40 95z" />
<glyph unicode="@" horiz-adv-x="1566" d="M51 489q0 170 62.5 321t171 262.5t253 177t308.5 65.5q145 0 269 -47t213 -131t139.5 -200t50.5 -253q0 -115 -40 -217t-106.5 -180t-151.5 -124t-178 -46q-102 0 -159.5 49t-57.5 127q0 35 12.5 82t30.5 90h-4q-102 -166 -183 -257t-175 -91q-76 0 -131.5 53t-57.5 135 q0 59 24 126t62.5 133.5t90 130t106.5 114.5q78 76 145.5 109.5t124.5 33.5q29 0 50.5 -18.5t35 -47t17.5 -66.5t-2 -77h2l92 258l201 -8l-136 -340l-92 -239q-33 -92 -8 -147.5t129 -55.5q57 0 116.5 36t109 98.5t81 149.5t31.5 189q0 133 -49 244.5t-135 193.5t-206 128 t-261 46q-160 0 -301.5 -64.5t-245.5 -174t-165.5 -256t-61.5 -312.5q0 -150 53 -274.5t148.5 -215.5t228.5 -141.5t293 -50.5q111 0 213 31t188 83t153.5 123t106.5 153l19 -9q-41 -84 -110 -156.5t-157 -127t-193 -85t-220 -30.5q-164 0 -301.5 51t-235.5 144.5 t-152.5 222.5t-54.5 282zM526 356q0 -55 21.5 -85.5t56.5 -30.5q49 0 122 73.5t153 233.5q10 18 20 38.5t18.5 41t14.5 39t6 28.5q0 29 -11.5 59.5t-30.5 55.5t-45 40t-52 15q-23 0 -38.5 -9t-31.5 -26q-33 -31 -68.5 -87t-65.5 -122.5t-49.5 -136t-19.5 -127.5z" />
<glyph unicode="A" d="M-20 0l6 12l34 4q49 6 81 19.5t60.5 54.5t60.5 120t81 216l229 643l-22 66q68 20 106.5 65t67.5 115h37l352 -1034q29 -82 51.5 -133.5t44 -80t47 -39t58.5 -12.5l57 -4l4 -12h-641l6 12l56 4q78 4 87 46q2 9 2 21q0 43 -26 120l-114 348h-336l-74 -207 q-37 -106 -55 -168q-13 -44 -14 -73q0 -12 2 -21q8 -33 44.5 -45t110.5 -21l41 -4l6 -12h-450zM377 571h321l-153 467h-2z" />
<glyph unicode="B" horiz-adv-x="1245" d="M35 0l6 12l76 8q53 6 74.5 15.5t21.5 19.5v1176q0 10 -19.5 15t-97.5 14l-53 6l-6 14h543q150 0 252 -20.5t165.5 -57.5t91 -89t27.5 -118q0 -104 -93 -175.5t-286 -100.5v-6q213 -14 330 -109.5t117 -236.5q0 -164 -139.5 -265.5t-432.5 -101.5h-577zM477 55l107 -35 l16 5q6 2 10 2q68 4 122 31.5t93 70.5t60.5 101.5t21.5 123.5q0 76 -26.5 137.5t-73.5 105.5t-110.5 68.5t-137.5 24.5q-51 0 -82 -6v-629zM477 709h49h8q138 1 222 69q88 70 88 205q0 141 -84 205.5t-230 64.5l-53 -2v-542z" />
<glyph unicode="C" horiz-adv-x="1402" d="M55 631q0 141 51.5 265t149.5 215t239.5 144.5t321.5 53.5q96 0 187.5 -24.5t142.5 -53.5l131 43l12 -412h-12l-207 363q-33 23 -102.5 41t-155.5 18q-113 0 -201 -49t-148.5 -136t-91 -204t-30.5 -252q0 -147 36 -267t99.5 -204t147.5 -129t180 -45q170 0 274.5 81 t180.5 226l63 121h12l-69 -363l-68 -10q-27 -12 -74 -25.5t-102 -25.5t-114.5 -19.5t-112.5 -7.5q-168 0 -304.5 50.5t-232.5 137.5t-149.5 206.5t-53.5 261.5z" />
<glyph unicode="D" horiz-adv-x="1409" d="M35 0l6 12l76 8q53 6 74.5 15.5t21.5 19.5v1176q0 6 -4 10t-16.5 7t-35 6t-61.5 8l-53 6l-6 12q174 2 307 2h293h16q170 0 299 -42q135 -44 225.5 -126t135.5 -198.5t45 -262.5q0 -135 -53.5 -253.5t-152.5 -208t-239.5 -140.5t-312.5 -51h-565zM477 59l137 -36 q115 0 200 48t143.5 130t87 188.5t28.5 222.5q0 145 -28.5 264t-88 203t-151.5 131t-219 47h-109v-1198z" />
<glyph unicode="E" horiz-adv-x="1247" d="M35 0l6 12l72 8q53 6 76.5 15.5t23.5 19.5v1176q0 10 -19.5 16t-97.5 15l-53 6l-6 12h1044l21 -418h-12l-9 23q-29 102 -67.5 173.5t-91.5 117.5q-54 44 -124 64q-61 17 -139 17h-24l-158 -2v-587h88q68 4 118 15t86 33.5t59.5 57.5t39.5 84l13 37l14 -2l-53 -490l-15 3 l-2 36q-4 55 -19 92t-46 59.5t-83 34t-130 15.5l-70 4v-618l201 -9q98 2 174 31t134 79t100 121t73 155l10 22h13l-58 -428h-1089z" />
<glyph unicode="F" horiz-adv-x="1177" d="M35 0l6 12l80 8q53 6 72.5 15.5t19.5 19.5v1176q0 10 -17.5 16t-95.5 15l-57 6l-6 12h1053l20 -393h-12l-11 22q-35 94 -73.5 161t-90 109t-119 61.5t-159.5 19.5l-168 -5v-598l88 5q135 4 203 43.5t100 140.5l13 39l14 -2l-53 -490l-15 2l-2 35q-4 55 -19 94t-46 62.5 t-83 35t-130 11.5l-70 2v-586q0 -10 18.5 -17t96.5 -14l88 -6l6 -12h-651z" />
<glyph unicode="G" horiz-adv-x="1466" d="M55 631q0 141 49.5 265t145.5 215t237.5 144.5t325.5 53.5q49 0 99.5 -6.5t96.5 -16.5t83.5 -23.5t62.5 -27.5l129 39l8 -412h-12l-201 359q-41 31 -113.5 48t-156.5 17q-115 0 -203 -50t-146.5 -136t-88 -204t-29.5 -253q0 -162 40 -284.5t104.5 -204.5t146.5 -123 t166 -41q74 0 136 21.5t89 41.5v455q0 10 -30.5 18.5t-108.5 12.5l-70 6l-6 12h643l-6 -12l-86 -8q-53 -4 -68.5 -11.5t-15.5 -17.5v-406l117 23l2 -8q-61 -31 -138 -57.5t-160 -47t-165 -33t-154 -12.5q-166 0 -300 51.5t-228 140.5t-144.5 209.5t-50.5 262.5z" />
<glyph unicode="H" horiz-adv-x="1531" d="M35 0l6 12l76 8q53 6 74.5 15.5t21.5 19.5v1176q0 10 -19.5 16t-97.5 15l-53 6l-6 12h620l-6 -12l-78 -8q-53 -6 -74.5 -15.5t-21.5 -19.5v-563h578v569q0 10 -19.5 16t-97.5 15l-55 6l-6 12h620l-6 -12l-76 -8q-53 -6 -74.5 -15.5t-21.5 -19.5v-1176q0 -10 19.5 -16 t97.5 -15l53 -6l6 -12h-621l7 12l77 8q53 6 75 15.5t22 19.5v586h-578v-592q0 -10 19.5 -16t97.5 -15l55 -6l6 -12h-620z" />
<glyph unicode="I" horiz-adv-x="739" d="M55 0l6 12l80 8q53 4 75 14.5t22 20.5v1176q0 10 -19.5 16t-97.5 15l-60 6l-6 12h629l-6 -12l-80 -8q-53 -4 -74.5 -14.5t-21.5 -20.5v-1176q0 -10 19.5 -16t96.5 -15l58 -6l6 -12h-627z" />
<glyph unicode="J" horiz-adv-x="716" d="M-188 -209q0 55 38.5 95t100.5 40q51 0 84 -26.5t45 -64.5q6 -20 6 -41q0 -20 -5 -41q-11 -44 -48 -77h12q42 0 74 24q37 28 60.5 83t35.5 135t12 178v1135q0 10 -19.5 17t-96.5 14l-58 6l-6 12h627l-6 -12l-80 -8q-53 -6 -74.5 -15.5t-21.5 -19.5v-1135 q0 -43 -46.5 -118.5t-117 -148.5t-157.5 -126t-167 -53q-86 0 -139 41t-53 106z" />
<glyph unicode="K" horiz-adv-x="1427" d="M35 0l6 12l80 8q53 6 72.5 15.5t19.5 19.5v1176q0 10 -17.5 16t-95.5 15l-57 6l-6 12h633l-6 -12l-91 -8q-53 -4 -74.5 -14.5t-21.5 -20.5v-650l307 318q113 115 168.5 184.5t63.5 108.5q1 7 1 13q0 29 -30 41q-37 15 -108 22l-64 6l-4 12h547l-6 -12l-45 -4 q-59 -6 -102.5 -22.5t-93.5 -57.5t-119.5 -113t-182.5 -186l-10 -11l397 -665q39 -66 64.5 -102.5t47 -56t43 -26t54.5 -8.5l35 -4l6 -12h-617l5 12l38 4q41 4 60.5 14.5t18.5 38t-23.5 77t-69.5 128.5l-240 414l-141 -143v-496q0 -10 19.5 -16t97.5 -15l68 -6l6 -12h-633z " />
<glyph unicode="L" horiz-adv-x="1179" d="M35 0l6 12l80 8q53 6 72.5 15.5t19.5 19.5v1176q0 10 -17.5 16t-95.5 15l-57 6l-6 12h653l-6 -12l-111 -8q-96 -6 -96 -35v-1194l150 -13q86 0 152.5 26t120.5 78t102.5 132t97.5 188l12 27h12l-65 -469h-1024z" />
<glyph unicode="M" horiz-adv-x="1722" d="M27 0l6 12l39 2q53 4 83.5 13.5t48 21.5t22.5 28.5t5 31.5l27 1095q-29 29 -63.5 42.5t-77.5 17.5l-58 4l-6 12h459l346 -930h2l357 930h469l-7 -12l-102 -8q-51 -4 -73.5 -14.5t-22.5 -20.5l24 -1176q0 -10 19.5 -16t95.5 -15l59 -6l7 -12h-639l6 12l98 8 q51 4 67.5 14.5t16.5 20.5l-27 1135h-2l-456 -1190h-21l-432 1137q-4 10 -10 20t-11 17l-18 -1080q0 -12 8 -25.5t29.5 -24.5t60.5 -18.5t99 -11.5l37 -2l6 -12h-471z" />
<glyph unicode="N" horiz-adv-x="1431" d="M-8 1280h471l729 -874h2l-2 782q0 27 -38 48t-146 30l-37 2l-6 12h450l-6 -12l-41 -2q-86 -6 -117.5 -35t-31.5 -60l-9 -1183h-20l-930 1108h-2l2 -1006q0 -27 38 -47t146 -29l39 -2l6 -12h-452l6 12l41 2q86 6 117.5 34t31.5 58l7 1012q-41 55 -95.5 96t-126.5 52l-22 2 z" />
<glyph unicode="O" horiz-adv-x="1513" d="M55 639q0 133 56.5 254t153.5 213t227.5 146.5t275.5 54.5q150 0 276.5 -49.5t219 -137.5t143.5 -211t51 -272q0 -131 -56 -252t-153.5 -211t-227 -144.5t-276.5 -54.5q-150 0 -276.5 48.5t-218.5 135.5t-143.5 208.5t-51.5 271.5zM342 639q0 -309 111.5 -475t310.5 -166 q201 0 303 158.5t102 484.5q0 305 -111.5 473t-305.5 168q-203 0 -306.5 -159.5t-103.5 -483.5z" />
<glyph unicode="P" horiz-adv-x="1204" d="M20 0l7 12l90 8q53 6 74.5 15.5t21.5 19.5v1176q0 10 -19.5 16t-97.5 15l-67 6l-6 12h591q274 0 407.5 -76t133.5 -233q0 -80 -39 -145.5t-111.5 -111.5t-176 -71t-230.5 -25q-35 0 -65.5 3.5t-55.5 7.5v-580q0 -10 18.5 -17t96.5 -14l88 -6l6 -12h-666zM477 657 q23 -4 47.5 -10t67.5 -6q125 0 203.5 82t78.5 221q0 156 -70.5 234.5t-225.5 81.5l-101 -5v-598z" />
<glyph unicode="Q" horiz-adv-x="1509" d="M55 639q0 129 56.5 250t153.5 213t227.5 147.5t275.5 55.5q156 0 283 -51.5t218 -141.5t140 -212t49 -263q0 -100 -36 -194.5t-98 -175.5t-149.5 -143.5t-191.5 -98.5q49 -119 101.5 -193t119 -111.5t151.5 -42.5q21 -2 43 -2q70 0 156 13l5 -13q-47 -14 -141.5 -30.5 t-190.5 -16.5q-92 0 -172 14.5t-148.5 53.5t-125 107.5t-103.5 175.5q-139 10 -254 65t-197 142t-127 203t-45 249zM342 635q0 -307 111.5 -473t310.5 -166q201 0 303 160.5t102 484.5q0 152 -28.5 270.5t-82.5 200.5t-132 126t-174 44q-203 0 -306.5 -162t-103.5 -485z" />
<glyph unicode="R" horiz-adv-x="1396" d="M20 0l7 12l90 8q41 4 68.5 14.5t27.5 20.5v1176q0 10 -19.5 16t-97.5 15l-67 6l-6 12l612 2q264 0 398 -81t134 -247q0 -115 -86 -199.5t-229 -111.5l266 -420q37 -59 65.5 -98t55.5 -62.5t56.5 -34t68.5 -14.5l22 -2l9 -12h-445l-16 33l-344 608q-29 6 -56.5 14.5 t-56.5 18.5v-625q0 -20 115 -31l78 -6l6 -12h-656zM477 692q29 -6 52.5 -11t50.5 -5q147 0 228 73.5t81 215.5q0 137 -85 217q-80 75 -230 75h-19h-78v-565z" />
<glyph unicode="S" horiz-adv-x="1052" d="M72 375h12l82 -158q59 -113 142 -167t202 -54q129 0 201.5 71.5t72.5 192.5q0 66 -24.5 113t-67.5 81.5t-101.5 60.5t-123.5 50q-72 27 -136.5 57.5t-112.5 72.5t-76.5 98.5t-28.5 136.5q0 78 30.5 146.5t86 119.5t133 81t172.5 30q86 0 160.5 -17.5t125.5 -34.5l82 29 l6 -356h-10l-172 301q-35 25 -81 41t-116 16q-100 0 -165.5 -59.5t-65.5 -151.5q0 -57 24.5 -98t65.5 -72t96.5 -54.5t116.5 -45.5q80 -27 147.5 -60.5t118 -81t79 -111t28.5 -153.5q0 -82 -35 -157.5t-97.5 -135t-149.5 -95.5t-191 -36q-115 0 -220.5 19.5t-187.5 52.5z " />
<glyph unicode="T" horiz-adv-x="1378" d="M63 899l60 381h1149l39 -379h-13l-12 27q-27 57 -64.5 115.5t-87 106.5t-109.5 79t-132 33h-70v-1213q0 -10 19.5 -16t97.5 -15l70 -6l6 -12h-651l6 12l92 8q53 4 74.5 14.5t21.5 20.5v1207h-67q-74 -6 -136.5 -41t-112.5 -84.5t-88 -105.5t-63 -105l-14 -27h-15z" />
<glyph unicode="U" horiz-adv-x="1427" d="M16 1280h648l-7 -12l-90 -8q-53 -4 -74.5 -12.5t-21.5 -18.5v-754q0 -211 91 -310t274 -99q182 0 278 107.5t96 334.5l-2 680q0 27 -37.5 49.5t-146.5 30.5h-39l-6 12h451l-7 -12h-39q-86 -6 -117.5 -36t-31.5 -61l-4 -667q-2 -129 -29.5 -228.5t-86 -168t-151 -104.5 t-225.5 -36q-281 0 -406.5 106.5t-125.5 342.5v819q0 10 -18.5 15t-96.5 12l-69 6z" />
<glyph unicode="V" horiz-adv-x="1347" d="M-10 1280h628l-4 -12l-67 -2q-47 -2 -70.5 -8.5t-29 -23.5t6 -49t31.5 -85l316 -776h4l233 614q38 104 58 166q14 45 15 75q0 11 -2 19q-7 33 -44 45t-111 21l-39 4l-6 12h449l-6 -12l-35 -4q-47 -4 -78 -15.5t-58.5 -46.5t-56 -101.5t-71.5 -180.5l-359 -938h-20 l-422 1032q-35 84 -56.5 133t-42 74.5t-43 33t-59.5 9.5l-57 4z" />
<glyph unicode="W" horiz-adv-x="2039" d="M-18 1280h628l-6 -12l-65 -2q-41 -2 -63.5 -8.5t-30 -19.5t-2 -37.5t19.5 -63.5l317 -828h4l246 623l-31 84q-29 74 -49 121t-40.5 74.5t-45 39t-59.5 13.5l-60 4l-6 12h641l-6 -12l-61 -2q-43 -2 -66.5 -7.5t-33 -20.5t-3 -42t22.5 -70l293 -802h4l223 604q37 98 55 160 q13 44 14 76q0 13 -2 23q-8 36 -45.5 52t-115.5 25l-43 4l-6 12h454l-6 -12l-33 -4q-49 -6 -79.5 -19.5t-55 -48.5t-50 -100.5t-66.5 -173.5l-357 -955h-24l-351 938h-2l-368 -938h-25l-411 1047q-31 80 -52.5 127t-41 73.5t-44 37t-61.5 12.5l-49 4z" />
<glyph unicode="X" horiz-adv-x="1351" d="M-10 0l6 12l57 4q47 4 84 20.5t75 54.5t85 101.5t115 157.5l159 230l-278 440q-43 68 -71.5 113t-51.5 72.5t-45.5 41t-54.5 15.5l-64 6l-8 12h641l-4 -12l-66 -2q-35 -2 -54 -10.5t-22.5 -28t11 -54t49.5 -90.5l188 -299h2l111 162q68 98 101.5 157.5t33.5 92.5 t-32.5 46t-96.5 20l-51 6l-6 12h489l-6 -12l-47 -4q-49 -4 -86 -18.5t-75 -50.5t-87 -99.5t-123 -167.5l-114 -162l362 -569q33 -51 55.5 -86t42 -55.5t38 -29t44.5 -10.5l47 -4l9 -12h-625l4 12l66 2q72 4 84 32q3 7 3 16q0 27 -28 71l-272 428h-2q2 0 -22.5 -34.5 t-53.5 -75.5q-35 -49 -78 -113q-66 -94 -98 -154q-31 -59 -30 -93q0 -36 32 -51q30 -15 90 -22l51 -6l6 -12h-489z" />
<glyph unicode="Y" horiz-adv-x="1325" d="M4 1280h635l-6 -12l-35 -2q-49 -4 -76.5 -13.5t-36 -25t-2.5 -39t25 -53.5l270 -484h4l154 287q53 100 80 160q23 55 23 88v7q-3 34 -37.5 48t-102.5 21l-45 6l-6 12h467l-6 -12l-58 -6q-39 -4 -68.5 -17.5t-61 -47.5t-70.5 -97.5t-95 -169.5l-161 -299v-582 q0 -10 19.5 -16t96.5 -15l68 -6l6 -12h-647l6 12l90 8q53 4 74.5 14.5t21.5 20.5v531l-274 485q-31 53 -53.5 89t-44 57.5t-46 32t-59.5 14.5l-43 4z" />
<glyph unicode="Z" horiz-adv-x="1230" d="M61 0v8l770 1243v4l-182 2q-111 0 -193.5 -24.5t-144 -70.5t-103.5 -112.5t-73 -150.5l-8 -22h-14l26 403h1004v-10l-785 -1237v-6l195 -4q18 -1 36 -1q104 0 181 20q90 24 157.5 76t120 135t101.5 200l12 28h15l-68 -481h-1047z" />
<glyph unicode="[" horiz-adv-x="626" d="M109 -506v1786h499v-20h-477v-1745h477v-21h-499z" />
<glyph unicode="\" horiz-adv-x="475" d="M-12 1290h20l430 -1796h-20z" />
<glyph unicode="]" horiz-adv-x="626" d="M18 -485h478v1745h-478v20h500v-1786h-500v21z" />
<glyph unicode="^" horiz-adv-x="757" d="M78 983l297 403h8l297 -403h-12l-287 197h-4l-287 -197h-12z" />
<glyph unicode="_" horiz-adv-x="913" d="M39 -59l6 59h823l6 -59h-835z" />
<glyph unicode="`" horiz-adv-x="819" d="M80 1386h237l209 -382h-10z" />
<glyph unicode="a" horiz-adv-x="919" d="M47 174q0 53 23.5 99t81 88t154.5 79t243 74l2 70v17q1 117 -51 181q-56 70 -154 70q-57 0 -92 -18.5t-35 -34.5q0 -6 9.5 -18.5t21.5 -29t21.5 -35t9.5 -38.5q0 -45 -33 -76t-86 -31q-47 0 -81 26t-34 73q0 49 45 92t112.5 74.5t145.5 50t142 18.5q168 1 234 -71 q59 -63 59 -206q0 -19 -1 -40l-18 -383q-1 -9 -1 -17q-1 -45 19 -68q22 -28 58 -28q25 0 46 18.5t40 41.5l12 -7q-16 -20 -41 -49.5t-54.5 -55.5t-64 -44.5t-73.5 -18.5q-72 0 -114 46.5t-52 130.5l-2 2q-66 -72 -133.5 -124t-147.5 -52q-45 0 -83 16t-66.5 43t-45 62.5 t-16.5 72.5zM274 258q0 -66 36 -106.5t89 -40.5q72 0 138 67l14 314q-82 -18 -135.5 -43t-85 -53.5t-44 -63.5t-12.5 -74z" />
<glyph unicode="b" horiz-adv-x="1054" d="M-37 1280l2 8l359 90v-663l6 -6q61 78 142 132t179 54q76 0 142.5 -33t115.5 -90t78 -136t29 -173q0 -125 -46 -218t-117 -153.5t-157 -90.5t-168 -30q-78 0 -148.5 19.5t-129.5 44.5h-2l-142 -78h-12v1188q0 33 -3 53.5t-12 33.5t-25.5 21.5t-43.5 14.5zM324 195 q39 -84 103 -142.5t130 -58.5q49 0 88 31.5t64.5 87t39 129t13.5 155.5q0 78 -17.5 145.5t-49 117t-78 78t-105.5 28.5t-105.5 -26.5t-82.5 -61.5v-483z" />
<glyph unicode="c" horiz-adv-x="878" d="M39 412q0 104 35 194t99.5 156.5t153.5 104.5t195 38q68 0 127.5 -14t103.5 -41t69.5 -63.5t25.5 -81.5q0 -53 -35 -89t-86 -36q-53 0 -88 34.5t-35 81.5q0 25 8.5 44.5t17.5 35t17 26.5t8 17q0 23 -35.5 43.5t-82.5 20.5q-109 0 -177.5 -103.5t-68.5 -281.5 q0 -186 82 -285.5t221 -99.5q88 0 148.5 35.5t107.5 123.5l14 -6q-66 -141 -164 -219t-237 -78q-92 0 -170 34t-134.5 93.5t-88 140t-31.5 175.5z" />
<glyph unicode="d" horiz-adv-x="1079" d="M39 410q0 125 46 216t116.5 151.5t156.5 89t168 28.5q66 0 114 -9t85 -28h4v287q0 66 -15.5 90.5t-66.5 32.5l-67 12l2 8l379 90v-1206q0 -31 2 -50.5t8 -29.5t17 -16t30 -10l74 -17l-2 -8l-361 -72v191l-4 4q-61 -78 -142 -135.5t-180 -57.5q-76 0 -142 33t-115.5 91.5 t-78 139t-28.5 175.5zM293 471q0 -78 17.5 -144.5t50 -115.5t79 -78t103.5 -29q63 0 107 26t79 63v485q-18 41 -45 77t-56.5 62.5t-61 40.5t-62.5 14q-51 0 -91 -31.5t-67 -87t-40 -128t-13 -154.5z" />
<glyph unicode="e" horiz-adv-x="911" d="M39 420q0 102 36 191t99.5 154.5t150.5 103.5t187 38q88 0 153.5 -24.5t109.5 -65.5t65.5 -92t21.5 -107q0 -10 -1 -17t-3 -17q-143 0 -262 2q-51 0 -101.5 1t-91.5 2t-71.5 1h-40.5q-4 -20 -4 -49v-49q0 -86 22.5 -156t63.5 -119t98 -76.5t127 -27.5q88 0 152.5 35.5 t111.5 123.5l15 -6q-66 -141 -165.5 -219t-246.5 -78q-92 0 -170 35t-135.5 95.5t-89 143.5t-31.5 177zM295 610l340 2q0 47 -7 95.5t-23.5 87.5t-44.5 63.5t-71 24.5q-70 0 -124 -77t-70 -196z" />
<glyph unicode="f" horiz-adv-x="663" d="M8 772l49 102l115 -2l6 117q6 88 46 155.5t101.5 115t135.5 72t147 24.5q100 0 138 -34t38 -79q0 -41 -33.5 -73.5t-82.5 -32.5q-102 0 -138 153l-4 17l-34 10q-27 -10 -44.5 -29.5t-26.5 -53.5t-13.5 -85t-4.5 -125v-150h254l-34 -100h-220v-731q0 -12 17.5 -19.5 t85.5 -9.5l69 -2l7 -12h-541l6 12l39 2q47 4 66.5 8.5t19.5 22.5v725z" />
<glyph unicode="g" horiz-adv-x="976" d="M25 -281q0 41 23.5 76t61 62.5t83 49t88.5 38.5v2q-102 6 -171 58t-69 124q0 43 21.5 78t55.5 62.5t77 47t86 29.5v2q-82 29 -136.5 92.5t-54.5 159.5q0 61 30 116.5t80 97.5t117.5 65.5t143.5 23.5q72 0 134 -19.5t110 -49.5l268 47l-21 -105l-204 29l-3 -6 q41 -35 63.5 -83t22.5 -102q0 -61 -28.5 -114.5t-78.5 -93t-119.5 -62t-149.5 -22.5q-39 0 -77 5t-63 9q-53 -10 -85.5 -38t-32.5 -67q0 -41 42 -58t128 -17q23 0 55.5 1t69 2t73.5 2t64 1q145 0 225 -63.5t80 -178.5q0 -86 -40 -159.5t-112.5 -128t-173 -85t-221.5 -30.5 q-362 0 -362 202zM199 -236q0 -92 82 -151t215 -59q68 0 122 18t94 50t61.5 74t21.5 91q0 86 -64.5 125t-208.5 43q-14 1 -29 1q-32 0 -71 -3q-60 -4 -111 -10q-55 -23 -83.5 -71t-28.5 -108zM319 614q1 -274 144 -274q72 0 109.5 65.5t37.5 194.5q0 127 -33.5 205 t-117.5 78q-139 0 -140 -269z" />
<glyph unicode="h" horiz-adv-x="1079" d="M6 1278l2 8l361 90v-651l2 -4q33 29 71.5 60.5t83.5 59t94.5 45t100.5 17.5q96 0 162 -65q35 -35 50 -95.5t15 -130.5v-567q0 -4 2 -8t12.5 -8t32 -7.5t58.5 -7.5l22 -2l6 -12h-483l6 12l37 2q53 4 64.5 12.5t11.5 20.5v539q0 94 -44 133t-124 39q-59 0 -103.5 -18.5 t-78.5 -45.5v-311v-340q0 -12 15 -18.5t77 -10.5l28 -2l7 -12h-480l6 12l29 2q47 4 66.5 9.5t19.5 23.5v1094q0 35 -3 55.5t-12 33.5t-24.5 21.5t-42.5 14.5z" />
<glyph unicode="i" horiz-adv-x="538" d="M25 793l2 8l360 98v-856q0 -12 17.5 -17.5t87.5 -11.5l22 -2l6 -12h-487l6 12l31 2q47 4 66.5 9.5t19.5 23.5v574q0 47 -3 76.5t-12.5 46t-26 24.5t-42.5 14zM113 1182q0 49 36.5 95t108.5 46t108.5 -46t36.5 -95t-36.5 -95.5t-108.5 -46.5t-108.5 46.5t-36.5 95.5z" />
<glyph unicode="j" horiz-adv-x="518" d="M-205 -389q0 49 34 82t83 33q37 0 64.5 -19.5t43 -48.5t17.5 -64v-8q0 -30 -12 -59q72 4 98.5 93t26.5 245v756q0 47 -3.5 76.5t-12.5 46t-25.5 24.5t-42.5 14l-48 11l2 8l363 98v-960q0 -61 -39 -140.5t-100.5 -149t-136 -117.5t-144.5 -48q-80 0 -124 36t-44 91z M106 1182q0 49 38 95t110 46t107.5 -46t35.5 -95t-35.5 -95.5t-107.5 -46.5t-110 46.5t-38 95.5z" />
<glyph unicode="k" horiz-adv-x="1048" d="M6 1278l2 8l361 90v-962l159 147q92 86 135.5 141.5t43.5 88.5q0 14 -5.5 25t-19.5 20.5t-40 15.5t-67 8l-26 2l-6 12h458l-6 -12l-34 -4q-37 -4 -69 -15.5t-68 -35t-81 -63t-110 -105.5l-12 -12q-2 -2 -4.5 -5.5t-4.5 -5.5l-4 -4l252 -450q25 -45 43.5 -73t35.5 -43 t35.5 -22.5t45.5 -9.5l27 -2l6 -12h-375l-14 31l-228 418l-67 -60v-346q0 -12 17 -18.5t85 -10.5l31 -2l4 -12h-488l7 12l26 2q47 4 65.5 9.5t18.5 23.5v1094q0 35 -3 55.5t-12 33.5t-24.5 21.5t-42.5 14.5z" />
<glyph unicode="l" horiz-adv-x="524" d="M16 1278l2 8l361 90v-1333q0 -12 17.5 -18.5t76.5 -10.5l27 -2l6 -12h-477l6 12l31 2q47 4 63 9.5t16 23.5v1059q0 47 -3 74.5t-12 45t-25.5 26t-43.5 14.5z" />
<glyph unicode="m" horiz-adv-x="1632" d="M25 793l2 8l364 98l-6 -176l4 -2q29 29 64.5 61.5t77.5 59t89.5 44t98.5 17.5q53 0 92 -18.5t70 -46.5q43 -47 55 -117l6 -4q31 31 68 64.5t78.5 60t89 44t98.5 17.5q53 0 91 -16.5t71 -48.5q35 -35 50 -102.5t15 -166.5v-524q0 -4 2 -8t11.5 -8t30 -7.5t59.5 -7.5l22 -2 l6 -12h-481l6 12l37 2q53 4 64.5 12.5t11.5 20.5v537q0 96 -40 135t-126 39q-53 0 -100.5 -21.5t-57.5 -52.5l-2 -86v-557q0 -10 12.5 -15.5t79.5 -11.5l29 -2l6 -12h-477l6 12l37 2q49 4 62.5 12.5t13.5 20.5v537q0 96 -41 135t-125 39q-51 0 -89 -17.5t-73 -40.5v-241 v-416q0 -12 14.5 -18.5t77.5 -10.5l31 -2l4 -12h-481l6 12l31 2q47 4 66.5 9.5t19.5 23.5v574q0 47 -3 76.5t-12.5 46t-26 24.5t-42.5 14z" />
<glyph unicode="n" horiz-adv-x="1099" d="M25 793l2 8l364 98l-6 -176l4 -2q33 29 73 60.5t84 59t94 45t101 17.5q96 0 162 -65q35 -35 50.5 -95.5t15.5 -130.5v-567q0 -4 2 -8t12 -8t31.5 -7.5t58.5 -7.5l23 -2l6 -12h-484l7 12l37 2q53 4 64 12.5t11 20.5v537q0 96 -45 135t-125 39q-59 0 -102 -18.5t-78 -45.5 v-311v-340q0 -12 15.5 -18.5t74.5 -10.5l31 -2l4 -12h-479l6 12l31 2q47 4 66.5 9.5t19.5 23.5v574q0 47 -3 76.5t-12.5 46t-26 24.5t-42.5 14z" />
<glyph unicode="o" horiz-adv-x="1056" d="M39 438q0 96 36 181.5t101.5 148.5t156.5 100t199 37q111 0 200 -35.5t152.5 -98t98.5 -146.5t35 -181q0 -98 -36 -185t-101.5 -150.5t-155.5 -100.5t-201 -37t-201 37t-152 100.5t-97 148.5t-35 181zM297 455q0 -164 27.5 -264.5t74.5 -149.5q51 -51 127 -51 q55 0 99.5 33.5t73 93t44 139.5t15.5 172q0 160 -29 260t-76 148q-25 23 -54.5 37t-70.5 14q-59 0 -102 -35t-71.5 -93.5t-43 -137t-14.5 -166.5z" />
<glyph unicode="p" horiz-adv-x="1083" d="M-8 793l2 8l362 98l-4 -184l6 -6q61 78 142.5 132t179.5 54q76 0 142.5 -33t115.5 -90t77.5 -136t28.5 -173q0 -125 -45 -218t-115.5 -153.5t-156.5 -90.5t-168 -30q-66 0 -116 10.5t-85 26.5h-4v-485q0 -10 16.5 -17.5t86.5 -9.5l71 -2l7 -12h-541l6 12l37 2 q47 4 66.5 9.5t19.5 21.5v1094q0 47 -3 76.5t-12.5 46t-25.5 24.5t-43 14zM354 193q39 -86 104 -142.5t128 -56.5q49 0 88 31.5t65.5 87t40 129t13.5 155.5q0 78 -17.5 144.5t-50.5 116t-79 77t-105 27.5t-105.5 -24.5t-81.5 -59.5v-485z" />
<glyph unicode="q" horiz-adv-x="1071" d="M39 410q0 127 46 219t116.5 151.5t156.5 87t168 27.5t152 -17.5t131 -46.5h2l137 82h13v-1386q0 -16 19 -21.5t67 -9.5l36 -2l7 -12h-541l6 12l72 2q70 2 86 9.5t16 17.5v637l-4 4q-61 -78 -142 -135.5t-180 -57.5q-76 0 -142 33t-115.5 91.5t-78 139t-28.5 175.5z M293 475q0 -76 17.5 -143.5t50 -118.5t79 -80t103.5 -29q63 0 107 26t79 63v483q-18 41 -45 76.5t-56.5 62.5t-61 42t-62.5 15q-51 0 -91 -31.5t-67 -86t-40 -126t-13 -153.5z" />
<glyph unicode="r" horiz-adv-x="823" d="M25 793l2 8l364 98l-6 -324h4q45 160 111.5 244t165.5 84q61 0 104 -37t43 -100q0 -47 -35 -87t-90 -40q-57 0 -94 38t-47 97q-53 -8 -88 -74.5t-72 -205.5v-449q0 -12 19.5 -19.5t89.5 -11.5l45 -2l6 -12h-514l6 12l31 2q47 4 66.5 9.5t19.5 23.5v574q0 47 -3 76.5 t-12.5 46t-26 24.5t-42.5 14z" />
<glyph unicode="s" horiz-adv-x="770" d="M47 281h10l49 -88q51 -98 108.5 -150.5t150.5 -52.5q82 0 128 45t46 117q0 76 -61.5 119.5t-153.5 78.5q-51 20 -99.5 43t-83.5 53.5t-56.5 73.5t-21.5 103q0 66 25 117t68 87.5t103 56t132 19.5q53 0 103.5 -9t91.5 -26l80 21l10 -264l-10 -4l-152 217 q-25 16 -55.5 31.5t-71.5 15.5q-74 0 -114 -41t-40 -111q0 -72 61.5 -109.5t154.5 -72.5q51 -20 100 -43t87 -55.5t61.5 -76.5t23.5 -108q0 -57 -22.5 -110.5t-67.5 -94t-115 -66.5t-162 -26t-164.5 15.5t-130.5 38.5z" />
<glyph unicode="t" horiz-adv-x="712" d="M4 770l41 68l145 104l199 150l8 -2l-2 -213l307 -3l-34 -98h-275l-10 -518v-9q0 -79 34 -118q36 -41 115 -41q59 0 100.5 18.5t69.5 45.5l9 -9q-70 -72 -145 -120t-167 -48q-123 -1 -182 61q-57 59 -57 184v9l10 537z" />
<glyph unicode="u" horiz-adv-x="1052" d="M-8 874h375l-5 -583v-8q0 -88 44 -125q46 -39 129 -39q55 0 94 17.5t71 41.5v316v303q0 37 -19 48t-85 15l-29 2l-6 12h371v-669q0 -31 2 -49.5t8 -29.5t17.5 -17.5t27.5 -10.5l76 -16l-2 -8l-361 -107l5 189h-5q-33 -33 -72.5 -66t-83.5 -59.5t-92.5 -43t-101.5 -16.5 q-51 0 -86 17.5t-69 52.5q-35 35 -51 95q-14 53 -13 114v16l4 570q0 4 -2 7t-13 6t-32.5 6t-60.5 5l-29 2z" />
<glyph unicode="v" horiz-adv-x="978" d="M-18 874h516l-4 -12l-35 -2q-61 -4 -77 -24q-7 -9 -8 -24q0 -19 13 -48l211 -510l133 346q31 80 41 128q5 25 5 45q0 19 -4 31q-9 28 -40 39t-80 17l-28 2l-7 12h361l-6 -12l-29 -4q-37 -4 -58.5 -14t-40 -38t-40 -80t-55.5 -140l-236 -606h-51l-326 763 q-14 35 -25.5 57.5t-23.5 35t-27.5 17.5t-40.5 7l-32 2z" />
<glyph unicode="w" horiz-adv-x="1521" d="M-18 874h497l-4 -12l-35 -2q-54 -4 -68 -22q-6 -7 -5 -18q0 -19 14 -52l205 -522l164 395l-43 109q-27 70 -52.5 89t-66.5 21l-29 2l-6 12h500l-4 -12l-35 -2q-60 -4 -68 -24q-3 -7 -2 -17q0 -19 10 -51l207 -512l119 332q27 76 37 125q5 24 5 44q0 19 -5 35 q-10 30 -40 45t-83 21l-29 4l-6 12h363l-6 -12l-31 -4q-37 -2 -58.5 -12t-39 -40t-37 -82t-50.5 -142l-217 -602h-55l-266 638l-262 -638h-56l-301 743q-16 43 -28.5 69.5t-24.5 41t-28.5 19.5t-43.5 7l-32 2z" />
<glyph unicode="x" horiz-adv-x="991" d="M-4 874h514l-6 -12l-41 -4q-48 -6 -48 -35q0 -31 40 -90l123 -192h2l73 104q47 66 69 106q21 37 21 60q1 27 -25 36q-24 9 -71 11l-37 4l-6 12h371l-6 -12l-43 -6q-33 -6 -60.5 -18.5t-56.5 -39t-64.5 -68.5t-87.5 -109l-67 -95l231 -356q53 -82 90 -117t72 -39l27 -2 l8 -12h-506l4 12l37 4q51 4 51 34q0 31 -39 89l-143 223h-2l-96 -135q-47 -63 -70 -103q-22 -38 -22 -62t25 -34q24 -10 67 -12l41 -4l6 -12h-369l6 12l41 6q37 6 63.5 18.5t55.5 39t63.5 68.5t85.5 110l93 123l-209 328q-57 82 -93 116.5t-79 38.5l-27 2z" />
<glyph unicode="y" horiz-adv-x="978" d="M-23 874h515l-7 -12l-34 -2q-61 -4 -73 -24q-5 -8 -5 -20q0 -20 14 -54l217 -504l125 348q29 78 39 124q5 24 5 43q0 17 -4 29q-9 27 -39 38.5t-83 17.5l-29 4l-6 12h363l-6 -12l-33 -4q-35 -2 -56.5 -12t-40 -38t-39 -80t-52.5 -140l-218 -588l-84 -250 q-45 -139 -104 -206.5t-147 -67.5q-51 0 -95.5 31.5t-44.5 93.5q0 47 34 81.5t85 34.5q63 0 95 -36.5t40 -79.5q41 8 65.5 49t53.5 119l76 213h-27l-340 759q-16 37 -27.5 58.5t-23.5 35t-28.5 18.5t-41.5 7l-32 2z" />
<glyph unicode="z" horiz-adv-x="897" d="M39 0v8l518 846l-92 -2q-76 -2 -129 -17.5t-91 -44t-65.5 -70.5t-52.5 -97l-39 -84h-10v335h753v-8l-530 -843l92 -3q82 2 147.5 25t116 58.5t88 82.5t64.5 99l29 55h10l-62 -340h-747z" />
<glyph unicode="{" horiz-adv-x="655" d="M-12 389l4 12q129 12 203.5 45t74.5 117q0 41 -15 91.5t-34.5 104.5t-35 111.5t-15.5 114.5q0 68 37 127t99.5 104.5t146.5 74t178 36.5l6 -12q-143 -20 -213 -73.5t-70 -131.5q0 -49 15.5 -104.5t35 -112.5t35 -115.5t15.5 -113.5q0 -117 -94.5 -183.5t-307.5 -87.5v-4 q213 -23 307.5 -88t94.5 -182q0 -55 -15.5 -113.5t-35 -116t-35 -113t-15.5 -104.5q0 -80 70 -133t213 -74l-6 -12q-94 8 -178 37t-146.5 74t-99.5 104.5t-37 126.5q0 57 15.5 114.5t35 112t34.5 104.5t15 91q0 82 -65.5 116t-212.5 46z" />
<glyph unicode="|" horiz-adv-x="313" d="M147 -506v1796h19v-1796h-19z" />
<glyph unicode="}" horiz-adv-x="655" d="M-14 -535q143 20 212.5 73.5t69.5 133.5q0 49 -15 104.5t-34.5 113t-35 115.5t-15.5 114q0 117 94 182.5t307 87.5v4q-213 20 -307 87t-94 184q0 55 15.5 113.5t35 115.5t34.5 112.5t15 104.5q0 78 -69.5 131t-212.5 74l6 12q94 -8 178 -36.5t146.5 -74t99.5 -104.5 t37 -127q0 -57 -15.5 -114.5t-35 -111.5t-35 -104.5t-15.5 -91.5q0 -84 75 -116.5t204 -45.5l4 -12l-4 -10q-145 -12 -212 -46t-67 -116q0 -41 15.5 -91t35 -104.5t35 -111.5t15.5 -115q0 -68 -37 -127t-99.5 -104t-146.5 -74t-178 -37z" />
<glyph unicode="~" horiz-adv-x="798" d="M76 317q6 72 16 120t28.5 78t47.5 42t70 12q47 0 100 -19.5t105.5 -44t98.5 -44t79 -19.5q16 0 31.5 2t27.5 13.5t20.5 33t12.5 60.5h10q-6 -70 -16.5 -118t-29 -77.5t-47 -43t-69.5 -13.5q-47 0 -100 20.5t-105.5 44t-98.5 44t-81 20.5q-14 0 -29.5 -2t-26.5 -12.5 t-19.5 -33t-12.5 -63.5h-12z" />
<glyph unicode="&#xa1;" horiz-adv-x="550" d="M139 1165q0 53 39 95.5t96 42.5q59 0 99.5 -42t40.5 -96q0 -53 -40.5 -93t-99.5 -40q-57 0 -96 40t-39 93zM144 53.5q-1 24.5 3 48.5l117 779q2 10 10.5 10t10.5 -10l116 -779q4 -25 3 -49t-13 -43.5t-39.5 -31t-75.5 -11.5h-4q-47 0 -74.5 11.5t-40 31t-13.5 44z" />
<glyph unicode="&#xa2;" horiz-adv-x="878" d="M39 412q0 104 35 194t99.5 156.5t153.5 105.5t195 39q35 0 68 -4t63 -10l90 342h21l-94 -348q78 -23 128 -71t50 -111q0 -53 -35 -89t-86 -36q-43 0 -73.5 24.5t-41.5 63.5l-141 -525q53 -31 123 -30q88 0 148.5 35.5t107.5 123.5l16 -4q-66 -141 -165 -220t-238 -79 h-17.5t-19.5 2l-78 -290h-18l78 292q-80 10 -147.5 47t-117 95.5t-77 134.5t-27.5 162zM291 498q0 -129 44 -218.5t118 -129.5l188 698q-18 14 -47 25.5t-57 11.5q-109 0 -177.5 -104.5t-68.5 -282.5z" />
<glyph unicode="&#xa3;" horiz-adv-x="1132" d="M2 117q0 80 66.5 137t185.5 57q47 0 96 -9t103 -26q2 10 2 31q0 72 -36 147.5t-73 157.5h-217l6 21h203q-20 49 -33.5 99t-13.5 104q0 98 41 181t111.5 144.5t168 96t207.5 34.5q123 0 189.5 -46t66.5 -134q0 -47 -38 -86t-93 -39q-47 0 -77.5 25.5t-43 63.5t-5.5 80 t32 75q-6 8 -31.5 21.5t-62.5 13.5q-88 0 -152.5 -65.5t-64.5 -201.5q0 -76 21.5 -163.5t27.5 -202.5h256l6 -21h-260v-41q0 -66 -23.5 -147.5t-64.5 -161.5q98 -31 196.5 -61.5t186.5 -30.5q43 0 74.5 10t54 38t37 76t22.5 124h19q-2 -86 -27 -166t-67 -141.5t-99 -98.5 t-129 -37q-115 0 -204 42t-167 89q-51 -59 -112.5 -95t-128.5 -36q-72 0 -114 40t-42 102zM23 111q0 -53 38.5 -84t96.5 -31q57 0 117.5 35t105.5 88q-66 41 -122 72.5t-114 31.5q-53 0 -87.5 -29.5t-34.5 -82.5z" />
<glyph unicode="&#xa4;" horiz-adv-x="1046" d="M-2 467l6 20h121q-6 66 -6 119q0 33 2 66t8 61h-131l6 21h129q25 127 83 226t137 168t172 105.5t190 36.5q141 0 224 -45t83 -135q0 -47 -38 -85t-93 -38q-47 0 -79 25.5t-44 63.5t-5 81t38 76q-12 8 -31.5 20.5t-62.5 12.5q-70 0 -126.5 -38t-99.5 -105.5t-69.5 -162 t-34.5 -206.5h385l6 -21h-391q-2 -18 -2 -37.5v-40.5q0 -82 12 -168h375l6 -20h-373q37 -162 132.5 -254t228.5 -92q98 0 165.5 39t120.5 131l15 -8q-72 -145 -178.5 -226.5t-253.5 -81.5q-92 0 -174 34t-147.5 97.5t-111 154.5t-63.5 206h-131z" />
<glyph unicode="&#xa5;" horiz-adv-x="1280" d="M-31 1280h662l-6 -14l-50 -2q-86 -2 -100 -38t31 -114l258 -477h2l102 203q68 131 99.5 210.5t29.5 125t-38.5 63.5t-108.5 27l-45 6l-8 10h493l-6 -10l-45 -6q-33 -6 -64.5 -20.5t-63.5 -45.5t-66.5 -82t-75.5 -131l-95 -180q-18 -33 -34.5 -65.5t-29.5 -59.5t-22 -42 l-8 -15h385l-6 -21h-381v-246h381l6 -20h-387v-289q0 -10 19.5 -15t99.5 -12l70 -6l6 -14h-662l6 14l93 9q53 4 75.5 12t22.5 18v283h-383l6 20h377v246h-377l-6 21h369l-10 19q-11 20 -29.5 51.5t-41 71.5t-46.5 83l-127 225q-33 53 -57.5 89t-48 57.5t-50.5 31t-64 11.5 l-43 4z" />
<glyph unicode="&#xa7;" horiz-adv-x="833" d="M8 625q0 82 56.5 140t130.5 97q-70 70 -70 162q0 63 29.5 115.5t78 90.5t108.5 58.5t122 20.5q119 0 190.5 -38t71.5 -116q0 -41 -29.5 -74.5t-77.5 -33.5q-41 0 -67.5 19t-37.5 49t-10 68t15 74q-18 14 -36.5 23.5t-49.5 9.5q-37 0 -66.5 -14t-50 -35.5t-32 -48.5 t-11.5 -51q0 -39 20.5 -71t55.5 -59.5t82 -52t98 -49.5q55 -27 108.5 -55.5t95.5 -65t68.5 -81.5t26.5 -105q0 -82 -56 -142.5t-130 -101.5q70 -66 70 -161q0 -61 -31 -114.5t-80 -91.5t-110.5 -59.5t-122.5 -21.5q-119 0 -193 40t-74 118q0 41 27 74.5t74 33.5 q41 0 67.5 -18.5t37.5 -48t7 -67.5t-22 -77q18 -14 47 -23.5t59 -9.5q37 0 68 14.5t52.5 36t33.5 48t12 51.5q0 41 -20.5 71.5t-55 57.5t-81 51.5t-99.5 48.5q-55 27 -108.5 57.5t-95.5 67.5t-68.5 83t-26.5 106zM141 741q0 -41 17.5 -72.5t48.5 -58t75 -50t99 -50.5 q76 -35 138.5 -68.5t109.5 -74.5q29 25 47 52t18 64q0 80 -65.5 129.5t-175.5 100.5q-74 37 -136.5 68.5t-109.5 72.5q-29 -23 -47.5 -50.5t-18.5 -62.5z" />
<glyph unicode="&#xa8;" horiz-adv-x="802" d="M80 1153q0 20 8 43t23.5 41t38 29.5t53.5 11.5t54.5 -11.5t38.5 -29.5t22.5 -40.5t7.5 -43.5q0 -41 -31 -81t-92 -40q-59 0 -91 40t-32 81zM479 1153q0 20 7.5 43t22.5 41t37.5 29.5t53.5 11.5t54.5 -11.5t39 -29.5t22.5 -40.5t7 -43.5q0 -41 -31 -81t-92 -40 q-59 0 -90 40t-31 81z" />
<glyph unicode="&#xa9;" horiz-adv-x="1441" d="M51 641q0 139 52.5 261t143.5 213t213 144.5t261 53.5t261 -53.5t213 -144.5t143.5 -213t52.5 -261t-52.5 -261t-143.5 -213t-213 -143.5t-261 -52.5t-261 52.5t-213 143.5t-143.5 213t-52.5 261zM72 641q0 -135 51 -253t139 -207t206 -140t253 -51t253 51t206 140 t139 207t51 253t-51 254t-139 208t-206 140t-253 51t-253 -51t-206 -140t-139 -208t-51 -254zM303 633q0 84 31 157.5t89 129t143 87t192 31.5q59 0 114.5 -13t83.5 -32l80 25l8 -246h-6l-127 209q-23 20 -62.5 32.5t-90.5 12.5q-68 0 -121 -29.5t-89 -82t-54.5 -122 t-18.5 -151.5q0 -88 21.5 -160.5t59.5 -124t89 -79t109 -27.5q102 0 163.5 50t108.5 140l39 70h6l-41 -217l-41 -8q-16 -8 -45 -16.5t-61.5 -15.5t-68 -11t-66.5 -4q-100 0 -182.5 30.5t-140.5 84t-90 125t-32 155.5z" />
<glyph unicode="&#xaa;" horiz-adv-x="718" d="M27 1114q0 41 38.5 75t95 59.5t122 40t118.5 14.5q117 0 175.5 -57.5t52.5 -188.5l-13 -287q-2 -94 54 -94q23 0 40 11t33 30l9 -4q-14 -20 -34 -45t-42.5 -45.5t-51 -34t-61.5 -13.5q-113 0 -131 148h-2q-55 -70 -112 -109t-123 -39q-68 0 -113 44.5t-45 103.5 q0 37 20.5 72.5t67.5 69.5t124 65t189 61v58q0 104 -47 154t-123 50q-53 0 -70.5 -15t-17.5 -24q0 -10 18.5 -37.5t18.5 -56.5q0 -35 -27.5 -60.5t-68.5 -25.5q-39 0 -66.5 22.5t-27.5 57.5zM223 793q0 -49 26.5 -79t67.5 -30q29 0 55.5 15.5t55.5 43.5l10 228 q-66 -16 -107.5 -37t-65 -44.5t-33 -48t-9.5 -48.5z" />
<glyph unicode="&#xab;" horiz-adv-x="917" d="M25 442v27l448 338l6 -4l-225 -350l225 -347l-6 -6zM426 442v27l461 360l6 -6l-240 -370l238 -367l-6 -6z" />
<glyph unicode="&#xad;" horiz-adv-x="573" d="M37 438l6 82h494l-7 -82h-493z" />
<glyph unicode="&#xae;" horiz-adv-x="1441" d="M51 641q0 139 52.5 261t143.5 213t213 144.5t261 53.5t261 -53.5t213 -144.5t143.5 -213t52.5 -261t-52.5 -261t-143.5 -213t-213 -143.5t-261 -52.5t-261 52.5t-213 143.5t-143.5 213t-52.5 261zM72 641q0 -135 51 -253t139 -207t206 -140t253 -51t253 51t206 140 t139 207t51 253t-51 254t-139 208t-206 140t-253 51t-253 -51t-206 -140t-139 -208t-51 -254zM324 256l4 12l53 4q27 4 43 10.5t16 10.5v698q0 6 -12 9.5t-59 7.5l-39 4l-4 12h352q350 0 350 -199q0 -66 -52 -119t-138 -73l153 -240q23 -37 40.5 -59.5t35.5 -34.5 t37.5 -18.5t46.5 -10.5l14 -2l4 -12h-282l-10 23l-205 358l-36 9t-38 13v-370q0 -8 70 -17l45 -4l4 -12h-393zM598 676q49 -17 96 -21q78 0 123 47.5t45 133.5q0 88 -57 132t-156 40l-51 -2v-330z" />
<glyph unicode="&#xaf;" horiz-adv-x="755" d="M106 1067l27 88h516l-26 -88h-517z" />
<glyph unicode="&#xb0;" horiz-adv-x="581" d="M37 1051q0 53 17.5 100t50 83t79.5 57.5t107 21.5q59 0 106 -21.5t80 -57.5t50.5 -83t17.5 -100q0 -51 -17.5 -98.5t-50.5 -83t-80 -56t-106 -20.5q-57 0 -104.5 20.5t-81 56t-51 82.5t-17.5 99zM61 1051q0 -100 62 -169t168 -69t169.5 68.5t63.5 169.5q0 49 -16 93 t-47 76.5t-74 52t-96 19.5t-95 -19.5t-72 -52t-46.5 -76.5t-16.5 -93z" />
<glyph unicode="&#xb1;" horiz-adv-x="710" d="M74 973h561l-6 -12l-56 -3q-49 -4 -73.5 -8t-24.5 -22v-887q0 -12 22.5 -17.5t86.5 -9.5l47 -2l6 -12h-561l6 12l55 2q49 2 74 7.5t25 23.5v887q0 12 -23 17t-86 9l-47 3z" />
<glyph unicode="&#xb4;" horiz-adv-x="819" d="M293 1004l209 382h237l-436 -382h-10z" />
<glyph unicode="&#xb6;" horiz-adv-x="884" d="M51 887q0 188 133 290.5t428 102.5h170v-1346h-20v574q-29 -4 -83 -6t-97 -2q-117 0 -214.5 24.5t-168 73.5t-109.5 122t-39 167z" />
<glyph unicode="&#xb7;" horiz-adv-x="442" d="M80 479q0 53 40 93t99 40q57 0 97 -41t40 -92q0 -57 -40 -98t-97 -41q-59 0 -99 41t-40 98z" />
<glyph unicode="&#xb8;" horiz-adv-x="794" d="M182 -258l230 248h20l-115 -127q68 14 128.5 8t105.5 -27.5t71.5 -57.5t26.5 -79q0 -70 -43 -115t-109.5 -74.5t-145.5 -45t-152 -27.5l-4 10q150 29 231.5 69t81.5 118q0 31 -14.5 52t-39 34.5t-56 19.5t-64.5 6q-84 0 -152 -24v12z" />
<glyph unicode="&#xba;" horiz-adv-x="829" d="M23 928q0 78 29.5 145.5t81.5 117.5t125 79.5t159 29.5q88 0 158.5 -28.5t121 -78.5t78 -115.5t27.5 -139.5q0 -78 -29 -145.5t-80 -118.5t-123.5 -80t-160.5 -29t-159 29t-122 78t-78.5 115.5t-27.5 140.5zM238 938q0 -129 19 -205t56 -112q23 -23 47.5 -31t49.5 -8 q43 0 75.5 27.5t54 75.5t33 110.5t11.5 132.5q0 129 -19.5 204.5t-52.5 110.5q-23 25 -47.5 33t-48.5 8q-47 0 -81 -27.5t-55.5 -75.5t-31.5 -110.5t-10 -132.5z" />
<glyph unicode="&#xbb;" horiz-adv-x="915" d="M27 86l237 367l-237 370l6 6l461 -360v-27l-461 -362zM440 106l224 347l-222 348l2 6l449 -338v-27l-449 -342z" />
<glyph unicode="&#xbf;" horiz-adv-x="657" d="M63 414q0 53 8.5 89t27 63.5t49 48t75.5 38.5q102 39 148.5 62.5t46.5 64.5t-22.5 69t-65.5 62l12 9q33 -25 65.5 -58t58.5 -66.5t42 -67.5t16 -60q0 -80 -63.5 -119t-167.5 -76q-115 -39 -158 -67.5t-43 -67.5q0 -63 75 -113.5t232 -50.5q53 0 95.5 7t72.5 18 q20 -18 33.5 -47t17.5 -66q4 -49 -30.5 -81t-118.5 -32q-96 0 -172 39t-128 101.5t-79 141.5t-27 159zM207 1171q0 53 39 94.5t98 41.5q57 0 97 -40t40 -96q0 -53 -40 -93t-97 -40q-59 0 -98 40t-39 93z" />
<glyph unicode="&#xc0;" d="M-20 0l6 12l34 4q49 6 81 19.5t60.5 54.5t60.5 120t81 216l229 643l-22 66q68 20 106.5 65t67.5 115h37l352 -1034q29 -82 51.5 -133.5t44 -80t47 -39t58.5 -12.5l57 -4l4 -12h-641l6 12l56 4q78 4 87 46t-24 141l-114 348h-336l-74 -207q-37 -106 -55.5 -167.5 t-11 -94.5t44 -45t110.5 -21l41 -4l6 -12h-450zM289 1728h237l209 -382h-10zM377 571h321l-153 467h-2z" />
<glyph unicode="&#xc1;" d="M-20 0l6 12l34 4q49 6 81 19.5t60.5 54.5t60.5 120t81 216l229 643l-22 66q68 20 106.5 65t67.5 115h37l352 -1034q29 -82 51.5 -133.5t44 -80t47 -39t58.5 -12.5l57 -4l4 -12h-641l6 12l56 4q78 4 87 46t-24 141l-114 348h-336l-74 -207q-37 -106 -55.5 -167.5 t-11 -94.5t44 -45t110.5 -21l41 -4l6 -12h-450zM377 571h321l-153 467h-2zM563 1346l209 382h237l-436 -382h-10z" />
<glyph unicode="&#xc2;" d="M-20 0l6 12l34 4q49 6 81 19.5t60.5 54.5t60.5 120t81 216l229 643l-22 66q68 20 106.5 65t67.5 115h37l352 -1034q29 -82 51.5 -133.5t44 -80t47 -39t58.5 -12.5l57 -4l4 -12h-641l6 12l56 4q78 4 87 46t-24 141l-114 348h-336l-74 -207q-37 -106 -55.5 -167.5 t-11 -94.5t44 -45t110.5 -21l41 -4l6 -12h-450zM377 571h321l-153 467h-2zM381 1325l297 403h8l297 -403h-12l-287 197h-4l-287 -197h-12z" />
<glyph unicode="&#xc3;" d="M-20 0l6 12l34 4q49 6 81 19.5t60.5 54.5t60.5 120t81 216l229 643l-22 66q68 20 106.5 65t67.5 115h37l352 -1034q29 -82 51.5 -133.5t44 -80t47 -39t58.5 -12.5l57 -4l4 -12h-641l6 12l56 4q78 4 87 46t-24 141l-114 348h-336l-74 -207q-37 -106 -55.5 -167.5 t-11 -94.5t44 -45t110.5 -21l41 -4l6 -12h-450zM350 1378q6 72 16 120t28.5 78t47.5 42t70 12q47 0 100 -19.5t105.5 -44t98.5 -44t79 -19.5q16 0 31.5 2t27.5 13.5t20.5 33t12.5 60.5h10q-6 -70 -16.5 -118t-29 -78t-47 -43t-69.5 -13q-47 0 -100 20.5t-105.5 44t-98.5 44 t-81 20.5q-14 0 -29.5 -2t-26.5 -12.5t-19.5 -33t-12.5 -63.5h-12zM377 571h321l-153 467h-2z" />
<glyph unicode="&#xc4;" d="M-20 0l6 12l34 4q49 6 81 19.5t60.5 54.5t60.5 120t81 216l229 643l-22 66q68 20 106.5 65t67.5 115h37l352 -1034q29 -82 51.5 -133.5t44 -80t47 -39t58.5 -12.5l57 -4l4 -12h-641l6 12l56 4q78 4 87 46t-24 141l-114 348h-336l-74 -207q-37 -106 -55.5 -167.5 t-11 -94.5t44 -45t110.5 -21l41 -4l6 -12h-450zM352 1495q0 20 8 43t23.5 41t38 29.5t53.5 11.5t54.5 -11.5t38.5 -29.5t22.5 -40.5t7.5 -43.5q0 -41 -31 -81t-92 -40q-59 0 -91 40t-32 81zM377 571h321l-153 467h-2zM751 1495q0 20 7.5 43t22.5 41t37.5 29.5t53.5 11.5 t54.5 -11.5t39 -29.5t22.5 -40.5t7 -43.5q0 -41 -31 -81t-92 -40q-59 0 -90 40t-31 81z" />
<glyph unicode="&#xc5;" d="M-20 0l6 12l34 4q49 6 82 19.5t60.5 54.5t59.5 120t81 216l301 844q-57 18 -88 65t-31 105q0 74 48.5 129t134.5 55t134 -55.5t48 -128.5q0 -57 -29.5 -103.5t-83.5 -66.5l15 -42q14 -42 37.5 -111.5t54 -159t61.5 -181.5l168 -495q29 -82 51.5 -133.5t44 -80t47 -39 t58.5 -12.5l57 -4l4 -12h-641l6 12l56 4q78 4 87 46t-24 141l-112 344h-338l-74 -203q-37 -106 -55.5 -167.5t-11 -94.5t44 -45t110.5 -21l41 -4l6 -12h-450zM377 571h321l-153 467h-2zM506 1440q0 -68 43 -117t119 -49t118.5 49t42.5 117q0 66 -43 116t-118 50 q-76 0 -119 -50.5t-43 -115.5z" />
<glyph unicode="&#xc6;" horiz-adv-x="1773" d="M-113 0l7 12l75 8q27 4 56.5 19.5t64.5 52.5t78 102.5t96 165.5l438 805q12 23 16.5 40.5t-7 28.5t-40 18.5t-83.5 9.5l-80 4l-6 14h1104l20 -418h-12l-8 23q-29 102 -65 173.5t-85 116t-116.5 65t-159.5 17.5l-148 -2v-587h68q68 4 116 15t81.5 33.5t56 57.5t39.5 84 l12 37l14 -2l-53 -490l-14 3l-2 36q-4 55 -17.5 92t-43 59.5t-80 34t-128.5 15.5l-49 4v-618l170 -9q98 2 174 31t134.5 79t100.5 121t72 155l11 22h12l-57 -428h-1088l6 12l103 8q53 4 75.5 14.5t22.5 20.5v488h-377l-112 -209q-45 -84 -64.5 -141.5t-14.5 -94.5t33.5 -55 t79.5 -25l52 -6l6 -12h-484zM406 569h362v662h-4z" />
<glyph unicode="&#xc7;" horiz-adv-x="1402" d="M55 631q0 141 51.5 265t149.5 215t239.5 144.5t321.5 53.5q96 0 187.5 -24.5t142.5 -53.5l131 43l12 -412h-12l-207 363q-33 23 -102.5 41t-155.5 18q-113 0 -201 -49t-148.5 -136t-91 -204t-30.5 -252q0 -147 36 -267t99.5 -204t147.5 -129t180 -45q170 0 274.5 81 t180.5 226l63 121h12l-69 -363l-68 -10q-27 -12 -70 -24.5t-95 -23.5t-108.5 -19.5t-107.5 -10.5l-102 -112q68 14 128 8t105 -27.5t72 -57.5t27 -79q0 -70 -43 -115t-110 -74.5t-145.5 -45t-152.5 -27.5l-4 10q150 29 231.5 69t81.5 118q0 31 -14 52t-39 34.5t-56.5 19.5 t-64.5 6q-84 0 -151 -24v12l217 233h-2q-168 0 -304.5 50.5t-232.5 137.5t-149.5 206.5t-53.5 261.5z" />
<glyph unicode="&#xc8;" horiz-adv-x="1247" d="M35 0l6 12l72 8q53 6 76.5 15.5t23.5 19.5v1176q0 10 -19.5 16t-97.5 15l-53 6l-6 12h1044l21 -418h-12l-9 23q-29 102 -67.5 173.5t-92 117t-124 65t-162.5 16.5l-158 -2v-587h88q68 4 118 15t86 33.5t59.5 57.5t39.5 84l13 37l14 -2l-53 -490l-15 3l-2 36q-4 55 -19 92 t-46 59.5t-83 34t-130 15.5l-70 4v-618l201 -9q98 2 174 31t134 79t100 121t73 155l10 22h13l-58 -428h-1089zM287 1728h237l209 -382h-10z" />
<glyph unicode="&#xc9;" horiz-adv-x="1247" d="M35 0l6 12l72 8q53 6 76.5 15.5t23.5 19.5v1176q0 10 -19.5 16t-97.5 15l-53 6l-6 12h1044l21 -418h-12l-9 23q-29 102 -67.5 173.5t-92 117t-124 65t-162.5 16.5l-158 -2v-587h88q68 4 118 15t86 33.5t59.5 57.5t39.5 84l13 37l14 -2l-53 -490l-15 3l-2 36q-4 55 -19 92 t-46 59.5t-83 34t-130 15.5l-70 4v-618l201 -9q98 2 174 31t134 79t100 121t73 155l10 22h13l-58 -428h-1089zM520 1346l209 382h237l-436 -382h-10z" />
<glyph unicode="&#xca;" horiz-adv-x="1247" d="M35 0l6 12l72 8q53 6 76.5 15.5t23.5 19.5v1176q0 10 -19.5 16t-97.5 15l-53 6l-6 12h1044l21 -418h-12l-9 23q-29 102 -67.5 173.5t-92 117t-124 65t-162.5 16.5l-158 -2v-587h88q68 4 118 15t86 33.5t59.5 57.5t39.5 84l13 37l14 -2l-53 -490l-15 3l-2 36q-4 55 -19 92 t-46 59.5t-83 34t-130 15.5l-70 4v-618l201 -9q98 2 174 31t134 79t100 121t73 155l10 22h13l-58 -428h-1089zM336 1325l297 403h8l297 -403h-12l-287 197h-4l-287 -197h-12z" />
<glyph unicode="&#xcb;" horiz-adv-x="1247" d="M35 0l6 12l72 8q53 6 76.5 15.5t23.5 19.5v1176q0 10 -19.5 16t-97.5 15l-53 6l-6 12h1044l21 -418h-12l-9 23q-29 102 -67.5 173.5t-92 117t-124 65t-162.5 16.5l-158 -2v-587h88q68 4 118 15t86 33.5t59.5 57.5t39.5 84l13 37l14 -2l-53 -490l-15 3l-2 36q-4 55 -19 92 t-46 59.5t-83 34t-130 15.5l-70 4v-618l201 -9q98 2 174 31t134 79t100 121t73 155l10 22h13l-58 -428h-1089zM309 1495q0 20 8 43t23.5 41t38 29.5t53.5 11.5t54.5 -11.5t38.5 -29.5t22.5 -40.5t7.5 -43.5q0 -41 -31 -81t-92 -40q-59 0 -91 40t-32 81zM708 1495 q0 20 7.5 43t22.5 41t37.5 29.5t53.5 11.5t54.5 -11.5t39 -29.5t22.5 -40.5t7 -43.5q0 -41 -31 -81t-92 -40q-59 0 -90 40t-31 81z" />
<glyph unicode="&#xcc;" horiz-adv-x="739" d="M29 1728h237l209 -382h-10zM55 0l6 12l80 8q53 4 75 14.5t22 20.5v1176q0 10 -19.5 16t-97.5 15l-60 6l-6 12h629l-6 -12l-80 -8q-53 -4 -74.5 -14.5t-21.5 -20.5v-1176q0 -10 19.5 -16t96.5 -15l58 -6l6 -12h-627z" />
<glyph unicode="&#xcd;" horiz-adv-x="739" d="M55 0l6 12l80 8q53 4 75 14.5t22 20.5v1176q0 10 -19.5 16t-97.5 15l-60 6l-6 12h629l-6 -12l-80 -8q-53 -4 -74.5 -14.5t-21.5 -20.5v-1176q0 -10 19.5 -16t96.5 -15l58 -6l6 -12h-627zM273 1346l209 382h237l-436 -382h-10z" />
<glyph unicode="&#xce;" horiz-adv-x="739" d="M55 0l6 12l80 8q53 4 75 14.5t22 20.5v1176q0 10 -19.5 16t-97.5 15l-60 6l-6 12h629l-6 -12l-80 -8q-53 -4 -74.5 -14.5t-21.5 -20.5v-1176q0 -10 19.5 -16t96.5 -15l58 -6l6 -12h-627zM72 1325l297 403h8l297 -403h-12l-287 197h-4l-287 -197h-12z" />
<glyph unicode="&#xcf;" horiz-adv-x="739" d="M51 1495q0 20 8 43t23.5 41t38 29.5t53.5 11.5t54.5 -11.5t38.5 -29.5t22.5 -40.5t7.5 -43.5q0 -41 -31 -81t-92 -40q-59 0 -91 40t-32 81zM55 0l6 12l80 8q53 4 75 14.5t22 20.5v1176q0 10 -19.5 16t-97.5 15l-60 6l-6 12h629l-6 -12l-80 -8q-53 -4 -74.5 -14.5 t-21.5 -20.5v-1176q0 -10 19.5 -16t96.5 -15l58 -6l6 -12h-627zM450 1495q0 20 7.5 43t22.5 41t37.5 29.5t53.5 11.5t54.5 -11.5t39 -29.5t22.5 -40.5t7 -43.5q0 -41 -31 -81t-92 -40q-59 0 -90 40t-31 81z" />
<glyph unicode="&#xd0;" horiz-adv-x="1409" d="M20 0l7 12l90 8q53 6 74.5 15.5t21.5 19.5v574h-182l6 28h176v574q0 10 -30.5 17t-86.5 14l-67 6l-6 12q176 2 313 2h301q180 2 315 -42t225.5 -126t135.5 -198.5t45 -262.5q0 -135 -53.5 -253.5t-152.5 -208t-239.5 -140.5t-312.5 -51h-580zM477 59l137 -36 q115 0 200 48t143.5 130t87 188.5t28.5 222.5q0 145 -28.5 264t-88 203t-151.5 131t-219 47h-109v-600h260l6 -28h-266v-570z" />
<glyph unicode="&#xd1;" horiz-adv-x="1431" d="M-8 1280h471l729 -874h2l-2 782q0 27 -38 48t-146 30l-37 2l-6 12h450l-6 -12l-41 -2q-86 -6 -117.5 -35t-31.5 -60l-9 -1183h-20l-930 1108h-2l2 -1006q0 -27 38 -47t146 -29l39 -2l6 -12h-452l6 12l41 2q86 6 117.5 34t31.5 58l7 1012q-41 55 -95.5 96t-126.5 52l-22 2 zM436 1378q6 72 16 120t28.5 78t47.5 42t70 12q47 0 100 -19.5t105.5 -44t98.5 -44t79 -19.5q16 0 31.5 2t27.5 13.5t20.5 33t12.5 60.5h10q-6 -70 -16.5 -118t-29 -78t-47 -43t-69.5 -13q-47 0 -100 20.5t-105.5 44t-98.5 44t-81 20.5q-14 0 -29.5 -2t-26.5 -12.5 t-19.5 -33t-12.5 -63.5h-12z" />
<glyph unicode="&#xd2;" horiz-adv-x="1513" d="M55 639q0 133 56.5 254t153.5 213t227.5 146.5t275.5 54.5q150 0 276.5 -49.5t219 -137.5t143.5 -211t51 -272q0 -131 -56 -252t-153.5 -211t-227 -144.5t-276.5 -54.5q-150 0 -276.5 48.5t-218.5 135.5t-143.5 208.5t-51.5 271.5zM342 639q0 -309 111.5 -475t310.5 -166 q201 0 303 158.5t102 484.5q0 305 -111.5 473t-305.5 168q-203 0 -306.5 -159.5t-103.5 -483.5zM391 1728h237l209 -382h-10z" />
<glyph unicode="&#xd3;" horiz-adv-x="1513" d="M55 639q0 133 56.5 254t153.5 213t227.5 146.5t275.5 54.5q150 0 276.5 -49.5t219 -137.5t143.5 -211t51 -272q0 -131 -56 -252t-153.5 -211t-227 -144.5t-276.5 -54.5q-150 0 -276.5 48.5t-218.5 135.5t-143.5 208.5t-51.5 271.5zM342 639q0 -309 111.5 -475t310.5 -166 q201 0 303 158.5t102 484.5q0 305 -111.5 473t-305.5 168q-203 0 -306.5 -159.5t-103.5 -483.5zM676 1346l209 382h237l-436 -382h-10z" />
<glyph unicode="&#xd4;" horiz-adv-x="1513" d="M55 639q0 133 56.5 254t153.5 213t227.5 146.5t275.5 54.5q150 0 276.5 -49.5t219 -137.5t143.5 -211t51 -272q0 -131 -56 -252t-153.5 -211t-227 -144.5t-276.5 -54.5q-150 0 -276.5 48.5t-218.5 135.5t-143.5 208.5t-51.5 271.5zM342 639q0 -309 111.5 -475t310.5 -166 q201 0 303 158.5t102 484.5q0 305 -111.5 473t-305.5 168q-203 0 -306.5 -159.5t-103.5 -483.5zM459 1325l297 403h8l297 -403h-12l-287 197h-4l-287 -197h-12z" />
<glyph unicode="&#xd5;" horiz-adv-x="1513" d="M55 639q0 133 56.5 254t153.5 213t227.5 146.5t275.5 54.5q150 0 276.5 -49.5t219 -137.5t143.5 -211t51 -272q0 -131 -56 -252t-153.5 -211t-227 -144.5t-276.5 -54.5q-150 0 -276.5 48.5t-218.5 135.5t-143.5 208.5t-51.5 271.5zM342 639q0 -309 111.5 -475t310.5 -166 q201 0 303 158.5t102 484.5q0 305 -111.5 473t-305.5 168q-203 0 -306.5 -159.5t-103.5 -483.5zM451 1378q6 72 16 120t28.5 78t47.5 42t70 12q47 0 100 -19.5t105.5 -44t98.5 -44t79 -19.5q16 0 31.5 2t27.5 13.5t20.5 33t12.5 60.5h10q-6 -70 -16.5 -118t-29 -78t-47 -43 t-69.5 -13q-47 0 -100 20.5t-105.5 44t-98.5 44t-81 20.5q-14 0 -29.5 -2t-26.5 -12.5t-19.5 -33t-12.5 -63.5h-12z" />
<glyph unicode="&#xd6;" horiz-adv-x="1513" d="M55 639q0 133 56.5 254t153.5 213t227.5 146.5t275.5 54.5q150 0 276.5 -49.5t219 -137.5t143.5 -211t51 -272q0 -131 -56 -252t-153.5 -211t-227 -144.5t-276.5 -54.5q-150 0 -276.5 48.5t-218.5 135.5t-143.5 208.5t-51.5 271.5zM342 639q0 -309 111.5 -475t310.5 -166 q201 0 303 158.5t102 484.5q0 305 -111.5 473t-305.5 168q-203 0 -306.5 -159.5t-103.5 -483.5zM434 1495q0 20 8 43t23.5 41t38 29.5t53.5 11.5t54.5 -11.5t38.5 -29.5t22.5 -40.5t7.5 -43.5q0 -41 -31 -81t-92 -40q-59 0 -91 40t-32 81zM833 1495q0 20 7.5 43t22.5 41 t37.5 29.5t53.5 11.5t54.5 -11.5t39 -29.5t22.5 -40.5t7 -43.5q0 -41 -31 -81t-92 -40q-59 0 -90 40t-31 81z" />
<glyph unicode="&#xd8;" horiz-adv-x="1513" d="M55 639q0 133 56.5 254t153.5 213t227.5 146.5t275.5 54.5q182 0 330 -72l100 174h23l-107 -182q160 -84 252 -235.5t92 -354.5q0 -131 -56 -252t-153.5 -211t-226.5 -144.5t-277 -54.5q-172 0 -315 64l-111 -191h-22l115 199q-166 80 -261.5 232.5t-95.5 359.5zM342 639 q0 -164 33 -288t92 -206l573 992q-111 145 -288 145q-203 0 -306.5 -159.5t-103.5 -483.5zM481 129q109 -131 283 -131q201 0 303 158.5t102 484.5q0 154 -29.5 274.5t-86.5 202.5z" />
<glyph unicode="&#xd9;" horiz-adv-x="1427" d="M16 1280h648l-7 -12l-90 -8q-53 -4 -74.5 -12.5t-21.5 -18.5v-754q0 -211 91 -310t274 -99q182 0 278 107.5t96 334.5l-2 680q0 27 -37.5 49.5t-146.5 30.5h-39l-6 12h451l-7 -12h-39q-86 -6 -117.5 -36t-31.5 -61l-4 -667q-2 -129 -29.5 -228.5t-86 -168t-151 -104.5 t-225.5 -36q-281 0 -406.5 106.5t-125.5 342.5v819q0 10 -18.5 15t-96.5 12l-69 6zM397 1728h237l209 -382h-10z" />
<glyph unicode="&#xda;" horiz-adv-x="1427" d="M16 1280h648l-7 -12l-90 -8q-53 -4 -74.5 -12.5t-21.5 -18.5v-754q0 -211 91 -310t274 -99q182 0 278 107.5t96 334.5l-2 680q0 27 -37.5 49.5t-146.5 30.5h-39l-6 12h451l-7 -12h-39q-86 -6 -117.5 -36t-31.5 -61l-4 -667q-2 -129 -29.5 -228.5t-86 -168t-151 -104.5 t-225.5 -36q-281 0 -406.5 106.5t-125.5 342.5v819q0 10 -18.5 15t-96.5 12l-69 6zM692 1346l209 382h237l-436 -382h-10z" />
<glyph unicode="&#xdb;" horiz-adv-x="1427" d="M16 1280h648l-7 -12l-90 -8q-53 -4 -74.5 -12.5t-21.5 -18.5v-754q0 -211 91 -310t274 -99q182 0 278 107.5t96 334.5l-2 680q0 27 -37.5 49.5t-146.5 30.5h-39l-6 12h451l-7 -12h-39q-86 -6 -117.5 -36t-31.5 -61l-4 -667q-2 -129 -29.5 -228.5t-86 -168t-151 -104.5 t-225.5 -36q-281 0 -406.5 106.5t-125.5 342.5v819q0 10 -18.5 15t-96.5 12l-69 6zM477 1325l297 403h8l297 -403h-12l-287 197h-4l-287 -197h-12z" />
<glyph unicode="&#xdc;" horiz-adv-x="1427" d="M16 1280h648l-7 -12l-90 -8q-53 -4 -74.5 -12.5t-21.5 -18.5v-754q0 -211 91 -310t274 -99q182 0 278 107.5t96 334.5l-2 680q0 27 -37.5 49.5t-146.5 30.5h-39l-6 12h451l-7 -12h-39q-86 -6 -117.5 -36t-31.5 -61l-4 -667q-2 -129 -29.5 -228.5t-86 -168t-151 -104.5 t-225.5 -36q-281 0 -406.5 106.5t-125.5 342.5v819q0 10 -18.5 15t-96.5 12l-69 6zM477 1495q0 20 8 43t23.5 41t38 29.5t53.5 11.5t54.5 -11.5t38.5 -29.5t22.5 -40.5t7.5 -43.5q0 -41 -31 -81t-92 -40q-59 0 -91 40t-32 81zM876 1495q0 20 7.5 43t22.5 41t37.5 29.5 t53.5 11.5t54.5 -11.5t39 -29.5t22.5 -40.5t7 -43.5q0 -41 -31 -81t-92 -40q-59 0 -90 40t-31 81z" />
<glyph unicode="&#xdd;" horiz-adv-x="1325" d="M4 1280h635l-6 -12l-35 -2q-49 -4 -76.5 -13.5t-36 -25t-2.5 -39t25 -53.5l270 -484h4l154 287q53 100 79.5 160.5t23.5 94.5t-37.5 48t-102.5 21l-45 6l-6 12h467l-6 -12l-58 -6q-39 -4 -68.5 -17.5t-61 -47.5t-70.5 -97.5t-95 -169.5l-161 -299v-582q0 -10 19.5 -16 t96.5 -15l68 -6l6 -12h-647l6 12l90 8q53 4 74.5 14.5t21.5 20.5v531l-274 485q-31 53 -53.5 89t-44 57.5t-46 32t-59.5 14.5l-43 4zM631 1346l209 382h237l-436 -382h-10z" />
<glyph unicode="&#xde;" horiz-adv-x="1214" d="M31 0l6 16l90 9q53 4 74.5 13t21.5 19v1172q0 10 -19.5 15t-97.5 13l-67 7l-6 16h645l-6 -16l-88 -9q-53 -4 -75 -13t-22 -19v-217h127q274 0 407.5 -83t133.5 -239q0 -80 -39 -146.5t-111.5 -113.5t-174 -73.5t-228.5 -26.5q-80 0 -115 10v-283q0 -10 19.5 -17t97.5 -11 l88 -7l6 -16h-667zM487 362q16 -4 39 -8t70 -4q123 0 200.5 85t77.5 227q0 154 -70.5 237.5t-225.5 85.5l-91 -4v-619z" />
<glyph unicode="&#xdf;" horiz-adv-x="1136" d="M10 772l47 102l115 -2l6 115q6 86 42 155.5t93.5 117t130 73t150.5 25.5q184 0 283.5 -72t99.5 -192q0 -100 -70 -157t-176 -77q72 -35 137.5 -88t114.5 -117.5t79 -138.5t30 -151q0 -76 -30 -145.5t-79 -123t-114.5 -86.5t-137.5 -33q-106 0 -167.5 45.5t-61.5 114.5 q0 53 34.5 89t86.5 36q55 0 81.5 -29.5t28.5 -66.5t-17.5 -71t-58.5 -44q4 -16 27 -34.5t66 -18.5q66 0 106.5 50t40.5 155q0 80 -24.5 163t-73.5 161.5t-124 151.5t-175 130v12q63 16 111 38t80 54.5t47.5 78.5t15.5 114q0 98 -48.5 163.5t-123.5 65.5q-49 0 -83 -14 t-55.5 -49t-31 -92.5t-9.5 -143.5v-1036h-360l6 18l37 2q47 4 66.5 7.5t19.5 21.5v721z" />
<glyph unicode="&#xe0;" horiz-adv-x="919" d="M47 174q0 53 23.5 99t81 88t154.5 79t243 74l2 70q4 129 -51.5 198.5t-153.5 69.5q-57 0 -92 -18.5t-35 -34.5q0 -6 9.5 -18.5t21.5 -29t21.5 -35t9.5 -38.5q0 -45 -33 -76t-86 -31q-47 0 -81 26t-34 73q0 49 45 92t112.5 74.5t145.5 50t142 18.5q168 0 234.5 -71.5 t57.5 -245.5l-18 -383q-4 -57 18.5 -85t57.5 -28q25 0 46 18.5t40 41.5l12 -7q-16 -20 -41 -49.5t-54.5 -55.5t-64 -44.5t-73.5 -18.5q-72 0 -114 46.5t-52 130.5l-2 2q-66 -72 -133.5 -124t-147.5 -52q-45 0 -83 16t-66.5 43t-45 62.5t-16.5 72.5zM127 1386h237l209 -382 h-10zM274 258q0 -66 36 -106.5t89 -40.5q72 0 138 67l14 314q-82 -18 -135.5 -43t-85 -53.5t-44 -63.5t-12.5 -74z" />
<glyph unicode="&#xe1;" horiz-adv-x="919" d="M47 174q0 53 23.5 99t81 88t154.5 79t243 74l2 70q4 129 -51.5 198.5t-153.5 69.5q-57 0 -92 -18.5t-35 -34.5q0 -6 9.5 -18.5t21.5 -29t21.5 -35t9.5 -38.5q0 -45 -33 -76t-86 -31q-47 0 -81 26t-34 73q0 49 45 92t112.5 74.5t145.5 50t142 18.5q168 0 234.5 -71.5 t57.5 -245.5l-18 -383q-4 -57 18.5 -85t57.5 -28q25 0 46 18.5t40 41.5l12 -7q-16 -20 -41 -49.5t-54.5 -55.5t-64 -44.5t-73.5 -18.5q-72 0 -114 46.5t-52 130.5l-2 2q-66 -72 -133.5 -124t-147.5 -52q-45 0 -83 16t-66.5 43t-45 62.5t-16.5 72.5zM274 258q0 -66 36 -106.5 t89 -40.5q72 0 138 67l14 314q-82 -18 -135.5 -43t-85 -53.5t-44 -63.5t-12.5 -74zM361 1004l209 382h237l-436 -382h-10z" />
<glyph unicode="&#xe2;" horiz-adv-x="919" d="M47 174q0 53 23.5 99t81 88t154.5 79t243 74l2 70q4 129 -51.5 198.5t-153.5 69.5q-57 0 -92 -18.5t-35 -34.5q0 -6 9.5 -18.5t21.5 -29t21.5 -35t9.5 -38.5q0 -45 -33 -76t-86 -31q-47 0 -81 26t-34 73q0 49 45 92t112.5 74.5t145.5 50t142 18.5q168 0 234.5 -71.5 t57.5 -245.5l-18 -383q-4 -57 18.5 -85t57.5 -28q25 0 46 18.5t40 41.5l12 -7q-16 -20 -41 -49.5t-54.5 -55.5t-64 -44.5t-73.5 -18.5q-72 0 -114 46.5t-52 130.5l-2 2q-66 -72 -133.5 -124t-147.5 -52q-45 0 -83 16t-66.5 43t-45 62.5t-16.5 72.5zM146 983l297 403h8 l297 -403h-12l-287 197h-4l-287 -197h-12zM274 258q0 -66 36 -106.5t89 -40.5q72 0 138 67l14 314q-82 -18 -135.5 -43t-85 -53.5t-44 -63.5t-12.5 -74z" />
<glyph unicode="&#xe3;" horiz-adv-x="919" d="M47 174q0 53 23.5 99t81 88t154.5 79t243 74l2 70q4 129 -51.5 198.5t-153.5 69.5q-57 0 -92 -18.5t-35 -34.5q0 -6 9.5 -18.5t21.5 -29t21.5 -35t9.5 -38.5q0 -45 -33 -76t-86 -31q-47 0 -81 26t-34 73q0 49 45 92t112.5 74.5t145.5 50t142 18.5q168 0 234.5 -71.5 t57.5 -245.5l-18 -383q-4 -57 18.5 -85t57.5 -28q25 0 46 18.5t40 41.5l12 -7q-16 -20 -41 -49.5t-54.5 -55.5t-64 -44.5t-73.5 -18.5q-72 0 -114 46.5t-52 130.5l-2 2q-66 -72 -133.5 -124t-147.5 -52q-45 0 -83 16t-66.5 43t-45 62.5t-16.5 72.5zM123 1036q6 72 16 120 t28.5 78t47.5 42t70 12q47 0 100 -19.5t105.5 -44t98.5 -44t79 -19.5q16 0 31.5 2t27.5 13.5t20.5 33t12.5 60.5h10q-6 -70 -16.5 -118t-29 -78t-47 -43t-69.5 -13q-47 0 -100 20.5t-105.5 44t-98.5 44t-81 20.5q-14 0 -29.5 -2t-26.5 -12.5t-19.5 -33t-12.5 -63.5h-12z M274 258q0 -66 36 -106.5t89 -40.5q72 0 138 67l14 314q-82 -18 -135.5 -43t-85 -53.5t-44 -63.5t-12.5 -74z" />
<glyph unicode="&#xe4;" horiz-adv-x="919" d="M47 174q0 53 23.5 99t81 88t154.5 79t243 74l2 70q4 129 -51.5 198.5t-153.5 69.5q-57 0 -92 -18.5t-35 -34.5q0 -6 9.5 -18.5t21.5 -29t21.5 -35t9.5 -38.5q0 -45 -33 -76t-86 -31q-47 0 -81 26t-34 73q0 49 45 92t112.5 74.5t145.5 50t142 18.5q168 0 234.5 -71.5 t57.5 -245.5l-18 -383q-4 -57 18.5 -85t57.5 -28q25 0 46 18.5t40 41.5l12 -7q-16 -20 -41 -49.5t-54.5 -55.5t-64 -44.5t-73.5 -18.5q-72 0 -114 46.5t-52 130.5l-2 2q-66 -72 -133.5 -124t-147.5 -52q-45 0 -83 16t-66.5 43t-45 62.5t-16.5 72.5zM115 1153q0 20 8 43 t23.5 41t38 29.5t53.5 11.5t54.5 -11.5t38.5 -29.5t22.5 -40.5t7.5 -43.5q0 -41 -31 -81t-92 -40q-59 0 -91 40t-32 81zM274 258q0 -66 36 -106.5t89 -40.5q72 0 138 67l14 314q-82 -18 -135.5 -43t-85 -53.5t-44 -63.5t-12.5 -74zM514 1153q0 20 7.5 43t22.5 41t37.5 29.5 t53.5 11.5t54.5 -11.5t39 -29.5t22.5 -40.5t7 -43.5q0 -41 -31 -81t-92 -40q-59 0 -90 40t-31 81z" />
<glyph unicode="&#xe5;" horiz-adv-x="919" d="M47 174q0 53 23.5 99t81 88t154.5 79t243 74l2 70q4 129 -51.5 198.5t-153.5 69.5q-57 0 -92 -18.5t-35 -34.5q0 -6 9.5 -18.5t21.5 -29t21.5 -35t9.5 -38.5q0 -45 -33 -76t-86 -31q-47 0 -81 26t-34 73q0 49 45 92t112.5 74.5t145.5 50t142 18.5q168 0 234.5 -71.5 t57.5 -245.5l-18 -383q-4 -57 18.5 -85t57.5 -28q25 0 46 18.5t40 41.5l12 -7q-16 -20 -41 -49.5t-54.5 -55.5t-64 -44.5t-73.5 -18.5q-72 0 -114 46.5t-52 130.5l-2 2q-66 -72 -133.5 -124t-147.5 -52q-45 0 -83 16t-66.5 43t-45 62.5t-16.5 72.5zM246 1204q0 74 48 129.5 t134 55.5t134 -55.5t48 -129.5q0 -76 -48 -130t-134 -54t-134 54t-48 130zM266 1204q0 -68 43 -117t119 -49t119 49.5t43 116.5q0 66 -43 116t-119 50t-119 -50t-43 -116zM274 258q0 -66 36 -106.5t89 -40.5q72 0 138 67l14 314q-82 -18 -135.5 -43t-85 -53.5t-44 -63.5 t-12.5 -74z" />
<glyph unicode="&#xe6;" horiz-adv-x="1409" d="M47 172q0 53 23.5 100t80 88t153.5 79t245 75l2 70q4 129 -51.5 198.5t-153.5 69.5q-57 0 -92 -18.5t-35 -34.5q0 -6 9.5 -18.5t21.5 -29t21.5 -35t9.5 -38.5q0 -45 -33 -76t-86 -31q-47 0 -81 26t-34 73q0 49 44 92t110.5 74.5t145.5 50t149 18.5q78 0 130 -23.5 t83 -82.5q47 43 120.5 75.5t180.5 32.5q88 0 153.5 -24.5t109.5 -65.5t65.5 -92t21.5 -107q0 -10 -1 -17t-3 -17q-141 0 -260 2q-51 0 -101.5 1t-92.5 2t-72.5 1h-43.5q-4 -20 -3 -49t1 -49q0 -172 86 -273.5t226 -101.5q88 0 152.5 35.5t111.5 126.5l14 -9 q-66 -141 -169 -217t-244 -76q-135 0 -230.5 61.5t-138.5 164.5q-94 -111 -175 -168.5t-161 -57.5q-43 0 -82 16.5t-66.5 43t-44 62.5t-16.5 73zM274 250q0 -61 37 -102.5t80 -41.5q45 0 87 25t102 88q-18 43 -25.5 110.5t-7.5 127.5v16t2 16q-84 -20 -137.5 -45.5 t-84 -55.5t-42 -63.5t-11.5 -74.5zM791 610l342 4q0 47 -7.5 95.5t-24 86.5t-44 62.5t-70.5 24.5q-70 0 -125 -77t-71 -196z" />
<glyph unicode="&#xe7;" horiz-adv-x="878" d="M39 412q0 104 35 194t99.5 156.5t153.5 104.5t195 38q68 0 127.5 -14t103.5 -41t69.5 -63.5t25.5 -81.5q0 -53 -35 -89t-86 -36q-53 0 -88 34.5t-35 81.5q0 25 8.5 44.5t17.5 35t17 26.5t8 17q0 23 -35.5 43.5t-82.5 20.5q-109 0 -177.5 -103.5t-68.5 -281.5 q0 -186 82 -285.5t221 -99.5q88 0 148.5 35.5t107.5 123.5l14 -6q-61 -131 -148 -206.5t-210 -88.5l-98 -108q68 14 128 8t105 -27.5t71.5 -57.5t26.5 -79q0 -70 -43 -115t-109.5 -74.5t-145.5 -45t-152 -27.5l-4 10q150 29 231.5 69t81.5 118q0 31 -14.5 52t-39 34.5 t-56 19.5t-64.5 6q-84 0 -152 -24v12l211 227h-20q-92 0 -170 34t-134.5 93.5t-88 140t-31.5 175.5z" />
<glyph unicode="&#xe8;" horiz-adv-x="911" d="M39 420q0 102 36 191t99.5 154.5t150.5 103.5t187 38q88 0 153.5 -24.5t109.5 -65.5t65.5 -92t21.5 -107q0 -10 -1 -17t-3 -17q-143 0 -262 2q-51 0 -101.5 1t-91.5 2t-71.5 1h-40.5q-4 -20 -4 -49v-49q0 -86 22.5 -156t63.5 -119t98 -76.5t127 -27.5q88 0 152.5 35.5 t111.5 123.5l15 -6q-66 -141 -165.5 -219t-246.5 -78q-92 0 -170 35t-135.5 95.5t-89 143.5t-31.5 177zM146 1386h237l209 -382h-10zM295 610l340 2q0 47 -7 95.5t-23.5 87.5t-44.5 63.5t-71 24.5q-70 0 -124 -77t-70 -196z" />
<glyph unicode="&#xe9;" horiz-adv-x="911" d="M39 420q0 102 36 191t99.5 154.5t150.5 103.5t187 38q88 0 153.5 -24.5t109.5 -65.5t65.5 -92t21.5 -107q0 -10 -1 -17t-3 -17q-143 0 -262 2q-51 0 -101.5 1t-91.5 2t-71.5 1h-40.5q-4 -20 -4 -49v-49q0 -86 22.5 -156t63.5 -119t98 -76.5t127 -27.5q88 0 152.5 35.5 t111.5 123.5l15 -6q-66 -141 -165.5 -219t-246.5 -78q-92 0 -170 35t-135.5 95.5t-89 143.5t-31.5 177zM295 610l340 2q0 47 -7 95.5t-23.5 87.5t-44.5 63.5t-71 24.5q-70 0 -124 -77t-70 -196zM397 1004l209 382h237l-436 -382h-10z" />
<glyph unicode="&#xea;" horiz-adv-x="911" d="M39 420q0 102 36 191t99.5 154.5t150.5 103.5t187 38q88 0 153.5 -24.5t109.5 -65.5t65.5 -92t21.5 -107q0 -10 -1 -17t-3 -17q-143 0 -262 2q-51 0 -101.5 1t-91.5 2t-71.5 1h-40.5q-4 -20 -4 -49v-49q0 -86 22.5 -156t63.5 -119t98 -76.5t127 -27.5q88 0 152.5 35.5 t111.5 123.5l15 -6q-66 -141 -165.5 -219t-246.5 -78q-92 0 -170 35t-135.5 95.5t-89 143.5t-31.5 177zM193 983l297 403h8l297 -403h-12l-287 197h-4l-287 -197h-12zM295 610l340 2q0 47 -7 95.5t-23.5 87.5t-44.5 63.5t-71 24.5q-70 0 -124 -77t-70 -196z" />
<glyph unicode="&#xeb;" horiz-adv-x="911" d="M39 420q0 102 36 191t99.5 154.5t150.5 103.5t187 38q88 0 153.5 -24.5t109.5 -65.5t65.5 -92t21.5 -107q0 -10 -1 -17t-3 -17q-143 0 -262 2q-51 0 -101.5 1t-91.5 2t-71.5 1h-40.5q-4 -20 -4 -49v-49q0 -86 22.5 -156t63.5 -119t98 -76.5t127 -27.5q88 0 152.5 35.5 t111.5 123.5l15 -6q-66 -141 -165.5 -219t-246.5 -78q-92 0 -170 35t-135.5 95.5t-89 143.5t-31.5 177zM164 1153q0 20 8 43t23.5 41t38 29.5t53.5 11.5t54.5 -11.5t38.5 -29.5t22.5 -40.5t7.5 -43.5q0 -41 -31 -81t-92 -40q-59 0 -91 40t-32 81zM295 610l340 2 q0 47 -7 95.5t-23.5 87.5t-44.5 63.5t-71 24.5q-70 0 -124 -77t-70 -196zM563 1153q0 20 7.5 43t22.5 41t37.5 29.5t53.5 11.5t54.5 -11.5t39 -29.5t22.5 -40.5t7 -43.5q0 -41 -31 -81t-92 -40q-59 0 -90 40t-31 81z" />
<glyph unicode="&#xec;" horiz-adv-x="538" d="M-59 1386h237l209 -382h-10zM25 793l2 8l360 98v-856q0 -12 17.5 -17.5t87.5 -11.5l22 -2l6 -12h-487l6 12l31 2q47 4 66.5 9.5t19.5 23.5v574q0 47 -3 76.5t-12.5 46t-26 24.5t-42.5 14z" />
<glyph unicode="&#xed;" horiz-adv-x="538" d="M25 793l2 8l360 98v-856q0 -12 17.5 -17.5t87.5 -11.5l22 -2l6 -12h-487l6 12l31 2q47 4 66.5 9.5t19.5 23.5v574q0 47 -3 76.5t-12.5 46t-26 24.5t-42.5 14zM164 1004l209 382h237l-436 -382h-10z" />
<glyph unicode="&#xee;" horiz-adv-x="538" d="M-2 983l276 403h9l276 -403h-12l-266 195h-5l-268 -195h-10zM25 793l2 8l360 98v-856q0 -12 17.5 -17.5t87.5 -11.5l22 -2l6 -12h-487l6 12l31 2q47 4 66.5 9.5t19.5 23.5v574q0 47 -3 76.5t-12.5 46t-26 24.5t-42.5 14z" />
<glyph unicode="&#xef;" horiz-adv-x="538" d="M-41 1153q0 20 8 43t23.5 41t38 29.5t53.5 11.5t54.5 -11.5t38.5 -29.5t22.5 -40.5t7.5 -43.5q0 -41 -31 -81t-92 -40q-59 0 -91 40t-32 81zM25 793l2 8l360 98v-856q0 -12 17.5 -17.5t87.5 -11.5l22 -2l6 -12h-487l6 12l31 2q47 4 66.5 9.5t19.5 23.5v574q0 47 -3 76.5 t-12.5 46t-26 24.5t-42.5 14zM358 1153q0 20 7.5 43t22.5 41t37.5 29.5t53.5 11.5t54.5 -11.5t39 -29.5t22.5 -40.5t7 -43.5q0 -41 -31 -81t-92 -40q-59 0 -90 40t-31 81z" />
<glyph unicode="&#xf0;" horiz-adv-x="1038" d="M39 440q0 98 36 184.5t99.5 150t151.5 100t192 36.5q31 0 59.5 -2t55.5 -6q-39 66 -88 122t-113 103l-264 -84l4 25l236 76q-121 82 -289 108l2 15q111 -8 206 -32t177 -58q2 0 39 11t82 28q53 18 118 38l5 -24l-211 -68q115 -55 200.5 -130t144 -162t88 -181t29.5 -188 q0 -117 -34.5 -213t-98 -166t-152.5 -108t-198 -38t-197 36t-150.5 98.5t-96 146.5t-33.5 182zM297 461q0 -246 54 -356.5t167 -110.5q223 0 223 440q0 104 -15 189.5t-45 145.5t-72 93t-95 33q-51 0 -92 -32t-68.5 -88t-42 -136t-14.5 -178z" />
<glyph unicode="&#xf1;" horiz-adv-x="1099" d="M25 793l2 8l364 98l-6 -176l4 -2q33 29 73 60.5t84 59t94 45t101 17.5q96 0 162 -65q35 -35 50.5 -95.5t15.5 -130.5v-567q0 -4 2 -8t12 -8t31.5 -7.5t58.5 -7.5l23 -2l6 -12h-484l7 12l37 2q53 4 64 12.5t11 20.5v537q0 96 -45 135t-125 39q-59 0 -102 -18.5t-78 -45.5 v-311v-340q0 -12 15.5 -18.5t74.5 -10.5l31 -2l4 -12h-479l6 12l31 2q47 4 66.5 9.5t19.5 23.5v574q0 47 -3 76.5t-12.5 46t-26 24.5t-42.5 14zM236 1036q6 72 16 120t28.5 78t47.5 42t70 12q47 0 100 -19.5t105.5 -44t98.5 -44t79 -19.5q16 0 31.5 2t27.5 13.5t20.5 33 t12.5 60.5h10q-6 -70 -16.5 -118t-29 -78t-47 -43t-69.5 -13q-47 0 -100 20.5t-105.5 44t-98.5 44t-81 20.5q-14 0 -29.5 -2t-26.5 -12.5t-19.5 -33t-12.5 -63.5h-12z" />
<glyph unicode="&#xf2;" horiz-adv-x="1056" d="M39 438q0 96 36 181.5t101.5 148.5t156.5 100t199 37q111 0 200 -35.5t152.5 -98t98.5 -146.5t35 -181q0 -98 -36 -185t-101.5 -150.5t-155.5 -100.5t-201 -37t-201 37t-152 100.5t-97 148.5t-35 181zM168 1386h237l209 -382h-10zM297 455q0 -164 27.5 -264.5 t74.5 -149.5q51 -51 127 -51q55 0 99.5 33.5t73 93t44 139.5t15.5 172q0 160 -29 260t-76 148q-25 23 -54.5 37t-70.5 14q-59 0 -102 -35t-71.5 -93.5t-43 -137t-14.5 -166.5z" />
<glyph unicode="&#xf3;" horiz-adv-x="1056" d="M39 438q0 96 36 181.5t101.5 148.5t156.5 100t199 37q111 0 200 -35.5t152.5 -98t98.5 -146.5t35 -181q0 -98 -36 -185t-101.5 -150.5t-155.5 -100.5t-201 -37t-201 37t-152 100.5t-97 148.5t-35 181zM297 455q0 -164 27.5 -264.5t74.5 -149.5q51 -51 127 -51 q55 0 99.5 33.5t73 93t44 139.5t15.5 172q0 160 -29 260t-76 148q-25 23 -54.5 37t-70.5 14q-59 0 -102 -35t-71.5 -93.5t-43 -137t-14.5 -166.5zM443 1004l209 382h237l-436 -382h-10z" />
<glyph unicode="&#xf4;" horiz-adv-x="1056" d="M39 438q0 96 36 181.5t101.5 148.5t156.5 100t199 37q111 0 200 -35.5t152.5 -98t98.5 -146.5t35 -181q0 -98 -36 -185t-101.5 -150.5t-155.5 -100.5t-201 -37t-201 37t-152 100.5t-97 148.5t-35 181zM228 983l297 403h8l297 -403h-12l-287 197h-4l-287 -197h-12z M297 455q0 -164 27.5 -264.5t74.5 -149.5q51 -51 127 -51q55 0 99.5 33.5t73 93t44 139.5t15.5 172q0 160 -29 260t-76 148q-25 23 -54.5 37t-70.5 14q-59 0 -102 -35t-71.5 -93.5t-43 -137t-14.5 -166.5z" />
<glyph unicode="&#xf5;" horiz-adv-x="1056" d="M39 438q0 96 36 181.5t101.5 148.5t156.5 100t199 37q111 0 200 -35.5t152.5 -98t98.5 -146.5t35 -181q0 -98 -36 -185t-101.5 -150.5t-155.5 -100.5t-201 -37t-201 37t-152 100.5t-97 148.5t-35 181zM205 1036q6 72 16 120t28.5 78t47.5 42t70 12q47 0 100 -19.5 t105.5 -44t98.5 -44t79 -19.5q16 0 31.5 2t27.5 13.5t20.5 33t12.5 60.5h10q-6 -70 -16.5 -118t-29 -78t-47 -43t-69.5 -13q-47 0 -100 20.5t-105.5 44t-98.5 44t-81 20.5q-14 0 -29.5 -2t-26.5 -12.5t-19.5 -33t-12.5 -63.5h-12zM297 455q0 -164 27.5 -264.5t74.5 -149.5 q51 -51 127 -51q55 0 99.5 33.5t73 93t44 139.5t15.5 172q0 160 -29 260t-76 148q-25 23 -54.5 37t-70.5 14q-59 0 -102 -35t-71.5 -93.5t-43 -137t-14.5 -166.5z" />
<glyph unicode="&#xf6;" horiz-adv-x="1056" d="M39 438q0 96 36 181.5t101.5 148.5t156.5 100t199 37q111 0 200 -35.5t152.5 -98t98.5 -146.5t35 -181q0 -98 -36 -185t-101.5 -150.5t-155.5 -100.5t-201 -37t-201 37t-152 100.5t-97 148.5t-35 181zM207 1153q0 20 8 43t23.5 41t38 29.5t53.5 11.5t54.5 -11.5 t38.5 -29.5t22.5 -40.5t7.5 -43.5q0 -41 -31 -81t-92 -40q-59 0 -91 40t-32 81zM297 455q0 -164 27.5 -264.5t74.5 -149.5q51 -51 127 -51q55 0 99.5 33.5t73 93t44 139.5t15.5 172q0 160 -29 260t-76 148q-25 23 -54.5 37t-70.5 14q-59 0 -102 -35t-71.5 -93.5t-43 -137 t-14.5 -166.5zM606 1153q0 20 7.5 43t22.5 41t37.5 29.5t53.5 11.5t54.5 -11.5t39 -29.5t22.5 -40.5t7 -43.5q0 -41 -31 -81t-92 -40q-59 0 -90 40t-31 81z" />
<glyph unicode="&#xf7;" horiz-adv-x="1142" d="M63 489q0 113 39 208.5t106.5 165t161 108.5t203.5 39q111 0 204 -38t161 -106.5t105.5 -163t37.5 -206.5q0 -115 -38.5 -210.5t-107.5 -164t-162 -106.5t-204 -38t-203 37t-159.5 104.5t-105.5 162t-38 208.5zM84 489q0 -111 37 -200.5t101.5 -155t153.5 -101.5t193 -36 t194.5 37t157 103.5t103.5 157.5t37 202q0 109 -37 199.5t-101.5 156.5t-154.5 102.5t-195 36.5q-104 0 -193 -38t-155.5 -104.5t-103.5 -158.5t-37 -201z" />
<glyph unicode="&#xf8;" horiz-adv-x="1056" d="M39 438q0 96 36 181.5t101.5 148.5t156.5 100t199 37q59 0 114.5 -11t103.5 -32l186 324h22l-192 -332q119 -57 185.5 -165.5t66.5 -244.5q0 -98 -36 -185t-101.5 -150.5t-155.5 -100.5t-201 -37q-135 0 -237 54q-25 -43 -53.5 -94.5t-53.5 -94.5q-29 -51 -59 -100h-23 q29 49 60 102q27 45 56 96.5t56 98.5q-111 61 -171 167.5t-60 237.5zM297 455q0 -100 10.5 -176t28.5 -129l16 26q17 27 42.5 71t58 100t65.5 114l180 311q-20 41 -45 64t-54.5 38t-70.5 15q-59 0 -102 -35t-71.5 -94.5t-43 -138t-14.5 -166.5zM344 125q23 -47 55 -84 q49 -49 127 -49q55 0 99.5 33.5t73 93t44 138.5t15.5 171q0 109 -13 189t-38 135q-100 -174 -181 -314q-33 -59 -65.5 -115.5t-58 -100.5t-42.5 -70z" />
<glyph unicode="&#xf9;" horiz-adv-x="1052" d="M-8 874h375l-5 -583q-2 -94 43.5 -133t129.5 -39q55 0 94 17.5t71 41.5v316v303q0 37 -19 48t-85 15l-29 2l-6 12h371v-669q0 -31 2 -49.5t8 -29.5t17.5 -17.5t27.5 -10.5l76 -16l-2 -8l-361 -107l5 189h-5q-33 -33 -72.5 -66t-83.5 -59.5t-92.5 -43t-101.5 -16.5 q-51 0 -86 17.5t-69 52.5q-35 35 -50.5 94.5t-13.5 130.5l4 570q0 4 -2 7t-13 6t-32.5 6t-60.5 5l-29 2zM166 1386h237l209 -382h-10z" />
<glyph unicode="&#xfa;" horiz-adv-x="1052" d="M-8 874h375l-5 -583q-2 -94 43.5 -133t129.5 -39q55 0 94 17.5t71 41.5v316v303q0 37 -19 48t-85 15l-29 2l-6 12h371v-669q0 -31 2 -49.5t8 -29.5t17.5 -17.5t27.5 -10.5l76 -16l-2 -8l-361 -107l5 189h-5q-33 -33 -72.5 -66t-83.5 -59.5t-92.5 -43t-101.5 -16.5 q-51 0 -86 17.5t-69 52.5q-35 35 -50.5 94.5t-13.5 130.5l4 570q0 4 -2 7t-13 6t-32.5 6t-60.5 5l-29 2zM440 1004l209 382h237l-436 -382h-10z" />
<glyph unicode="&#xfb;" horiz-adv-x="1052" d="M-8 874h375l-5 -583q-2 -94 43.5 -133t129.5 -39q55 0 94 17.5t71 41.5v316v303q0 37 -19 48t-85 15l-29 2l-6 12h371v-669q0 -31 2 -49.5t8 -29.5t17.5 -17.5t27.5 -10.5l76 -16l-2 -8l-361 -107l5 189h-5q-33 -33 -72.5 -66t-83.5 -59.5t-92.5 -43t-101.5 -16.5 q-51 0 -86 17.5t-69 52.5q-35 35 -50.5 94.5t-13.5 130.5l4 570q0 4 -2 7t-13 6t-32.5 6t-60.5 5l-29 2zM225 983l297 403h8l297 -403h-12l-287 197h-4l-287 -197h-12z" />
<glyph unicode="&#xfc;" horiz-adv-x="1052" d="M-8 874h375l-5 -583q-2 -94 43.5 -133t129.5 -39q55 0 94 17.5t71 41.5v316v303q0 37 -19 48t-85 15l-29 2l-6 12h371v-669q0 -31 2 -49.5t8 -29.5t17.5 -17.5t27.5 -10.5l76 -16l-2 -8l-361 -107l5 189h-5q-33 -33 -72.5 -66t-83.5 -59.5t-92.5 -43t-101.5 -16.5 q-51 0 -86 17.5t-69 52.5q-35 35 -50.5 94.5t-13.5 130.5l4 570q0 4 -2 7t-13 6t-32.5 6t-60.5 5l-29 2zM230 1153q0 20 8 43t23.5 41t38 29.5t53.5 11.5t54.5 -11.5t38.5 -29.5t22.5 -40.5t7.5 -43.5q0 -41 -31 -81t-92 -40q-59 0 -91 40t-32 81zM629 1153q0 20 7.5 43 t22.5 41t37.5 29.5t53.5 11.5t54.5 -11.5t39 -29.5t22.5 -40.5t7 -43.5q0 -41 -31 -81t-92 -40q-59 0 -90 40t-31 81z" />
<glyph unicode="&#xfd;" horiz-adv-x="978" d="M-23 874h515l-7 -12l-34 -2q-61 -4 -73.5 -24.5t9.5 -73.5l217 -504l125 348q29 78 39 124t1 72.5t-39 38t-83 17.5l-29 4l-6 12h363l-6 -12l-33 -4q-35 -2 -56.5 -12t-40 -38t-39 -80t-52.5 -140l-218 -588l-84 -250q-45 -139 -104 -206.5t-147 -67.5q-51 0 -95.5 31.5 t-44.5 93.5q0 47 34 81.5t85 34.5q63 0 95 -36.5t40 -79.5q41 8 65.5 49t53.5 119l76 213h-27l-340 759q-16 37 -27.5 58.5t-23.5 35t-28.5 18.5t-41.5 7l-32 2zM426 952l199 365h225l-414 -365h-10z" />
<glyph unicode="&#xfe;" horiz-adv-x="1054" d="M-37 1278l2 8l359 90v-661l6 -6q61 78 142 132t179 54q76 0 142.5 -33t115.5 -90t78 -137t29 -176q0 -125 -46 -216t-117 -151.5t-157 -90.5t-168 -30q-63 0 -113 10.5t-85 26.5h-6v-483q0 -10 17 -16.5t87 -8.5l72 -2l6 -16h-541l6 16l37 2q47 4 66.5 8.5t19.5 22.5 v1610q0 35 -3 55.5t-12 33.5t-25.5 21.5t-43.5 14.5zM324 193q39 -86 103 -142.5t130 -56.5q49 0 88 31.5t64.5 87t39 129t13.5 155.5q0 78 -17.5 144.5t-49 116t-78 78t-105.5 28.5t-105.5 -25.5t-82.5 -60.5v-485z" />
<glyph unicode="&#xff;" horiz-adv-x="978" d="M-23 874h515l-7 -12l-34 -2q-61 -4 -73.5 -24.5t9.5 -73.5l217 -504l125 348q29 78 39 124t1 72.5t-39 38t-83 17.5l-29 4l-6 12h363l-6 -12l-33 -4q-35 -2 -56.5 -12t-40 -38t-39 -80t-52.5 -140l-218 -588l-84 -250q-45 -139 -104 -206.5t-147 -67.5q-51 0 -95.5 31.5 t-44.5 93.5q0 47 34 81.5t85 34.5q63 0 95 -36.5t40 -79.5q41 8 65.5 49t53.5 119l76 213h-27l-340 759q-16 37 -27.5 58.5t-23.5 35t-28.5 18.5t-41.5 7l-32 2zM178 1153q0 20 8 43t23.5 41t38 29.5t53.5 11.5t54.5 -11.5t38.5 -29.5t22.5 -40.5t7.5 -43.5q0 -41 -31 -81 t-92 -40q-59 0 -91 40t-32 81zM577 1153q0 20 7.5 43t22.5 41t37.5 29.5t53.5 11.5t54.5 -11.5t39 -29.5t22.5 -40.5t7 -43.5q0 -41 -31 -81t-92 -40q-59 0 -90 40t-31 81z" />
<glyph unicode="&#x152;" horiz-adv-x="1949" d="M55 629q0 135 53.5 252.5t152.5 207t239.5 140.5t312.5 51h971l20 -418h-12l-8 23q-57 205 -164 291t-293 81l-127 -2v-587h68q68 4 118 15t85.5 33.5t59 57.5t40.5 84l12 37l14 -2l-53 -490l-14 3l-2 36q-4 55 -19.5 92t-46 59.5t-83 34t-130.5 15.5l-49 4v-618l180 -9 q98 2 174 31t134.5 79t100.5 121t73 155l10 22h12l-57 -428h-1051q-180 0 -315 43t-225.5 125t-135.5 198.5t-45 262.5zM340 670q0 -143 28.5 -263t88 -204t151.5 -131t219 -47h109v1204l-137 28q-113 0 -199 -48t-144.5 -129t-87 -187.5t-28.5 -222.5z" />
<glyph unicode="&#x153;" horiz-adv-x="1628" d="M39 432q0 98 36 184t101.5 150.5t156.5 102.5t202 38q115 0 204.5 -40t151.5 -107q61 68 147 107.5t193 39.5q88 0 153.5 -24.5t109.5 -65.5t65.5 -92t21.5 -107q0 -10 -1 -17t-3 -17q-143 0 -260 2q-49 0 -99.5 1t-92.5 2t-72.5 1h-42.5q-4 -20 -4 -49v-49 q0 -86 22.5 -156t63.5 -119t98 -76.5t127 -27.5q88 0 152.5 35.5t111.5 123.5l14 -6q-66 -141 -166 -219t-247 -78q-102 0 -174 38t-131 102q-63 -66 -151.5 -104t-199.5 -38t-200.5 37t-153 99.5t-98.5 147.5t-35 181zM299 446q0 -164 27.5 -262t72.5 -145q53 -55 127 -55 q55 0 98.5 34.5t73 94t44 141.5t14.5 174q0 164 -28 262t-73 146q-25 25 -55.5 39t-71.5 14q-57 0 -101 -35t-71.5 -94.5t-42 -140t-14.5 -173.5zM1014 610l338 4q0 47 -6.5 95.5t-22.5 86.5t-44 62.5t-71 24.5q-70 0 -124 -77t-70 -196z" />
<glyph unicode="&#x178;" horiz-adv-x="1325" d="M4 1280h635l-6 -12l-35 -2q-49 -4 -76.5 -13.5t-36 -25t-2.5 -39t25 -53.5l270 -484h4l154 287q53 100 79.5 160.5t23.5 94.5t-37.5 48t-102.5 21l-45 6l-6 12h467l-6 -12l-58 -6q-39 -4 -68.5 -17.5t-61 -47.5t-70.5 -97.5t-95 -169.5l-161 -299v-582q0 -10 19.5 -16 t96.5 -15l68 -6l6 -12h-647l6 12l90 8q53 4 74.5 14.5t21.5 20.5v531l-274 485q-31 53 -53.5 89t-44 57.5t-46 32t-59.5 14.5l-43 4zM359 1495q0 20 8 43t23.5 41t38 29.5t53.5 11.5t54.5 -11.5t38.5 -29.5t22.5 -40.5t7.5 -43.5q0 -41 -31 -81t-92 -40q-59 0 -91 40t-32 81 zM758 1495q0 20 7.5 43t22.5 41t37.5 29.5t53.5 11.5t54.5 -11.5t39 -29.5t22.5 -40.5t7 -43.5q0 -41 -31 -81t-92 -40q-59 0 -90 40t-31 81z" />
<glyph unicode="&#x2c6;" horiz-adv-x="757" d="M78 983l297 403h8l297 -403h-12l-287 197h-4l-287 -197h-12z" />
<glyph unicode="&#x2dc;" horiz-adv-x="798" d="M76 1036q6 72 16 120t28.5 78t47.5 42t70 12q47 0 100 -19.5t105.5 -44t98.5 -44t79 -19.5q16 0 31.5 2t27.5 13.5t20.5 33t12.5 60.5h10q-6 -70 -16.5 -118t-29 -78t-47 -43t-69.5 -13q-47 0 -100 20.5t-105.5 44t-98.5 44t-81 20.5q-14 0 -29.5 -2t-26.5 -12.5 t-19.5 -33t-12.5 -63.5h-12z" />
<glyph unicode="&#x2000;" horiz-adv-x="864" />
<glyph unicode="&#x2001;" horiz-adv-x="1728" />
<glyph unicode="&#x2002;" horiz-adv-x="864" />
<glyph unicode="&#x2003;" horiz-adv-x="1728" />
<glyph unicode="&#x2004;" horiz-adv-x="576" />
<glyph unicode="&#x2005;" horiz-adv-x="432" />
<glyph unicode="&#x2006;" horiz-adv-x="288" />
<glyph unicode="&#x2007;" horiz-adv-x="288" />
<glyph unicode="&#x2008;" horiz-adv-x="216" />
<glyph unicode="&#x2009;" horiz-adv-x="345" />
<glyph unicode="&#x200a;" horiz-adv-x="96" />
<glyph unicode="&#x2010;" horiz-adv-x="573" d="M37 438l6 82h494l-7 -82h-493z" />
<glyph unicode="&#x2011;" horiz-adv-x="573" d="M37 438l6 82h494l-7 -82h-493z" />
<glyph unicode="&#x2012;" horiz-adv-x="573" d="M37 438l6 82h494l-7 -82h-493z" />
<glyph unicode="&#x2013;" horiz-adv-x="872" d="M8 444l6 70h846v-70h-852z" />
<glyph unicode="&#x2014;" horiz-adv-x="1835" d="M8 444l6 70h1809l2 -70h-1817z" />
<glyph unicode="&#x2018;" horiz-adv-x="399" d="M35 985q0 49 20.5 98.5t60.5 93.5t98 82.5t134 65.5l8 -8q-90 -47 -133 -108.5t-43 -127.5q0 -55 29 -84.5t62.5 -44t61 -16.5t27.5 -6q0 -20 -8 -45t-25.5 -46.5t-43 -34.5t-62.5 -13q-92 0 -139 59t-47 135z" />
<glyph unicode="&#x2019;" horiz-adv-x="399" d="M39 1190q0 23 8 46.5t25.5 45t43 34.5t62.5 13q45 0 80 -16.5t58.5 -43t36 -62.5t12.5 -72q0 -96 -81 -191.5t-233 -148.5l-8 10q90 47 133 107.5t43 125.5q0 55 -27.5 85t-61.5 44.5t-62.5 17.5t-28.5 5z" />
<glyph unicode="&#x201a;" horiz-adv-x="399" d="M39 137q0 23 8 46.5t25.5 45t43 34.5t62.5 13q45 0 80 -16t58.5 -43t36 -62.5t12.5 -72.5q0 -96 -81 -191.5t-233 -148.5l-8 10q90 47 133 107.5t43 126.5q0 55 -27.5 84.5t-61.5 44t-62.5 17.5t-28.5 5z" />
<glyph unicode="&#x201c;" horiz-adv-x="782" d="M35 985q0 49 20.5 98.5t60.5 93.5t98 82.5t134 65.5l8 -8q-90 -47 -133 -108.5t-43 -127.5q0 -55 29 -84.5t62.5 -44t61 -16.5t27.5 -6q0 -20 -8 -45t-25.5 -46.5t-43 -34.5t-62.5 -13q-92 0 -139 59t-47 135zM418 985q0 49 20.5 98.5t60.5 93.5t98 82.5t134 65.5l8 -8 q-90 -47 -133 -108.5t-43 -127.5q0 -55 29 -84.5t62.5 -44t61 -16.5t27.5 -6q0 -20 -8 -45t-25.5 -46.5t-43 -34.5t-62.5 -13q-45 0 -80 16t-58.5 43t-35.5 62.5t-12 72.5z" />
<glyph unicode="&#x201d;" horiz-adv-x="782" d="M39 1190q0 23 8 46.5t25.5 45t43 34.5t62.5 13q45 0 80 -16.5t58.5 -43t36 -62.5t12.5 -72q0 -96 -81 -191.5t-233 -148.5l-8 10q90 47 133 107.5t43 125.5q0 55 -27.5 85t-61.5 44.5t-62.5 17.5t-28.5 5zM422 1190q0 23 8 46.5t25.5 45t43 34.5t62.5 13 q92 0 139.5 -59.5t47.5 -134.5q0 -96 -81 -191.5t-233 -148.5l-8 10q90 47 133 107.5t43 125.5q0 55 -27.5 85t-61.5 44.5t-62.5 17.5t-28.5 5z" />
<glyph unicode="&#x201e;" horiz-adv-x="782" d="M39 137q0 23 8 46.5t25.5 45t43 34.5t62.5 13q45 0 80 -16t58.5 -43t36 -62.5t12.5 -72.5q0 -96 -81 -191.5t-233 -148.5l-8 10q90 47 133 107.5t43 126.5q0 55 -27.5 84.5t-61.5 44t-62.5 17.5t-28.5 5zM422 137q0 23 8 46.5t25.5 45t43 34.5t62.5 13q92 0 139.5 -59 t47.5 -135q0 -96 -81 -191.5t-233 -148.5l-8 10q90 47 133 107.5t43 126.5q0 55 -27.5 84.5t-61.5 44t-62.5 17.5t-28.5 5z" />
<glyph unicode="&#x2022;" horiz-adv-x="870" d="M41 475q0 23 12.5 63t30.5 83t38.5 80.5t35.5 52.5q16 16 53 35.5t80 37t84 29.5t61 12q23 0 63 -12t83 -29.5t80.5 -37t52.5 -35.5q16 -14 35.5 -52t37 -81t29.5 -83t12 -63t-12 -62.5t-29.5 -82.5t-37 -81t-35.5 -54q-14 -14 -52 -35t-81 -38.5t-84 -29.5t-64 -12 q-20 0 -61 12t-84 29.5t-80 38t-51 35.5q-14 16 -35 54t-39 81t-30.5 83t-12.5 62z" />
<glyph unicode="&#x2026;" horiz-adv-x="1312" d="M72 117q0 53 40 93t97 40q59 0 98 -41t39 -92q0 -57 -39 -98.5t-96 -41.5q-59 0 -99 41t-40 99zM518 117q0 53 40 93t99 40q57 0 97.5 -41t40.5 -92q0 -57 -40.5 -98.5t-97.5 -41.5q-59 0 -99 41t-40 99zM967 117q0 53 40 93t97 40q59 0 98 -41t39 -92q0 -57 -39 -98.5 t-98 -41.5q-57 0 -97 41t-40 99z" />
<glyph unicode="&#x202f;" horiz-adv-x="345" />
<glyph unicode="&#x2039;" horiz-adv-x="550" d="M25 442v27l481 360l6 -6l-246 -370l246 -367l-6 -6z" />
<glyph unicode="&#x203a;" horiz-adv-x="552" d="M35 823l6 6l483 -360v-27l-483 -362l-4 6l246 367z" />
<glyph unicode="&#x205f;" horiz-adv-x="432" />
<glyph unicode="&#x20ac;" horiz-adv-x="1046" d="M-2 467l6 20h121q-6 66 -6 119q0 33 2 66t8 61h-131l6 21h129q25 127 83 226t137 168t172 105.5t190 36.5q141 0 224 -45t83 -135q0 -47 -38 -85t-93 -38q-47 0 -79 25.5t-44 63.5t-5 81t38 76q-12 8 -31.5 20.5t-62.5 12.5q-70 0 -126.5 -38t-99.5 -105.5t-69.5 -162 t-34.5 -206.5h385l6 -21h-391q-2 -18 -2 -37.5v-40.5q0 -82 12 -168h375l6 -20h-373q37 -162 132.5 -254t228.5 -92q98 0 165.5 39t120.5 131l15 -8q-72 -145 -178.5 -226.5t-253.5 -81.5q-92 0 -174 34t-147.5 97.5t-111 154.5t-63.5 206h-131z" />
<glyph unicode="&#x2122;" horiz-adv-x="843" d="M37 1171l14 109h305l11 -109h-5l-4 9q-16 33 -38.5 63.5t-57.5 30.5h-18v-301q0 -4 4 -3t24 -3l15 -2v-7h-170v7l22 2q23 2 23 8v299h-15q-35 0 -60.5 -33t-39.5 -61l-4 -9h-6zM387 958l2 7h10q27 0 32 7t7 36l6 237q-10 16 -19 20.5t-19 6.5l-17 2l-2 6h129l80 -215h2 l82 215h133l-2 -6l-25 -2q-25 -2 -24 -8l8 -291q0 -4 5 -3t24 -3l16 -2l2 -7h-176v7l25 2q20 2 20 8l-4 280h-2l-113 -297h-8l-106 277h-2l-5 -234q0 -25 9.5 -30.5t38.5 -5.5h10l2 -7h-119z" />
<glyph unicode="&#x25fc;" horiz-adv-x="870" d="M0 0v870h870v-870h-870z" />
<glyph unicode="&#xfb01;" horiz-adv-x="1114" d="M10 778l47 96l115 -2l6 101q6 94 54.5 167.5t120 124t158.5 77t169 26.5q92 0 143 -39t51 -98q0 -47 -34.5 -83t-83.5 -36q-37 0 -65.5 17.5t-49 45t-33 64.5t-16.5 76l-51 14q-68 -20 -103 -90t-35 -227v-138h431l124 25v-856q0 -12 17.5 -17.5t87.5 -11.5l22 -2l7 -12 h-484l4 12l37 2q53 4 65.5 9.5t12.5 23.5v733h-324v-737q0 -12 14.5 -18.5t74.5 -10.5l45 -2l6 -12h-500l6 12l37 2q47 4 66.5 9.5t19.5 23.5v729z" />
<glyph unicode="&#xfb02;" horiz-adv-x="1105" d="M10 778l47 96l115 -2l6 101q6 94 53.5 167.5t116 124t152.5 77t164 26.5q92 0 141 -45l153 53v-1333q0 -12 17.5 -16t87.5 -13l22 -2l7 -12h-484l6 12l27 2q47 4 66.5 9.5t19.5 23.5v733h-324v-737q0 -12 14.5 -18.5t74.5 -10.5l45 -2l6 -12h-500l6 12l37 2 q47 4 66.5 9.5t19.5 23.5v729zM403 874h324v271q-35 2 -63.5 18.5t-48 40t-31 53t-11.5 58.5l-43 14q-68 -20 -97.5 -90t-29.5 -227v-138z" />
</font>
</defs>
</svg>
