<?xml version="1.0" standalone="no"?>
<!DOCTYPE svg PUBLIC "-//W3C//DTD SVG 1.1//EN" "http://www.w3.org/Graphics/SVG/1.1/DTD/svg11.dtd" >
<svg xmlns="http://www.w3.org/2000/svg">
<metadata></metadata>
<defs>
<font id="freightregular" horiz-adv-x="819" >
<font-face units-per-em="2048" ascent="1638" descent="-410" />
<missing-glyph horiz-adv-x="327" />
<glyph horiz-adv-x="0" />
<glyph horiz-adv-x="682" />
<glyph unicode=" "  horiz-adv-x="327" />
<glyph unicode="&#x09;" horiz-adv-x="327" />
<glyph unicode="&#xa0;" horiz-adv-x="327" />
<glyph unicode="!" horiz-adv-x="575" d="M170 86q0 45 34.5 79t84.5 34q52 0 83 -33t31 -80q0 -49 -31 -83t-83 -34q-50 0 -84.5 34.5t-34.5 82.5zM193 1233q-5 38 12 57t69 19h31q52 0 69.5 -19t12.5 -57l-78 -827q-1 -12 -20 -12t-21 12z" />
<glyph unicode="&#x22;" horiz-adv-x="727" d="M35 825l215 500h2l151 -53l-301 -447h-67zM356 825l215 500h2l150 -53l-299 -447h-68z" />
<glyph unicode="#" horiz-adv-x="1148" d="M-4 371v71h285l104 389h-264v72h282l107 389h74l-105 -389h357l106 389h74l-107 -389h267v-72h-285l-105 -389h267v-71h-285l-104 -383h-74l104 383h-360l-103 -383h-73l102 383h-264zM354 442h359l104 389h-356z" />
<glyph unicode="$" horiz-adv-x="1019" d="M102 387h68l94 -281q20 -11 53 -20l140 516q-79 32 -129.5 58.5t-101 68.5t-75 99.5t-24.5 132.5q0 144 108.5 245t307.5 101q69 0 100 -2l55 206h76l-29 -106q-28 -109 -30 -109q37 -3 55 -10l109 31v-404h-74l-62 254q-54 20 -57 21l-121 -455q53 -20 83.5 -33 t75.5 -35t71.5 -41.5t57 -49t47 -61.5t27.5 -74.5t11 -92.5q0 -74 -32 -142t-90.5 -120.5t-147 -83.5t-193.5 -31q-59 0 -115 6l-84 -315h-73l86 324q-72 13 -160 45zM266 1018q0 -52 17.5 -93.5t52.5 -72t72 -51t90 -41.5l118 448q-73 15 -110 15q-113 0 -176.5 -60 t-63.5 -145zM385 66q89 -15 131 -13q127 0 203 69.5t76 164.5q0 50 -15 91t-37.5 69t-60.5 53t-72.5 40.5t-85.5 34.5l-69 -253z" />
<glyph unicode="%" horiz-adv-x="1527" d="M35 987q0 144 93.5 243t246.5 99q154 0 247 -99t93 -243q0 -140 -93.5 -239t-246.5 -99q-152 0 -246 99t-94 239zM131 987q0 -103 66.5 -176.5t177.5 -73.5t177 73.5t66 176.5q0 110 -65 182t-178 72t-178.5 -72t-65.5 -182zM190 -31l1045 1340h104l-1042 -1340h-107z M813 291q0 140 93.5 239t246.5 99q152 0 246 -99t94 -239q0 -144 -93.5 -243t-246.5 -99q-154 0 -247 99t-93 243zM909 291q0 -110 65.5 -182t178.5 -72t178.5 72t65.5 182q0 103 -66.5 176.5t-177.5 73.5t-177.5 -73.5t-66.5 -176.5z" />
<glyph unicode="&#x26;" horiz-adv-x="1413" d="M53 305q0 124 84.5 227t216.5 154q-90 42 -143 117.5t-53 171.5q0 136 105 234t269 98q146 0 233 -80.5t87 -192.5q0 -98 -65.5 -183t-196.5 -138q96 -41 182.5 -118.5t140.5 -170.5q13 18 36.5 52t35.5 50q74 104 74 129q3 33 -45 39l-72 11l-4 67h428l-8 -67l-66 -11 q-97 -25 -155 -104q-16 -19 -31.5 -39.5t-32.5 -43t-26 -34.5q-93 -113 -93 -117q74 -147 129.5 -206.5t130.5 -59.5q55 0 166 66l31 -54q-129 -135 -256 -135q-100 0 -168 62.5t-133 199.5q-87 -114 -199.5 -187t-238.5 -73q-165 0 -264 98.5t-99 237.5zM205 360 q0 -108 81 -187t203 -79q83 0 168.5 54t157.5 155q-68 134 -162.5 210.5t-236.5 135.5q-100 -51 -155.5 -124.5t-55.5 -164.5zM293 1026q0 -101 55.5 -168t173.5 -115q183 83 183 269q0 89 -55 153t-146 64q-95 0 -153 -59t-58 -144z" />
<glyph unicode="'" horiz-adv-x="405" d="M35 825l215 500h2l151 -53l-301 -447h-67z" />
<glyph unicode="(" horiz-adv-x="808" d="M190 428q0 143 35.5 278.5t92 238.5t130 190.5t145 145t140.5 91.5l25 -33q24 -27 24 -36q-82 -44 -164 -123.5t-156.5 -189t-121.5 -257.5t-47 -305q0 -106 22 -209.5t59.5 -189.5t86 -162.5t104 -136.5t110 -103.5t107.5 -70.5q0 -6 -24 -37q-11 -18 -25 -35 q-69 34 -140.5 91.5t-145 145t-130 190.5t-92 238.5t-35.5 278.5z" />
<glyph unicode=")" horiz-adv-x="808" d="M27 -446q65 34 130.5 90t130.5 138.5t115.5 178.5t81.5 218t31 249t-31 249t-81.5 218t-115.5 179t-130.5 139t-130.5 90q0 6 26 36l25 33q69 -34 140 -91.5t143.5 -145.5t129 -191t92 -238t35.5 -278t-35.5 -278t-92 -238t-129 -191t-143.5 -145.5t-140 -91.5l-25 33 q-26 30 -26 37z" />
<glyph unicode="*" horiz-adv-x="710" d="M66 1157l24 37l131 -25l107 -155l32 10v190l82 93l45 -15l17 -127l-119 -151l21 -27l182 62l112 -56v-45l-112 -55l-182 63l-21 -26l115 -152l-17 -127l-43 -10l-86 94l4 189l-30 8l-107 -150l-125 -26l-28 37l65 116l176 49v35l-176 54z" />
<glyph unicode="+" horiz-adv-x="983" d="M66 430l6 100h368v379h105v-379h366l7 -100h-373v-381h-105v381h-374z" />
<glyph unicode="," horiz-adv-x="462" d="M68 -322q172 129 172 271q0 32 -15.5 60.5t-38 46.5t-45 31t-38 20t-15.5 8q0 49 34.5 81.5t94.5 32.5q70 0 125 -54.5t55 -131.5q0 -61 -24 -118t-70 -108.5t-87.5 -88t-102.5 -82.5z" />
<glyph unicode="-" horiz-adv-x="671" d="M70 428l6 104h524l6 -104h-536z" />
<glyph unicode="." horiz-adv-x="466" d="M106 96q0 51 37 87t93 36q54 0 89 -36t35 -87t-35 -89t-89 -38q-56 0 -93 38t-37 89z" />
<glyph unicode="/" horiz-adv-x="571" d="M18 -432l439 1790h92l-438 -1790h-93z" />
<glyph unicode="0" horiz-adv-x="1146" d="M80 479q0 226 138.5 368t356.5 142t354 -140t136 -366t-139 -370t-355 -144q-217 0 -354 141.5t-137 368.5zM197 483q0 -177 105.5 -289t272.5 -112t270 110.5t103 286.5q0 175 -105.5 286.5t-271.5 111.5t-270 -109.5t-104 -284.5z" />
<glyph unicode="1" horiz-adv-x="749" d="M86 864l6 60l369 59v-856q0 -31 37 -37l149 -20l6 -70h-522l6 70l146 20q34 12 34 37v725z" />
<glyph unicode="2" horiz-adv-x="954" d="M68 106q239 184 307 243q176 152 206 261q7 26 7 52q0 82 -58.5 139t-158.5 57q-71 0 -134.5 -40.5t-105.5 -100.5l-39 24q47 117 142 182.5t219 65.5q125 0 214 -76t89 -196q0 -42 -11.5 -81t-34.5 -76.5t-54.5 -73.5t-76.5 -75t-95.5 -77.5t-115 -84.5t-132.5 -94 q-19 -13 -29 -20v-10h117q104 0 168 1t118.5 6t82.5 11.5t51 21t33.5 30.5t21.5 43l37 92h63l-25 -330h-798z" />
<glyph unicode="3" horiz-adv-x="856" d="M25 -270q0 42 27 69t69 27q53 0 93.5 -44.5t51.5 -103.5q27 -6 58 -6q121 0 214 88.5t93 221.5q0 125 -73.5 199.5t-197.5 74.5q-94 0 -172 -37l-22 53l66.5 42t68.5 44t61.5 42t60 46t47 46t40.5 51t23 52t10 58q0 86 -58.5 147.5t-154.5 61.5q-138 0 -244 -143 q-8 0 -37 20q-6 4 -4 4q46 115 149 180.5t228 65.5q128 0 210.5 -75.5t82.5 -186.5q0 -102 -66.5 -184.5t-210.5 -169.5v-4q155 0 255 -86t100 -226q0 -117 -72.5 -225.5t-196 -176t-262.5 -67.5q-108 0 -172.5 42t-64.5 100z" />
<glyph unicode="4" horiz-adv-x="952" d="M14 119l652 862h69v-811h230l-15 -123h-215v-424h-145v424h-570zM141 170h449v590h-6z" />
<glyph unicode="5" horiz-adv-x="858" d="M23 -276q0 43 28 69.5t68 26.5q55 0 93.5 -42t49.5 -102q15 -4 57 -4q127 0 216.5 92.5t89.5 221.5q0 274 -521 415l144 562h540l-4 -154h-489l-72 -287q539 -148 539 -473q0 -121 -68.5 -227.5t-185.5 -170t-250 -63.5q-103 0 -169 39t-66 97z" />
<glyph unicode="6" horiz-adv-x="1024" d="M78 465q0 167 71 322t190.5 269.5t279.5 189.5t333 89l15 -59q-141 -20 -260 -76t-205 -138t-145.5 -182.5t-90.5 -215.5l4 -2q61 57 142 91.5t159 34.5q114 0 200 -53.5t128.5 -140.5t42.5 -193q0 -194 -125.5 -316t-314.5 -122q-98 0 -179.5 41.5t-134 112t-81.5 160.5 t-29 188zM242 459q0 -107 35.5 -201.5t106.5 -155.5t161 -61q112 0 179 90t67 215q0 150 -82 245t-201 95q-140 0 -248 -100q-7 -10 -12.5 -49t-5.5 -78z" />
<glyph unicode="7" horiz-adv-x="946" d="M55 637l41 326h803l10 -89l-635 -1253h-106l614 1188v10h-360q-53 0 -80.5 -0.5t-57.5 -1t-43 -3.5t-27 -6.5t-20 -11t-11 -15t-11 -21.5q-17 -34 -25 -58q-17 -37 -26 -65h-66z" />
<glyph unicode="8" horiz-adv-x="997" d="M82 301q0 216 283 336v2q-57 30 -98 59t-78.5 68t-56.5 88.5t-19 108.5q0 63 26.5 123.5t75 110t125.5 80t170 30.5q149 0 254.5 -91.5t105.5 -226.5q0 -201 -241 -311v-2q65 -33 110 -62t88.5 -71t65.5 -96.5t22 -120.5q0 -154 -118.5 -255.5t-321.5 -101.5 q-162 0 -277.5 95.5t-115.5 236.5zM231 311q0 -119 81 -197.5t210 -78.5q119 0 188.5 66.5t69.5 166.5q0 61 -23.5 109t-81 90.5t-95.5 63t-125 62.5q-26 13 -39 19q-185 -132 -185 -301zM250 1022q0 -46 18.5 -86.5t44.5 -70t74 -61.5t85.5 -52t100.5 -50q78 56 115 120.5 t37 154.5q0 67 -29.5 127.5t-88.5 100.5t-134 40q-99 0 -161 -65.5t-62 -157.5z" />
<glyph unicode="9" horiz-adv-x="1024" d="M55 -315q141 20 260 76t204.5 138.5t145 182t93.5 215.5l-6 2q-61 -58 -142 -92.5t-159 -34.5q-168 0 -269.5 111.5t-101.5 275.5q0 195 125.5 315.5t314.5 120.5q131 0 229.5 -71.5t146.5 -183t48 -244.5q0 -223 -121 -417.5t-321 -314.5t-432 -139zM233 612 q0 -150 81 -245t200 -95q137 0 248 103q18 25 18 127q0 106 -35 199.5t-105.5 155t-160.5 61.5q-114 0 -180 -88.5t-66 -217.5z" />
<glyph unicode=":" horiz-adv-x="462" d="M106 96q0 51 37 87t93 36q54 0 89 -36t35 -87t-35 -89t-89 -38q-56 0 -93 38t-37 89zM106 731q0 51 37 87t93 36q54 0 89 -36t35 -87t-35 -88t-89 -37q-56 0 -93 37t-37 88z" />
<glyph unicode=";" horiz-adv-x="462" d="M68 -322q172 129 172 271q0 32 -15.5 60.5t-38 46.5t-45 31t-38 20t-15.5 8q0 49 34.5 81.5t94.5 32.5q70 0 125 -54.5t55 -131.5q0 -61 -24 -118t-70 -108.5t-87.5 -88t-102.5 -82.5zM106 731q0 51 37 87t93 36q54 0 89 -36t35 -87t-35 -88t-89 -37q-56 0 -93 37t-37 88 z" />
<glyph unicode="&#x3c;" horiz-adv-x="983" d="M59 457v49l820 385l24 -92l-667 -312v-10l667 -313l-24 -92z" />
<glyph unicode="=" horiz-adv-x="983" d="M86 250l6 104h799l6 -104h-811zM86 711h811l-6 -105h-799z" />
<glyph unicode="&#x3e;" horiz-adv-x="983" d="M80 164l668 313v10l-668 312l24 92l820 -385v-49l-820 -385z" />
<glyph unicode="?" horiz-adv-x="731" d="M109 1202q0 47 42 77t109 30q162 0 275.5 -103.5t113.5 -234.5q0 -48 -11.5 -86.5t-28.5 -64t-48 -47.5t-58.5 -35.5t-70.5 -30.5q-35 -13 -53.5 -20.5t-45 -22t-40 -28.5t-23.5 -35.5t-10 -47.5q0 -47 27.5 -87t79.5 -89h-62q-26 23 -44 41t-43.5 49.5t-39.5 66.5 t-14 72q0 30 7 55.5t16.5 44.5t28.5 38t35 31t44.5 27.5t47 24t52.5 23.5q35 14 45.5 18.5t38.5 17.5t38 21.5t25.5 22t21 28t5.5 31.5q0 69 -88.5 116.5t-226.5 47.5q-65 0 -127 -12q-18 25 -18 61zM193 86q0 46 33 79.5t85 33.5q50 0 82.5 -33.5t32.5 -79.5 q0 -48 -32.5 -82.5t-82.5 -34.5q-53 0 -85.5 34t-32.5 83z" />
<glyph unicode="@" horiz-adv-x="1708" d="M94 537q6 159 74 303.5t177.5 248t257.5 163t308 55.5q155 -4 292.5 -58t237.5 -145.5t154.5 -224.5t46.5 -285q-12 -226 -141.5 -372t-310.5 -146q-57 0 -99.5 11t-63.5 28t-34 38t-12 41.5t4 38.5l72 314h-27q-64 -123 -124 -216t-127 -159t-120 -66q-81 0 -143.5 63 t-62.5 136q0 124 72 293t165 262q94 94 201 94q72 0 126.5 -44t78.5 -117h22l51 137h97l-117 -334l-45 -365q-6 -38 20.5 -61t89.5 -23q141 0 240 129t107 318q8 181 -78 327t-237.5 227.5t-338.5 86.5q-142 4 -274.5 -51t-230.5 -150t-159 -224.5t-67 -270.5 q-8 -153 40.5 -288.5t138 -230t214.5 -149.5t265 -55q120 0 251 41l21 -68q-140 -47 -279 -47q-157 0 -295.5 59.5t-238 163.5t-153.5 253t-46 319zM592 334q0 -65 36.5 -99t76.5 -34q74 0 321 436q9 18 17 46.5t8 35.5q-25 51 -82 99t-119 48q-56 0 -88 -32 q-58 -58 -114 -224.5t-56 -275.5z" />
<glyph unicode="A" horiz-adv-x="1222" d="M-33 0l6 70l82 14q34 9 53.5 27.5t47 78t71.5 187.5l285 803v65l170 72l395 -1188q9 -33 51 -39l121 -20l6 -70h-526l6 70l117 14q28 5 36 18.5t3.5 42t-25.5 93.5l-75 225h-443l-74 -223q-30 -84 -30 -116q0 -33 37 -40l102 -14l6 -70h-422zM377 547h387l-182 575h-11z " />
<glyph unicode="B" horiz-adv-x="1181" d="M86 0l6 70l107 12q53 6 53 29v1060q0 12 -10.5 17t-42.5 10l-107 12l-6 70h522q98 0 176 -15.5t128.5 -41.5t83.5 -63t47 -77t14 -86q0 -123 -86 -213.5t-226 -115.5v-9q178 -19 268.5 -104t90.5 -207q0 -170 -132 -259t-372 -89h-514zM420 102l160 -28l59 2 q124 8 205.5 73.5t81.5 184.5q0 138 -103.5 211t-275.5 73h-127v-516zM420 694l162 2q74 0 132 22.5t92.5 59.5t52.5 80t18 88q0 260 -328 260h-129v-512z" />
<glyph unicode="C" horiz-adv-x="1359" d="M94 621q0 156 54.5 286t149.5 217.5t224.5 136t278.5 48.5q156 0 284 -39l156 33v-416h-86l-53 266q-133 76 -314 76q-224 0 -365.5 -164t-141.5 -418q0 -177 61.5 -311.5t182.5 -211.5t286 -77q150 0 264 62l86 276h90l-49 -387l-94 20q-149 -49 -315 -49 q-198 0 -355.5 76.5t-250.5 226t-93 349.5z" />
<glyph unicode="D" horiz-adv-x="1390" d="M86 0l6 70l107 12q53 6 53 29v1060q0 12 -10.5 17t-42.5 10l-107 12l-6 70l455 6h15q334 0 536 -170q206 -174 206 -450q0 -135 -48 -254t-140 -211.5t-239 -146.5t-332 -54h-453zM420 102l164 -26q164 3 285.5 76t183 193.5t61.5 272.5q0 270 -160.5 429t-455.5 159h-78 v-1104z" />
<glyph unicode="E" horiz-adv-x="1193" d="M86 0l6 70l107 12q53 6 53 29v1060q0 12 -10.5 17t-42.5 10l-107 12l-6 70h983v-371h-88l-45 207q-10 35 -20 49t-60 25t-122 12.5t-236 1.5h-78v-514h78q131 0 165.5 6t41.5 33l45 137h71l-43 -426h-67l-17 131q0 19 -11 27t-54 13t-135 5h-74v-540h55q114 0 185 1 t126.5 5.5t82 9t46.5 16.5t26.5 23t14.5 33l52 198h100l-39 -362h-983z" />
<glyph unicode="F" horiz-adv-x="1140" d="M86 0l6 70l107 12q53 6 53 29v1060q0 12 -10.5 17t-42.5 10l-107 12l-6 70h969v-371h-90l-43 207q-4 14 -7 22.5t-10 18t-13 14.5t-21 11t-29 9t-41 6t-53 4t-70 2t-87 1h-108h-63v-526h94q95 0 130.5 2.5t52 9.5t24.5 27l47 137h70l-43 -426h-68l-14 131q-3 19 -14.5 27 t-54.5 13t-134 5h-90v-495q0 -12 11 -17t42 -10l148 -12l6 -70h-541z" />
<glyph unicode="G" horiz-adv-x="1449" d="M94 621q0 208 98 366.5t260 240t361 81.5q160 0 283 -39l155 33v-416h-86l-53 266q-133 76 -315 76q-222 0 -369 -165.5t-147 -416.5q0 -177 60 -311.5t179 -211.5t283 -77q143 0 262 51v359q0 12 -10 16.5t-43 9.5l-129 13l-6 67h520l-6 -67l-107 -13q-53 -9 -53 -30 v-320l119 -10l4 -53q-301 -101 -559 -101q-201 0 -358.5 76.5t-250 226t-92.5 349.5z" />
<glyph unicode="H" horiz-adv-x="1501" d="M86 0l6 70l107 12q53 6 53 29v1060q0 12 -10.5 17t-42.5 10l-107 12l-6 70h500l-6 -70l-107 -12q-53 -6 -53 -29v-471h661v473q0 13 -9.5 17.5t-43.5 9.5l-106 12l-7 70h500l-6 -70l-106 -12q-54 -6 -54 -29v-1060q0 -12 10.5 -17t43.5 -10l106 -12l6 -70h-500l7 70 l106 12q53 6 53 29v503h-661v-505q0 -12 11 -17t42 -10l107 -12l6 -70h-500z" />
<glyph unicode="I" horiz-adv-x="718" d="M90 0l6 70l127 12q53 6 53 29v1060q0 12 -10.5 17t-42.5 10l-127 12l-6 70h541l-6 -70l-127 -12q-54 -6 -54 -29v-1060q0 -12 11 -17t43 -10l127 -12l6 -70h-541z" />
<glyph unicode="J" horiz-adv-x="796" d="M2 96q0 41 26 64.5t68 23.5q55 0 94 -39t56 -106h2q55 14 86.5 52.5t49 130t17.5 251.5v698q0 13 -9.5 17.5t-43.5 9.5l-141 12l-6 70h549l-7 -70l-118 -12q-31 -4 -42.5 -10.5t-11.5 -18.5v-665q0 -258 -96 -396.5t-276 -138.5q-90 0 -143.5 35.5t-53.5 91.5z" />
<glyph unicode="K" horiz-adv-x="1296" d="M86 0l6 70l107 12q53 6 53 29v1060q0 12 -10.5 17t-42.5 10l-107 12l-6 70h500l-6 -70l-107 -12q-53 -6 -53 -29v-561l440 443q85 83 85 119q0 14 -12 21q-11 5 -30 7l-104 12l-6 70h489l-6 -70l-86 -10q-36 -6 -69 -27t-85 -73l-364 -363l440 -590q29 -38 46 -50.5 t48 -16.5l74 -10l6 -70h-452l6 70l80 12q22 8 0 45l-361 508l-139 -137v-389q0 -12 11 -17t42 -10l107 -12l6 -70h-500z" />
<glyph unicode="L" horiz-adv-x="1157" d="M86 0l6 70l107 12q53 6 53 29v1060q0 12 -10.5 17t-42.5 10l-107 12l-6 70h518l-6 -70l-125 -12q-53 -6 -53 -29v-1093h51q128 0 201 2t125.5 6.5t76 16t34 24.5t18.5 39l61 244h94l-45 -408h-950z" />
<glyph unicode="M" horiz-adv-x="1728" d="M29 0l8 70l137 14q19 3 28 19.5t17.5 79t16.5 194.5l34 674q1 10 1 20q0 103 -60 117l-145 22l-7 70h439l362 -987h10l355 987h428l-4 -70l-152 -10q-33 -2 -37 -49l29 -780q3 -116 9.5 -180t15.5 -86t24 -25l129 -10l6 -70h-522l6 70l133 10q15 2 23 27t11 89q1 22 1 49 q0 53 -4 126l-29 794h-14l-412 -1124h-86l-399 1083h-21l-34 -747q-7 -177 -7 -236q0 -20 1 -26q7 -29 24 -31l135 -14l6 -70h-456z" />
<glyph unicode="N" horiz-adv-x="1507" d="M76 0l6 70l123 16q12 2 19.5 4t15.5 8.5t12 14t8 24t5.5 34.5t2.5 50.5t1.5 67.5t0.5 88v676q0 65 -13.5 93t-49.5 46l-117 18l-6 70h354l738 -1032h6v655q0 85 -1.5 131.5t-4.5 81t-11.5 48.5t-18.5 20.5t-30 9.5l-123 16l-6 70h473l-6 -70l-123 -16q-32 -5 -44.5 -23.5 t-17.5 -74.5t-5 -193v-919h-99l-805 1126h-8v-733q0 -85 1.5 -131.5t4.5 -81t11.5 -48.5t18.5 -20.5t30 -9.5l123 -16l6 -70h-471z" />
<glyph unicode="O" horiz-adv-x="1513" d="M94 629q0 136 50.5 260.5t138 216.5t212.5 146.5t265 54.5q186 0 336 -82.5t236.5 -234.5t86.5 -345q0 -136 -50.5 -260t-138 -215.5t-211.5 -146t-265 -54.5q-140 0 -262 48.5t-209.5 134t-138 209t-50.5 268.5zM281 651q0 -140 39 -256.5t105.5 -193t152.5 -118.5 t182 -42t181.5 39.5t150.5 112.5t103 184t38 246q0 140 -39.5 256.5t-106 193t-153 118.5t-182.5 42t-181 -39.5t-149.5 -112.5t-102.5 -184t-38 -246z" />
<glyph unicode="P" horiz-adv-x="1146" d="M86 0l6 70l107 12q53 6 53 29v1060q0 12 -10.5 17t-42.5 10l-107 12l-6 70h496q246 0 375.5 -98t129.5 -252q0 -127 -67 -222t-177.5 -142.5t-248.5 -47.5q-82 0 -174 10v-419q0 -12 11 -17t42 -10l145 -12l7 -70h-539zM420 610q73 -20 166 -20q148 0 234.5 82.5 t86.5 224.5q0 145 -89 227q-87 80 -236 80h-7h-108q-33 0 -47 -2v-592z" />
<glyph unicode="Q" horiz-adv-x="1513" d="M94 629q0 136 50.5 260.5t138 216.5t212.5 146.5t265 54.5q186 0 336 -82.5t236.5 -234.5t86.5 -345q0 -232 -136.5 -413.5t-354.5 -239.5q69 -120 156 -183.5t193 -76.5q49 -7 103 -7q65 0 138 9l6 -66q-117 -37 -260 -37q-196 0 -316.5 77t-214.5 261 q-134 2 -251.5 51.5t-203 135t-135 208.5t-49.5 265zM281 651q0 -140 39 -256.5t105.5 -193t152.5 -118.5t182 -42t181.5 39.5t150.5 112.5t103 184t38 246q0 140 -39.5 256.5t-106 193t-153 118.5t-182.5 42t-181 -39.5t-149.5 -112.5t-102.5 -184t-38 -246z" />
<glyph unicode="R" horiz-adv-x="1210" d="M86 0l6 70l107 12q53 6 53 29v1060q0 12 -10.5 17t-42.5 10l-107 12l-6 70h524q226 0 338.5 -84t112.5 -229q0 -134 -80 -226t-223 -141l278 -430q34 -50 53.5 -65.5t45.5 -20.5l84 -14l6 -70h-301l-78 141l-250 426q-33 -2 -88 -2h-88v-456q0 -12 11 -17t42 -10l117 -12 l6 -70h-510zM420 651q19 0 29 -2q23 -3 59 -6q41 -3 86 -6q133 14 209 88t76 205q0 142 -80 211q-70 60 -202 60q-19 0 -40 -1q-47 0 -78 -2q-18 -2 -59 -2v-545z" />
<glyph unicode="S" horiz-adv-x="1032" d="M90 387h82l86 -283q52 -24 122.5 -39.5t129.5 -15.5q133 0 210 71.5t77 170.5q0 50 -15.5 90t-40 68.5t-69 55t-87 44.5t-110.5 43q-70 28 -114.5 48t-96 53t-80 68t-48 86t-19.5 114q0 69 26 130.5t76.5 110.5t133 78t186.5 29h20q124 0 219 -23l107 31v-404h-82 l-58 263q-112 51 -233 51q-118 0 -183 -62t-65 -151q0 -47 15.5 -85.5t40.5 -65t67 -51t83 -42.5t99 -41q3 -1 4 -1.5t3 -1t4 -1.5q50 -18 86 -33t77 -36t69 -41.5t55.5 -48.5t44 -59.5t26.5 -72.5t10 -88q0 -156 -129.5 -266.5t-339.5 -110.5h-12q-169 0 -346 56z" />
<glyph unicode="T" horiz-adv-x="1253" d="M51 887l35 393h1096v-393h-88l-45 215q-7 33 -17 49t-43 30t-94.5 18.5t-169.5 4.5h-14v-1095q0 -12 11 -17t42 -10l139 -12l6 -70h-565l6 70l139 12q54 6 54 29v1093h-15q-145 0 -207 -7t-86 -23.5t-36 -57.5l-56 -229h-92z" />
<glyph unicode="U" horiz-adv-x="1456" d="M70 1280h499l-6 -70l-106 -12q-54 -6 -54 -29v-708q0 -387 375 -387q169 0 259.5 97.5t90.5 262.5v469q0 53 -0.5 88t-1.5 67.5t-2.5 50.5t-5.5 34.5t-8 24t-12 14t-15.5 8.5t-19.5 4l-123 16l-6 70h471l-6 -70l-121 -16q-32 -5 -44.5 -23.5t-18 -74.5t-5.5 -193v-479 q0 -212 -131 -333.5t-358 -121.5q-232 0 -358.5 116t-126.5 355v731q0 12 -10.5 17t-43.5 10l-106 12z" />
<glyph unicode="V" horiz-adv-x="1257" d="M-35 1280h527l-7 -70l-116 -14q-37 -7 -37 -29t26 -103q4 -13 7 -22l301 -899h18l256 760q40 117 49 182q3 24 3 43q0 32 -9 46q-15 24 -55 26l-78 10l-6 70h446l-6 -70l-80 -14q-23 -5 -37 -13t-27.5 -22t-29.5 -50t-32.5 -79.5t-47.5 -128.5l-315 -907h-168l-404 1155 q-5 17 -15.5 26t-33.5 13l-123 20z" />
<glyph unicode="W" horiz-adv-x="1880" d="M-31 1280h527l-7 -70l-116 -14q-20 -3 -28.5 -9.5t-7.5 -26.5t7.5 -43t24.5 -75l256 -831h8l278 790l-49 150q-5 17 -16 26t-35 13l-117 20l-6 70h520l-6 -70l-121 -14q-34 -6 -34 -35.5t30 -118.5l271 -833l6 2l207 692q42 131 52 189q5 27 5 45q0 20 -6 30 q-11 18 -51 27l-107 16l-6 70h457l-7 -70l-73 -14q-35 -11 -52 -28.5t-41 -73t-69 -191.5l-287 -907h-119l-296 885h-5l-309 -885h-121l-381 1155q-5 17 -15.5 26t-33.5 13l-121 20z" />
<glyph unicode="X" horiz-adv-x="1265" d="M2 0l6 70l92 14q36 10 61.5 32.5t63.5 73.5l326 453l-356 508q-11 14 -28 26t-30 13l-106 20l-8 70h509l-6 -70l-100 -12q-40 -6 -40 -29q1 -22 54 -106q3 -4 8 -12l7 -11l198 -295h9l225 342q33 48 33 76q0 29 -37 35l-95 12l-6 70h443l-6 -70l-91 -14 q-37 -10 -64.5 -33t-62.5 -73l-290 -408l391 -553q24 -30 57 -39l107 -20l6 -70h-510l6 70l102 12q37 5 37 26q0 24 -59 114l-12 18l-228 342h-8l-256 -387q-34 -47 -34 -75q0 -30 40 -36l90 -14l9 -70h-447z" />
<glyph unicode="Y" horiz-adv-x="1228" d="M-14 1280h499l-6 -70l-102 -12q-31 -4 -31 -32q0 -11 4 -25q11 -35 51 -101l246 -407h10l267 454q21 36 25.5 59.5t-6 36t-36.5 17.5l-78 10l-6 70h414l-6 -70l-62 -10q-46 -13 -75.5 -35t-63.5 -75l-321 -533v-448q0 -12 10.5 -17t42.5 -10l139 -12l6 -70h-567l6 70 l141 12q54 6 54 29v426l-381 602q-32 46 -84 57l-84 14z" />
<glyph unicode="Z" horiz-adv-x="1136" d="M68 0v70l806 1126v8h-231q-140 0 -216.5 -4.5t-119 -20.5t-54.5 -34t-24 -58l-41 -186h-82v379h967v-72l-805 -1126l-2 -8l234 2q152 0 235 4t129.5 18t60 30.5t25.5 51.5l51 203h95l-43 -383h-985z" />
<glyph unicode="[" horiz-adv-x="753" d="M195 -451v1784h516v-86h-416v-1612h416v-86h-516z" />
<glyph unicode="\" horiz-adv-x="571" d="M20 1358h93l438 -1790h-92z" />
<glyph unicode="]" horiz-adv-x="753" d="M43 -365h416v1612h-416v86h516v-1784h-516v86z" />
<glyph unicode="^" d="M143 1040l228 398h78l227 -398h-55l-209 252h-4l-209 -252h-56z" />
<glyph unicode="_" horiz-adv-x="962" d="M-16 -106l6 104h983l6 -104h-995z" />
<glyph unicode="`" d="M127 1417h186l197 -377h-45z" />
<glyph unicode="a" horiz-adv-x="913" d="M70 709q0 48 59.5 104t149.5 94.5t170 38.5q173 0 237 -86q58 -78 58 -270q0 -21 -1 -43l-16 -391v-8q0 -64 45 -64q35 0 105 57l34 -45q-100 -127 -190 -127q-59 0 -95 38t-36 114h-8q-71 -74 -130 -113t-126 -39q-103 0 -176.5 68t-73.5 170q0 126 121 207.5t401 148.5 v19q0 157 -50.5 216.5t-158.5 59.5q-56 0 -109 -17.5t-53 -35.5q0 -3 10.5 -16t20.5 -34.5t10 -43.5q0 -37 -28.5 -65t-71.5 -28t-70.5 25t-27.5 66zM225 242q0 -72 44 -115t112 -43q50 0 97 26.5t104 79.5l12 308q-200 -53 -284.5 -113.5t-84.5 -142.5z" />
<glyph unicode="b" horiz-adv-x="1050" d="M-16 1303l6 51l313 73v-639h8q60 65 137 105.5t160 40.5q165 0 268 -127t103 -320q0 -139 -56 -256t-166 -189.5t-253 -72.5q-44 0 -112 14.5t-116 32.5h-4l-92 -59h-22v1262q0 32 -21 38zM303 162q121 -113 236 -113q121 0 201.5 106t80.5 275q0 172 -75.5 276.5 t-198.5 104.5q-137 0 -244 -123v-526z" />
<glyph unicode="c" horiz-adv-x="905" d="M70 430q0 147 65.5 265.5t174 183.5t237.5 65q133 0 213 -56.5t80 -133.5q0 -55 -31 -80t-74 -25q-57 0 -87 52q-17 29 -17 67q0 28 10 61v5q-49 36 -129 36q-123 0 -205 -102.5t-82 -265.5q0 -173 91 -287.5t231 -114.5q157 0 262 125l41 -24q-56 -110 -152 -170 t-217 -60q-179 0 -295 129t-116 330z" />
<glyph unicode="d" horiz-adv-x="1077" d="M70 430q0 140 60 255.5t172.5 184t256.5 68.5q96 0 184 -37h5v359q0 30 -19 36l-160 37l9 49l315 45v-1300q0 -33 20 -39l146 -33l-6 -49l-305 -37v137h-7q-124 -135 -288 -135q-163 0 -273 130t-110 329zM229 483q0 -178 79.5 -283.5t213.5 -105.5q125 0 226 94v549 q-56 56 -111.5 87.5t-124.5 31.5q-127 0 -205 -103t-78 -270z" />
<glyph unicode="e" horiz-adv-x="935" d="M70 430q0 147 64 265.5t171.5 183.5t233.5 65q145 0 230 -81t85 -216q0 -56 -10 -108l-617 8q-2 -8 -2 -49q0 -173 90.5 -285.5t231.5 -112.5q157 0 262 125l41 -24q-56 -110 -152 -170t-217 -60q-179 0 -295 129t-116 330zM236 608q88 2 231 2h223q1 15 1 28 q0 102 -45 164q-51 70 -144 70q-88 0 -165 -72.5t-101 -191.5z" />
<glyph unicode="f" horiz-adv-x="638" d="M25 821l12 90h149l2 52q5 133 65 240.5t155 165.5t204 58q74 0 126.5 -34t52.5 -88q0 -42 -25.5 -67.5t-63.5 -25.5q-43 0 -77.5 33t-51.5 94l-2 11l-51 4q-178 -73 -178 -377v-66h285l-15 -94h-270v-711q0 -26 57 -28l136 -8l6 -70h-488l6 70l86 8q52 3 52 31v704z" />
<glyph unicode="g" horiz-adv-x="940" d="M20 -274q0 155 193 241v8q-56 10 -93.5 53t-37.5 95q0 58 47.5 110.5t118.5 85.5q0 7 2 7h2q-81 37 -128.5 109t-47.5 173q0 142 104 239t258 97q121 0 230 -51l278 -2v-119l-219 39v-10q64 -77 64 -183q0 -134 -105 -229.5t-256 -95.5q-72 0 -113 12 q-35 -17 -65.5 -45.5t-30.5 -60.5q0 -41 36 -68t93 -27q37 0 128.5 2.5t109.5 2.5q135 0 218 -75.5t83 -187.5q0 -160 -143 -262t-363 -102q-165 0 -264 67.5t-99 176.5zM160 -227q0 -100 84.5 -157.5t214.5 -57.5q128 0 210.5 64t82.5 159q0 174 -222 182q-32 0 -91.5 -2 t-145.5 -2q-44 -15 -88.5 -67t-44.5 -119zM229 635q0 -156 88 -234q52 -43 115 -43q88 0 133 45q74 65 74 211q0 142 -74 213q-55 52 -129 52q-93 0 -150 -68.5t-57 -175.5z" />
<glyph unicode="h" horiz-adv-x="1081" d="M8 1303l6 51l308 73v-630h10q174 147 327 147q107 0 172 -65q76 -76 76 -228v-542q0 -13 11.5 -20t50.5 -11l80 -8l6 -70h-434l6 70l84 8q30 1 40.5 8.5t10.5 22.5v446q0 145 -49.5 204.5t-147.5 59.5q-119 0 -243 -102v-252v-359q0 -13 11 -20t44 -8l94 -8l6 -70h-442 l6 70l82 8q51 3 51 31v1105q0 37 -22 43z" />
<glyph unicode="i" horiz-adv-x="544" d="M49 821l4 56l293 67v-838q0 -26 57 -28l86 -8l7 -70h-439l6 70l87 8q51 3 51 31v575q0 51 -6.5 74.5t-19 32.5t-44.5 18zM147 1243q0 48 27 81.5t78 33.5t77.5 -32.5t26.5 -82.5q0 -48 -26.5 -81.5t-77.5 -33.5t-78 33.5t-27 81.5z" />
<glyph unicode="j" horiz-adv-x="516" d="M-131 -414q0 40 30 68.5t68 28.5q91 0 129 -121q99 32 99 274v848q0 51 -6.5 74.5t-19 32.5t-44.5 18l-82 12l4 56l293 67v-1012q-12 -210 -107.5 -338.5t-216.5 -128.5q-64 0 -105.5 31t-41.5 90zM141 1243q0 48 27 81.5t78 33.5t77.5 -32.5t26.5 -82.5 q0 -48 -26.5 -81.5t-77.5 -33.5t-78 33.5t-27 81.5z" />
<glyph unicode="k" horiz-adv-x="993" d="M8 1303l6 51l308 73v-964l217 203q39 36 59 55t37.5 42t17.5 38q0 29 -57 39l-66 6l-6 67h426l-6 -67l-51 -8q-38 -4 -79.5 -33.5t-129.5 -108.5l-166 -151l293 -400q38 -48 53 -58q13 -8 27 -9l80 -8l6 -70h-264l-107 174l-192 277l-92 -84v-261q0 -12 10.5 -18 t44.5 -10l80 -8l6 -70h-428l6 70l82 8q32 5 41.5 10t9.5 21v1105q0 37 -22 43z" />
<glyph unicode="l" horiz-adv-x="546" d="M27 1303l6 51l311 73v-1321q0 -26 57 -28l86 -8l7 -70h-439l6 70l86 8q52 3 52 31v1105q0 36 -23 43z" />
<glyph unicode="m" horiz-adv-x="1654" d="M49 821l2 56l295 67v-147h6q167 147 314 147q101 0 165 -61q42 -42 60 -101h8q175 162 326 162q107 0 172 -65q76 -76 76 -224v-546q0 -14 10.5 -20.5t48.5 -10.5l80 -8l6 -70h-430l6 70l80 8q30 1 40.5 8.5t10.5 22.5v452q0 258 -188 258q-58 0 -120 -30.5t-110 -73.5 q0 -8 1 -60.5t1 -60.5v-485q0 -13 11 -20t49 -11l86 -8l6 -70h-436l6 70l80 8q30 1 40.5 8.5t10.5 22.5v452q0 258 -189 258q-58 0 -118.5 -29.5t-108.5 -70.5v-256v-357q0 -13 11 -20t44 -8l99 -8l6 -70h-447l7 70l81 8q52 3 52 31v575q0 72 -12 92t-56 33z" />
<glyph unicode="n" horiz-adv-x="1110" d="M49 821l2 56l295 67v-147h10q174 147 328 147q107 0 172 -65q76 -76 76 -228v-542q0 -13 11.5 -20t49.5 -11l82 -8l6 -70h-436l6 70l84 8q30 1 40.5 8.5t10.5 22.5v446q0 145 -49 204.5t-147 59.5q-120 0 -244 -102v-252v-359q0 -13 11 -20t44 -8l95 -8l6 -70h-443l7 70 l81 8q52 3 52 31v579q0 69 -11 89t-53 32z" />
<glyph unicode="o" horiz-adv-x="1060" d="M72 453q0 209 138 350t337 141q196 0 320 -132t124 -335q0 -216 -135.5 -362t-337.5 -146q-200 0 -323 137t-123 347zM233 498q0 -248 113 -367q82 -82 193 -82q125 0 208.5 101.5t83.5 265.5q0 250 -110 366q-84 84 -195 84q-127 0 -210 -102t-83 -266z" />
<glyph unicode="p" horiz-adv-x="1073" d="M29 821l4 56l293 67v-156h8q60 65 137 105.5t160 40.5q165 0 267.5 -127t102.5 -320q0 -139 -56 -256t-165.5 -189.5t-251.5 -72.5q-110 0 -198 37h-4v-403q0 -14 11.5 -21t45.5 -8l106 -8l7 -70h-459l6 70l84 8q51 3 51 31v1083q0 70 -10.5 89.5t-52.5 31.5zM326 162 q121 -113 235 -113q120 0 201.5 106.5t81.5 274.5q0 171 -76 276t-199 105q-136 0 -243 -123v-526z" />
<glyph unicode="q" horiz-adv-x="1052" d="M70 430q0 140 60 255.5t172.5 184t256.5 68.5q112 0 215 -49h4l92 57h23v-1341q0 -13 11.5 -20t49.5 -11l82 -8l6 -70h-458l6 70l106 8q30 1 41 8.5t11 22.5v501h-7q-124 -135 -288 -135q-163 0 -273 130t-110 329zM229 483q0 -178 79.5 -283.5t213.5 -105.5 q125 0 226 94v549q-56 56 -111.5 87.5t-124.5 31.5q-127 0 -205 -103t-78 -270z" />
<glyph unicode="r" horiz-adv-x="757" d="M51 821l4 56l291 67v-266h8q92 150 153 209t128 59q54 0 84.5 -29.5t30.5 -74.5t-26 -75t-71 -30q-31 0 -57.5 19t-40.5 47q-51 -31 -113.5 -98.5t-95.5 -137.5v-461q0 -13 11 -20t44 -8l109 -8l6 -70h-457l7 70l81 8q52 3 52 31v579q0 69 -11 89t-53 32z" />
<glyph unicode="s" horiz-adv-x="823" d="M100 276h93l43 -182q75 -53 167 -53q79 0 141 48.5t62 123.5q0 30 -13.5 55t-31.5 42t-53 35t-60 27.5t-71 26.5q-48 17 -81 31.5t-72 39.5t-62.5 52.5t-39.5 68.5t-16 91q0 109 86 187.5t234 78.5q94 0 199 -33l61 21l16 -287h-90l-39 178q-76 50 -163 50 q-77 0 -125.5 -41t-48.5 -105q0 -36 15 -63t49.5 -49t67.5 -37t93 -37q48 -17 82 -32t73 -40t63 -53t40 -69t16 -91q0 -121 -94 -206t-262 -85q-163 0 -266 43z" />
<glyph unicode="t" horiz-adv-x="702" d="M18 821l2 60l140 84l96 129l72 -9l-2 -174h331l-14 -94h-317l-13 -545v-17q-1 -85 37 -125q42 -44 127 -44q78 0 172 53l13 -53q-50 -52 -122 -84.5t-139 -32.5q-109 0 -171.5 65.5t-61.5 201.5l12 577z" />
<glyph unicode="u" horiz-adv-x="1077" d="M20 913h306l-15 -553q0 -147 49.5 -206.5t147.5 -59.5q122 0 244 105v323v285q0 14 -11 20.5t-45 10.5l-102 8l-6 67h311v-786q0 -33 19 -39l147 -33l-6 -49l-307 -37v150h-11q-177 -150 -327 -150q-104 0 -172 68q-76 70 -76 225l4 545q0 8 -1.5 12.5t-3.5 7.5t-8 4.5 t-11.5 2t-18 1.5t-23.5 3l-77 8z" />
<glyph unicode="v" horiz-adv-x="942" d="M-37 913h428l-6 -67l-76 -10q-27 -5 -37 -17t0 -39l242 -626l211 577q16 42 16 64q-1 5 -1 9q-4 22 -44 27l-80 15l-6 67h367l-6 -67l-68 -15q-34 -5 -51 -24t-41 -84l-283 -737h-102l-311 786q-13 32 -28 42.5t-52 16.5l-64 13z" />
<glyph unicode="w" horiz-adv-x="1413" d="M-29 913h410l-6 -67l-68 -10q-44 -8 -44 -38q0 -10 5 -22l207 -614l199 524l-31 86q-12 32 -27 43t-51 16l-63 15l-6 67h415l-6 -67l-65 -10q-45 -8 -45 -39q0 -10 4 -21l221 -618l172 563q13 37 13 62q0 12 -3 20q-9 27 -55 33l-64 10l-6 67h367l-6 -67l-64 -10 q-38 -4 -55.5 -24.5t-40.5 -88.5l-238 -737h-100l-223 596l-236 -596h-100l-270 786q-11 32 -25.5 45t-46.5 17l-62 10z" />
<glyph unicode="x" horiz-adv-x="974" d="M-6 0l6 68l70 12q31 4 53.5 23t73.5 77l221 269l-221 286q-41 54 -65.5 73t-59.5 23l-60 15l-6 67h418l-6 -67l-60 -12q-24 -3 -30.5 -12.5t1 -26t29.5 -47.5l148 -203h2l154 200q24 31 32 48.5t-0.5 27.5t-36.5 13l-67 12l-6 67h379l-7 -67l-69 -12q-36 -4 -58.5 -22.5 t-70.5 -76.5l-203 -243l238 -312q41 -53 65 -72.5t55 -25.5l58 -12l6 -70h-416l6 68l60 12q36 7 36 27q0 19 -30 61l-166 227h-2l-174 -225q-25 -33 -32.5 -50.5t0.5 -27t36 -12.5l67 -12l7 -68h-375z" />
<glyph unicode="y" horiz-adv-x="925" d="M-37 913h422l-6 -67l-70 -10q-41 -2 -41 -30q0 -11 6 -26l254 -604l195 555q12 37 12 59q0 10 -2 16q-8 21 -49 25l-76 15l-6 67h371l-6 -67l-68 -15q-33 -5 -50.5 -24.5t-43.5 -83.5l-250 -680l-98 -311q-45 -140 -99 -204.5t-141 -64.5q-61 0 -97 29.5t-36 77.5 q0 45 24.5 73.5t71.5 28.5q78 0 117 -73q25 12 45.5 48t44.5 109l78 224v2l-356 790q-14 32 -27.5 42.5t-50.5 16.5l-60 13z" />
<glyph unicode="z" horiz-adv-x="917" d="M57 0v61l592 783h-65q-157 0 -230 -8.5t-102 -29.5t-37 -67l-33 -172h-90v346h737v-61l-589 -780h88q121 0 186 3t110.5 15.5t64 31t34.5 54.5l76 170h86l-82 -346h-746z" />
<glyph unicode="{" horiz-adv-x="681" d="M51 442l23 56q268 12 268 159q0 47 -18 97.5t-39.5 89t-39.5 96t-18 115.5q0 137 100 216t289 91v-68q-119 -10 -185 -63.5t-66 -128.5q0 -47 18 -97.5t39 -89t39 -96.5t18 -117q0 -66 -43 -124t-103 -90t-116 -35v-25q89 -5 175.5 -80t86.5 -170q0 -57 -18 -113.5 t-39 -95t-39 -89t-18 -95.5q0 -74 67 -130.5t184 -68.5v-63q-188 10 -288.5 90t-100.5 217q0 59 18 115.5t39.5 94t39.5 88t18 97.5q0 41 -23 72t-62.5 49t-84.5 27.5t-98 11.5z" />
<glyph unicode="|" horiz-adv-x="567" d="M238 -381v1790h90v-1790h-90z" />
<glyph unicode="}" horiz-adv-x="681" d="M66 -414q117 10 184 67t67 132q0 45 -18 95.5t-39 89t-39 95t-18 113.5q0 95 86.5 170t175.5 80v25q-56 3 -116 35t-103 90t-43 124q0 59 18 117t39 96.5t39 89t18 97.5q0 75 -66.5 128.5t-184.5 63.5v68q189 -12 289 -91t100 -216q0 -58 -18 -115.5t-39.5 -96t-39.5 -89 t-18 -97.5q0 -147 268 -159l23 -56l-23 -57q-53 -2 -98 -11.5t-84.5 -27.5t-62.5 -49t-23 -72q0 -47 18 -97.5t39.5 -88t39.5 -94t18 -115.5q0 -137 -100.5 -217t-288.5 -90v63z" />
<glyph unicode="~" d="M78 354q21 121 68.5 180.5t127.5 59.5q42 0 89.5 -23t82 -51t71.5 -51t61 -23q33 0 56.5 28t53.5 106h53q-21 -120 -68.5 -180t-127.5 -60q-43 0 -90 23t-80.5 50.5t-70.5 50.5t-62 23q-33 0 -57 -27.5t-54 -105.5h-53z" />
<glyph unicode="&#xa1;" horiz-adv-x="575" d="M170 1192q0 48 34.5 82.5t84.5 34.5q52 0 83 -34t31 -83q0 -47 -31 -80t-83 -33q-50 0 -84.5 34t-34.5 79zM193 45l75 829q2 12 21 12t20 -12l78 -829q5 -36 -12.5 -56t-69.5 -20h-31q-52 0 -69 20t-12 56z" />
<glyph unicode="&#xa2;" horiz-adv-x="903" d="M70 446q0 107 38 201t103 158.5t152 101.5t184 37q54 0 90 -8q1 0 7.5 24t19 73t22.5 85q8 30 25 92t24 90h74l-102 -385q129 -60 129 -159q0 -39 -25.5 -64.5t-56.5 -25.5q-69 0 -99 59l-166 -619q24 -8 66 -8q144 0 256 127l41 -22q-60 -113 -154 -173.5t-209 -60.5 q-24 0 -34 2l-84 -311h-74l86 326q-139 36 -226 166.5t-87 293.5zM225 504q0 -130 53 -230.5t144 -144.5l190 715q-46 22 -106 22q-122 0 -201.5 -97.5t-79.5 -264.5z" />
<glyph unicode="&#xa3;" horiz-adv-x="946" d="M8 14q148 46 211.5 137t63.5 232q0 45 -4 147h-207l6 80h196q-8 109 -8 213q0 212 109 339.5t297 127.5q101 0 160 -41t59 -112q0 -41 -28.5 -69t-67.5 -28q-52 0 -82.5 41t-18.5 103q-43 26 -94 26q-87 0 -134.5 -73.5t-47.5 -251.5q0 -87 10 -275h334l6 -80h-338 q2 -31 2 -90q-3 -154 -70 -272v-10q9 -2 129.5 -39t178.5 -37q80 0 110 35q44 44 88 155l45 -12q2 -45 -5.5 -88.5t-26.5 -83.5t-48 -70.5t-72.5 -48.5t-96.5 -18q-50 0 -105 20.5t-89.5 43t-83 57.5t-64.5 45q-100 -128 -291 -172z" />
<glyph unicode="&#xa4;" horiz-adv-x="1056" d="M43 434l6 80h119q-4 62 -4 92q0 22 4 84h-125l6 80h129q40 230 183 372t346 142q128 0 217.5 -50t89.5 -120q0 -39 -25 -65.5t-65 -26.5q-51 0 -83 43t-40 104q-51 33 -129 33q-140 0 -230 -116t-114 -316h424l6 -80h-436v-49q0 -69 6 -127h424l6 -80h-416 q40 -169 134.5 -257.5t219.5 -88.5q159 0 289 152l41 -23q-132 -248 -381 -248q-175 0 -299 126.5t-166 338.5h-137z" />
<glyph unicode="&#xa5;" horiz-adv-x="1253" d="M20 1280h488l-6 -70l-103 -12q-45 -6 -25 -61q13 -36 52 -97l233 -389h9l247 436q29 54 24 79.5t-42 33.5l-78 10l-6 70h412l-6 -70l-60 -10q-46 -13 -75 -35t-62 -75l-272 -463h346l6 -82h-387v-174h381l6 -82h-387v-162q0 -31 37 -37l159 -20l7 -70h-564l6 70l160 20 q37 6 37 37v162h-377l6 82h371v174h-377l6 82h332l-321 512q-28 45 -84 57l-86 14z" />
<glyph unicode="&#xa6;" horiz-adv-x="962" d="M10 195q0 55 32.5 88.5t78.5 33.5q42 0 71 -26t29 -68q0 -59 -39 -98q21 -32 66.5 -56t113.5 -24q240 0 240 344v764q0 31 -35 37l-159 20l-7 70h549l-6 -70l-137 -20q-35 -6 -35 -37v-723q0 -116 -31.5 -206t-88 -145.5t-129.5 -83.5t-161 -28q-168 0 -260 68.5 t-92 159.5z" />
<glyph unicode="&#xa7;" horiz-adv-x="880" d="M61 666q0 78 49 142t126 103q-43 67 -43 144q0 95 88.5 174.5t212.5 79.5q91 0 158 -41t67 -107q0 -41 -25.5 -66.5t-64.5 -25.5q-99 0 -127 145q-30 15 -74 15q-53 0 -88 -34t-35 -95q0 -25 7 -48.5t26.5 -47t33 -38.5t48.5 -40.5t49 -35t58 -37.5q13 -9 20 -13 q5 -3 16 -10q36 -23 54.5 -34.5t50.5 -34.5t49 -39t39 -40.5t33.5 -47t19.5 -52t8 -60.5q0 -80 -48.5 -144.5t-125.5 -103.5q43 -64 43 -141q0 -104 -90.5 -185t-222.5 -81q-90 0 -158 40.5t-68 106.5q0 41 26 66.5t65 25.5q99 0 127 -145q27 -14 84 -14t90.5 37t33.5 102 q0 32 -14.5 63t-33.5 54.5t-56 52t-63.5 46t-73.5 46.5q-126 79 -171 119q-99 91 -100 199zM172 731q0 -68 47.5 -120.5t138.5 -112.5q5 -3 51 -31.5t60 -38t47.5 -32.5t55 -42.5t40.5 -40.5q95 59 95 144q0 37 -14 69t-44 62t-57 51t-72 51q-20 13 -65.5 41t-71.5 44.5 t-59.5 43.5t-55.5 53q-41 -25 -68.5 -63.5t-27.5 -77.5z" />
<glyph unicode="&#xa8;" d="M92 1223q0 50 30.5 85t82.5 35t82 -35t30 -85t-30 -85.5t-82 -35.5t-82.5 35.5t-30.5 85.5zM502 1223q0 50 30 85t82 35t82.5 -35t30.5 -85t-30.5 -85.5t-82.5 -35.5t-82 35.5t-30 85.5z" />
<glyph unicode="&#xa9;" horiz-adv-x="1503" d="M82 639q0 182 89.5 336.5t244 245t336.5 90.5q137 0 261 -53.5t213 -143.5t142 -214.5t53 -260.5q0 -137 -53 -261t-142 -213.5t-213 -142.5t-261 -53t-261 53t-213.5 142.5t-142.5 213.5t-53 261zM156 639q0 -161 80 -300t217.5 -220.5t298.5 -81.5t298.5 81.5 t217.5 220.5t80 300q0 162 -80 301.5t-217.5 221t-298.5 81.5t-298.5 -81.5t-217.5 -221t-80 -301.5zM389 627q0 173 107.5 283t275.5 110q99 0 166 -23l92 23v-260h-53l-43 151q-60 43 -172 43t-185 -82t-73 -215q0 -151 76 -243t213 -92q86 0 129 32l63 162h55l-26 -242 l-58 13q-85 -29 -180 -29q-179 0 -283 103t-104 266z" />
<glyph unicode="&#xaa;" horiz-adv-x="692" d="M57 1137q0 37 48 76.5t120.5 65.5t139.5 26q112 0 165 -59t48 -165l-13 -327q-2 -40 10 -58t43 -18q30 0 72 22l6 -36q-25 -33 -66 -55.5t-83 -22.5q-94 0 -107 106h-4q-119 -106 -209 -106q-67 0 -117.5 44.5t-50.5 114.5q0 95 96.5 154t290.5 96l3 68q6 77 -42 124.5 t-122 47.5q-35 0 -68 -15t-33 -26q0 -2 6 -12t12.5 -25.5t6.5 -30.5q0 -30 -19.5 -47.5t-54.5 -17.5t-56.5 20.5t-21.5 55.5zM190 791q0 -45 29.5 -76t75.5 -31q33 0 73.5 19.5t69.5 44.5l6 200q-122 -26 -188 -62.5t-66 -94.5z" />
<glyph unicode="&#xab;" horiz-adv-x="997" d="M68 410v86l444 295l18 -41l-297 -297l297 -297l-18 -41zM453 410v86l442 315l18 -41l-315 -317l315 -318l-18 -41z" />
<glyph unicode="&#xac;" horiz-adv-x="913" d="M70 709q0 48 59.5 104t149.5 94.5t170 38.5q173 0 237 -86t57 -313l-16 -391q-3 -72 45 -72q35 0 105 57l34 -45q-100 -127 -190 -127q-59 0 -95 38t-36 114h-8q-71 -74 -130 -113t-126 -39q-103 0 -176.5 68t-73.5 170q0 126 121 207.5t401 148.5v19q0 157 -50.5 216.5 t-158.5 59.5q-56 0 -109 -17.5t-53 -35.5q0 -3 10.5 -16t20.5 -34.5t10 -43.5q0 -37 -28.5 -65t-71.5 -28t-70.5 25t-27.5 66zM225 242q0 -72 44 -115t112 -43q50 0 97 26.5t104 79.5l12 308q-200 -53 -284.5 -113.5t-84.5 -142.5z" />
<glyph unicode="&#xad;" horiz-adv-x="671" d="M70 428l6 104h524l6 -104h-536z" />
<glyph unicode="&#xae;" horiz-adv-x="1503" d="M82 639q0 182 89.5 336.5t244 245t336.5 90.5q137 0 261 -53.5t213 -143.5t142 -214.5t53 -260.5q0 -137 -53 -261t-142 -213.5t-213 -142.5t-261 -53t-261 53t-213.5 142.5t-142.5 213.5t-53 261zM156 639q0 -161 80 -300t217.5 -220.5t298.5 -81.5t298.5 81.5 t217.5 220.5t80 300q0 162 -80 301.5t-217.5 221t-298.5 81.5t-298.5 -81.5t-217.5 -221t-80 -301.5zM440 281l6 59l76 12q21 3 21 23v538q0 20 -21 23l-76 12l-6 60h324q131 0 198.5 -54t67.5 -133q0 -77 -46 -130.5t-132 -80.5l145 -221q25 -31 52 -41l69 -8l6 -59h-190 l-45 81l-141 224l-97 4v-215q0 -20 21 -23l88 -12l4 -59h-324zM651 655l94 -10q76 6 121 46t45 112q0 150 -198 141l-62 -2v-287z" />
<glyph unicode="&#xaf;" d="M160 1104l6 84h493l7 -84h-506z" />
<glyph unicode="&#xb0;" horiz-adv-x="841" d="M80 987q0 144 93.5 243t246.5 99q154 0 247 -99t93 -243q0 -140 -93.5 -239t-246.5 -99q-152 0 -246 99t-94 239zM174 987q0 -105 67 -179.5t179 -74.5q111 0 179.5 75t68.5 179q0 109 -68 183.5t-180 74.5q-113 0 -179.5 -74t-66.5 -184z" />
<glyph unicode="&#xb1;" horiz-adv-x="1503" d="M82 639q0 182 89.5 336.5t244 245t336.5 90.5q137 0 261 -53.5t213 -143.5t142 -214.5t53 -260.5q0 -137 -53 -261t-142 -213.5t-213 -142.5t-261 -53t-261 53t-213.5 142.5t-142.5 213.5t-53 261zM156 639q0 -161 80 -300t217.5 -220.5t298.5 -81.5t298.5 81.5 t217.5 220.5t80 300q0 162 -80 301.5t-217.5 221t-298.5 81.5t-298.5 -81.5t-217.5 -221t-80 -301.5zM487 281l5 59l77 12q21 3 21 23v540q0 18 -21 21l-77 14l-5 58h293q142 0 214.5 -55.5t72.5 -147.5q0 -108 -81.5 -178t-194.5 -70q-62 0 -95 6v-188q0 -20 21 -23l98 -12 l2 -59h-330zM696 627q57 -11 90 -11q78 0 124 45t46 123t-51 120t-143 40h-66v-317z" />
<glyph unicode="&#xb4;" d="M307 1040l193 377h192l-338 -377h-47z" />
<glyph unicode="&#xb5;" horiz-adv-x="940" d="M20 -274q0 155 193 241v8q-56 10 -93.5 53t-37.5 95q0 58 47.5 110.5t118.5 85.5q0 7 2 7h2q-81 37 -128.5 109t-47.5 173q0 142 104 239t258 97q121 0 230 -51l278 -2v-119l-219 39v-10q64 -77 64 -183q0 -134 -105 -229.5t-256 -95.5q-72 0 -113 12 q-35 -17 -65.5 -45.5t-30.5 -60.5q0 -41 36 -68t93 -27q37 0 128.5 2.5t109.5 2.5q135 0 218 -75.5t83 -187.5q0 -160 -143 -262t-363 -102q-165 0 -264 67.5t-99 176.5zM160 -227q0 -100 84.5 -157.5t214.5 -57.5q128 0 210.5 64t82.5 159q0 174 -222 182q-32 0 -91.5 -2 t-145.5 -2q-44 -15 -88.5 -67t-44.5 -119zM229 635q0 -156 88 -234q52 -43 115 -43q88 0 133 45q74 65 74 211q0 142 -74 213q-55 52 -129 52q-93 0 -150 -68.5t-57 -175.5z" />
<glyph unicode="&#xb6;" horiz-adv-x="1011" d="M82 905q0 182 119.5 278.5t322.5 96.5h312v-1346h-99v627q-91 -29 -186 -29q-229 0 -349 104.5t-120 268.5z" />
<glyph unicode="&#xb7;" horiz-adv-x="462" d="M106 465q0 51 37 87t93 36q54 0 89 -36t35 -87t-35 -89t-89 -38q-56 0 -93 38t-37 89z" />
<glyph unicode="&#xb8;" d="M209 -502q164 23 241.5 67t77.5 113q0 51 -44.5 81t-129.5 30q-50 0 -118 -10v35l213 225h81l-151 -160q119 5 191.5 -43t72.5 -137q0 -99 -108.5 -164t-309.5 -82z" />
<glyph unicode="&#xba;" horiz-adv-x="788" d="M49 942q0 152 98.5 257.5t249.5 105.5q153 0 246.5 -103.5t93.5 -255.5q0 -151 -97.5 -255.5t-248.5 -104.5q-152 0 -247 102.5t-95 253.5zM190 979q0 -91 23.5 -164t65.5 -115q49 -49 129 -49q84 0 136 69t52 189q0 191 -84 275q-57 57 -131 57q-86 0 -138.5 -70.5 t-52.5 -191.5z" />
<glyph unicode="&#xbb;" horiz-adv-x="997" d="M86 135l315 318l-315 317l20 41l441 -315v-86l-441 -316zM469 156l299 297l-299 297l18 41l445 -295v-86l-445 -295z" />
<glyph unicode="&#xbc;" horiz-adv-x="1228" d="M25 821l12 90h149l2 33q20 203 139.5 333t284.5 130q74 0 126.5 -34.5t52.5 -88.5q0 -42 -25.5 -67t-63.5 -25q-43 0 -77.5 33t-51.5 94l-2 10l-51 4q-178 -73 -178 -377v-45h432l2 52q12 203 134.5 333.5t291.5 130.5q74 0 126 -34t52 -88q0 -42 -25.5 -67.5 t-64.5 -25.5q-43 0 -78.5 33.5t-48.5 93.5l-2 11l-53 4q-176 -72 -176 -377v-66h282l-14 -94h-268v-711q0 -13 11.5 -20t45.5 -8l133 -8l6 -70h-485l6 70l84 8q51 4 51 31v710h-442v-692q0 -33 37 -39l162 -18l6 -70h-494l6 70l103 18q35 6 35 39v686z" />
<glyph unicode="&#xbd;" horiz-adv-x="1722" d="M25 821l12 90h149l2 33q20 203 139.5 333t284.5 130q74 0 126.5 -34.5t52.5 -88.5q0 -42 -25.5 -67t-63.5 -25q-43 0 -77.5 33.5t-51.5 93.5l-2 10l-51 4q-178 -73 -178 -377v-45h432l2 52q12 208 137 336t324 128q82 0 143 -38l140 38v-1321q0 -26 57 -28l86 -8l6 -70 h-438l6 70l86 8q51 3 51 31v708h-442v-711q0 -13 11.5 -20t45.5 -8l133 -8l6 -70h-485l6 70l84 8q51 4 51 31v710h-442v-692q0 -33 37 -39l162 -18l6 -70h-494l6 70l103 18q35 6 35 39v686zM932 911h442v285q-4 -2 -20 -2q-97 0 -127 119l-2 10l-117 23q-176 -72 -176 -369 v-66z" />
<glyph unicode="&#xbe;" horiz-adv-x="1718" d="M25 821l12 90h149l2 33q20 203 139.5 333t284.5 130q74 0 126.5 -34.5t52.5 -88.5q0 -42 -25.5 -67t-63.5 -25q-43 0 -77.5 33.5t-51.5 93.5l-2 10l-51 4q-178 -73 -178 -377v-45h432l2 52q12 208 137 336t324 128q77 0 142 -38.5t65 -102.5q0 -41 -25.5 -66.5 t-64.5 -25.5q-97 0 -127 119l-2 10l-117 23q-176 -72 -176 -369v-66h356l232 31v-836q0 -26 57 -28l86 -8l6 -70h-438l6 70l86 8q51 3 51 31v708h-442v-711q0 -13 11.5 -20t45.5 -8l133 -8l6 -70h-485l6 70l84 8q51 4 51 31v710h-442v-692q0 -33 37 -39l162 -18l6 -70h-494 l6 70l103 18q35 6 35 39v686z" />
<glyph unicode="&#xbf;" horiz-adv-x="731" d="M86 307q0 61 15 104.5t48 73t65 47t87 39.5q42 15 66.5 26.5t53 30t41.5 42.5t13 55q0 46 -27.5 86.5t-80.5 89.5h61q54 -41 98.5 -101.5t44.5 -127.5q0 -30 -7 -55.5t-16.5 -44.5t-28.5 -38t-35 -31t-44.5 -27.5t-47 -24t-52.5 -23.5q-8 -3 -27 -11t-27 -11.5t-24.5 -11 t-23.5 -11.5t-20 -12t-19 -13.5t-14 -14t-11.5 -16.5t-6.5 -17.5t-3 -20.5q0 -69 88.5 -116.5t228.5 -47.5q63 0 125 12q19 -19 19 -61q0 -48 -41.5 -77.5t-110.5 -29.5q-162 0 -274.5 103.5t-112.5 234.5zM307 1192q0 48 32.5 82.5t82.5 34.5q53 0 87 -34.5t34 -82.5 q0 -46 -34 -79.5t-87 -33.5q-50 0 -82.5 33.5t-32.5 79.5z" />
<glyph unicode="&#xc0;" horiz-adv-x="1202" d="M-33 0l6 70l82 14q34 9 53.5 27.5t47 78t71.5 187.5l285 803v65l170 72l395 -1188q9 -33 51 -39l121 -20l6 -70h-526l6 70l117 14q28 5 36 18.5t3.5 42t-25.5 93.5l-75 225h-443l-74 -223q-30 -85 -29.5 -117t36.5 -39l102 -14l6 -70h-422zM279 1763h186l197 -377h-46z M377 547h387l-182 575h-11z" />
<glyph unicode="&#xc1;" horiz-adv-x="1202" d="M-33 0l6 70l82 14q34 9 53.5 27.5t47 78t71.5 187.5l285 803v65l170 72l395 -1188q9 -33 51 -39l121 -20l6 -70h-526l6 70l117 14q28 5 36 18.5t3.5 42t-25.5 93.5l-75 225h-443l-74 -223q-30 -85 -29.5 -117t36.5 -39l102 -14l6 -70h-422zM377 547h387l-182 575h-11z M524 1386l193 377h192l-338 -377h-47z" />
<glyph unicode="&#xc2;" horiz-adv-x="1202" d="M-33 0l6 70l82 14q34 9 53.5 27.5t47 78t71.5 187.5l285 803v65l170 72l395 -1188q9 -33 51 -39l121 -20l6 -70h-526l6 70l117 14q28 5 36 18.5t3.5 42t-25.5 93.5l-75 225h-443l-74 -223q-30 -85 -29.5 -117t36.5 -39l102 -14l6 -70h-422zM334 1386l227 398h78l227 -398 h-55l-209 252h-4l-209 -252h-55zM377 547h387l-182 575h-11z" />
<glyph unicode="&#xc3;" horiz-adv-x="1202" d="M-33 0l6 70l82 14q34 9 53.5 27.5t47 78t71.5 187.5l285 803v65l170 72l395 -1188q9 -33 51 -39l121 -20l6 -70h-526l6 70l117 14q28 5 36 18.5t3.5 42t-25.5 93.5l-75 225h-443l-74 -223q-30 -85 -29.5 -117t36.5 -39l102 -14l6 -70h-422zM268 1425q21 120 68.5 180 t128.5 60q42 0 89.5 -23t81.5 -50.5t71 -50.5t61 -23q33 0 57 27.5t54 105.5h53q-42 -240 -197 -240q-43 0 -90 23t-80.5 51t-70.5 51t-62 23q-33 0 -56.5 -28t-53.5 -106h-54zM377 547h387l-182 575h-11z" />
<glyph unicode="&#xc4;" horiz-adv-x="1202" d="M-33 0l6 70l82 14q34 9 53.5 27.5t47 78t71.5 187.5l285 803v65l170 72l395 -1188q9 -33 51 -39l121 -20l6 -70h-526l6 70l117 14q28 5 36 18.5t3.5 42t-25.5 93.5l-75 225h-443l-74 -223q-30 -85 -29.5 -117t36.5 -39l102 -14l6 -70h-422zM283 1556q0 50 30 85.5 t82 35.5t82.5 -35.5t30.5 -85.5t-30.5 -85t-82.5 -35t-82 35t-30 85zM377 547h387l-182 575h-11zM692 1556q0 50 30.5 85.5t82.5 35.5t82.5 -35.5t30.5 -85.5t-30.5 -85t-82.5 -35t-82.5 35t-30.5 85z" />
<glyph unicode="&#xc5;" horiz-adv-x="1202" d="M-33 0l6 70l82 14q34 9 53.5 27.5t47 78t71.5 187.5l308 864q-51 20 -80 66t-29 104q0 78 49.5 131t132.5 53q84 0 133.5 -53t49.5 -131q0 -51 -22.5 -94t-63.5 -68l372 -1120q9 -33 51 -39l121 -20l6 -70h-526l6 70l117 14q28 5 36 18.5t3.5 42t-25.5 93.5l-75 225h-443 l-74 -223q-30 -85 -29.5 -117t36.5 -39l102 -14l6 -70h-422zM377 547h387l-182 577h-11zM487 1411q0 -56 33 -93.5t88 -37.5q58 0 90.5 37.5t32.5 93.5q0 54 -33 91.5t-90 37.5q-55 0 -88 -38t-33 -91z" />
<glyph unicode="&#xc6;" horiz-adv-x="1646" d="M-106 0l6 70l86 14q38 9 59.5 25t60.5 76.5t107 193.5l381 725q43 79 -41 94l-88 12l-6 70h1079v-371h-80l-45 207q-10 35 -19.5 49t-59.5 25t-122 12.5t-237 1.5h-62v-514h60q136 0 169 6t40 33l47 137h65l-41 -426h-65l-14 131q-3 19 -14 27t-54.5 13t-136.5 5h-56 v-540h35q116 0 187.5 1t128 5.5t84 9t47.5 16t26 23t13 33.5l51 198h92l-39 -362h-950l6 70l125 20q37 6 37 37v336h-396l-102 -201q-53 -108 -58 -138.5t27 -37.5l103 -16l6 -70h-442zM403 547h353v647h-19z" />
<glyph unicode="&#xc7;" horiz-adv-x="1366" d="M94 621q0 156 54.5 286t149.5 217.5t224.5 136t278.5 48.5q156 0 284 -39l156 33v-416h-86l-53 266q-133 76 -314 76q-224 0 -365.5 -164t-141.5 -418q0 -177 61.5 -311.5t182.5 -211.5t286 -77q150 0 264 62l86 276h90l-49 -387l-94 20q-117 -40 -281 -49l-86 -90 q119 5 192 -43t73 -137q0 -99 -108.5 -164t-309.5 -82l-17 45q164 23 242 67t78 113q0 51 -44.5 81t-129.5 30q-51 0 -119 -10v35l147 157q-187 8 -333.5 87t-232 225t-85.5 338z" />
<glyph unicode="&#xc8;" horiz-adv-x="1193" d="M86 0l6 70l107 12q53 6 53 29v1060q0 12 -10.5 17t-42.5 10l-107 12l-6 70h983v-371h-88l-45 207q-10 35 -20 49t-60 25t-122 12.5t-236 1.5h-78v-514h78q131 0 165.5 6t41.5 33l45 137h71l-43 -426h-67l-17 131q0 19 -11 27t-54 13t-135 5h-74v-540h55q114 0 185 1 t126.5 5.5t82 9t46.5 16.5t26.5 23t14.5 33l52 198h100l-39 -362h-983zM301 1763h186l197 -377h-45z" />
<glyph unicode="&#xc9;" horiz-adv-x="1193" d="M86 0l6 70l107 12q53 6 53 29v1060q0 12 -10.5 17t-42.5 10l-107 12l-6 70h983v-371h-88l-45 207q-10 35 -20 49t-60 25t-122 12.5t-236 1.5h-78v-514h78q131 0 165.5 6t41.5 33l45 137h71l-43 -426h-67l-17 131q0 19 -11 27t-54 13t-135 5h-74v-540h55q114 0 185 1 t126.5 5.5t82 9t46.5 16.5t26.5 23t14.5 33l52 198h100l-39 -362h-983zM539 1386l192 377h193l-338 -377h-47z" />
<glyph unicode="&#xca;" horiz-adv-x="1193" d="M86 0l6 70l107 12q53 6 53 29v1060q0 12 -10.5 17t-42.5 10l-107 12l-6 70h983v-371h-88l-45 207q-10 35 -20 49t-60 25t-122 12.5t-236 1.5h-78v-514h78q131 0 165.5 6t41.5 33l45 137h71l-43 -426h-67l-17 131q0 19 -11 27t-54 13t-135 5h-74v-540h55q114 0 185 1 t126.5 5.5t82 9t46.5 16.5t26.5 23t14.5 33l52 198h100l-39 -362h-983zM332 1386l227 398h78l227 -398h-55l-209 252h-4l-209 -252h-55z" />
<glyph unicode="&#xcb;" horiz-adv-x="1193" d="M86 0l6 70l107 12q53 6 53 29v1060q0 12 -10.5 17t-42.5 10l-107 12l-6 70h983v-371h-88l-45 207q-10 35 -20 49t-60 25t-122 12.5t-236 1.5h-78v-514h78q131 0 165.5 6t41.5 33l45 137h71l-43 -426h-67l-17 131q0 19 -11 27t-54 13t-135 5h-74v-540h55q114 0 185 1 t126.5 5.5t82 9t46.5 16.5t26.5 23t14.5 33l52 198h100l-39 -362h-983zM281 1556q0 50 30 85.5t82 35.5t82.5 -35.5t30.5 -85.5t-30.5 -85t-82.5 -35t-82 35t-30 85zM690 1556q0 50 30.5 85.5t82.5 35.5t82 -35.5t30 -85.5t-30 -85t-82 -35t-82.5 35t-30.5 85z" />
<glyph unicode="&#xcc;" horiz-adv-x="718" d="M16 1763h187l196 -377h-45zM90 0l6 70l127 12q53 6 53 29v1060q0 12 -10.5 17t-42.5 10l-127 12l-6 70h541l-6 -70l-127 -12q-54 -6 -54 -29v-1060q0 -12 11 -17t43 -10l127 -12l6 -70h-541z" />
<glyph unicode="&#xcd;" horiz-adv-x="718" d="M90 0l6 70l127 12q53 6 53 29v1060q0 12 -10.5 17t-42.5 10l-127 12l-6 70h541l-6 -70l-127 -12q-54 -6 -54 -29v-1060q0 -12 11 -17t43 -10l127 -12l6 -70h-541zM322 1386l192 377h193l-338 -377h-47z" />
<glyph unicode="&#xce;" horiz-adv-x="718" d="M90 0l6 70l127 12q53 6 53 29v1060q0 12 -10.5 17t-42.5 10l-127 12l-6 70h541l-6 -70l-127 -12q-54 -6 -54 -29v-1060q0 -12 11 -17t43 -10l127 -12l6 -70h-541zM92 1386l227 398h78l228 -398h-56l-209 252h-4l-209 -252h-55z" />
<glyph unicode="&#xcf;" horiz-adv-x="718" d="M41 1563q0 50 30.5 85t82.5 35t82 -35t30 -85t-30 -85.5t-82 -35.5t-82.5 35.5t-30.5 85.5zM90 0l6 70l127 12q53 6 53 29v1060q0 12 -10.5 17t-42.5 10l-127 12l-6 70h541l-6 -70l-127 -12q-54 -6 -54 -29v-1060q0 -12 11 -17t43 -10l127 -12l6 -70h-541zM451 1563 q0 50 30 85t82 35t82.5 -35t30.5 -85t-30.5 -85.5t-82.5 -35.5t-82 35.5t-30 85.5z" />
<glyph unicode="&#xd0;" horiz-adv-x="1370" d="M68 614l6 80h178v459q0 31 -37 37l-125 20l-6 70l444 6q168 2 310.5 -44t240.5 -128.5t152.5 -198t54.5 -249.5q0 -145 -47.5 -266t-140.5 -210.5t-239 -139.5t-333 -50h-442l6 70l125 20q37 6 37 37v487h-184zM410 102l165 -26q246 -4 392.5 148t146.5 388 q0 275 -163 434.5t-464 159.5h-77v-512h254l6 -80h-260v-512z" />
<glyph unicode="&#xd1;" horiz-adv-x="1505" d="M76 0l6 70l123 16q12 2 19.5 4t15.5 8.5t12 14t8 24t5.5 34.5t2.5 50.5t1.5 67.5t0.5 88v676q0 65 -13.5 93t-49.5 46l-117 18l-6 70h354l738 -1032h6v655q0 85 -1.5 131.5t-4.5 81t-11.5 48.5t-18.5 20.5t-30 9.5l-123 16l-6 70h473l-6 -70l-123 -16q-32 -5 -44.5 -23.5 t-17.5 -74.5t-5 -193v-919h-99l-805 1126h-8v-733q0 -85 1.5 -131.5t4.5 -81t11.5 -48.5t18.5 -20.5t30 -9.5l123 -16l6 -70h-471zM422 1425q21 121 68.5 180.5t127.5 59.5q42 0 89.5 -23t82 -50.5t71.5 -50.5t61 -23q33 0 56.5 27.5t53.5 105.5h53q-21 -120 -68.5 -180 t-127.5 -60q-43 0 -90 23t-80.5 51t-70.5 51t-62 23q-33 0 -57 -28t-54 -106h-53z" />
<glyph unicode="&#xd2;" horiz-adv-x="1513" d="M94 629q0 136 50.5 260.5t138 216.5t212.5 146.5t265 54.5q186 0 336 -82.5t236.5 -234.5t86.5 -345q0 -136 -50.5 -260t-138 -215.5t-211.5 -146t-265 -54.5q-140 0 -262 48.5t-209.5 134t-138 209t-50.5 268.5zM281 651q0 -140 39 -256.5t105.5 -193t152.5 -118.5 t182 -42t181.5 39.5t150.5 112.5t103 184t38 246q0 140 -39.5 256.5t-106 193t-153 118.5t-182.5 42t-181 -39.5t-149.5 -112.5t-102.5 -184t-38 -246zM453 1763h186l197 -377h-45z" />
<glyph unicode="&#xd3;" horiz-adv-x="1513" d="M94 629q0 136 50.5 260.5t138 216.5t212.5 146.5t265 54.5q186 0 336 -82.5t236.5 -234.5t86.5 -345q0 -136 -50.5 -260t-138 -215.5t-211.5 -146t-265 -54.5q-140 0 -262 48.5t-209.5 134t-138 209t-50.5 268.5zM281 651q0 -140 39 -256.5t105.5 -193t152.5 -118.5 t182 -42t181.5 39.5t150.5 112.5t103 184t38 246q0 140 -39.5 256.5t-106 193t-153 118.5t-182.5 42t-181 -39.5t-149.5 -112.5t-102.5 -184t-38 -246zM653 1386l193 377h192l-338 -377h-47z" />
<glyph unicode="&#xd4;" horiz-adv-x="1513" d="M94 629q0 136 50.5 260.5t138 216.5t212.5 146.5t265 54.5q186 0 336 -82.5t236.5 -234.5t86.5 -345q0 -136 -50.5 -260t-138 -215.5t-211.5 -146t-265 -54.5q-140 0 -262 48.5t-209.5 134t-138 209t-50.5 268.5zM281 651q0 -140 39 -256.5t105.5 -193t152.5 -118.5 t182 -42t181.5 39.5t150.5 112.5t103 184t38 246q0 140 -39.5 256.5t-106 193t-153 118.5t-182.5 42t-181 -39.5t-149.5 -112.5t-102.5 -184t-38 -246zM489 1386l228 398h78l227 -398h-55l-209 252h-4l-209 -252h-56z" />
<glyph unicode="&#xd5;" horiz-adv-x="1513" d="M94 629q0 136 50.5 260.5t138 216.5t212.5 146.5t265 54.5q186 0 336 -82.5t236.5 -234.5t86.5 -345q0 -136 -50.5 -260t-138 -215.5t-211.5 -146t-265 -54.5q-140 0 -262 48.5t-209.5 134t-138 209t-50.5 268.5zM281 651q0 -140 39 -256.5t105.5 -193t152.5 -118.5 t182 -42t181.5 39.5t150.5 112.5t103 184t38 246q0 140 -39.5 256.5t-106 193t-153 118.5t-182.5 42t-181 -39.5t-149.5 -112.5t-102.5 -184t-38 -246zM424 1425q21 120 68.5 180t128.5 60q42 0 89.5 -23t81.5 -50.5t71 -50.5t61 -23q33 0 56.5 27.5t53.5 105.5h53 q-21 -120 -68.5 -180t-127.5 -60q-43 0 -90 23t-80.5 51t-70.5 51t-62 23q-33 0 -57 -28t-54 -106h-53z" />
<glyph unicode="&#xd6;" horiz-adv-x="1513" d="M94 629q0 136 50.5 260.5t138 216.5t212.5 146.5t265 54.5q186 0 336 -82.5t236.5 -234.5t86.5 -345q0 -136 -50.5 -260t-138 -215.5t-211.5 -146t-265 -54.5q-140 0 -262 48.5t-209.5 134t-138 209t-50.5 268.5zM281 651q0 -140 39 -256.5t105.5 -193t152.5 -118.5 t182 -42t181.5 39.5t150.5 112.5t103 184t38 246q0 140 -39.5 256.5t-106 193t-153 118.5t-182.5 42t-181 -39.5t-149.5 -112.5t-102.5 -184t-38 -246zM438 1556q0 50 30.5 85.5t82.5 35.5t82.5 -35.5t30.5 -85.5t-30.5 -85t-82.5 -35t-82.5 35t-30.5 85zM848 1556 q0 50 30.5 85.5t82.5 35.5t82 -35.5t30 -85.5t-30 -85t-82 -35t-82.5 35t-30.5 85z" />
<glyph unicode="&#xd7;" horiz-adv-x="995" d="M80 133l346 346l-346 344l76 76l346 -346l346 348l76 -76l-349 -346l347 -346l-76 -76l-344 346l-346 -346z" />
<glyph unicode="&#xd8;" horiz-adv-x="1513" d="M86 629q0 134 45.5 257t127.5 217t206 150t270 56q166 0 307 -72l99 172h90l-121 -209q130 -88 202 -229t72 -322q0 -135 -46 -257.5t-128 -216.5t-206 -150t-271 -56q-159 0 -301 68q-33 -60 -72 -125q-16 -31 -36 -64h-91l132 228q-132 87 -205.5 229t-73.5 324z M254 666q0 -302 176 -478l553 949q-116 90 -264 90q-201 0 -333 -153t-132 -408zM489 137q119 -82 261 -82q203 0 335 150.5t132 406.5q0 148 -47 269t-128 204q-145 -245 -276 -473q-62 -110 -129 -225.5t-107 -182.5t-41 -67z" />
<glyph unicode="&#xd9;" horiz-adv-x="1456" d="M70 1280h499l-6 -70l-106 -12q-54 -6 -54 -29v-708q0 -387 375 -387q169 0 259.5 97.5t90.5 262.5v469q0 53 -0.5 88t-1.5 67.5t-2.5 50.5t-5.5 34.5t-8 24t-12 14t-15.5 8.5t-19.5 4l-123 16l-6 70h471l-6 -70l-121 -16q-32 -5 -44.5 -23.5t-18 -74.5t-5.5 -193v-479 q0 -212 -131 -333.5t-358 -121.5q-232 0 -358.5 116t-126.5 355v731q0 12 -10.5 17t-43.5 10l-106 12zM422 1763h186l197 -377h-45z" />
<glyph unicode="&#xda;" horiz-adv-x="1456" d="M70 1280h499l-6 -70l-106 -12q-54 -6 -54 -29v-708q0 -387 375 -387q169 0 259.5 97.5t90.5 262.5v469q0 53 -0.5 88t-1.5 67.5t-2.5 50.5t-5.5 34.5t-8 24t-12 14t-15.5 8.5t-19.5 4l-123 16l-6 70h471l-6 -70l-121 -16q-32 -5 -44.5 -23.5t-18 -74.5t-5.5 -193v-479 q0 -212 -131 -333.5t-358 -121.5q-232 0 -358.5 116t-126.5 355v731q0 12 -10.5 17t-43.5 10l-106 12zM684 1386l193 377h192l-338 -377h-47z" />
<glyph unicode="&#xdb;" horiz-adv-x="1456" d="M70 1280h499l-6 -70l-106 -12q-54 -6 -54 -29v-708q0 -387 375 -387q169 0 259.5 97.5t90.5 262.5v469q0 53 -0.5 88t-1.5 67.5t-2.5 50.5t-5.5 34.5t-8 24t-12 14t-15.5 8.5t-19.5 4l-123 16l-6 70h471l-6 -70l-121 -16q-32 -5 -44.5 -23.5t-18 -74.5t-5.5 -193v-479 q0 -212 -131 -333.5t-358 -121.5q-232 0 -358.5 116t-126.5 355v731q0 12 -10.5 17t-43.5 10l-106 12zM489 1386l228 398h78l227 -398h-55l-209 252h-4l-209 -252h-56z" />
<glyph unicode="&#xdc;" horiz-adv-x="1456" d="M70 1280h499l-6 -70l-106 -12q-54 -6 -54 -29v-708q0 -387 375 -387q169 0 259.5 97.5t90.5 262.5v469q0 53 -0.5 88t-1.5 67.5t-2.5 50.5t-5.5 34.5t-8 24t-12 14t-15.5 8.5t-19.5 4l-123 16l-6 70h471l-6 -70l-121 -16q-32 -5 -44.5 -23.5t-18 -74.5t-5.5 -193v-479 q0 -212 -131 -333.5t-358 -121.5q-232 0 -358.5 116t-126.5 355v731q0 12 -10.5 17t-43.5 10l-106 12zM410 1556q0 50 30 85.5t82 35.5t82.5 -35.5t30.5 -85.5t-30.5 -85t-82.5 -35t-82 35t-30 85zM819 1556q0 50 30.5 85.5t82.5 35.5t82 -35.5t30 -85.5t-30 -85t-82 -35 t-82.5 35t-30.5 85z" />
<glyph unicode="&#xdd;" horiz-adv-x="1239" d="M-14 1280h499l-6 -70l-102 -12q-43 -5 -27 -57q11 -35 51 -101l246 -407h10l267 454q21 36 25.5 59.5t-6 36t-36.5 17.5l-78 10l-6 70h414l-6 -70l-62 -10q-46 -13 -75.5 -35t-63.5 -75l-321 -533v-448q0 -12 10.5 -17t42.5 -10l139 -12l6 -70h-567l6 70l141 12 q54 6 54 29v426l-381 602q-32 46 -84 57l-84 14zM518 1393l193 376h192l-338 -376h-47z" />
<glyph unicode="&#xde;" horiz-adv-x="1181" d="M86 0l6 70l107 12q53 6 53 29v1060q0 12 -10.5 17t-42.5 10l-107 12l-6 70h500l-6 -70l-107 -12q-19 -2 -36 -10t-17 -19v-137h162q247 0 376 -99t129 -259q0 -186 -141 -295t-352 -109q-58 0 -174 11v-172q0 -12 11 -17t42 -10l145 -12l7 -70h-539zM420 365 q85 -21 180 -21q147 0 227 78.5t80 218.5q0 153 -99.5 235t-281.5 78h-106v-589z" />
<glyph unicode="&#xdf;" horiz-adv-x="1349" d="M25 821l12 90h149l2 52q5 133 65 240.5t155 165.5t204 58q74 0 126.5 -34t52.5 -88q0 -42 -25.5 -67.5t-63.5 -25.5q-43 0 -77.5 33t-51.5 94l-2 11l-51 4q-178 -73 -178 -377v-871q0 -26 57 -28l99 -8l6 -70h-451l6 70l86 8q52 3 52 31v704zM612 276h93l45 -182 q75 -53 165 -53q82 0 143.5 48.5t61.5 123.5q0 30 -13.5 55t-31.5 42t-53 35t-60 27.5t-71 26.5q-48 17 -81 31.5t-71.5 39.5t-62 52.5t-39.5 68.5t-16 91q0 109 85.5 187.5t233.5 78.5q96 0 197 -33l63 21l17 -287h-93l-39 178q-76 50 -163 50q-75 0 -123.5 -41.5 t-48.5 -104.5q0 -67 53 -105t172 -81q48 -18 80 -32t72 -39.5t64 -53t41 -69t17 -91.5q0 -121 -94 -206t-262 -85q-163 0 -268 43z" />
<glyph unicode="&#xe0;" horiz-adv-x="899" d="M70 709q0 48 59.5 104t149.5 94.5t170 38.5q173 0 237 -86t57 -313l-16 -391q-3 -72 45 -72q35 0 105 57l34 -45q-100 -127 -190 -127q-59 0 -95 38t-36 114h-8q-71 -74 -130 -113t-126 -39q-103 0 -176.5 68t-73.5 170q0 126 121 207.5t401 148.5v19q0 157 -50.5 216.5 t-158.5 59.5q-56 0 -109 -17.5t-53 -35.5q0 -3 10.5 -16t20.5 -34.5t10 -43.5q0 -37 -28.5 -65t-71.5 -28t-70.5 25t-27.5 66zM129 1417h186l197 -377h-45zM225 242q0 -72 44 -115t112 -43q50 0 97 26.5t104 79.5l12 308q-200 -53 -284.5 -113.5t-84.5 -142.5z" />
<glyph unicode="&#xe1;" horiz-adv-x="899" d="M70 709q0 48 59.5 104t149.5 94.5t170 38.5q173 0 237 -86t57 -313l-16 -391q-3 -72 45 -72q35 0 105 57l34 -45q-100 -127 -190 -127q-59 0 -95 38t-36 114h-8q-71 -74 -130 -113t-126 -39q-103 0 -176.5 68t-73.5 170q0 126 121 207.5t401 148.5v19q0 157 -50.5 216.5 t-158.5 59.5q-56 0 -109 -17.5t-53 -35.5q0 -3 10.5 -16t20.5 -34.5t10 -43.5q0 -37 -28.5 -65t-71.5 -28t-70.5 25t-27.5 66zM225 242q0 -72 44 -115t112 -43q50 0 97 26.5t104 79.5l12 308q-200 -53 -284.5 -113.5t-84.5 -142.5zM348 1040l193 377h192l-338 -377h-47z" />
<glyph unicode="&#xe2;" horiz-adv-x="899" d="M70 709q0 48 59.5 104t149.5 94.5t170 38.5q173 0 237 -86t57 -313l-16 -391q-3 -72 45 -72q35 0 105 57l34 -45q-100 -127 -190 -127q-59 0 -95 38t-36 114h-8q-71 -74 -130 -113t-126 -39q-103 0 -176.5 68t-73.5 170q0 126 121 207.5t401 148.5v19q0 157 -50.5 216.5 t-158.5 59.5q-56 0 -109 -17.5t-53 -35.5q0 -3 10.5 -16t20.5 -34.5t10 -43.5q0 -37 -28.5 -65t-71.5 -28t-70.5 25t-27.5 66zM147 1040l228 398h78l227 -398h-55l-209 252h-4l-209 -252h-56zM225 242q0 -72 44 -115t112 -43q50 0 97 26.5t104 79.5l12 308 q-200 -53 -284.5 -113.5t-84.5 -142.5z" />
<glyph unicode="&#xe3;" horiz-adv-x="899" d="M70 709q0 48 59.5 104t149.5 94.5t170 38.5q173 0 237 -86t57 -313l-16 -391q-3 -72 45 -72q35 0 105 57l34 -45q-100 -127 -190 -127q-59 0 -95 38t-36 114h-8q-71 -74 -130 -113t-126 -39q-103 0 -176.5 68t-73.5 170q0 126 121 207.5t401 148.5v19q0 157 -50.5 216.5 t-158.5 59.5q-56 0 -109 -17.5t-53 -35.5q0 -3 10.5 -16t20.5 -34.5t10 -43.5q0 -37 -28.5 -65t-71.5 -28t-70.5 25t-27.5 66zM86 1079q21 120 68.5 180t128.5 60q42 0 89.5 -23t81.5 -51t71 -51t61 -23q33 0 56.5 28t53.5 106h54q-42 -240 -197 -240q-43 0 -90 23 t-80.5 50.5t-70.5 50.5t-62 23q-33 0 -57 -27.5t-54 -105.5h-53zM225 242q0 -72 44 -115t112 -43q50 0 97 26.5t104 79.5l12 308q-200 -53 -284.5 -113.5t-84.5 -142.5z" />
<glyph unicode="&#xe4;" horiz-adv-x="899" d="M70 709q0 48 59.5 104t149.5 94.5t170 38.5q173 0 237 -86t57 -313l-16 -391q-3 -72 45 -72q35 0 105 57l34 -45q-100 -127 -190 -127q-59 0 -95 38t-36 114h-8q-71 -74 -130 -113t-126 -39q-103 0 -176.5 68t-73.5 170q0 126 121 207.5t401 148.5v19q0 157 -50.5 216.5 t-158.5 59.5q-56 0 -109 -17.5t-53 -35.5q0 -3 10.5 -16t20.5 -34.5t10 -43.5q0 -37 -28.5 -65t-71.5 -28t-70.5 25t-27.5 66zM113 1223q0 50 30 85t82 35t82.5 -35t30.5 -85t-30.5 -85.5t-82.5 -35.5t-82 35.5t-30 85.5zM225 242q0 -72 44 -115t112 -43q50 0 97 26.5 t104 79.5l12 308q-200 -53 -284.5 -113.5t-84.5 -142.5zM522 1223q0 50 30.5 85t82.5 35t82.5 -35t30.5 -85t-30.5 -85.5t-82.5 -35.5t-82.5 35.5t-30.5 85.5z" />
<glyph unicode="&#xe5;" horiz-adv-x="899" d="M70 709q0 48 59.5 104t149.5 94.5t170 38.5q173 0 237 -86t57 -313l-16 -391q-3 -72 45 -72q35 0 105 57l34 -45q-100 -127 -190 -127q-59 0 -95 38t-36 114h-8q-71 -74 -130 -113t-126 -39q-103 0 -176.5 68t-73.5 170q0 126 121 207.5t401 148.5v19q0 157 -50.5 216.5 t-158.5 59.5q-56 0 -109 -17.5t-53 -35.5q0 -3 10.5 -16t20.5 -34.5t10 -43.5q0 -37 -28.5 -65t-71.5 -28t-70.5 25t-27.5 66zM225 242q0 -72 44 -115t112 -43q50 0 97 26.5t104 79.5l12 308q-200 -53 -284.5 -113.5t-84.5 -142.5zM260 1239q0 78 49.5 131t132.5 53 q84 0 133.5 -53t49.5 -131t-49.5 -131t-133.5 -53q-83 0 -132.5 53t-49.5 131zM322 1239q0 -54 32.5 -91.5t87.5 -37.5t88 38t33 91q0 56 -33 93.5t-88 37.5t-87.5 -37.5t-32.5 -93.5z" />
<glyph unicode="&#xe6;" horiz-adv-x="1456" d="M70 709q0 48 59.5 104t149.5 94.5t170 38.5q116 0 183.5 -37t90.5 -116q138 151 336 151q145 0 230 -81t85 -216q0 -61 -12 -108l-617 8q0 -4 -1 -24.5t-1 -24.5q0 -173 90.5 -285.5t231.5 -112.5q160 0 262 125l41 -24q-55 -110 -151.5 -170t-215.5 -60 q-115 0 -206 54.5t-146 152.5q-60 -90 -148 -149.5t-177 -59.5q-101 0 -174.5 68t-73.5 170q0 126 121 206.5t401 149.5v25q21 270 -209 270q-56 0 -109 -17.5t-53 -35.5q0 -3 10.5 -16t20.5 -34.5t10 -43.5q0 -37 -28.5 -65t-71.5 -28t-70.5 25t-27.5 66zM225 242 q0 -72 45 -115t115 -43q131 0 240 141q-37 101 -37 205q0 20 6 68q-200 -53 -284.5 -113.5t-84.5 -142.5zM754 608q88 2 231 2h225q6 121 -45 191.5t-145 70.5q-88 0 -165 -72.5t-101 -191.5z" />
<glyph unicode="&#xe7;" horiz-adv-x="897" d="M70 430q0 147 65.5 265.5t174 183.5t237.5 65q133 0 213 -56.5t80 -133.5q0 -55 -31 -80t-74 -25q-57 0 -87 52t-7 128v5q-49 36 -129 36q-123 0 -205 -102.5t-82 -265.5q0 -173 91 -287.5t231 -114.5q157 0 262 125l41 -24q-47 -96 -126.5 -154t-180.5 -72l-92 -96 q119 5 191.5 -43t72.5 -137q0 -99 -108.5 -164t-309.5 -82l-16 45q164 23 241.5 67t77.5 113q0 51 -44.5 81t-129.5 30q-51 0 -119 -10v35l150 157q-170 12 -278.5 139.5t-108.5 319.5z" />
<glyph unicode="&#xe8;" horiz-adv-x="933" d="M70 430q0 147 64 265.5t171.5 183.5t233.5 65q145 0 230 -81t85 -216q0 -56 -10 -108l-617 8q-2 -8 -2 -49q0 -173 90.5 -285.5t231.5 -112.5q157 0 262 125l41 -24q-56 -110 -152 -170t-217 -60q-179 0 -295 129t-116 330zM182 1417h187l196 -377h-45zM236 608 q88 2 231 2h223q7 121 -44 191.5t-144 70.5q-88 0 -165 -72.5t-101 -191.5z" />
<glyph unicode="&#xe9;" horiz-adv-x="933" d="M70 430q0 147 64 265.5t171.5 183.5t233.5 65q145 0 230 -81t85 -216q0 -56 -10 -108l-617 8q-2 -8 -2 -49q0 -173 90.5 -285.5t231.5 -112.5q157 0 262 125l41 -24q-56 -110 -152 -170t-217 -60q-179 0 -295 129t-116 330zM236 608q88 2 231 2h223q7 121 -44 191.5 t-144 70.5q-88 0 -165 -72.5t-101 -191.5zM375 1040l192 377h193l-338 -377h-47z" />
<glyph unicode="&#xea;" horiz-adv-x="933" d="M70 430q0 147 64 265.5t171.5 183.5t233.5 65q145 0 230 -81t85 -216q0 -56 -10 -108l-617 8q-2 -8 -2 -49q0 -173 90.5 -285.5t231.5 -112.5q157 0 262 125l41 -24q-56 -110 -152 -170t-217 -60q-179 0 -295 129t-116 330zM209 1040l227 398h78l227 -398h-55l-209 252 h-4l-209 -252h-55zM236 608q88 2 231 2h223q7 121 -44 191.5t-144 70.5q-88 0 -165 -72.5t-101 -191.5z" />
<glyph unicode="&#xeb;" horiz-adv-x="933" d="M70 430q0 147 64 265.5t171.5 183.5t233.5 65q145 0 230 -81t85 -216q0 -56 -10 -108l-617 8q-2 -8 -2 -49q0 -173 90.5 -285.5t231.5 -112.5q157 0 262 125l41 -24q-56 -110 -152 -170t-217 -60q-179 0 -295 129t-116 330zM158 1223q0 50 30 85t82 35t82.5 -35t30.5 -85 t-30.5 -85.5t-82.5 -35.5t-82 35.5t-30 85.5zM236 608q88 2 231 2h223q7 121 -44 191.5t-144 70.5q-88 0 -165 -72.5t-101 -191.5zM567 1223q0 50 30.5 85t82.5 35t82.5 -35t30.5 -85t-30.5 -85.5t-82.5 -35.5t-82.5 35.5t-30.5 85.5z" />
<glyph unicode="&#xec;" horiz-adv-x="544" d="M-35 1417h187l196 -377h-45zM49 821l4 56l293 67v-838q0 -26 57 -28l86 -8l7 -70h-439l6 70l87 8q51 3 51 31v575q0 51 -6.5 74.5t-19 32.5t-44.5 18z" />
<glyph unicode="&#xed;" horiz-adv-x="544" d="M49 821l4 56l293 67v-838q0 -26 57 -28l86 -8l7 -70h-439l6 70l87 8q51 3 51 31v575q0 51 -6.5 74.5t-19 32.5t-44.5 18zM170 1040l192 377h193l-338 -377h-47z" />
<glyph unicode="&#xee;" horiz-adv-x="544" d="M2 1040l227 398h78l228 -398h-56l-209 252h-4l-209 -252h-55zM49 821l4 56l293 67v-838q0 -26 57 -28l86 -8l7 -70h-439l6 70l87 8q51 3 51 31v575q0 51 -6.5 74.5t-19 32.5t-44.5 18z" />
<glyph unicode="&#xef;" horiz-adv-x="544" d="M-49 1223q0 50 30 85t82 35t82.5 -35t30.5 -85t-30.5 -85.5t-82.5 -35.5t-82 35.5t-30 85.5zM49 821l4 56l293 67v-838q0 -26 57 -28l86 -8l7 -70h-439l6 70l87 8q51 3 51 31v575q0 51 -6.5 74.5t-19 32.5t-44.5 18zM360 1223q0 50 30.5 85t82.5 35t82.5 -35t30.5 -85 t-30.5 -85.5t-82.5 -35.5t-82.5 35.5t-30.5 85.5z" />
<glyph unicode="&#xf0;" horiz-adv-x="1024" d="M53 455q0 105 36 196.5t95.5 153.5t136.5 97.5t160 35.5q100 0 185 -50.5t137 -150.5q-58 260 -238 418l-303 -100v84l225 75q-104 69 -229 103l31 53q162 -33 301 -123q0 1 18 7t54 17.5t63 20.5q48 17 133 45v-84l-188 -63q143 -119 223 -286.5t80 -360.5 q0 -162 -54.5 -291.5t-161 -206t-249.5 -76.5q-200 0 -327.5 140.5t-127.5 345.5zM215 508q0 -118 34.5 -218.5t94.5 -160.5q80 -80 186 -80q125 0 202 95t77 264q0 118 -32 215.5t-91 156.5q-84 84 -192 84q-126 0 -202.5 -93.5t-76.5 -262.5z" />
<glyph unicode="&#xf1;" horiz-adv-x="1110" d="M49 821l2 56l295 67v-147h10q174 147 328 147q107 0 172 -65q76 -76 76 -228v-542q0 -13 11.5 -20t49.5 -11l82 -8l6 -70h-436l6 70l84 8q30 1 40.5 8.5t10.5 22.5v446q0 145 -49 204.5t-147 59.5q-120 0 -244 -102v-252v-359q0 -13 11 -20t44 -8l95 -8l6 -70h-443l7 70 l81 8q52 3 52 31v579q0 69 -11 89t-53 32zM223 1079q21 120 68.5 180t128.5 60q42 0 89.5 -23t81.5 -51t71 -51t61 -23q33 0 57 28t54 106h53q-42 -240 -197 -240q-43 0 -90 23t-80.5 50.5t-70.5 50.5t-62 23q-33 0 -57 -27.5t-54 -105.5h-53z" />
<glyph unicode="&#xf2;" horiz-adv-x="1060" d="M72 453q0 209 138 350t337 141q196 0 320 -132t124 -335q0 -216 -135.5 -362t-337.5 -146q-200 0 -323 137t-123 347zM233 498q0 -248 113 -367q82 -82 193 -82q125 0 208.5 101.5t83.5 265.5q0 250 -110 366q-84 84 -195 84q-127 0 -210 -102t-83 -266zM233 1417h187 l196 -377h-45z" />
<glyph unicode="&#xf3;" horiz-adv-x="1060" d="M72 453q0 209 138 350t337 141q196 0 320 -132t124 -335q0 -216 -135.5 -362t-337.5 -146q-200 0 -323 137t-123 347zM233 498q0 -248 113 -367q82 -82 193 -82q125 0 208.5 101.5t83.5 265.5q0 250 -110 366q-84 84 -195 84q-127 0 -210 -102t-83 -266zM442 1040 l193 377h192l-338 -377h-47z" />
<glyph unicode="&#xf4;" horiz-adv-x="1060" d="M72 453q0 209 138 350t337 141q196 0 320 -132t124 -335q0 -216 -135.5 -362t-337.5 -146q-200 0 -323 137t-123 347zM233 498q0 -248 113 -367q82 -82 193 -82q125 0 208.5 101.5t83.5 265.5q0 250 -110 366q-84 84 -195 84q-127 0 -210 -102t-83 -266zM264 1040 l228 398h77l228 -398h-56l-209 252h-4l-209 -252h-55z" />
<glyph unicode="&#xf5;" horiz-adv-x="1060" d="M72 453q0 209 138 350t337 141q196 0 320 -132t124 -335q0 -216 -135.5 -362t-337.5 -146q-200 0 -323 137t-123 347zM199 1079q21 121 68.5 180.5t127.5 59.5q42 0 89.5 -23t81.5 -51t71 -51t61 -23q33 0 57 28t54 106h53q-21 -120 -68.5 -180t-127.5 -60 q-43 0 -90.5 23t-81 50.5t-70.5 50.5t-62 23q-33 0 -56.5 -27.5t-53.5 -105.5h-53zM233 498q0 -248 113 -367q82 -82 193 -82q125 0 208.5 101.5t83.5 265.5q0 250 -110 366q-84 84 -195 84q-127 0 -210 -102t-83 -266z" />
<glyph unicode="&#xf6;" horiz-adv-x="1060" d="M72 453q0 209 138 350t337 141q196 0 320 -132t124 -335q0 -216 -135.5 -362t-337.5 -146q-200 0 -323 137t-123 347zM213 1223q0 50 30.5 85t82.5 35t82 -35t30 -85t-30 -85.5t-82 -35.5t-82.5 35.5t-30.5 85.5zM233 498q0 -248 113 -367q82 -82 193 -82 q125 0 208.5 101.5t83.5 265.5q0 250 -110 366q-84 84 -195 84q-127 0 -210 -102t-83 -266zM623 1223q0 50 30 85t82 35t82.5 -35t30.5 -85t-30.5 -85.5t-82.5 -35.5t-82 35.5t-30 85.5z" />
<glyph unicode="&#xf7;" horiz-adv-x="995" d="M84 426l6 111h817l6 -111h-829zM395 193q0 42 30.5 73t76.5 31t75 -30.5t29 -73.5t-29 -75t-75 -32t-76.5 32t-30.5 75zM395 766q0 43 29.5 74.5t75.5 31.5t76 -31.5t30 -74.5t-30 -75t-76 -32t-75.5 32t-29.5 75z" />
<glyph unicode="&#xf8;" horiz-adv-x="1060" d="M76 455q0 134 59.5 246t165.5 177.5t234 65.5q108 0 208 -49l162 279h78l-182 -318q86 -66 133 -170t47 -227q0 -134 -59.5 -246t-165.5 -178t-234 -66q-107 0 -207 49l-141 -247h-80l164 282q-86 66 -134 171.5t-48 230.5zM225 506q0 -201 101 -336l358 623 q-74 71 -186 71q-122 0 -197.5 -94.5t-75.5 -263.5zM373 117q80 -68 184 -68q120 0 196 95.5t76 263.5q0 206 -96 331z" />
<glyph unicode="&#xf9;" horiz-adv-x="1077" d="M20 913h306l-15 -553q0 -147 49.5 -206.5t147.5 -59.5q122 0 244 105v323v285q0 14 -11 20.5t-45 10.5l-102 8l-6 67h311v-786q0 -33 19 -39l147 -33l-6 -49l-307 -37v150h-11q-177 -150 -327 -150q-104 0 -172 68q-76 70 -76 225l4 545q0 8 -1.5 12.5t-3.5 7.5t-8 4.5 t-11.5 2t-18 1.5t-23.5 3l-77 8zM215 1417h186l197 -377h-45z" />
<glyph unicode="&#xfa;" horiz-adv-x="1077" d="M20 913h306l-15 -553q0 -147 49.5 -206.5t147.5 -59.5q122 0 244 105v323v285q0 14 -11 20.5t-45 10.5l-102 8l-6 67h311v-786q0 -33 19 -39l147 -33l-6 -49l-307 -37v150h-11q-177 -150 -327 -150q-104 0 -172 68q-76 70 -76 225l4 545q0 8 -1.5 12.5t-3.5 7.5t-8 4.5 t-11.5 2t-18 1.5t-23.5 3l-77 8zM442 1040l193 377h192l-338 -377h-47z" />
<glyph unicode="&#xfb;" horiz-adv-x="1077" d="M20 913h306l-15 -553q0 -147 49.5 -206.5t147.5 -59.5q122 0 244 105v323v285q0 14 -11 20.5t-45 10.5l-102 8l-6 67h311v-786q0 -33 19 -39l147 -33l-6 -49l-307 -37v150h-11q-177 -150 -327 -150q-104 0 -172 68q-76 70 -76 225l4 545q0 8 -1.5 12.5t-3.5 7.5t-8 4.5 t-11.5 2t-18 1.5t-23.5 3l-77 8zM248 1040l227 398h78l227 -398h-55l-209 252h-4l-209 -252h-55z" />
<glyph unicode="&#xfc;" horiz-adv-x="1077" d="M20 913h306l-15 -553q0 -147 49.5 -206.5t147.5 -59.5q122 0 244 105v323v285q0 14 -11 20.5t-45 10.5l-102 8l-6 67h311v-786q0 -33 19 -39l147 -33l-6 -49l-307 -37v150h-11q-177 -150 -327 -150q-104 0 -172 68q-76 70 -76 225l4 545q0 8 -1.5 12.5t-3.5 7.5t-8 4.5 t-11.5 2t-18 1.5t-23.5 3l-77 8zM190 1223q0 50 30.5 85t82.5 35t82.5 -35t30.5 -85t-30.5 -85.5t-82.5 -35.5t-82.5 35.5t-30.5 85.5zM602 1223q0 50 30.5 85t82.5 35t82 -35t30 -85t-30 -85.5t-82 -35.5t-82.5 35.5t-30.5 85.5z" />
<glyph unicode="&#xfd;" horiz-adv-x="925" d="M-37 913h422l-6 -67l-70 -10q-57 -3 -35 -56l254 -604l195 555q18 54 10 75t-49 25l-76 15l-6 67h371l-6 -67l-68 -15q-33 -5 -50.5 -24.5t-43.5 -83.5l-250 -680l-98 -311q-45 -140 -99 -204.5t-141 -64.5q-61 0 -97 29.5t-36 77.5q0 45 24.5 73.5t71.5 28.5 q78 0 117 -73q25 12 45.5 48t44.5 109l78 224v2l-356 790q-14 32 -27.5 42.5t-50.5 16.5l-60 13zM360 1040l193 377h192l-337 -377h-48z" />
<glyph unicode="&#xfe;" horiz-adv-x="1050" d="M-16 1303l6 51l313 73v-643h8q143 150 297 150q168 0 269.5 -124.5t101.5 -313.5q0 -102 -33.5 -197t-93 -168.5t-151 -117.5t-199.5 -44q-111 0 -195 35h-4v-401q0 -14 11.5 -21t45.5 -8l107 -8l6 -70h-459l6 70l86 8q52 3 52 31v1609q0 36 -23 43zM303 162 q113 -113 238 -113q113 0 195.5 106.5t82.5 272.5q0 167 -76.5 273t-197.5 106q-70 0 -133.5 -36t-108.5 -91v-518z" />
<glyph unicode="&#xff;" horiz-adv-x="925" d="M-37 913h422l-6 -67l-70 -10q-57 -3 -35 -56l254 -604l195 555q18 54 10 75t-49 25l-76 15l-6 67h371l-6 -67l-68 -15q-33 -5 -50.5 -24.5t-43.5 -83.5l-250 -680l-98 -311q-45 -140 -99 -204.5t-141 -64.5q-61 0 -97 29.5t-36 77.5q0 45 24.5 73.5t71.5 28.5 q78 0 117 -73q25 12 45.5 48t44.5 109l78 224v2l-356 790q-14 32 -27.5 42.5t-50.5 16.5l-60 13zM164 1223q0 50 30 85t82 35t82.5 -35t30.5 -85t-30.5 -85.5t-82.5 -35.5t-82 35.5t-30 85.5zM573 1223q0 50 30.5 85t82.5 35t82.5 -35t30.5 -85t-30.5 -85.5t-82.5 -35.5 t-82.5 35.5t-30.5 85.5z" />
<glyph unicode="&#x152;" horiz-adv-x="1910" d="M94 618q0 136 48 254.5t140 210.5t239 145.5t333 53.5l932 -2v-371h-82l-45 207q-10 35 -19.5 49t-59.5 25t-122 12.5t-237 1.5h-93v-514h91q75 0 107.5 0.5t58 5t32 11.5t10.5 22l48 137h65l-41 -426h-65l-15 131q-4 19 -13.5 27t-52.5 13t-136 5h-89v-540h66 q116 0 187.5 1t128 5.5t84 9t47 16.5t25.5 23t13 33l52 198h92l-39 -362h-934q-340 0 -548 170t-208 448zM266 668q0 -270 163 -429t464 -159h78v1098l-166 32q-168 -3 -291.5 -76t-185.5 -193.5t-62 -272.5z" />
<glyph unicode="&#x153;" horiz-adv-x="1697" d="M72 455q3 138 66.5 250.5t171.5 175.5t237 63q123 0 220 -54.5t155 -152.5q63 98 162 152.5t216 54.5q142 0 229 -81.5t87 -215.5q0 -61 -12 -108l-617 8q-2 -8 -2 -49q0 -173 90.5 -285.5t231.5 -112.5q160 0 262 125l41 -24q-56 -110 -152 -170t-217 -60 q-109 0 -199.5 52t-144.5 145q-64 -93 -163 -146t-216 -53q-200 0 -325.5 138t-120.5 348zM233 502q-2 -117 27.5 -214.5t85.5 -156.5q82 -82 193 -82q126 0 207 99.5t85 263.5q0 254 -110 370q-84 84 -195 84q-129 0 -210.5 -99t-82.5 -265zM995 608q88 2 232 2h223 q7 121 -44 191.5t-144 70.5q-88 0 -165.5 -72.5t-101.5 -191.5z" />
<glyph unicode="&#x178;" horiz-adv-x="1239" d="M-14 1280h499l-6 -70l-102 -12q-43 -5 -27 -57q11 -35 51 -101l246 -407h10l267 454q21 36 25.5 59.5t-6 36t-36.5 17.5l-78 10l-6 70h414l-6 -70l-62 -10q-46 -13 -75.5 -35t-63.5 -75l-321 -533v-448q0 -12 10.5 -17t42.5 -10l139 -12l6 -70h-567l6 70l141 12 q54 6 54 29v426l-381 602q-32 46 -84 57l-84 14zM330 1565q0 50 30 85.5t82 35.5t82.5 -35.5t30.5 -85.5t-30.5 -85.5t-82.5 -35.5t-82 35.5t-30 85.5zM739 1565q0 50 30.5 85.5t82.5 35.5t82.5 -35.5t30.5 -85.5t-30.5 -85.5t-82.5 -35.5t-82.5 35.5t-30.5 85.5z" />
<glyph unicode="&#x2c6;" d="M143 1040l228 398h78l227 -398h-55l-209 252h-4l-209 -252h-56z" />
<glyph unicode="&#x2dc;" d="M78 1079q21 121 68.5 180.5t127.5 59.5q42 0 89.5 -23t82 -51t71.5 -51t61 -23q33 0 56.5 28t53.5 106h53q-21 -120 -68.5 -180t-127.5 -60q-43 0 -90 23t-80.5 50.5t-70.5 50.5t-62 23q-33 0 -57 -27.5t-54 -105.5h-53z" />
<glyph unicode="&#x2000;" horiz-adv-x="892" />
<glyph unicode="&#x2001;" horiz-adv-x="1784" />
<glyph unicode="&#x2002;" horiz-adv-x="892" />
<glyph unicode="&#x2003;" horiz-adv-x="1784" />
<glyph unicode="&#x2004;" horiz-adv-x="594" />
<glyph unicode="&#x2005;" horiz-adv-x="446" />
<glyph unicode="&#x2006;" horiz-adv-x="297" />
<glyph unicode="&#x2007;" horiz-adv-x="297" />
<glyph unicode="&#x2008;" horiz-adv-x="223" />
<glyph unicode="&#x2009;" horiz-adv-x="356" />
<glyph unicode="&#x200a;" horiz-adv-x="99" />
<glyph unicode="&#x2010;" horiz-adv-x="671" d="M70 428l6 104h524l6 -104h-536z" />
<glyph unicode="&#x2011;" horiz-adv-x="671" d="M70 428l6 104h524l6 -104h-536z" />
<glyph unicode="&#x2012;" horiz-adv-x="671" d="M70 428l6 104h524l6 -104h-536z" />
<glyph unicode="&#x2013;" horiz-adv-x="962" d="M53 424l6 100h848l6 -100h-860z" />
<glyph unicode="&#x2014;" horiz-adv-x="1921" d="M53 424l6 100h1805l6 -100h-1817z" />
<glyph unicode="&#x2018;" horiz-adv-x="462" d="M72 969q0 61 24 118t70 108.5t87.5 88t102.5 82.5l45 -33q-75 -55 -124.5 -124t-49.5 -146q0 -32 16 -60.5t38.5 -46.5t45 -31t38.5 -20t16 -8q0 -49 -34.5 -82t-94.5 -33q-70 0 -125 55t-55 132z" />
<glyph unicode="&#x2019;" horiz-adv-x="462" d="M68 797q172 132 172 270q0 33 -15.5 62t-38 47t-45 31t-38 20t-15.5 8q0 49 34.5 82t94.5 33q70 0 125 -55t55 -132q0 -61 -24 -119t-70 -109.5t-87.5 -88t-102.5 -82.5z" />
<glyph unicode="&#x201a;" horiz-adv-x="462" d="M68 -324q172 132 172 271q0 33 -15.5 62t-38 47t-45 31t-38 20t-15.5 8q0 49 34.5 81.5t94.5 32.5q70 0 125 -54.5t55 -131.5q0 -61 -24 -119t-70 -109.5t-87.5 -88t-102.5 -82.5z" />
<glyph unicode="&#x201c;" horiz-adv-x="868" d="M72 969q0 61 24 118t70 108.5t87.5 88t102.5 82.5l45 -33q-75 -55 -124.5 -124t-49.5 -146q0 -32 16 -60.5t38.5 -46.5t45 -31t38.5 -20t16 -8q0 -49 -34.5 -82t-94.5 -33q-70 0 -125 55t-55 132zM498 969q0 61 24 118t70 108.5t87.5 88t102.5 82.5l45 -33 q-172 -129 -172 -270q0 -32 15.5 -60.5t38 -46.5t45 -31t38 -20t15.5 -8q0 -49 -34.5 -82t-94.5 -33q-70 0 -125 55t-55 132z" />
<glyph unicode="&#x201d;" horiz-adv-x="868" d="M68 797q172 132 172 270q0 33 -15.5 62t-38 47t-45 31t-38 20t-15.5 8q0 49 34.5 82t94.5 33q70 0 125 -55t55 -132q0 -61 -24 -119t-70 -109.5t-87.5 -88t-102.5 -82.5zM496 797q172 132 172 270q0 33 -15.5 62t-38 47t-45 31t-38 20t-15.5 8q0 49 34 82t95 33 q70 0 125 -55t55 -132q0 -61 -24 -119t-70 -109.5t-87.5 -88t-102.5 -82.5z" />
<glyph unicode="&#x201e;" horiz-adv-x="868" d="M68 -324q172 132 172 271q0 33 -15.5 62t-38 47t-45 31t-38 20t-15.5 8q0 49 34.5 81.5t94.5 32.5q70 0 125 -54.5t55 -131.5q0 -61 -24 -119t-70 -109.5t-87.5 -88t-102.5 -82.5zM496 -324q172 132 172 271q0 33 -15.5 62t-38 47t-45 31t-38 20t-15.5 8q0 49 34 81.5 t95 32.5q70 0 125 -54.5t55 -131.5q0 -61 -24 -119t-70 -109.5t-87.5 -88t-102.5 -82.5z" />
<glyph unicode="&#x2022;" horiz-adv-x="931" d="M72 475q0 43 42.5 145.5t73.5 133.5t133.5 72.5t145.5 41.5t147 -41.5t131 -72.5q31 -27 73 -131.5t42 -147.5t-41.5 -145.5t-73.5 -134.5q-31 -31 -133.5 -73t-146.5 -42q-42 0 -145 43t-132 72q-30 35 -73 136t-43 144z" />
<glyph unicode="&#x2026;" horiz-adv-x="1392" d="M106 96q0 51 37 87t93 36q54 0 89 -36t35 -87t-35 -89t-89 -38q-56 0 -93 38t-37 89zM571 96q0 50 36.5 86.5t90.5 36.5q55 0 90 -36t35 -87q0 -52 -35 -89.5t-90 -37.5q-54 0 -90.5 38t-36.5 89zM1034 96q0 51 36.5 87t92.5 36q54 0 89.5 -36t35.5 -87t-35.5 -89 t-89.5 -38q-55 0 -92 38t-37 89z" />
<glyph unicode="&#x202f;" horiz-adv-x="356" />
<glyph unicode="&#x2039;" horiz-adv-x="634" d="M80 410v86l440 315l21 -41l-303 -317l303 -318l-21 -41z" />
<glyph unicode="&#x203a;" horiz-adv-x="634" d="M96 135l303 318l-303 317l19 41l442 -315v-86l-442 -316z" />
<glyph unicode="&#x205f;" horiz-adv-x="446" />
<glyph unicode="&#x20ac;" horiz-adv-x="1056" d="M43 434l6 80h119q-4 62 -4 92q0 22 4 84h-125l6 80h129q40 230 183 372t346 142q128 0 217.5 -50t89.5 -120q0 -39 -25 -65.5t-65 -26.5q-51 0 -83 43t-40 104q-51 33 -129 33q-140 0 -230 -116t-114 -316h424l6 -80h-436v-49q0 -69 6 -127h424l6 -80h-416 q40 -169 134.5 -257.5t219.5 -88.5q159 0 289 152l41 -23q-132 -248 -381 -248q-175 0 -299 126.5t-166 338.5h-137z" />
<glyph unicode="&#x2122;" horiz-adv-x="1865" d="M61 1012l17 268h672v-268h-60l-14 71q-18 64 -35.5 90t-55 38t-116.5 12h-6v-615q0 -19 18 -22l105 -13l2 -55h-371l4 55l105 13q20 3 20 22v615h-8q-100 0 -136.5 -27t-66.5 -113l-18 -71h-56zM838 518l4 55l80 11q11 0 16.5 10.5t10 43t7.5 97.5l15 453q0 21 -17 24 l-88 13l-4 55h289l156 -586h18l199 586h288l-4 -55l-84 -13q-22 -3 -22 -24l12 -510q1 -52 8.5 -69.5t22.5 -22.5l80 -13l4 -55h-336l4 55l78 13q13 4 16.5 20.5t3.5 71.5l-12 520h-20l-228 -655h-92l-186 659h-21l-16 -467q-4 -100 -1 -121.5t19 -29.5l82 -11l4 -55h-286z " />
<glyph unicode="&#x25fc;" horiz-adv-x="911" d="M0 0v911h911v-911h-911z" />
<glyph unicode="&#xfb01;" horiz-adv-x="1130" d="M25 821l12 90h149l2 52q12 208 137.5 336t323.5 128q77 0 142 -38.5t65 -102.5q0 -41 -25.5 -66.5t-66.5 -25.5q-98 0 -125 119l-2 10l-119 23q-176 -72 -176 -369v-66h358l232 31v-836q0 -13 11.5 -20t45.5 -8l86 -8l6 -70h-438l6 70l84 8q51 3 51 31v708h-442v-711 q0 -26 57 -28l136 -8l6 -70h-488l6 70l86 8q52 3 52 31v704z" />
<glyph unicode="&#xfb02;" horiz-adv-x="1134" d="M25 821l12 90h149l2 52q12 208 137.5 336t323.5 128q83 0 144 -38l139 38v-1321q0 -13 11.5 -20t45.5 -8l86 -8l6 -70h-438l6 70l84 8q51 3 51 31v708h-442v-711q0 -26 57 -28l136 -8l6 -70h-488l6 70l86 8q52 3 52 31v704zM342 911h442v285q-4 -2 -20 -2q-98 0 -125 119 l-2 10l-119 23q-176 -72 -176 -369v-66z" />
<glyph unicode="&#xfb03;" horiz-adv-x="1718" d="M25 821l12 90h149l2 33q20 203 139.5 333t284.5 130q74 0 126.5 -34.5t52.5 -88.5q0 -42 -25.5 -67t-63.5 -25q-43 0 -77.5 33.5t-51.5 93.5l-2 10l-51 4q-178 -73 -178 -377v-45h432l2 52q12 208 137 336t324 128q77 0 142 -38.5t65 -102.5q0 -41 -25.5 -66.5 t-64.5 -25.5q-97 0 -127 119l-2 10l-117 23q-176 -72 -176 -369v-66h356l232 31v-836q0 -26 57 -28l86 -8l6 -70h-438l6 70l86 8q51 3 51 31v708h-442v-711q0 -13 11.5 -20t45.5 -8l133 -8l6 -70h-485l6 70l84 8q51 4 51 31v710h-442v-692q0 -33 37 -39l162 -18l6 -70h-494 l6 70l103 18q35 6 35 39v686z" />
<glyph unicode="&#xfb04;" horiz-adv-x="1722" d="M25 821l12 90h149l2 33q20 203 139.5 333t284.5 130q74 0 126.5 -34.5t52.5 -88.5q0 -42 -25.5 -67t-63.5 -25q-43 0 -77.5 33.5t-51.5 93.5l-2 10l-51 4q-178 -73 -178 -377v-45h432l2 52q12 208 137 336t324 128q82 0 143 -38l140 38v-1321q0 -26 57 -28l86 -8l6 -70 h-438l6 70l86 8q51 3 51 31v708h-442v-711q0 -13 11.5 -20t45.5 -8l133 -8l6 -70h-485l6 70l84 8q51 4 51 31v710h-442v-692q0 -33 37 -39l162 -18l6 -70h-494l6 70l103 18q35 6 35 39v686zM932 911h442v285q-4 -2 -20 -2q-97 0 -127 119l-2 10l-117 23q-176 -72 -176 -369 v-66z" />
</font>
</defs>
</svg>
