<?xml version="1.0" standalone="no"?>
<!DOCTYPE svg PUBLIC "-//W3C//DTD SVG 1.1//EN" "http://www.w3.org/Graphics/SVG/1.1/DTD/svg11.dtd" >
<svg xmlns="http://www.w3.org/2000/svg">
<metadata></metadata>
<defs>
<font id="moonlight" horiz-adv-x="1014" >
<font-face units-per-em="2048" ascent="1638" descent="-410" />
<missing-glyph horiz-adv-x="508" />
<glyph unicode="&#xd;" horiz-adv-x="508" />
<glyph horiz-adv-x="0" />
<glyph horiz-adv-x="0" />
<glyph unicode=" "  horiz-adv-x="508" />
<glyph unicode="&#x09;" horiz-adv-x="508" />
<glyph unicode="&#xa0;" horiz-adv-x="508" />
<glyph unicode="!" horiz-adv-x="824" d="M296 1377l4 -953q0 -24 18 -42q17 -17 42 -17t42 17q18 18 18 43l-4 953q0 24 -18 42q-17 17 -42 17t-43 -17q-17 -18 -17 -43zM297 60q0 -25 18 -42q18 -18 42 -18q25 0 43 18q17 17 17 42t-17 42t-43 17q-25 0 -42 -17q-18 -17 -18 -42z" />
<glyph unicode="&#x22;" horiz-adv-x="965" d="M237 1167q0 -24 17 -42q18 -17 42 -17q25 0 42 17q17 18 17 42v204q0 24 -17 42q-17 17 -42 17q-24 0 -42 -17q-17 -18 -17 -42v-204zM546 1167q0 -24 17 -42q17 -17 42 -17q24 0 42 17q17 18 17 42v204q0 24 -17 42q-18 17 -42 17q-25 0 -42 -17q-17 -18 -17 -42v-204z " />
<glyph unicode="#" horiz-adv-x="1425" d="M4 464q0 -25 18 -42q17 -18 42 -18h207l-27 -339q-2 -25 14 -44t40 -21h5q24 0 41 16t19 39l28 349h452l-28 -339q-2 -25 14 -44t41 -21h5q23 0 40 16q18 16 19 39l29 349h211q25 0 42 18q18 17 18 42t-18 42q-17 18 -42 18h-201l32 390h210q25 0 43 17q17 18 17 43 q0 24 -17 42q-18 18 -43 18h-200l27 337q2 25 -14 44q-16 18 -41 20q-24 2 -43 -14t-21 -40l-29 -347h-451l28 337q2 25 -15 44q-16 18 -40 20q-25 2 -44 -14t-21 -40l-28 -347h-218q-24 0 -42 -18q-17 -18 -17 -42q0 -25 17 -43q18 -17 42 -17h208l-32 -390h-217 q-25 0 -42 -18q-18 -17 -18 -42zM401 524l32 390h452l-32 -390h-452z" />
<glyph unicode="$" horiz-adv-x="1038" d="M86 972q-5 -116 78 -204q87 -93 247 -109v-413q-175 29 -207 151q-7 24 -28 37q-21 12 -45 6t-37 -28q-12 -21 -6 -45q28 -108 126 -172q82 -55 197 -70v-65q0 -25 18 -43q17 -17 42 -17t42 17q18 18 18 43v64q133 17 225 111q92 95 98 224q5 117 -78 204 q-87 92 -245 109v413q174 -29 205 -151q7 -24 28 -36q21 -13 45 -7q24 7 37 28q12 21 6 45q-28 107 -125 172q-82 55 -196 70v67q0 25 -18 43q-17 17 -42 17t-42 -17q-18 -18 -18 -43v-65q-134 -17 -226 -111q-93 -95 -99 -225zM206 967q3 82 62 144q57 61 143 76v-407 q-107 13 -160 70q-48 51 -45 117zM531 245v407q105 -15 158 -71q48 -51 45 -116q-3 -82 -61 -144q-57 -61 -142 -76z" />
<glyph unicode="%" horiz-adv-x="1583" d="M64 1181q0 -107 75 -182q76 -75 182 -75t181 75q76 75 76 182q0 106 -76 181q-75 76 -181 76t-182 -76q-75 -75 -75 -181zM184 1181q0 56 40 97q40 40 97 40t97 -40q40 -41 40 -97q0 -57 -40 -97q-40 -41 -97 -41t-97 41q-40 40 -40 97zM219 50q4 -24 24 -39 q15 -11 35 -11q30 0 48 25l956 1315q15 20 11 44t-24 39t-44 11q-25 -4 -39 -24l-957 -1315q-14 -20 -10 -45zM927 266q0 -106 75 -181t181 -75q107 0 182 75t75 181q0 107 -75 182t-182 75q-106 0 -181 -75t-75 -182zM1046 266q0 57 40 97q41 41 97 41q57 0 97 -41 q41 -40 41 -97q0 -56 -41 -97q-40 -40 -97 -40q-56 0 -97 40q-40 41 -40 97z" />
<glyph unicode="&#x26;" horiz-adv-x="1323" d="M51 423q0 -175 124 -299t299 -124q163 0 284 110q120 109 137 269l245 -335q18 -26 50 -26q20 0 36 12q20 15 24 40q4 26 -11 46l-510 700l-6 6q79 42 126 117q48 78 48 170q0 134 -95 229t-228 95q-134 0 -229 -95t-95 -229q0 -174 147 -270q-149 -28 -247 -144 q-99 -118 -99 -272zM174 423q0 124 88 212t212 88t212 -88t88 -212t-88 -212t-212 -88t-212 88t-88 212zM373 1109q0 83 59 141q59 59 142 59q82 0 141 -59q59 -58 59 -141t-59 -141q-59 -59 -141 -59q-83 0 -142 59q-59 58 -59 141z" />
<glyph unicode="'" horiz-adv-x="682" d="M259 1169q0 -25 17 -42q18 -18 42 -18q25 0 42 18q17 17 17 42v204q0 24 -17 41q-17 18 -42 18q-24 0 -42 -18q-17 -17 -17 -41v-204z" />
<glyph unicode="(" horiz-adv-x="881" d="M266 716q0 -393 176 -687q18 -29 51 -29q17 0 31 8q21 13 27 37t-7 45q-159 266 -159 626t159 625q13 21 7 45t-27 37t-45 7t-37 -28q-176 -293 -176 -686z" />
<glyph unicode=")" horiz-adv-x="915" d="M249 45q6 -24 27 -36q14 -9 31 -9q33 0 51 29q177 294 177 688t-177 689q-13 21 -37 27t-45 -7t-27 -36q-6 -24 7 -46q160 -266 160 -627t-160 -627q-13 -21 -7 -45z" />
<glyph unicode="*" horiz-adv-x="1044" d="M224 976q0 -24 17 -42q18 -17 42 -17q25 0 43 17l156 157l157 -157q18 -17 42 -17q25 0 42 17q18 18 18 42q0 25 -18 42l-157 157l157 157q18 17 18 42q0 24 -18 42q-17 17 -42 17q-24 0 -42 -17l-157 -157l-156 157q-18 17 -43 17q-24 0 -42 -17q-17 -18 -17 -42 q0 -25 17 -42l157 -157l-157 -157q-17 -17 -17 -42z" />
<glyph unicode="+" horiz-adv-x="1052" d="M126 739q0 -25 17 -43q18 -17 43 -17h215v-215q0 -25 17 -42q17 -18 42 -18t42 18q18 17 18 42v215h215q24 0 42 17q17 18 17 43q0 24 -17 42q-18 17 -42 17h-215v215q0 25 -18 42q-17 18 -42 18t-42 -18q-17 -17 -17 -42v-215h-215q-25 0 -43 -17q-17 -18 -17 -42z" />
<glyph unicode="," horiz-adv-x="704" d="M264 59q0 -24 17 -42q18 -17 42 -17q25 0 43 17q17 18 17 42v205q0 25 -17 42q-18 18 -43 18q-24 0 -42 -18q-17 -17 -17 -42v-205z" />
<glyph unicode="-" horiz-adv-x="1081" d="M142 740q0 -25 18 -43q17 -17 42 -17h550q24 0 42 17q17 18 17 43q0 24 -17 42q-18 17 -42 17h-550q-25 0 -42 -17q-18 -18 -18 -42z" />
<glyph unicode="." horiz-adv-x="592" d="M199 60q0 -25 17 -42q18 -18 43 -18q24 0 42 18q17 17 17 42q0 24 -17 42q-17 16 -42 16q-26 0 -43 -16q-17 -18 -17 -42z" />
<glyph unicode="/" horiz-adv-x="868" d="M269 65q-2 -25 14 -44t41 -21h5q23 0 40 16t19 39l108 1313q2 25 -14 43q-16 19 -41 21t-44 -14q-18 -16 -20 -40z" />
<glyph unicode="0" horiz-adv-x="1096" d="M171 390q0 -161 114 -276q115 -114 276 -114t275 114q114 115 114 276v659q0 162 -114 276t-275 114t-276 -114q-114 -114 -114 -276v-659zM291 390v659q0 112 79 191t191 79q111 0 191 -79q79 -79 79 -191v-659q0 -112 -79 -191q-80 -79 -191 -79q-112 0 -191 79 t-79 191z" />
<glyph unicode="1" horiz-adv-x="1096" d="M244 1233q8 -23 31 -34q22 -10 46 -2l259 94v-1231q0 -25 18 -42q17 -18 42 -18t43 18q17 17 17 42v1317q0 31 -25 49q-26 18 -55 7l-340 -123q-24 -9 -34 -31q-11 -23 -2 -46z" />
<glyph unicode="2" horiz-adv-x="1096" d="M156 1053q0 -12 1 -25q1 -25 20 -41t43 -15q25 2 41 20q17 19 15 44v17q0 109 77 186t186 77t186 -77t77 -186q0 -54 -21 -103l-589 -856q-20 -30 -4 -62q17 -32 53 -32h662q24 0 42 18q17 17 17 42t-17 42q-18 18 -42 18h-548l528 767l6 10q33 74 33 156q0 158 -112 271 q-113 112 -271 112t-271 -112q-112 -113 -112 -271z" />
<glyph unicode="3" horiz-adv-x="1096" d="M181 390q0 -161 114 -276q115 -114 276 -114t275 114q114 115 114 276q0 137 -85 243t-216 136l268 582q14 30 -4 58q-17 27 -50 27h-632q-25 0 -42 -17q-18 -18 -18 -43t18 -42q17 -18 42 -18h539l-264 -571q-13 -30 4 -58q18 -27 51 -27q111 0 191 -79q79 -80 79 -191 q0 -112 -79 -191q-80 -79 -191 -79q-112 0 -191 79t-79 191q0 24 -18 42q-17 18 -42 18t-42 -18q-18 -18 -18 -42z" />
<glyph unicode="4" horiz-adv-x="1096" d="M137 446q17 -32 53 -32h564v-354q0 -25 17 -43q18 -17 42 -17q25 0 43 17q17 18 17 43v1311q0 44 -42 57t-67 -23l-623 -897q-20 -30 -4 -62zM304 533l450 647v-647h-450z" />
<glyph unicode="5" horiz-adv-x="1096" d="M178 390q0 -161 114 -276q115 -114 276 -114t275 114q114 115 114 276t-114 275t-275 114h-231v534h558q25 0 42 18q18 18 18 42q0 25 -18 43q-17 17 -42 17h-617q-25 0 -43 -17q-17 -18 -17 -43v-653q0 -25 17 -43q18 -17 43 -17h290q111 0 191 -79q79 -80 79 -191 q0 -112 -79 -191q-80 -79 -191 -79q-112 0 -191 79t-79 191q0 24 -18 42q-17 18 -42 18t-42 -18q-18 -18 -18 -42z" />
<glyph unicode="6" horiz-adv-x="1096" d="M176 388q0 -160 114 -274t274 -114q161 0 275 114q113 114 113 274q0 161 -113 275q-114 113 -275 113q-83 0 -160 -35l216 612q9 23 -2 45q-11 23 -34 31t-45 -3q-23 -10 -31 -34l-311 -879q0 2 -1 -2q-20 -61 -20 -123zM295 388q0 111 79 190t190 79t190 -79t79 -190 t-79 -190t-190 -79t-190 79t-79 190z" />
<glyph unicode="7" horiz-adv-x="1096" d="M136 1371q0 -25 17 -42q18 -18 43 -18h585l-475 -1230q-9 -23 1 -45q10 -23 33 -32q10 -4 21 -4q41 0 56 38l506 1312q12 29 -6 55t-49 26h-672q-25 0 -43 -18q-17 -17 -17 -42z" />
<glyph unicode="8" horiz-adv-x="1096" d="M177 390q0 -161 114 -276q115 -114 276 -114t275 114q114 115 114 276q0 102 -50 191q-49 86 -133 139q84 52 133 138q50 89 50 191q0 162 -114 276t-275 114t-276 -114q-114 -114 -114 -276q0 -102 50 -191q49 -86 133 -138q-84 -53 -133 -139q-50 -89 -50 -191z M297 390q0 111 79 191q79 79 191 79q111 0 191 -79q79 -80 79 -191q0 -112 -79 -191q-80 -79 -191 -79q-112 0 -191 79t-79 191zM297 1049q0 112 79 191t191 79q111 0 191 -79q79 -79 79 -191q0 -111 -79 -190q-80 -80 -191 -80q-112 0 -191 80q-79 79 -79 190z" />
<glyph unicode="9" horiz-adv-x="1096" d="M179 1048q0 -161 114 -275q115 -115 276 -115q83 0 161 36l-218 -614q-8 -24 3 -46q10 -22 34 -31q9 -3 20 -3q42 0 56 40l313 882q-2 -4 0 3q20 61 20 123q0 161 -114 275q-114 115 -275 115t-276 -115q-114 -114 -114 -275zM299 1048q0 112 79 191t191 79 q111 0 191 -79q79 -79 79 -191t-79 -191q-80 -79 -191 -79q-112 0 -191 79t-79 191z" />
<glyph unicode=":" horiz-adv-x="431" d="M106 435q0 -25 18 -42q17 -18 42 -18q24 0 42 18q17 17 17 42t-17 42t-42 17q-26 0 -42 -17q-18 -17 -18 -42zM106 1002q0 -25 18 -42q17 -18 42 -18q24 0 42 18q17 17 17 42t-17 42t-42 17q-26 0 -42 -17q-18 -17 -18 -42z" />
<glyph unicode=";" horiz-adv-x="460" d="M129 298q0 -25 17 -42q18 -18 42 -18q25 0 43 18q17 17 17 42v136q0 24 -17 42q-18 17 -43 17q-24 0 -42 -17q-17 -18 -17 -42v-136zM129 999q0 -25 17 -42q18 -18 43 -18q24 0 42 18q17 17 17 42t-17 42t-43 17q-25 0 -42 -17t-17 -42z" />
<glyph unicode="&#x3c;" horiz-adv-x="754" d="M11 712q1 -4 1 -5t2 -6l1 -5q1 -2 4 -7t2 -3v-1q3 -5 9 -10q-1 0 3 -3l5 -4l455 -297q15 -10 33 -10q32 0 50 27q13 21 8 45t-26 38l-379 247l379 247q21 14 26 38t-8 45q-14 20 -38 25t-45 -8l-455 -297q-2 -2 -7 -5q-4 -4 -3 -3t-2 -3q-4 -4 -5 -6v-1q1 2 -2 -3 q-3 -4 -4 -7l-1 -5q-2 -5 -2 -6t-1 -5v-6v-6z" />
<glyph unicode="=" horiz-adv-x="912" d="M68 507q0 -25 17 -42q18 -18 43 -18h548q25 0 42 18q18 17 18 42t-18 42q-17 18 -42 18h-548q-25 0 -43 -18q-17 -17 -17 -42zM68 934q0 -25 17 -42q18 -18 43 -18h548q25 0 42 18q18 17 18 42t-18 42q-17 17 -42 17h-548q-25 0 -43 -17q-17 -17 -17 -42z" />
<glyph unicode="&#x3e;" horiz-adv-x="770" d="M71 434q-5 -24 9 -45q17 -27 50 -27q17 0 32 10l456 297q1 0 5 4l4 3q5 5 8 10l1 1q-2 -3 1 3q3 4 4 7l2 5q1 5 1 6t1 5v6v6q-1 4 -1 5t-1 6l-2 5q-1 3 -4 7q-3 5 -1 4h-1q-1 2 -5 6q-3 4 -2 3t-3 3q-4 3 -6 5h-1l-456 297q-21 14 -45 9t-37 -26q-14 -21 -9 -45t26 -37 l380 -248l-380 -248q-21 -13 -26 -37z" />
<glyph unicode="?" horiz-adv-x="999" d="M64 1043q0 -25 17 -42q18 -18 43 -18q24 0 42 18q17 17 17 42q0 111 79 190t190 79t190 -79t79 -190t-79 -190t-190 -79q-25 0 -42 -18q-17 -17 -17 -42v-280q0 -24 17 -42q17 -17 42 -17t42 17q18 18 18 42v225q140 22 234 130q94 109 94 254q0 160 -113 274 q-114 114 -275 114q-160 0 -274 -114t-114 -274zM390 60q0 -25 18 -43q17 -17 42 -17q24 0 42 17q17 18 17 43q0 24 -17 42q-17 16 -42 16q-26 0 -42 -16q-18 -18 -18 -42z" />
<glyph unicode="@" horiz-adv-x="1703" d="M68 717q0 -296 210 -507q211 -210 507 -210q150 0 287 60q22 9 31 33q10 23 0 45q-10 23 -33 32q-24 9 -46 -1q-114 -49 -239 -49q-247 0 -422 175t-175 422t175 422t422 175t422 -175t175 -422q0 -150 -70 -282l-229 159q25 59 25 123q0 134 -95 228q-94 95 -228 95 q-133 0 -228 -95q-95 -94 -95 -228q0 -133 95 -228t228 -95q137 0 233 100l278 -194q21 -14 45 -9q25 4 39 25q122 181 122 401q0 297 -210 507t-507 210q-296 0 -507 -210q-210 -210 -210 -507zM582 717q0 84 60 144q59 59 143 59t144 -59q59 -60 59 -144t-59 -143 q-60 -60 -144 -60t-143 60q-60 59 -60 143z" />
<glyph unicode="A" horiz-adv-x="1322" d="M28 37q9 -23 32 -32q11 -5 23 -5q40 0 55 37l124 298h730l124 -298q15 -37 55 -37q12 0 23 5q23 9 32 32q5 12 5 23.5t-5 22.5l-139 335v1l-405 977q-2 5 -5 11q0 -1 -4 4q-3 4 -4 5q-1 0 -5 4l-4 3q-10 7 -22 9q1 0 -5 0q-5 1 -6 1t-7 -1h-5q-11 -2 -21 -9q1 1 -4 -3 q-4 -3 -5 -4t-4 -5l-4 -4q-3 -6 -5 -11l-405 -977v-1l-139 -335q-5 -12 -5 -23t5 -23zM311 455l316 762l316 -762h-632z" />
<glyph unicode="B" horiz-adv-x="1237" d="M106 60q0 -25 18 -42q17 -18 42 -18h487q175 0 298 115q124 114 124 275q0 107 -57 197q-56 88 -153 138q85 54 133 139q50 87 50 187q0 161 -122 273q-122 111 -299 111l-461 -2q-25 0 -43 -18q-17 -17 -17 -42v-1313zM226 120v535h401h20h8q126 0 213 -77 q87 -76 87 -188t-88 -191q-89 -79 -214 -79h-427zM226 774v539l401 2q127 0 214 -76q87 -77 87 -188q0 -114 -88 -195t-213 -81z" />
<glyph unicode="C" horiz-adv-x="1335" d="M3 718q0 -297 211 -507q210 -211 507 -211q279 0 484 187q20 18 20 45q0 23 -16 40q-17 19 -42 20t-43 -16q-171 -155 -403 -155q-247 0 -422 175t-175 422q0 248 175 423t422 175q204 0 365 -123q19 -16 44 -12q25 3 40 23q15 19 12 44t-23 40q-193 149 -438 149 q-297 0 -507 -211q-211 -210 -211 -508z" />
<glyph unicode="D" horiz-adv-x="1392" d="M106 60q0 -25 18 -43q17 -17 42 -17h1l332 4q296 0 506 210t210 506t-210 506t-506 210h-333q-25 0 -42 -18q-18 -18 -18 -43v-1315zM226 121v1194h273q246 0 421 -174q175 -175 175 -421t-175 -421q-175 -174 -422 -174z" />
<glyph unicode="E" horiz-adv-x="1125" d="M105 60q0 -25 18 -42q17 -18 42 -18h794q25 0 42 18q18 17 18 42t-18 42q-17 18 -42 18h-734v538h549q25 0 42 18q18 17 18 42t-18 42q-17 18 -42 18h-549v538l734 -2q25 0 42 17q18 18 18 43q0 24 -18 42q-17 18 -42 18l-794 2h-2q-23 0 -40 -18q-18 -17 -18 -42v-1316z " />
<glyph unicode="F" horiz-adv-x="1103" d="M107 60q0 -25 18 -42q17 -18 42 -18t42 18q18 17 18 42v598h549q25 0 42 18q18 17 18 42t-18 42q-17 18 -42 18h-549v538l734 -2q25 0 42 17q18 18 18 43q0 24 -18 42q-17 18 -42 18l-794 2h-2q-22 0 -40 -18q-18 -17 -18 -42v-1316z" />
<glyph unicode="G" horiz-adv-x="1415" d="M11 718q0 297 211 508q210 210 507 210q244 0 437 -148q20 -16 23 -40q4 -25 -12 -45q-15 -20 -40 -23q-24 -3 -44 12q-161 124 -364 124q-247 0 -422 -176q-175 -175 -175 -422t175 -422t422 -175q232 0 402 155q19 17 44 16t42 -20q16 -18 15 -43t-19 -42 q-206 -187 -484 -187q-297 0 -507 211q-211 210 -211 507zM561 754q0 25 18 42q18 18 43 18h562q25 0 43 -18q17 -17 17 -42v-694q0 -25 -17 -42q-18 -18 -43 -18t-43 18q-17 17 -17 42v634h-502q-25 0 -43 17q-18 18 -18 43z" />
<glyph unicode="H" horiz-adv-x="1375" d="M108 60q0 -25 18 -42q17 -18 42 -18t43 18q17 17 17 42v596h817v-596q0 -25 17 -42q18 -18 43 -18t42 18q18 17 18 42v1313q0 25 -18 42q-17 18 -42 18t-43 -18q-17 -17 -17 -42v-596h-817v596q0 25 -17 42q-18 18 -43 18t-42 -18q-18 -17 -18 -42v-1313z" />
<glyph unicode="I" horiz-adv-x="441" d="M109 60q0 -25 18 -42q17 -18 42 -18t42 18q18 17 18 42v1310q0 25 -18 42q-17 18 -42 18t-42 -18q-18 -17 -18 -42v-1310z" />
<glyph unicode="J" horiz-adv-x="628" d="M-40 60q0 -25 18 -42q17 -18 42 -18q169 0 288 120q120 119 120 288v967q0 25 -18 43q-17 18 -42 18t-43 -18q-17 -18 -17 -43v-967q0 -119 -85 -204q-84 -84 -203 -84q-25 0 -42 -17q-18 -18 -18 -43z" />
<glyph unicode="K" horiz-adv-x="1200" d="M108 70q0 -25 17 -42q18 -18 42 -18q25 0 42 18q18 17 18 42v382l178 188l591 -622q18 -18 43 -18q24 0 41 16q18 17 19 42q0 25 -17 42l-595 626l575 604q17 18 16 43q0 24 -18 41t-43 17q-24 -1 -41 -19l-749 -788v753q0 24 -18 42q-17 17 -42 17q-24 0 -42 -17 q-17 -18 -17 -42v-1307z" />
<glyph unicode="L" horiz-adv-x="1017" d="M107 60q0 -25 17 -43q18 -17 43 -17h708q25 0 42 17q18 18 18 43q0 24 -18 42q-17 17 -42 17h-649v1252q0 25 -17 42q-18 18 -42 18q-25 0 -43 -18q-17 -17 -17 -42v-1311z" />
<glyph unicode="M" horiz-adv-x="1730" d="M107 60q0 -25 17 -43q18 -17 43 -17q24 0 42 17q17 18 17 43v1097l537 -887l1 -1v-1q2 -2 4 -5l4 -4l4 -4q3 -2 5 -4q5 -3 2 -1q1 0 1 -1h2q3 -2 6 -3q2 -1 5 -2t6 -1q2 -1 5 -1q3 -1 6 -1t6 1q3 0 5 1q3 0 6 1t5 2q3 1 6 3q4 2 3 1q-3 -2 2 1q2 2 5 4l4 4l4 4q2 3 4 5v1 l1 1l537 887v-1097q0 -25 17 -43q18 -17 42 -17q25 0 42 17q18 18 18 43v1311q0 45 -44 57q-10 3 -19 3q-29 0 -48 -30l-596 -985l-596 985q-18 30 -48 30q-9 0 -19 -3q-44 -12 -44 -57v-1311z" />
<glyph unicode="N" horiz-adv-x="1458" d="M107 60q0 -25 18 -42q17 -18 42 -18t42 18q18 17 18 42v1142l915 -1179l1 -1l1 -1l6 -6q3 -2 4 -3q3 -2 7 -4q3 -2 4 -3q3 -1 8 -3l4 -1q6 -1 12 -1q5 0 11 1q1 0 4 1q4 1 7 2l4 2q3 1 6 3q2 1 3 2q4 3 2 2q-2 -2 3 2l4 4q2 2 4 5t3 5q2 2 3 5t2 5t2 6q1 3 1 5q1 3 1 6 q0 6 0 4v1317q0 25 -17 42q-18 18 -43 18q-24 0 -42 -18q-17 -17 -17 -42v-1142l-916 1179q-18 24 -44 24q-11 0 -23 -4q-40 -14 -40 -57v-1317z" />
<glyph unicode="O" horiz-adv-x="1614" d="M2 717q0 -297 210 -507t507 -210t507 210t210 507t-210 507t-507 210t-507 -210t-210 -507zM122 717q0 247 175 422q175 176 422 176t422 -176q176 -175 176 -422t-176 -422q-175 -175 -422 -175t-422 175t-175 422z" />
<glyph unicode="P" horiz-adv-x="1186" d="M107 60q0 -25 18 -42q17 -18 42 -18t42 18q18 17 18 42v596h393q6 -1 3 -1q2 0 4 1h12h8q166 9 282 121q116 113 116 268q0 161 -123 275q-124 115 -299 115h-456q-25 0 -42 -18q-18 -17 -18 -42v-1315zM227 775v540h396q125 0 214 -79t89 -191q0 -110 -87 -189 q-86 -78 -208 -81h-404z" />
<glyph unicode="Q" horiz-adv-x="1612" d="M3 718q0 -297 211 -507q210 -211 507 -211q273 0 477 182l164 -164q18 -18 42 -18q25 0 43 18q17 17 17 42t-17 42l-166 166q158 198 158 450q0 297 -210 508q-211 210 -508 210t-507 -210q-211 -211 -211 -508zM123 718q0 248 175 423q176 176 423 176q248 0 423 -176 q176 -175 176 -423q0 -203 -125 -364l-147 147q-18 18 -43 18q-24 0 -42 -18q-17 -17 -17 -42t17 -42l150 -150q-169 -147 -392 -147q-247 0 -423 175q-175 176 -175 423z" />
<glyph unicode="R" horiz-adv-x="1171" d="M107 69q0 -24 17 -42q18 -17 42 -17q25 0 42 17q18 18 18 42v591h334l309 -627q16 -33 53 -33q14 0 26 6q22 11 30 34t-3 45l-285 581q149 23 247 130q100 108 100 250q0 160 -122 273q-123 113 -296 113h-453q-24 0 -42 -17q-17 -17 -17 -42v-1304zM226 779v535h393 q124 0 212 -79q88 -78 88 -189q0 -109 -86 -187q-85 -78 -207 -80h-400z" />
<glyph unicode="S" horiz-adv-x="1121" d="M56 1032q8 169 137 286q128 117 307 117q158 0 282 -66q149 -78 188 -227q2 -8 2 -16q0 -15 -8 -29q-13 -21 -37 -27q-24 -7 -45 6q-21 12 -27 36q-27 104 -140 158q-94 46 -215 46q-131 0 -225 -84t-100 -206v-10q0 -80 60 -143q87 -93 277 -96q25 -1 42 -18 q17 -18 17 -43q-1 -24 -18 -41q-18 -17 -42 -17h-1q-240 3 -362 133q-92 98 -92 225v16zM58 293q-2 8 -2 15q0 15 8 30q13 21 37 27q23 6 45 -6q21 -13 27 -36q27 -104 140 -159q94 -45 215 -45q131 0 225 84t100 205v10q0 81 -60 144q-87 93 -277 96q-25 0 -42 18t-17 42 q1 25 19 42q17 17 42 17q240 -4 362 -134q91 -96 91 -222v-18q-7 -169 -136 -286q-128 -117 -307 -117q-158 0 -282 65q-149 79 -188 228z" />
<glyph unicode="T" horiz-adv-x="1071" d="M-23 1374q0 -25 17 -42q18 -17 43 -17h395v-1255q0 -25 17 -43q18 -17 42 -17q25 0 43 17q17 18 17 43v1255h395q25 0 42 17q18 17 18 42t-18 42q-17 18 -42 18h-909q-25 0 -43 -18q-17 -17 -17 -42z" />
<glyph unicode="U" horiz-adv-x="1260" d="M85 491q0 -203 144 -347t347 -144t347 144t144 347v881q0 25 -17 42q-18 17 -42 17t-41 -17t-17 -42v-881q0 -155 -110 -264q-110 -110 -264 -110q-155 0 -264 110q-110 109 -110 264v881q0 25 -17 42t-41 17q-25 0 -42 -17t-17 -42v-881z" />
<glyph unicode="V" horiz-adv-x="1175" d="M29 1355l461 -1315q0 1 2 -4q1 -2 1 -3q2 -4 5 -7v-1l1 -1q3 -4 7 -8q-1 1 2 -2l6 -4q1 -1 3 -2l8 -4h1l1 -1q3 -1 7 -2q4 0 3 0q5 -1 9 -1q5 0 10 1q-1 0 3 0q4 1 6 2t1 0l1 1h1q4 2 7 4l4 2l6 4q3 3 2 2q4 4 7 8q-1 -2 1 2q3 3 5 7q0 1 1 3q2 6 2 4l461 1315q4 10 4 20 q0 13 -6 25q-11 23 -34 31q-10 3 -20 3q-13 0 -26 -6q-22 -10 -30 -34l-406 -1154l-405 1154q-8 24 -30 34q-13 6 -26 6q-10 0 -20 -3q-23 -8 -34 -31q-6 -12 -6 -25q0 -10 4 -20z" />
<glyph unicode="W" horiz-adv-x="2084" d="M30 1357l462 -1317q0 1 2 -4q1 -2 1 -3q2 -4 4 -7l1 -1q0 -1 1 -1q3 -4 7 -8q-1 1 2 -2l6 -4q1 -1 3 -2l8 -4h1l1 -1q3 -1 7 -2q4 0 3 0q5 -1 9 -1q5 0 10 1q-1 0 3 0q4 1 6 2t1 0l1 1h1l8 4q1 1 3 2l6 4q3 3 2 2q4 4 7 8l1 1v1q3 3 5 7q0 1 1 3q2 5 2 4l406 1156 l406 -1156q0 1 1 -4q2 -2 2 -3q2 -4 4 -7q0 -1 1 -1v-1l8 -8q-1 1 2 -2l6 -4q1 -1 3 -2q3 -2 8 -4q1 0 1 -1q0 1 1 0q3 -1 7 -2q4 0 3 0q5 -1 9 -1q5 0 10 1q-1 0 3 0q4 1 6 2q1 1 1 0q0 1 1 1h1q4 2 7 4q2 1 3 2q4 2 7 4q3 3 2 2q4 4 7 8l1 1v1q3 3 5 7q0 1 1 3q2 5 2 4 l462 1317q4 11 4 21q0 13 -6 25q-11 23 -35 31q-10 3 -19 3q-13 0 -26 -6q-23 -11 -31 -34l-406 -1156l-406 1156q2 -3 -1 3q-1 3 -3 6q-1 2 -3 4q-1 3 -3 5l-4 4l-4 4q-3 2 -5 4q-2 1 -5 3q-2 1 -5 2q-1 1 -2 1l-1 1q1 -1 -3 0q-2 1 -6 2q-4 0 -5 1h-6h-6q-2 -1 -6 -1 l-6 -2q-4 -1 -2 0q4 1 -3 -2q-3 -1 -5 -2q-3 -1 -6 -3l-4 -4l-4 -4q-2 -1 -4 -4q-2 -2 -4 -5q-1 -2 -3 -4l-2 -6q-3 -6 -2 -3l-406 -1156l-405 1156q-9 23 -31 34q-13 6 -26 6q-10 0 -20 -3q-23 -8 -34 -31q-6 -12 -6 -25q0 -10 4 -21z" />
<glyph unicode="X" horiz-adv-x="1200" d="M48 50q4 -25 24 -39q16 -11 35 -11q31 0 49 25l418 591l418 -591q18 -25 49 -25q19 0 35 11q20 14 24 39q1 6 1 12q0 17 -11 33l-442 624l442 625q11 15 11 33q0 6 -1 12q-4 24 -24 39q-16 11 -34 11q-5 0 -11 -1q-24 -4 -39 -25l-418 -590l-418 590q-14 21 -39 25 q-5 1 -11 1q-18 0 -34 -11q-20 -15 -24 -39q-1 -6 -1 -11q0 -19 11 -34l443 -625l-443 -624q-11 -16 -11 -34q0 -6 1 -11z" />
<glyph unicode="Y" horiz-adv-x="1232" d="M4 1382v-6q0 -21 13 -38l493 -617v-661q0 -25 17 -42q18 -18 42 -18q25 0 43 18q17 17 17 42v661l493 617q13 17 13 38v6q-3 24 -23 40q-16 12 -36 12h-8q-24 -2 -40 -22l-459 -574l-458 574q-16 20 -41 22h-8q-19 0 -35 -12q-20 -16 -23 -40z" />
<glyph unicode="Z" horiz-adv-x="1265" d="M25 34q16 -34 54 -34h1004q24 0 42 18q17 17 17 42t-17 42q-18 18 -42 18h-881l955 1219q14 18 14 37q0 13 -7 27q-16 33 -54 33h-1004q-25 0 -42 -17q-18 -18 -18 -43q0 -24 18 -42q17 -17 42 -17h881l-955 -1220q-14 -18 -14 -36q0 -13 7 -27z" />
<glyph unicode="[" horiz-adv-x="537" d="M0 59q0 -24 18 -42q17 -17 41 -17h156q25 0 42 18q17 17 17 42q0 24 -18 42q-17 17 -41 17h-1h-95v1193h96q25 0 42 17q18 17 18 42t-18 42q-17 17 -42 17h-156q-24 0 -42 -17q-17 -17 -17 -42v-1312z" />
<glyph unicode="\" horiz-adv-x="355" d="M0 1365l107 -1310q2 -24 20 -39q17 -16 40 -16h5q24 2 40 21t14 43l-107 1311q-2 24 -21 40t-43 14q-25 -2 -41 -20q-16 -19 -14 -44z" />
<glyph unicode="]" horiz-adv-x="559" d="M0 1371q0 25 17 42q18 17 42 17h156q25 0 42 -17q18 -17 18 -42v-1312q0 -24 -18 -42q-17 -17 -42 -17h-155q-25 0 -42 18q-17 17 -17 42q0 24 18 42q17 17 41 17h1h95v1193h-97q-24 0 -42 17q-17 17 -17 42z" />
<glyph unicode="^" horiz-adv-x="806" d="M1 891q5 -24 26 -38q15 -9 33 -9q32 0 50 27l247 380l248 -380q18 -27 50 -27q18 0 33 9q20 14 25 38q6 24 -8 45l-298 456v1q-1 1 -5 6q-3 3 -2 3q0 -1 -3 2q-5 4 -7 5v1h-1q-1 1 -2 1q-5 3 -7 4q-1 0 -5 2q-5 1 -6 1t-6 1h-6h-5q-5 -1 -6 -1t-6 -1q-4 -2 -5 -2 q-3 -1 -7 -4q-5 -3 -3 -1v-1q-2 -1 -7 -5t-3 -2q1 0 -2 -3q-4 -5 -5 -6v-1l-298 -456q-14 -21 -9 -45z" />
<glyph unicode="_" horiz-adv-x="759" d="M0 10q0 -25 17 -43q18 -17 43 -17h549q25 0 43 17q17 18 17 43q0 24 -17 42q-18 17 -43 17h-549q-25 0 -43 -17q-17 -18 -17 -42z" />
<glyph unicode="`" horiz-adv-x="1024" d="M212 1363q0 31 20.5 51t53.5 20q20 0 40.5 -12t55.5 -47l291 -296h-69l-330 202q-31 20 -46.5 40t-15.5 42z" />
<glyph unicode="a" horiz-adv-x="1377" d="M94 37q9 -23 32 -32q11 -5 23 -5q40 0 55 37l124 298h730l124 -298q15 -37 55 -37q12 0 23 5q23 9 32 32q5 12 5 23.5t-5 22.5l-139 335v1l-405 977q-2 5 -5 11q0 -1 -4 4q-3 4 -4 5q-1 0 -5 4l-4 3q-10 7 -22 9q1 0 -5 0q-5 1 -6 1t-7 -1h-5q-11 -2 -21 -9q1 1 -4 -3 q-4 -3 -5 -4t-4 -5l-4 -4q-3 -6 -5 -11l-405 -977v-1l-139 -335q-5 -12 -5 -23t5 -23zM377 455l316 762l316 -762h-632z" />
<glyph unicode="b" horiz-adv-x="1332" d="M177 60q0 -25 18 -42q17 -18 42 -18h487q175 0 298 115q124 114 124 275q0 107 -57 197q-56 88 -153 138q85 54 133 139q50 87 50 187q0 161 -122 273q-122 111 -299 111l-461 -2q-25 0 -43 -18q-17 -17 -17 -42v-1313zM297 120v535h401h20h8q126 0 213 -77 q87 -76 87 -188t-88 -191q-89 -79 -214 -79h-427zM297 774v539l401 2q127 0 214 -76q87 -77 87 -188q0 -114 -88 -195t-213 -81z" />
<glyph unicode="c" horiz-adv-x="1437" d="M94 718q0 -297 211 -507q210 -211 507 -211q279 0 484 187q20 18 20 45q0 23 -16 40q-17 19 -42 20t-43 -16q-171 -155 -403 -155q-247 0 -422 175t-175 422q0 248 175 423t422 175q204 0 365 -123q19 -16 44 -12q25 3 40 23q15 19 12 44t-23 40q-193 149 -438 149 q-297 0 -507 -211q-211 -210 -211 -508z" />
<glyph unicode="d" horiz-adv-x="1460" d="M179 60q0 -25 18 -43q17 -17 42 -17h1l332 4q296 0 506 210t210 506t-210 506t-506 210h-333q-25 0 -42 -18q-18 -18 -18 -43v-1315zM299 121v1194h273q246 0 421 -174q175 -175 175 -421t-175 -421q-175 -174 -422 -174z" />
<glyph unicode="e" horiz-adv-x="1208" d="M174 60q0 -25 18 -42q17 -18 42 -18h794q25 0 42 18q18 17 18 42t-18 42q-17 18 -42 18h-734v538h549q25 0 42 18q18 17 18 42t-18 42q-17 18 -42 18h-549v538l734 -2q25 0 42 17q18 18 18 43q0 24 -18 42q-17 18 -42 18l-794 2h-2q-23 0 -40 -18q-18 -17 -18 -42v-1316z " />
<glyph unicode="f" horiz-adv-x="1139" d="M178 60q0 -25 18 -42q17 -18 42 -18t42 18q18 17 18 42v598h549q25 0 42 18q18 17 18 42t-18 42q-17 18 -42 18h-549v538l734 -2q25 0 42 17q18 18 18 43q0 24 -18 42q-17 18 -42 18l-794 2h-2q-22 0 -40 -18q-18 -17 -18 -42v-1316z" />
<glyph unicode="g" horiz-adv-x="1516" d="M94 718q0 297 211 508q210 210 507 210q244 0 437 -148q20 -16 23 -40q4 -25 -12 -45q-15 -20 -40 -23q-24 -3 -44 12q-161 124 -364 124q-247 0 -422 -176q-175 -175 -175 -422t175 -422t422 -175q232 0 402 155q19 17 44 16t42 -20q16 -18 15 -43t-19 -42 q-206 -187 -484 -187q-297 0 -507 211q-211 210 -211 507zM644 754q0 25 18 42q18 18 43 18h562q25 0 43 -18q17 -17 17 -42v-694q0 -25 -17 -42q-18 -18 -43 -18t-43 18q-17 17 -17 42v634h-502q-25 0 -43 17q-18 18 -18 43z" />
<glyph unicode="h" horiz-adv-x="1443" d="M178 60q0 -25 18 -42q17 -18 42 -18t43 18q17 17 17 42v596h817v-596q0 -25 17 -42q18 -18 43 -18t42 18q18 17 18 42v1313q0 25 -18 42q-17 18 -42 18t-43 -18q-17 -17 -17 -42v-596h-817v596q0 25 -17 42q-18 18 -43 18t-42 -18q-18 -17 -18 -42v-1313z" />
<glyph unicode="i" horiz-adv-x="528" d="M180 60q0 -25 18 -42q17 -18 42 -18t42 18q18 17 18 42v1310q0 25 -18 42q-17 18 -42 18t-42 -18q-18 -17 -18 -42v-1310z" />
<glyph unicode="j" horiz-adv-x="701" d="M21 60q0 -25 18 -42q17 -18 42 -18q169 0 288 120q120 119 120 288v967q0 25 -18 43q-17 18 -42 18t-43 -18q-17 -18 -17 -43v-967q0 -119 -85 -204q-84 -84 -203 -84q-25 0 -42 -17q-18 -18 -18 -43z" />
<glyph unicode="k" horiz-adv-x="1272" d="M178 70q0 -25 17 -42q18 -18 42 -18q25 0 42 18q18 17 18 42v382l178 188l591 -622q18 -18 43 -18q24 0 41 16q18 17 19 42q0 25 -17 42l-595 626l575 604q17 18 16 43q0 24 -18 41t-43 17q-24 -1 -41 -19l-749 -788v753q0 24 -18 42q-17 17 -42 17q-24 0 -42 -17 q-17 -18 -17 -42v-1307z" />
<glyph unicode="l" horiz-adv-x="1079" d="M179 60q0 -25 17 -43q18 -17 43 -17h708q25 0 42 17q18 18 18 43q0 24 -18 42q-17 17 -42 17h-649v1252q0 25 -17 42q-18 18 -42 18q-25 0 -43 -18q-17 -17 -17 -42v-1311z" />
<glyph unicode="m" horiz-adv-x="1818" d="M178 60q0 -25 17 -43q18 -17 43 -17q24 0 42 17q17 18 17 43v1097l537 -887l1 -1v-1q2 -2 4 -5l4 -4l4 -4q3 -2 5 -4q5 -3 2 -1q1 0 1 -1h2q3 -2 6 -3q2 -1 5 -2t6 -1q2 -1 5 -1q3 -1 6 -1t6 1q3 0 5 1q3 0 6 1t5 2q3 1 6 3q4 2 3 1q-3 -2 2 1q2 2 5 4l4 4l4 4q2 3 4 5v1 l1 1l537 887v-1097q0 -25 17 -43q18 -17 42 -17q25 0 42 17q18 18 18 43v1311q0 45 -44 57q-10 3 -19 3q-29 0 -48 -30l-596 -985l-596 985q-18 30 -48 30q-9 0 -19 -3q-44 -12 -44 -57v-1311z" />
<glyph unicode="n" horiz-adv-x="1522" d="M177 60q0 -25 18 -42q17 -18 42 -18t42 18q18 17 18 42v1142l915 -1179l1 -1l1 -1l6 -6q3 -2 4 -3q3 -2 7 -4q3 -2 4 -3q3 -1 8 -3l4 -1q6 -1 12 -1q5 0 11 1q1 0 4 1q4 1 7 2l4 2q3 1 6 3q2 1 3 2q4 3 2 2q-2 -2 3 2l4 4q2 2 4 5t3 5q2 2 3 5t2 5t2 6q1 3 1 5q1 3 1 6 q0 6 0 4v1317q0 25 -17 42q-18 18 -43 18q-24 0 -42 -18q-17 -17 -17 -42v-1142l-916 1179q-18 24 -44 24q-11 0 -23 -4q-40 -14 -40 -57v-1317z" />
<glyph unicode="o" horiz-adv-x="1678" d="M83 717q0 -297 210 -507t507 -210t507 210t210 507t-210 507t-507 210t-507 -210t-210 -507zM203 717q0 247 175 422q175 176 422 176t422 -176q176 -175 176 -422t-176 -422q-175 -175 -422 -175t-422 175t-175 422z" />
<glyph unicode="p" horiz-adv-x="1239" d="M178 60q0 -25 18 -42q17 -18 42 -18t42 18q18 17 18 42v596h393q6 -1 3 -1q2 0 4 1h12h8q166 9 282 121q116 113 116 268q0 161 -123 275q-124 115 -299 115h-456q-25 0 -42 -18q-18 -17 -18 -42v-1315zM298 775v540h396q125 0 214 -79t89 -191q0 -110 -87 -189 q-86 -78 -208 -81h-404z" />
<glyph unicode="q" horiz-adv-x="1708" d="M94 718q0 -297 211 -507q210 -211 507 -211q273 0 477 182l164 -164q18 -18 42 -18q25 0 43 18q17 17 17 42t-17 42l-166 166q158 198 158 450q0 297 -210 508q-211 210 -508 210t-507 -210q-211 -211 -211 -508zM214 718q0 248 175 423q176 176 423 176q248 0 423 -176 q176 -175 176 -423q0 -203 -125 -364l-147 147q-18 18 -43 18q-24 0 -42 -18q-17 -17 -17 -42t17 -42l150 -150q-169 -147 -392 -147q-247 0 -423 175q-175 176 -175 423z" />
<glyph unicode="r" horiz-adv-x="1251" d="M177 69q0 -24 17 -42q18 -17 42 -17q25 0 42 17q18 18 18 42v591h334l309 -627q16 -33 53 -33q14 0 26 6q22 11 30 34t-3 45l-285 581q149 23 247 130q100 108 100 250q0 160 -122 273q-123 113 -296 113h-453q-24 0 -42 -17q-17 -17 -17 -42v-1304zM296 779v535h393 q124 0 212 -79q88 -78 88 -189q0 -109 -86 -187q-85 -78 -207 -80h-400z" />
<glyph unicode="s" horiz-adv-x="1211" d="M129 1032q8 169 137 286q128 117 307 117q158 0 282 -66q149 -78 188 -227q2 -8 2 -16q0 -15 -8 -29q-13 -21 -37 -27q-24 -7 -45 6q-21 12 -27 36q-27 104 -140 158q-94 46 -215 46q-131 0 -225 -84t-100 -206v-10q0 -80 60 -143q87 -93 277 -96q25 -1 42 -18 q17 -18 17 -43q-1 -24 -18 -41q-18 -17 -42 -17h-1q-240 3 -362 133q-92 98 -92 225v16zM131 293q-2 8 -2 15q0 15 8 30q13 21 37 27q23 6 45 -6q21 -13 27 -36q27 -104 140 -159q94 -45 215 -45q131 0 225 84t100 205v10q0 81 -60 144q-87 93 -277 96q-25 0 -42 18t-17 42 q1 25 19 42q17 17 42 17q240 -4 362 -134q91 -96 91 -222v-18q-7 -169 -136 -286q-128 -117 -307 -117q-158 0 -282 65q-149 79 -188 228z" />
<glyph unicode="t" horiz-adv-x="1110" d="M34 1374q0 -25 17 -42q18 -17 43 -17h395v-1255q0 -25 17 -43q18 -17 42 -17q25 0 43 17q17 18 17 43v1255h395q25 0 42 17q18 17 18 42t-18 42q-17 18 -42 18h-909q-25 0 -43 -18q-17 -17 -17 -42z" />
<glyph unicode="u" horiz-adv-x="1344" d="M152 491q0 -203 144 -347t347 -144t347 144t144 347v881q0 25 -17 42q-18 17 -42 17t-41 -17t-17 -42v-881q0 -155 -110 -264q-110 -110 -264 -110q-155 0 -264 110q-110 109 -110 264v881q0 25 -17 42t-41 17q-25 0 -42 -17t-17 -42v-881z" />
<glyph unicode="v" horiz-adv-x="1220" d="M82 1355l461 -1315q0 1 2 -4q1 -2 1 -3q2 -4 5 -7v-1l1 -1q3 -4 7 -8q-1 1 2 -2l6 -4q1 -1 3 -2l8 -4h1l1 -1q3 -1 7 -2q4 0 3 0q5 -1 9 -1q5 0 10 1q-1 0 3 0q4 1 6 2t1 0l1 1h1q4 2 7 4l4 2l6 4q3 3 2 2q4 4 7 8q-1 -2 1 2q3 3 5 7q0 1 1 3q2 6 2 4l461 1315q4 10 4 20 q0 13 -6 25q-11 23 -34 31q-10 3 -20 3q-13 0 -26 -6q-22 -10 -30 -34l-406 -1154l-405 1154q-8 24 -30 34q-13 6 -26 6q-10 0 -20 -3q-23 -8 -34 -31q-6 -12 -6 -25q0 -10 4 -20z" />
<glyph unicode="w" horiz-adv-x="2131" d="M81 1357l462 -1317q0 1 2 -4q1 -2 1 -3q2 -4 4 -7l1 -1q0 -1 1 -1q3 -4 7 -8q-1 1 2 -2l6 -4q1 -1 3 -2l8 -4h1l1 -1q3 -1 7 -2q4 0 3 0q5 -1 9 -1q5 0 10 1q-1 0 3 0q4 1 6 2t1 0l1 1h1l8 4q1 1 3 2l6 4q3 3 2 2q4 4 7 8l1 1v1q3 3 5 7q0 1 1 3q2 5 2 4l406 1156 l406 -1156q0 1 1 -4q2 -2 2 -3q2 -4 4 -7q0 -1 1 -1v-1l8 -8q-1 1 2 -2l6 -4q1 -1 3 -2q3 -2 8 -4q1 0 1 -1q0 1 1 0q3 -1 7 -2q4 0 3 0q5 -1 9 -1q5 0 10 1q-1 0 3 0q4 1 6 2q1 1 1 0q0 1 1 1h1q4 2 7 4q2 1 3 2q4 2 7 4q3 3 2 2q4 4 7 8l1 1v1q3 3 5 7q0 1 1 3q2 5 2 4 l462 1317q4 11 4 21q0 13 -6 25q-11 23 -35 31q-10 3 -19 3q-13 0 -26 -6q-23 -11 -31 -34l-406 -1156l-406 1156q2 -3 -1 3q-1 3 -3 6q-1 2 -3 4q-1 3 -3 5l-4 4l-4 4q-3 2 -5 4q-2 1 -5 3q-2 1 -5 2q-1 1 -2 1l-1 1q1 -1 -3 0q-2 1 -6 2q-4 0 -5 1h-6h-6q-2 -1 -6 -1 l-6 -2q-4 -1 -2 0q4 1 -3 -2q-3 -1 -5 -2q-3 -1 -6 -3l-4 -4l-4 -4q-2 -1 -4 -4q-2 -2 -4 -5q-1 -2 -3 -4l-2 -6q-3 -6 -2 -3l-406 -1156l-405 1156q-9 23 -31 34q-13 6 -26 6q-10 0 -20 -3q-23 -8 -34 -31q-6 -12 -6 -25q0 -10 4 -21z" />
<glyph unicode="x" horiz-adv-x="1285" d="M111 50q4 -25 24 -39q16 -11 35 -11q31 0 49 25l418 591l418 -591q18 -25 49 -25q19 0 35 11q20 14 24 39q1 6 1 12q0 17 -11 33l-442 624l442 625q11 15 11 33q0 6 -1 12q-4 24 -24 39q-16 11 -34 11q-5 0 -11 -1q-24 -4 -39 -25l-418 -590l-418 590q-14 21 -39 25 q-5 1 -11 1q-18 0 -34 -11q-20 -15 -24 -39q-1 -6 -1 -11q0 -19 11 -34l443 -625l-443 -624q-11 -16 -11 -34q0 -6 1 -11z" />
<glyph unicode="y" horiz-adv-x="1295" d="M64 1382v-6q0 -21 13 -38l493 -617v-661q0 -25 17 -42q18 -18 42 -18q25 0 43 18q17 17 17 42v661l493 617q13 17 13 38v6q-3 24 -23 40q-16 12 -36 12h-8q-24 -2 -40 -22l-459 -574l-458 574q-16 20 -41 22h-8q-19 0 -35 -12q-20 -16 -23 -40z" />
<glyph unicode="z" horiz-adv-x="1349" d="M89 34q16 -34 54 -34h1004q24 0 42 18q17 17 17 42t-17 42q-18 18 -42 18h-881l955 1219q14 18 14 37q0 13 -7 27q-16 33 -54 33h-1004q-25 0 -42 -17q-18 -18 -18 -43q0 -24 18 -42q17 -17 42 -17h881l-955 -1220q-14 -18 -14 -36q0 -13 7 -27z" />
<glyph unicode="{" horiz-adv-x="550" d="M0 705q1 -36 34 -64q21 -17 79 -47q35 -18 47 -25q30 -307 170 -540q17 -29 51 -29q16 0 30 8q21 13 27 37t-6 45q-131 216 -155 507q-3 33 -35 59q-20 16 -75 44q-15 7 -14 7h2q59 19 81 32q36 23 39 60q18 310 156 542q13 21 7 44q-6 24 -27 37t-45 7t-36 -27 q-147 -245 -172 -569q-12 -4 -38 -12q-61 -19 -83 -33q-37 -24 -37 -63v-20z" />
<glyph unicode="|" horiz-adv-x="247" d="M0 50q0 -21 15 -35q14 -15 35 -15q20 0 35 15q15 14 15 35v1334q0 21 -15 35q-15 15 -35 15q-21 0 -35 -15q-15 -14 -15 -35v-1334z" />
<glyph unicode="}" horiz-adv-x="550" d="M2 45q6 -24 27 -37q14 -8 31 -8q33 0 51 29q147 245 171 568q12 5 38 13q61 18 83 33q37 23 37 62v21q0 36 -34 64q-21 17 -79 46q-35 18 -47 26q-30 307 -170 540q-12 21 -36 27t-45 -7t-27 -37q-6 -23 7 -44q130 -217 154 -507q3 -33 36 -60q20 -16 75 -44q14 -7 13 -6 l-2 -1q-59 -18 -81 -32q-36 -22 -38 -59q-19 -311 -157 -542q-13 -21 -7 -45z" />
<glyph unicode="~" d="M94 556v156q64 73 123 99t114 26q64 0 181.5 -49.5t172.5 -49.5q52 0 108.5 28t129.5 112v-156q-63 -72 -122 -97.5t-116 -25.5q-60 0 -177.5 48.5t-176.5 48.5q-51 0 -107.5 -28t-129.5 -112z" />
<glyph unicode="&#xa1;" horiz-adv-x="672" />
<glyph unicode="&#xa2;" horiz-adv-x="1139" />
<glyph unicode="&#xa3;" horiz-adv-x="823" d="M0 60q0 -25 18 -42q17 -18 42 -18h631q25 0 43 18q17 17 17 42t-17 42q-18 18 -43 18h-571v439h297q25 0 42 17q18 18 18 43t-18 42q-17 18 -42 18h-297v368q0 112 79 191t191 79q82 0 149 -45q68 -44 100 -120q9 -22 32 -32q23 -9 46 1q23 9 32 32q10 23 0 46 q-46 109 -144 173q-97 65 -215 65q-161 0 -276 -114q-114 -114 -114 -276v-987z" />
<glyph unicode="&#xa4;" d="M122 413l118 117q-32 46 -48 103q-12 42 -12 84q0 44 13 87q16 55 47 99l-118 118l80 81l118 -118q44 30 99 46q44 14 89 14q41 0 83 -12q57 -17 102 -48l118 118l80 -81l-117 -117q31 -46 48 -102q12 -42 12 -85q0 -42 -12 -85q-17 -56 -48 -102l117 -117l-80 -81 l-118 118q-45 -32 -101 -48q-42 -12 -85 -12q-42 0 -85 12q-57 16 -102 48l-118 -118zM284 716q0 -28 9 -56q16 -59 57 -100q41 -40 99 -57q29 -8 58 -8t58 8q58 17 99 57q40 41 57 99q9 29 9 58t-9 58q-17 58 -57 99q-41 40 -100 57q-29 8 -58 8t-58 -9q-58 -17 -98 -56 q-39 -40 -56 -98q-10 -30 -10 -60z" />
<glyph unicode="&#xa5;" horiz-adv-x="1262" d="M8 1176q0 19 10.5 27.5t32.5 8.5q27 0 123 -8t164 -8h88q33 0 41 -6.5t8 -26.5q0 -8 -15 -14t-38 -6q-6 0 -18.5 2t-18.5 2q-24 0 -37.5 -9.5t-13.5 -25.5q0 -18 16.5 -52t46.5 -77l158 -221q13 -19 33 -53q41 -70 71 -70q9 0 16.5 5t14.5 15l277 396q8 12 13 26.5 t5 24.5q0 18 -10 27t-37 14q-15 2 -41 4q-47 3 -47 25q0 15 8 22.5t25 7.5q3 0 15 -1q56 -7 108 -7h139q30 0 65 1t37 1q11 0 18.5 -4.5t8.5 -11.5q0 -28 -38 -34q-18 -3 -27 -5q-63 -15 -147 -117q-7 -9 -12 -15l-169 -206h323q15 0 24 -6t9 -17q0 -15 -6 -20.5t-23 -5.5 h-366q-46 -57 -96.5 -112.5t-52.5 -59.5h511q18 0 25.5 -5.5t7.5 -17.5q0 -14 -7 -21t-22 -7h-530q0 -11 -1 -30.5t-1 -29.5l2 -215q0 -114 5.5 -150t20.5 -44q30 -17 107.5 -19t77.5 -31q0 -12 -10 -20t-25 -8q-2 0 -35.5 4t-64.5 4q-91 0 -208.5 -4t-142.5 -4q-31 0 -40 4 t-9 16t8 18.5t37 12.5q9 2 25 5q74 16 92 32q17 13 24 47t7 102l-2 242q0 19 -1.5 35t-4.5 32l-484 1q-14 0 -21 6.5t-7 19.5t6.5 19t21.5 6h467l-121 172h-344q-17 0 -23.5 5.5t-6.5 18.5q0 14 6 19.5t22 5.5h307q-43 57 -108 155q-131 197 -227 197q-7 0 -13 5.5t-6 11.5z " />
<glyph unicode="&#xa6;" d="M427 371h160v-789h-160v789zM427 789v789h160v-789h-160z" />
<glyph unicode="&#xa7;" d="M170 1130q0 148 89 237q82 79 216 86q8 1 17 1h3q66 0 163 -16.5t97 -41.5v-194h-51q-5 81 -80 132q-70 47 -149 51h-15q-78 0 -125 -44.5t-47 -117.5q0 -132 287 -269q149 -67 204.5 -143.5t55.5 -187.5q0 -171 -101 -282q-47 -39 -99 -64q108 -56 154 -118 q55 -77 55 -187q0 -171 -101 -283q-124 -102 -277 -105v1q-6 -1 -13 -1h-3q-66 0 -163 16.5t-97 41.5v194h51q5 -81 80 -132q68 -45 145 -50q113 6 185 69q72 64 72 165q0 125 -316 276q-123 64 -175.5 137t-52.5 177q0 148 89 237q67 65 170 82l-40 19q-123 64 -175.5 137 t-52.5 177zM297 571q0 -123 248 -250q56 16 97 53q73 65 73 166q0 5 -1 10h-2q-1 14 -4 27q-22 61 -113 127q-59 29 -126 29q-78 0 -125 -44.5t-47 -117.5z" />
<glyph unicode="&#xa8;" horiz-adv-x="1024" d="M209 1263q0 13 14 26l71 72q13 12 25 12q11 0 27 -14l69 -73q10 -14 10 -25q0 -13 -12 -27l-69 -75q-17 -17 -25 -17q-14 0 -25 12l-76 86q-9 12 -9 23zM574 1263q0 13 14 26l71 72q13 12 25 12q11 0 27 -13l69 -74q10 -14 10 -25q0 -13 -12 -26l-69 -76q-17 -17 -25 -17 q-14 0 -25 12l-76 87q-9 11 -9 22z" />
<glyph unicode="&#xa9;" horiz-adv-x="2012" d="M235 718q0 -297 210 -508q211 -210 508 -210q296 0 507 210q210 211 210 508q0 296 -210 507q-211 210 -507 210q-297 0 -508 -210q-210 -211 -210 -507zM355 718q0 247 175 422t423 175q247 0 422 -175t175 -422q0 -248 -175 -423t-422 -175q-248 0 -423 175t-175 423z M628 718q0 -135 95 -230t230 -95q114 0 203 72q20 16 22 40q3 25 -13 44q-15 20 -40 22q-25 3 -44 -13q-56 -45 -128 -45q-85 0 -145 60t-60 145q0 84 60 144t145 60q96 0 158 -75q15 -19 40 -21q25 -3 44 13t22 41q2 24 -14 44q-97 118 -250 118q-135 0 -230 -95t-95 -229z " />
<glyph unicode="&#xaa;" horiz-adv-x="648" />
<glyph unicode="&#xab;" horiz-adv-x="944" d="M174 479l342 303h14v-37l-205 -266l205 -266v-37h-14zM487 479l342 303h14v-37l-205 -266l205 -266v-37h-14z" />
<glyph unicode="&#xac;" d="M87 667v100h840v-491l-1 -1h-98v392h-741z" />
<glyph unicode="&#xad;" horiz-adv-x="1081" d="M142 740q0 -25 18 -43q17 -17 42 -17h550q24 0 42 17q17 18 17 43q0 24 -17 42q-18 17 -42 17h-550q-25 0 -42 -17q-18 -18 -18 -42z" />
<glyph unicode="&#xae;" horiz-adv-x="1674" d="M100 718q0 148 55.5 283t159.5 238q102 104 238.5 160.5t286.5 56.5q145 0 280 -56.5t239 -160.5q102 -101 158.5 -238t56.5 -283q0 -147 -56.5 -282t-162.5 -240q-105 -105 -239 -159.5t-283 -54.5q-146 0 -278 55.5t-238 160.5q-106 104 -161.5 237.5t-55.5 282.5z M160 718q0 -137 51 -259t148 -219q98 -96 219 -147t256 -51q137 0 259.5 50.5t219.5 145.5q97 98 149 221.5t52 258.5q0 134 -52 259.5t-145 219.5q-96 96 -220 147.5t-258 51.5q-137 0 -262 -51.5t-220 -147.5t-146 -219.5t-51 -259.5zM524 269v50h43q37 0 37 121v538 q0 121 -37 121h-43v70h356q64 -1 125 -42q60 -41 92.5 -114t32.5 -152q0 -78 -32 -150.5t-114 -134.5l82 -116q100 -141 150 -141h34v-50h-346v50h45q30 0 30 22q0 29 -69 114l-75 102q-42 0 -84 42v-159q0 -121 36 -121h53v-50h-316zM751 725l3 -8q23 -56 56 -81 q29 -22 56 -22h6q31 4 61.5 38.5t46.5 97.5q13 50 13 103q0 13 -1 27q-4 67 -28 124.5t-56.5 76t-63.5 18.5h-93v-374z" />
<glyph unicode="&#xaf;" horiz-adv-x="670" />
<glyph unicode="&#xb0;" horiz-adv-x="674" d="M60 1164q0 116 81.5 197t197.5 81q115 0 196 -81.5t81 -196.5q0 -114 -82 -196t-197 -82q-117 0 -197 81t-80 197zM130 1163q0 -87 61 -147t148 -60t147 60t60 147t-60.5 148t-146.5 61t-147.5 -61t-61.5 -148z" />
<glyph unicode="&#xb1;" />
<glyph unicode="&#xb2;" />
<glyph unicode="&#xb3;" />
<glyph unicode="&#xb4;" horiz-adv-x="1024" d="M316 1078l291 297q35 35 55.5 47t40.5 12q33 0 53.5 -20t20.5 -51q0 -22 -15.5 -42t-46.5 -40l-330 -203h-69z" />
<glyph unicode="&#xb5;" horiz-adv-x="1180" />
<glyph unicode="&#xb6;" horiz-adv-x="1024" d="M93 1086q0 157 107.5 253t285.5 96h443v-70h-127v-1365h-82v1365h-166v-1365h-84v738q-174 8 -275.5 102.5t-101.5 245.5z" />
<glyph unicode="&#xb7;" horiz-adv-x="508" d="M129 709q0 15 16 31l82 84q15 14 29 14q13 0 31 -16l80 -86q12 -16 12 -29q0 -15 -14 -31l-80 -88q-20 -20 -29 -20q-16 0 -29 14l-88 101q-10 13 -10 26z" />
<glyph unicode="&#xb8;" horiz-adv-x="1024" d="M360 -290q85 -52 152 -52q66 0 94.5 21.5t28.5 66.5t-49 64q-40 16 -102 16q-16 0 -34 -2l48 176h63l-37 -104q32 4 62 5q86 0 134 -40.5t48 -113.5q0 -76 -58.5 -120.5t-160.5 -44.5q-109 0 -189 32v96z" />
<glyph unicode="&#xb9;" />
<glyph unicode="&#xba;" horiz-adv-x="718" />
<glyph unicode="&#xbb;" horiz-adv-x="944" d="M101 176v37l205 266l-205 266v37h14l342 -303l-342 -303h-14zM414 176v37l205 266l-205 266v37h14l342 -303l-342 -303h-14z" />
<glyph unicode="&#xbc;" horiz-adv-x="1708" />
<glyph unicode="&#xbd;" horiz-adv-x="1964" />
<glyph unicode="&#xbe;" horiz-adv-x="1708" />
<glyph unicode="&#xbf;" horiz-adv-x="748" />
<glyph unicode="&#xc0;" horiz-adv-x="1540" />
<glyph unicode="&#xc1;" horiz-adv-x="1540" />
<glyph unicode="&#xc2;" horiz-adv-x="1540" />
<glyph unicode="&#xc3;" horiz-adv-x="1540" />
<glyph unicode="&#xc4;" horiz-adv-x="1540" />
<glyph unicode="&#xc5;" horiz-adv-x="1540" />
<glyph unicode="&#xc6;" horiz-adv-x="2118" />
<glyph unicode="&#xc7;" horiz-adv-x="1399" />
<glyph unicode="&#xc8;" horiz-adv-x="1151" />
<glyph unicode="&#xc9;" horiz-adv-x="1151" />
<glyph unicode="&#xca;" horiz-adv-x="1151" />
<glyph unicode="&#xcb;" horiz-adv-x="1151" />
<glyph unicode="&#xcc;" horiz-adv-x="657" />
<glyph unicode="&#xcd;" horiz-adv-x="657" />
<glyph unicode="&#xce;" horiz-adv-x="657" />
<glyph unicode="&#xcf;" horiz-adv-x="657" />
<glyph unicode="&#xd0;" horiz-adv-x="1518" />
<glyph unicode="&#xd1;" horiz-adv-x="1554" />
<glyph unicode="&#xd2;" horiz-adv-x="1614" />
<glyph unicode="&#xd3;" horiz-adv-x="1614" />
<glyph unicode="&#xd4;" horiz-adv-x="1614" />
<glyph unicode="&#xd5;" horiz-adv-x="1614" />
<glyph unicode="&#xd6;" horiz-adv-x="1614" />
<glyph unicode="&#xd7;" d="M161 470l247 247l-247 248l99 98l247 -247l248 247l98 -99l-247 -247l247 -247l-99 -99l-247 247l-247 -247z" />
<glyph unicode="&#xd8;" horiz-adv-x="1614" />
<glyph unicode="&#xd9;" horiz-adv-x="1501" />
<glyph unicode="&#xda;" horiz-adv-x="1501" />
<glyph unicode="&#xdb;" horiz-adv-x="1501" />
<glyph unicode="&#xdc;" horiz-adv-x="1501" />
<glyph unicode="&#xdd;" horiz-adv-x="1233" />
<glyph unicode="&#xde;" horiz-adv-x="1120" />
<glyph unicode="&#xdf;" horiz-adv-x="1251" />
<glyph unicode="&#xe0;" horiz-adv-x="922" />
<glyph unicode="&#xe1;" horiz-adv-x="922" />
<glyph unicode="&#xe2;" horiz-adv-x="922" />
<glyph unicode="&#xe3;" horiz-adv-x="922" />
<glyph unicode="&#xe4;" horiz-adv-x="922" />
<glyph unicode="&#xe5;" horiz-adv-x="922" />
<glyph unicode="&#xe6;" horiz-adv-x="1454" />
<glyph unicode="&#xe7;" horiz-adv-x="905" />
<glyph unicode="&#xe8;" horiz-adv-x="909" />
<glyph unicode="&#xe9;" horiz-adv-x="909" />
<glyph unicode="&#xea;" horiz-adv-x="909" />
<glyph unicode="&#xeb;" horiz-adv-x="909" />
<glyph unicode="&#xec;" horiz-adv-x="514" />
<glyph unicode="&#xed;" horiz-adv-x="514" />
<glyph unicode="&#xee;" horiz-adv-x="514" />
<glyph unicode="&#xef;" horiz-adv-x="514" />
<glyph unicode="&#xf0;" horiz-adv-x="1139" />
<glyph unicode="&#xf1;" horiz-adv-x="1108" />
<glyph unicode="&#xf2;" horiz-adv-x="1010" />
<glyph unicode="&#xf3;" horiz-adv-x="1010" />
<glyph unicode="&#xf4;" horiz-adv-x="1010" />
<glyph unicode="&#xf5;" horiz-adv-x="1010" />
<glyph unicode="&#xf6;" horiz-adv-x="1010" />
<glyph unicode="&#xf7;" d="M87 647v140h839l1 -1v-139h-840zM382 377q0 15 16 31l82 84q15 14 29 14q13 0 31 -16l80 -86q12 -16 12 -29q0 -15 -14 -31l-80 -88q-20 -20 -29 -20q-16 0 -29 14l-88 101q-10 13 -10 26zM382 1070q0 15 16 31l82 84q15 14 29 14q13 0 31 -16l80 -86q12 -16 12 -29 q0 -15 -14 -31l-80 -88q-20 -20 -29 -20q-16 0 -29 14l-88 101q-10 13 -10 26z" />
<glyph unicode="&#xf8;" horiz-adv-x="1010" />
<glyph unicode="&#xf9;" horiz-adv-x="1059" />
<glyph unicode="&#xfa;" horiz-adv-x="1059" />
<glyph unicode="&#xfb;" horiz-adv-x="1059" />
<glyph unicode="&#xfc;" horiz-adv-x="1059" />
<glyph unicode="&#xfd;" horiz-adv-x="868" />
<glyph unicode="&#xfe;" horiz-adv-x="1010" />
<glyph unicode="&#xff;" horiz-adv-x="868" />
<glyph unicode="&#x2c6;" horiz-adv-x="1024" d="M221 1079l232 355h118l232 -355h-58l-233 216l-233 -216h-58z" />
<glyph unicode="&#x2dc;" horiz-adv-x="1024" d="M234 1132q19 106 68 158.5t129 52.5q46 -1 113 -24q64 -23 112 -23h4q36 0 58 20t36 66h54q-20 -103 -68.5 -154t-126.5 -51h-4q-50 0 -113 23q-66 24 -114 24q-39 0 -60.5 -20.5t-33.5 -71.5h-54z" />
<glyph unicode="&#x2000;" horiz-adv-x="789" />
<glyph unicode="&#x2001;" horiz-adv-x="1578" />
<glyph unicode="&#x2002;" horiz-adv-x="789" />
<glyph unicode="&#x2003;" horiz-adv-x="1578" />
<glyph unicode="&#x2004;" horiz-adv-x="526" />
<glyph unicode="&#x2005;" horiz-adv-x="394" />
<glyph unicode="&#x2006;" horiz-adv-x="263" />
<glyph unicode="&#x2007;" horiz-adv-x="263" />
<glyph unicode="&#x2008;" horiz-adv-x="197" />
<glyph unicode="&#x2009;" horiz-adv-x="315" />
<glyph unicode="&#x200a;" horiz-adv-x="87" />
<glyph unicode="&#x2010;" horiz-adv-x="1081" d="M142 740q0 -25 18 -43q17 -17 42 -17h550q24 0 42 17q17 18 17 43q0 24 -17 42q-18 17 -42 17h-550q-25 0 -42 -17q-18 -18 -18 -42z" />
<glyph unicode="&#x2011;" horiz-adv-x="1081" d="M142 740q0 -25 18 -43q17 -17 42 -17h550q24 0 42 17q17 18 17 43q0 24 -17 42q-18 17 -42 17h-550q-25 0 -42 -17q-18 -18 -18 -42z" />
<glyph unicode="&#x2012;" horiz-adv-x="1081" d="M142 740q0 -25 18 -43q17 -17 42 -17h550q24 0 42 17q17 18 17 43q0 24 -17 42q-18 17 -42 17h-550q-25 0 -42 -17q-18 -18 -18 -42z" />
<glyph unicode="&#x2013;" horiz-adv-x="1108" d="M56 419v120h996v-120h-996z" />
<glyph unicode="&#x2014;" horiz-adv-x="2048" d="M0 419v120h2048v-120h-2048z" />
<glyph unicode="&#x2018;" horiz-adv-x="801" d="M0 1169q0 -25 17 -42q18 -18 42 -18q25 0 42 18q17 17 17 42v204q0 24 -17 41q-17 18 -42 18q-24 0 -42 -18q-17 -17 -17 -41v-204z" />
<glyph unicode="&#x2019;" horiz-adv-x="801" d="M0 1169q0 -25 17 -42q18 -18 42 -18q25 0 42 18q17 17 17 42v204q0 24 -17 41q-17 18 -42 18q-24 0 -42 -18q-17 -17 -17 -41v-204z" />
<glyph unicode="&#x201a;" horiz-adv-x="813" d="M0 59q0 -24 17 -42q18 -17 42 -17q25 0 43 17q17 18 17 42v205q0 25 -17 42q-18 18 -43 18q-24 0 -42 -18q-17 -17 -17 -42v-205z" />
<glyph unicode="&#x201c;" horiz-adv-x="1072" d="M0 1167q0 -24 17 -42q18 -17 42 -17q25 0 42 17q17 18 17 42v204q0 24 -17 42q-17 17 -42 17q-24 0 -42 -17q-17 -18 -17 -42v-204zM309 1167q0 -24 17 -42q17 -17 42 -17q24 0 42 17q17 18 17 42v204q0 24 -17 42q-18 17 -42 17q-25 0 -42 -17q-17 -18 -17 -42v-204z " />
<glyph unicode="&#x201d;" horiz-adv-x="1072" d="M0 1167q0 -24 17 -42q18 -17 42 -17q25 0 42 17q17 18 17 42v204q0 24 -17 42q-17 17 -42 17q-24 0 -42 -17q-17 -18 -17 -42v-204zM309 1167q0 -24 17 -42q17 -17 42 -17q24 0 42 17q17 18 17 42v204q0 24 -17 42q-18 17 -42 17q-25 0 -42 -17q-17 -18 -17 -42v-204z " />
<glyph unicode="&#x201e;" horiz-adv-x="910" d="M119 114v42l119 125q44 0 88.5 -65.5t44.5 -151.5q0 -109 -71 -226.5t-139 -117.5v43q73 43 87 190q0 119 -129 161zM472 114v42l119 125q44 0 88.5 -65.5t44.5 -151.5q0 -109 -71 -226.5t-139 -117.5v43q73 43 87 190q0 119 -129 161z" />
<glyph unicode="&#x2022;" horiz-adv-x="1024" d="M216 718q0 123 87 209t210 86q122 0 208.5 -86.5t86.5 -208.5t-87.5 -209.5t-209.5 -87.5q-123 0 -209 87t-86 210z" />
<glyph unicode="&#x2026;" horiz-adv-x="2048" d="M129 136q0 15 16 31l82 84q15 14 29 14q13 0 31 -16l80 -86q12 -16 12 -29q0 -15 -14 -31l-80 -88q-20 -20 -29 -20q-16 0 -29 14l-88 101q-10 13 -10 26zM812 136q0 15 16 31l82 84q15 14 29 14q13 0 31 -16l80 -86q12 -16 12 -29q0 -15 -14 -31l-80 -88 q-20 -20 -29 -20q-16 0 -29 14l-88 101q-10 13 -10 26zM1495 136q0 15 16 31l82 84q15 14 29 14q13 0 31 -16l80 -86q12 -16 12 -29q0 -15 -14 -31l-80 -88q-20 -20 -29 -20q-16 0 -29 14l-88 101q-10 13 -10 26z" />
<glyph unicode="&#x202f;" horiz-adv-x="315" />
<glyph unicode="&#x2039;" horiz-adv-x="631" d="M174 479l342 303h14v-37l-205 -266l205 -266v-37h-14z" />
<glyph unicode="&#x203a;" horiz-adv-x="631" d="M101 176v37l205 266l-205 266v37h14l342 -303l-342 -303h-14z" />
<glyph unicode="&#x205f;" horiz-adv-x="394" />
<glyph unicode="&#x20ac;" horiz-adv-x="1497" d="M31 533q0 -25 18 -43q17 -17 42 -17h96q76 -210 258 -340q186 -133 415 -133q253 0 449 158q20 16 22 41q3 24 -13 44q-15 19 -40 22t-44 -13q-164 -132 -374 -132q-178 0 -327 99q-145 95 -216 254h309q25 0 43 17q17 18 17 43t-17 42q-18 18 -43 18h-348 q-13 61 -13 123q0 90 26 175h352q25 0 43 18q17 17 17 42t-17 43q-18 17 -43 17h-299q78 137 214 217q139 83 302 83q207 0 368 -128q20 -15 45 -12q24 3 40 22q15 20 12 45q-3 24 -22 40q-195 153 -443 153q-213 0 -392 -117q-173 -114 -259 -303h-101q-25 0 -42 -17 q-18 -18 -18 -43t18 -42q17 -18 42 -18h59q-22 -86 -22 -175q0 -61 10 -123h-64q-25 0 -42 -18q-18 -17 -18 -42z" />
<glyph unicode="&#x2122;" horiz-adv-x="1497" />
<glyph unicode="&#x25fc;" horiz-adv-x="1440" d="M0 0v1440h1440v-1440h-1440z" />
</font>
</defs>
</svg>
