<?xml version="1.0" standalone="no"?>
<!DOCTYPE svg PUBLIC "-//W3C//DTD SVG 1.1//EN" "http://www.w3.org/Graphics/SVG/1.1/DTD/svg11.dtd" >
<svg xmlns="http://www.w3.org/2000/svg">
<metadata></metadata>
<defs>
<font id="quartobold" horiz-adv-x="1349" >
<font-face units-per-em="2048" ascent="1638" descent="-410" />
<missing-glyph horiz-adv-x="548" />
<glyph horiz-adv-x="0" />
<glyph unicode="&#xd;" horiz-adv-x="548" />
<glyph unicode=" "  horiz-adv-x="548" />
<glyph unicode="&#x09;" horiz-adv-x="548" />
<glyph unicode="&#xa0;" horiz-adv-x="548" />
<glyph unicode="!" horiz-adv-x="548" d="M113 190q0 74 54 134.5t130 60.5q90 0 151.5 -52t61.5 -140q0 -82 -58.5 -142.5t-138.5 -60.5q-86 0 -143 57t-57 143zM119 1282q0 78 62.5 125t144.5 47q80 0 129 -49t49 -129q0 -49 -11.5 -103.5t-21.5 -105.5l-47 -246q-14 -102 -27 -205q-31 -156 -88 -155l-26 8 q-27 14 -95.5 373.5t-68.5 439.5z" />
<glyph unicode="&#x22;" horiz-adv-x="948" d="M8 1260q0 84 55.5 139t139.5 55q113 0 172 -90q51 -78 51 -195q0 -152 -88 -305q-96 -166 -229 -215l-21 6q-16 12 -16 27q72 78 126 164t54 160q0 66 -122 90t-122 164zM512 1255q0 84 55.5 141.5t141.5 57.5q113 0 172 -90q51 -78 51 -197q0 -141 -94 -307 q-104 -184 -230 -213q-29 10 -30 27v10q68 72 122 159t54 163l-4 49q-2 2 -134 43q-104 33 -104 157z" />
<glyph unicode="#" horiz-adv-x="1056" d="M31 422v137h219l53 395h-219v140h240l59 422h141l-59 -422h254l59 422h142l-60 -422h170v-138h-190l-56 -397h189v-137h-207l-59 -422h-142l60 422h-254l-60 -422h-141l59 422h-198zM391 559h252l55 397h-252z" />
<glyph unicode="$" horiz-adv-x="1054" d="M37 213q0 41 31.5 70.5t74.5 29.5q61 0 130 -110.5t190 -128.5v418q-20 12 -50 24t-57 25q-135 63 -211 147q-90 102 -90 236q0 174 121 276q102 88 287 117l-4 80q0 29 5 56.5t42 27.5q20 0 30.5 -18.5t10.5 -63.5l-2 -74q121 0 225 -35q150 -49 150 -143q0 -41 -31 -74 t-74 -33q-51 0 -88 56q-90 133 -182 147v-377q147 -66 200 -96q106 -61 160 -135q66 -90 66 -213q0 -180 -124 -300t-302 -120l2 -63q0 -51 -8 -91l-15 -16l-24 -4q-20 0 -33 25l-6 141q-201 0 -324 69q-100 57 -100 150zM332 1081q0 -55 37 -103t90 -69v328 q-127 -39 -127 -156zM541 80q135 43 135 190q0 63 -39 109q-27 31 -94 70z" />
<glyph unicode="%" horiz-adv-x="1601" d="M-18 948q0 168 73 295q88 152 246 152q145 0 227 -135q70 -115 70 -269q0 -168 -74 -297q-90 -156 -245 -155q-145 0 -228 137q-70 117 -69 272zM195 954q0 -137 14 -226t41 -110q16 -12 35 -12q63 0 86 160q10 76 10 215v33q0 115 -14 192q-23 121 -76 121 q-61 0 -84 -160q-12 -86 -12 -213zM430 12l4 13l549 1339q6 16 16 16h72l8 -10q0 -10 -129 -323q-164 -399 -251 -608.5t-173 -415.5q-6 -20 -14 -21h-70zM915 408q0 164 76 288q90 148 244 148q143 0 225 -131q72 -115 72 -267q0 -176 -70 -301q-86 -156 -250 -155 q-150 0 -229 139q-68 119 -68 279zM1133 391q0 -119 10 -190q20 -145 80 -146q47 0 71.5 94.5t24.5 262.5v37q0 133 -12 202q-23 125 -80 125q-70 0 -88 -190q-6 -61 -6 -158v-37z" />
<glyph unicode="&#x26;" horiz-adv-x="1560" d="M20 319q0 147 93.5 257t238.5 143q-47 63 -67 112q-27 62 -27 130q0 162 148 258q127 84 299 84q129 0 215 -64q98 -72 98 -195q0 -102 -80 -170q-61 -53 -176 -83q123 -141 246 -283q47 53 82 98q59 76 65 105q20 31 41 63q8 16 14 47q-8 29 -56 37t-67 33v8q0 39 35 39 h359l14 -4q18 -14 18 -33q0 -20 -30 -31q-14 -4 -45 -8q-59 -14 -195 -186q-88 -119 -176 -236q68 -86 135 -170q100 -109 176 -108q14 0 48 11t44 11l21 -2q16 -10 16 -26q0 -57 -166 -121q-147 -57 -219 -58q-123 0 -221 91q-18 16 -108 112q-94 -68 -189 -135 q-100 -61 -225 -61q-154 0 -256.5 92t-102.5 243zM305 506q0 -123 93.5 -208t219.5 -85q33 0 60 9t63 30q-151 217 -352 418q-37 -16 -60.5 -67.5t-23.5 -96.5zM567 1104q0 -84 72 -174l74 -90q47 41 63.5 82t16.5 104q0 70 -25 123q-33 74 -92 74q-49 0 -79 -34t-30 -85z " />
<glyph unicode="'" horiz-adv-x="430" d="M23 930q0 125 50 235.5t144 200.5q47 47 57 55q39 31 72 31l12 -2q18 -10 19 -31q-70 -86 -121 -162q-57 -86 -57 -153q0 -35 6 -56.5t25.5 -27.5t40 -8t40.5 -4q74 -16 102.5 -54.5t28.5 -115.5q0 -78 -55 -135.5t-133 -57.5q-113 0 -176 88q-55 78 -55 197z" />
<glyph unicode="(" horiz-adv-x="675" d="M231 483q0 223 68 424t201 396q49 76 84.5 108.5t64.5 32.5q10 0 21 -8q20 -16 20 -37q0 -23 -53 -94q-35 -45 -41 -54q-113 -156 -172 -357.5t-59 -408.5q0 -133 24.5 -258t73.5 -256q33 -90 36 -96t29 -45q74 -111 117 -178.5t43 -85.5q0 -16 -16.5 -26.5t-32.5 -10.5 q-18 0 -46 24.5t-71 77.5q-139 180 -215 401.5t-76 450.5z" />
<glyph unicode=")" horiz-adv-x="675" d="M-25 1386v13q0 18 16 29.5t36 11.5q33 0 88 -66q39 -47 69 -96q121 -182 185.5 -380t64.5 -411q0 -229 -68.5 -425.5t-205.5 -403.5q-41 -61 -60 -82q-45 -49 -82 -49q-23 0 -32 13.5t-9 37.5q0 14 48.5 77.5t56.5 76.5q100 141 159.5 340.5t59.5 386.5 q0 211 -55.5 415.5t-169.5 364.5q-27 37 -39 53q-47 61 -62 94z" />
<glyph unicode="*" horiz-adv-x="714" d="M6 1200q2 12 19 25q23 8 45 10t51 2l123 -4q16 61 28 104q23 80 34 94.5t34 14.5q35 -10 63 -94q25 -96 33 -121l131 6q39 0 69 -6t36 -33q-10 -43 -101 -102q-37 -25 -73 -47q25 -70 37 -105q25 -70 24 -106l-2 -7q-10 -18 -29 -20q-39 12 -94 53q-45 33 -90 68 q-55 -43 -92 -70q-74 -53 -94 -53q-33 0 -33 29q0 43 19.5 100t37.5 111q-51 31 -102 63q-68 47 -74 88zM283 1096l51 -49q10 6 19 15t34 36l-53 51z" />
<glyph unicode="+" d="M47 492v208h494v494h211v-494h489v-208h-489v-492h-211v492h-494z" />
<glyph unicode="," horiz-adv-x="464" d="M4 178q0 80 54.5 136.5t134.5 56.5q113 0 172 -77t59 -196q0 -147 -63.5 -271t-180.5 -220q-18 -14 -39.5 -27.5t-36.5 -13.5q-12 0 -24 10t-12 25l4 12q104 104 143 182q33 66 33 135q0 57 -122 84t-122 164z" />
<glyph unicode="-" horiz-adv-x="759" d="M41 446q0 12 20.5 56.5t30.5 58.5l6 4l19 2h534l19 -2q6 -2 14 -14q-16 -51 -25 -70q-18 -47 -38 -57h-562q-16 8 -18 22z" />
<glyph unicode="." horiz-adv-x="464" d="M25 199q0 74 59 131t135 57q82 0 142.5 -56.5t60.5 -137.5q0 -88 -59.5 -145.5t-149.5 -57.5q-80 0 -134 64.5t-54 144.5z" />
<glyph unicode="/" horiz-adv-x="714" d="M-4 14q0 16 125 336q139 356 244 619q117 295 165 407q8 23 12.5 28t20.5 13q20 0 53 12.5t43 14.5l11 -4l8 -10v-9l-524 -1327q-25 -63 -48 -71q-35 -6 -67 -15l-12 -6h-13l-10 2z" />
<glyph unicode="0" horiz-adv-x="1054" d="M14 639q0 293 111 498q137 256 407 256q231 0 357 -230q102 -188 102 -438q0 -274 -114 -481q-141 -256 -394 -256q-227 0 -358 221q-111 188 -111 430zM354 666q0 -215 15 -326q33 -252 127 -252q76 0 113.5 167t37.5 464q0 209 -14 325q-31 248 -119 248 q-104 0 -141 -270q-18 -137 -19 -356z" />
<glyph unicode="1" horiz-adv-x="1054" d="M92 1038q0 29 32 48.5t294 156.5t272 137t24.5 -6t14.5 -18l-4 -725q0 -172 1 -328t9 -177.5t89 -33.5t81 -51q0 -12 -12 -26.5t-27 -14.5h-657q-25 0 -41 9t-16 34q0 37 94 47t94 70v923q-63 -37 -96 -55q-63 -35 -107 -35q-45 0 -45 45z" />
<glyph unicode="2" horiz-adv-x="1054" d="M-35 41q6 27 53 80q14 16 70 76q139 152 186 209q109 133 166 247q72 141 72 269q0 199 -186 198q-141 0 -198.5 -141t-78.5 -141q-27 0 -39 16t-12 45q0 221 145.5 355.5t368.5 134.5q168 0 270.5 -94.5t102.5 -260.5q0 -139 -78 -270q-94 -158 -334 -344 q-72 -55 -141 -109h520q18 0 39 17q23 43 35 63q23 37 55 45q35 -8 35 -43q0 -10 -35 -170q-20 -94 -41 -186q-10 -37 -43 -37h-891q-41 0 -41 41z" />
<glyph unicode="3" horiz-adv-x="1054" d="M-35 86q0 41 29 67.5t72 26.5q41 0 133 -71q45 -35 86 -35q123 0 208 105.5t85 232.5q0 119 -74 168q-61 41 -187 41q-16 0 -51 -4.5t-53 -4.5l-29 4q-20 16 -20 39q0 27 178 92.5t178 217.5q0 94 -61.5 146t-157.5 52q-80 0 -168 -50t-100 -50q-10 0 -23.5 13.5 t-15.5 23.5q0 20 12 37q4 6 27 28q98 106 222 167t265 61q137 0 230 -64q109 -74 108 -205q0 -82 -63.5 -164.5t-145.5 -99.5l88 -31q102 -43 158.5 -123.5t56.5 -189.5q0 -268 -262 -418q-217 -125 -508 -125q-90 0 -137 17q-80 27 -80 96z" />
<glyph unicode="4" horiz-adv-x="1054" d="M-33 481l6 84q10 31 153.5 230.5t279.5 373.5q154 197 178 211h170l16 -10q6 -10 9 -106.5t3 -161.5l-4 -455h94l23 6q20 29 43 58q20 20 35 20q23 0 32 -13t9 -38q0 -12 -31 -116.5t-41 -127t-30.5 -31t-55.5 -8.5l-80 4v-376l-8 -15l-10 -6l-19 -4h-239q-23 0 -30 14.5 t-9 75t-2 70.5l4 239h-445q-31 0 -41 22.5t-10 59.5zM152 645h313l-2 434q-82 -102 -160 -213q-25 -37 -151 -221z" />
<glyph unicode="5" horiz-adv-x="1054" d="M-35 31q0 39 146 73q205 49 274 86q147 76 147 218q0 150 -228 215t-228 108l-2 6q0 72 11 154t24 162l24 217q6 49 17.5 59t91.5 16.5t197.5 16.5t207.5 10q47 0 102.5 4t97.5 12.5t61.5 59.5t47.5 51l17 -4q16 -10 22 -27q-27 -160 -51 -319q-20 -55 -182 -55h-156 q-135 0 -253.5 -6t-143.5 -31v-10l-6 -68l2 -10l6 -8q37 -14 85 -23.5t93 -17.5q240 -49 352 -119q174 -106 174 -305q0 -201 -157 -326q-131 -102 -357 -150q-170 -35 -378 -34q-23 0 -40.5 11t-17.5 34z" />
<glyph unicode="6" horiz-adv-x="1054" d="M8 469q0 242 158 471q143 209 371 340q63 39 149 78q111 51 154 51q18 0 33.5 -9t15.5 -28l-2 -12q-18 -27 -55 -51.5t-72 -46.5q-143 -100 -223 -232q-68 -111 -123 -303q49 33 124.5 54.5t141.5 21.5q145 0 229 -105q78 -98 78 -249q0 -215 -151 -347 q-143 -125 -365 -125q-215 0 -339 136.5t-124 355.5zM377 453q0 -113 33 -220q45 -147 133 -147q68 0 98 80q23 57 23 139q0 123 -35 215q-49 133 -150 133q-31 0 -49 -10q-25 -18 -41 -31q-8 -39 -10 -75.5t-2 -83.5z" />
<glyph unicode="7" horiz-adv-x="1054" d="M49 958q0 51 26 188.5t46 196.5q8 8 6 15q20 25 47 24h817q47 0 47 -30q0 -16 -149 -316q-164 -326 -289 -569q-96 -184 -192 -369q-25 -51 -41 -71q-33 -43 -66 -43q-25 0 -46.5 15t-21.5 40q0 31 123 266q78 147 242 445q158 287 172 311h-455q-117 0 -155.5 -74 t-65.5 -74q-45 0 -45 45z" />
<glyph unicode="8" horiz-adv-x="1054" d="M35 336q0 96 82 176q57 55 168 111q-102 57 -166 147q-70 98 -70 209q0 203 160 313q141 98 352 99q152 0 266 -64q141 -78 142 -221q0 -70 -9.5 -98.5t-52.5 -87.5l-28 -50q-23 -27 -76 -55q-33 -18 -92 -41q14 -16 41 -33q39 -25 77 -47q68 -49 107 -125.5t39 -160.5 q0 -197 -156 -314q-141 -106 -344 -106q-195 0 -307 73q-133 88 -133 275zM295 313q0 -88 46 -157.5t130 -69.5q88 0 131 68q37 57 37 151q0 80 -92 154q-35 29 -162 100q-43 -55 -66.5 -117.5t-23.5 -128.5zM377 1114q0 -90 59 -153q35 -39 137 -101q14 -10 24.5 -16 t23.5 -10q92 104 92 243q0 90 -37 148q-45 70 -131 69q-74 0 -121 -53t-47 -127z" />
<glyph unicode="9" horiz-adv-x="1054" d="M6 903q0 219 162 359q154 131 377 131q207 0 325 -142q113 -133 113 -342q0 -297 -176 -534q-162 -217 -445 -357q-53 -27 -81 -38q-61 -27 -88 -27q-14 0 -24.5 12t-10.5 27q0 10 8 31q176 100 290.5 260.5t139.5 357.5q-49 -41 -118.5 -60.5t-143.5 -19.5 q-150 0 -239 95.5t-89 246.5zM330 1049q0 -123 41 -211q53 -117 161 -117q23 0 40.5 6t39.5 21q13 73 13 149q0 131 -27 231q-43 160 -133 160q-74 0 -109 -88q-27 -68 -26 -151z" />
<glyph unicode=":" horiz-adv-x="548" d="M113 190q0 84 58 140.5t142 56.5q86 0 143.5 -59.5t57.5 -145.5q0 -80 -62.5 -136t-144.5 -56q-80 0 -137 59.5t-57 140.5zM115 748q0 84 57 143t143 59q80 0 139.5 -57t59.5 -137q0 -86 -57.5 -145.5t-141.5 -59.5q-82 0 -141 57.5t-59 139.5z" />
<glyph unicode=";" horiz-adv-x="548" d="M94 174q0 86 57.5 141.5t145.5 55.5q113 0 168 -92q47 -78 47 -197q0 -117 -50 -228.5t-136 -197.5q-31 -31 -64 -55q-47 -35 -74 -35l-12 4l-16 22l10 33q76 70 117 135q51 84 51 172l-2 25q-10 29 -33 41q-98 0 -149 37q-59 43 -60 139zM102 748q0 82 56.5 142 t136.5 60q84 0 145.5 -57t61.5 -143t-59.5 -141.5t-145.5 -55.5q-80 0 -137.5 57.5t-57.5 137.5z" />
<glyph unicode="&#x3c;" horiz-adv-x="1155" d="M51 455v127l1041 471v-140l-871 -395l871 -395v-139z" />
<glyph unicode="=" d="M-49 299v211h1364v-211h-1364zM-49 684v211h1364v-211h-1364z" />
<glyph unicode="&#x3e;" horiz-adv-x="1155" d="M63 -16v139l871 395l-871 395v140l1041 -471v-127z" />
<glyph unicode="?" horiz-adv-x="843" d="M78 1225q0 117 133 178q104 49 235 49q168 0 271 -82q113 -90 112 -256q0 -117 -77 -221q-49 -66 -172 -170q-33 -27 -48 -39q-25 -20 -50 -48t-43.5 -101.5t-59.5 -73.5q-33 0 -50.5 80t-17.5 209q0 59 135 288q63 106 64 195q0 51 -28.5 92t-80.5 41q-74 0 -90 -122 t-116 -122q-49 0 -83 28t-34 75zM190 178q0 82 54.5 144.5t136.5 62.5t145.5 -55.5t63.5 -134.5q0 -86 -60.5 -146.5t-146.5 -60.5q-74 0 -133.5 57t-59.5 133z" />
<glyph unicode="@" horiz-adv-x="2078" d="M301 739q0 317 226.5 543.5t545.5 226.5q285 0 490 -174q215 -184 215 -465q0 -207 -140 -391q-152 -201 -350 -200q-57 0 -94 34.5t-37 94.5q-53 -57 -117.5 -93t-132.5 -36q-131 0 -216 97t-85 230q0 215 127 383q137 182 346 182q80 0 140.5 -42t95.5 -117l41 127h141 q-76 -252 -149 -504q-14 -53 -25.5 -101.5t-11.5 -62.5q0 -25 5 -42t38 -17q123 0 213 163q78 143 78 279q0 240 -164 384t-408 144q-270 0 -446 -190.5t-176 -464.5q0 -270 182 -454.5t457 -184.5q143 0 275 61.5t220 172.5h137q-100 -168 -270 -264.5t-369 -96.5 q-328 0 -555 225.5t-227 552.5zM774 625q0 -84 45 -141.5t127 -57.5q125 0 219 145q86 133 86 265q0 72 -48 130t-120 58q-131 0 -225 -137q-84 -123 -84 -262z" />
<glyph unicode="A" d="M-49 35q0 20 51 43q33 14 44 31.5t28 58.5q10 27 14 39l332 883q35 90 69 180q55 137 78 168q12 6 36 9t48 3l80 -2q18 0 27.5 -11.5t17.5 -31.5l449 -1284q8 -23 28.5 -34t49.5 -15l14 -11q10 -12 10 -28q0 -8 -7 -15.5t-17 -15.5l-13 -2h-581q-45 0 -45 39 q0 31 65.5 42t71.5 21l2 11q0 25 -62 215q-20 59 -41 121h-397q-57 -139 -88 -225.5t-31 -106.5q0 -25 69 -35t69 -51l-5 -15q-16 -16 -30 -16h-299q-12 0 -24.5 10t-12.5 25zM346 571h316l-146 457z" />
<glyph unicode="B" horiz-adv-x="1390" d="M-39 35q0 31 56.5 43t60.5 20t6 27.5t2 32.5v1153l-4 22q-10 8 -65.5 24.5t-55.5 43.5q0 20 18.5 29.5t40.5 9.5h29h25h76.5t76.5 2h21l485 4q223 0 340 -60q160 -82 160 -284q0 -111 -59.5 -198t-165.5 -138q119 -43 193.5 -140.5t74.5 -222.5q0 -74 -25.5 -149.5 t-74.5 -126.5q-76 -78 -193 -107q-84 -20 -221 -20h-742q-29 0 -44 6t-15 29zM492 70q186 0 277 80t91 266q0 162 -108 231q-88 55 -260 55v-632zM492 778h30q137 0 219 76t82 211q0 145 -63 217q-70 78 -213 78h-55v-582z" />
<glyph unicode="C" horiz-adv-x="1308" d="M0 682q0 373 211 579.5t586 206.5q98 0 239 -28q186 -37 205 -88q6 -20 9 -63.5t3 -86.5l-2 -123q0 -27 -6 -41t-31 -14q-20 0 -93.5 174t-246.5 174q-225 0 -339 -221q-90 -174 -91 -424q0 -244 80 -420q106 -233 320 -233q154 0 235 123q68 135 135 270q37 0 37 -35 v-61v-29v-27v-22q0 -43 -2 -79t-8 -61.5t-27 -43.5q-12 -10 -51 -29q-109 -55 -214 -82t-226 -27q-334 0 -528.5 188.5t-194.5 522.5z" />
<glyph unicode="D" horiz-adv-x="1517" d="M-43 1401l2 12q6 20 58.5 28.5t117.5 8.5q33 0 60.5 -1t50.5 -1l448 4q170 0 291 -33q158 -43 252 -148.5t142 -238.5t48 -284q0 -184 -73.5 -346t-216.5 -269q-88 -63 -227.5 -98t-409.5 -35h-146l-166 -4q-88 0 -151.5 4t-75.5 25l-2 22q0 20 61.5 34.5t61.5 70.5v1148 q0 12 -5 30t-16 22q-29 4 -50 9t-42 15l-10 17zM489 106q0 -14 15.5 -19t32.5 -5q31 0 75.5 16.5t87.5 38.5q156 80 234 275q63 160 63 364q0 262 -118 416q-131 170 -390 170v-1256z" />
<glyph unicode="E" horiz-adv-x="1308" d="M-29 41q0 27 61.5 37t61.5 88v1126q0 53 -61.5 67.5t-61.5 43.5q0 20 16.5 28.5t61.5 8.5l1043 10q45 0 45 -41v-330q-16 -25 -41 -24q-29 0 -39 41t-17 78q-31 115 -71.5 147.5t-157.5 32.5h-307l2 -531l104 -4q63 0 95 6q59 12 75 47q6 12 11.5 103.5t50.5 99.5 q23 -6 37 -20l1 -8v-535q0 -12 -14 -24.5t-28 -12.5q-41 0 -47.5 116t-41 123t-77.5 9t-66 2h-102v-596q0 -25 16.5 -34t42.5 -9h170q121 0 187 18q100 29 141 111q35 106 62.5 165.5t52.5 59.5l28 -12l6 -22l-34 -351q-4 -39 -18.5 -48t-57.5 -9q-111 0 -332 -2t-332 -2 h-90h-51q-164 0 -228.5 4t-82.5 12q-12 16 -13 31z" />
<glyph unicode="F" horiz-adv-x="1138" d="M-31 37q0 31 61.5 45t61.5 61v1170q0 8 -5 16t-7 12q-6 4 -58.5 16.5t-52.5 45.5q0 18 20.5 30.5t39.5 12.5l1038 -2q31 -6 31 -33v-319q0 -18 -15 -33l-26 -10q-37 0 -56 79q-10 55 -20 113q-23 74 -80 98q-39 16 -129 17h-270v-588l139 4q66 0 98 12q51 18 52 74l-3 64 q0 35 12.5 64.5t41.5 29.5l18 -2l14 -8l6 -19v-532q0 -41 -42 -41q-43 0 -47.5 128t-100.5 128h-190v-539l6 -25l18 -14l62 -12q41 -14 41 -39q0 -23 -13.5 -32t-38.5 -9h-561h-16q-29 12 -29 37z" />
<glyph unicode="G" horiz-adv-x="1476" d="M0 686q0 375 218 577.5t597 202.5q135 0 258 -24q166 -33 234 -99q6 -23 6 -67q0 -20 -1 -37.5t-1 -32.5v-57.5t2 -56.5q0 -25 -2 -35q0 -39 -39 -39q-16 0 -25.5 11t-15.5 30l-31 98q-41 111 -110.5 165t-186.5 54q-244 0 -366 -223q-98 -180 -99 -444q0 -227 62 -400 q88 -246 272 -246q125 0 170 87q33 61 33 198q2 37 2 60q0 29 -3 46t-11 29q-78 12 -119 25.5t-41 38.5l2 14q12 20 37 21h575q39 0 49 -35q0 -37 -67.5 -47.5t-67.5 -67.5q-2 -23 -4 -98.5t-6 -121.5t-13.5 -58.5t-54.5 -40.5q-100 -61 -244.5 -99.5t-271.5 -38.5 q-348 0 -542.5 182.5t-194.5 528.5z" />
<glyph unicode="H" horiz-adv-x="1560" d="M-45 41q0 23 41 35q31 6 61 14q14 6 19.5 31.5t5.5 54.5l-2 1114l-2 31q-14 16 -68.5 34.5t-54.5 49.5q14 37 41 37h569q45 0 45 -43q0 -27 -61.5 -41.5t-61.5 -48.5v-500h486v502q0 31 -62.5 43t-62.5 53q0 16 14 27q25 8 41 8h555q47 0 47 -43l-6 -13 q-14 -18 -66.5 -32.5t-52.5 -48.5v-1172q0 -41 62.5 -53t62.5 -47q0 -14 -20 -27q-10 -6 -19 -6h-575l-17 2q-14 6 -24 23l-2 12q0 29 62.5 41t62.5 59v572h-486v-564q0 -53 62.5 -65t62.5 -47q0 -12 -13 -22.5t-36 -10.5h-555q-31 0 -42 11.5t-11 29.5z" />
<glyph unicode="I" horiz-adv-x="675" d="M-12 27v12l2 10l18 21l70 16q37 12 37 88v1106q0 70 -63.5 80t-63.5 41q0 16 14 28.5t33 12.5h540q33 0 52.5 -6t19.5 -31v-8q-10 -31 -68.5 -42.5t-58.5 -64.5v-1153q0 -47 63.5 -59t63.5 -43q0 -14 -26 -33l-13 -2h-575q-29 0 -45 27z" />
<glyph unicode="J" horiz-adv-x="968" d="M-14 174q0 66 44 112t111 46q98 0 140 -74q35 -88 69 -174q41 8 53.5 57t12.5 109v215v127q0 475 -2 599t-12.5 141.5t-71 26.5t-60.5 48q0 12 12.5 24.5t24.5 12.5h590q47 0 47 -45q0 -16 -22.5 -26.5t-83.5 -20.5l-11 -9q-8 -31 -10 -59.5t-2 -66.5l4 -201l4 -240 q0 -268 -44 -406.5t-126 -226.5t-180 -128t-219 -40q-113 0 -182 41q-86 51 -86 158z" />
<glyph unicode="K" horiz-adv-x="1476" d="M-37 1403q0 20 15.5 29.5t37.5 9.5h555q23 0 41 -12q6 -10 6 -33q0 -25 -62 -37t-62 -82v-508q102 0 145 47q18 20 61 92l166 267q27 41 41 63q29 45 39 68l2 20l2 6q-8 12 -71.5 23.5t-67.5 52.5q12 33 57 33l238 6q53 0 110.5 -3t70.5 -14.5t13 -29.5q0 -27 -55 -39 q-145 -35 -172 -72q-47 -68 -125 -190q-49 -78 -74 -119q78 -129 164 -293q78 -150 156 -299q45 -84 76 -141q41 -74 84 -137q12 -18 54 -31.5t42 -48.5q0 -31 -43 -31h-610l-19 2q-29 14 -28 39l2 10q14 23 68 31t57 31q-8 53 -58 139q-41 68 -80 137q-45 92 -90 186 q-66 111 -153 123v-553q0 -49 61 -59t61 -53q0 -20 -23.5 -26.5t-35.5 -6.5h-549q-29 0 -41 18l-4 19q0 31 61.5 43t61.5 49v1131q0 33 -3 52t-19 31q-31 8 -62 17q-41 16 -41 43z" />
<glyph unicode="L" horiz-adv-x="1222" d="M-27 39q0 29 39 33q86 10 86 104v1114q0 51 -62.5 67.5t-62.5 45.5q0 41 43 41h562q35 0 46 -11.5t11 -31.5q0 -29 -41 -37q-90 -20 -90 -70v-1165l2 -20q12 -25 49 -25q47 0 141.5 6t143.5 6q55 0 86.5 15.5t57.5 66.5t47.5 100.5t43.5 102.5q16 41 51 41q8 -4 14.5 -6 t12.5 -6l4 -25l-27 -324q-4 -35 -4 -36q-8 -25 -51 -25h-1046q-25 0 -40.5 8t-15.5 31z" />
<glyph unicode="M" horiz-adv-x="1730" d="M-7 81q54 13 60 31.5t8 69.5t2 117v57l13 416q0 78 8 235.5t8 237.5q0 96 -73.5 116.5t-73.5 45.5q10 37 37 37h491q20 0 33 -12q6 -6 16 -29q20 -43 43 -101.5t43 -111.5q82 -215 140 -412q33 -106 36.5 -117.5t28.5 -64.5l252 655q20 59 41 119q35 74 88 74h436 q43 0 43 -43q-20 -35 -81.5 -42t-61.5 -157l6 -889q0 -90 6 -127q14 -86 57 -102l52 -14q20 -8 20 -41q0 -6 -8 -14.5t-16 -12.5l-13 -2h-585q-20 0 -45 10l-7 8l-4 21q4 31 62.5 39t69 20.5t13.5 36t1 35.5q0 160 -6.5 481.5t-6.5 483.5l-176 -447l-129 -332 q-37 -117 -63 -192q-53 -143 -90 -164h-15q-20 0 -37 25q-8 12 -20 45q-70 172 -139 354q-23 61 -133 360q-8 23 -45 136q-47 143 -89 221q0 -162 -6 -377q-14 -504 -14 -631q0 -37 72.5 -51t72.5 -49q0 -33 -36 -33h-302q-38 0 -38 35q0 33 54 46z" />
<glyph unicode="N" d="M-49 1405q0 18 26 33l19 4h393q20 0 29.5 -6t25.5 -23q47 -55 113 -149q59 -86 66 -95q70 -94 104 -139q90 -121 174 -239q57 -84 84 -125q55 -82 92 -121l2 227v518q0 49 -30 62l-7 -2q-18 0 -39.5 6t-41.5 12q-31 18 -31 39l4 16q8 8 23.5 13.5t39.5 5.5h246 q23 0 29 -2q31 -10 31 -39q0 -18 -25 -31q-31 -10 -48.5 -17t-28.5 -25.5t-11 -41.5q2 -37 2 -57q0 -63 -5 -324.5t-12.5 -574t-12.5 -321.5t-21 -9h-140l-18 12q-51 47 -152 189q-61 88 -79 114l-330 476q-123 180 -127 184q-35 47 -88 104q0 -156 -4 -509t-4 -373 q0 -88 26 -103q57 -8 109 -24q10 -2 14 -15.5t2 -25.5q0 -10 -14 -19.5t-35 -9.5h-293q-23 0 -41 12l-10 15v12l6 16q14 14 57 21.5t53.5 29t16.5 265t9 434t3 375.5q0 76 -47 127q-53 49 -104 98z" />
<glyph unicode="O" horiz-adv-x="1601" d="M-12 674q0 365 213 582t575 217q348 0 545 -209t197 -559q0 -43 -10.5 -97.5t-21.5 -97.5t-30 -86q-90 -219 -293 -340q-193 -115 -438 -115q-313 0 -522 193q-215 199 -215 512zM438 678q0 -201 60 -375q82 -242 243 -242q182 0 271 254q61 178 61 408q0 242 -49 405 q-78 258 -260 258t-268 -278q-58 -188 -58 -430z" />
<glyph unicode="P" horiz-adv-x="1265" d="M-33 1403q0 20 13.5 30.5t175 13.5t299.5 3h245q250 0 373 -66q168 -90 168 -319q0 -205 -121 -303q-96 -78 -284 -98q-78 -8 -336 -9v-522q0 -35 53 -47t59 -14q10 -12 13.5 -18.5t3.5 -18.5q0 -33 -37 -33h-592l-20 8l-11 15v10q0 35 60.5 47t60.5 45v1186q0 27 -41 41 q-51 14 -65 18q-16 12 -17 31zM502 733q321 0 321 342q0 156 -86 223q-72 57 -235 72v-637z" />
<glyph unicode="Q" horiz-adv-x="1601" d="M-2 743q0 330 233 535q225 197 562 197q332 0 532.5 -199t200.5 -533q0 -260 -137 -456q-143 -207 -392 -273q100 -154 205 -219q119 -74 291 -74q45 0 77 7.5t68 17.5q25 10 55.5 20.5t45.5 10.5q10 0 21.5 -13.5t11.5 -21.5q0 -68 -238 -137q-203 -59 -305 -60 q-244 0 -410 117q-143 100 -276 330q-68 20 -121 39.5t-90 42.5q-180 117 -257 279.5t-77 389.5zM446 707q0 -217 64 -404q88 -260 258 -260q168 0 252 297q59 209 59 436q0 199 -57 369q-82 239 -237 239h-1q-186 0 -274 -260q-63 -186 -64 -417z" />
<glyph unicode="R" horiz-adv-x="1435" d="M-41 39q10 29 67.5 43t57.5 39v1198q0 10 -21 31q-14 2 -46.5 11t-43.5 15l-8 15l-2 12q0 41 51 41h844q168 0 278.5 -93.5t110.5 -256.5q0 -125 -65.5 -218.5t-182.5 -144.5q94 -61 131 -121q23 -35 73 -172t102 -278q27 -63 79 -83t52 -52q-18 -27 -43 -33t-72 -6 q-346 0 -451 182q-43 170 -88 348t-254 178l-36 -2v-493l2 -76q20 -31 83.5 -44t63.5 -42l-8 -23q-14 -14 -47 -14h-576q-51 0 -51 39zM494 770h26q317 0 318 317q0 131 -79 202t-212 71h-53v-590z" />
<glyph unicode="S" horiz-adv-x="1138" d="M4 117l2 276q10 43 49 43l19 -4q20 -160 97 -264.5t257 -104.5q111 0 184 56q82 61 82 170q0 141 -162 233q-152 82 -303 164q-164 125 -163 348q0 225 170 336q145 94 385 94q113 0 202 -18q145 -29 153.5 -84t9.5 -119.5t1 -122.5q0 -51 -51 -51q-6 4 -70 178 q-49 135 -217 135q-94 0 -161.5 -60t-67.5 -155q0 -115 166 -204q295 -158 309 -170q168 -129 168 -340q0 -258 -180 -377q-150 -98 -424 -99q-111 0 -256 31q-199 41 -199 109z" />
<glyph unicode="T" horiz-adv-x="1222" d="M-39 1079l2 326q0 10 7.5 19.5t19.5 17.5l24 4h1102h31q31 -16 31 -35l2 -336q0 -14 -14.5 -22.5t-28.5 -8.5q-31 0 -64 154t-125 154h-180v-1180q0 -82 63.5 -88t79.5 -21l15 -26l-15 -27l-12 -8l-12 -2h-623q-35 0 -51 27q0 41 76 51t76 61v1213h-189 q-72 0 -108.5 -151.5t-67.5 -151.5q-39 0 -39 30z" />
<glyph unicode="U" horiz-adv-x="1390" d="M-55 1407q0 12 16 24.5t29 12.5l592 -2q36 0 36 -43q0 -27 -70.5 -39t-70.5 -60v-479q0 -272 47 -415q78 -238 293 -238q197 0 270 219q45 135 46 408v106q0 66 4 221.5t4 165.5q0 59 -72 69.5t-72 49.5q0 37 43 37l162 2q39 0 91.5 -1t67.5 -9.5t15 -28.5q0 -27 -35 -41 q-43 -12 -57 -16q-10 -12 -17 -66.5t-7 -136.5v-23l-13 -247q0 -270 -26 -418q-41 -227 -154 -344q-137 -141 -395 -142q-166 0 -275 39q-133 47 -221 166q-45 59 -71.5 180t-26.5 318q0 104 -14.5 313t-14.5 311q0 47 -52 61.5t-52 45.5z" />
<glyph unicode="V" d="M-49 1407q4 8 5 12t7 13l17 8h593q31 -10 31 -39q0 -31 -66.5 -41t-66.5 -35q14 -33 27.5 -74t25.5 -80l256 -735q25 68 94.5 263.5t137 400.5t67.5 225q0 25 -63.5 37t-63.5 41q0 14 10.5 26.5t26.5 12.5h293q29 -2 29 -39q0 -23 -41 -38t-56 -46q-6 -14 -18 -43 q-2 -8 -16 -45l-170 -465q-78 -242 -136 -412q-113 -330 -155 -352h-103h-46t-31 -2q-18 4 -50 82t-73 215l-236 649q-43 121 -63 180q-31 86 -70 179q-18 41 -57 57t-39 45z" />
<glyph unicode="W" horiz-adv-x="1937" d="M-63 1405q0 8 10 29l16 8h549q16 0 24.5 -11.5t8.5 -29.5q0 -20 -44 -34.5t-50 -18.5l-2 -9q0 -14 17 -72.5t38 -125.5l239 -760l144 289l-137 424l-64 200q-23 63 -65.5 76.5t-42.5 34.5l6 22q10 14 26 15h518l13 -4l12 -13l6 -20q0 -16 -24 -31q-16 -8 -41 -16l-7 -6 l-2 -19q4 -23 48 -155q18 -57 24 -97l62 136q47 106 47 126l-9 15q-27 10 -38 14q-27 10 -27 29q0 20 14 33l21 8l246 -2q25 0 32 -29q-6 -35 -60 -47t-83 -67.5t-64 -131.5q-4 -10 -96 -219l162 -553l76 242q51 156 76 233q43 131 73 236q8 25 36 120t28 113l-2 9 q-8 8 -48 18t-47 39q6 39 39 39h93q47 0 111.5 -1t74.5 -10.5t10 -27.5q0 -27 -45 -40t-57.5 -34.5t-30.5 -85t-29 -88.5q-35 -109 -116 -346q-92 -264 -184.5 -532.5t-96.5 -271.5t-39 -5t-45 -4h-51h-23q-35 0 -63 6l-10 14q-6 43 -23 95q-8 27 -31 92l-114 329l-240 -514 l-14 -12q-12 -4 -25.5 -6t-42.5 -2h-69h-27h-21q-14 4 -20 4l-8 6q-39 84 -74 200t-66 224l-266 815q-10 33 -16 55.5t-17.5 40t-47 26.5t-35.5 36z" />
<glyph unicode="X" d="M-47 33q0 33 62.5 47t89 46t63.5 91q31 49 61 100l228 342l-240 420l-113 199q-16 27 -26 39q-16 20 -37 33q-6 4 -47 15t-41 40q0 18 16.5 27.5t36.5 9.5h625q45 0 45 -39q0 -31 -66.5 -43t-66.5 -39q0 -10 84 -154q49 -86 100 -172q53 80 107 162q74 115 88 168l-11 23 q-39 6 -75 14q-49 14 -50 47q0 33 37 33h344q16 0 29.5 -11.5t13.5 -27.5q0 -33 -68.5 -47.5t-82.5 -32.5q-23 -29 -49.5 -71t-40.5 -64q-47 -72 -92 -141q-55 -84 -97 -144q29 -68 82 -155q45 -76 92 -150l181 -322q43 -78 86 -153q18 -29 68 -44.5t50 -43.5 q0 -12 -11 -21.5t-23 -13.5h-631q-45 0 -45 39q0 31 67.5 39t67.5 37l-14 35l-140 251q-23 39 -43 80q-25 41 -53 74q-74 -117 -147 -231q-123 -197 -123 -211q0 -25 66.5 -33t66.5 -51q-10 -23 -25 -27l-30 -2h-334q-10 0 -22.5 10t-12.5 23z" />
<glyph unicode="Y" horiz-adv-x="1265" d="M-45 1407q0 18 17.5 27.5t37.5 9.5h576q43 0 49 -41q-4 -8 -5 -11t-8.5 -11.5t-54.5 -16.5t-65 -27l-2 -12q0 -6 61.5 -122t126 -236.5t78.5 -147.5q45 92 129 266q109 227 109 238v10l-13 13q-49 12 -76 18q-51 12 -51 45q0 14 16.5 24.5t28.5 10.5l215 2h29 q33 0 57.5 -7t24.5 -32q0 -31 -48 -45t-61 -37l-106 -209q-53 -100 -111.5 -220t-103.5 -224v-549q4 -8 8 -14.5t7 -9.5t68.5 -15t65.5 -53q0 -14 -24 -29l-10 -2h-625q-43 0 -49 41l4 12q12 18 79.5 28.5t67.5 57.5v537l-282 530l-35 62q-37 63 -51 71q-39 20 -56.5 37 t-17.5 31z" />
<glyph unicode="Z" horiz-adv-x="1265" d="M-37 45q0 14 161 321.5t310 587.5q107 199 213 398h-153q-45 0 -90.5 -1t-90.5 -1q-94 0 -116 -39q-6 -12 -35 -90q-16 -47 -31 -95q-27 -65 -62 -65h-1l-21 8l-12 16q0 59 8 117q14 76 21.5 117t14.5 76t21.5 42t42.5 7h953l12 -2l18 -12l7 -19q0 -18 -164 -326 q-53 -102 -324 -596q-172 -317 -219 -401l293 2l123 -4q63 0 113.5 6t64.5 33q37 154 68.5 241t68.5 87q8 0 27 -13l6 -22l-21 -381q-4 -37 -36 -37h-1131q-39 0 -39 45z" />
<glyph unicode="[" horiz-adv-x="675" d="M274 -446v1845q0 45 39 45h328q18 0 33.5 -13.5t15.5 -33.5q0 -35 -33 -45l-143 6q-51 0 -79.5 -6t-33.5 -21l-2 -16v-1671l2 -13l7 -10q31 -10 63 -6q31 0 61.5 1t61.5 1q39 0 64.5 -8t25.5 -41q0 -43 -51 -43h-322l-24 6z" />
<glyph unicode="\" horiz-adv-x="569" d="M-35 1509h135l504 -1548h-137z" />
<glyph unicode="]" horiz-adv-x="675" d="M-16 -426q0 16 18 35q14 6 49 6l197 2l14 6q10 20 10 23v1683q-6 14 -8 17q-8 8 -26.5 10t-38.5 2q-23 0 -73 -4t-52 -4q-33 0 -50.5 3t-29.5 19l-4 25q0 20 13 33.5t34 13.5h328q35 0 34 -25v-1863q-16 -31 -43 -31h-319q-53 0 -53 49z" />
<glyph unicode="^" horiz-adv-x="0" d="M-350 1559q0 33 160 172q74 63 102 90l20 20q27 25 50 25q18 0 51 -30t43 -40q80 -66 133 -113q102 -90 102 -120q0 -20 -12 -28.5t-31 -8.5q-23 0 -141 69q-78 45 -154 93q-88 -59 -141 -93q-102 -63 -143 -71q-39 8 -39 35z" />
<glyph unicode="_" horiz-adv-x="1138" d="M0 -154h1139v-102h-1139v102z" />
<glyph unicode="`" horiz-adv-x="0" d="M-244 1446q0 29 22.5 47t53.5 18q51 0 92 -98q39 -115 49 -143q41 -92 63.5 -147.5t22.5 -69.5q0 -8 -4 -15q-12 -18 -26 -18t-27.5 11t-21.5 26l-156 254q-20 33 -41 65q-27 47 -27 70z" />
<glyph unicode="a" horiz-adv-x="1011" d="M-6 233q0 33 17.5 76t43.5 56q68 35 203 71q168 47 207 60.5t50 31t11 50.5v45q0 92 -20 137q-29 63 -113 63q-53 0 -67.5 -21.5t-14.5 -70.5v-31q0 -37 -100 -89t-143 -52q-18 0 -21.5 15.5t-3.5 41.5q0 25 7 53.5t20 45.5q70 82 226.5 160.5t262.5 78.5h29 q53 0 101 -18t93 -53q98 -78 99 -205l-4 -395q0 -84 19 -120t58 -36l47 6q20 0 25 -22q0 -51 -111 -93q-89 -34 -150 -34h-3q-90 0 -138.5 31.5t-103.5 115.5q-72 -63 -139 -100q-84 -45 -164 -45q-125 0 -174 60t-49 187zM326 242q0 -37 17 -63.5t54 -26.5q47 0 83 33.5 t36 82.5v172q-98 -41 -106 -45q-84 -47 -84 -153z" />
<glyph unicode="b" horiz-adv-x="1179" d="M-43 1372l4 25l10 6q203 49 408 98l18 -2q8 -4 12.5 -68.5t4.5 -115.5v-43l-6 -393q68 33 134 52t136 19q195 0 313 -137q113 -131 113 -330q0 -264 -164 -389q-146 -112 -413 -112h-5q-94 0 -154.5 5t-131.5 25q-23 6 -44.5 12.5t-39.5 6.5q-20 0 -50 -23.5t-47 -23.5 q-16 12 -16 24q0 76 5 190.5t5 129.5l4 555v139v29v24q0 33 -1 72t-7 106q0 61 -35 80q-47 25 -53 39zM406 403q0 -131 18 -204q35 -136 125 -136q121 0 156 191q14 80 14 162q0 147 -37 254q-53 157 -171 157h-1q-47 0 -74.5 -20.5t-27.5 -67.5z" />
<glyph unicode="c" horiz-adv-x="968" d="M10 451q0 246 180 383q164 124 418 124q168 0 260 -57q76 -47 76 -127q0 -53 -41 -92t-94 -39q-74 0 -164 160q-43 76 -104 76q-80 0 -125 -97q-37 -80 -37 -168q0 -164 90 -282q100 -131 260 -131q43 0 90 22.5t99 48.5q30 0 30 -21t-14 -43t-35 -42 q-96 -98 -188.5 -144.5t-221.5 -46.5q-221 0 -350 127t-129 349z" />
<glyph unicode="d" horiz-adv-x="1222" d="M4 438q0 246 153.5 382t403.5 136q43 0 80 -6q39 -10 80 -18v356q0 29 -41 51q-51 29 -59 45l4 19l8 8q27 10 81 20.5t120 22.5q109 29 217 57l16 -6l10 -10l-6 -864q0 -139 2 -332t11.5 -201t48 -18t45.5 -35q0 -20 -9.5 -29.5t-44.5 -9.5l-403 -8l-2 84 q-57 -29 -115 -57q-96 -43 -205 -43q-195 0 -299 133q-96 123 -96 323zM391 565q0 -147 45 -270q61 -168 182 -168q63 0 87 53q16 37 16 115v61l2 125q0 156 -21 238q-39 153 -146 153h-1q-90 0 -133 -114q-31 -82 -31 -193z" />
<glyph unicode="e" horiz-adv-x="968" d="M10 430q0 246 145.5 389.5t391.5 143.5q147 0 254 -72q123 -84 123 -225l-4 -60l-15 -14q-29 -6 -96 -6h-53.5t-46.5 2l-344 2q27 -178 90 -264q82 -113 243 -113q45 0 92.5 18.5t96.5 38.5q29 0 33 -32q0 -12 -25 -43q-8 -10 -35 -41q-162 -180 -397 -181 q-203 0 -328 127t-125 330zM373 662l166 -5q61 0 88.5 22.5t27.5 84.5q0 57 -26.5 90t-81.5 33q-82 0 -127 -74q-33 -55 -47 -151z" />
<glyph unicode="f" horiz-adv-x="675" d="M-2 29q0 27 52 43t52 57v694l-92 6l-12 21v10q0 16 22 37q66 57 78.5 86t48.5 156q29 98 68 151q84 115 207 184.5t258 69.5q70 0 127 -26q74 -35 74 -97q0 -51 -45 -115.5t-97 -64.5q-53 0 -105 97.5t-95 97.5q-45 0 -62.5 -55.5t-17.5 -114.5v-330l121 4q23 0 52.5 -1 t37.5 -9q8 -23 8 -49q0 -37 -2 -43q-12 -12 -37 -15.5t-57 -3.5l-123 4l2 -575q0 -20 -1 -44t-1 -50q0 -31 3 -42.5t17 -25.5q14 -6 40 -10t38 -6l21 -11l8 -8l2 -14q0 -37 -41 -37h-518q-20 6 -31 29z" />
<glyph unicode="g" horiz-adv-x="1138" d="M-37 -369q0 66 72 117q55 39 135 59l-49 23q-51 25 -84 87.5t-33 121.5q0 78 73 174t150 106q-104 51 -148 119t-44 183q0 193 180 278q135 63 352 64q82 0 181 -21l79 -22l19 -7q31 0 92 8.5t92 8.5q55 0 75.5 -11.5t20.5 -62.5q0 -18 -11 -36.5t-30 -18.5q-20 0 -62 5 t-54 5l-8 2q29 -90 32.5 -108.5t3.5 -53.5q0 -207 -153 -297q-117 -69 -338 -69h-6q-31 0 -68 4q-92 10 -115 10t-36 -26.5t-13 -51.5q0 -57 51 -76q29 -10 101 -10q66 0 121 4q190 14 202 15q147 0 236 -62q102 -72 102 -215q0 -240 -252 -362q-199 -96 -467 -97 q-156 0 -251 35q-147 53 -148 178zM225 -315q0 -84 107 -131q84 -37 182 -37q104 0 174 34q94 47 94 140q0 78 -88 108q-59 20 -155 21q-119 0 -191 -19q-123 -33 -123 -116zM373 621q0 -92 24 -162q37 -103 111 -103q82 0 121 101q28 72 28 165v7q0 98 -20 157 q-33 94 -109 95q-78 0 -120 -97q-35 -78 -35 -163z" />
<glyph unicode="h" horiz-adv-x="1222" d="M-23 35q8 29 55.5 42t47.5 46v1155q0 41 -48 62.5t-52 39.5v11l8 18q6 2 216 51t216 49q10 0 14 -6t5 -97t1 -157l-2 -430q127 63 185 90q98 45 198 45q137 0 201 -82q57 -76 57 -217v-526q0 -45 50.5 -58.5t50.5 -35.5q0 -10 -9.5 -22.5t-19.5 -12.5h-487q-25 0 -41 20 v9l2 22q8 14 52 25.5t44 40.5v481q0 82 -25 131q-35 70 -108 70q-59 0 -104.5 -35t-45.5 -94v-514q0 -51 13.5 -64.5t66.5 -23.5q25 -14 25 -43l-17 -17l-14 -8h-500l-20 10z" />
<glyph unicode="i" horiz-adv-x="589" d="M4 33q0 27 31 37t59 20l10 21v567q0 31 -45 51.5t-53 36.5v8q0 23 29 33q37 8 49 12l369 137l6 -6q6 -18 10 -58t4 -99q0 -111 -4 -201q-14 -313 -14 -338q0 -39 1 -84t13 -72q6 -16 48 -25.5t42 -43.5q-4 -8 -8 -13.5t-10 -11.5l-25 -4h-481l-25 8zM111 1298 q0 70 53 119t123 49q74 0 123 -49t49 -123q0 -76 -49.5 -127t-126.5 -51q-72 0 -122 54.5t-50 127.5z" />
<glyph unicode="j" horiz-adv-x="548" d="M-94 -475q68 61 118 145t50 170v815q0 53 -35 72q-61 33 -68 39v8q0 14 13 23q39 18 104.5 39.5t124.5 40.5q84 37 133 58t64 21q20 0 20 -16v-915q0 -217 -79 -317.5t-288 -182.5q-31 -12 -66.5 -24.5t-57.5 -12.5q-33 0 -33 37zM80 1296q0 74 51 123t125 49 q76 0 125 -53t49 -129q0 -66 -54 -116t-122 -50q-74 0 -124 52.5t-50 123.5z" />
<glyph unicode="k" horiz-adv-x="1179" d="M-18 33l4 22q8 8 52 23.5t44 40.5v1151q0 57 -68 82q-33 12 -32 43l12 16q2 2 211 50t215 48l8 -2l12 -14l-2 -965q92 12 111 19q41 16 72 76l73 139q12 20 24.5 40.5t12.5 37.5l-6 16l-8 4q-39 0 -64.5 8.5t-29.5 38.5q10 33 47 33h340q29 -12 32 -31q-4 -29 -51 -39 q-127 -27 -178 -98q-20 -29 -33 -47q-25 -37 -24 -45q43 -70 86 -139q20 -33 170 -267q92 -143 110 -165q10 -12 48 -32t42 -42q-12 -35 -45 -35h-501q-45 0 -45 35q0 29 43 39t53 20q0 33 -122 203t-157 174v-358q0 -27 47 -39.5t62 -30.5v-10q0 -16 -25 -31l-10 -2h-487 q-43 0 -43 33z" />
<glyph unicode="l" horiz-adv-x="589" d="M2 1384q0 16 14 27q53 16 226.5 57t197.5 41q23 0 23 -26v-1356q0 -43 49 -55t49 -43q-16 -29 -37 -29h-485q-33 0 -33 41q0 18 31 27q68 20 67 51v1157l-2 24q-47 35 -73.5 55.5t-26.5 28.5z" />
<glyph unicode="m" horiz-adv-x="1812" d="M-41 805q2 20 25 29l190 53q4 2 117 43q75 28 112 28h3q10 -8 11 -33.5t3 -39.5l-2 -66q180 96 229 113q71 24 148 24h6q78 0 137 -35.5t84 -107.5q78 53 178 96q117 49 195 49q119 0 188.5 -67.5t69.5 -188.5v-577q0 -23 10 -39q4 -2 51 -16q31 -8 37 -37 q-2 -14 -12 -25l-23 -6h-487l-12 2q-20 12 -21 37q0 14 51 33q33 10 37 14l6 10l4 25v471q0 90 -18 135q-29 70 -107 70q-66 0 -99.5 -24.5t-33.5 -88.5v-571q0 -8 2 -15q6 -6 6 -8q10 -8 49.5 -21.5t39.5 -41.5q0 -10 -11.5 -19.5t-21.5 -9.5h-477l-31 6l-12 17l-2 12 q0 25 30 33q70 18 70 69v445q0 88 -21 139q-31 78 -106 78q-74 0 -104.5 -37t-30.5 -115v-522q0 -39 45 -49t53 -45q-6 -18 -22 -29l-15 -2h-479q-37 0 -37 35q0 25 31 33q70 16 69 77l-2 545q0 53 -50 74.5t-50 40.5z" />
<glyph unicode="n" horiz-adv-x="1222" d="M-23 801l5 18q12 8 100 33q57 14 115 31q109 37 219 73l8 -2l12 -16v-125q96 61 187 96q106 41 204 41q139 0 199 -92q49 -76 49 -223l2 -516q0 -31 49.5 -49t44.5 -43q-14 -27 -30 -27h-490l-16 2l-12 12l-7 17q0 25 45.5 38t57.5 40v481q0 115 -41 164q-33 41 -96 41 q-61 0 -103.5 -36t-42.5 -100v-501q0 -27 3 -46.5t26.5 -27.5t47.5 -17.5t24 -31.5q0 -10 -13 -29l-22 -6h-492q-6 0 -26 10l-4 15q0 31 50 47t50 45v542q0 82 -49 97.5t-54 44.5z" />
<glyph unicode="o" horiz-adv-x="1179" d="M6 455q0 254 172 387q156 121 418 121q229 0 373.5 -130.5t144.5 -359.5q0 -236 -176 -373q-162 -125 -406 -125q-229 0 -372 123q-154 131 -154 357zM385 504q0 -152 27 -262q43 -181 145 -181q111 0 150 148q22 80 22 224v13q0 145 -29 261q-45 178 -145 178 q-98 0 -141 -150q-29 -98 -29 -231z" />
<glyph unicode="p" horiz-adv-x="1222" d="M-45 -528l4 8q41 14 80 26q27 14 27 37v1155q0 47 -47.5 64.5t-53.5 34.5v8q0 16 37 31q12 4 55 16q150 49 240 77.5t106 28.5l11 -2l8 -6l-2 -32l4 -87q68 53 164 88t184 35q168 0 275 -133q98 -123 98 -297q0 -256 -151.5 -397t-409.5 -141q-49 0 -86 7t-76 17v-465 l2 -12l8 -14q12 -8 66.5 -20.5t54.5 -41.5q0 -30 -31 -30h-2h-524q-41 0 -41 34v11zM420 418q0 -145 24 -219q43 -125 158 -125q102 0 143 131q25 80 25 217q0 145 -39 242q-55 139 -178 139q-80 0 -111 -66q-22 -45 -22 -130v-7v-182z" />
<glyph unicode="q" horiz-adv-x="1222" d="M0 455q0 244 176 379q159 122 410 122h4q63 0 149 -14q199 -33 246 -33q35 0 59.5 16.5t36.5 16.5l6 -2q8 -4 8.5 -21.5t0.5 -19.5l-6 -190v-1174l2 -10q53 -20 79.5 -33.5t26.5 -32.5q0 -34 -33 -34h-2h-520q-6 4 -11 6t-9 6l-7 14q6 39 60.5 47t54.5 64v520 q-129 -70 -131 -72q-64 -28 -143 -28h-6q-207 0 -329 132t-122 341zM385 528q0 -217 74 -319q61 -86 174 -86q25 0 51.5 14.5t46.5 32.5v326q0 150 -18 227q-35 149 -137 149h-1q-96 0 -149 -129q-41 -100 -41 -215z" />
<glyph unicode="r" horiz-adv-x="800" d="M-4 33l2 18q12 12 33.5 19.5t48.5 11.5l8 8l8 19v581q0 37 -24.5 56.5t-63.5 27.5q-12 16 -12 31l4 16q2 4 45 16.5t92 26.5q125 45 201 69.5t88 24.5l8 -2l12 -8q4 -4 6.5 -46t2.5 -48l-2 -123q53 96 98 146q71 79 147 79h2q68 0 96.5 -34.5t28.5 -104.5q0 -61 -12 -104 q-20 -70 -63 -70q-29 0 -68 16q-96 41 -123 41q-57 0 -80.5 -56t-23.5 -122v-368q0 -53 13 -66.5t62 -13.5q20 0 37 -5.5t21 -21.5v-10q0 -23 -21 -35l-10 -2h-516l-18 2q-27 10 -27 31z" />
<glyph unicode="s" horiz-adv-x="843" d="M-4 92v156l8 16l27 6q10 0 71.5 -106.5t192.5 -106.5q59 0 104 25q55 31 56 86q0 74 -208 189.5t-208 289.5q0 168 139 248q113 63 291 63q115 0 182.5 -16t79.5 -47q6 -20 9 -62t3 -85q0 -8 -4 -16.5t-6 -12.5q-6 -4 -22 -4q-18 0 -73.5 86t-148.5 86q-59 0 -101 -29 t-42 -86q0 -59 115 -123q180 -100 215 -129q117 -96 117 -233q0 -170 -138 -246q-109 -59 -293 -59q-90 0 -190 16q-139 23 -168 61q-8 10 -8 33z" />
<glyph unicode="t" horiz-adv-x="630" d="M-14 860q6 31 22 43l82 53q59 39 98 67t91 73q39 39 63 61q47 45 70 45l10 -2l16 -14q4 -20 6 -47t2 -52l-4 -147l109 2l86 -2q14 -14 14 -45l-2 -49l-8 -19q-35 -8 -80 -8h-61.5t-61.5 2q0 -59 -4 -197.5t-4 -146.5v-182q0 -129 35 -154q27 -18 158 -18q27 0 26 -37 l-10 -20q-33 -39 -121 -61.5t-158 -22.5q-166 0 -226 69.5t-60 239.5q0 88 6 266t6 268h-45q-47 0 -55 35z" />
<glyph unicode="u" horiz-adv-x="1222" d="M-37 899q4 39 39 39h393q25 0 25 -29l2 -557q0 -88 22 -137q33 -72 111 -72q59 0 102 27q53 33 54 88v549q0 43 -58.5 53t-62.5 43q6 35 41 35h432q12 -18 15 -116.5t3 -188.5l-6 -479q0 -68 54.5 -78t54.5 -39v-8q-18 -29 -47 -29h-424l-6 121q-84 -68 -186.5 -104.5 t-211.5 -36.5q-145 0 -203 88q-45 70 -45 225v502q0 29 -13 45t-68 30q-16 12 -17 29z" />
<glyph unicode="v" horiz-adv-x="1011" d="M-39 901q4 27 22.5 34t93.5 9t91 2l326 -6l26 -4l8 -4l9 -27q0 -20 -44 -36.5t-53 -24.5l-2 -15q0 -10 78 -215q86 -221 96 -247q63 160 97 245q75 194 75 227q0 15 -29.5 23t-52.5 17q-10 10 -14 28q10 33 47 33h215q29 0 33 -33q-2 -23 -39 -40t-47 -40 q-145 -360 -231 -575q-94 -231 -115 -246l-21 -8h-122q-37 0 -113 201q-25 63 -47 127q-59 164 -90 243q-55 145 -103 238q-18 37 -53 56.5t-41 37.5z" />
<glyph unicode="w" horiz-adv-x="1517" d="M-51 907q10 27 28 33h457l23 -6q14 -10 14 -27q0 -23 -30.5 -34t-37.5 -23q14 -94 74 -248q49 -123 98 -244l105 238q-14 35 -37 100q-12 35 -32.5 95.5t-60.5 76t-40 41.5q0 10 5 16.5t17 12.5l15 2h477l25 -8l8 -23l-4 -18l-17 -17q-23 -4 -43 -8q-29 -10 -28 -28 l149 -461q49 129 88 241q70 199 70 222l-2 6l-8 6q-35 10 -54 16q-35 14 -34 41q0 10 14 20.5t24 10.5h213q27 0 45 -20l3 -19q0 -18 -37 -32.5t-47.5 -30t-21.5 -41t-15 -37.5l-197 -512q-23 -68 -45 -135q-43 -113 -61 -113h-119q-27 0 -39 12q-6 37 -23 80q-23 53 -30 78 q-59 152 -117 305q-63 -143 -113 -252q-96 -213 -103 -217t-31.5 -6t-31.5 -2q-14 0 -45.5 2t-48.5 2q-27 25 -135 328q-66 184 -129 368q-20 51 -39.5 97.5t-30.5 58.5q-31 10 -41 16q-25 14 -24 37z" />
<glyph unicode="x" horiz-adv-x="1011" d="M-35 33l2 12q6 10 65.5 39t76.5 45q37 39 81 94q90 117 134 170l-185 312q-29 49 -57 100q-29 37 -96 63l-17 15l-4 8v10q0 16 15.5 25.5t33.5 9.5l514 -2q45 0 45 -31q0 -33 -45 -40t-53 -17l-8 -17q6 -25 55 -98q35 -53 70 -104q41 53 84 106q65 85 65 108 q0 15 -43 25.5t-43 34.5q0 14 12.5 24.5t26.5 10.5h248q12 0 25.5 -9t13.5 -20q0 -33 -54.5 -48t-66.5 -28q-111 -141 -221 -280q92 -154 139 -232q84 -139 150 -223q10 -12 40.5 -22t41.5 -25l4 -16q0 -33 -37 -33h-531l-14 2q-10 10 -16 16.5t-6 18.5l2 12q10 14 50 22.5 t40 30.5q0 8 -60 103q-66 100 -73 114q-45 -57 -90 -112q-70 -92 -68 -113q8 -12 52 -21.5t44 -37.5q0 -14 -12 -24.5t-27 -10.5h-254l-24 2l-23 23z" />
<glyph unicode="y" horiz-adv-x="1011" d="M-39 893v10q0 18 27 33l30 4h484l22 -6q16 -16 21 -27q-4 -33 -68 -47q-31 -8 -31 -26q0 -25 80 -226q49 -125 101 -250q49 125 100 252q80 207 80 234q0 8 -47 18t-47 45q0 12 14 22.5t27 10.5h204q14 0 21 -2q29 -10 29 -29q0 -23 -15 -28q-8 -8 -29.5 -15.5 t-29.5 -11.5t-113 -246q-68 -160 -192 -467q-88 -217 -131 -319q-92 -236 -105 -256q-84 -150 -211 -150q-70 0 -120 42t-50 110q0 78 48.5 132t125.5 54q29 0 77 -15t69 -15q27 0 59.5 64.5t40.5 100.5l-260 631q-61 150 -123 301q-14 29 -46 39t-42 33z" />
<glyph unicode="z" horiz-adv-x="886" d="M-8 35l8 24l412 791h-125q-76 0 -111 -12q-55 -20 -74 -78q-8 -23 -14 -33q-14 -20 -31 -20q-23 0 -34 14l-7 20l27 170l14 23l15 2h719q39 0 38 -35q0 -12 -96 -203q-41 -82 -190 -366q-121 -231 -131 -250l153 -2q98 0 134 22.5t69 110.5q4 14 8 29q12 29 41 28 q35 0 35 -25v-5l-18 -215q-4 -25 -37 -25h-766q-16 0 -37 25z" />
<glyph unicode="{" horiz-adv-x="684" d="M86 479v123q113 0 147 137q16 66 17 230l-2 88q0 193 22 268q45 154 191 154h137v-133h-90q-55 0 -74.5 -51.5t-19.5 -116.5v-232l-2 -117q0 -88 -47 -172q-53 -94 -132 -114q113 -37 154 -170q27 -88 27 -242l-2 -178q0 -92 10 -135q20 -86 86 -86h90v-133h-137 q-96 0 -152.5 81.5t-56.5 182.5v350q0 96 -35 170q-45 96 -131 96z" />
<glyph unicode="|" horiz-adv-x="532" d="M193 -39v1548h149v-1548h-149z" />
<glyph unicode="}" horiz-adv-x="684" d="M86 -268h90q63 0 84 84q10 43 10 137l-2 176q0 156 27 242q41 133 156 168q-78 23 -129.5 112.5t-51.5 175.5v351q0 70 -14 106q-23 61 -80 62h-90v133h137q131 0 180 -131q33 -86 33 -261q0 -33 -1 -62.5t-1 -55.5q0 -162 17 -228q35 -139 147 -139v-123q-84 0 -129 -96 q-37 -78 -37 -170v-350q0 -102 -51 -178q-59 -86 -158 -86h-137v133z" />
<glyph unicode="~" horiz-adv-x="0" d="M-375 1593q0 70 69.5 141.5t137.5 71.5q63 0 227 -80q80 -39 127 -38q27 0 42.5 44t43.5 50q25 -4 35 -10.5t10 -26.5q0 -68 -69.5 -135.5t-141.5 -67.5q-53 0 -135 37q-178 80 -198 80q-31 0 -52 -33q-20 -43 -28 -59l-15 -11l-12 -2q-41 0 -41 39z" />
<glyph horiz-adv-x="1097" d="M18 268v107h371l152 274h-523v109h584l178 321l97 -55l-150 -266h324v-109h-383l-154 -274h537v-107h-594l-178 -317l-97 55l146 262h-310z" />
<glyph horiz-adv-x="1427" d="M35 524q0 111 84 191t194 80q96 0 203 -70q55 -37 172 -141q113 104 170 141q107 70 205 70q111 0 192.5 -80t81.5 -193q0 -111 -76.5 -194.5t-185.5 -83.5q-113 0 -213 65q-35 23 -174 146q-139 -123 -174 -146q-100 -66 -215 -65q-109 0 -186.5 86t-77.5 194zM137 510 q0 -72 56.5 -122t130.5 -50q82 0 165 59q33 25 136 121q-92 80 -144 113q-92 61 -168 61q-72 0 -124 -54t-52 -128zM754 518q94 -90 135 -119q84 -59 168 -59q74 0 129 48t55 122q0 72 -51 127t-125 55q-76 0 -168 -59q-47 -31 -143 -115z" />
<glyph horiz-adv-x="1224" d="M0 0l629 1352l555 -1352h-1184zM129 96h811l-383 920z" />
<glyph horiz-adv-x="989" d="M27 741l383 723h116l381 -723l-381 -741h-116zM145 741l322 -635l324 635l-324 617z" />
<glyph horiz-adv-x="1351" />
<glyph unicode="&#xa1;" horiz-adv-x="548" d="M23 1253q0 80 55 139.5t137 59.5t143.5 -54.5t61.5 -135.5q0 -76 -52.5 -140.5t-125.5 -64.5q-90 0 -154.5 54t-64.5 142zM27 152q0 96 23.5 209.5t47.5 222.5q18 125 33 213q31 168 62 182l30 6q25 0 39 -31q8 -18 17 -53q39 -205 77 -409q23 -100 33 -150 q20 -96 21 -154q0 -92 -57.5 -145t-149.5 -53q-70 0 -123 47t-53 115z" />
<glyph unicode="&#xa2;" horiz-adv-x="968" d="M12 453q0 219 148 354q135 125 360 147l-4 68q0 35 9.5 58.5t35.5 23.5q25 0 31 -21.5t6 -56.5l-2 -68l18 3q121 0 209 -35q123 -49 123 -152q0 -53 -41 -92t-94 -39q-80 0 -127 90q-59 115 -88 133l2 -639q59 -27 131 -26q39 0 89 23.5t102 49.5q30 1 30 -24 q0 -72 -141 -166q-129 -86 -213 -100v-56l-6 -73l-12 -15l-19 -4q-23 0 -33 21l-6 118l-43 -2q-217 0 -341 130t-124 350zM379 614q0 -102 35 -189t106 -149v35l-2 568q-70 -14 -108 -105q-31 -72 -31 -160z" />
<glyph unicode="&#xa3;" horiz-adv-x="1097" d="M-8 61q0 98 114 158q59 31 199 64q4 30 8 61q0 51 -41 184q-16 51 -34 107l-99 -6q-37 0 -70.5 8t-33.5 37q0 25 28.5 33t65.5 8l86 -4q-16 51 -24.5 98t-8.5 102q0 201 156 316q141 104 348 104q92 0 168 -33q98 -43 98 -124q0 -45 -37.5 -77t-87.5 -32q-39 0 -108 127 q-33 61 -76 61q-55 0 -76.5 -47t-21.5 -110q0 -55 24 -240q12 -92 13 -145h301q43 0 43 -35q0 -25 -27 -39q-25 -6 -54.5 -8t-66.5 -2l-196 6v-15q0 -92 -38 -172.5t-110 -154.5q41 6 78 6h27q55 0 135 -14q180 -33 227 -33q49 0 64 24q12 45 24 93q20 8 35 8q14 0 29 -15 l6 -16q0 -113 -98 -231q-104 -127 -216 -127q-80 0 -172 39q-244 102 -276 106q-82 -66 -111 -86q-72 -47 -129 -47q-25 0 -45 18.5t-20 44.5z" />
<glyph unicode="&#xa7;" horiz-adv-x="759" d="M70 768q0 190 94 348q88 147 252 262q66 43 91 54.5t58 11.5q45 0 73 -21.5t28 -64.5q0 -29 -25 -55.5t-53 -26.5q-18 0 -53 16.5t-54 16.5q-29 0 -46 -38t-17 -69q0 -127 63 -291q57 -139 120 -292.5t63 -276.5q0 -113 -50 -225q-39 -90 -122 -199q-66 -84 -123 -135 q-86 -76 -158 -76q-49 0 -80 31t-31 80q0 29 25 53.5t51 24.5q20 0 74 -31q29 -16 49 -17q27 0 39 29t12 60q0 113 -69.5 257t-137.5 279q-74 166 -73 295zM205 813q0 -127 67 -289q180 -426 187 -469q31 43 50 117t19 137q0 115 -55 259.5t-108 279.5q-59 168 -60 301 q-49 -92 -72 -162q-29 -86 -28 -174z" />
<glyph unicode="&#xa8;" horiz-adv-x="0" d="M-352 1233q0 51 37 88t88 37q61 0 96 -37t35 -98q0 -49 -39 -84t-88 -35q-55 0 -92 37t-37 92zM47 1233q0 49 36 87t85 38q63 0 98 -37t35 -102q0 -47 -39 -80t-86 -33q-55 0 -92 35t-37 92z" />
<glyph unicode="&#xa9;" horiz-adv-x="1581" d="M82 649q0 281 198.5 479.5t479.5 198.5t479.5 -198.5t198.5 -479.5q0 -283 -198 -480.5t-480 -197.5q-281 0 -479.5 199t-198.5 479zM160 649q0 -248 176 -424t424 -176t424 176t176 424t-176 424t-424 176t-424 -176t-176 -424zM391 633q0 162 104.5 276.5t262.5 114.5 q39 0 108.5 -19.5t100.5 -19.5q39 0 47 33h37l8 -252h-39q-16 90 -81 148.5t-155 58.5q-123 0 -198 -111q-68 -98 -68 -227q0 -137 66.5 -223t199.5 -86q84 0 131.5 21.5t124.5 84.5l23 -35q-68 -72 -136.5 -107.5t-156.5 -35.5q-170 0 -274.5 104.5t-104.5 274.5z" />
<glyph unicode="&#xab;" horiz-adv-x="800" d="M10 498l4 12q16 10 29.5 22.5t54.5 55.5q66 72 131 145q98 104 138 121h8q33 0 33 -33q0 -27 -80 -155q-54 -82 -107 -164q66 -98 109 -166q86 -135 86 -158q0 -37 -33 -37q-23 0 -198 169t-175 188zM348 500q14 29 181 191.5t182 162.5q29 0 37 -37q-14 -55 -82 -158 q-54 -79 -107 -157q53 -84 109 -166q86 -135 86 -160q0 -20 -19 -31l-16 -4q-27 8 -182 156q-141 135 -185 186z" />
<glyph unicode="&#xac;" horiz-adv-x="1427" d="M14 459v106h1309v-565h-109v459h-1200z" />
<glyph unicode="&#xad;" horiz-adv-x="759" d="M41 446q0 12 20.5 56.5t30.5 58.5l6 4l19 2h534l19 -2q6 -2 14 -14q-16 -51 -25 -70q-18 -47 -38 -57h-562q-16 8 -18 22z" />
<glyph unicode="&#xae;" horiz-adv-x="1581" d="M80 639q0 281 198.5 479.5t479.5 198.5t479.5 -198.5t198.5 -479.5t-198.5 -479.5t-479.5 -198.5t-479.5 198.5t-198.5 479.5zM158 637q0 -250 176 -424t424 -174t424 176t176 424t-176 424t-426 176t-424 -176t-174 -426zM434 297v35q37 0 60 8q37 14 36 43v567 q0 35 -11 46.5t-38 11.5h-37v36h336q109 0 178 -36q90 -47 91 -148q0 -84 -58.5 -140t-142.5 -56l235 -304q25 -29 72 -28v-35h-186l-262 348h-52v-256q0 -33 27 -45t66 -12v-35h-314zM653 963l2 -273q106 0 168 25q92 37 92 129q0 84 -35.5 115.5t-121.5 39.5l-64 5 q-16 0 -28.5 -12.5t-12.5 -28.5z" />
<glyph unicode="&#xb0;" horiz-adv-x="548" d="M-131 1051q0 123 86 209t209 86q121 0 208 -87.5t87 -207.5q0 -121 -86 -207t-209 -86q-121 0 -208 85t-87 208zM-53 1051q0 -88 63.5 -151.5t153.5 -63.5t153.5 61t63.5 154q0 88 -65.5 151.5t-153.5 63.5q-90 0 -152.5 -62.5t-62.5 -152.5z" />
<glyph unicode="&#xb1;" horiz-adv-x="1097" d="M10 0v109h1039v-109h-1039zM10 694v109h465v465h109v-465h465v-109h-465v-467h-109v467h-465z" />
<glyph unicode="&#xb4;" horiz-adv-x="0" d="M-113 1051q6 43 29 95t43 101l57 133q16 41 33 84q27 47 70 47q29 0 49 -17t20 -46q0 -37 -36 -94q-18 -27 -35 -51l-152 -252q-20 -33 -49 -33q-18 0 -29 33z" />
<glyph unicode="&#xb5;" horiz-adv-x="1153" d="M53 -299q0 53 17 119q39 158 39 198v965h167v-653q0 -98 46.5 -162t140.5 -64q61 0 127.5 46.5t93.5 103.5v729h168v-756q0 -59 22 -104q31 -59 84 -60q55 0 76 46q16 63 29 92l39 -2q-23 -102 -76 -162q-63 -70 -164 -70q-86 0 -127 58q-29 39 -47 137 q-59 -84 -133 -135q-88 -59 -178 -60q-49 0 -86 17q-8 4 -113 79v-45q0 -55 32 -160.5t32 -154.5q0 -51 -22.5 -96t-69.5 -45t-72 44t-25 95z" />
<glyph unicode="&#xb6;" horiz-adv-x="1366" d="M180 1038q0 197 126 302.5t327 105.5h471v-111h-70v-1677h-119v1677h-294v-1677h-119v995q-152 25 -237 128.5t-85 256.5z" />
<glyph unicode="&#xb7;" horiz-adv-x="344" d="M31 590q0 70 47 119t117 49q61 0 107 -50.5t46 -113.5q0 -66 -47 -113t-115 -47q-63 0 -109 46t-46 110z" />
<glyph unicode="&#xb8;" horiz-adv-x="0" d="M-197 -307q0 25 19.5 46t44.5 21q49 0 66.5 -62.5t70.5 -62.5q35 0 61.5 29t26.5 66q0 70 -49 86q-66 23 -70 28q35 59 52 90q30 56 63 109l62 -4l-56 -96q102 -31 139 -72q31 -35 31 -90q0 -106 -70.5 -159.5t-179.5 -53.5q-76 0 -133 24q-78 35 -78 101z" />
<glyph unicode="&#xbb;" horiz-adv-x="800" d="M8 821q0 33 35 33q16 0 127 -104q90 -84 131 -129q8 -4 59.5 -57.5t51.5 -61.5q-2 -16 -158 -170t-162 -168q-25 -20 -45 -23q-25 0 -35 35q0 23 82 154q54 82 107 166q-59 102 -88 153q-53 94 -101 148zM346 815q0 39 33 39q25 0 198 -165t173 -187l-9 -23 q-6 -8 -28.5 -30.5l-30.5 -30.5q-109 -115 -194 -196t-99 -81q-35 0 -39 33q0 31 115 205q39 58 78 115l-191 297z" />
<glyph unicode="&#xbf;" horiz-adv-x="843" d="M-29 319q0 131 86 242q37 47 191 182q33 27 47 39q31 25 47 48.5t22.5 65.5t11.5 63.5t42 21.5q45 0 61 -100q8 -51 8 -136l2 -40q0 -78 -135 -304q-63 -106 -63 -198q0 -49 27.5 -88t76.5 -39q76 0 92.5 121.5t112.5 121.5q51 0 86 -27.5t35 -78.5q0 -113 -131 -174 q-106 -49 -232 -49q-166 0 -270 80q-117 90 -117 249zM211 1249q0 82 56.5 142.5t140.5 60.5q82 0 142 -56.5t60 -138.5q0 -84 -56 -142t-140 -58q-80 0 -141.5 55t-61.5 137z" />
<glyph unicode="&#xc0;" d="M-49 35q0 20 51 43q33 14 44 31.5t28 58.5q10 27 14 39l332 883q35 90 69 180q55 137 78 168q12 6 36 9t48 3l80 -2q18 0 27.5 -11.5t17.5 -31.5l449 -1284q8 -23 28.5 -34t49.5 -15l14 -11q10 -12 10 -28q0 -8 -7 -15.5t-17 -15.5l-13 -2h-581q-45 0 -45 39 q0 31 65.5 42t71.5 21l2 11q0 25 -62 215q-20 59 -41 121h-397q-57 -139 -88 -225.5t-31 -106.5q0 -25 69 -35t69 -51l-5 -15q-16 -16 -30 -16h-299q-12 0 -24.5 10t-12.5 25zM297 1788q0 20 21.5 39.5t43.5 19.5q35 0 68 -24q117 -72 197 -125q162 -106 168 -123l2 -12 l-2 -11q-14 -23 -35 -22l-23 4q-18 12 -50 26.5t-60 26.5q-137 59 -275 121q-25 12 -40 31.5t-15 48.5zM346 571h316l-146 457z" />
<glyph unicode="&#xc1;" d="M-49 35q0 20 51 43q33 14 44 31.5t28 58.5q10 27 14 39l332 883q35 90 69 180q55 137 78 168q12 6 36 9t48 3l80 -2q18 0 27.5 -11.5t17.5 -31.5l449 -1284q8 -23 28.5 -34t49.5 -15l14 -11q10 -12 10 -28q0 -8 -7 -15.5t-17 -15.5l-13 -2h-581q-45 0 -45 39 q0 31 65.5 42t71.5 21l2 11q0 25 -62 215q-20 59 -41 121h-397q-57 -139 -88 -225.5t-31 -106.5q0 -25 69 -35t69 -51l-5 -15q-16 -16 -30 -16h-299q-12 0 -24.5 10t-12.5 25zM346 571h316l-146 457zM379 1550v13q6 25 178 144.5t215 135.5l31 4q31 0 51 -18.5t20 -48.5 q0 -20 -16 -41t-37 -31q-139 -66 -276 -129q-115 -51 -129 -51q-23 0 -37 22z" />
<glyph unicode="&#xc2;" d="M-51 35q0 20 51 43q33 14 44 31.5t28 58.5q10 27 14 39l332 883q35 90 69 180q55 137 78 168q12 6 36 9t48 3l80 -2q18 0 27.5 -11.5t17.5 -31.5l449 -1284q8 -23 28.5 -34t48.5 -15l15 -11q10 -12 10 -28q0 -8 -7 -15.5t-18 -15.5l-12 -2h-581q-45 0 -45 39 q0 31 65.5 42t71.5 21l2 11q0 25 -62 215q-20 59 -41 121h-397q-57 -139 -88 -225.5t-31 -106.5q0 -25 68.5 -35t68.5 -51l-4 -15q-16 -16 -30 -16h-299q-12 0 -24.5 10t-12.5 25zM260 1556q0 6 3 15.5t9 21.5q51 59 156 154q131 119 164 119q18 0 49 -27q35 -35 45 -43 q82 -66 133 -113q100 -90 101 -122q0 -35 -46 -35q-23 0 -184 96q-53 31 -104 64q-92 -59 -142 -91q-92 -57 -145 -71q-39 8 -39 32zM344 571h315l-145 457z" />
<glyph unicode="&#xc3;" d="M-51 35q0 20 51 43q33 14 44 31.5t28 58.5q10 27 14 39l332 883q35 90 69 180q55 137 78 168q12 6 36 9t48 3l80 -2q18 0 27.5 -11.5t17.5 -31.5l449 -1284q8 -23 28.5 -34t48.5 -15l15 -11q10 -12 10 -28q0 -8 -7 -15.5t-18 -15.5l-12 -2h-581q-45 0 -45 39 q0 31 65.5 42t71.5 21l2 11q0 25 -62 215q-20 59 -41 121h-397q-57 -139 -88 -225.5t-31 -106.5q0 -25 68.5 -35t68.5 -51l-4 -15q-16 -16 -30 -16h-299q-12 0 -24.5 10t-12.5 25zM233 1593q0 66 69.5 139.5t137.5 73.5q59 0 142 -37q180 -82 215 -81q27 0 44 45t42 49 q16 -2 29.5 -8.5t13.5 -28.5q0 -70 -69 -136.5t-140 -66.5q-51 0 -133 37q-178 80 -203 80q-20 0 -45 -21q-8 -12 -17.5 -35.5t-15.5 -35.5q-25 -12 -29 -13q-16 0 -28.5 10.5t-12.5 28.5zM344 571h315l-145 457z" />
<glyph unicode="&#xc4;" d="M-47 35q0 20 51 43q33 14 44 31.5t28 58.5q10 27 14 39l332 883l70 180q54 137 77 168q12 6 36 9t48 3l80 -2q18 0 27.5 -11.5t17.5 -31.5l449 -1284q8 -23 28.5 -34t49.5 -15l14 -11q10 -12 10 -28q0 -8 -7 -15.5t-17 -15.5l-13 -2h-581q-45 0 -45 39q0 31 65.5 42 t71.5 21l2 11q0 25 -62 215q-20 59 -41 121h-397q-57 -139 -88 -225.5t-31 -106.5q0 -25 69 -35t69 -51l-5 -15q-16 -16 -30 -16h-299q-12 0 -24.5 10t-12.5 25zM326 1677q0 55 39 92t96 37q49 0 84 -38.5t35 -90.5q0 -51 -36 -87t-87 -36t-91 36t-40 87zM348 571h316 l-146 457zM750 1677q0 55 37 92t92 37q51 0 88 -36.5t37 -88.5q0 -53 -38 -91t-94 -38q-49 0 -85.5 37t-36.5 88z" />
<glyph unicode="&#xc5;" d="M-49 33q0 20 51 43q33 14 44 31.5t28 58.5q10 27 14 39l332 882q35 90 69 181q55 137 78 168q12 6 36 9t48 3l80 -2q18 0 27.5 -11.5t17.5 -31.5l449 -1284q8 -23 28.5 -34t49.5 -15l14 -11q10 -12 10 -28q0 -8 -7 -15.5t-17 -15.5l-13 -2h-581q-45 0 -45 39 q0 31 65.5 42t71.5 21l2 11q0 25 -62 215q-20 59 -41 120h-397q-57 -139 -88 -225t-31 -106q0 -25 69 -35t69 -51l-5 -15q-16 -16 -30 -16h-299q-12 0 -24.5 10t-12.5 25zM346 569h316l-146 457zM475 1681q0 72 57.5 125.5t131.5 53.5q70 0 126 -52.5t56 -119.5 q0 -86 -52.5 -142.5t-138.5 -56.5q-76 0 -128 58t-52 134zM563 1671q0 -43 30 -70.5t71 -27.5q39 0 67.5 28.5t28.5 69.5t-29 69.5t-72 28.5q-41 0 -68.5 -27.5t-27.5 -70.5z" />
<glyph unicode="&#xc6;" horiz-adv-x="2066" d="M-76 31q0 31 51.5 49t71.5 59q57 113 146 293q74 154 143 299l270 555l10 23l2 20q0 14 -64.5 26.5t-64.5 47.5q0 23 19.5 30t44.5 7l1178 14l61 -6l14 -18l4 -19v-309q0 -45 -43 -45q-31 0 -40 47t-15 88q-18 115 -94 147q-47 20 -182 21q-43 0 -129 -2t-129 -2l36 -533 l80 -2q90 0 137.5 13.5t55.5 39.5q2 74 8 132.5t55 66.5q35 -10 35 -45v-506l-4 -18q-16 -27 -39 -27q-27 0 -37 32t-10 77v39q0 70 -30.5 85t-110.5 15h-131l24 -510q0 -78 2 -86q10 -43 109 -43h65h29h27q74 0 103.5 3t78.5 13q133 31 185 183.5t81 152.5q37 0 37 -37v-8 l-35 -338q-2 -20 -7 -32.5t-19 -20.5l-31 -2h-1104l-37 2q-31 16 -31 33q0 39 72 47t72 63q0 96 -10 217q-25 291 -25 363h-354q-109 -229 -217 -457q-10 -20 -37 -77.5t-29 -69.5l6 -19l8 -6l101 -24l14 -13l8 -18q-2 -25 -28 -39l-25 -2h-281q-25 0 -38 9t-13 22zM504 825 h299l-31 533h-16z" />
<glyph unicode="&#xc7;" horiz-adv-x="1308" d="M0 682q0 371 211 577.5t582 206.5q94 0 241 -28q186 -37 207 -86q6 -20 9 -64.5t3 -87.5v-96q0 -41 -4 -60.5t-35 -19.5q-20 0 -93.5 174t-246.5 174q-225 0 -339 -221q-90 -174 -91 -424q0 -244 80 -420q106 -233 320 -233q154 0 235 123q68 135 135 270q37 0 37 -35 v-61v-29v-27v-22q0 -41 -2 -79t-8 -63.5t-27 -44.5q-10 -8 -51 -28q-113 -57 -220 -82t-238 -25l-17 -26q102 -31 139 -72q31 -35 31 -92q0 -106 -70.5 -159.5t-179.5 -53.5q-82 0 -135 24q-76 35 -76 107q0 20 20.5 40.5t43.5 20.5q49 0 66.5 -62.5t70.5 -62.5 q37 0 63.5 29t26.5 68q0 66 -52 83t-61 21l-6 8q0 10 33 66q25 41 39 63q-299 0 -470 198t-171 511z" />
<glyph unicode="&#xc8;" horiz-adv-x="1308" d="M-29 41q0 27 61.5 37t61.5 88v1126q0 53 -61.5 67.5t-61.5 43.5q0 20 16.5 28.5t61.5 8.5l1043 10q45 0 45 -41v-330q-16 -25 -41 -24q-29 0 -39 41t-17 78q-31 115 -71.5 147.5t-157.5 32.5h-307l2 -531l104 -4q63 0 95 6q59 12 75 47q6 12 11.5 103.5t50.5 99.5 q23 -6 37 -20l2 -8v-535q0 -12 -14.5 -24.5t-28.5 -12.5q-41 0 -47.5 116t-41 123t-77.5 9t-66 2h-102v-596q0 -25 16.5 -34t42.5 -9h170q121 0 187 18q100 29 141 111q35 106 62.5 165.5t52.5 59.5l28 -12l6 -22l-34 -351q-4 -39 -18.5 -48t-57.5 -9q-111 0 -332 -2 t-332 -2h-90h-51q-164 0 -228.5 4t-82.5 12q-12 16 -13 31zM281 1778q0 27 19 48t48 21q33 0 68 -20q96 -61 194 -123q148 -98 168 -129l2 -12v-11q-16 -23 -37 -22l-24 4q-197 82 -317.5 137t-120.5 107z" />
<glyph unicode="&#xc9;" horiz-adv-x="1308" d="M-29 41q0 27 61.5 37t61.5 88v1126q0 53 -61.5 67.5t-61.5 43.5q0 20 16.5 28.5t61.5 8.5l1043 10q45 0 45 -41v-330q-16 -25 -41 -24q-29 0 -39 41t-17 78q-31 115 -71.5 147.5t-157.5 32.5h-307l2 -531l104 -4q63 0 95 6q59 12 75 47q6 12 11.5 103.5t50.5 99.5 q23 -6 37 -20l2 -8v-535q0 -12 -14.5 -24.5t-28.5 -12.5q-41 0 -47.5 116t-41 123t-77.5 9t-66 2h-102v-596q0 -25 16.5 -34t42.5 -9h170q121 0 187 18q100 29 141 111q35 106 62.5 165.5t52.5 59.5l28 -12l6 -22l-34 -351q-4 -39 -18.5 -48t-57.5 -9q-111 0 -332 -2 t-332 -2h-90h-51q-164 0 -228.5 4t-82.5 12q-12 16 -13 31zM362 1563l13 26q4 6 187.5 128t195.5 126l26 4q31 0 53.5 -18.5t22.5 -48.5q0 -23 -15.5 -41.5t-37.5 -30.5q-92 -45 -211 -100q-174 -80 -197 -80t-34 22z" />
<glyph unicode="&#xca;" horiz-adv-x="1308" d="M-27 43q0 27 61.5 37t61.5 88v1126q0 53 -61.5 67.5t-61.5 43.5q0 20 16.5 28.5t61.5 8.5l1043 10q45 0 45 -41v-330q-16 -25 -41 -24q-29 0 -39 41t-17 78q-31 115 -71.5 147.5t-157.5 32.5h-307l2 -531l104 -4q63 0 95 6q59 12 75 47q6 12 11.5 103.5t50.5 99.5 q23 -6 37 -20l2 -8v-535q0 -12 -14.5 -24.5t-28.5 -12.5q-41 0 -47.5 116t-41 123t-77.5 9t-66 2h-102v-596q0 -25 16.5 -34t42.5 -9h170q121 0 187 18q100 29 141 111q35 106 62.5 165.5t52.5 59.5l28 -12l6 -22l-34 -351q-4 -39 -18.5 -48t-57.5 -9q-111 0 -332 -2 t-332 -2h-90h-51q-164 0 -228.5 4t-82.5 12q-12 16 -13 31zM244 1556q0 29 112 134q74 66 148 131q25 23 33 28q20 17 38 17q20 0 52 -27q20 -23 43 -43q80 -66 133 -113q102 -90 102 -120q0 -20 -12 -28.5t-31 -8.5q-29 0 -186 96q-53 33 -105 66q-90 -59 -143 -93 q-104 -66 -145 -73q-27 8 -33 14t-6 20z" />
<glyph unicode="&#xcb;" horiz-adv-x="1308" d="M-29 41q0 27 61.5 37t61.5 88v1126q0 53 -61.5 67.5t-61.5 43.5q0 20 16.5 28.5t61.5 8.5l1043 10q45 0 45 -41v-330q-16 -25 -41 -24q-29 0 -39 41t-17 78q-31 115 -71.5 147.5t-157.5 32.5h-307l2 -531l104 -4q63 0 95 6q59 12 75 47q6 12 11.5 103.5t50.5 99.5 q23 -6 37 -20l2 -8v-535q0 -12 -14.5 -24.5t-28.5 -12.5q-41 0 -47.5 116t-41 123t-77.5 9t-66 2h-102v-596q0 -25 16.5 -34t42.5 -9h170q121 0 187 18q100 29 141 111q35 106 62.5 165.5t52.5 59.5l28 -12l6 -22l-34 -351q-4 -39 -18.5 -48t-57.5 -9q-111 0 -332 -2 t-332 -2h-90h-51q-164 0 -228.5 4t-82.5 12q-12 16 -13 31zM231 1679q0 51 39 86t90 35q57 0 91 -38t34 -97q0 -47 -38.5 -82t-88.5 -35q-53 0 -90 39t-37 92zM655 1681q0 49 35 86t86 37q57 0 95 -35.5t38 -91.5q0 -49 -35.5 -89t-85.5 -40q-57 0 -95 38t-38 95z" />
<glyph unicode="&#xcc;" horiz-adv-x="675" d="M-12 1788q0 23 20.5 41t42.5 18q33 0 68 -22l348 -230q18 -9 18 -32q0 -14 -11 -23.5t-30 -9.5l-16 4q-20 14 -57 29.5t-56 21.5l-272 123q-25 12 -40 32.5t-15 47.5zM-10 27v12l2 10l18 21l70 16q37 12 37 88v1106q0 70 -63.5 80t-63.5 41q0 16 14 28.5t33 12.5h541 q33 0 52 -6t19 -31v-8q-10 -31 -68.5 -42.5t-58.5 -64.5v-1153q0 -47 63.5 -59t63.5 -43q0 -14 -26 -33l-13 -2h-575q-29 0 -45 27z" />
<glyph unicode="&#xcd;" horiz-adv-x="675" d="M-14 27v12l2 10l18 21l70 16q37 12 37 88v1106q0 70 -63.5 80t-63.5 41q0 16 14 28.5t33 12.5h540q33 0 52.5 -6t19.5 -31v-8q-10 -31 -68.5 -42.5t-58.5 -64.5v-1153q0 -47 63.5 -59t63.5 -43q0 -14 -27 -33l-12 -2h-575q-29 0 -45 27zM66 1563l2 12q14 18 186 135 t205 133l33 4q29 0 49 -18.5t20 -48.5q0 -25 -13 -41.5t-40 -30.5q-102 -51 -203 -102q-145 -70 -203 -78q-23 4 -34 22z" />
<glyph unicode="&#xce;" horiz-adv-x="675" d="M-31 1559q0 14 4 20l45 49q84 84 138 133q112 105 143 105q18 0 49 -27q35 -35 45 -43q80 -66 133 -113q102 -90 103 -120q0 -37 -47 -37q-20 0 -140 69q-76 45 -149 91q-94 -59 -139 -89q-82 -51 -146 -73q-39 8 -39 35zM8 27v12l2 10l19 21q35 8 69 16q37 12 37 88 v1106q0 70 -63.5 80t-63.5 41q0 16 14.5 28.5t32.5 12.5h541q33 0 52.5 -6t19.5 -31v-8q-10 -31 -68.5 -42.5t-58.5 -64.5v-1153q0 -47 63.5 -59t63.5 -43q0 -14 -27 -33l-12 -2h-576q-29 0 -45 27z" />
<glyph unicode="&#xcf;" horiz-adv-x="675" d="M-47 1677q0 53 37 88t92 35q57 0 92 -39t35 -96q0 -47 -41 -82t-88 -35q-53 0 -90 39t-37 90zM6 27v12l2 10l19 21q35 8 69 16q37 12 37 88v1106q0 70 -63.5 80t-63.5 41q0 16 14.5 28.5t32.5 12.5h541q33 0 52.5 -6t19.5 -31v-8q-10 -31 -68.5 -42.5t-58.5 -64.5v-1153 q0 -47 63.5 -59t63.5 -43q0 -14 -27 -33l-12 -2h-576q-29 0 -45 27zM377 1673q0 53 35 92t90 39q59 0 94 -36.5t35 -96.5q0 -45 -37 -84t-82 -39q-53 0 -94 36t-41 89z" />
<glyph unicode="&#xd1;" d="M-51 1405q0 18 26 33l19 4h393q20 0 29.5 -6t25.5 -23q47 -55 113 -149q59 -86 66 -95q70 -94 104 -139q90 -121 174 -239q57 -84 84 -125q55 -82 92 -121l2 227v518q0 49 -30 62l-7 -2q-18 0 -39.5 6t-42.5 12q-31 18 -30 39l4 16q8 8 23.5 13.5t39.5 5.5h246 q23 0 29 -2q31 -10 30 -39q0 -18 -24 -31q-31 -10 -48.5 -17t-28.5 -25.5t-11 -41.5q2 -37 2 -57q0 -63 -5 -324.5t-12.5 -574t-12.5 -321.5t-21 -9h-140l-18 12q-51 47 -152 189q-61 88 -79 114l-330 476q-123 180 -127 184q-35 47 -88 104q0 -156 -4 -509t-4 -373 q0 -88 26 -103q57 -8 109 -24q10 -2 14 -15.5t2 -25.5q0 -10 -14.5 -19.5t-34.5 -9.5h-293q-23 0 -41 12l-10 15v12l6 16q14 14 57 21.5t53.5 29t16.5 265t9 434t3 375.5q0 76 -47 127q-53 49 -104 98zM236 1593q0 66 69 139.5t137 73.5q59 0 142 -37q180 -82 215 -81 q27 0 44 45t42 49q16 -2 29.5 -8.5t13.5 -28.5q0 -70 -68.5 -136.5t-140.5 -66.5q-51 0 -133 37q-178 80 -203 80q-20 0 -45 -21q-8 -12 -17.5 -35.5t-15.5 -35.5q-25 -12 -29 -13q-16 0 -28 10.5t-12 28.5z" />
<glyph unicode="&#xd2;" horiz-adv-x="1601" d="M-12 674q0 365 213 582t575 217q348 0 545 -209t197 -559q0 -43 -10.5 -97.5t-21.5 -97.5t-30 -86q-90 -219 -293 -340q-193 -115 -438 -115q-313 0 -522 193q-215 199 -215 512zM418 1788q0 23 20.5 41t42.5 18q35 0 70 -22l346 -230q18 -9 18 -32q0 -14 -11 -23.5 t-30 -9.5l-18 2q-205 84 -321.5 137t-116.5 119zM438 678q0 -201 60 -375q82 -242 243 -242q182 0 271 254q61 178 61 408q0 242 -49 405q-78 258 -260 258t-268 -278q-58 -188 -58 -430z" />
<glyph unicode="&#xd3;" horiz-adv-x="1601" d="M-12 674q0 365 213 582t575 217q348 0 545 -209t197 -559q0 -43 -10.5 -97.5t-21.5 -97.5t-30 -86q-90 -219 -293 -340q-193 -115 -438 -115q-313 0 -522 193q-215 199 -215 512zM438 678q0 -201 60 -375q82 -242 243 -242q182 0 271 254q61 178 61 408q0 242 -49 405 q-78 258 -260 258t-268 -278q-58 -188 -58 -430zM500 1561l2 12q4 14 182 136t209 134l31 4q29 0 50 -19.5t21 -47.5q0 -20 -15 -40t-38 -32q-55 -31 -209 -100q-174 -80 -201 -80q-18 0 -30 22z" />
<glyph unicode="&#xd4;" horiz-adv-x="1601" d="M-12 676q0 365 213 582t575 217q348 0 545 -209t197 -559q0 -43 -10.5 -97.5t-21.5 -97.5t-30 -86q-90 -219 -293 -340q-193 -115 -438 -115q-313 0 -522 193q-215 199 -215 512zM379 1559q6 31 115 131q72 66 145 131q33 31 41 34q17 11 33 11q18 0 49 -27 q20 -23 43 -43q80 -66 133 -113q102 -90 102 -120q0 -37 -43 -37q-16 0 -94 43q-57 33 -196 117q-43 -27 -105 -66q-123 -80 -184 -96q-31 10 -39 35zM438 680q0 -201 60 -375q82 -242 243 -242q182 0 271 254q61 178 61 408q0 242 -49 405q-78 258 -260 259 q-182 0 -268 -279q-58 -188 -58 -430z" />
<glyph unicode="&#xd5;" horiz-adv-x="1601" d="M-14 674q0 365 213 582t575 217q348 0 545 -209t197 -559q0 -43 -10.5 -97.5t-21.5 -97.5t-30 -86q-90 -219 -293 -340q-193 -115 -438 -115q-313 0 -522 193q-215 199 -215 512zM354 1593q23 88 70 144q59 69 137 69q68 0 186.5 -59t167.5 -59q27 0 43.5 45t45.5 51 q14 -6 28 -10q12 -8 17 -29q-12 -76 -74 -139.5t-135 -63.5q-55 0 -138 37q-178 80 -202 80q-33 0 -47.5 -30t-24.5 -56l-20 -17l-13 -4q-33 4 -41 41zM436 678q0 -201 60 -375q82 -242 243 -242q182 0 271 254q61 178 61 408q0 242 -49 405q-78 258 -260 258t-268 -278 q-58 -188 -58 -430z" />
<glyph unicode="&#xd6;" horiz-adv-x="1601" d="M-8 684q0 360 215 573t577 213q344 0 543 -210q193 -205 193 -553q0 -25 -3.5 -51.5t-11.5 -69.5q-66 -301 -268.5 -458t-513.5 -157q-317 0 -524 199t-207 514zM418 1683q0 55 37 90t92 35q53 0 89 -37.5t36 -91.5q0 -55 -37 -90t-92 -35q-51 0 -88 39t-37 90zM440 750 q0 -242 52 -418q80 -271 258 -271q174 0 262 261q63 186 63 405q0 240 -49 403q-78 256 -260 256q-164 0 -256 -247q-70 -186 -70 -389zM840 1686q0 49 37 85.5t88 36.5q53 0 92 -36.5t39 -90.5q0 -47 -36 -87t-81 -40q-61 0 -100 35t-39 97z" />
<glyph unicode="&#xd8;" horiz-adv-x="1601" d="M-12 686q0 358 214 570t574 212q106 0 216 -22.5t184 -69.5q6 8 38 54q28 35 46 51l14 2q20 0 37 -17l8 -20q-4 -31 -39 -76q-16 -20 -33 -41q141 -145 199 -266q68 -141 67 -326q0 -342 -218 -554t-560 -212q-125 0 -209 18.5t-192 76.5q-47 -72 -60 -84 q-27 -29 -49 -31q-39 6 -39 39q0 14 19.5 46t58.5 77q-123 70 -199.5 243.5t-76.5 329.5zM422 715q0 -80 10 -165t27 -167l563 778q-41 100 -88 154q-66 72 -158 71q-197 0 -289 -251q-66 -178 -65 -420zM487 281q41 -102 97 -156q70 -66 168 -66q180 0 268 265 q61 186 61 415q0 174 -30 318z" />
<glyph unicode="&#xd9;" horiz-adv-x="1390" d="M-55 1407q0 12 16 24.5t29 12.5l592 -2q36 0 36 -43q0 -27 -70.5 -39t-70.5 -60v-479q0 -272 47 -415q78 -238 293 -238q197 0 270 219q45 135 46 408v106q0 66 4 221.5t4 165.5q0 59 -72 69.5t-72 49.5q0 37 43 37l162 2q39 0 91.5 -1t67.5 -9.5t15 -28.5q0 -27 -35 -41 q-43 -12 -57 -16q-10 -12 -17 -66.5t-7 -136.5v-23l-13 -247q0 -270 -26 -418q-41 -227 -154 -344q-137 -141 -395 -142q-166 0 -275 39q-133 47 -221 166q-45 59 -71.5 180t-26.5 318q0 104 -14.5 313t-14.5 311q0 47 -52 61.5t-52 45.5zM319 1788q0 18 20.5 38.5 t39.5 20.5q37 0 74 -22q100 -61 200 -123q150 -96 164 -139l-8 -21q-12 -12 -33 -12q-16 0 -192 80q-147 68 -206 96.5t-59 81.5z" />
<glyph unicode="&#xda;" horiz-adv-x="1390" d="M-57 1407q0 12 16 24.5t29 12.5l592 -2q36 0 36 -43q0 -27 -70.5 -39t-70.5 -60v-479q0 -272 47 -415q78 -238 293 -238q197 0 270 219q45 135 45 408v106q0 66 4.5 221.5t4.5 165.5q0 59 -72 69.5t-72 49.5q0 37 43 37l162 2q39 0 91 -1t67.5 -9.5t15.5 -28.5 q0 -27 -35 -41q-43 -12 -57 -16q-10 -12 -17.5 -66.5t-7.5 -136.5v-23l-12 -247q0 -270 -26 -418q-41 -227 -154 -344q-137 -141 -395 -142q-166 0 -275 39q-133 47 -221 166q-45 59 -71.5 180t-26.5 318q0 104 -14.5 313t-14.5 311q0 47 -52 61.5t-52 45.5zM397 1563 q8 27 178.5 144.5t217.5 135.5l30 4q31 0 51.5 -18.5t20.5 -48.5q0 -23 -14.5 -41.5t-38.5 -30.5q-106 -53 -209 -100q-174 -80 -197 -80q-20 0 -35 22z" />
<glyph unicode="&#xdb;" horiz-adv-x="1390" d="M-55 1409q0 12 16 24.5t29 12.5l592 -2q36 0 36 -43q0 -27 -70.5 -39t-70.5 -59v-480q0 -272 47 -415q78 -238 293 -238q197 0 270 219q45 135 46 408v106q0 66 4 221.5t4 165.5q0 59 -72 69.5t-72 49.5q0 37 43 37l162 2q39 0 91.5 -1t67.5 -9t15 -29q0 -27 -35 -41 q-43 -12 -57 -16q-10 -12 -17 -66.5t-7 -136.5v-23l-13 -247q0 -270 -26 -418q-41 -227 -154 -344q-137 -141 -395 -142q-166 0 -275 39q-133 47 -221 166q-45 59 -71.5 180t-26.5 318q0 104 -14.5 313t-14.5 312q0 47 -52 61t-52 45zM281 1559q0 27 112 131 q125 111 147.5 132t30.5 27q21 17 41 17q18 0 52 -27q12 -10 45 -43q78 -68 131 -115q102 -92 102 -118q0 -18 -13.5 -27.5t-31.5 -9.5q-16 0 -94 43q-57 33 -197 117q-94 -59 -139 -89q-88 -55 -148 -73q-10 2 -24 8t-14 27z" />
<glyph unicode="&#xdc;" horiz-adv-x="1390" d="M-55 1407q0 12 16 24.5t29 12.5l592 -2q36 0 36 -43q0 -27 -70.5 -39t-70.5 -60v-479q0 -272 47 -415q78 -238 293 -238q197 0 270 219q45 135 46 408v106q0 66 4 221.5t4 165.5q0 59 -72 69.5t-72 49.5q0 37 43 37l162 2q39 0 91.5 -1t67.5 -9.5t15 -28.5q0 -27 -35 -41 q-43 -12 -57 -16q-10 -12 -17 -66.5t-7 -136.5v-23l-13 -247q0 -270 -26 -418q-41 -227 -154 -344q-137 -141 -395 -142q-166 0 -275 39q-133 47 -221 166q-45 59 -71.5 180t-26.5 318q0 104 -14.5 313t-14.5 311q0 47 -52 61.5t-52 45.5zM387 1692q0 45 37 81.5t84 36.5 q55 0 94 -34.5t39 -92.5q0 -55 -40 -91t-97 -36q-49 0 -83 42t-34 94zM811 1677q0 59 35 96t94 37q53 0 88 -38.5t35 -92.5q0 -43 -36 -83t-79 -40q-59 0 -98 32t-39 89z" />
<glyph unicode="&#xdf;" horiz-adv-x="1308" d="M-25 860q0 18 39 45q47 33 58 60l18 65q33 119 36 128t32 65q82 156 216 229.5t316 73.5q203 0 324 -84q139 -96 139 -293q0 -188 -131 -243.5t-131 -98.5q0 -57 175 -203.5t175 -304.5q0 -166 -125 -244q-102 -63 -280 -63q-57 0 -127 11t-113 36q-12 6 -31 37v157 q0 25 21 31l12 2q16 0 61.5 -96t128.5 -96q47 0 84 30.5t37 77.5q0 74 -163.5 205t-163.5 281q0 119 86 182q63 45 196 76l10 12l7 35q0 188 -45 299q-66 164 -226 164q-92 0 -137 -82q-37 -68 -37 -168v-1061q0 -35 48 -49.5t48 -42.5l-2 -8q-14 -23 -30 -23h-486 q-41 0 -32 43q8 23 53 33t45 47v700h-43q-29 0 -45.5 6.5t-16.5 28.5z" />
<glyph unicode="&#xe0;" horiz-adv-x="1011" d="M-6 233q0 33 17.5 76t43.5 56q68 35 203 71q168 47 207 60.5t50 31t11 50.5v45q0 92 -20 137q-29 63 -113 63q-53 0 -67.5 -21.5t-14.5 -70.5v-31q0 -37 -100 -89t-143 -52q-18 0 -21.5 15.5t-3.5 41.5q0 25 7 53.5t20 45.5q70 82 226.5 160.5t262.5 78.5h29 q53 0 101 -18t93 -53q98 -78 99 -205l-4 -395q0 -84 19 -120t58 -36l47 6q20 0 25 -22q0 -51 -111 -93q-92 -35 -153 -34q-90 0 -138.5 31.5t-103.5 115.5q-72 -63 -139 -100q-84 -45 -164 -45q-125 0 -174 60t-49 187zM217 1452q0 29 22.5 44t53.5 15q45 0 90 -100 q43 -115 53 -141q39 -92 61.5 -149.5t22.5 -67.5q0 -8 -4 -15q-12 -18 -27 -18q-16 0 -28 9t-23 28l-153 254q-23 33 -45.5 71.5t-22.5 69.5zM326 242q0 -37 17 -63.5t54 -26.5q47 0 83 33.5t36 82.5v172q-98 -41 -106 -45q-84 -47 -84 -153z" />
<glyph unicode="&#xe1;" horiz-adv-x="1011" d="M-6 233q0 33 17.5 76t43.5 56q68 35 203 71q168 47 207 60.5t50 31t11 50.5v45q0 92 -20 137q-29 63 -113 63q-53 0 -67.5 -21.5t-14.5 -70.5v-31q0 -37 -100 -89t-143 -52q-18 0 -21.5 15.5t-3.5 41.5q0 25 7 53.5t20 45.5q70 82 226.5 160.5t262.5 78.5h29 q53 0 101 -18t93 -53q98 -78 99 -205l-4 -395q0 -84 19 -120t58 -36l47 6q20 0 25 -22q0 -51 -111 -93q-92 -35 -153 -34q-90 0 -138.5 31.5t-103.5 115.5q-72 -63 -139 -100q-84 -45 -164 -45q-125 0 -174 60t-49 187zM326 242q0 -37 17 -63.5t54 -26.5q47 0 83 33.5 t36 82.5v172q-98 -41 -106 -45q-84 -47 -84 -153zM346 1051q6 43 28.5 95t43.5 101l57 133q14 41 31 84q24 47 69 47q29 0 49.5 -18t20.5 -49q0 -23 -27 -72q-4 -6 -43 -69l-151 -252q-20 -33 -51 -33q-16 0 -27 33z" />
<glyph unicode="&#xe2;" horiz-adv-x="1011" d="M-6 233q0 33 17.5 76t43.5 56q68 35 203 71q168 47 207 60.5t50 31t11 50.5v45q0 92 -20 137q-29 63 -113 63q-53 0 -67.5 -21.5t-14.5 -70.5v-31q0 -37 -100 -89t-143 -52q-18 0 -21.5 15.5t-3.5 41.5q0 25 7 53.5t20 45.5q70 82 226.5 160.5t262.5 78.5h29 q53 0 101 -18t93 -53q98 -78 99 -205l-4 -395q0 -84 19 -120t58 -36l47 6q20 0 25 -22q0 -51 -111 -93q-92 -35 -153 -34q-90 0 -138.5 31.5t-103.5 115.5q-72 -63 -139 -100q-84 -45 -164 -45q-125 0 -174 60t-49 187zM147 1055q12 49 135 240.5t154 197.5q29 -10 131 -172 q63 -104 129 -209q18 -25 21.5 -32t3.5 -27q0 -16 -16.5 -25.5t-34.5 -9.5q-29 0 -158 149q-6 6 -82 97q-57 -72 -113 -142q-90 -104 -127 -104t-43 37zM326 242q0 -37 17 -63.5t54 -26.5q47 0 83 33.5t36 82.5v172q-98 -41 -106 -45q-84 -47 -84 -153z" />
<glyph unicode="&#xe3;" horiz-adv-x="1011" d="M-6 233q0 33 17.5 76t43.5 56q68 35 203 71q168 47 207 60.5t50 31t11 50.5v45q0 92 -20 137q-29 63 -113 63q-53 0 -67.5 -21.5t-14.5 -70.5v-31q0 -37 -100 -89t-143 -52q-18 0 -21.5 15.5t-3.5 41.5q0 25 7 53.5t20 45.5q70 82 226.5 160.5t262.5 78.5h29 q53 0 101 -18t93 -53q98 -78 99 -205l-4 -395q0 -84 19 -120t58 -36l47 6q20 0 25 -22q0 -51 -111 -93q-92 -35 -153 -34q-90 0 -138.5 31.5t-103.5 115.5q-72 -63 -139 -100q-84 -45 -164 -45q-125 0 -174 60t-49 187zM86 1161q0 66 70.5 140.5t136.5 74.5 q70 0 188.5 -60.5t155.5 -60.5t53.5 48.5t48.5 48.5q39 0 39 -47q-31 -82 -76 -131q-57 -63 -131 -64q-63 0 -186 58.5t-164 58.5q-31 0 -49 -52.5t-45 -52.5h-10q-14 6 -19 8q-12 17 -12 31zM326 242q0 -37 17 -63.5t54 -26.5q47 0 83 33.5t36 82.5v172q-98 -41 -106 -45 q-84 -47 -84 -153z" />
<glyph unicode="&#xe4;" horiz-adv-x="1011" d="M-6 233q0 33 17.5 76t43.5 56q68 35 203 71q168 47 207 60.5t50 31t11 50.5v45q0 92 -20 137q-29 63 -113 63q-53 0 -67.5 -21.5t-14.5 -70.5v-31q0 -37 -100 -89t-143 -52q-18 0 -21.5 15.5t-3.5 41.5q0 25 7 53.5t20 45.5q70 82 226.5 160.5t262.5 78.5h29 q53 0 101 -18t93 -53q98 -78 99 -205l-4 -395q0 -84 19 -120t58 -36l47 6q20 0 25 -22q0 -51 -111 -93q-92 -35 -153 -34q-90 0 -138.5 31.5t-103.5 115.5q-72 -63 -139 -100q-84 -45 -164 -45q-125 0 -174 60t-49 187zM180 1245q0 43 36 81t79 38q53 0 96 -33t43 -84 q0 -59 -34.5 -98t-96.5 -39q-53 0 -88 41t-35 94zM326 242q0 -37 17 -63.5t54 -26.5q47 0 83 33.5t36 82.5v172q-98 -41 -106 -45q-84 -47 -84 -153zM578 1243q0 51 40.5 86t92.5 35q49 0 84.5 -38t35.5 -89q0 -53 -36.5 -90t-92.5 -37q-55 0 -89.5 39t-34.5 94z" />
<glyph unicode="&#xe5;" horiz-adv-x="1011" d="M-8 233q0 33 17.5 76t43.5 56q68 35 203 71q168 47 207 60.5t50 31t11 50.5v45q0 92 -20 137q-29 63 -113 63q-53 0 -67.5 -21.5t-14.5 -70.5v-31q0 -37 -100 -89t-143 -52q-18 0 -21.5 15.5t-3.5 41.5q0 25 7 53.5t20 45.5q70 82 226.5 160.5t262.5 78.5h29 q53 0 101 -18t93 -53q98 -78 99 -205l-5 -395q0 -84 19.5 -120t58.5 -36l47 6q20 0 25 -22q0 -51 -111 -93q-92 -35 -153 -34q-90 0 -138.5 31.5t-103.5 115.5q-72 -63 -139 -100q-84 -45 -164 -45q-125 0 -174 60t-49 187zM324 242q0 -37 17 -63.5t54 -26.5q47 0 83 33.5 t36 82.5v172q-98 -41 -106 -45q-84 -47 -84 -153zM326 1212q0 70 54 122t126 52q74 0 128 -54t54 -128q0 -82 -54 -132t-138 -50q-74 0 -122 58.5t-48 131.5zM410 1204q0 -41 29.5 -68.5t72.5 -27.5q35 0 61.5 30.5t26.5 65.5q0 45 -30.5 69.5t-75.5 24.5q-35 0 -59.5 -28.5 t-24.5 -65.5z" />
<glyph unicode="&#xe6;" horiz-adv-x="1435" d="M-25 205q0 109 35 143q25 25 135.5 58.5t176.5 52.5q125 37 161 57q16 8 21.5 28.5t5.5 47.5q0 109 -14 151q-27 80 -115 80q-57 0 -72.5 -27.5t-15.5 -90.5q0 -16 -23 -48q-39 -29 -112.5 -60.5t-110.5 -31.5l-18 17l-4 24q0 147 202 256q174 92 338 92q66 0 109 -19.5 t90 -70.5q139 90 305 90q100 0 200.5 -72.5t100.5 -170.5q0 -6 -3 -13.5t-5 -9.5l-16 -10q-41 -6 -93 -19q-25 -6 -90 -26q-156 -45 -311 -90q10 -131 95 -227.5t210 -96.5q41 0 106.5 25.5t84.5 25.5q20 0 32 -30q-10 -88 -182 -177q-158 -80 -262 -79q-236 0 -375 198 q-106 -109 -174 -147q-92 -53 -219 -53q-88 0 -140.5 66.5t-52.5 156.5zM305 244q0 -33 22.5 -59.5t55.5 -26.5q43 0 80 27.5t67 68.5q-14 39 -22 93t-8 99q-102 -39 -138 -67q-57 -47 -57 -135zM846 612q115 29 162 43q125 41 125 80q0 53 -29 97.5t-82 44.5 q-80 0 -128 -74t-48 -158v-33z" />
<glyph unicode="&#xe7;" horiz-adv-x="968" d="M10 451q0 246 180 383q164 124 418 124q168 0 260 -57q76 -47 76 -127q0 -53 -41 -92t-94 -39q-74 0 -164 160q-43 78 -104 78q-80 0 -125 -97q-37 -80 -37 -170q0 -164 90 -282q100 -131 260 -131q43 0 90 22.5t99 48.5q31 0 30 -22q0 -20 -14 -42t-35 -42 q-90 -88 -156 -127q-86 -51 -192 -62l-21 -32q78 -20 117 -51q53 -43 53 -113q0 -106 -70.5 -159.5t-178.5 -53.5q-82 0 -136 24q-76 35 -75 107q0 23 21.5 42t43.5 19q49 0 65.5 -62.5t69.5 -62.5q37 0 63.5 29t26.5 66q0 68 -57 88t-61 26q0 10 32 66q20 35 41 65 q-221 0 -348 127t-127 349z" />
<glyph unicode="&#xe8;" horiz-adv-x="968" d="M12 430q0 246 145.5 389.5t391.5 143.5q147 0 254 -72q123 -84 123 -225l-4 -60l-15 -14q-29 -6 -96 -6h-53.5t-46.5 2l-344 2q27 -178 90 -264q82 -113 243 -113q45 0 92.5 18.5t96.5 38.5q29 0 33 -32q0 -12 -25 -43q-8 -10 -35 -41q-162 -180 -397 -181 q-203 0 -328 127t-125 330zM195 1454q0 25 24 41t51 16q55 0 109 -139q16 -51 35 -102q41 -90 62.5 -145.5t21.5 -71.5q0 -10 -9.5 -21.5t-17.5 -11.5q-18 0 -28.5 9t-22.5 28l-156 254q-23 33 -46 70.5t-23 72.5zM375 662l166 -5q61 0 88.5 22.5t27.5 84.5q0 57 -26.5 90 t-81.5 33q-82 0 -127 -74q-33 -55 -47 -151z" />
<glyph unicode="&#xe9;" horiz-adv-x="968" d="M10 430q0 246 145.5 389.5t391.5 143.5q147 0 254 -72q123 -84 123 -225l-4 -60l-15 -14q-29 -6 -96 -6h-53.5t-46.5 2l-344 2q27 -178 90 -264q82 -113 243 -113q45 0 92.5 18.5t96.5 38.5q29 0 33 -32q0 -12 -25 -43q-8 -10 -35 -41q-162 -180 -397 -181 q-203 0 -328 127t-125 330zM326 1051q10 70 53 168q37 80 74 161q14 41 30 82q27 49 70 49q29 0 50.5 -17t21.5 -46q0 -33 -37 -94q-27 -39 -35 -51l-152 -252q-20 -33 -49 -33l-10 4q-8 8 -16 29zM373 662l166 -5q61 0 88.5 22.5t27.5 84.5q0 57 -26.5 90t-81.5 33 q-82 0 -127 -74q-33 -55 -47 -151z" />
<glyph unicode="&#xea;" horiz-adv-x="968" d="M10 430q0 246 145.5 389.5t391.5 143.5q147 0 254 -72q123 -84 123 -225l-4 -60l-15 -14q-29 -6 -96 -6h-53.5t-46.5 2l-344 2q27 -178 90 -264q82 -113 243 -113q45 0 92.5 18.5t96.5 38.5q29 0 33 -32q0 -12 -25 -43q-8 -10 -35 -41q-162 -180 -397 -181 q-203 0 -328 127t-125 330zM129 1055q6 33 21 55l233 356q15 25 33 27l12 -6q47 -55 150 -213q113 -174 122 -213l-4 -19q-18 -25 -41 -24q-35 0 -127 104q-61 70 -120 142q-47 -61 -74 -95q-86 -109 -141 -147l-25 -4q-35 0 -39 37zM373 662l166 -5q61 0 88.5 22.5 t27.5 84.5q0 57 -26.5 90t-81.5 33q-82 0 -127 -74q-33 -55 -47 -151z" />
<glyph unicode="&#xeb;" horiz-adv-x="968" d="M10 430q0 246 145.5 389.5t391.5 143.5q147 0 254 -72q123 -84 123 -225l-4 -60l-15 -14q-29 -6 -96 -6h-53.5t-46.5 2l-344 2q27 -178 90 -264q82 -113 243 -113q45 0 92.5 18.5t96.5 38.5q29 0 33 -32q0 -12 -25 -43q-8 -10 -35 -41q-162 -180 -397 -181 q-203 0 -328 127t-125 330zM84 1229q0 53 36 91t89 38q59 0 94 -37t35 -98q0 -47 -38 -83t-87 -36q-51 0 -90 37t-39 88zM373 662l166 -5q61 0 88.5 22.5t27.5 84.5q0 57 -26.5 90t-81.5 33q-82 0 -127 -74q-33 -55 -47 -151zM485 1237q0 47 35 84t84 37q133 0 133 -139 q0 -45 -37.5 -79t-85.5 -34q-59 0 -94 37t-35 94z" />
<glyph unicode="&#xec;" horiz-adv-x="589" d="M6 33q0 27 31 37t59 20l10 21v567q0 31 -45 51.5t-53 36.5v8q0 23 29 33q37 8 49 12l369 137l6 -6q6 -18 10 -58t4 -99q0 -111 -4 -201q-14 -313 -14 -338q0 -39 1 -84t13 -72q6 -16 48 -25.5t42 -43.5q-4 -8 -8 -13.5t-10 -11.5l-25 -4h-481l-25 8zM16 1446 q0 29 22.5 47t53.5 18q55 0 109 -139q16 -51 35 -102q41 -90 62 -145.5t21 -71.5q0 -10 -9 -21.5t-19 -11.5q-16 0 -27.5 9t-21.5 28l-156 256q-27 39 -41 63q-29 47 -29 70z" />
<glyph unicode="&#xed;" horiz-adv-x="589" d="M4 33q0 27 31 37t59 20l10 21v567q0 31 -45 51.5t-53 36.5v8q0 23 29 33q37 8 49 12l369 137l6 -6q6 -18 10 -58t4 -99q0 -111 -4 -201q-14 -313 -14 -338q0 -39 1 -84t13 -72q6 -16 48 -25.5t42 -43.5q-4 -8 -8 -13.5t-10 -11.5l-25 -4h-481l-25 8zM147 1051 q8 51 39 123q16 37 33 73l55 133q16 41 33 84q25 47 70 47q29 0 49 -17t20 -46q0 -33 -36 -94q-27 -39 -35 -51l-152 -252q-20 -33 -49 -33q-16 0 -27 33z" />
<glyph unicode="&#xee;" horiz-adv-x="589" d="M-29 1055q18 76 150 266q80 113 100.5 141.5t36.5 30.5l12 -6q47 -55 150 -213q113 -174 123 -213l-2 -19q-23 -25 -54 -24q-16 0 -80.5 68.5t-156.5 177.5q-57 -72 -113 -142q-90 -104 -127 -104q-39 0 -39 37zM25 33q0 27 30.5 37t59.5 20l10 21v567q0 31 -45 51.5 t-53 36.5v8q0 23 28 33q37 8 49 12l369 137l6 -6q6 -18 10.5 -58t4.5 -99q0 -111 -5 -201q-14 -313 -14 -338q0 -39 1 -84t13 -72q6 -16 48.5 -25.5t42.5 -43.5q-4 -8 -8.5 -13.5t-10.5 -11.5l-24 -4h-482l-24 8z" />
<glyph unicode="&#xef;" horiz-adv-x="589" d="M-80 1233q0 51 35 88t88 37q59 0 94 -37t35 -98q0 -47 -38 -83t-87 -36q-53 0 -90 37t-37 92zM16 33q0 27 31 37t59 20l11 21v567q0 31 -45 51.5t-54 36.5v8q0 23 29 33q37 8 49 12l369 137l6 -6q6 -18 10 -58t4 -99q0 -111 -4 -201q-14 -313 -14 -338q0 -39 1 -84 t13 -72q6 -16 48 -25.5t42 -43.5q-4 -8 -8 -13.5t-10 -11.5l-25 -4h-481l-24 8zM317 1233q0 49 36 87t85 38q63 0 98 -37t35 -102q0 -45 -37.5 -79t-84.5 -34q-55 0 -93.5 36t-38.5 91z" />
<glyph unicode="&#xf1;" horiz-adv-x="1222" d="M-23 801l5 18q12 8 100 33q57 14 115 31q109 37 219 73l8 -2l12 -16v-125q96 61 187 96q106 41 204 41q139 0 199 -92q49 -76 49 -223l2 -516q0 -31 49.5 -48.5t44.5 -43.5q-14 -27 -30 -27h-490l-16 2l-12 12l-7 17q0 25 45.5 38t57.5 40v481q0 115 -41 164 q-33 41 -96 41q-61 0 -103.5 -36t-42.5 -100v-501q0 -27 3 -46.5t26.5 -27.5t47.5 -17.5t24 -31.5q0 -10 -13 -29l-22 -6h-492q-6 0 -26 10l-4 15q0 31 50 47t50 45v542q0 82 -49 97.5t-54 44.5zM180 1171q41 92 76 136q57 70 133 69q66 0 186.5 -60.5t159.5 -60.5 q35 0 51.5 48.5t47.5 48.5q12 0 19 -4.5t9 -4.5q10 -16 10 -38q0 -59 -71.5 -127t-132.5 -68q-66 0 -187 58.5t-162 58.5q-31 0 -50 -52.5t-46 -52.5q-14 0 -28.5 11t-14.5 38z" />
<glyph unicode="&#xf2;" horiz-adv-x="1179" d="M6 455q0 254 172 387q156 121 418 121q229 0 373.5 -130.5t144.5 -359.5q0 -236 -176 -373q-162 -125 -406 -125q-229 0 -372 123q-154 131 -154 357zM297 1454q0 25 24.5 41t51.5 16q45 0 90 -100q43 -115 53 -141q39 -92 61.5 -149.5t22.5 -67.5q0 -8 -4 -15 q-12 -18 -29 -18q-18 0 -29.5 13.5t-17.5 23.5l-155 254q-23 33 -45.5 72.5t-22.5 70.5zM385 504q0 -152 27 -262q43 -181 145 -181q111 0 150 148q23 84 22 237q0 145 -29 261q-45 178 -145 178q-98 0 -141 -150q-29 -98 -29 -231z" />
<glyph unicode="&#xf3;" horiz-adv-x="1179" d="M6 455q0 254 172 387q156 121 418 121q229 0 373.5 -130.5t144.5 -359.5q0 -236 -176 -373q-162 -125 -406 -125q-229 0 -372 123q-154 131 -154 357zM385 504q0 -152 27 -262q43 -181 145 -181q111 0 150 148q23 84 22 237q0 145 -29 261q-45 178 -145 178 q-98 0 -141 -150q-29 -98 -29 -231zM428 1049q10 70 53 168q37 82 74 163q14 41 31 82q26 49 69 49q31 0 51.5 -18t20.5 -47q0 -23 -25.5 -66t-46.5 -77l-153 -252q-20 -33 -49 -33q-12 0 -25 31z" />
<glyph unicode="&#xf4;" horiz-adv-x="1179" d="M6 455q0 254 172 387q156 121 418 121q229 0 373.5 -130.5t144.5 -359.5q0 -236 -176 -373q-162 -125 -406 -125q-229 0 -372 123q-154 131 -154 357zM229 1055q6 31 23 55l229 356q15 21 35 27l14 -6q55 -66 127 -182q59 -98 119 -195q18 -25 21.5 -32t3.5 -25 q0 -20 -27 -31q-12 -4 -24 -4q-25 0 -156 149q-43 47 -84 97q-57 -72 -113 -142q-90 -104 -127 -104q-35 0 -41 37zM385 504q0 -152 27 -262q43 -181 145 -181q111 0 150 148q23 84 22 237q0 145 -29 261q-45 178 -145 178q-98 0 -141 -150q-29 -98 -29 -231z" />
<glyph unicode="&#xf5;" horiz-adv-x="1179" d="M6 455q0 254 172 387q156 121 418 121q229 0 373.5 -130.5t144.5 -359.5q0 -236 -176 -373q-162 -125 -406 -125q-229 0 -372 123q-154 131 -154 357zM166 1171q43 96 76 136q57 70 135 69q66 0 186.5 -60.5t159.5 -60.5q35 0 49 48.5t49 48.5q18 0 27.5 -13.5t9.5 -33.5 q-31 -84 -74 -131q-57 -63 -133 -64q-55 0 -137 37q-178 80 -213 80q-31 0 -49.5 -53.5t-44.5 -53.5q-41 0 -41 51zM385 504q0 -152 27 -262q43 -181 145 -181q111 0 150 148q23 84 22 237q0 145 -29 261q-45 178 -145 178q-98 0 -141 -150q-29 -98 -29 -231z" />
<glyph unicode="&#xf6;" horiz-adv-x="1179" d="M4 473q0 238 178 371q162 121 408 121q231 0 377.5 -130t146.5 -358q0 -227 -166 -368q-158 -133 -389 -134q-254 0 -397 119q-158 129 -158 379zM233 1241q0 53 38 87t91 34t88 -37t35 -90q0 -49 -36.5 -88t-83.5 -39q-61 0 -96.5 37t-35.5 96zM385 487q0 -137 31 -251 q45 -173 141 -173q109 0 150 150q23 84 22 236q0 158 -27 262q-45 174 -153 174q-98 0 -139 -158q-25 -96 -25 -240zM631 1239q0 51 37 88t90 37q59 0 93 -38t34 -99q0 -47 -41 -82t-88 -35q-51 0 -88 39t-37 90z" />
<glyph unicode="&#xf7;" horiz-adv-x="1097" d="M10 465v106h1034v-106h-1034zM408 250q0 45 30.5 77.5t77.5 32.5q45 0 78 -32.5t33 -77.5t-33 -78t-78 -33q-43 0 -75.5 33t-32.5 78zM408 786q0 45 30.5 78t77.5 33q45 0 78 -33t33 -78t-33 -77.5t-78 -32.5q-43 0 -75.5 32.5t-32.5 77.5z" />
<glyph unicode="&#xf8;" horiz-adv-x="1179" d="M10 467q0 240 168 371q156 123 402 123q86 0 148.5 -8.5t111.5 -37.5l67 89l19 8l30 -6l11 -11l6 -14v-14q-14 -25 -29.5 -45.5t-32.5 -40.5q115 -98 156 -170q51 -88 51 -226q0 -246 -172 -383q-160 -127 -414 -127q-70 0 -159 23q-47 12 -94 27l-70 -91l-19 -8l-22 4 l-16 15l-7 12v10q0 18 35 64q23 29 29 35q-96 57 -147.5 169.5t-51.5 231.5zM377 481q0 -37 5 -98t5 -74q162 217 326 434q-14 63 -56.5 101.5t-107.5 38.5q-98 0 -143 -160q-29 -102 -29 -242zM414 205q20 -68 53 -103q41 -45 104 -45q111 0 154 158q27 96 27 246 q0 39 -3.5 84t-11.5 100z" />
<glyph unicode="&#xf9;" horiz-adv-x="1222" d="M-37 899q4 39 39 39h393q25 0 25 -29l2 -557q0 -88 22 -137q33 -72 111 -72q59 0 102 27q53 33 54 88v549q0 43 -58.5 53t-62.5 43q6 35 41 35h432q12 -18 15 -116.5t3 -188.5l-6 -479q0 -68 54.5 -78t54.5 -39v-8q-18 -29 -47 -29h-424l-6 121q-84 -68 -186.5 -104.5 t-211.5 -36.5q-145 0 -203 88q-45 70 -45 225v502q0 29 -13 45t-68 30q-16 12 -17 29zM311 1454q0 27 22.5 42t51.5 15q55 0 109 -139l36 -102q31 -72 45 -107q29 -68 39 -110q-8 -33 -32 -33q-14 0 -27.5 11t-22.5 26l-155 254q-20 33 -43 72.5t-23 70.5z" />
<glyph unicode="&#xfa;" horiz-adv-x="1222" d="M-37 899q4 39 39 39h393q25 0 25 -29l2 -557q0 -88 22 -137q33 -72 111 -72q59 0 102 27q53 33 54 88v549q0 43 -58.5 53t-62.5 43q6 35 41 35h432q12 -18 15 -116.5t3 -188.5l-6 -479q0 -68 54.5 -78t54.5 -39v-8q-18 -29 -47 -29h-424l-6 121q-84 -68 -186.5 -104.5 t-211.5 -36.5q-145 0 -203 88q-45 70 -45 225v502q0 29 -13 45t-68 30q-16 12 -17 29zM440 1051q0 20 56 155q37 86 73 174q14 41 31 84q25 47 70 47q29 0 49 -18t20 -47q0 -23 -26 -72q-35 -57 -43 -71l-154 -252q-20 -33 -49 -33q-27 0 -27 33z" />
<glyph unicode="&#xfb;" horiz-adv-x="1222" d="M-37 899q4 39 39 39h393q25 0 25 -29l2 -557q0 -88 22 -137q33 -72 111 -72q59 0 102 27q53 33 54 88v549q0 43 -58.5 53t-62.5 43q6 35 41 35h432q12 -18 15 -116.5t3 -188.5l-6 -479q0 -68 54.5 -78t54.5 -39v-8q-18 -29 -47 -29h-424l-6 121q-84 -68 -186.5 -104.5 t-211.5 -36.5q-145 0 -203 88q-45 70 -45 225v502q0 29 -13 45t-68 30q-16 12 -17 29zM242 1063q0 31 128.5 226.5t157.5 203.5l17 -8q51 -68 125 -185l118 -188q18 -25 19 -27q8 -14 8 -32q-16 -35 -45 -35q-23 0 -41 18q-12 16 -18 23l-189 205l-194 -222q-23 -25 -45 -24 q-41 0 -41 45z" />
<glyph unicode="&#xfc;" horiz-adv-x="1222" d="M-39 899q4 14 12.5 25.5t20.5 11.5h401q6 -2 10.5 -5t10.5 -9q4 -14 6 -46t2 -51v-57q0 -66 -4 -221.5t-4 -165.5q0 -104 20 -156q33 -84 121 -84q68 0 110 31t42 96l2 514q0 63 -54.5 72.5t-66.5 38.5v10q0 16 31 33h426q23 0 26 -23v-770l2 -26q2 -33 55.5 -43.5 t53.5 -40.5l-2 -13q-12 -23 -45 -22h-424l-4 121q-182 -141 -412 -142q-121 0 -179.5 76t-58.5 201v551l-4 10q-14 35 -51 45t-43 39zM248 1233q0 55 37 92t94 37q51 0 87 -36t36 -89t-37 -90t-92 -37q-47 0 -86 37t-39 86zM645 1245q0 47 39 84t88 37q53 0 90 -37t37 -90 q0 -51 -37 -90t-88 -39q-55 0 -92 39t-37 96z" />
<glyph unicode="&#xff;" horiz-adv-x="1011" d="M-41 893v10q0 18 27 33l30 4h484l22 -6q16 -16 21 -27q-4 -33 -68 -47q-31 -8 -31 -26q0 -25 80 -226q49 -125 101 -250q49 125 100 252q80 207 80 234q0 8 -47 18t-47 45q0 12 14 22.5t27 10.5h204q14 0 21 -2q29 -10 29 -29q0 -23 -15 -28q-8 -8 -29.5 -15.5 t-29.5 -11.5t-113 -246q-68 -160 -192 -467q-88 -217 -131 -319q-92 -236 -105 -256q-84 -150 -211 -150q-70 0 -120 42t-50 110q0 78 48 132t126 54q29 0 77 -15t69 -15q27 0 59.5 64.5t40.5 100.5l-260 631q-61 150 -123 301q-14 29 -46 39t-42 33zM98 1233q0 51 37 88 t90 37q57 0 93 -36t36 -93q0 -51 -36.5 -88t-90.5 -37q-53 0 -91 38t-38 91zM500 1237q0 47 37 84t84 37q63 0 98 -37t35 -102q0 -47 -39 -80t-86 -33q-57 0 -93 38t-36 93z" />
<glyph unicode="&#x152;" horiz-adv-x="2148" d="M-27 686q0 367 199 565.5t563 198.5q29 0 100.5 -4t79.5 -4q125 0 413 4t306 4h297l17 -6q10 -20 10 -29v-323l-4 -21l-17 -12l-24 -2q-20 0 -31 35q-25 92 -47 186q-37 78 -168 78h-332v-533h35h41q66 0 132.5 7.5t72.5 125t53 117.5q14 0 23.5 -11t9.5 -28v-508 q0 -14 -6 -24q-12 -23 -35 -23q-8 0 -20.5 6.5t-16.5 20.5t-10 117.5t-133 103.5l-146 -2v-584q0 -33 19.5 -45t54.5 -12h156q98 0 149 10q88 18 133 68q18 20 54 108q63 166 96 166l16 -4l12 -16l5 -19v-8q0 -92 -12.5 -215t-35.5 -166q-12 -8 -24 -8h-965q-66 0 -121 -4 q-190 -14 -204 -14q-324 0 -509.5 189t-185.5 515zM418 752q0 -186 14 -289q25 -178 94 -273q88 -119 252 -118q39 0 94 26q27 12 56 27v1171q-33 33 -69 48.5t-83 15.5q-193 0 -287 -219q-72 -166 -71 -389z" />
<glyph unicode="&#x153;" horiz-adv-x="1687" d="M-18 451q0 242 168 380q156 129 405 130q117 0 206 -21.5t157 -87.5q66 41 112 63q90 43 203 43q168 0 270 -79q113 -88 113 -252q0 -25 -17 -35q-16 -4 -49.5 -7t-72.5 -3h-72l-348 4q0 -156 87 -264.5t240 -108.5q51 0 115 28.5t86 28.5q6 0 14.5 -8t10.5 -20l-4 -21 q-57 -104 -183.5 -174t-246.5 -70q-178 0 -289 119q-78 -61 -183.5 -91t-214.5 -30q-223 0 -362 125q-145 131 -145 351zM362 508q0 -166 27 -272q45 -181 160 -181q100 0 143 172q29 113 29 254q0 147 -27 244q-43 158 -153 158q-92 0 -142 -148q-37 -109 -37 -227z M1055 657l14 2l129 -6q88 0 121 26t33 73q0 59 -24.5 96t-82.5 37q-84 0 -135 -74q-41 -59 -55 -154z" />
<glyph unicode="&#x178;" horiz-adv-x="1265" d="M-47 1407q0 18 17.5 27.5t37.5 9.5h576q43 0 49 -41q-4 -8 -5 -11t-8.5 -11.5t-54.5 -16.5t-65 -27l-2 -12q0 -6 61.5 -122t126 -236.5t78.5 -147.5q45 92 129 266q109 227 108 238v10l-12 13q-49 12 -76 18q-51 12 -51 45q0 14 16.5 24.5t28.5 10.5l215 2h29 q33 0 57.5 -7t24.5 -32q0 -31 -48 -45t-61 -37l-106 -209q-53 -100 -111.5 -220t-103.5 -224v-549q4 -8 8 -14.5t7 -9.5t68.5 -15t65.5 -53q0 -14 -24 -29l-10 -2h-625q-43 0 -49 41l4 12q12 18 79.5 28.5t67.5 57.5v537l-282 530l-35 62q-37 63 -51 71q-39 20 -56.5 37 t-17.5 31zM207 1677q0 53 37 88t92 35q57 0 92 -39t35 -96q0 -47 -41 -82t-88 -35q-55 0 -91 38t-36 91zM631 1673q0 53 35 92t90 39q59 0 94 -36.5t35 -96.5q0 -45 -37 -84t-82 -39q-53 0 -94 36t-41 89z" />
<glyph unicode="&#x2c6;" horiz-adv-x="0" d="M-311 1057q4 16 22 53q63 104 127 211q104 166 139 172q27 -10 152 -199.5t135 -232.5l-4 -19q-18 -25 -49 -24q-23 0 -119 108q-57 66 -119 138l-114 -140q-92 -106 -127 -106q-33 0 -43 39z" />
<glyph unicode="&#x2dc;" horiz-adv-x="0" d="M-373 1161q0 66 71 140.5t136 74.5q68 0 188.5 -60.5t157.5 -60.5q35 0 51.5 48.5t51.5 48.5q37 0 36 -39q0 -66 -70.5 -134.5t-135.5 -68.5q-66 0 -187 58.5t-159 58.5q-31 0 -51.5 -52.5t-47.5 -52.5q-16 0 -28.5 10.5t-12.5 28.5z" />
<glyph unicode="&#x2000;" horiz-adv-x="933" />
<glyph unicode="&#x2001;" horiz-adv-x="1866" />
<glyph unicode="&#x2002;" horiz-adv-x="933" />
<glyph unicode="&#x2003;" horiz-adv-x="1866" />
<glyph unicode="&#x2004;" horiz-adv-x="622" />
<glyph unicode="&#x2005;" horiz-adv-x="466" />
<glyph unicode="&#x2006;" horiz-adv-x="311" />
<glyph unicode="&#x2007;" horiz-adv-x="311" />
<glyph unicode="&#x2008;" horiz-adv-x="233" />
<glyph unicode="&#x2009;" horiz-adv-x="373" />
<glyph unicode="&#x200a;" horiz-adv-x="103" />
<glyph unicode="&#x2010;" horiz-adv-x="759" d="M41 446q0 12 20.5 56.5t30.5 58.5l6 4l19 2h534l19 -2q6 -2 14 -14q-16 -51 -25 -70q-18 -47 -38 -57h-562q-16 8 -18 22z" />
<glyph unicode="&#x2011;" horiz-adv-x="759" d="M41 446q0 12 20.5 56.5t30.5 58.5l6 4l19 2h534l19 -2q6 -2 14 -14q-16 -51 -25 -70q-18 -47 -38 -57h-562q-16 8 -18 22z" />
<glyph unicode="&#x2012;" horiz-adv-x="759" d="M41 446q0 12 20.5 56.5t30.5 58.5l6 4l19 2h534l19 -2q6 -2 14 -14q-16 -51 -25 -70q-18 -47 -38 -57h-562q-16 8 -18 22z" />
<glyph unicode="&#x2013;" horiz-adv-x="1054" d="M35 444q16 53 26.5 78t26.5 41l14 4h840l19 -4l6 -14q-2 -6 -19.5 -54.5t-32.5 -64.5l-18 -6h-848z" />
<glyph unicode="&#x2014;" d="M-49 494v213h1364v-213h-1364z" />
<glyph unicode="&#x2018;" horiz-adv-x="464" d="M14 930q0 125 50.5 235.5t144.5 200.5q47 47 57 55q39 31 72 31l12 -2q18 -10 19 -31q-70 -86 -121 -162q-57 -86 -58 -153q0 -35 6.5 -56.5t26 -27.5t40 -8t40.5 -4q74 -16 102.5 -54.5t28.5 -115.5q0 -78 -55 -135.5t-133 -57.5q-113 0 -176 88q-55 78 -56 197z" />
<glyph unicode="&#x2019;" horiz-adv-x="464" d="M8 1253q0 86 55.5 141.5t143.5 55.5q111 0 170 -90q49 -76 49 -193q0 -123 -46 -228t-134 -198q-33 -35 -64 -59q-45 -35 -76 -41q-14 6 -20 10q-14 10 -14 21q72 82 126 170t54 176q0 43 -122 73.5t-122 161.5z" />
<glyph unicode="&#x201a;" horiz-adv-x="430" d="M14 178q0 80 54.5 136.5t134.5 56.5q113 0 172 -77t59 -196q0 -147 -63.5 -271t-180.5 -220q-18 -14 -39.5 -27.5t-35.5 -13.5q-12 0 -24.5 10t-12.5 25l4 12q104 104 143 182q33 66 33 135q0 57 -122 84t-122 164z" />
<glyph unicode="&#x201c;" horiz-adv-x="968" d="M-2 932q0 125 49 233.5t143 202.5q39 39 62 55q39 29 76 29l10 -4l14 -16v-9q-70 -82 -121 -163q-57 -90 -57 -168q0 -29 6 -46.5t24.5 -23.5t39 -8t41.5 -4q70 -16 101.5 -53t31.5 -111q0 -90 -58.5 -144.5t-152.5 -54.5q-102 0 -160 94q-49 82 -49 191zM500 938 q0 125 61.5 243.5t161.5 209.5q41 37 45 41q28 20 57 20l19 -4l10 -10l4 -15q-70 -80 -121 -159q-57 -88 -57 -166q0 -31 6 -50.5t23.5 -24.5t36 -7t36.5 -2q141 -31 142 -172q0 -86 -56.5 -140.5t-144.5 -54.5q-109 0 -170 94q-53 82 -53 197z" />
<glyph unicode="&#x201d;" horiz-adv-x="968" d="M-12 1260q0 84 55 139t139 55q113 0 172 -90q52 -78 52 -195q0 -152 -89 -305q-96 -166 -229 -215l-20 6q-16 12 -17 27q72 78 126 164t54 160q0 66 -121.5 90t-121.5 164zM492 1255q0 84 55 141.5t141 57.5q113 0 172 -90q51 -78 51 -197q0 -141 -94 -307 q-104 -184 -229 -213q-29 10 -31 27v10q68 72 122 159t54 163l-4 49q-2 2 -133 43q-104 33 -104 157z" />
<glyph unicode="&#x201e;" horiz-adv-x="968" d="M-10 170q0 86 54 144.5t138 58.5q113 0 172 -88q54 -78 54 -197q0 -156 -89 -307q-94 -162 -233 -217q-27 6 -31 33q2 8 12.5 24.5t20.5 28.5q72 84 98 125q47 76 47 149q0 31 -4 41t-121.5 46t-117.5 159zM492 184q0 78 57 133.5t137 55.5q113 0 174 -92q53 -80 53 -197 q0 -139 -94 -305q-104 -184 -227 -217q-33 12 -33 41q68 74 122 158.5t54 164.5q0 59 -76 76q-168 35 -167 182z" />
<glyph unicode="&#x2022;" horiz-adv-x="681" d="M74 723q0 109 81 187.5t191 78.5q111 0 186.5 -77.5t75.5 -188.5q0 -113 -74.5 -189.5t-187.5 -76.5q-111 0 -191.5 78.5t-80.5 187.5z" />
<glyph unicode="&#x2026;" horiz-adv-x="2048" d="M236 0v217h213v-217h-213zM918 0v217h212v-217h-212zM1599 0v217h213v-217h-213z" />
<glyph unicode="&#x202f;" horiz-adv-x="373" />
<glyph unicode="&#x2039;" horiz-adv-x="681" d="M180 473v189l322 251v-180l-215 -166l215 -166v-180z" />
<glyph unicode="&#x203a;" horiz-adv-x="681" d="M180 221v180l215 166l-215 166v180l322 -251v-189z" />
<glyph unicode="&#x205f;" horiz-adv-x="466" />
<glyph unicode="&#x2122;" horiz-adv-x="1781" d="M16 1133l7 190h622l6 -190l-35 -3v17q0 88 -73 117q-43 16 -150 16v-614q0 -27 21.5 -40.5t77.5 -13.5v-37h-316v37q57 0 78.5 12.5t21.5 41.5l-2 614q-111 0 -151 -18q-70 -31 -70 -132zM709 1288v35h225l258 -565l248 565h221v-35h-19q-37 0 -57 -9t-20 -40v-573 q0 -27 21.5 -40.5t76.5 -13.5v-37h-315v37q57 0 78.5 12.5t21.5 41.5v544l-262 -635h-37l-283 605v-514q0 -35 35 -48q18 -6 66 -6v-37h-254v37q57 0 78.5 12.5t21.5 41.5v553q0 51 -24.5 60t-53.5 9h-26z" />
<glyph unicode="&#x25fc;" horiz-adv-x="931" d="M0 0v932h932v-932h-932z" />
</font>
</defs>
</svg>
