<?xml version="1.0" standalone="no"?>
<!DOCTYPE svg PUBLIC "-//W3C//DTD SVG 1.1//EN" "http://www.w3.org/Graphics/SVG/1.1/DTD/svg11.dtd" >
<svg xmlns="http://www.w3.org/2000/svg">
<metadata></metadata>
<defs>
<font id="unnabold" horiz-adv-x="942" >
<font-face units-per-em="2048" ascent="1638" descent="-410" />
<missing-glyph horiz-adv-x="419" />
<glyph unicode="&#xfb01;" horiz-adv-x="1173" d="M41 0v70l76 -4q26 0 26 38v691h-80v65h80v244q0 57 6.5 108t26 107t50.5 96t85.5 66t126.5 26q102 0 170 -48.5t68 -133.5q0 -46 -30.5 -80.5t-90.5 -34.5q-40 0 -71 21t-31 57q0 16 7 48t7 48q0 21 -11 37.5t-34 16.5q-72 0 -72 -158q0 -42 30 -140.5t30 -187.5v-92h186 v-65h-184v-691q0 -38 26 -38l144 4v-70h-541zM676 0v70l67 -4q27 -3 27 38v662q0 35 -25 41l-67 -4v67h360v-766q0 -41 27 -38l68 4v-70h-457zM741 1219q0 58 44 92.5t114 34.5t114 -34.5t44 -92.5q0 -60 -43.5 -94.5t-114.5 -34.5t-114.5 34.5t-43.5 94.5z" />
<glyph unicode="&#xfb02;" horiz-adv-x="1204" d="M41 0v70l76 -4q26 0 26 38v691h-80v65h80v244q0 57 6.5 108t26 107t50.5 96t85.5 66t126.5 26q102 0 170 -48.5t68 -133.5q0 -46 -30.5 -80.5t-90.5 -34.5q-40 0 -71 21t-31 57q0 16 7 48t7 48q0 21 -11 37.5t-34 16.5q-72 0 -72 -158q0 -42 30 -140.5t30 -187.5v-92h186 v-65h-184v-691q0 -38 26 -38l144 4v-70h-541zM676 0v70l98 -4q27 6 27 38v1289q0 34 -25 43l-65 -4v65h358v-1393q0 -41 27 -38l67 4v-70h-487z" />
<glyph horiz-adv-x="0" />
<glyph horiz-adv-x="682" />
<glyph unicode=" "  horiz-adv-x="419" />
<glyph unicode="&#x09;" horiz-adv-x="419" />
<glyph unicode="&#xa0;" horiz-adv-x="419" />
<glyph unicode="!" horiz-adv-x="585" d="M131 133q0 64 53 109t133 45q82 0 135.5 -45t53.5 -109q0 -65 -54 -109t-135 -44q-79 0 -132.5 44t-53.5 109zM166 1147q0 71 37 114.5t108 43.5q78 0 117 -43.5t39 -114.5q0 -49 -18 -135l-41 -176q-1 -5 -10 -44t-11 -48.5t-9.5 -45t-10 -50t-7.5 -46t-6.5 -51.5 t-3.5 -47t-2 -51q0 -41 -31 -41q-32 0 -32 41q0 32 -3 68t-6.5 62t-12 68t-12 60.5t-14.5 66t-14 58.5l-39 176q-18 85 -18 135z" />
<glyph unicode="&#x22;" horiz-adv-x="546" d="M31 1198q0 53 27.5 83t78.5 30t79 -30t28 -83q0 -35 -36 -150t-36 -167q0 -43 -35 -43t-35 43q0 52 -35.5 167t-35.5 150zM303 1198q0 53 28 83t79 30t78.5 -30t27.5 -83q0 -35 -36 -150t-36 -167q0 -43 -34 -43q-35 0 -35 43q0 52 -36 167t-36 150z" />
<glyph unicode="#" horiz-adv-x="1032" d="M33 391l26 96h197l100 336h-196l26 97h199l119 389h96l-119 -389h219l119 389h96l-116 -389h198l-26 -97h-201l-100 -336h198l-28 -96h-199l-123 -409h-96l121 409h-217l-123 -409h-97l121 409h-194zM352 487h221l99 336h-217z" />
<glyph unicode="$" horiz-adv-x="917" d="M154 270l8 217l63 2q0 -81 72 -133.5t174 -52.5q49 0 79 22t30 62q0 35 -23 56t-80 36l-98 27q-116 32 -165.5 84t-49.5 137q0 102 65 167.5t185 74.5v356h92v-358q32 -4 88.5 -17.5t83.5 -13.5q30 0 51 12l-10 -186h-55q0 58 -53.5 101.5t-143.5 43.5q-47 0 -76 -21 t-29 -55q0 -66 84 -83l93 -23q69 -16 115 -39t69 -53.5t32 -62t9 -74.5q0 -112 -69.5 -178.5t-188.5 -77.5v-435h-92v435q-49 5 -158 34q-40 7 -49 7q-35 0 -53 -11z" />
<glyph unicode="%" horiz-adv-x="1230" d="M12 956q0 129 81.5 208t225.5 79q149 0 229.5 -79.5t80.5 -207.5q0 -126 -80 -205t-230 -79q-149 0 -228 80t-79 204zM131 20l875 1227l86 -57l-879 -1233zM233 958q0 -136 19 -184.5t70 -48.5t70.5 50t19.5 183q0 136 -19.5 186t-70.5 50t-70 -51.5t-19 -184.5zM600 264 q0 129 81.5 208t225.5 79q149 0 229.5 -79.5t80.5 -207.5q0 -126 -80 -205t-230 -79q-149 0 -228 80t-79 204zM821 266q0 -136 18.5 -184.5t69.5 -48.5t70.5 50t19.5 183q0 136 -19.5 186t-70.5 50t-69.5 -51.5t-18.5 -184.5z" />
<glyph unicode="&#x26;" horiz-adv-x="1277" d="M45 311q0 120 80.5 218.5t263.5 181.5q-4 6 -29.5 42t-32.5 47t-25 42t-24.5 49.5t-13 46.5t-6.5 55q0 106 83.5 177t227.5 71q131 0 200 -61t69 -156q0 -148 -172 -254l280 -381q60 154 60 293q0 36 -6 51t-23 15l-86 -5v74h309v-74l-86 5q-24 0 -27 -46 q-20 -233 -88 -385l164 -221q20 -26 62 -26l84 4v-74h-394l-71 98q-141 -118 -355 -118q-83 0 -159 18t-141.5 55.5t-104.5 103.5t-39 154zM319 356q0 -138 74 -217.5t185 -79.5q121 0 221 97l-361 485q-61 -51 -90 -127.5t-29 -157.5zM498 1059q0 -28 14.5 -61.5t27.5 -53 t46 -65.5l37 -52q72 45 105.5 89.5t33.5 103.5q0 66 -37.5 104.5t-101.5 38.5q-56 0 -90.5 -26t-34.5 -78z" />
<glyph unicode="'" horiz-adv-x="274" d="M31 1198q0 53 27.5 83t78.5 30t79 -30t28 -83q0 -35 -36 -150t-36 -167q0 -43 -35 -43t-35 43q0 52 -35.5 167t-35.5 150z" />
<glyph unicode="(" horiz-adv-x="567" d="M37 492q0 124 22.5 237.5t57.5 203.5t94.5 186.5t114.5 168.5t137 168h104q-109 -178 -169 -428t-60 -536q0 -285 60 -536t169 -429h-104q-82 96 -137 168t-114.5 169t-94.5 187t-57.5 203.5t-22.5 237.5z" />
<glyph unicode=")" horiz-adv-x="567" d="M0 -473q109 178 169 429t60 536q0 286 -60 536t-169 428h104q82 -96 137 -168t114.5 -168.5t94.5 -186.5t57.5 -203.5t22.5 -237.5t-22.5 -237.5t-57.5 -203.5t-94.5 -187t-114.5 -169t-137 -168h-104z" />
<glyph unicode="*" horiz-adv-x="692" d="M41 1008q0 94 68 94q26 0 55.5 -31t66.5 -31q22 0 37 11q5 23 -6 41q-19 31 -62 41.5t-55 31.5q-12 24 -12 39q0 35 62 68q34 22 63 22q32 0 51 -32q8 -13 8 -29q0 -11 -6.5 -31.5t-6.5 -39.5t13 -40q9 -20 29 -24q20 4 29 24q12 19 12 43q0 13 -5.5 33t-6.5 31t8 33 q21 34 49 34q22 0 66 -24q59 -32 59 -70q0 -17 -10 -37q-12 -21 -54 -31.5t-61 -41.5q-13 -19 -6 -41q15 -11 35 -11q30 0 49.5 15.5t35.5 31t38 15.5q37 0 52 -21t15 -73q0 -95 -67 -95q-22 0 -38 16t-35.5 32t-49.5 16q-21 0 -37 -12q-5 -19 8 -41q19 -31 61 -42t54 -32 t12 -39q0 -35 -59 -68q-39 -20 -66 -20q-31 0 -51 33q-6 12 -6 26q0 11 6 31.5t5.5 39.5t-13.5 40q-9 21 -29 25q-20 -4 -29 -25q-12 -19 -12 -41q0 -13 5.5 -33.5t6.5 -31t-8 -31.5q-21 -37 -49 -37q-15 0 -65 24q-60 32 -60 72q0 15 10 35q12 21 55 32t62 42q11 20 4 41 q-16 12 -35 12q-30 0 -48.5 -16t-34.5 -32t-39 -16q-37 0 -52.5 21.5t-15.5 73.5z" />
<glyph unicode="+" d="M41 522v107h373v370h116v-370h371v-107h-371v-372h-116v372h-373z" />
<glyph unicode="," horiz-adv-x="565" d="M96 106q0 63 43.5 108.5t118.5 45.5q98 0 156.5 -62.5t58.5 -152.5q0 -118 -81.5 -216.5t-196.5 -156.5l-41 43q54 33 94.5 92.5t40.5 116.5q0 62 -78 62q-57 0 -86 31.5t-29 88.5z" />
<glyph unicode="-" horiz-adv-x="512" d="M45 373v127h422v-127h-422z" />
<glyph unicode="." horiz-adv-x="563" d="M92 133q0 70 53 112t136 42q84 0 137 -42t53 -112q0 -71 -52.5 -112t-137.5 -41q-83 0 -136 41t-53 112z" />
<glyph unicode="/" horiz-adv-x="522" d="M-10 12l448 1288l94 -20l-446 -1294z" />
<glyph unicode="0" horiz-adv-x="1105" d="M39 608q0 153 39 274.5t108.5 199.5t162.5 119.5t204 41.5q229 0 371.5 -167.5t142.5 -467.5q0 -296 -141.5 -462t-372.5 -166q-232 0 -373 168t-141 460zM313 610q0 -222 25.5 -344t75.5 -168.5t139 -46.5t140 49t76.5 171t25.5 339q0 224 -25.5 348t-76.5 172t-140 48 q-87 0 -138.5 -51.5t-76.5 -175.5t-25 -341z" />
<glyph unicode="1" horiz-adv-x="747" d="M80 1053q146 34 293 129q52 33 114 84h43v-1162q0 -41 37 -41l119 3v-66h-567v66l121 -3q39 0 39 41v887q0 19 -11 28.5t-28 2.5l-136 -47z" />
<glyph unicode="2" horiz-adv-x="1021" d="M80 975q0 111 111.5 189.5t295.5 78.5q189 0 308.5 -80.5t119.5 -240.5q0 -133 -89 -248.5t-310 -282.5l-266 -194h387q112 0 164.5 32.5t64.5 116.5h80q-39 -194 -45 -352q-18 6 -123 6h-688l-6 164l248 231q56 53 94.5 92.5t82.5 95.5t70.5 107.5t44 117.5t17.5 136 q0 116 -47 173t-125 57q-63 0 -103 -32.5t-40 -88.5q0 -21 10 -62t10 -61q0 -50 -36 -75.5t-89 -25.5q-66 0 -103.5 41.5t-37.5 104.5z" />
<glyph unicode="3" horiz-adv-x="1021" d="M31 227q0 60 37.5 97.5t103.5 37.5q54 0 88.5 -28.5t34.5 -75.5q0 -15 -8 -48t-8 -50q0 -53 49.5 -81t117.5 -28q123 0 193 79.5t70 199.5q0 133 -99 197t-334 83v68q92 3 171.5 39t132.5 108t53 166q0 80 -44 131.5t-130 51.5q-65 0 -109.5 -29.5t-44.5 -77.5 q0 -18 9.5 -50t9.5 -52q0 -52 -37 -77.5t-86 -25.5q-72 0 -106 39t-34 96q0 76 62.5 133t157.5 85t204 28q118 0 212 -27t153 -86.5t59 -144.5q0 -129 -117 -213.5t-294 -107.5v-7q236 -3 360.5 -82t124.5 -233q0 -164 -147.5 -263t-376.5 -99q-184 0 -306 69.5t-122 177.5z " />
<glyph unicode="4" horiz-adv-x="995" d="M18 301v139q26 21 64 62l61 63l475 570l37 45l43 57h111v-778h162v-158h-162v-197q0 -41 41 -41l88 3v-66h-561v66l141 -3q41 0 41 41v197h-541zM150 459h411v489z" />
<glyph unicode="5" horiz-adv-x="993" d="M53 225q0 68 40 107t100 39q54 0 89 -30t35 -77q0 -23 -10 -56.5t-10 -47.5q0 -55 45 -83t109 -28q61 0 103.5 22t66.5 64t34.5 95.5t10.5 125.5q0 310 -258 310q-71 0 -139 -30t-95 -71h-61l53 658h555q87 0 168 6q-26 -89 -33 -203h-623l-36 -348q61 40 144 65t165 25 q191 0 310.5 -100t119.5 -281q0 -125 -65 -218.5t-174 -141t-244 -47.5q-52 0 -104 6.5t-106.5 24t-95.5 44.5t-67.5 71t-26.5 99z" />
<glyph unicode="6" horiz-adv-x="1024" d="M61 539q0 115 15.5 214t54 191t98 157t154.5 103.5t217 38.5q151 0 244.5 -63t93.5 -152q0 -60 -36.5 -95.5t-94.5 -35.5q-60 0 -94.5 25t-34.5 69q0 19 8 49t8 47q0 34 -28.5 58t-85.5 24q-80 0 -134.5 -61t-80.5 -156.5t-33 -226.5q87 84 225 84q206 0 319 -108 t113 -302q0 -187 -127 -304.5t-332 -117.5q-469 0 -469 562zM328 395q0 -94 20 -172t67.5 -131t116.5 -53q103 0 146 87t43 267q0 350 -189 350q-52 0 -90 -19t-59.5 -48.5t-34 -77.5t-16.5 -94t-4 -109z" />
<glyph unicode="7" horiz-adv-x="915" d="M45 915q3 34 18 161t15 155q27 -8 258 -8h561l12 -95q-189 -212 -278.5 -455.5t-89.5 -541.5q0 -29 6 -131h-266q1 96 10 176.5t36 187t72.5 205t126.5 218t191 239.5h-416q-89 0 -130 -25t-48 -86h-78z" />
<glyph unicode="8" horiz-adv-x="1054" d="M53 268q0 111 79 192.5t220 143.5q-122 69 -188 144.5t-66 183.5q0 101 62 172.5t162.5 105t228.5 33.5q120 0 211.5 -27t148 -86.5t56.5 -144.5q0 -97 -78.5 -179t-181.5 -114q54 -30 92.5 -55t81 -61t68.5 -71.5t43.5 -83t17.5 -99.5q0 -108 -73 -187.5t-185.5 -117 t-247.5 -37.5t-232 26.5t-158 92.5t-61 169zM266 287q0 -104 70.5 -171t191.5 -67q100 0 163 47.5t63 134.5q0 45 -18.5 85.5t-44.5 70t-71 61.5t-81 53t-92 51q-11 6 -17 9q-71 -44 -117.5 -120t-46.5 -154zM350 1012q0 -35 17 -68.5t38.5 -57.5t66 -55t74 -48.5 t87.5 -49.5q66 44 98.5 108.5t32.5 135.5q0 93 -53.5 145t-149.5 52t-153.5 -45.5t-57.5 -116.5z" />
<glyph unicode="9" horiz-adv-x="1052" d="M72 821q0 187 126.5 304.5t331.5 117.5q107 0 189 -29t134 -78.5t85.5 -122t47 -153t13.5 -178.5q0 -115 -15 -214t-53.5 -191.5t-98 -157t-154.5 -103.5t-217 -39q-151 0 -244.5 63.5t-93.5 152.5q0 60 36.5 95.5t94.5 35.5q60 0 94.5 -25.5t34.5 -69.5q0 -19 -8 -49 t-8 -47q0 -34 28.5 -58t85.5 -24q60 0 106.5 34t75 96t45 140t21.5 175q-87 -84 -225 -84q-206 0 -319 107.5t-113 301.5zM340 827q0 -350 188 -350q52 0 90 19t60 48.5t34.5 77.5t16.5 94t4 109q0 94 -20 172t-68 131.5t-117 53.5q-103 0 -145.5 -87.5t-42.5 -267.5z" />
<glyph unicode=":" horiz-adv-x="563" d="M92 133q0 70 53 112t136 42q84 0 137 -42t53 -112q0 -71 -52.5 -112t-137.5 -41q-83 0 -136 41t-53 112zM92 725q0 70 53 112t136 42q84 0 137 -42t53 -112q0 -71 -52.5 -112.5t-137.5 -41.5q-83 0 -136 41.5t-53 112.5z" />
<glyph unicode=";" horiz-adv-x="565" d="M80 725q0 70 52.5 112t135.5 42q84 0 137.5 -42t53.5 -112q0 -71 -53 -112.5t-138 -41.5q-83 0 -135.5 41.5t-52.5 112.5zM100 106q0 63 43.5 108.5t118.5 45.5q98 0 156.5 -62.5t58.5 -152.5q0 -118 -81.5 -216.5t-196.5 -156.5l-41 43q54 33 94.5 92.5t40.5 116.5 q0 62 -78 62q-57 0 -86 31.5t-29 88.5z" />
<glyph unicode="&#x3c;" d="M111 420v49l720 434v-115l-524 -317l-65 -25l65 -28l524 -316v-114z" />
<glyph unicode="=" d="M72 211v104h798v-104h-798zM72 604v103h798v-103h-798z" />
<glyph unicode="&#x3e;" d="M111 -10v114l524 318l65 24l-65 29l-524 316v114l720 -432v-49z" />
<glyph unicode="?" horiz-adv-x="845" d="M27 1190q0 92 105 137t274 45q192 0 294.5 -58t102.5 -167q0 -49 -21.5 -93.5t-56 -80t-76 -68.5t-83.5 -64t-76.5 -61.5t-56 -66.5t-21.5 -74q0 -88 90 -143l-35 -54q-48 13 -99.5 45t-93 87t-41.5 114q0 47 29 95t70.5 89.5t82.5 84.5t70 95t29 105q0 65 -39 105.5 t-104 40.5q-43 0 -71 -18.5t-28 -49.5q0 -13 8.5 -39t8.5 -43q0 -46 -37 -70t-88 -24q-67 0 -102 38.5t-35 92.5zM211 131q0 64 52 109t134 45q80 0 134.5 -43t54.5 -109q0 -67 -53.5 -110t-135.5 -43q-80 0 -133 42.5t-53 108.5z" />
<glyph unicode="@" horiz-adv-x="1589" d="M43 365q0 167 66 325.5t178.5 279t274.5 194t343 73.5q180 0 327 -80.5t229.5 -220t82.5 -309.5q0 -173 -94 -333.5t-270 -250.5q-114 -63 -217 -63q-50 0 -66 21.5t-16 72.5q0 85 47 278q-85 -196 -188.5 -284t-209.5 -88q-90 0 -139 65.5t-49 183.5q0 163 69.5 315.5 t192.5 249.5t266 97q101 0 140 -80l10 41l280 35l-47 -195q-38 -151 -64 -299t-26 -205q0 -34 27 -34q52 0 116.5 68t112 180.5t47.5 222.5q0 145 -74 268t-203.5 195.5t-283.5 72.5q-147 0 -273 -48t-214.5 -128t-151.5 -185t-93 -218.5t-30 -227.5q0 -264 185.5 -429 t496.5 -165q191 -1 340.5 62.5t288.5 202.5l49 -60q-150 -150 -315 -215t-381 -63q-347 0 -555.5 184.5t-208.5 493.5zM616 268q0 -145 76 -145q30 0 80 62.5t97 151t81.5 197t34.5 189.5q0 45 -22 75.5t-60 30.5q-73 0 -139.5 -89.5t-108.5 -241.5q-39 -125 -39 -230z" />
<glyph unicode="A" horiz-adv-x="1255" d="M-41 0v76l59 -4h9q41 0 67 39q36 53 62 118l422 1014h100l426 -1018q26 -67 59 -116q27 -37 72 -37h10l51 4v-76h-614v76l94 -4q29 -2 44.5 8.5t17 30.5t-4 42t-16.5 48l-76 180h-450l-70 -168q-13 -30 -20 -54t-8.5 -46t10 -33.5t35.5 -9.5l92 6v-76h-371zM319 453h394 l-199 471z" />
<glyph unicode="B" horiz-adv-x="1189" d="M80 0v76l98 -4q33 0 33 45v993q0 15 -9.5 28t-25.5 13l-96 -4v76h637q173 0 263.5 -74t90.5 -219q0 -107 -77 -182t-206 -99q147 0 249 -91t102 -226q0 -332 -453 -332h-606zM494 100q0 -26 28 -26h101q104 0 164.5 65.5t60.5 196.5q0 139 -49.5 202.5t-149.5 63.5h-155 v-502zM494 674h106q94 0 139 58.5t45 187.5q0 231 -188 231h-78q-21 0 -24 -25v-452z" />
<glyph unicode="C" horiz-adv-x="1220" d="M61 604q0 302 168.5 470.5t468.5 168.5q76 0 142.5 -13.5t105.5 -30.5t91 -30.5t104 -13.5q-8 -63 -8 -154q0 -106 8 -114h-66q-25 121 -125 206t-223 85q-169 0 -262.5 -148.5t-93.5 -425.5q0 -263 98 -408t266 -145q128 0 225.5 83t124.5 208h74q-12 -101 -12 -174 q0 -58 6 -96h-12q-50 0 -125 -23t-162.5 -46t-165.5 -23q-291 0 -459 167t-168 457z" />
<glyph unicode="D" horiz-adv-x="1298" d="M80 0v76l80 -4q30 -3 30 45v991q0 43 -38 43l-72 -4v76h500q342 0 502.5 -142t160.5 -469q0 -612 -639 -612h-524zM473 100q0 -26 25 -26h47q111 0 181 22.5t119 83t69 163.5t20 267q0 131 -13.5 222.5t-41.5 154.5t-75.5 98.5t-109 50.5t-149.5 15h-47q-25 0 -25 -27 v-1024z" />
<glyph unicode="E" horiz-adv-x="1169" d="M80 0v78l74 -6q36 0 36 45v991q0 19 -11 31.5t-29 11.5l-70 -4v76h903q29 0 35 2v-318h-72q0 129 -69 186.5t-222 57.5h-157q-25 0 -25 -29v-456h148q69 0 112 55t43 151h70v-481h-70q0 87 -45.5 145t-109.5 58h-148v-494q0 -26 25 -26h225q139 0 212 75.5t73 217.5h71 v-373q-47 6 -196 6h-803z" />
<glyph unicode="F" horiz-adv-x="1083" d="M80 0v78l74 -6q36 0 36 45v991q0 43 -34 43h-4l-72 -4v76h928q24 0 30 2v-318h-71v10q1 119 -67 175q-70 58 -224 59h-178q-25 0 -25 -27v-479h139q73 0 117.5 56t44.5 153h70v-485h-70q0 93 -44.5 148.5t-117.5 55.5h-139v-458q0 -19 11 -31t28 -12l106 6v-78h-538z" />
<glyph unicode="G" horiz-adv-x="1331" d="M61 608q0 312 166.5 473.5t474.5 161.5q95 0 188 -22t161.5 -44t103.5 -22q-8 -54 -8 -123q0 -38 8 -160h-102q2 14 2 37q-5 128 -89.5 198.5t-240.5 70.5q-169 0 -261.5 -150.5t-92.5 -437.5q0 -539 334 -539q63 0 110.5 19.5t89.5 68.5v303q0 45 -39 45l-121 -4v74h547 v-74l-65 4q-18 0 -28.5 -12.5t-10.5 -30.5v-372q-20 4 -39 4q-32 0 -80.5 -15t-95 -33t-124.5 -33t-163 -15q-293 0 -459 159.5t-166 468.5z" />
<glyph unicode="H" horiz-adv-x="1425" d="M80 0v76l72 -4h4q34 0 34 45v991q0 20 -8.5 32t-29.5 11l-72 -4v76h534v-76l-100 4q-19 1 -30 -11t-11 -32v-449h479v449q0 20 -9 32t-30 11l-100 -4v76h535v-76l-74 4q-19 1 -29 -11t-10 -32v-991q0 -45 35 -45h4l74 4v-76h-535v76l100 -4q39 0 39 45v471h-479v-471 q0 -45 41 -45l100 4v-76h-534z" />
<glyph unicode="I" horiz-adv-x="665" d="M80 0v76l72 -4h4q34 0 34 45v991q0 19 -9.5 31.5t-28.5 11.5l-72 -4v76h508v-76l-74 4q-18 1 -29.5 -11.5t-11.5 -31.5v-991q0 -45 36 -45h5l74 4v-76h-508z" />
<glyph unicode="J" horiz-adv-x="940" d="M49 -2v354h90q0 -48 8.5 -96.5t26.5 -97t54.5 -79t84.5 -30.5q89 0 126.5 71.5t37.5 246.5v741q0 19 -11 31.5t-28 11.5l-141 -4v76h573v-76l-69 4q-19 1 -30 -11t-11 -30v-743q0 -387 -400 -387q-61 0 -139.5 15t-99.5 15q-60 0 -72 -12z" />
<glyph unicode="K" horiz-adv-x="1308" d="M80 0v76l72 -4h4q34 0 34 45v991q0 20 -9.5 32t-28.5 11l-72 -4v76h534v-76l-100 4q-41 0 -41 -45v-537l428 508q35 41 35 56q0 18 -21 18l-73 -4v76h368v-76l-69 4q-33 2 -60 -10.5t-59 -48.5l-287 -330l449 -664q19 -28 49 -28q34 0 61 6v-76h-583v76l88 -6 q28 -2 37.5 10t-7.5 41l-282 422l-74 -84v-342q0 -45 36 -45h5l94 4v-76h-528z" />
<glyph unicode="L" horiz-adv-x="1052" d="M80 0v78l80 -6q30 0 30 45v991q0 18 -10.5 31t-27.5 12l-72 -4v76h534v-76l-100 4q-18 1 -29.5 -11.5t-11.5 -31.5v-1008q0 -26 25 -26h170q133 0 202.5 70.5t69.5 205.5h68v-356q-38 6 -254 6h-674z" />
<glyph unicode="M" horiz-adv-x="1810" d="M70 0v76l80 -4q40 0 40 45v1022q0 15 -20 12l-86 -4v76h424l428 -893l403 893h381v-76l-61 4q-18 1 -29.5 -11t-11.5 -30v-993q0 -45 36 -45h5l72 4v-76h-535v76l100 -4q41 0 41 45v909l-471 -1046h-65v2l-525 1097v-962q0 -45 39 -45l101 4v-76h-346z" />
<glyph unicode="N" horiz-adv-x="1386" d="M70 0v59l80 -4q40 0 40 45v1022q0 19 -10.5 31.5t-29.5 11.5l-80 -4v62h422l622 -846v747q0 41 -35 41h-6l-100 -4v62h346v-62l-80 4h-4q-35 0 -35 -43v-1134h-123l-801 1087v-975q0 -45 39 -45l101 4v-59h-346z" />
<glyph unicode="O" horiz-adv-x="1388" d="M61 612q0 305 166.5 468t466.5 163q305 0 469 -165.5t164 -465.5q0 -301 -166 -466.5t-467 -165.5t-467 165.5t-166 466.5zM371 612q0 -214 36 -338.5t104.5 -173.5t182.5 -49t182.5 49t105 173.5t36.5 338.5q0 213 -36.5 337.5t-105 174.5t-182.5 50t-182.5 -50 t-104.5 -174t-36 -338z" />
<glyph unicode="P" horiz-adv-x="1120" d="M80 0v76l72 -4h4q34 0 34 45v989q0 25 -9.5 35.5t-37.5 9.5l-63 -4v76h538q232 0 343.5 -85t111.5 -259q0 -168 -108 -269.5t-291 -101.5h-201v-391q0 -45 41 -45l100 4v-76h-534zM473 582h113q82 0 136 84t54 213q0 122 -53.5 197t-142.5 75h-82q-8 0 -16.5 -7.5 t-8.5 -17.5v-544z" />
<glyph unicode="Q" horiz-adv-x="1370" d="M61 612q0 305 166.5 468t466.5 163q305 0 469 -165.5t164 -465.5q0 -263 -128 -424t-365 -198v-10q0 -132 78 -218q80 -90 216 -90l-20 -73q-261 0 -420 111q-153 107 -153 273v11q-228 41 -351 201t-123 417zM371 612q0 -214 36 -338.5t104.5 -173.5t182.5 -49t182.5 49 t105 173.5t36.5 338.5q0 213 -36.5 337.5t-105 174.5t-182.5 50t-182.5 -50t-104.5 -174t-36 -338z" />
<glyph unicode="R" horiz-adv-x="1222" d="M80 0v76l72 -4h4q34 0 34 45v991q0 19 -11 31.5t-34 11.5l-65 -4v76h532q219 0 324.5 -75t105.5 -233q0 -124 -79 -207.5t-218 -113.5q42 0 87 -14t88 -43t76.5 -69t54 -97t20.5 -121q0 -59 16.5 -122.5t42.5 -70.5q11 -5 30 -4t30 8v-61h-363q-25 51 -28 135 q-4 54 -4 78v68q0 72 -22.5 127t-61.5 86t-85 46t-98 15h-55v-438q0 -45 41 -45l100 4v-76h-534zM473 627h129q73 0 117.5 70.5t44.5 191.5q0 138 -49 200t-152 62h-65q-25 0 -25 -21v-503z" />
<glyph unicode="S" horiz-adv-x="1019" d="M82 410l68 6q21 -178 116 -270.5t236 -92.5q104 0 163.5 57.5t61.5 151.5q0 143 -197 219l-200 84q-234 96 -234 318q0 73 26.5 137t77 114t132 79.5t184.5 29.5q20 0 40 -1.5t34.5 -2.5t35 -5.5t30 -6.5t33.5 -9.5t31 -9.5t36.5 -12t36.5 -12q37 -13 59 -13q33 0 57 9 q-6 -50 -6 -156q0 -98 12 -135h-67q0 126 -87 205.5t-212 79.5q-99 0 -162 -51t-63 -134q0 -58 42 -103t134 -83l172 -74q160 -70 228.5 -148.5t68.5 -207.5q0 -171 -116 -282t-329 -111q-93 0 -194 26q-116 31 -160 31q-19 0 -47.5 -4t-32.5 -6q8 44 8 157q0 216 -16 226z " />
<glyph unicode="T" horiz-adv-x="1114" d="M31 909v320q36 -4 98 -4h858q76 0 96 4v-320h-67q0 125 -59 184.5t-193 59.5h-41q-22 0 -25 -23v-1013q0 -45 41 -45l109 4v-76h-582v76l111 -4q18 0 28.5 15t10.5 36v1005q0 25 -25 25h-37q-134 0 -194 -59.5t-60 -184.5h-69z" />
<glyph unicode="U" horiz-adv-x="1349" d="M72 1147v76h540v-76l-100 4q-18 1 -29.5 -10.5t-11.5 -30.5v-702q0 -175 81 -260t234 -85q157 0 230.5 95t73.5 258v692q0 21 -10 32.5t-27 10.5l-101 -4v76h346v-76l-79 4q-18 1 -29.5 -10.5t-11.5 -30.5v-694q0 -206 -110.5 -321t-334.5 -115q-545 0 -545 428v700 q0 18 -10.5 31t-27.5 12z" />
<glyph unicode="V" horiz-adv-x="1243" d="M-4 1147v76h524v-76l-102 4q-13 0 -19 -16t0 -33l336 -776l328 753q15 31 15 49q0 23 -25 23l-99 -4v76h330v-76l-74 4q-16 1 -23.5 -8.5t-19.5 -38.5l-481 -1112h-106l-480 1112q-21 47 -47 47z" />
<glyph unicode="W" horiz-adv-x="1865" d="M-6 1147v76h524v-76l-104 4q-27 0 -27 -23q0 -4 6 -22l264 -735l242 706l-4 10q-11 26 -15.5 36t-15 19.5t-24.5 8.5l-84 -4v76h506v-76l-86 4q-16 0 -21.5 -16.5t0.5 -28.5l287 -778l264 782q7 17 0.5 29.5t-23.5 11.5l-106 -4l2 76h328v-76l-62 4q-18 1 -31.5 -12.5 t-19.5 -30.5l-381 -1128h-94l-375 978l-332 -978h-100l-412 1126q-15 45 -43 45z" />
<glyph unicode="X" horiz-adv-x="1198" d="M39 0v78l74 -4q43 0 69 45l303 481l-303 512q-23 39 -65 39l-51 -4v76h550v-76l-86 4q-24 1 -31.5 -14t3.5 -29l198 -346l220 348q12 17 8.5 29.5t-25.5 11.5l-88 -4v76h334v-76l-70 4q-39 0 -63 -41l-271 -432l342 -574q20 -35 53 -35q4 0 9 1l65 6v-76h-567v76l101 -6 q22 -1 24.5 13.5t-10.5 33.5l-236 395l-250 -399q-10 -19 -5 -31t18 -10l92 6v-78h-342z" />
<glyph unicode="Y" horiz-adv-x="1144" d="M-2 1147v76h553v-76l-109 4q-22 1 -24 -15.5t10 -33.5l272 -455l261 463q8 12 5 26.5t-20 14.5l-106 -4v76h325v-76l-61 4q-33 0 -57 -43l-308 -551v-442q0 -43 41 -43l99 4v-76h-562v76l101 -4q39 0 39 45v407l-353 588q-23 39 -49 39z" />
<glyph unicode="Z" horiz-adv-x="1120" d="M63 0v55l654 1096h-246q-147 0 -218 -59.5t-71 -184.5h-69v322q18 0 95.5 -3t127.5 -3h723v-49l-647 -1102h288q141 0 224.5 72t83.5 198h71l-16 -350q-24 8 -232 8h-768z" />
<glyph unicode="[" horiz-adv-x="571" d="M94 -301v1683h410v-69h-168v-1544h168v-70h-410z" />
<glyph unicode="\" horiz-adv-x="526" d="M-16 1282l98 23l448 -1289l-100 -26z" />
<glyph unicode="]" horiz-adv-x="571" d="M68 -231h168v1544h-168v69h409v-1683h-409v70z" />
<glyph unicode="^" d="M37 657l412 689h47l409 -689h-110l-297 502l-27 64l-22 -64l-302 -502h-110z" />
<glyph unicode="_" horiz-adv-x="1009" d="M0 -293h1010v-98h-1010v98z" />
<glyph unicode="`" horiz-adv-x="565" d="M51 1262q0 21 50 48t87 27q15 0 26.5 -6.5t18 -12.5t29.5 -32l195 -213q35 -38 35 -55q0 -21 -25 -21q-23 0 -47 19l-342 209q-27 18 -27 37z" />
<glyph unicode="a" horiz-adv-x="956" d="M27 221q0 150 131 221.5t413 71.5v143q0 37 -4.5 62t-17.5 50.5t-42 38.5t-73 13q-71 0 -101 -25t-30 -59q0 -20 9.5 -46t9.5 -42q0 -44 -32.5 -69t-80.5 -25q-58 0 -93.5 33.5t-35.5 85.5q0 98 102 157.5t277 59.5q381 0 381 -273v-514q0 -38 26 -38l68 4v-70h-373 q8 48 8 76l2 55q-91 -141 -282 -141q-262 0 -262 231zM305 246q0 -135 101 -135q63 0 109 54t56 142v135q-139 0 -202.5 -49t-63.5 -147z" />
<glyph unicode="b" horiz-adv-x="1052" d="M35 1430v65h362v-766q28 74 97.5 118t164.5 44q179 0 270 -116t91 -343q0 -223 -97 -337.5t-278 -114.5q-57 0 -101 10t-74.5 30.5t-49 38.5t-39.5 47q-15 19 -37 19q-37 0 -55.5 -36.5t-18.5 -98.5h-143v1403q0 41 -27 41zM401 381q0 -92 17 -158.5t58.5 -107.5 t105.5 -41q87 0 119 77.5t32 280.5q0 93 -6 156.5t-22 113.5t-45 73.5t-74 23.5q-88 0 -136.5 -89.5t-48.5 -240.5v-88z" />
<glyph unicode="c" horiz-adv-x="899" d="M41 428q0 115 35 204.5t97.5 145.5t145 84.5t181.5 28.5q155 0 256.5 -61.5t101.5 -153.5q0 -54 -33.5 -90.5t-97.5 -36.5q-48 0 -79.5 24t-31.5 68q0 17 9.5 43t9.5 45q0 45 -36 68.5t-89 23.5q-89 0 -137.5 -82.5t-48.5 -281.5q0 -115 17 -195.5t48.5 -124.5t71 -63 t90.5 -19q84 0 152.5 46t105.5 151l63 -31q-86 -241 -372 -241q-95 0 -175.5 25t-145 76.5t-101.5 140.5t-37 206z" />
<glyph unicode="d" horiz-adv-x="1069" d="M49 432q0 227 93.5 343t275.5 116q95 0 163 -46.5t91 -113.5v662q0 41 -27 41l-94 -4v65h389v-1391q0 -38 27 -38l69 4v-70h-379q5 20 5 33v45q0 15 2 32.5t2 18.5q-26 -69 -88 -109t-158 -40q-199 0 -285 110.5t-86 341.5zM336 432q0 -201 32 -279.5t119 -78.5 q93 0 137 76t44 231v88q0 156 -47.5 243t-135.5 87q-42 0 -71.5 -25.5t-46 -75t-24 -114.5t-7.5 -152z" />
<glyph unicode="e" horiz-adv-x="958" d="M41 432q0 235 116.5 347t348.5 112q186 0 298.5 -101.5t113.5 -287.5v-76h-590q0 -176 65 -269t193 -94q97 0 166 48.5t102 117.5l55 -39q-48 -100 -151 -155t-248 -55q-243 0 -356 110t-113 342zM330 494h272q21 0 31 14t10 53q0 132 -33.5 196t-109.5 64 q-88 0 -129 -90.5t-41 -236.5z" />
<glyph unicode="f" horiz-adv-x="612" d="M41 0v70l76 -4q26 0 26 38v701h-80v65h80v125q0 59 6 112.5t20 114.5t42 109.5t67.5 89.5t101 63.5t138.5 22.5q125 0 210 -61t85 -150q0 -51 -32.5 -88t-98.5 -37q-48 0 -79.5 22t-31.5 60q0 16 9.5 45.5t9.5 49.5q0 38 -19 64t-57 26q-56 0 -86.5 -48t-30.5 -173 q0 -50 6.5 -151.5t6.5 -145.5v-50h161v-65h-159v-701q0 -38 26 -38l127 4v-70h-524z" />
<glyph unicode="g" horiz-adv-x="1046" d="M74 -252q0 153 205 242q-79 16 -128 58t-49 106q0 42 21 76.5t76 84.5l63 56q-162 74 -162 233q0 136 111.5 211.5t296.5 75.5q88 0 160 -17q130 170 256 170q67 0 96 -31.5t29 -72.5q0 -36 -20.5 -64t-65.5 -28q-28 0 -46 11t-25.5 25t-20.5 25t-31 11q-25 0 -56.5 -18 t-54.5 -46q178 -70 178 -246q0 -136 -108 -210t-291 -74q-84 0 -164 18q-43 -37 -43 -76q0 -65 119 -65h203q187 0 285 -72t98 -235q0 -187 -142 -292.5t-383 -105.5q-193 0 -300 64.5t-107 185.5zM262 -233q0 -94 58.5 -147.5t179.5 -53.5q130 0 206 70t76 182 q0 81 -44.5 120t-145.5 39h-205h-4q-51 -20 -86 -80.5t-35 -129.5zM375 602q0 -121 27.5 -168t99.5 -47q74 0 102.5 49.5t28.5 167.5q0 117 -29 167t-102 50q-70 0 -98.5 -48t-28.5 -171z" />
<glyph unicode="h" horiz-adv-x="1103" d="M41 0v70l68 -4q26 6 26 38v1287q0 35 -26 41l-68 -5v68h362v-811q44 98 125.5 152.5t192.5 54.5q139 0 202.5 -70t63.5 -223v-494q0 -38 27 -38l69 4v-70h-469v70l78 -4q27 6 27 38v496q0 109 -17 152t-79 43q-87 0 -153 -108q-65 -106 -64 -290v-6l-3 45v-332 q0 -38 27 -38l80 4v-70h-469z" />
<glyph unicode="i" horiz-adv-x="538" d="M41 0v70l68 -4q26 -3 26 38v662q0 35 -24 41l-68 -4v67h360v-766q0 -41 27 -38l68 4v-70h-457zM106 1219q0 58 44 92.5t114 34.5t114 -34.5t44 -92.5q0 -60 -43.5 -94.5t-114.5 -34.5t-114.5 34.5t-43.5 94.5z" />
<glyph unicode="j" horiz-adv-x="536" d="M-184 -340q0 54 35 86.5t94 32.5q14 0 30 -3.5t35.5 -12t32 -28.5t12.5 -48q0 -10 -6 -32.5t-6 -31.5q0 -24 12 -37.5t33 -13.5q32 0 49 29.5t17 72.5q0 13 -9.5 90.5t-9.5 159.5v842q0 19 -6.5 30.5t-19.5 10.5l-70 -4v67h364v-895q0 -473 -323 -473q-125 0 -194.5 43.5 t-69.5 114.5zM106 1219q0 58 44 92.5t114 34.5t114 -34.5t44 -92.5q0 -60 -43.5 -94.5t-114.5 -34.5t-114.5 34.5t-43.5 94.5z" />
<glyph unicode="k" horiz-adv-x="1073" d="M41 0v70l68 -4q26 6 26 38v1287q0 43 -24 43l-68 -4v65h360v-1008l328 281q7 7 10.5 17t-0.5 17.5t-16 6.5l-88 -4v65h348v-65l-74 4q-31 0 -63 -29l-197 -168l295 -510q9 -17 25.5 -27.5t29.5 -8.5l58 4v-70h-492v70l68 -4q18 -1 22.5 8t-4.5 20l-202 346l-48 -39v-297 q0 -41 27 -38l72 4v-70h-461z" />
<glyph unicode="l" horiz-adv-x="538" d="M41 0v70l68 -4q26 6 26 38v1289q0 34 -24 43l-68 -4v65h360v-1393q0 -41 27 -38l68 4v-70h-457z" />
<glyph unicode="m" horiz-adv-x="1652" d="M41 0v70l68 -4q26 6 26 38v662q0 35 -26 41l-68 -4v67h375q-10 -30 -10 -69v-115q43 96 122 150.5t191 54.5q110 0 170.5 -51.5t75.5 -165.5q43 104 124 160.5t195 56.5q132 0 192 -70t60 -223v-494q0 -38 27 -38l67 4v-70h-463v70l74 -4q27 6 27 38v496q0 53 -2.5 84.5 t-10.5 59t-25 39.5t-44 12q-68 0 -136 -93t-79 -249v-349q0 -38 26 -38l72 4v-70h-467v70l74 -4q26 6 26 38v496q0 108 -16 151.5t-68 43.5q-32 0 -67 -24t-66.5 -67.5t-54.5 -114t-27 -153.5v-332q0 -41 27 -38l74 4v-70h-463z" />
<glyph unicode="n" horiz-adv-x="1103" d="M41 0v70l68 -4q26 6 26 38v662q0 35 -26 41l-68 -4v67h373q-11 -33 -11 -71v-115q44 98 125.5 152.5t192.5 54.5q139 0 202.5 -70t63.5 -223v-494q0 -38 27 -38l69 4v-70h-469v70l78 -4q27 6 27 38v496q0 106 -17.5 150.5t-78.5 44.5q-87 0 -153 -108q-65 -106 -64 -290 v-6l-3 45v-332q0 -38 27 -38l80 4v-70h-469z" />
<glyph unicode="o" horiz-adv-x="997" d="M41 436q0 221 115 338t344 117q456 0 456 -455q0 -456 -456 -456q-230 0 -344.5 116t-114.5 340zM328 432q0 -206 40.5 -293.5t131.5 -87.5q93 0 132.5 86.5t39.5 294.5q0 214 -39.5 301.5t-132.5 87.5q-91 0 -131.5 -88.5t-40.5 -300.5z" />
<glyph unicode="p" horiz-adv-x="1067" d="M33 803v67h370q-8 -52 -8 -104v-51q31 85 95 130.5t176 45.5q179 0 265.5 -113.5t86.5 -345.5q0 -227 -95 -339.5t-294 -112.5q-172 0 -234 100v-465q0 -41 27 -41l127 4v-67h-508v67l59 -4q27 3 27 41v1151q0 41 -27 41zM399 381q0 -307 176 -307q90 0 123 77t33 281 q0 210 -29.5 288.5t-115.5 78.5q-88 0 -137.5 -90t-49.5 -240v-88z" />
<glyph unicode="q" horiz-adv-x="1050" d="M49 434q0 224 95 340.5t280 116.5q87 0 148 -26.5t104 -86.5l4 -4q3 -5 4.5 -7t5.5 -6t8.5 -6t11 -3.5t13.5 -1.5q74 0 74 120h143v-1255q0 -42 27 -39l57 2v-67h-494v67l115 -2q27 3 27 39v512q-24 -59 -91.5 -103t-172.5 -44q-174 0 -266.5 114t-92.5 340zM336 449 q0 -144 17 -227.5t49 -115.5t85 -32q49 0 86.5 31t57 80t28.5 99t9 99v90q0 64 -8 117.5t-26 103t-54.5 77.5t-87.5 28q-87 0 -121.5 -80.5t-34.5 -269.5z" />
<glyph unicode="r" horiz-adv-x="858" d="M43 803v67h373q-13 -35 -13 -94v-94q73 209 242 209q87 0 144 -51t57 -133q0 -61 -35.5 -92t-87.5 -31q-43 0 -77 21.5t-34 62.5q0 16 7.5 42t7.5 42q0 45 -39 45q-54 0 -97.5 -64.5t-65 -151t-22.5 -169.5v-308q0 -38 27 -38l141 4v-70h-520v70l58 -4q26 0 26 38v662 q0 41 -26 41z" />
<glyph unicode="s" horiz-adv-x="849" d="M72 20l10 271l70 4q0 -105 87.5 -174.5t209.5 -69.5q68 0 107.5 32t39.5 89q0 47 -29.5 75t-101.5 46l-148 41q-120 33 -175.5 100.5t-55.5 171.5q0 128 88.5 206.5t247.5 78.5q64 0 149 -22.5t117 -22.5q33 0 62 16l-13 -233h-61q0 77 -64.5 134.5t-175.5 57.5 q-63 0 -101 -31.5t-38 -78.5q0 -39 29 -67.5t84 -41.5l141 -37q141 -36 193.5 -104t52.5 -174q0 -146 -99 -226.5t-260 -80.5q-48 0 -96 9t-149 36q-33 8 -58 8q-43 0 -63 -13z" />
<glyph unicode="t" horiz-adv-x="665" d="M20 805v65q61 0 97 7t65 30.5t46 63t34 108.5h150v-209h202v-65h-202v-627q0 -71 18.5 -96t56.5 -25q25 0 53 21.5t42 58.5l55 -31q-50 -124 -225 -124q-269 0 -269 200v623h-123z" />
<glyph unicode="u" horiz-adv-x="1089" d="M23 803v67h362v-600q0 -104 17 -149t73 -45q83 0 147 108q62 103 62 279v16l2 -24v311q0 41 -27 41l-79 -4v67h374v-766q0 -35 27 -38l68 4v-70h-375q10 30 10 90v92q-91 -202 -311 -202q-134 0 -195 72.5t-61 230.5v485q0 39 -27 39z" />
<glyph unicode="v" horiz-adv-x="972" d="M-27 803v67h514v-67l-84 4q-15 0 -26 -12.5t-4 -28.5l194 -471l191 479q6 11 2.5 22.5t-19.5 10.5l-84 -4v67h295v-67l-65 4q-35 3 -47 -31l-320 -786h-125l-315 790q-5 11 -16.5 19.5t-24.5 7.5z" />
<glyph unicode="w" horiz-adv-x="1519" d="M-27 803v67h521v-67l-91 4q-22 1 -29 -10.5t-1 -30.5l168 -471l250 586h98l241 -574l170 465q7 12 3 24t-25 11l-109 -4v67h332v-67l-76 4q-29 0 -43 -35l-303 -792h-96l-250 585l-260 -585h-90l-289 800q-12 27 -35 27z" />
<glyph unicode="x" horiz-adv-x="1071" d="M12 0v70l80 -4q26 0 43 26l240 332l-252 356q-15 27 -39 27l-72 -4v67h541v-67l-94 4q-14 0 -21 -7.5t2 -19.5l189 -266l202 258q9 10 6.5 22.5t-18.5 12.5l-88 -4v67h311v-67l-77 4q-11 0 -26.5 -9t-25.5 -22l-243 -319l256 -365q17 -26 39 -26l82 4v-70h-551v70l100 -7 q13 -1 17 10t-3 19l-192 273l-197 -271q-4 -4 -4 -8q0 -20 27 -20l88 4v-70h-320z" />
<glyph unicode="y" horiz-adv-x="1026" d="M-4 803v67h528v-67l-92 4q-14 0 -22 -11.5t-2 -23.5l219 -450l190 454q12 31 -20 31l-97 -4v67h324v-67l-76 4h-4q-37 0 -51 -39l-418 -1006q-59 -142 -125 -196.5t-162 -54.5q-75 0 -121.5 34t-50.5 99q0 63 36 98t81 35q41 0 68 -19t37 -41.5t25.5 -41.5t35.5 -19 q27 0 47 22t43 78l96 232l-376 792q-13 27 -33 27z" />
<glyph unicode="z" horiz-adv-x="907" d="M70 -4v57l434 752h-123q-192 0 -229 -221h-58l19 290q1 0 29 -1t74.5 -2t92.5 -1h508v-53l-424 -749h115q264 0 264 217h59v-285h-548q-62 0 -136 -2t-77 -2z" />
<glyph unicode="{" horiz-adv-x="573" d="M61 518v57q57 12 80 47.5t23 110.5v459q0 111 51 150.5t197 39.5h100v-75h-55q-64 0 -64 -101v-473q0 -94 -45.5 -129.5t-181.5 -56.5q138 -26 182 -60t45 -127v-483q0 -50 14.5 -75t49.5 -25h55v-76h-100q-149 0 -198.5 39t-49.5 151v469q0 85 -18.5 111t-84.5 47z" />
<glyph unicode="|" horiz-adv-x="491" d="M201 -489v1984h90v-1984h-90z" />
<glyph unicode="}" horiz-adv-x="579" d="M68 -223h55q35 0 49 25t14 75v483q1 93 45.5 127t182.5 60q-136 21 -182 57t-46 129v473q0 101 -63 101h-55v75h100q146 0 197 -39.5t51 -150.5v-459q0 -75 22.5 -110.5t79.5 -47.5v-57q-66 -21 -84 -47t-18 -111v-469q0 -112 -49.5 -151t-198.5 -39h-100v76z" />
<glyph unicode="~" d="M35 524q87 156 233 156q44 0 100.5 -21t101.5 -45.5t99.5 -45.5t96.5 -21q52 0 90.5 26.5t85.5 94.5l63 -68q-44 -79 -107.5 -123.5t-131.5 -44.5q-43 0 -99 21t-101.5 45.5t-100.5 45.5t-97 21q-53 0 -87.5 -21.5t-80.5 -88.5z" />
<glyph unicode="&#xa1;" horiz-adv-x="585" d="M80 758q0 65 53.5 109t134.5 44t134 -44t53 -109q0 -64 -53 -108t-134 -44t-134.5 44t-53.5 108zM121 -340q0 49 29.5 180.5t58.5 297.5t29 300q0 41 30 41q31 0 31 -41q0 -134 29.5 -301.5t58.5 -299t29 -177.5q0 -72 -36.5 -114t-107.5 -42q-75 0 -113 42t-38 114z" />
<glyph unicode="&#xa2;" horiz-adv-x="847" d="M70 592q0 176 96.5 267t255.5 102v364h92v-364q123 -7 195.5 -56t72.5 -119q0 -47 -31.5 -78.5t-88.5 -31.5q-46 0 -77.5 22t-31.5 64q0 16 7 36t7 33q0 34 -24.5 51t-61.5 17q-66 0 -102.5 -64.5t-36.5 -218.5q0 -98 15 -163.5t42.5 -97.5t57 -44t69.5 -12 q135 0 199 147l57 -20q-36 -100 -103.5 -144t-164.5 -51v-426h-92v426q-72 4 -132 24.5t-111 61t-80 111t-29 164.5z" />
<glyph unicode="&#xa3;" horiz-adv-x="1038" d="M57 33q82 46 131.5 123t49.5 163l-9 293h-155v62h153l-4 166q0 212 100.5 307.5t327.5 95.5q123 0 199 -52.5t76 -129.5q0 -52 -37 -84.5t-90 -32.5q-48 0 -82.5 25t-34.5 63q0 16 9 41t9 39q0 70 -79 70q-57 0 -93 -50t-36 -135q0 -20 16 -139t18 -184h244v-62h-244 v-118q0 -84 -45 -160.5t-114 -134.5h264q151 0 202.5 30.5t51.5 114.5h65l-20 -350q-13 0 -65.5 3t-94.5 3h-477q-79 0 -232 -6z" />
<glyph unicode="&#xa4;" horiz-adv-x="907" d="M78 227l102 103q-74 93 -74 213t72 211l-98 98l63 63l99 -98q93 74 213 74t217 -74l96 96l63 -63l-98 -96q72 -94 72 -211q0 -123 -74 -217l98 -101l-63 -63l-98 100q-94 -69 -213 -69q-122 0 -211 73l-103 -102zM184 543q0 -111 79.5 -190t191.5 -79q110 0 189 79.5 t79 189.5q0 109 -79 188.5t-189 79.5q-112 0 -191.5 -79.5t-79.5 -188.5z" />
<glyph unicode="&#xa5;" horiz-adv-x="1181" d="M-2 1147v76h553v-76l-109 4q-22 1 -24 -15.5t10 -33.5l272 -455l261 463q8 12 5 26.5t-20 14.5l-106 -4v76h325v-76l-61 4q-33 0 -57 -43l-228 -410h205v-73h-246l-39 -68v-84h285v-74h-285v-284q0 -43 41 -43l99 4v-76h-562v76l101 -4q39 0 39 45v282h-277v74h277v51 l-60 101h-217v73h172l-248 414q-23 39 -49 39z" />
<glyph unicode="&#xa6;" horiz-adv-x="491" d="M199 231h94v-704h-94v704zM199 543v700h94v-700h-94z" />
<glyph unicode="&#xa7;" horiz-adv-x="899" d="M55 442q0 158 172 248q-85 56 -121 118.5t-36 137.5q0 136 104 216.5t287 80.5q96 0 179 -22t139.5 -71t56.5 -116q0 -57 -37.5 -93t-100.5 -36q-54 0 -82 27.5t-28 68.5q0 21 11 47.5t11 43.5q0 44 -45 67t-104 23q-75 0 -125.5 -35t-50.5 -94q0 -47 30.5 -80t87.5 -62 l252 -135q191 -100 191 -252q0 -158 -172 -245q157 -105 157 -259q0 -136 -104 -216t-287 -80q-96 0 -179 22t-139 70.5t-56 115.5q0 58 37.5 93.5t99.5 35.5q54 0 82 -27t28 -69q0 -21 -11 -47t-11 -43q0 -44 45 -67t104 -23q75 0 125.5 34.5t50.5 94.5q0 46 -30 79t-88 64 l-252 133q-191 100 -191 252zM266 569q0 -44 30.5 -72.5t113.5 -70.5l194 -109q31 36 31 80t-30.5 73t-112.5 73l-195 106q-31 -36 -31 -80z" />
<glyph unicode="&#xa8;" horiz-adv-x="860" d="M55 1219q0 58 44 93.5t114 35.5q68 0 113 -35.5t45 -93.5q0 -59 -44 -94t-114 -35t-114 35t-44 94zM487 1219q0 58 44 93.5t114 35.5q68 0 113 -35.5t45 -93.5q0 -59 -44 -94t-114 -35t-114 35t-44 94z" />
<glyph unicode="&#xa9;" horiz-adv-x="1449" d="M92 610q0 128 49.5 245t133.5 202t201 135.5t247 50.5q128 0 245.5 -50.5t202 -135t135 -202t50.5 -245.5q0 -130 -50.5 -247t-135.5 -200.5t-202 -133t-245 -49.5q-130 0 -247 49.5t-201 133.5t-133.5 200.5t-49.5 246.5zM174 610q0 -152 72 -279t198 -200.5t279 -73.5 q152 0 278 73.5t198.5 200.5t72.5 279t-72 279.5t-198.5 202.5t-278.5 75q-153 0 -279.5 -75t-198 -202.5t-71.5 -279.5zM371 610q0 168 98 260.5t276 92.5q77 0 149.5 -27t109.5 -27q-5 -63 -5 -80q0 -55 5 -65l-52 -4q-10 58 -60 100.5t-106 42.5q-88 0 -129 -66.5 t-41 -226.5q0 -150 44 -215t131 -65q58 0 106.5 42.5t60.5 104.5h56q-6 -91 -6 -106q0 -19 4 -47h-8q-39 0 -123 -29t-142 -29q-172 0 -270 92t-98 252z" />
<glyph unicode="&#xaa;" horiz-adv-x="702" d="M41 842q0 92 83.5 135t272.5 43v84q0 94 -71 94q-45 0 -55.5 -13t-10.5 -57q0 -37 -27.5 -56t-70.5 -19q-41 0 -70 23t-29 65q0 57 64 88t192 31q144 0 210.5 -43.5t66.5 -137.5v-284q0 -15 12 -15l54 2v-65h-263l7 82q-23 -48 -74 -73.5t-119 -25.5q-172 0 -172 142z M246 856q0 -33 15 -51.5t42 -18.5q39 0 65.5 40t26.5 98v32q-86 0 -117.5 -23.5t-31.5 -76.5z" />
<glyph unicode="&#xab;" horiz-adv-x="999" d="M51 422l383 350h88l-200 -350l200 -350h-88zM426 422l383 350h88l-201 -350l201 -350h-88z" />
<glyph unicode="&#xac;" d="M41 639v98h860v-438h-102v340h-758z" />
<glyph unicode="&#xad;" horiz-adv-x="512" d="M45 373v127h422v-127h-422z" />
<glyph unicode="&#xae;" horiz-adv-x="997" d="M84 842q0 178 117 289.5t299 111.5q181 0 297 -111.5t116 -289.5q0 -177 -116.5 -289.5t-296.5 -112.5q-182 0 -299 112.5t-117 289.5zM154 842q0 -150 95.5 -244t248.5 -94t248.5 94t95.5 244t-95.5 244t-248.5 94t-248.5 -94t-95.5 -244zM279 647v55h36q13 0 13 15v264 q0 14 -19 14h-30v56h268q155 0 155 -97q0 -47 -31.5 -79t-92.5 -41q50 0 91 -27t42 -70q0 -16 8 -27.5t29 -7.5v-55h-101q-88 0 -88 80v12q0 54 -49 54h-37v-76q0 -15 19 -15h28v-55h-241zM473 854h25q29 0 44 21.5t15 52.5q0 35 -15.5 51t-37.5 16h-21q-10 0 -10 -6v-135z " />
<glyph unicode="&#xaf;" horiz-adv-x="915" d="M213 1147v96h489v-96h-489z" />
<glyph unicode="&#xb0;" horiz-adv-x="765" d="M174 1034q0 87 61 148t148 61t148 -61t61 -148q0 -86 -61.5 -146.5t-147.5 -60.5t-147.5 60.5t-61.5 146.5zM276 1034q0 -44 32 -76t75 -32q44 0 76.5 32t32.5 76q0 45 -32 77t-77 32q-43 0 -75 -32t-32 -77z" />
<glyph unicode="&#xb1;" d="M41 0v100h860v-100h-860zM41 559v100h375v377h108v-377h377v-100h-377v-381h-108v381h-375z" />
<glyph unicode="&#xb2;" horiz-adv-x="600" d="M27 1253q0 61 67 98.5t193 37.5q127 0 205.5 -39t78.5 -115q0 -67 -64 -118t-196 -99l-168 -57h277q87 0 94 53h51q-14 -58 -22 -193q-16 4 -78 4h-418l-6 131l164 86q76 43 110.5 90.5t34.5 120.5q0 42 -17.5 66t-45.5 24q-26 0 -43 -12.5t-17 -32.5q0 -12 6.5 -32 t6.5 -33q0 -35 -30.5 -54.5t-74.5 -19.5q-55 0 -81.5 27t-26.5 67z" />
<glyph unicode="&#xb3;" horiz-adv-x="595" d="M14 932q0 37 29.5 61.5t75.5 24.5t75 -22t29 -56q0 -7 -2 -21t-2 -20q0 -22 20 -30.5t42 -8.5q41 0 63.5 30t22.5 83q0 59 -43 82.5t-174 29.5v43q46 0 85 11.5t69 45t30 85.5q0 34 -15 53.5t-43 19.5q-20 0 -34.5 -10.5t-14.5 -25.5q0 -6 4.5 -20t4.5 -27 q0 -36 -31.5 -56t-75.5 -20q-50 0 -76 25t-26 59q0 58 73 89.5t185 31.5t185 -31.5t73 -97.5q0 -58 -57 -94.5t-150 -45.5v-6q116 0 179 -33t63 -98q0 -77 -87.5 -123.5t-226.5 -46.5q-118 0 -184 29.5t-66 89.5z" />
<glyph unicode="&#xb4;" horiz-adv-x="565" d="M74 1018q0 17 35 55l194 213q36 40 47 45q11 6 27 6q37 0 87 -27t50 -48q0 -19 -27 -37l-342 -209q-24 -19 -47 -19q-24 0 -24 21z" />
<glyph unicode="&#xb5;" horiz-adv-x="1105" d="M39 -422l67 -2q27 3 27 39v1153q0 39 -27 39l-67 -4v67h362v-600q0 -104 17.5 -149t73.5 -45q82 0 145 105.5t63 291.5v293q0 41 -24 41l-80 -4v67h375v-766q0 -35 26 -38l68 4v-70h-375q10 33 10 92v92q-37 -83 -106.5 -140.5t-155.5 -57.5q-13 0 -37 4v-375 q0 -39 27 -39l119 2v-67h-508v67z" />
<glyph unicode="&#xb6;" horiz-adv-x="1021" d="M61 883q0 159 108 249.5t298 90.5h512v-78h-191v-1696h-88v1696h-67q-78 0 -78 -78v-1618h-88v1096q-193 0 -299.5 87t-106.5 251z" />
<glyph unicode="&#xb7;" horiz-adv-x="563" d="M92 397q0 70 53 112t136 42q84 0 137 -42t53 -112q0 -71 -52.5 -112t-137.5 -41q-83 0 -136 41t-53 112z" />
<glyph unicode="&#xb8;" horiz-adv-x="493" d="M55 -406l27 66q24 -27 72 -27q40 0 71 29t31 66q0 43 -70 79l-47 29q-22 16 -22 31t12 27l84 106h84l-47 -74q-12 -21 -12 -39q0 -17 31 -26t68 -14.5t68 -29.5t31 -67q0 -91 -72.5 -139.5t-166.5 -48.5q-93 0 -142 32z" />
<glyph unicode="&#xb9;" horiz-adv-x="454" d="M33 1298q78 12 158.5 42.5t127.5 56.5h39v-500q0 -18 19 -18h51v-54h-373v54h68q18 0 18 18v338q0 9 -5 13.5t-13 2.5l-76 -14z" />
<glyph unicode="&#xba;" horiz-adv-x="718" d="M43 983q0 133 84 208t231 75q145 0 230.5 -74.5t85.5 -208.5q0 -131 -83.5 -204.5t-232.5 -73.5q-155 0 -235 77.5t-80 200.5zM266 983q0 -120 18 -166.5t74 -46.5q37 0 56.5 16.5t29 62.5t9.5 134q0 124 -20 171.5t-75 47.5q-54 0 -73 -49t-19 -170z" />
<glyph unicode="&#xbb;" horiz-adv-x="978" d="M104 72l201 350l-201 350h89l382 -350l-382 -350h-89zM457 72l200 350l-200 350h88l383 -350l-383 -350h-88z" />
<glyph unicode="&#xbc;" horiz-adv-x="1187" d="M92 1153q78 12 160 42.5t127 55.5h39v-499q0 -19 18 -19h51v-53h-372v53h67q19 0 19 19v338q0 9 -5.5 13.5t-13.5 2.5l-76 -14zM133 20l875 1227l86 -57l-879 -1233zM567 125v76l361 360h119v-352h73v-84h-73v-53q0 -19 18 -19h39v-53h-369v53h74q20 0 20 19v53h-262z M655 209h174v170z" />
<glyph unicode="&#xbd;" horiz-adv-x="1280" d="M92 1153q78 12 160 42.5t127 55.5h39v-499q0 -19 18 -19h51v-53h-372v53h67q19 0 19 19v338q0 9 -5.5 13.5t-13.5 2.5l-76 -14zM139 20l875 1227l86 -57l-879 -1233zM666 428q0 61 67 98t193 37q127 0 205.5 -38.5t78.5 -114.5q0 -67 -64 -118t-196 -99l-168 -58h277 q87 0 94 53h51q-14 -59 -22 -192q-16 4 -78 4h-418l-6 131l164 86q76 43 110.5 90.5t34.5 120.5q0 42 -17.5 66t-45.5 24q-26 0 -43 -12.5t-17 -32.5q0 -13 6.5 -33t6.5 -32q0 -35 -30.5 -54.5t-74.5 -19.5q-55 0 -81.5 27t-26.5 67z" />
<glyph unicode="&#xbe;" horiz-adv-x="1187" d="M63 786q0 37 29.5 61.5t75.5 24.5t75 -21.5t29 -55.5q0 -7 -2 -21t-2 -20q0 -22 20 -30.5t42 -8.5q41 0 63.5 29.5t22.5 82.5q0 59 -43 83t-174 30v43q46 0 85 11t69 44.5t30 85.5q0 34 -15 54t-42 20q-20 0 -35 -11t-15 -26q0 -6 4.5 -20t4.5 -27q0 -36 -31.5 -56 t-75.5 -20q-50 0 -76 25t-26 59q0 58 73 89.5t185 31.5t185 -31.5t73 -97.5q0 -58 -57 -94t-150 -45v-6q116 0 179 -33t63 -98q0 -77 -87.5 -123.5t-226.5 -46.5q-250 0 -250 118zM170 20l874 1227l86 -57l-878 -1233zM573 125v76l361 360h119v-352h73v-84h-73v-53 q0 -19 18 -19h39v-53h-369v53h74q21 0 21 19v53h-263zM662 209h174v170z" />
<glyph unicode="&#xbf;" horiz-adv-x="845" d="M43 -256q0 49 21.5 93.5t56 80t76 68.5t83.5 64t76.5 61.5t56 66.5t21.5 74q0 88 -90 143l35 54q48 -13 99 -45t92.5 -87t41.5 -114q0 -47 -29 -95t-70 -89.5t-82 -84.5t-70 -95t-29 -105q0 -65 39 -105.5t104 -40.5q43 0 70.5 18.5t27.5 49.5q0 13 -8 39t-8 43 q0 46 37 70t88 24q67 0 102 -38.5t35 -92.5q0 -92 -105 -137t-274 -45q-192 0 -294.5 58t-102.5 167zM260 758q0 67 53.5 110t135.5 43q80 0 133 -42.5t53 -108.5q0 -64 -52 -109t-134 -45q-80 0 -134.5 43t-54.5 109z" />
<glyph unicode="&#xc0;" horiz-adv-x="1255" d="M-41 0v76l59 -4h9q41 0 67 39q36 53 62 118l422 1014h100l426 -1018q26 -67 59 -116q27 -37 72 -37h10l51 4v-76h-614v76l94 -4q29 -2 44.5 8.5t17 30.5t-4 42t-16.5 48l-76 180h-450l-70 -168q-13 -30 -20 -54t-8.5 -46t10 -33.5t35.5 -9.5l92 6v-76h-371zM319 453h394 l-199 471zM332 1616q0 21 50 48.5t87 27.5q5 0 9.5 -0.5t8.5 -2t7 -2.5t7.5 -4t6.5 -5l7.5 -7.5t7.5 -8t9 -10.5t11 -12l194 -213q35 -38 35 -55q0 -20 -24 -20q-26 0 -48 18l-342 209q-26 17 -26 37z" />
<glyph unicode="&#xc1;" horiz-adv-x="1255" d="M-41 0v76l59 -4h9q41 0 67 39q36 53 62 118l422 1014h100l426 -1018q26 -67 59 -116q27 -37 72 -37h10l51 4v-76h-614v76l94 -4q29 -2 44.5 8.5t17 30.5t-4 42t-16.5 48l-76 180h-450l-70 -168q-13 -30 -20 -54t-8.5 -46t10 -33.5t35.5 -9.5l92 6v-76h-371zM319 453h394 l-199 471zM496 1372q0 18 34 55l195 213q4 4 11 12t9 10.5t7.5 8l7.5 7.5t6.5 5t7.5 4t7 2.5t8.5 2t9.5 0.5q37 0 87 -27.5t50 -48.5q0 -19 -27 -37l-342 -209q-23 -18 -47 -18t-24 20z" />
<glyph unicode="&#xc2;" horiz-adv-x="1255" d="M-41 0v76l59 -4h9q41 0 67 39q36 53 62 118l422 1014h100l426 -1018q26 -67 59 -116q27 -37 72 -37h10l51 4v-76h-614v76l94 -4q29 -2 44.5 8.5t17 30.5t-4 42t-16.5 48l-76 180h-450l-70 -168q-13 -30 -20 -54t-8.5 -46t10 -33.5t35.5 -9.5l92 6v-76h-371zM313 1380 q0 9 19.5 29t61.5 61t75 78l47 49l49 50q33 36 68 36q31 0 67 -36l50 -50l47 -49q33 -37 75 -78t61 -61t19 -29q0 -16 -24 -16q-28 0 -68 25l-227 135l-230 -135q-40 -25 -67 -25q-23 0 -23 16zM319 453h394l-199 471z" />
<glyph unicode="&#xc3;" horiz-adv-x="1255" d="M-41 0v76l59 -4h9q41 0 67 39q36 53 62 118l422 1014h100l426 -1018q26 -67 59 -116q27 -37 72 -37h10l51 4v-76h-614v76l94 -4q29 -2 44.5 8.5t17 30.5t-4 42t-16.5 48l-76 180h-450l-70 -168q-13 -30 -20 -54t-8.5 -46t10 -33.5t35.5 -9.5l92 6v-76h-371zM319 453h394 l-199 471zM340 1376q0 92 33 147.5t98 55.5q51 0 173 -40t159 -40q29 0 48 21.5t19 56.5h56q0 -93 -32.5 -148t-98.5 -55q-53 0 -173.5 41t-156.5 41q-30 0 -49 -22t-19 -58h-57z" />
<glyph unicode="&#xc4;" horiz-adv-x="1255" d="M-41 0v76l59 -4h9q41 0 67 39q36 53 62 118l422 1014h100l426 -1018q26 -67 59 -116q27 -37 72 -37h10l51 4v-76h-614v76l94 -4q29 -2 44.5 8.5t17 30.5t-4 42t-16.5 48l-76 180h-450l-70 -168q-13 -30 -20 -54t-8.5 -46t10 -33.5t35.5 -9.5l92 6v-76h-371zM256 1524 q0 58 44 93.5t114 35.5q68 0 112.5 -35.5t44.5 -93.5q0 -59 -43.5 -94t-113.5 -35t-114 35t-44 94zM319 453h394l-199 471zM688 1524q0 58 44 93.5t114 35.5q68 0 113 -35.5t45 -93.5q0 -59 -44 -94t-114 -35t-114 35t-44 94z" />
<glyph unicode="&#xc5;" horiz-adv-x="1255" d="M-41 0v76l59 -4h9q41 0 67 39q36 53 62 118l422 1014h100l426 -1018q26 -67 59 -116q27 -37 72 -37h10l51 4v-76h-614v76l94 -4q29 -2 44.5 8.5t17 30.5t-4 42t-16.5 48l-76 180h-450l-70 -168q-13 -30 -20 -54t-8.5 -46t10 -33.5t35.5 -9.5l92 6v-76h-371zM319 453h394 l-199 471zM453 1532q0 72 51.5 121t126.5 49q77 0 128.5 -48.5t51.5 -121.5t-51.5 -121.5t-128.5 -48.5q-78 0 -128 48t-50 122zM555 1532q0 -39 21 -62.5t55 -23.5q36 0 58 23.5t22 62.5q0 38 -22 61t-58 23q-34 0 -55 -23t-21 -61z" />
<glyph unicode="&#xc6;" horiz-adv-x="1740" d="M-41 0v78l64 -6q28 -4 53.5 23t68.5 98l553 905q10 18 -1 33.5t-29 15.5l-105 -4v80h963q52 0 84 4v-320h-68q0 127 -71 185.5t-220 58.5h-286l88 -487h125q67 0 111 57.5t44 150.5h72v-481h-70q0 86 -44.5 143.5t-110.5 57.5h-115l94 -483q10 -39 43 -39h90 q144 0 216.5 71.5t72.5 208.5h70v-356q-80 6 -195 6h-756v78l117 -6q25 -1 37.5 15t7.5 36l-49 258h-471l-119 -201q-10 -19 -17 -35.5t-10.5 -35.5t6.5 -29t34 -8l104 6v-78h-381zM387 453h412l-99 516z" />
<glyph unicode="&#xc7;" horiz-adv-x="1220" d="M61 604q0 302 168.5 470.5t468.5 168.5q76 0 142.5 -13.5t105.5 -30.5t91 -30.5t104 -13.5q-8 -63 -8 -154q0 -106 8 -114h-66q-25 121 -125 206t-223 85q-169 0 -262.5 -148.5t-93.5 -425.5q0 -263 98 -408t266 -145q128 0 225.5 83t124.5 208h74q-12 -101 -12 -174 q0 -58 6 -96h-12q-55 0 -197.5 -44.5t-234.5 -47.5l-35 -54q-12 -21 -12 -39q0 -17 31 -26t68 -14.5t68 -29.5t31 -67q0 -91 -72.5 -139.5t-166.5 -48.5q-93 0 -142 32l27 66q24 -27 72 -27q40 0 71 29t31 66q0 43 -70 79l-47 29q-22 16 -22 31t12 27l70 88 q-262 20 -412 184.5t-150 437.5z" />
<glyph unicode="&#xc8;" horiz-adv-x="1169" d="M80 0v78l74 -6q36 0 36 45v991q0 19 -11 31.5t-29 11.5l-70 -4v76h903q29 0 35 2v-318h-72q0 129 -69 186.5t-222 57.5h-157q-25 0 -25 -29v-456h148q69 0 112 55t43 151h70v-481h-70q0 87 -45.5 145t-109.5 58h-148v-494q0 -26 25 -26h225q139 0 212 75.5t73 217.5h71 v-373q-47 6 -196 6h-803zM276 1616q0 21 50.5 48.5t87.5 27.5q7 0 12 -0.5t10.5 -3.5t8 -4t9 -7.5l9 -9t11.5 -12.5t13 -15l195 -213q35 -38 35 -55q0 -20 -25 -20q-24 0 -47 18l-342 209q-27 18 -27 37z" />
<glyph unicode="&#xc9;" horiz-adv-x="1169" d="M80 0v78l74 -6q36 0 36 45v991q0 19 -11 31.5t-29 11.5l-70 -4v76h903q29 0 35 2v-318h-72q0 129 -69 186.5t-222 57.5h-157q-25 0 -25 -29v-456h148q69 0 112 55t43 151h70v-481h-70q0 87 -45.5 145t-109.5 58h-148v-494q0 -26 25 -26h225q139 0 212 75.5t73 217.5h71 v-373q-47 6 -196 6h-803zM440 1372q0 17 35 55l195 213q4 5 13 15t11.5 12.5l9 9t9 7.5t8 4t10.5 3.5t12 0.5q37 0 87.5 -27.5t50.5 -48.5q0 -19 -27 -37l-342 -209q-23 -18 -47 -18q-25 0 -25 20z" />
<glyph unicode="&#xca;" horiz-adv-x="1169" d="M80 0v78l74 -6q36 0 36 45v991q0 19 -11 31.5t-29 11.5l-70 -4v76h903q29 0 35 2v-318h-72q0 129 -69 186.5t-222 57.5h-157q-25 0 -25 -29v-456h148q69 0 112 55t43 151h70v-481h-70q0 87 -45.5 145t-109.5 58h-148v-494q0 -26 25 -26h225q139 0 212 75.5t73 217.5h71 v-373q-47 6 -196 6h-803zM258 1380q0 9 19.5 29t61.5 61t75 78l47 49l49 50q33 36 68 36q31 0 67 -36l49 -50l47 -49q33 -37 75 -78t61.5 -61t19.5 -29q0 -16 -25 -16q-27 0 -67 25l-227 135l-230 -135q-40 -25 -67 -25q-23 0 -23 16z" />
<glyph unicode="&#xcb;" horiz-adv-x="1169" d="M80 0v78l74 -6q36 0 36 45v991q0 19 -11 31.5t-29 11.5l-70 -4v76h903q29 0 35 2v-318h-72q0 129 -69 186.5t-222 57.5h-157q-25 0 -25 -29v-456h148q69 0 112 55t43 151h70v-481h-70q0 87 -45.5 145t-109.5 58h-148v-494q0 -26 25 -26h225q139 0 212 75.5t73 217.5h71 v-373q-47 6 -196 6h-803zM203 1524q0 58 43.5 93.5t113.5 35.5q68 0 113 -35.5t45 -93.5q0 -59 -44 -94t-114 -35t-113.5 35t-43.5 94zM635 1524q0 58 44 93.5t114 35.5q68 0 112.5 -35.5t44.5 -93.5q0 -59 -43.5 -94t-113.5 -35t-114 35t-44 94z" />
<glyph unicode="&#xcc;" horiz-adv-x="665" d="M31 1616q0 21 50 48.5t87 27.5q5 0 9.5 -0.5t8.5 -2t7 -2.5t7.5 -4t6.5 -5l7.5 -7.5t7.5 -8t9 -10.5t11 -12l194 -213q35 -38 35 -55q0 -20 -25 -20q-24 0 -47 18l-342 209q-26 17 -26 37zM80 0v76l72 -4q38 -3 38 45v991q0 19 -9.5 31.5t-28.5 11.5l-72 -4v76h508v-76 l-74 4q-18 1 -29.5 -11.5t-11.5 -31.5v-991q0 -48 41 -45l74 4v-76h-508z" />
<glyph unicode="&#xcd;" horiz-adv-x="665" d="M80 0v76l72 -4q38 -3 38 45v991q0 19 -9.5 31.5t-28.5 11.5l-72 -4v76h508v-76l-74 4q-18 1 -29.5 -11.5t-11.5 -31.5v-991q0 -48 41 -45l74 4v-76h-508zM197 1372q0 18 34 55l195 213q4 4 11 12t9 10.5t7.5 8l7.5 7.5t6.5 5t7.5 4t7 2.5t8.5 2t9.5 0.5q37 0 87 -27.5 t50 -48.5q0 -19 -27 -37l-342 -209q-22 -18 -47 -18q-24 0 -24 20z" />
<glyph unicode="&#xce;" horiz-adv-x="665" d="M12 1380q0 9 19.5 29t61.5 61t75 78l47 49l49 50q33 36 68 36q31 0 67 -36l50 -50l47 -49q33 -37 75 -78t61 -61t19 -29q0 -16 -24 -16q-28 0 -68 25l-227 135l-230 -135q-40 -25 -67 -25q-23 0 -23 16zM80 0v76l72 -4q38 -3 38 45v991q0 19 -9.5 31.5t-28.5 11.5l-72 -4 v76h508v-76l-74 4q-18 1 -29.5 -11.5t-11.5 -31.5v-991q0 -48 41 -45l74 4v-76h-508z" />
<glyph unicode="&#xcf;" horiz-adv-x="665" d="M-43 1524q0 58 44 93.5t114 35.5q68 0 112.5 -35.5t44.5 -93.5q0 -59 -43.5 -94t-113.5 -35t-114 35t-44 94zM80 0v76l72 -4q38 -3 38 45v991q0 19 -9.5 31.5t-28.5 11.5l-72 -4v76h508v-76l-74 4q-18 1 -29.5 -11.5t-11.5 -31.5v-991q0 -48 41 -45l74 4v-76h-508z M389 1524q0 58 44 93.5t114 35.5q68 0 113 -35.5t45 -93.5q0 -59 -44 -94t-114 -35t-114 35t-44 94z" />
<glyph unicode="&#xd0;" horiz-adv-x="1302" d="M70 586v88h120v434q0 43 -38 43l-72 -4v76h500q342 0 502.5 -142t160.5 -469q0 -612 -639 -612h-524v76l80 -4q30 -3 30 45v469h-120zM473 100q0 -26 25 -26h47q111 0 181 22.5t119 83t69 163.5t20 267q0 131 -13.5 222.5t-41.5 154.5t-75.5 98.5t-109 50.5t-149.5 15 h-47q-25 0 -25 -27v-450h297v-88h-297v-486z" />
<glyph unicode="&#xd1;" horiz-adv-x="1386" d="M70 0v59l80 -4q40 0 40 45v1022q0 19 -10.5 31.5t-29.5 11.5l-80 -4v62h422l622 -846v747q0 41 -35 41h-6l-100 -4v62h346v-62l-80 4h-4q-35 0 -35 -43v-1134h-123l-801 1087v-975q0 -45 39 -45l101 4v-59h-346zM408 1376q0 92 33 147.5t98 55.5q51 0 173 -40t158 -40 q30 0 49 21.5t19 56.5h55q0 -93 -32.5 -148t-98.5 -55q-53 0 -173.5 41t-156.5 41q-30 0 -48.5 -22t-18.5 -58h-57z" />
<glyph unicode="&#xd2;" horiz-adv-x="1388" d="M61 612q0 305 166.5 468t466.5 163q305 0 469 -165.5t164 -465.5q0 -301 -166 -466.5t-467 -165.5t-467 165.5t-166 466.5zM371 612q0 -214 36 -338.5t104.5 -173.5t182.5 -49t182.5 49t105 173.5t36.5 338.5q0 213 -36.5 337.5t-105 174.5t-182.5 50t-182.5 -50 t-104.5 -174t-36 -338zM393 1616q0 21 50 48.5t87 27.5q5 0 9.5 -0.5t8.5 -2t7 -2.5t7.5 -4t6.5 -5l7.5 -7.5t7.5 -8t9 -10.5t11 -12l195 -213q35 -38 35 -55q0 -20 -25 -20q-24 0 -47 18l-342 209q-27 18 -27 37z" />
<glyph unicode="&#xd3;" horiz-adv-x="1388" d="M61 612q0 305 166.5 468t466.5 163q305 0 469 -165.5t164 -465.5q0 -301 -166 -466.5t-467 -165.5t-467 165.5t-166 466.5zM371 612q0 -214 36 -338.5t104.5 -173.5t182.5 -49t182.5 49t105 173.5t36.5 338.5q0 213 -36.5 337.5t-105 174.5t-182.5 50t-182.5 -50 t-104.5 -174t-36 -338zM557 1372q0 17 35 55l194 213q4 4 11 12t9 10.5t7.5 8l7.5 7.5t6.5 5t7.5 4t7 2.5t8.5 2t9.5 0.5q37 0 87 -27.5t50 -48.5q0 -20 -26 -37l-342 -209q-23 -18 -47 -18q-25 0 -25 20z" />
<glyph unicode="&#xd4;" horiz-adv-x="1388" d="M61 612q0 305 166.5 468t466.5 163q305 0 469 -165.5t164 -465.5q0 -301 -166 -466.5t-467 -165.5t-467 165.5t-166 466.5zM371 612q0 -214 36 -338.5t104.5 -173.5t182.5 -49t182.5 49t105 173.5t36.5 338.5q0 213 -36.5 337.5t-105 174.5t-182.5 50t-182.5 -50 t-104.5 -174t-36 -338zM375 1380q0 9 19 29t61 61t75 78l48 49l49 50q33 36 67 36q32 0 68 -36l49 -50l47 -49q33 -37 75 -78t61.5 -61t19.5 -29q0 -16 -25 -16q-27 0 -67 25l-228 135l-229 -135q-40 -25 -68 -25q-22 0 -22 16z" />
<glyph unicode="&#xd5;" horiz-adv-x="1388" d="M61 612q0 305 166.5 468t466.5 163q305 0 469 -165.5t164 -465.5q0 -301 -166 -466.5t-467 -165.5t-467 165.5t-166 466.5zM371 612q0 -214 36 -338.5t104.5 -173.5t182.5 -49t182.5 49t105 173.5t36.5 338.5q0 213 -36.5 337.5t-105 174.5t-182.5 50t-182.5 -50 t-104.5 -174t-36 -338zM401 1376q0 92 33 147.5t98 55.5q52 0 173.5 -40t158.5 -40q30 0 49 21.5t19 56.5h55q0 -93 -32.5 -148t-98.5 -55q-53 0 -173.5 41t-156.5 41q-30 0 -48.5 -22t-18.5 -58h-58z" />
<glyph unicode="&#xd6;" horiz-adv-x="1388" d="M61 612q0 305 166.5 468t466.5 163q305 0 469 -165.5t164 -465.5q0 -301 -166 -466.5t-467 -165.5t-467 165.5t-166 466.5zM319 1524q0 58 44 93.5t114 35.5q68 0 113 -35.5t45 -93.5q0 -59 -44 -94t-114 -35t-114 35t-44 94zM371 612q0 -214 36 -338.5t104.5 -173.5 t182.5 -49t182.5 49t105 173.5t36.5 338.5q0 213 -36.5 337.5t-105 174.5t-182.5 50t-182.5 -50t-104.5 -174t-36 -338zM752 1524q0 58 43.5 93.5t113.5 35.5q68 0 113 -35.5t45 -93.5q0 -59 -44 -94t-114 -35t-113.5 35t-43.5 94z" />
<glyph unicode="&#xd7;" d="M123 276l274 273l-270 268l76 76l266 -270l272 272l78 -76l-274 -272l274 -273l-74 -73l-274 272l-270 -270z" />
<glyph unicode="&#xd8;" horiz-adv-x="1384" d="M61 612q0 305 166.5 468t466.5 163q155 0 271 -43l122 211l93 -55l-117 -201q129 -75 196.5 -214t67.5 -329q0 -301 -166 -466.5t-467 -165.5q-168 0 -295 53l-133 -228l-92 50l133 225q-246 160 -246 532zM371 612q0 -235 41 -354l493 842q-74 74 -211 74 q-114 0 -182.5 -50t-104.5 -174t-36 -338zM467 145q73 -94 227 -94q114 0 182.5 49t105 173.5t36.5 338.5q0 258 -51 383z" />
<glyph unicode="&#xd9;" horiz-adv-x="1349" d="M72 1147v76h540v-76l-100 4q-18 1 -29.5 -10.5t-11.5 -30.5v-702q0 -175 81 -260t234 -85q157 0 230.5 95t73.5 258v692q0 21 -10 32.5t-27 10.5l-101 -4v76h346v-76l-79 4q-18 1 -29.5 -10.5t-11.5 -30.5v-694q0 -206 -110.5 -321t-334.5 -115q-545 0 -545 428v700 q0 18 -10.5 31t-27.5 12zM403 1616q0 21 50.5 48.5t87.5 27.5q7 0 12 -0.5t10.5 -3.5t8 -4t9 -7.5l9 -9t11.5 -12.5t13 -15l195 -213q35 -38 35 -55q0 -20 -25 -20q-24 0 -47 18l-342 209q-27 18 -27 37z" />
<glyph unicode="&#xda;" horiz-adv-x="1349" d="M72 1147v76h540v-76l-100 4q-18 1 -29.5 -10.5t-11.5 -30.5v-702q0 -175 81 -260t234 -85q157 0 230.5 95t73.5 258v692q0 21 -10 32.5t-27 10.5l-101 -4v76h346v-76l-79 4q-18 1 -29.5 -10.5t-11.5 -30.5v-694q0 -206 -110.5 -321t-334.5 -115q-545 0 -545 428v700 q0 18 -10.5 31t-27.5 12zM567 1372q0 17 35 55l195 213q4 5 13 15t11.5 12.5l9 9t9 7.5t8 4t10.5 3.5t12 0.5q37 0 87.5 -27.5t50.5 -48.5q0 -19 -27 -37l-342 -209q-23 -18 -47 -18q-25 0 -25 20z" />
<glyph unicode="&#xdb;" horiz-adv-x="1349" d="M72 1147v76h540v-76l-100 4q-18 1 -29.5 -10.5t-11.5 -30.5v-702q0 -175 81 -260t234 -85q157 0 230.5 95t73.5 258v692q0 21 -10 32.5t-27 10.5l-101 -4v76h346v-76l-79 4q-18 1 -29.5 -10.5t-11.5 -30.5v-694q0 -206 -110.5 -321t-334.5 -115q-545 0 -545 428v700 q0 18 -10.5 31t-27.5 12zM385 1380q0 9 19.5 29t61.5 61t75 78l47 49l49 50q33 36 68 36q31 0 67 -36l49 -50l47 -49q33 -37 75 -78t61.5 -61t19.5 -29q0 -16 -25 -16q-27 0 -67 25l-227 135l-230 -135q-40 -25 -67 -25q-23 0 -23 16z" />
<glyph unicode="&#xdc;" horiz-adv-x="1349" d="M72 1147v76h540v-76l-100 4q-18 1 -29.5 -10.5t-11.5 -30.5v-702q0 -175 81 -260t234 -85q157 0 230.5 95t73.5 258v692q0 21 -10 32.5t-27 10.5l-101 -4v76h346v-76l-79 4q-18 1 -29.5 -10.5t-11.5 -30.5v-694q0 -206 -110.5 -321t-334.5 -115q-545 0 -545 428v700 q0 18 -10.5 31t-27.5 12zM328 1524q0 58 43.5 93.5t113.5 35.5q68 0 113 -35.5t45 -93.5q0 -59 -44 -94t-114 -35t-113.5 35t-43.5 94zM760 1524q0 58 44 93.5t114 35.5q68 0 112.5 -35.5t44.5 -93.5q0 -59 -43.5 -94t-113.5 -35t-114 35t-44 94z" />
<glyph unicode="&#xdd;" horiz-adv-x="1144" d="M-2 1147v76h553v-76l-109 4q-22 1 -24 -15.5t10 -33.5l272 -455l261 463q8 12 5 26.5t-20 14.5l-106 -4v76h325v-76l-61 4q-33 0 -57 -43l-308 -551v-442q0 -43 41 -43l99 4v-76h-562v76l101 -4q39 0 39 45v407l-353 588q-23 39 -49 39zM487 1372q0 17 35 55l195 213 q4 4 11 12t9 10.5t7.5 8l7.5 7.5t6.5 5t7.5 4t7 2.5t8.5 2t9.5 0.5q37 0 87 -27.5t50 -48.5q0 -19 -27 -37l-342 -209q-23 -18 -47 -18q-25 0 -25 20z" />
<glyph unicode="&#xde;" horiz-adv-x="1112" d="M80 0v59l72 -4q19 -1 28.5 11t9.5 34v1022q0 19 -9.5 31.5t-28.5 11.5l-72 -4v62h534v-62l-100 4q-18 0 -29.5 -12.5t-11.5 -30.5v-106h154q229 0 332.5 -75.5t103.5 -256.5q0 -169 -103 -260.5t-290 -91.5h-197v-232q0 -48 41 -45l100 4v-59h-534zM473 412 q0 -10 8.5 -18.5t18.5 -8.5h96q74 0 126 83t52 216q0 136 -55.5 208.5t-155.5 72.5h-90v-553z" />
<glyph unicode="&#xdf;" horiz-adv-x="1153" d="M41 0v59l68 -4q24 0 24 43v951q0 240 109.5 350t332.5 110q186 0 289 -62.5t103 -178.5q0 -40 -12.5 -75.5t-37.5 -66t-46 -51t-56 -49t-49 -41.5q-66 -59 -66 -125q0 -48 37.5 -94t122.5 -119l144 -123q133 -112 133 -254q0 -134 -101.5 -210t-261.5 -76q-120 0 -187 39 t-67 110q0 53 33 84t90 31q51 0 74.5 -24.5t23.5 -61.5q0 -16 -6 -43t-6 -39q0 -37 43 -37q48 0 79.5 37.5t31.5 107.5q0 131 -123 236l-129 104q-69 56 -103 107t-34 108q0 38 14.5 73t31 56.5t50.5 60.5t53 64q70 93 70 211q0 108 -44.5 172t-127.5 64q-78 0 -124 -57.5 t-46 -151.5q0 -37 15 -164.5t15 -181.5v-791q0 -18 8 -30.5t21 -12.5l72 4v-59h-461z" />
<glyph unicode="&#xe0;" horiz-adv-x="956" d="M27 221q0 150 131 221.5t413 71.5v143q0 37 -4.5 62t-17.5 50.5t-42 38.5t-73 13q-71 0 -101 -25t-30 -59q0 -20 9.5 -46t9.5 -42q0 -44 -32.5 -69t-80.5 -25q-58 0 -93.5 33.5t-35.5 85.5q0 98 102 157.5t277 59.5q381 0 381 -273v-514q0 -38 26 -38l68 4v-70h-373 q8 48 8 76l2 55q-91 -141 -282 -141q-262 0 -262 231zM162 1272q0 21 50 48.5t87 27.5q5 0 9.5 -0.5t8.5 -2t7 -2.5t7.5 -4t6.5 -5l7.5 -7.5t7.5 -8t9 -10.5t11 -12l194 -213q35 -38 35 -55q0 -20 -24 -20q-26 0 -48 18l-342 209q-26 17 -26 37zM305 246q0 -135 101 -135 q63 0 109 54t56 142v135q-139 0 -202.5 -49t-63.5 -147z" />
<glyph unicode="&#xe1;" horiz-adv-x="956" d="M27 221q0 150 131 221.5t413 71.5v143q0 37 -4.5 62t-17.5 50.5t-42 38.5t-73 13q-71 0 -101 -25t-30 -59q0 -20 9.5 -46t9.5 -42q0 -44 -32.5 -69t-80.5 -25q-58 0 -93.5 33.5t-35.5 85.5q0 98 102 157.5t277 59.5q381 0 381 -273v-514q0 -38 26 -38l68 4v-70h-373 q8 48 8 76l2 55q-91 -141 -282 -141q-262 0 -262 231zM305 246q0 -135 101 -135q63 0 109 54t56 142v135q-139 0 -202.5 -49t-63.5 -147zM324 1028q0 18 34 55l195 213q4 4 11 12t9 10.5t7.5 8l7.5 7.5t6.5 5t7.5 4t7 2.5t8.5 2t9.5 0.5q37 0 87 -27.5t50 -48.5 q0 -19 -27 -37l-342 -209q-23 -18 -47 -18t-24 20z" />
<glyph unicode="&#xe2;" horiz-adv-x="956" d="M27 221q0 150 131 221.5t413 71.5v143q0 37 -4.5 62t-17.5 50.5t-42 38.5t-73 13q-71 0 -101 -25t-30 -59q0 -20 9.5 -46t9.5 -42q0 -44 -32.5 -69t-80.5 -25q-58 0 -93.5 33.5t-35.5 85.5q0 98 102 157.5t277 59.5q381 0 381 -273v-514q0 -38 26 -38l68 4v-70h-373 q8 48 8 76l2 55q-91 -141 -282 -141q-262 0 -262 231zM143 1036q0 9 19.5 29t61.5 61t75 78l47 49l49 50q33 36 68 36q31 0 67 -36l50 -50l47 -49q33 -37 75 -78t61 -61t19 -29q0 -16 -24 -16q-30 0 -68 24l-227 136l-230 -136q-38 -24 -67 -24q-23 0 -23 16zM305 246 q0 -135 101 -135q63 0 109 54t56 142v135q-139 0 -202.5 -49t-63.5 -147z" />
<glyph unicode="&#xe3;" horiz-adv-x="956" d="M27 221q0 150 131 221.5t413 71.5v143q0 37 -4.5 62t-17.5 50.5t-42 38.5t-73 13q-71 0 -101 -25t-30 -59q0 -20 9.5 -46t9.5 -42q0 -44 -32.5 -69t-80.5 -25q-58 0 -93.5 33.5t-35.5 85.5q0 98 102 157.5t277 59.5q381 0 381 -273v-514q0 -38 26 -38l68 4v-70h-373 q8 48 8 76l2 55q-91 -141 -282 -141q-262 0 -262 231zM170 1087q0 92 33 147.5t98 55.5q52 0 173.5 -40t158.5 -40q29 0 48 21.5t19 56.5h56q0 -93 -32.5 -148t-98.5 -55q-53 0 -173.5 41t-156.5 41q-30 0 -49 -22t-19 -58h-57zM305 246q0 -135 101 -135q63 0 109 54t56 142 v135q-139 0 -202.5 -49t-63.5 -147z" />
<glyph unicode="&#xe4;" horiz-adv-x="956" d="M27 221q0 150 131 221.5t413 71.5v143q0 37 -4.5 62t-17.5 50.5t-42 38.5t-73 13q-71 0 -101 -25t-30 -59q0 -20 9.5 -46t9.5 -42q0 -44 -32.5 -69t-80.5 -25q-58 0 -93.5 33.5t-35.5 85.5q0 98 102 157.5t277 59.5q381 0 381 -273v-514q0 -38 26 -38l68 4v-70h-373 q8 48 8 76l2 55q-91 -141 -282 -141q-262 0 -262 231zM88 1229q0 58 44 93.5t114 35.5q68 0 112.5 -35.5t44.5 -93.5q0 -59 -43.5 -94t-113.5 -35t-114 35t-44 94zM305 246q0 -135 101 -135q63 0 109 54t56 142v135q-139 0 -202.5 -49t-63.5 -147zM520 1229q0 58 44 93.5 t114 35.5q68 0 113 -35.5t45 -93.5q0 -59 -44 -94t-114 -35t-114 35t-44 94z" />
<glyph unicode="&#xe5;" horiz-adv-x="956" d="M27 221q0 150 131 221.5t413 71.5v143q0 37 -4.5 62t-17.5 50.5t-42 38.5t-73 13q-71 0 -101 -25t-30 -59q0 -20 9.5 -46t9.5 -42q0 -44 -32.5 -69t-80.5 -25q-58 0 -93.5 33.5t-35.5 85.5q0 98 102 157.5t277 59.5q381 0 381 -273v-514q0 -38 26 -38l68 4v-70h-373 q8 48 8 76l2 55q-91 -141 -282 -141q-262 0 -262 231zM283 1188q0 72 51.5 121t126.5 49q77 0 128.5 -48.5t51.5 -121.5t-51.5 -121.5t-128.5 -48.5q-78 0 -128 48t-50 122zM305 246q0 -135 101 -135q63 0 109 54t56 142v135q-139 0 -202.5 -49t-63.5 -147zM385 1188 q0 -39 21 -62.5t55 -23.5q36 0 58 23.5t22 62.5q0 38 -22 61t-58 23q-34 0 -55 -23t-21 -61z" />
<glyph unicode="&#xe6;" horiz-adv-x="1472" d="M27 217q0 147 130.5 213t413.5 66v161q0 36 -4.5 61.5t-17.5 51t-41.5 38.5t-71.5 13q-72 0 -101.5 -25t-29.5 -59q0 -20 9.5 -46t9.5 -42q0 -44 -33.5 -69t-81.5 -25q-58 0 -93.5 33.5t-35.5 85.5q0 98 103 157.5t276 59.5q186 0 278 -66q107 66 285 66q204 0 307 -110 t103 -351h-592q0 -177 66.5 -272t195.5 -95q91 0 162.5 48.5t105.5 117.5l55 -39q-48 -101 -149.5 -155.5t-245.5 -54.5q-309 0 -414 178q-102 -168 -319 -168q-130 0 -200 57t-70 170zM305 233q0 -124 105 -124q62 0 108 58.5t53 151.5v107q-139 0 -202.5 -49t-63.5 -144z M840 496h282q35 0 35 65q0 129 -33 194.5t-108 65.5q-91 0 -133.5 -87.5t-42.5 -237.5z" />
<glyph unicode="&#xe7;" horiz-adv-x="899" d="M41 428q0 115 35 204.5t97.5 145.5t145 84.5t181.5 28.5q155 0 256.5 -61.5t101.5 -153.5q0 -54 -33.5 -90.5t-97.5 -36.5q-48 0 -79.5 24t-31.5 68q0 17 9.5 43t9.5 45q0 45 -36 68.5t-89 23.5q-89 0 -137.5 -82.5t-48.5 -281.5q0 -115 17 -195.5t48.5 -124.5t71 -63 t90.5 -19q84 0 152.5 46t105.5 151l63 -31q-86 -241 -372 -241l-35 -54q-12 -21 -12 -39q0 -17 31 -26t68 -14.5t68 -29.5t31 -67q0 -91 -72.5 -139.5t-166.5 -48.5q-93 0 -142 32l27 66q24 -27 72 -27q40 0 71 29t31 66q0 43 -70 79l-47 29q-22 16 -22 31t12 27l72 92 q-168 22 -271.5 130.5t-103.5 311.5z" />
<glyph unicode="&#xe8;" horiz-adv-x="958" d="M41 432q0 235 116.5 347t348.5 112q186 0 298.5 -101.5t113.5 -287.5v-76h-590q0 -176 65 -269t193 -94q97 0 166 48.5t102 117.5l55 -39q-48 -100 -151 -155t-248 -55q-243 0 -356 110t-113 342zM197 1272q0 21 50 48.5t87 27.5q5 0 9.5 -0.5t8.5 -2t7 -2.5t7.5 -4 t6.5 -5l7.5 -7.5t7.5 -8t9 -10.5t11 -12l194 -213q35 -38 35 -55q0 -20 -25 -20q-24 0 -47 18l-342 209q-26 17 -26 37zM330 494h272q21 0 31 14t10 53q0 132 -33.5 196t-109.5 64q-88 0 -129 -90.5t-41 -236.5z" />
<glyph unicode="&#xe9;" horiz-adv-x="958" d="M41 432q0 235 116.5 347t348.5 112q186 0 298.5 -101.5t113.5 -287.5v-76h-590q0 -176 65 -269t193 -94q97 0 166 48.5t102 117.5l55 -39q-48 -100 -151 -155t-248 -55q-243 0 -356 110t-113 342zM330 494h272q21 0 31 14t10 53q0 132 -33.5 196t-109.5 64 q-88 0 -129 -90.5t-41 -236.5zM358 1028q0 17 35 55l195 213q4 4 11 12t9 10.5t7.5 8l7.5 7.5t6.5 5t7.5 4t7 2.5t8.5 2t9.5 0.5q37 0 87 -27.5t50 -48.5q0 -19 -27 -37l-342 -209q-22 -18 -47 -18t-25 20z" />
<glyph unicode="&#xea;" horiz-adv-x="958" d="M41 432q0 235 116.5 347t348.5 112q186 0 298.5 -101.5t113.5 -287.5v-76h-590q0 -176 65 -269t193 -94q97 0 166 48.5t102 117.5l55 -39q-48 -100 -151 -155t-248 -55q-243 0 -356 110t-113 342zM178 1036q0 9 19.5 29t61.5 61t75 78l47 49l49 50q33 36 68 36 q31 0 67 -36l49 -50l48 -49q33 -37 75 -78t61 -61t19 -29q0 -16 -24 -16q-30 0 -68 24l-227 136l-230 -136q-38 -24 -67 -24q-23 0 -23 16zM330 494h272q21 0 31 14t10 53q0 132 -33.5 196t-109.5 64q-88 0 -129 -90.5t-41 -236.5z" />
<glyph unicode="&#xeb;" horiz-adv-x="958" d="M41 432q0 235 116.5 347t348.5 112q186 0 298.5 -101.5t113.5 -287.5v-76h-590q0 -176 65 -269t193 -94q97 0 166 48.5t102 117.5l55 -39q-48 -100 -151 -155t-248 -55q-243 0 -356 110t-113 342zM123 1229q0 58 44 93.5t114 35.5q68 0 112.5 -35.5t44.5 -93.5 q0 -59 -43.5 -94t-113.5 -35t-114 35t-44 94zM330 494h272q21 0 31 14t10 53q0 132 -33.5 196t-109.5 64q-88 0 -129 -90.5t-41 -236.5zM555 1229q0 58 44 93.5t114 35.5q68 0 112.5 -35.5t44.5 -93.5q0 -59 -43.5 -94t-113.5 -35t-114 35t-44 94z" />
<glyph unicode="&#xec;" horiz-adv-x="538" d="M-39 1272q0 21 50 48.5t87 27.5q5 0 9.5 -0.5t8.5 -2t7 -2.5t7.5 -4t6.5 -5l7.5 -7.5t7.5 -8t9 -10.5t11 -12l195 -213q34 -37 34 -55q0 -20 -24 -20q-25 0 -47 18l-342 209q-27 18 -27 37zM41 0v70l68 -4q26 -3 26 38v662q0 35 -24 41l-68 -4v67h360v-766q0 -41 27 -38 l68 4v-70h-457z" />
<glyph unicode="&#xed;" horiz-adv-x="538" d="M41 0v70l68 -4q26 -3 26 38v662q0 35 -24 41l-68 -4v67h360v-766q0 -41 27 -38l68 4v-70h-457zM123 1028q0 17 35 55l194 213q4 4 11 12t9 10.5t7.5 8l7.5 7.5t6.5 5t7.5 4t7 2.5t8.5 2t9.5 0.5q37 0 87 -27.5t50 -48.5q0 -20 -26 -37l-342 -209q-23 -18 -48 -18 q-24 0 -24 20z" />
<glyph unicode="&#xee;" horiz-adv-x="538" d="M-14 1042q0 10 39 56l192 231q22 31 45 31q19 0 47 -31l193 -231q37 -50 37 -56q0 -9 -6.5 -15.5t-16.5 -6.5q-11 0 -53 22l-201 134l-201 -134q-37 -22 -53 -22q-22 0 -22 22zM41 0v70l68 -4q26 -3 26 38v662q0 35 -24 41l-68 -4v67h360v-766q0 -41 27 -38l68 4v-70 h-457z" />
<glyph unicode="&#xef;" horiz-adv-x="538" d="M-113 1229q0 58 44 93.5t114 35.5q68 0 113 -35.5t45 -93.5q0 -59 -44 -94t-114 -35t-114 35t-44 94zM41 0v70l68 -4q26 -3 26 38v662q0 35 -24 41l-68 -4v67h360v-766q0 -41 27 -38l68 4v-70h-457zM319 1229q0 58 44 93.5t114 35.5q68 0 113 -35.5t45 -93.5 q0 -59 -44 -94t-114 -35t-114 35t-44 94z" />
<glyph unicode="&#xf0;" horiz-adv-x="1038" d="M41 434q0 153 57.5 257.5t153.5 152t223 47.5q109 0 174 -43q-46 112 -149 201l-209 -121l-35 61l184 107q-113 75 -211 88l41 59q162 -6 305 -72l170 99l33 -62l-129 -73q159 -96 253.5 -264.5t94.5 -411.5q0 -224 -121 -353t-356 -129q-233 0 -356 117t-123 340z M328 434q0 -213 46 -301t146 -88q106 0 149.5 91.5t43.5 297.5q0 211 -45 301t-148 90q-69 0 -109.5 -35.5t-61.5 -121.5t-21 -234z" />
<glyph unicode="&#xf1;" horiz-adv-x="1103" d="M41 0v70l68 -4q26 6 26 38v662q0 35 -26 41l-68 -4v67h373q-11 -33 -11 -71v-115q44 98 125.5 152.5t192.5 54.5q139 0 202.5 -70t63.5 -223v-494q0 -38 27 -38l69 4v-70h-469v70l78 -4q27 6 27 38v496q0 106 -17.5 150.5t-78.5 44.5q-87 0 -152.5 -108t-64.5 -296l-3 45 v-332q0 -38 27 -38l80 4v-70h-469zM268 1087q0 92 33 147.5t98 55.5q51 0 173 -40t159 -40q30 0 49 21.5t19 56.5h55q0 -93 -32.5 -148t-98.5 -55q-53 0 -173.5 41t-156.5 41q-30 0 -48.5 -22t-18.5 -58h-58z" />
<glyph unicode="&#xf2;" horiz-adv-x="997" d="M41 436q0 221 115 338t344 117q456 0 456 -455q0 -456 -456 -456q-230 0 -344.5 116t-114.5 340zM199 1272q0 21 50 48.5t87 27.5q5 0 9.5 -0.5t8.5 -2t7 -2.5t7.5 -4t6.5 -5l7.5 -7.5t7.5 -8t9 -10.5t11 -12l194 -213q35 -38 35 -55q0 -20 -25 -20q-24 0 -47 18 l-342 209q-26 17 -26 37zM328 432q0 -206 40.5 -293.5t131.5 -87.5q93 0 132.5 86.5t39.5 294.5q0 214 -39.5 301.5t-132.5 87.5q-91 0 -131.5 -88.5t-40.5 -300.5z" />
<glyph unicode="&#xf3;" horiz-adv-x="997" d="M41 436q0 221 115 338t344 117q456 0 456 -455q0 -456 -456 -456q-230 0 -344.5 116t-114.5 340zM328 432q0 -206 40.5 -293.5t131.5 -87.5q93 0 132.5 86.5t39.5 294.5q0 214 -39.5 301.5t-132.5 87.5q-91 0 -131.5 -88.5t-40.5 -300.5zM360 1028q0 17 35 55l195 213 q4 4 11 12t9 10.5t7.5 8l7.5 7.5t6.5 5t7.5 4t7 2.5t8.5 2t9.5 0.5q37 0 87 -27.5t50 -48.5q0 -19 -27 -37l-342 -209q-23 -18 -47 -18q-25 0 -25 20z" />
<glyph unicode="&#xf4;" horiz-adv-x="997" d="M41 436q0 221 115 338t344 117q456 0 456 -455q0 -456 -456 -456q-230 0 -344.5 116t-114.5 340zM180 1036q0 9 19.5 29t61.5 61t75 78l47 49l49 50q33 36 68 36q31 0 67 -36l49 -50l48 -49q33 -37 75 -78t61 -61t19 -29q0 -16 -24 -16q-30 0 -68 24l-227 136l-230 -136 q-38 -24 -67 -24q-23 0 -23 16zM328 432q0 -206 40.5 -293.5t131.5 -87.5q93 0 132.5 86.5t39.5 294.5q0 214 -39.5 301.5t-132.5 87.5q-91 0 -131.5 -88.5t-40.5 -300.5z" />
<glyph unicode="&#xf5;" horiz-adv-x="997" d="M41 436q0 221 115 338t344 117q456 0 456 -455q0 -456 -456 -456q-230 0 -344.5 116t-114.5 340zM207 1087q0 92 33 147.5t98 55.5q51 0 173.5 -40t158.5 -40q29 0 48 21.5t19 56.5h56q0 -93 -32.5 -148t-98.5 -55q-53 0 -173.5 41t-156.5 41q-30 0 -49 -22t-19 -58h-57z M328 432q0 -206 40.5 -293.5t131.5 -87.5q93 0 132.5 86.5t39.5 294.5q0 214 -39.5 301.5t-132.5 87.5q-91 0 -131.5 -88.5t-40.5 -300.5z" />
<glyph unicode="&#xf6;" horiz-adv-x="997" d="M41 436q0 221 115 338t344 117q456 0 456 -455q0 -456 -456 -456q-230 0 -344.5 116t-114.5 340zM123 1229q0 58 44 93.5t114 35.5q68 0 112.5 -35.5t44.5 -93.5q0 -59 -43.5 -94t-113.5 -35t-114 35t-44 94zM328 432q0 -206 40.5 -293.5t131.5 -87.5q93 0 132.5 86.5 t39.5 294.5q0 214 -39.5 301.5t-132.5 87.5q-91 0 -131.5 -88.5t-40.5 -300.5zM555 1229q0 58 44 93.5t114 35.5q68 0 112.5 -35.5t44.5 -93.5q0 -59 -43.5 -94t-113.5 -35t-114 35t-44 94z" />
<glyph unicode="&#xf7;" d="M39 492v120h864v-120h-864zM311 197q0 58 44 93.5t114 35.5t114 -35t44 -94t-44 -93t-114 -34t-114 34t-44 93zM311 897q0 59 44 94t114 35t114 -35t44 -94t-44 -93t-114 -34t-114 34t-44 93z" />
<glyph unicode="&#xf8;" horiz-adv-x="997" d="M41 436q0 221 115 338t344 117q108 0 190 -27l96 174l86 -55l-90 -160q174 -108 174 -387q0 -456 -456 -456q-101 0 -174 20l-101 -180l-94 47l96 174q-186 107 -186 395zM328 432q0 -112 12 -192l285 510q-40 71 -125 71q-91 0 -131.5 -88.5t-40.5 -300.5zM385 109 q41 -58 115 -58q93 0 132.5 86.5t39.5 294.5q0 111 -8 174z" />
<glyph unicode="&#xf9;" horiz-adv-x="1089" d="M23 803v67h362v-600q0 -104 17 -149t73 -45q83 0 147.5 108t61.5 295l2 -24v311q0 41 -27 41l-79 -4v67h374v-766q0 -35 27 -38l68 4v-70h-375q10 30 10 90v92q-91 -202 -311 -202q-134 0 -195 72.5t-61 230.5v485q0 39 -27 39zM221 1272q0 21 50 48.5t87 27.5 q5 0 9.5 -0.5t8.5 -2t7 -2.5t7.5 -4t6.5 -5l7.5 -7.5t7.5 -8t9 -10.5t11 -12l195 -213q35 -38 35 -55q0 -20 -25 -20t-47 18l-342 209q-27 18 -27 37z" />
<glyph unicode="&#xfa;" horiz-adv-x="1089" d="M23 803v67h362v-600q0 -104 17 -149t73 -45q83 0 147.5 108t61.5 295l2 -24v311q0 41 -27 41l-79 -4v67h374v-766q0 -35 27 -38l68 4v-70h-375q10 30 10 90v92q-91 -202 -311 -202q-134 0 -195 72.5t-61 230.5v485q0 39 -27 39zM383 1028q0 17 35 55l194 213q4 4 11 12 t9 10.5t7.5 8l7.5 7.5t6.5 5t7.5 4t7 2.5t8.5 2t9.5 0.5q37 0 87 -27.5t50 -48.5q0 -20 -26 -37l-342 -209q-23 -18 -47 -18q-25 0 -25 20z" />
<glyph unicode="&#xfb;" horiz-adv-x="1089" d="M23 803v67h362v-600q0 -104 17 -149t73 -45q83 0 147.5 108t61.5 295l2 -24v311q0 41 -27 41l-79 -4v67h374v-766q0 -35 27 -38l68 4v-70h-375q10 30 10 90v92q-91 -202 -311 -202q-134 0 -195 72.5t-61 230.5v485q0 39 -27 39zM203 1036q0 9 19 29t61 61t75 78l48 49 l49 50q33 36 67 36q32 0 68 -36l49 -50l47 -49q33 -37 75 -78t61.5 -61t19.5 -29q0 -16 -25 -16q-29 0 -67 24l-228 136l-229 -136q-38 -24 -68 -24q-22 0 -22 16z" />
<glyph unicode="&#xfc;" horiz-adv-x="1089" d="M23 803v67h362v-600q0 -104 17 -149t73 -45q83 0 147.5 108t61.5 295l2 -24v311q0 41 -27 41l-79 -4v67h374v-766q0 -35 27 -38l68 4v-70h-375q10 30 10 90v92q-91 -202 -311 -202q-134 0 -195 72.5t-61 230.5v485q0 39 -27 39zM147 1229q0 58 44 93.5t114 35.5 q68 0 113 -35.5t45 -93.5q0 -59 -44 -94t-114 -35t-114 35t-44 94zM580 1229q0 58 43.5 93.5t113.5 35.5q68 0 113 -35.5t45 -93.5q0 -59 -44 -94t-114 -35t-113.5 35t-43.5 94z" />
<glyph unicode="&#xfd;" horiz-adv-x="1026" d="M-4 803v67h528v-67l-92 4q-14 0 -22 -11.5t-2 -23.5l219 -450l190 454q12 31 -20 31l-97 -4v67h324v-67l-76 4h-4q-37 0 -51 -39l-418 -1006q-59 -142 -125 -196.5t-162 -54.5q-75 0 -121.5 34t-50.5 99q0 63 36 98t81 35q41 0 68 -19t37 -41.5t25.5 -41.5t35.5 -19 q27 0 47 22t43 78l96 232l-376 792q-13 27 -33 27zM418 1028q0 17 35 55l194 213q4 4 11 12t9 10.5t7.5 8l7.5 7.5t6.5 5t7.5 4t7 2.5t8.5 2t9.5 0.5q37 0 87 -27.5t50 -48.5q0 -19 -27 -37l-342 -209q-23 -18 -47 -18t-24 20z" />
<glyph unicode="&#xfe;" horiz-adv-x="1064" d="M33 1430v67h360v-792q31 85 95.5 130.5t175.5 45.5q179 0 265.5 -112t86.5 -341q0 -225 -95 -336.5t-294 -111.5q-172 0 -234 100v-465q0 -41 27 -41l127 4v-67h-508v67l59 -4q27 3 27 41v1776q0 37 -25 43zM397 377q0 -303 176 -303q90 0 123 76t33 278 q0 205 -29.5 281.5t-115.5 76.5q-88 0 -137.5 -88t-49.5 -235v-86z" />
<glyph unicode="&#xff;" horiz-adv-x="1026" d="M-4 803v67h528v-67l-92 4q-14 0 -22 -11.5t-2 -23.5l219 -450l190 454q12 31 -20 31l-97 -4v67h324v-67l-76 4h-4q-37 0 -51 -39l-418 -1006q-59 -142 -125 -196.5t-162 -54.5q-75 0 -121.5 34t-50.5 99q0 63 36 98t81 35q41 0 68 -19t37 -41.5t25.5 -41.5t35.5 -19 q27 0 47 22t43 78l96 232l-376 792q-13 27 -33 27zM182 1229q0 58 44 93.5t114 35.5q68 0 113 -35.5t45 -93.5q0 -59 -44 -94t-114 -35t-114 35t-44 94zM614 1229q0 58 44 93.5t114 35.5q68 0 113 -35.5t45 -93.5q0 -59 -44 -94t-114 -35t-114 35t-44 94z" />
<glyph unicode="&#x152;" horiz-adv-x="1853" d="M61 598q0 307 158.5 476t480.5 169q56 0 137.5 -10t127.5 -10h743v-316h-70q0 131 -68.5 187.5t-221.5 56.5h-150q-27 0 -27 -29v-456h136q70 0 113.5 55.5t43.5 150.5h70v-481h-70q0 86 -46.5 144.5t-110.5 58.5h-136v-496q0 -26 27 -26h209q141 0 214 76.5t73 218.5h69 v-373q-53 6 -194 6h-588q-41 0 -85 -2t-78 -5t-62 -6t-44.5 -5t-17.5 -2q-302 0 -467.5 164t-165.5 454zM367 606q0 -303 73.5 -428t245.5 -125q112 0 157.5 38t45.5 93v893q0 41 -59 70t-144 29q-170 0 -244.5 -131t-74.5 -439z" />
<glyph unicode="&#x153;" horiz-adv-x="1572" d="M41 432q0 220 113 339.5t340 119.5q205 0 313 -105q114 105 313 105q189 0 300.5 -101.5t111.5 -289.5v-70h-594q0 -178 67 -272.5t197 -94.5q93 0 165 49.5t101 116.5l56 -39q-47 -100 -148 -155t-248 -55q-205 0 -321 104q-58 -55 -132 -79.5t-179 -24.5 q-225 0 -340 116.5t-115 335.5zM328 430q0 -199 39.5 -289t128.5 -90q98 0 136 86t38 295q0 218 -39 303.5t-135 85.5q-88 0 -128 -89.5t-40 -301.5zM940 496h281q36 0 36 59q0 138 -33.5 202t-111.5 64q-86 0 -129 -87t-43 -238z" />
<glyph unicode="&#x178;" horiz-adv-x="1144" d="M-2 1147v76h553v-76l-109 4q-22 1 -24 -15.5t10 -33.5l272 -455l261 463q8 12 5 26.5t-20 14.5l-106 -4v76h325v-76l-61 4q-33 0 -57 -43l-308 -551v-442q0 -43 41 -43l99 4v-76h-562v76l101 -4q39 0 39 45v407l-353 588q-23 39 -49 39zM250 1524q0 58 44 93.5t114 35.5 q68 0 112.5 -35.5t44.5 -93.5q0 -59 -43.5 -94t-113.5 -35t-114 35t-44 94zM682 1524q0 58 44 93.5t114 35.5q68 0 112.5 -35.5t44.5 -93.5q0 -59 -43.5 -94t-113.5 -35t-114 35t-44 94z" />
<glyph unicode="&#x2c6;" horiz-adv-x="1118" d="M72 1026q0 9 19 29t61 61t75 78l47 49l50 49q34 37 67 37q31 0 68 -37l49 -49l47 -49q33 -37 75 -78t61.5 -61t19.5 -29q0 -16 -25 -16q-30 0 -68 24l-227 135l-229 -135q-38 -24 -68 -24q-22 0 -22 16z" />
<glyph unicode="&#x2dc;" horiz-adv-x="729" d="M72 1077q0 92 33 147.5t98 55.5q51 0 173.5 -40t158.5 -40q29 0 48 21.5t19 56.5h55q0 -93 -32.5 -148t-98.5 -55q-53 0 -173 41t-156 41q-30 0 -49 -22t-19 -58h-57z" />
<glyph unicode="&#x2000;" horiz-adv-x="851" />
<glyph unicode="&#x2001;" horiz-adv-x="1702" />
<glyph unicode="&#x2002;" horiz-adv-x="851" />
<glyph unicode="&#x2003;" horiz-adv-x="1702" />
<glyph unicode="&#x2004;" horiz-adv-x="567" />
<glyph unicode="&#x2005;" horiz-adv-x="425" />
<glyph unicode="&#x2006;" horiz-adv-x="283" />
<glyph unicode="&#x2007;" horiz-adv-x="283" />
<glyph unicode="&#x2008;" horiz-adv-x="212" />
<glyph unicode="&#x2009;" horiz-adv-x="340" />
<glyph unicode="&#x200a;" horiz-adv-x="94" />
<glyph unicode="&#x2010;" horiz-adv-x="512" d="M45 373v127h422v-127h-422z" />
<glyph unicode="&#x2011;" horiz-adv-x="512" d="M45 373v127h422v-127h-422z" />
<glyph unicode="&#x2012;" horiz-adv-x="512" d="M45 373v127h422v-127h-422z" />
<glyph unicode="&#x2013;" horiz-adv-x="976" d="M37 383v96h903v-96h-903z" />
<glyph unicode="&#x2014;" horiz-adv-x="1626" d="M0 383v96h1626v-96h-1626z" />
<glyph unicode="&#x2018;" horiz-adv-x="526" d="M55 979q0 61 23.5 116t64.5 97t85.5 73t97.5 56l26 -45q-55 -31 -94 -77.5t-39 -94.5q0 -49 57 -49q51 0 85 -33t34 -86q0 -60 -43.5 -100.5t-118.5 -40.5q-81 0 -129.5 53t-48.5 131z" />
<glyph unicode="&#x2019;" horiz-adv-x="526" d="M131 1161q0 60 43.5 101t118.5 41q81 0 129.5 -53.5t48.5 -131.5q0 -116 -78 -202t-192 -140l-27 45q55 31 94 77.5t39 94.5q0 49 -57 49q-51 0 -85 33t-34 86z" />
<glyph unicode="&#x201a;" horiz-adv-x="616" d="M209 57q0 60 43.5 101t118.5 41q81 0 129.5 -53.5t48.5 -131.5q0 -116 -78 -202t-192 -140l-27 45q55 31 94 77.5t39 94.5q0 50 -57 50q-51 0 -85 32.5t-34 85.5z" />
<glyph unicode="&#x201c;" d="M53 981q0 61 23.5 116t64.5 97t85.5 73t97.5 56l26 -45q-55 -31 -94 -77.5t-39 -94.5q0 -49 57 -49q51 0 85 -33t34 -86q0 -60 -43.5 -100.5t-118.5 -40.5q-81 0 -129.5 53t-48.5 131zM471 981q0 116 78 202t192 140l27 -45q-55 -31 -94 -77.5t-39 -94.5q0 -49 57 -49 q51 0 85 -33t34 -86q0 -60 -43.5 -100.5t-118.5 -40.5q-81 0 -129.5 53t-48.5 131z" />
<glyph unicode="&#x201d;" d="M131 1161q0 60 43.5 101t118.5 41q81 0 129.5 -53.5t48.5 -131.5q0 -116 -78 -202t-192 -140l-27 45q55 31 94 77.5t39 94.5q0 49 -57 49q-51 0 -85 33t-34 86zM549 1161q0 60 43.5 101t118.5 41q81 0 129.5 -53.5t48.5 -131.5q0 -61 -23.5 -116t-64.5 -97t-85.5 -73 t-97.5 -56l-26 45q55 31 94 77.5t39 94.5q0 49 -57 49q-51 0 -85 33t-34 86z" />
<glyph unicode="&#x201e;" horiz-adv-x="1040" d="M209 57q0 60 43.5 101t118.5 41q81 0 129.5 -53.5t48.5 -131.5q0 -116 -78 -202t-192 -140l-27 45q55 31 94 77.5t39 94.5q0 50 -57 50q-51 0 -85 32.5t-34 85.5zM633 57q0 60 43.5 101t118.5 41q81 0 129.5 -53.5t48.5 -131.5q0 -61 -23.5 -116t-64.5 -97t-85.5 -73 t-97.5 -56l-26 45q55 31 94 77.5t39 94.5q0 50 -57 50q-51 0 -85 32.5t-34 85.5z" />
<glyph unicode="&#x2022;" horiz-adv-x="958" d="M168 506q0 119 88.5 193.5t222.5 74.5q132 0 219.5 -74.5t87.5 -193.5q0 -118 -88 -193t-219 -75q-138 0 -224.5 74.5t-86.5 193.5z" />
<glyph unicode="&#x2026;" horiz-adv-x="1525" d="M92 133q0 70 53 112t136 42q84 0 137 -42t53 -112q0 -71 -52.5 -112t-137.5 -41q-83 0 -136 41t-53 112zM573 133q0 70 53 112t136 42q84 0 137 -42t53 -112q0 -71 -52.5 -112t-137.5 -41q-83 0 -136 41t-53 112zM1055 133q0 70 52.5 112t135.5 42q84 0 137.5 -42 t53.5 -112q0 -71 -53 -112t-138 -41q-83 0 -135.5 41t-52.5 112z" />
<glyph unicode="&#x202f;" horiz-adv-x="340" />
<glyph unicode="&#x2039;" horiz-adv-x="618" d="M43 422l383 350h88l-201 -350l201 -350h-88z" />
<glyph unicode="&#x203a;" horiz-adv-x="616" d="M104 72l201 350l-201 350h89l382 -350l-382 -350h-89z" />
<glyph unicode="&#x205f;" horiz-adv-x="425" />
<glyph unicode="&#x20ac;" horiz-adv-x="993" d="M4 442l21 84h69q-2 25 -2 78q0 49 2 72h-90l21 84h77q34 231 165.5 357t340.5 126q62 0 115.5 -13.5t85.5 -30.5t74 -30.5t84 -13.5q-9 -71 -9 -154q0 -105 9 -114h-66q-17 121 -88.5 206t-159.5 85q-100 0 -164 -107.5t-81 -310.5h407l-20 -84h-392q-2 -23 -2 -72 q0 -53 2 -78h412l-20 -84h-385q20 -189 86.5 -290t165.5 -101q92 0 161 83t88 208h74q-12 -101 -12 -174q0 -58 6 -96h-12q-40 0 -101 -23t-131.5 -46t-134.5 -23q-199 0 -330 122t-166 340h-100z" />
<glyph unicode="&#x2122;" horiz-adv-x="1583" d="M16 1071v152h609v-152h-50q0 54 -29.5 79.5t-96.5 25.5h-15q-12 0 -12 -13v-458q0 -23 20 -23l56 2v-49h-355v49l56 -2q18 0 18 25v456q0 13 -12 13h-15q-67 0 -96 -25.5t-31 -79.5h-47zM692 635v49l39 -2q21 0 21 23v462q0 10 -11 7l-43 -3v52h291l156 -344l158 344h249 v-52l-24 3q-9 1 -15 -5t-6 -14v-450q0 -23 21 -23l31 2v-49h-328v49l51 -2q21 0 21 23v393l-209 -457h-45l-242 512v-448q0 -23 20 -23l50 2v-49h-185z" />
<glyph unicode="&#x25fc;" horiz-adv-x="870" d="M0 0v870h870v-870h-870z" />
</font>
</defs>
</svg>
