<?xml version="1.0" standalone="no"?>
<!DOCTYPE svg PUBLIC "-//W3C//DTD SVG 1.1//EN" "http://www.w3.org/Graphics/SVG/1.1/DTD/svg11.dtd" >
<svg>
<metadata>
Created by FontForge 20120731 at Mon Feb 15 05:18:40 2016
 By ,,,
Copyright 2002 Adobe Systems Incorporated. All Rights Reserved. Utopia is a registered trademark of Adobe Systems Incorporated.
</metadata>
<defs>
<font id="UtopiaStd-SemiboldDisp" horiz-adv-x="347" >
  <font-face 
    font-family="Utopia Std"
    font-weight="600"
    font-stretch="normal"
    units-per-em="1000"
    panose-1="2 4 7 3 6 5 6 2 2 4"
    ascent="728"
    descent="-272"
    x-height="461"
    cap-height="660"
    bbox="-164 -245 1046 872"
    underline-thickness="50"
    underline-position="-50"
    stemh="27"
    stemv="126"
    unicode-range="U+0020-FB04"
  />
<missing-glyph horiz-adv-x="470" 
d="M0 0v700h500v-700h-500zM250 395l170 255h-340zM280 350l170 -255v510zM80 50h340l-170 255zM50 605v-510l170 255z" />
    <glyph glyph-name="f_i" unicode="fi" horiz-adv-x="570" 
d="M21 461h58v49c0 133 57 211 169 211c85 0 101 -47 101 -67c0 -30 -30 -47 -56 -47c-20 0 -28 7 -33 23c-15 53 -28 69 -43 69c-12 0 -27 -11 -27 -55c3 -42 14 -129 14 -183h100c85 0 148 6 190 10l4 -4v-397c0 -42 4 -44 61 -48v-22h-241v22c40 3 55 1 55 43v316
c0 40 -7 47 -35 47h-134v-363c0 -44 20 -38 61 -43v-22h-244v22c54 3 58 6 58 48v358h-58v33zM434 671h1c41 0 63 -30 63 -65c0 -36 -23 -66 -64 -66s-63 30 -63 66c0 35 22 65 63 65z" />
    <glyph glyph-name="f_l" unicode="fl" horiz-adv-x="570" 
d="M21 461h58v49c0 133 57 211 168 211c37 0 69 -10 83 -23l166 23l2 -2v-649c0 -42 4 -44 61 -48v-22h-241v22c40 3 55 1 55 43v564c0 33 -3 42 -19 44l-9 2c11 -31 -14 -60 -46 -60c-20 0 -27 8 -32 24c-16 52 -29 60 -44 60c-14 0 -28 -15 -27 -57c3 -43 8 -127 8 -181
h89v-33h-89v-363c0 -44 20 -38 61 -43v-22h-244v22c54 3 58 6 58 48v358h-58v33z" />
    <glyph glyph-name="f_f" unicode="ff" horiz-adv-x="579" 
d="M23 461h56v46c0 132 58 209 170 209c85 0 101 -47 101 -67c0 -31 -29 -47 -54 -47c-20 0 -30 11 -35 27c-15 53 -28 65 -43 65c-12 0 -25 -12 -24 -52c4 -44 10 -115 10 -181h169v49c0 133 59 211 169 211c86 0 103 -48 103 -68c0 -30 -33 -47 -59 -47
c-19 0 -27 8 -32 24c-16 52 -27 69 -43 69c-12 0 -25 -11 -24 -52c2 -51 10 -110 10 -186h84v-33h-84v-358c0 -42 6 -45 73 -48v-22h-259v22c41 3 62 -1 62 43v363h-169v-364c0 -42 30 -38 66 -42v-22h-250v22c56 4 59 6 59 48v358h-56v33z" />
    <glyph glyph-name="f_f_i" unicode="ffi" horiz-adv-x="863" 
d="M23 461h56v46c0 133 59 210 170 210c85 0 103 -48 103 -68c0 -30 -31 -47 -57 -47c-19 0 -29 11 -34 27c-15 52 -28 66 -43 66c-10 0 -24 -11 -23 -51c3 -43 9 -128 9 -183h169v49c0 133 58 211 168 211c86 0 100 -47 100 -67c0 -31 -30 -49 -55 -49c-20 0 -28 9 -33 25
c-16 52 -27 69 -42 69c-13 0 -27 -10 -25 -51c3 -43 11 -132 11 -187h100c85 0 147 6 190 10l4 -4v-397c0 -42 4 -44 60 -48v-22h-240v22c40 3 55 1 55 43v316c0 40 -7 47 -35 47h-134v-358c0 -42 6 -45 73 -48v-22h-259v22c41 3 62 -1 62 43v363h-169v-364
c0 -42 30 -38 66 -42v-22h-250v22c56 4 59 6 59 48v358h-56v33zM728 662h1c41 0 63 -30 63 -65c0 -36 -24 -66 -64 -66c-41 0 -63 30 -63 66c0 35 22 65 63 65z" />
    <glyph glyph-name="f_f_l" unicode="ffl" horiz-adv-x="863" 
d="M23 461h56v40c0 133 57 216 169 216c85 0 99 -47 99 -67c0 -31 -30 -48 -56 -48c-20 0 -30 11 -35 27c-15 52 -26 66 -41 66c-10 0 -23 -11 -22 -51c3 -43 11 -128 11 -183h169v50c0 133 59 210 170 210c37 0 64 -10 79 -23l166 23l2 -2l1 -649c0 -42 4 -44 60 -48v-22
h-240v22c40 3 55 1 55 43v564c0 33 -4 41 -19 44l-11 2c11 -31 -14 -60 -46 -60c-19 0 -27 8 -32 24c-16 52 -28 60 -44 60c-13 0 -26 -15 -25 -56c3 -43 8 -127 8 -182h84v-33h-84v-358c0 -42 6 -45 73 -48v-22h-259v22c41 3 62 -1 62 43v363h-169v-364
c0 -42 30 -38 66 -42v-22h-250v22c56 4 59 6 59 48v358h-56v33z" />
    <glyph glyph-name="T_h" unicode="Th" horiz-adv-x="1059" 
d="M21 660h541v46l123 15l3 -2v-316c58 36 100 69 159 69c97 0 140 -56 140 -146v-255c0 -41 4 -46 59 -49v-22h-235v22c38 4 51 4 51 44v264c0 61 -29 91 -80 91c-41 0 -71 -19 -85 -47c-7 -13 -9 -33 -9 -54v-254c0 -40 13 -40 52 -44v-22h-237v22c55 3 59 8 59 49v553
c-24 4 -51 9 -136 9h-57v-556c0 -31 3 -49 41 -52l46 -3v-22h-309v22l47 4c41 3 40 21 40 51v556h-59c-91 0 -105 -52 -132 -148h-22v175z" />
    <glyph glyph-name=".notdef" horiz-adv-x="470" 
d="M0 0v700h500v-700h-500zM250 395l170 255h-340zM280 350l170 -255v510zM80 50h340l-170 255zM50 605v-510l170 255z" />
    <glyph glyph-name="space" unicode=" " horiz-adv-x="184" 
 />
    <glyph glyph-name="exclam" unicode="!" horiz-adv-x="272" 
d="M147 203h-20l-66 340c-15 68 -2 108 76 108c79 0 92 -41 76 -108zM137 -11h-1c-40 0 -66 29 -66 69s26 69 67 69s67 -29 66 -69s-25 -69 -66 -69z" />
    <glyph glyph-name="quotedbl" unicode="&#x22;" horiz-adv-x="341" 
d="M80 450c3 89 -15 196 -36 243c11 10 62 36 85 33c13 -14 23 -43 23 -61c0 -68 -35 -162 -53 -207zM228 450c2 89 -15 196 -36 243c10 10 62 36 85 33c12 -14 22 -43 22 -61c0 -69 -35 -162 -52 -207z" />
    <glyph glyph-name="numbersign" unicode="#" horiz-adv-x="512" 
d="M320 374h-112l-24 -95h112zM450 374h-100l-25 -95h100l-13 -62h-100l-45 -182h-31l46 182h-113l-44 -182h-32l45 182h-98l15 62h97l25 95h-99l15 61h99l41 168h30l-41 -168h112l42 168h30l-41 -168h99z" />
    <glyph glyph-name="dollar" unicode="$" horiz-adv-x="512" 
d="M238 393v212c-48 -3 -96 -23 -96 -104c0 -56 31 -86 96 -108zM266 605v-223c131 -49 203 -72 203 -196c0 -139 -128 -186 -203 -186v-86h-28v86c-154 0 -199 81 -199 115c0 37 32 56 55 56c20 0 29 -8 34 -27c23 -108 89 -117 110 -120v233c-123 44 -194 78 -194 193
c0 117 91 174 194 178v74h28v-74c122 -3 175 -61 175 -100c0 -40 -34 -50 -51 -50c-19 0 -30 6 -33 24c-16 80 -64 98 -91 103zM266 247v-223c50 -1 98 26 98 108c0 64 -36 91 -98 115z" />
    <glyph glyph-name="percent" unicode="%" horiz-adv-x="721" 
d="M537 316h-1c-40 0 -58 -49 -58 -153c0 -96 19 -153 59 -153c41 0 58 57 58 153c0 104 -22 153 -58 153zM537 -11h-1c-99 0 -147 60 -147 174s48 175 148 175c98 0 147 -61 147 -175s-49 -174 -147 -174zM552 668l29 -20l-411 -680l-26 20l353 578h-181
c8 -15 16 -57 16 -101c0 -114 -52 -175 -151 -175c-95 0 -143 61 -143 175s48 174 147 174c48 0 76 -13 104 -32c11 -6 25 -12 44 -12h128c40 0 52 7 67 34zM185 618h-1c-38 0 -58 -49 -58 -153c0 -96 18 -153 60 -153c40 0 57 57 57 153c0 104 -21 153 -58 153z" />
    <glyph glyph-name="ampersand" unicode="&#x26;" horiz-adv-x="698" 
d="M285 619h-1c-41 0 -64 -30 -64 -93c0 -50 26 -98 65 -144c36 26 69 61 69 133c0 75 -31 104 -69 104zM293 642h1c88 0 157 -53 157 -138c0 -76 -72 -97 -153 -137c49 -58 134 -148 213 -216c21 30 33 79 33 122c0 37 -6 70 -18 108c19 20 59 38 86 35
c23 -26 26 -57 24 -87c-4 -65 -60 -145 -108 -192c48 -47 119 -111 155 -126l-3 -18l-41 1c-80 4 -139 16 -198 60c-58 -45 -106 -65 -185 -65c-117 0 -214 64 -214 185c0 92 49 111 133 162c-32 40 -54 83 -54 141c0 95 67 165 172 165zM187 317c-18 -20 -27 -53 -27 -93
c0 -110 79 -182 161 -182c41 0 82 7 103 24c-88 72 -191 193 -237 251z" />
    <glyph glyph-name="quoteright" unicode="&#x2019;" horiz-adv-x="212" 
d="M31 460c33 53 49 94 49 158c0 24 -12 58 -24 75c11 11 66 36 90 33c14 -15 29 -44 29 -63c0 -75 -68 -154 -132 -214z" />
    <glyph glyph-name="parenleft" unicode="(" horiz-adv-x="385" 
d="M169 280v-1c0 -215 61 -400 185 -441l-4 -20c-214 15 -272 264 -272 462c0 296 121 457 272 467l4 -19c-117 -34 -185 -202 -185 -448z" />
    <glyph glyph-name="parenright" unicode=")" horiz-adv-x="385" 
d="M216 287v1c0 214 -60 400 -185 440l4 20c214 -14 272 -264 272 -461c0 -296 -121 -457 -272 -468l-4 20c118 34 185 202 185 448z" />
    <glyph glyph-name="asterisk" unicode="*" horiz-adv-x="361" 
d="M208 673c22 -4 36 -19 28 -35l-40 -84c-7 -14 -1 -19 9 -12l83 61c14 9 27 0 36 -23c7 -19 8 -38 -14 -41l-98 -14c-17 -3 -19 -12 -4 -18l89 -44c19 -9 12 -30 -3 -47c-13 -15 -30 -25 -41 -8l-56 86c-10 15 -14 5 -13 -9l6 -97c0 -21 -14 -28 -38 -24
c-23 4 -36 19 -26 37l41 88c6 13 2 22 -11 12l-78 -59c-17 -12 -33 0 -41 18c-9 19 -7 41 14 44l101 14c12 1 14 10 1 16l-86 39c-21 9 -20 27 -5 46c16 22 33 26 46 7l58 -78c7 -10 13 -7 12 8l-10 93c-2 20 14 29 40 24z" />
    <glyph glyph-name="plus" unicode="+" horiz-adv-x="485" 
d="M50 204v48h166v171h54v-171h166v-48h-166v-179h-54v179h-166z" />
    <glyph glyph-name="comma" unicode="," horiz-adv-x="218" 
d="M19 -127c37 57 54 101 54 170c0 23 -14 59 -25 76c12 11 69 37 95 34c15 -15 31 -45 31 -65c0 -79 -73 -163 -141 -226z" />
    <glyph glyph-name="hyphen" unicode="-" horiz-adv-x="294" 
d="M38 263h219v-61h-219v61z" />
    <glyph glyph-name="period" unicode="." horiz-adv-x="218" 
d="M109 -11h-1c-40 0 -66 29 -66 69s26 70 67 70s68 -30 67 -70s-26 -69 -67 -69z" />
    <glyph glyph-name="slash" unicode="/" horiz-adv-x="390" 
d="M77 -89l-37 14l272 776l38 -14z" />
    <glyph glyph-name="zero" unicode="0" horiz-adv-x="512" 
d="M255 616h-1c-81 0 -86 -169 -86 -302c0 -139 6 -302 88 -302c81 0 88 161 88 302c0 133 -7 302 -89 302zM256 639h1c170 0 224 -149 224 -325s-52 -325 -225 -325c-172 0 -225 151 -225 325c0 177 52 325 225 325z" />
    <glyph glyph-name="one" unicode="1" horiz-adv-x="512" 
d="M428 0h-332v21l67 6c24 2 33 11 33 40v473c0 32 -8 40 -30 43l-66 7v18l224 31l4 -3v-569c0 -31 10 -38 32 -40l68 -6v-21z" />
    <glyph glyph-name="two" unicode="2" horiz-adv-x="512" 
d="M487 171l-40 -171h-413l-4 6c6 63 45 132 172 248c96 89 113 164 113 228c0 68 -20 134 -86 134c-57 0 -83 -40 -100 -150c-4 -24 -22 -34 -41 -34c-31 0 -54 22 -54 57c0 68 63 150 212 150c120 0 209 -51 209 -184c0 -110 -59 -153 -165 -211
c-107 -57 -178 -110 -196 -142h296c24 0 43 3 78 74z" />
    <glyph glyph-name="three" unicode="3" horiz-adv-x="512" 
d="M133 336v1c0 19 11 24 29 24c24 0 40 -9 74 -9c60 0 69 57 69 133c0 50 -12 131 -77 131c-53 0 -75 -39 -100 -120c-7 -20 -14 -29 -32 -29c-25 0 -48 19 -48 50c0 54 71 122 195 122c97 0 199 -31 199 -155c0 -94 -91 -125 -157 -138v-8c62 -9 185 -26 185 -158
c0 -120 -86 -191 -234 -191c-163 0 -198 67 -198 106c0 40 29 58 54 58c21 0 28 -10 35 -31c27 -88 65 -110 110 -110c62 0 91 64 91 164c0 117 -36 146 -92 146c-37 0 -52 -10 -74 -10c-18 0 -29 5 -29 24z" />
    <glyph glyph-name="four" unicode="4" horiz-adv-x="512" 
d="M273 182h-242l-13 22c34 62 236 375 275 424h107v-409h88v-37h-88v-124c0 -25 8 -30 28 -32l42 -5v-21h-273v21l51 6c18 2 25 5 25 31v124zM66 219h207v339h-1c-60 -91 -167 -267 -206 -339z" />
    <glyph glyph-name="five" unicode="5" horiz-adv-x="512" 
d="M413 522h-269c-19 0 -26 -5 -29 -22l-25 -193l1 -1c39 33 105 76 182 76c153 0 193 -88 193 -181c0 -113 -66 -212 -238 -212c-163 0 -190 72 -190 107c0 33 31 57 58 57c20 0 28 -14 35 -32c25 -80 44 -110 101 -110c67 0 89 70 89 171c0 109 -49 150 -109 150
c-54 0 -85 -11 -128 -65l-18 13l27 344l6 4h209c88 0 116 0 134 8l5 -7z" />
    <glyph glyph-name="six" unicode="6" horiz-adv-x="512" 
d="M283 639h1c124 0 172 -52 172 -93c0 -33 -29 -49 -53 -49c-20 0 -26 7 -31 25c-21 74 -54 95 -94 95c-88 0 -114 -154 -114 -300h2c27 30 88 73 153 73c97 0 167 -58 167 -184c0 -121 -65 -217 -228 -217c-172 0 -229 122 -229 311c0 75 16 171 51 231
c38 68 100 108 203 108zM257 344h-1c-61 0 -92 -57 -92 -113c0 -112 26 -219 99 -219c68 0 91 84 91 171c0 107 -43 161 -97 161z" />
    <glyph glyph-name="seven" unicode="7" horiz-adv-x="512" 
d="M78 628h409l4 -4c-12 -86 -74 -189 -122 -274c-37 -65 -76 -153 -76 -250c0 -20 3 -48 5 -67c5 -36 -22 -44 -54 -44c-38 0 -66 10 -66 59c0 76 49 167 124 271c73 98 107 141 136 203h-311c-29 0 -35 -5 -55 -48l-13 -30l-20 5z" />
    <glyph glyph-name="eight" unicode="8" horiz-adv-x="512" 
d="M255 319h-1c-64 0 -90 -54 -90 -147c0 -89 21 -160 92 -160c72 0 91 72 91 160c0 86 -26 147 -92 147zM255 -11h-1c-129 0 -226 57 -226 187c0 90 63 138 148 156v5c-83 15 -127 56 -127 136c0 107 81 166 207 166c128 0 206 -56 206 -164c0 -75 -43 -121 -125 -138v-5
c88 -20 146 -65 146 -156c0 -130 -97 -187 -228 -187zM258 343h1c63 0 76 64 76 132c0 77 -13 141 -80 141c-52 0 -78 -47 -78 -138c0 -82 21 -135 81 -135z" />
    <glyph glyph-name="nine" unicode="9" horiz-adv-x="512" 
d="M211 253h-1c-99 0 -176 53 -176 179c0 121 74 207 215 207c85 0 140 -26 176 -77s51 -129 51 -230c0 -127 -29 -215 -73 -267c-42 -48 -101 -76 -182 -76c-140 0 -171 62 -171 98c0 32 25 47 50 47c18 0 25 -8 30 -27c26 -72 71 -95 111 -95c76 0 101 103 101 304h-2
c-28 -33 -76 -63 -129 -63zM262 301h1c30 0 56 13 67 35c9 15 12 29 12 57c0 109 -19 223 -92 223c-63 0 -86 -75 -86 -166c0 -83 32 -149 98 -149z" />
    <glyph glyph-name="colon" unicode=":" horiz-adv-x="218" 
d="M109 299h-1c-40 0 -66 29 -66 70c0 40 26 70 67 70s68 -30 67 -70c-1 -41 -26 -70 -67 -70zM109 -11h-1c-40 0 -66 29 -66 69s26 70 67 70s68 -30 67 -70s-26 -69 -67 -69z" />
    <glyph glyph-name="semicolon" unicode=";" horiz-adv-x="218" 
d="M109 299h-1c-40 0 -66 29 -66 70c0 40 26 70 67 70s68 -30 67 -70c-1 -41 -26 -70 -67 -70zM19 -127c37 57 54 102 54 170c0 23 -14 60 -25 76c12 11 69 37 95 34c15 -15 31 -45 31 -64c0 -80 -73 -164 -141 -227z" />
    <glyph glyph-name="less" unicode="&#x3c;" horiz-adv-x="485" 
d="M435 79v-55l-382 173v63l382 172v-54l-335 -150z" />
    <glyph glyph-name="equal" unicode="=" horiz-adv-x="485" 
d="M50 291v49h386v-49h-386zM50 115v49h386v-49h-386z" />
    <glyph glyph-name="greater" unicode="&#x3e;" horiz-adv-x="485" 
d="M53 378v54l382 -172v-63l-382 -173v55l335 149z" />
    <glyph glyph-name="question" unicode="?" horiz-adv-x="456" 
d="M235 665h1c108 0 172 -48 172 -137c0 -54 -24 -73 -95 -124c-46 -32 -65 -62 -65 -87c0 -28 22 -49 48 -49c13 0 21 2 30 4l4 -15c-24 -22 -56 -40 -95 -40c-64 0 -107 34 -107 92c0 30 19 58 75 103c60 47 75 91 75 139c0 60 -22 91 -53 91c-35 0 -57 -30 -65 -121
c-3 -25 -21 -33 -47 -33c-28 0 -66 18 -66 60c0 44 52 117 188 117zM230 -11h-1c-39 0 -65 29 -65 69s26 69 66 69c42 0 68 -29 67 -69s-25 -69 -67 -69z" />
    <glyph glyph-name="at" unicode="@" horiz-adv-x="818" 
d="M358 67h1c59 0 114 114 146 230c7 27 15 55 20 81c-8 12 -24 19 -44 19c-86 0 -156 -170 -156 -272c0 -42 10 -58 33 -58zM537 414h96c-20 -75 -54 -221 -69 -294c-12 -54 -14 -81 17 -81c71 0 160 84 160 254c0 188 -128 286 -285 286c-222 0 -333 -176 -333 -409
c0 -147 70 -322 295 -322c115 0 178 33 254 126l8 -12c-76 -110 -177 -155 -295 -155c-177 0 -340 97 -340 359c0 281 184 436 414 436c211 0 318 -115 318 -301c0 -157 -96 -293 -239 -293c-56 0 -101 28 -67 138l-3 1c-34 -57 -96 -139 -177 -139c-35 0 -69 26 -69 100
c0 120 70 311 245 311c24 0 49 -7 67 -18z" />
    <glyph glyph-name="A" unicode="A" horiz-adv-x="652" 
d="M657 0h-289v22l51 6c22 1 26 14 18 36c-15 48 -45 138 -62 189h-200c-21 -70 -40 -126 -52 -182c-8 -30 -4 -42 19 -45l55 -4v-22h-201v22c54 3 63 11 84 61c39 92 146 405 204 581h94c49 -149 154 -466 200 -593c16 -41 26 -47 79 -49v-22zM365 282
c-18 57 -67 209 -90 278h-3c-16 -52 -68 -215 -86 -278h179z" />
    <glyph glyph-name="B" unicode="B" horiz-adv-x="623" 
d="M24 660h310c141 0 217 -32 217 -150c0 -86 -52 -136 -159 -149v-8c124 -12 189 -56 189 -159c0 -57 -20 -108 -57 -140c-42 -34 -103 -54 -212 -54h-288v22c69 4 74 10 74 57v501c0 51 -3 54 -74 58v22zM233 598v-236h64c88 0 119 33 119 134c0 81 -45 140 -128 140
c-48 0 -55 -4 -55 -38zM233 338v-249c0 -51 8 -65 71 -65c69 0 130 41 130 165c0 99 -34 149 -137 149h-64z" />
    <glyph glyph-name="C" unicode="C" horiz-adv-x="657" 
d="M593 202h22l-14 -174c-52 -30 -150 -44 -219 -44c-241 0 -340 122 -340 340c0 102 23 188 81 252c56 63 134 101 276 101c61 0 153 -12 202 -41v-166h-22c-19 79 -71 183 -189 183c-173 0 -197 -211 -197 -316c0 -143 32 -329 206 -329c115 0 157 73 194 194z" />
    <glyph glyph-name="D" unicode="D" horiz-adv-x="716" 
d="M234 604v-529c0 -40 12 -51 77 -51c120 0 213 62 213 313c0 179 -63 299 -208 299c-70 1 -82 -4 -82 -32zM25 660h314c122 0 201 -20 257 -75s78 -134 78 -239c0 -302 -207 -346 -374 -346h-275v22c68 3 73 9 73 57v501c0 50 -11 54 -73 58v22z" />
    <glyph glyph-name="E" unicode="E" horiz-adv-x="585" 
d="M98 79v501c0 51 -9 53 -75 58v22h495v-173h-23c-25 96 -56 145 -158 145h-69c-28 0 -34 -6 -34 -35v-240h92c74 0 89 17 104 92h22v-221h-22c-16 75 -28 99 -104 99h-92v-227c0 -64 8 -72 116 -72c114 0 153 59 184 165h23l-20 -193h-512v22c67 4 73 7 73 57z" />
    <glyph glyph-name="F" unicode="F" horiz-adv-x="548" 
d="M25 660h488v-172h-22c-30 108 -56 144 -157 144h-66c-28 0 -34 -6 -34 -35v-256h119c66 0 78 28 92 96h22v-220h-22c-14 68 -26 96 -92 96h-119v-234c0 -50 6 -53 88 -57v-22h-297v22c65 4 73 7 73 57v501c0 51 -3 54 -73 58v22z" />
    <glyph glyph-name="G" unicode="G" horiz-adv-x="700" 
d="M621 229v-201c-65 -26 -154 -44 -230 -44c-67 0 -157 5 -227 53c-72 48 -122 139 -122 288c0 155 66 352 353 352c75 0 160 -13 216 -41v-169h-22c-33 107 -81 186 -192 186c-171 0 -204 -211 -204 -321c0 -82 17 -325 204 -325c28 0 51 4 64 10c13 7 17 19 17 39v171
c0 47 -8 53 -82 57v22h281v-22c-49 -5 -56 -10 -56 -55z" />
    <glyph glyph-name="H" unicode="H" horiz-adv-x="727" 
d="M495 336h-261v-254c0 -49 3 -57 77 -60v-22h-287v22c71 3 74 8 74 60v496c0 51 -5 56 -74 60v22h287v-22c-70 -4 -77 -8 -77 -60v-213h261v213c0 49 -6 56 -74 60v22h283v-22c-68 -4 -73 -12 -73 -60v-496c0 -49 5 -57 73 -60v-22h-283v22c71 3 74 9 74 60v254z" />
    <glyph glyph-name="I" unicode="I" horiz-adv-x="331" 
d="M234 580v-501c0 -48 6 -54 73 -57v-22h-282v22c70 3 73 7 73 57v501c0 49 -3 54 -73 58v22h282v-22c-66 -4 -73 -7 -73 -58z" />
    <glyph glyph-name="J" unicode="J" horiz-adv-x="323" 
d="M235 581v-439c0 -117 -24 -189 -101 -226c-45 -21 -87 -28 -129 -28l-4 20c29 6 48 14 68 37c22 26 30 77 30 177v459c0 47 -2 54 -75 57v22h283v-22c-71 -3 -72 -8 -72 -57z" />
    <glyph glyph-name="K" unicode="K" horiz-adv-x="663" 
d="M98 79v501c0 47 -6 54 -75 58v22h285v-22c-69 -4 -74 -7 -74 -58v-501c0 -49 3 -54 74 -57v-22h-285v22c72 3 75 10 75 57zM485 605c13 18 11 27 -5 28l-53 6v21h232v-21c-64 -5 -79 -10 -116 -39c-63 -50 -131 -116 -203 -191c57 -95 151 -239 234 -332
c29 -32 63 -56 93 -62v-21l-71 2c-105 3 -146 12 -207 97c-53 70 -105 157 -149 236v7c55 55 210 217 245 269z" />
    <glyph glyph-name="L" unicode="L" horiz-adv-x="550" 
d="M234 580v-480c0 -63 17 -72 106 -72c106 0 140 56 173 161h23l-15 -189h-498v22c70 4 75 7 75 57v501c0 51 -5 54 -75 58v22h295v-22c-79 -3 -84 -7 -84 -58z" />
    <glyph glyph-name="M" unicode="M" horiz-adv-x="840" 
d="M229 0h-220v22c61 8 77 8 83 72c4 33 6 86 6 135v351c0 50 -9 54 -80 58v22h210c51 -121 156 -355 201 -456h3c42 103 132 339 177 456h207v-22c-71 -4 -74 -7 -74 -58v-501c0 -50 3 -54 74 -57v-22h-282v22c67 5 73 7 73 57v493h-3c-57 -151 -160 -430 -211 -571h-35
c-54 138 -150 379 -226 564h-2v-336c0 -52 2 -101 6 -135c7 -67 29 -65 93 -72v-22z" />
    <glyph glyph-name="N" unicode="N" horiz-adv-x="674" 
d="M585 0h-88c-113 171 -242 367 -364 548h-3v-328c0 -52 2 -92 6 -126c7 -68 29 -66 94 -72v-22h-217v22c59 8 73 10 79 72c4 33 6 76 6 131v360c0 40 -4 43 -79 53v22h195c106 -156 231 -333 336 -486l4 -1l-1 262c0 51 -2 97 -5 131c-8 68 -30 66 -99 72v22h217v-22
c-58 -8 -69 -12 -76 -72c-4 -33 -5 -83 -5 -131v-435z" />
    <glyph glyph-name="O" unicode="O" horiz-adv-x="718" 
d="M359 653h-1c-145 0 -165 -197 -165 -323c0 -132 21 -322 166 -322c146 0 166 190 166 322c0 126 -20 323 -166 323zM359 677h1c217 0 315 -135 315 -347c0 -213 -98 -346 -316 -346s-316 133 -316 346c0 212 98 347 316 347z" />
    <glyph glyph-name="P" unicode="P" horiz-adv-x="588" 
d="M318 0h-294v22c71 3 74 8 74 58v501c0 50 -4 53 -74 57v22h283c75 0 127 -6 173 -34c47 -29 74 -83 74 -158c0 -82 -35 -135 -88 -166c-42 -27 -97 -40 -175 -40c-21 0 -44 2 -58 4v-186c0 -50 2 -54 85 -60v-20zM233 601v-272c0 -35 22 -43 61 -43c95 0 120 80 120 179
c0 116 -56 171 -127 171c-51 0 -54 -8 -54 -35z" />
    <glyph glyph-name="Q" unicode="Q" horiz-adv-x="718" 
d="M359 653h-1c-145 0 -165 -197 -165 -323c0 -133 20 -323 166 -323s166 190 166 323c0 126 -20 323 -166 323zM359 677h1c217 0 315 -135 315 -347c0 -174 -69 -301 -219 -336c12 -23 37 -58 60 -82c47 -50 98 -63 123 -63h12l3 -15c-22 -13 -72 -20 -109 -20
c-134 0 -202 97 -234 173c-184 13 -268 150 -268 343c0 213 98 347 316 347z" />
    <glyph glyph-name="R" unicode="R" horiz-adv-x="625" 
d="M234 319v-240c0 -50 5 -52 74 -57v-22h-284v22c71 3 74 7 74 57v501c0 51 -6 53 -74 58v22h316c127 0 210 -36 210 -161c0 -89 -62 -145 -166 -156v-8c99 -25 135 -74 156 -172c25 -108 33 -137 94 -141v-22h-73c-93 0 -127 26 -150 94c-11 38 -20 91 -27 132
c-13 80 -42 93 -110 93h-40zM234 601v-258h41c104 0 133 49 133 146c0 100 -49 147 -114 147c-56 0 -60 -6 -60 -35z" />
    <glyph glyph-name="S" unicode="S" horiz-adv-x="519" 
d="M443 482h-20c-22 108 -86 170 -156 170c-64 0 -104 -39 -104 -111c0 -81 69 -116 139 -149c91 -42 177 -79 177 -205c0 -98 -55 -203 -235 -203c-64 0 -136 11 -189 52l-12 171h21c33 -117 102 -199 180 -199c86 0 116 53 116 117c0 73 -50 109 -130 148
c-90 42 -178 83 -178 207c0 120 77 196 224 196c52 0 123 -14 167 -41v-153z" />
    <glyph glyph-name="T" unicode="T" horiz-adv-x="591" 
d="M363 632v-554c0 -32 3 -50 42 -52l50 -4v-22h-318v22l51 4c40 3 40 21 40 52v554h-49c-93 0 -107 -52 -134 -150h-23v178h547v-178h-22c-28 98 -43 150 -136 150h-48z" />
    <glyph glyph-name="U" unicode="U" horiz-adv-x="709" 
d="M420 660h271v-22c-68 -4 -70 -8 -70 -58v-362c0 -58 -11 -103 -32 -137c-41 -71 -122 -97 -232 -97c-117 0 -199 26 -239 96c-20 34 -30 80 -30 138v362c0 51 -3 54 -71 58v22h278v-22c-64 -3 -71 -7 -71 -58v-386c0 -110 35 -186 133 -186c102 0 135 74 135 186v386
c0 51 -3 54 -72 58v22z" />
    <glyph glyph-name="V" unicode="V" horiz-adv-x="629" 
d="M-14 660h281v-22l-45 -5c-22 -2 -25 -12 -18 -34c28 -83 124 -358 168 -486h4c51 141 115 347 148 470c11 37 7 46 -24 49l-45 6v22h198v-22c-53 -3 -68 -12 -91 -71c-55 -149 -136 -383 -197 -567h-97c-36 112 -166 483 -204 587c-16 44 -28 49 -78 51v22z" />
    <glyph glyph-name="W" unicode="W" horiz-adv-x="899" 
d="M721 660h197v-20c-52 -6 -67 -14 -80 -59c-55 -180 -112 -394 -163 -581h-97c-29 105 -115 398 -145 493h-2c-9 -30 -106 -463 -114 -493h-100c-48 187 -100 400 -157 591c-12 39 -21 45 -71 49v20h274v-20l-41 -6c-26 -4 -26 -16 -21 -38c16 -69 87 -349 118 -465h2
c10 37 106 481 115 514h89c40 -143 113 -386 155 -523h4c38 138 84 328 111 469c6 28 -1 39 -23 42l-51 7v20z" />
    <glyph glyph-name="X" unicode="X" horiz-adv-x="625" 
d="M213 0h-222v22c62 4 82 12 112 53c42 55 98 152 151 230c-50 90 -112 202 -162 282c-26 43 -35 47 -89 51v22h284v-22l-41 -5c-18 -2 -20 -13 -10 -33c27 -54 79 -145 102 -185h2c39 61 88 137 115 188c10 19 4 27 -10 29l-42 6v22h197v-22c-50 -3 -77 -7 -108 -47
c-39 -48 -88 -122 -138 -197c54 -95 125 -218 182 -314c28 -48 41 -55 103 -58v-22h-311v22l49 5c21 3 22 15 14 31c-28 54 -90 168 -121 222h-4c-42 -69 -101 -174 -123 -221c-9 -18 -5 -29 15 -31l55 -6v-22z" />
    <glyph glyph-name="Y" unicode="Y" horiz-adv-x="600" 
d="M471 0h-323v22c88 3 94 8 94 57v171c0 23 -6 42 -16 62c-39 78 -110 205 -153 273c-24 41 -33 50 -83 53v22h288v-22l-51 -6c-20 -1 -21 -14 -13 -29c42 -84 108 -209 148 -284h3c47 96 104 230 121 274c10 27 3 38 -15 40l-48 5v22h197v-22c-54 -5 -70 -15 -95 -57
c-39 -69 -91 -174 -130 -257c-11 -22 -17 -40 -17 -66v-179c0 -49 6 -54 93 -57v-22z" />
    <glyph glyph-name="Z" unicode="Z" horiz-adv-x="599" 
d="M48 660h514l3 -11c-103 -167 -308 -497 -382 -621h173c143 0 169 56 201 166h22l-18 -194h-542l-3 11c112 172 300 471 388 621h-159c-130 0 -155 -45 -175 -155h-22v183z" />
    <glyph glyph-name="bracketleft" unicode="[" horiz-adv-x="319" 
d="M189 660v-754c0 -47 5 -47 100 -57v-24h-181v916h181v-24c-96 -9 -100 -17 -100 -57z" />
    <glyph glyph-name="backslash" unicode="\" horiz-adv-x="390" 
d="M313 -89l-273 776l38 14l272 -776z" />
    <glyph glyph-name="bracketright" unicode="]" horiz-adv-x="319" 
d="M131 -94v754c0 42 -10 48 -100 57v24h180v-916h-180v24c85 9 100 18 100 57z" />
    <glyph glyph-name="asciicircum" unicode="^" horiz-adv-x="445" 
d="M407 293h-61l-124 287l-124 -287h-60l158 346h53z" />
    <glyph glyph-name="underscore" unicode="_" horiz-adv-x="470" 
d="M470 -71v-47h-470v47h470z" />
    <glyph glyph-name="quoteleft" unicode="&#x2018;" horiz-adv-x="212" 
d="M177 719c-34 -53 -51 -95 -51 -159c0 -24 13 -58 25 -74c-11 -11 -66 -36 -89 -33c-16 14 -30 44 -30 63c0 75 68 154 130 214z" />
    <glyph glyph-name="a" unicode="a" horiz-adv-x="501" 
d="M429 337v-230c0 -56 10 -69 25 -75c11 -4 25 -4 37 -3v-14c-29 -17 -64 -27 -111 -27s-64 26 -72 61c-33 -21 -75 -61 -135 -61c-94 0 -136 66 -136 137c0 51 21 90 96 111c68 18 150 41 173 65v58c0 62 -26 91 -66 91c-39 0 -69 -25 -86 -114c-5 -21 -17 -29 -37 -29
c-23 0 -65 14 -65 53c0 51 70 113 200 113c161 0 177 -78 177 -136zM306 109v165c-22 -11 -60 -27 -91 -44c-35 -16 -48 -40 -48 -85c0 -57 27 -106 76 -106c24 0 63 14 63 70z" />
    <glyph glyph-name="b" unicode="b" horiz-adv-x="550" 
d="M65 629c0 39 -8 47 -25 50l-33 5v20l181 17l2 -1v-313c42 31 87 66 149 66c110 0 175 -92 175 -224c0 -208 -109 -261 -242 -261c-62 0 -112 17 -146 35l-50 -34l-11 7v633zM190 320v-192c0 -19 2 -39 5 -53c9 -38 33 -64 79 -64c76 0 107 92 107 214
c0 156 -56 197 -101 197c-44 0 -69 -15 -83 -50c-6 -13 -7 -32 -7 -52z" />
    <glyph glyph-name="c" unicode="c" horiz-adv-x="463" 
d="M434 142l15 -7c-29 -107 -111 -146 -198 -146c-136 0 -215 80 -215 237c0 146 77 247 234 247c90 0 171 -40 171 -101c0 -40 -41 -56 -71 -56c-23 0 -38 9 -42 30c-11 64 -24 103 -71 103c-49 0 -88 -67 -88 -197c0 -138 53 -208 125 -208c54 0 106 19 140 98z" />
    <glyph glyph-name="d" unicode="d" horiz-adv-x="557" 
d="M360 629c0 40 -8 48 -24 50l-39 5v20l186 17l2 -2v-648c0 -42 6 -46 62 -49v-22h-187v51c-51 -40 -104 -63 -142 -63c-115 0 -182 79 -182 233c0 84 26 151 69 192c43 40 98 60 167 60c34 0 66 -5 88 -15v171zM360 127v226c0 22 0 41 -8 56c-11 22 -35 40 -74 40
c-66 0 -109 -61 -109 -211c0 -117 43 -199 111 -199c33 0 55 10 67 32c11 15 13 35 13 56z" />
    <glyph glyph-name="e" unicode="e" horiz-adv-x="482" 
d="M408 247h-239c-1 -108 29 -203 128 -203c69 0 108 31 138 97l17 -8c-30 -84 -86 -145 -196 -145c-170 0 -220 107 -220 242c0 133 59 243 223 243c179 0 197 -125 197 -191c0 -26 -14 -35 -48 -35zM169 272h128c24 0 31 9 31 35c0 61 -10 142 -75 142
c-69 0 -84 -107 -84 -177z" />
    <glyph glyph-name="f" unicode="f" horiz-adv-x="287" 
d="M289 428h-84v-358c0 -42 5 -44 72 -48v-22h-258v22c56 3 60 6 60 48v358h-58v33h58v49c0 138 65 211 173 211c87 0 107 -50 107 -69c0 -32 -28 -48 -55 -48c-22 0 -30 9 -35 26c-17 48 -28 68 -43 68c-13 0 -26 -12 -26 -60c0 -54 5 -134 5 -177h84v-33z" />
    <glyph glyph-name="g" unicode="g" horiz-adv-x="497" 
d="M380 439l111 27l5 -5l-21 -57h-68c16 -18 28 -51 28 -88c0 -115 -90 -158 -196 -158c-11 0 -44 2 -61 5c-12 -4 -35 -16 -35 -35c0 -28 27 -42 77 -42h94c96 0 175 -29 175 -142c0 -64 -32 -109 -72 -139c-48 -35 -110 -50 -174 -50c-138 0 -221 49 -221 138
c0 57 56 83 119 89v2c-52 9 -94 40 -94 92c0 41 41 77 99 92v2c-58 12 -107 55 -107 146c0 72 38 157 204 157c51 0 105 -12 137 -34zM237 449h-1c-49 0 -72 -43 -72 -136c0 -62 18 -132 75 -132c55 0 73 59 73 132c0 82 -23 136 -75 136zM263 -221h1c82 0 123 43 123 107
c0 62 -42 90 -139 90c-63 0 -88 -5 -103 -15c-19 -12 -31 -29 -31 -64c0 -70 67 -118 149 -118z" />
    <glyph glyph-name="h" unicode="h" horiz-adv-x="569" 
d="M72 71v558c0 39 -7 47 -24 50l-29 5v20l177 17l2 -1v-316c57 36 101 69 160 69c96 0 139 -56 139 -146v-256c0 -41 4 -46 59 -49v-22h-236v22c39 4 52 4 52 44v265c0 61 -29 91 -80 91c-42 0 -71 -19 -85 -47c-7 -13 -9 -33 -9 -54v-255c0 -40 13 -40 51 -44v-22h-236v22
c55 3 59 8 59 49z" />
    <glyph glyph-name="i" unicode="i" horiz-adv-x="277" 
d="M140 662h1c41 0 65 -30 65 -65c0 -36 -25 -66 -66 -66s-65 30 -65 66c0 35 24 65 65 65zM79 71v302c0 38 -7 45 -25 48l-28 5v19l175 27l4 -3v-398c0 -43 4 -45 59 -49v-22h-243v22c53 3 58 6 58 49z" />
    <glyph glyph-name="j" unicode="j" horiz-adv-x="270" 
d="M143 662h1c41 0 65 -30 65 -65c-1 -36 -25 -66 -66 -66s-65 30 -65 66c0 35 24 65 65 65zM206 469v-443c0 -112 -20 -196 -79 -233c-44 -28 -90 -33 -138 -32l-4 18c34 8 49 17 67 43c20 27 29 82 29 193v360c0 36 -7 44 -24 46l-33 5v20l178 27z" />
    <glyph glyph-name="k" unicode="k" horiz-adv-x="510" 
d="M72 70v560c0 39 -7 47 -24 50l-31 6v19l178 16l2 -1v-650c0 -42 4 -45 59 -48v-22h-243v21c54 4 59 8 59 49zM204 244c25 35 110 152 141 191c20 24 22 26 44 26h110v-21c-83 -15 -130 -32 -159 -64c-14 -13 -41 -45 -51 -58c1 0 -1 -7 0 -9c44 -77 112 -179 170 -242
c28 -31 46 -45 67 -51v-19l-87 2c-60 3 -91 11 -124 53c-45 56 -81 124 -111 185v7z" />
    <glyph glyph-name="l" unicode="l" horiz-adv-x="270" 
d="M72 70v558c0 38 -7 47 -24 50l-33 5v20l182 18l1 -1v-650c0 -42 4 -44 59 -48v-22h-244v22c55 3 59 6 59 48z" />
    <glyph glyph-name="m" unicode="m" horiz-adv-x="863" 
d="M79 72v300c0 39 -6 47 -24 49l-29 5v19l166 27l13 -66c53 34 95 67 158 67c69 0 105 -37 124 -74c43 28 98 74 165 74c96 0 139 -56 139 -147v-254c0 -42 4 -46 59 -50v-22h-239v22c40 3 55 2 55 45v260c0 63 -33 95 -81 95c-35 -1 -68 -18 -80 -58c-6 -13 -8 -28 -8 -50
v-247c0 -43 15 -41 55 -45v-22h-234v22c40 3 54 2 54 45v260c0 59 -26 95 -75 95c-41 0 -76 -19 -87 -62c-4 -13 -5 -29 -5 -46v-247c0 -42 14 -41 54 -45v-22h-239v22c57 3 59 8 59 50z" />
    <glyph glyph-name="n" unicode="n" horiz-adv-x="576" 
d="M504 325v-257c0 -43 4 -42 59 -46v-22h-239v22c40 3 54 2 54 45v261c0 62 -28 94 -79 94c-42 0 -72 -23 -85 -48c-6 -13 -9 -34 -9 -55v-252c0 -43 14 -41 53 -45v-22h-238v22c55 3 59 7 59 50v300c0 39 -6 47 -24 49l-30 5v19l167 27l13 -67c61 37 104 68 161 68
c95 0 138 -58 138 -148z" />
    <glyph glyph-name="o" unicode="o" horiz-adv-x="541" 
d="M271 473h1c166 0 233 -92 233 -243s-67 -242 -234 -242c-166 0 -235 91 -235 242s69 243 235 243zM170 230v-1c0 -127 31 -218 101 -218c71 0 100 91 100 219s-29 219 -100 219c-70 0 -101 -91 -101 -219z" />
    <glyph glyph-name="p" unicode="p" horiz-adv-x="557" 
d="M72 -163v537c0 37 -7 44 -25 47l-29 5v19l163 27l16 -66c44 30 88 67 154 67c112 0 170 -92 170 -228c0 -202 -113 -257 -244 -257c-30 0 -64 6 -80 13v-164c0 -42 6 -46 77 -49v-22h-262v22c55 4 60 7 60 49zM197 299v-174c0 -18 1 -35 4 -50c10 -42 37 -64 81 -64
c77 0 106 93 106 214c0 155 -59 197 -101 197s-68 -19 -83 -56c-5 -14 -7 -46 -7 -67z" />
    <glyph glyph-name="q" unicode="q" horiz-adv-x="557" 
d="M493 476v-640c0 -41 7 -45 63 -48v-22h-264v22c64 3 72 7 72 48v211c-49 -42 -93 -60 -139 -60c-124 0 -189 88 -189 230c0 88 28 151 70 192s105 63 180 63c54 0 101 -15 134 -33l57 37h16zM364 117v229c0 19 0 36 -4 49c-11 34 -37 53 -77 53c-70 0 -110 -79 -110 -211
c0 -117 37 -200 113 -200c34 0 58 12 68 32c8 13 10 29 10 48z" />
    <glyph glyph-name="r" unicode="r" horiz-adv-x="396" 
d="M205 304v-233c0 -41 4 -44 78 -49v-22h-263v22c55 3 59 8 59 49v303c0 36 -8 45 -24 48l-30 4v19l166 27l11 -90c59 62 86 91 125 91c40 0 62 -25 62 -61c0 -34 -25 -74 -62 -74c-15 0 -26 7 -35 15c-20 18 -33 27 -50 27c-23 0 -37 -22 -37 -76z" />
    <glyph glyph-name="s" unicode="s" horiz-adv-x="408" 
d="M348 318h-20c-17 73 -65 131 -116 131c-44 0 -67 -27 -67 -69c0 -49 41 -69 99 -91c85 -33 135 -67 135 -148c0 -97 -76 -153 -185 -153c-52 0 -114 13 -144 39l-11 140h21c22 -78 76 -156 139 -156c41 0 74 21 74 71c0 46 -34 72 -97 97c-81 32 -132 73 -132 145
c0 93 67 149 172 149c47 0 95 -10 132 -31v-124z" />
    <glyph glyph-name="t" unicode="t" horiz-adv-x="312" 
d="M296 428h-99v-299c0 -62 22 -88 56 -88c21 0 36 4 51 10l5 -15c-48 -35 -97 -48 -134 -48c-47 0 -103 25 -103 117v323h-56v33h61l78 118h42v-118h99v-33z" />
    <glyph glyph-name="u" unicode="u" horiz-adv-x="566" 
d="M556 0h-181l-7 56c-37 -20 -85 -68 -165 -68c-68 0 -131 31 -131 141v245c0 37 -6 49 -25 53l-31 5v20l180 14l2 -2v-321c0 -73 34 -103 85 -103c43 0 66 22 77 48c6 14 8 35 8 53v233c0 36 -7 50 -25 52l-32 6v20l180 14l2 -2v-393c0 -41 7 -46 63 -49v-22z" />
    <glyph glyph-name="v" unicode="v" horiz-adv-x="465" 
d="M276 0h-82c-45 126 -98 272 -145 397c-12 31 -24 39 -63 42v22h243v-22l-35 -4c-18 -3 -21 -9 -15 -29c22 -70 76 -225 105 -308h4c33 98 73 234 93 304c5 20 2 30 -16 31l-45 6v22h171v-22c-50 -3 -59 -13 -70 -43c-45 -110 -102 -274 -145 -396z" />
    <glyph glyph-name="w" unicode="w" horiz-adv-x="716" 
d="M-12 461h238v-22l-31 -3c-20 -1 -24 -9 -18 -30c23 -83 63 -220 85 -299h3c6 23 79 326 85 351h84c30 -97 84 -259 115 -351h3c27 96 64 247 73 296c4 22 -2 28 -18 30l-47 6v22h174v-22c-48 -4 -57 -10 -70 -50c-24 -68 -79 -248 -121 -389h-91c-23 78 -82 259 -105 323
h-3c-6 -20 -75 -302 -81 -323h-91c-41 131 -80 272 -123 398c-12 31 -20 38 -61 41v22z" />
    <glyph glyph-name="x" unicode="x" horiz-adv-x="473" 
d="M493 0h-248v22l25 4c15 2 20 8 10 24c-20 36 -56 97 -78 133h-2c-22 -35 -58 -92 -79 -130c-9 -18 -5 -25 10 -26l36 -5v-22h-177v22c50 5 66 11 94 44c34 42 65 86 102 139c-42 72 -88 146 -123 201c-18 27 -28 29 -69 33v22h234v-22l-28 -4c-12 -1 -12 -8 -7 -19
c17 -28 52 -87 71 -116h1c8 10 61 97 69 112c11 15 8 23 -6 24l-38 3v22h173v-22c-39 -1 -63 -8 -85 -33c-34 -37 -65 -81 -99 -128c43 -69 89 -153 134 -213c24 -34 39 -41 80 -43v-22z" />
    <glyph glyph-name="y" unicode="y" horiz-adv-x="482" 
d="M330 461h176v-22c-53 -4 -56 -8 -77 -58c-46 -116 -112 -309 -167 -459c-51 -137 -92 -167 -151 -167c-37 0 -68 24 -68 57c0 34 32 70 56 70c14 0 18 -3 32 -14c12 -11 29 -21 44 -21c20 0 40 15 59 77c5 14 -8 50 -16 68c-43 112 -111 277 -164 404
c-16 40 -26 38 -68 43v22h252v-22l-36 -5c-17 -2 -19 -11 -13 -29c31 -88 78 -208 111 -297h2c32 95 69 215 91 297c6 21 1 27 -16 28l-47 6v22z" />
    <glyph glyph-name="z" unicode="z" horiz-adv-x="448" 
d="M421 461l3 -7c-68 -116 -186 -315 -254 -427h100c99 0 122 41 146 137h22l-12 -164h-411l-5 8c88 138 189 307 262 426h-100c-92 0 -102 -34 -120 -117h-23v144h392z" />
    <glyph glyph-name="braceleft" unicode="{" horiz-adv-x="323" 
d="M292 741v-21c-90 -5 -94 -59 -86 -134l9 -93c8 -88 28 -181 -101 -206v-7c130 -25 110 -118 101 -206l-9 -85c-8 -74 -4 -140 86 -144v-22h-33c-151 0 -151 123 -141 215l13 103c9 82 -13 132 -98 132v22c105 -1 106 52 98 130l-13 113c-9 91 -10 203 141 203h33z" />
    <glyph glyph-name="bar" unicode="|" horiz-adv-x="239" 
d="M85 -234v939h68v-939h-68z" />
    <glyph glyph-name="braceright" unicode="}" horiz-adv-x="323" 
d="M289 295v-22c-105 0 -105 -51 -97 -130l12 -112c9 -93 10 -208 -141 -208h-32v22c89 4 94 63 87 136l-10 94c-9 89 -28 181 102 206v6c-131 26 -112 119 -102 207l10 85c8 74 2 136 -87 141v21h32c151 0 151 -119 141 -210l-12 -104c-9 -82 12 -132 97 -132z" />
    <glyph glyph-name="asciitilde" unicode="~" horiz-adv-x="485" 
d="M409 288l28 -27c-27 -51 -57 -83 -114 -83c-26 0 -58 19 -86 31c-31 15 -47 24 -73 24c-40 0 -64 -24 -90 -59l-27 30c25 36 60 80 123 80c38 0 64 -16 89 -28c26 -13 49 -27 74 -27c38 0 48 18 76 59z" />
    <glyph glyph-name="exclamdown" unicode="&#xa1;" horiz-adv-x="272" 
d="M126 257h20l66 -339c16 -69 2 -110 -76 -110c-79 0 -90 41 -75 110zM135 471h1c40 0 66 -30 66 -70c0 -39 -26 -69 -67 -69c-40 0 -67 30 -66 69c0 40 26 70 66 70z" />
    <glyph glyph-name="cent" unicode="&#xa2;" horiz-adv-x="512" 
d="M284 553v71h28v-71c79 0 161 -37 161 -95c0 -31 -29 -47 -51 -47c-20 0 -29 9 -35 31c-18 69 -49 87 -75 89v-397c48 0 116 4 153 106l17 -7c-34 -110 -110 -139 -170 -142v-89h-28v88c-171 0 -243 85 -243 230c0 161 107 228 243 233zM284 138v393
c-56 -3 -109 -46 -109 -188c0 -126 39 -189 109 -205z" />
    <glyph glyph-name="sterling" unicode="&#xa3;" horiz-adv-x="512" 
d="M445 0h-412l-7 8l19 53c74 24 75 86 75 134c0 28 -11 78 -17 109h-76v27h68c-7 30 -14 77 -14 119c0 93 56 188 200 188c130 0 164 -67 164 -103c0 -31 -28 -51 -53 -51c-21 0 -28 10 -33 26c-22 77 -45 105 -90 105c-43 0 -69 -32 -69 -115c0 -41 13 -109 24 -169h140
v-27h-135c4 -96 -25 -153 -106 -205v-2h269c48 0 57 26 83 77l18 -8z" />
    <glyph glyph-name="fraction" unicode="&#x2044;" horiz-adv-x="105" 
d="M-140 -29l-24 16l391 666l25 -15z" />
    <glyph glyph-name="yen" unicode="&#xa5;" horiz-adv-x="512" 
d="M392 0h-276v20c70 6 75 8 75 41v153h-115v26h115v69h-115v26h111c-41 84 -89 187 -118 237c-12 21 -23 32 -39 34l-25 3v19h251v-22l-43 -4c-18 -1 -15 -14 -9 -26c26 -61 68 -155 97 -224h3c32 77 71 174 86 220c7 21 2 29 -15 31l-48 6v19h178v-19l-30 -4
c-22 -1 -35 -13 -48 -39c-24 -47 -75 -162 -105 -231h113v-26h-118v-69h118v-26h-118v-153c0 -30 5 -35 75 -41v-20z" />
    <glyph glyph-name="florin" unicode="&#x192;" horiz-adv-x="512" 
d="M424 343h-122l-27 -198c-20 -154 -86 -281 -206 -281c-78 0 -104 34 -104 64c0 29 24 51 48 51c20 0 24 -9 31 -26c15 -35 34 -64 49 -64c11 0 21 5 28 46c11 74 35 279 50 408h-88v26h92l11 69c13 84 51 228 201 228c86 0 104 -44 104 -69s-24 -45 -49 -45
c-18 0 -22 10 -28 25c-13 44 -21 65 -43 65c-18 0 -32 -20 -39 -76c-10 -61 -19 -134 -26 -197h118v-26z" />
    <glyph glyph-name="section" unicode="&#xa7;" horiz-adv-x="488" 
d="M269 289c-67 37 -151 87 -158 150c-11 -14 -19 -53 -19 -81c0 -59 29 -106 130 -163c71 -38 137 -81 155 -146c8 21 14 37 14 76c0 54 -27 111 -122 164zM44 295v1c0 56 26 125 63 165c-1 63 37 137 154 137c73 0 126 -32 126 -73c0 -19 -24 -40 -44 -40
c-15 0 -23 7 -28 19c-16 46 -36 74 -77 74s-64 -24 -64 -65c0 -29 12 -64 107 -112c129 -69 159 -130 159 -210c0 -56 -25 -119 -59 -168c1 -91 -64 -150 -161 -150c-87 0 -134 42 -135 84c0 27 28 46 46 46c17 0 22 -7 31 -25c24 -62 57 -81 94 -81c33 0 58 23 58 65
c0 34 -18 78 -131 138c-121 64 -139 124 -139 195z" />
    <glyph glyph-name="currency" unicode="&#xa4;" horiz-adv-x="512" 
d="M259 500h1c35 0 74 -5 103 -33l48 62l44 -42l-56 -57c28 -38 31 -76 31 -116c0 -41 -6 -75 -34 -113l61 -52l-48 -51l-49 66c-27 -26 -68 -36 -104 -36c-44 0 -85 11 -107 32l-46 -60l-45 46l54 49c-20 35 -30 64 -30 119c0 39 7 80 33 115l-58 57l43 44l51 -65
c24 23 66 35 108 35zM256 453h-1c-64 0 -111 -46 -111 -136c0 -92 45 -142 115 -142c63 0 110 40 110 139c0 87 -47 139 -113 139z" />
    <glyph glyph-name="quotesingle" unicode="'" horiz-adv-x="197" 
d="M80 450c3 89 -15 196 -37 243c11 10 64 36 86 33c13 -14 23 -43 23 -61c0 -69 -35 -161 -53 -207z" />
    <glyph glyph-name="quotedblleft" unicode="&#x201c;" horiz-adv-x="352" 
d="M172 719c-33 -51 -49 -91 -49 -151c0 -23 12 -57 24 -73c-11 -9 -64 -33 -87 -30c-14 14 -28 41 -28 60c0 72 66 147 127 205zM326 719c-32 -51 -48 -91 -48 -151c0 -23 13 -57 24 -73c-12 -9 -64 -33 -87 -30c-14 14 -28 41 -28 60c0 72 65 147 126 205z" />
    <glyph glyph-name="guillemotleft" unicode="&#xab;" horiz-adv-x="463" 
d="M228 412l12 -9l-88 -154c-5 -9 -6 -18 0 -29l88 -154l-12 -9l-170 163c-10 10 -9 21 0 30zM398 412l12 -9l-88 -154c-5 -9 -6 -18 0 -29l88 -154l-12 -9l-169 163c-10 10 -9 21 0 30z" />
    <glyph glyph-name="guilsinglleft" unicode="&#x2039;" horiz-adv-x="292" 
d="M229 419l11 -9l-87 -161c-5 -9 -7 -18 0 -29l87 -161l-11 -9l-170 170c-10 11 -9 20 0 30z" />
    <glyph glyph-name="guilsinglright" unicode="&#x203a;" horiz-adv-x="292" 
d="M52 411l11 8l171 -170c10 -10 8 -21 0 -29l-171 -170l-11 9l88 161c5 9 6 18 0 29z" />
    <glyph glyph-name="endash" unicode="&#x2013;" horiz-adv-x="458" 
d="M38 263h382v-61h-382v61z" />
    <glyph glyph-name="dagger" unicode="&#x2020;" horiz-adv-x="450" 
d="M187 267v1c0 8 21 53 30 76c-65 -11 -158 -36 -173 -38s-15 96 -3 95c15 -2 115 -31 176 -41c-9 55 -45 200 -49 217c-4 14 112 17 110 -2c-3 -23 -35 -155 -45 -215c65 12 158 36 172 39c15 3 15 -96 3 -95c-15 2 -115 31 -176 40c10 -29 32 -68 32 -75
c0 -22 -31 -410 -31 -433h-14c0 35 -32 412 -32 431z" />
    <glyph glyph-name="daggerdbl" unicode="&#x2021;" horiz-adv-x="454" 
d="M267 300v-1c0 -9 -30 -72 -30 -73c65 11 154 34 168 36c15 2 15 -92 3 -90c-15 1 -111 27 -172 38c10 -26 23 -53 23 -67c0 -10 -23 -296 -23 -307h-18c0 20 -25 297 -25 308c0 6 13 39 23 66c-65 -12 -158 -35 -172 -37c-15 -2 -15 92 -3 90c15 -1 115 -28 176 -37
c-14 32 -30 63 -30 74c0 10 13 35 30 70c-65 -11 -155 -34 -169 -36c-15 -2 -15 91 -3 89c15 -1 114 -27 174 -37c-15 62 -46 166 -49 183c-2 18 114 22 112 0c-3 -23 -28 -118 -47 -183c66 12 160 34 174 36c15 3 15 -91 3 -89c-15 1 -115 27 -176 37c15 -29 31 -60 31 -70
z" />
    <glyph glyph-name="periodcentered" unicode="&#xb7;" horiz-adv-x="218" 
d="M109 163h-1c-40 0 -66 29 -66 70c0 40 26 70 67 70s68 -30 67 -70c-1 -41 -26 -70 -67 -70z" />
    <glyph glyph-name="paragraph" unicode="&#xb6;" horiz-adv-x="537" 
d="M367 -189c0 93 9 148 9 416c0 172 -1 226 -3 296l-37 -3c-47 -4 -77 -57 -77 -190c0 -128 18 -188 89 -211v-16c-6 -2 -41 -5 -50 -5c-150 0 -248 46 -248 237c0 168 123 221 182 221h140c0 17 -1 32 -1 47l44 11v-58h98v-21l-99 -9c-2 -72 -4 -124 -4 -295
c0 -267 9 -349 9 -420h-52z" />
    <glyph glyph-name="bullet" unicode="&#x2022;" horiz-adv-x="369" 
d="M186 384h1c81 0 144 -63 144 -152c0 -93 -63 -151 -145 -151c-83 0 -145 61 -145 151c0 89 62 152 145 152z" />
    <glyph glyph-name="quotesinglbase" unicode="&#x201a;" horiz-adv-x="204" 
d="M9 -127c37 57 54 101 54 170c0 23 -13 59 -25 76c12 11 70 37 94 34c15 -15 31 -45 31 -65c0 -79 -72 -163 -140 -226z" />
    <glyph glyph-name="quotedblbase" unicode="&#x201e;" horiz-adv-x="369" 
d="M9 -127c37 57 54 101 54 170c0 23 -13 59 -25 76c12 11 70 37 95 34c16 -15 31 -45 31 -65c0 -79 -73 -163 -140 -226zM173 -127c37 57 54 101 54 170c0 23 -13 59 -24 76c11 11 69 37 94 34c16 -15 31 -45 31 -65c0 -79 -73 -163 -140 -226z" />
    <glyph glyph-name="quotedblright" unicode="&#x201d;" horiz-adv-x="352" 
d="M24 472c33 50 48 90 48 150c0 24 -12 57 -23 72c10 11 63 35 86 32c14 -14 28 -42 28 -61c0 -71 -65 -147 -126 -204zM178 472c32 50 48 90 48 150c0 24 -12 57 -24 72c11 11 64 35 86 32c15 -14 29 -42 29 -61c0 -71 -65 -147 -126 -204z" />
    <glyph glyph-name="guillemotright" unicode="&#xbb;" horiz-adv-x="463" 
d="M64 57l-11 9l87 154c5 9 6 18 0 29l-87 154l11 9l170 -163c10 -9 9 -21 0 -29zM234 57l-12 9l89 154c5 9 6 18 0 29l-89 154l12 9l171 -163c9 -9 9 -21 0 -29z" />
    <glyph glyph-name="ellipsis" unicode="&#x2026;" horiz-adv-x="736" 
d="M111 -11h-1c-39 0 -66 28 -66 69c0 40 27 70 67 70c42 0 68 -30 67 -70c-1 -41 -25 -69 -67 -69zM356 -11h-1c-40 0 -66 28 -66 69c0 40 26 70 67 70c42 0 68 -30 67 -70c-1 -41 -25 -69 -67 -69zM603 -11h-1c-40 0 -66 28 -66 69c0 40 26 70 67 70s67 -30 66 -70
c-1 -41 -25 -69 -66 -69z" />
    <glyph glyph-name="perthousand" unicode="&#x2030;" horiz-adv-x="1046" 
d="M537 316h-1c-40 0 -58 -49 -58 -153c0 -96 19 -153 59 -153c41 0 58 57 58 153c0 104 -22 153 -58 153zM537 -11h-1c-99 0 -147 60 -147 174s48 175 148 175c98 0 147 -61 147 -175s-49 -174 -147 -174zM553 668l28 -20l-411 -680l-26 21l353 577h-181
c8 -15 16 -57 16 -101c0 -114 -52 -175 -151 -175c-95 0 -143 61 -143 175s48 174 147 174c48 0 76 -13 104 -32c11 -6 26 -12 44 -12h128c40 0 52 7 68 34zM185 618h-1c-38 0 -58 -49 -58 -153c0 -96 18 -153 60 -153c40 0 57 57 57 153c0 104 -21 153 -58 153zM861 316h-1
c-40 0 -58 -49 -58 -153c0 -96 19 -153 60 -153c40 0 57 57 57 153c0 104 -22 153 -58 153zM861 -11h-1c-98 0 -146 60 -146 174s48 175 147 175s146 -61 146 -175s-47 -174 -146 -174z" />
    <glyph glyph-name="questiondown" unicode="&#xbf;" horiz-adv-x="456" 
d="M224 472h1c40 0 66 -30 66 -69c0 -40 -26 -69 -67 -69s-67 29 -66 68c1 40 25 70 66 70zM220 243h1c63 0 106 -33 106 -92c0 -29 -19 -57 -74 -102c-60 -48 -76 -92 -76 -140c0 -58 22 -90 54 -90c34 0 57 31 65 119c2 25 20 34 46 34c29 0 66 -18 66 -59
c0 -44 -51 -117 -188 -117c-108 0 -172 48 -172 136c0 55 22 70 94 124c46 33 65 63 65 88c0 28 -22 48 -48 48c-13 0 -21 -1 -30 -4l-5 15c24 22 57 40 96 40z" />
    <glyph glyph-name="grave" unicode="`" horiz-adv-x="376" 
d="M209 511l-101 91c-27 25 -45 38 -45 60c0 20 23 40 46 40s34 -17 54 -59l59 -121z" />
    <glyph glyph-name="acute" unicode="&#xb4;" horiz-adv-x="376" 
d="M172 511l-13 11l59 121c20 42 31 59 55 59c22 0 45 -20 45 -40c0 -22 -18 -35 -44 -60z" />
    <glyph glyph-name="circumflex" unicode="&#x2c6;" horiz-adv-x="376" 
d="M300 520l-16 -9l-91 89c-10 7 -12 8 -21 0l-86 -89l-15 9l101 181h22z" />
    <glyph glyph-name="tilde" unicode="&#x2dc;" horiz-adv-x="376" 
d="M313 644l15 -6c-11 -48 -30 -92 -80 -92c-20 0 -46 10 -70 18c-23 8 -47 17 -65 17c-27 0 -37 -11 -54 -43l-14 7c11 44 33 89 85 89c20 0 47 -9 69 -16c23 -8 45 -17 63 -17c21 0 38 6 51 43z" />
    <glyph glyph-name="macron" unicode="&#xaf;" horiz-adv-x="376" 
d="M63 620h250v-57h-250v57z" />
    <glyph glyph-name="breve" unicode="&#x2d8;" horiz-adv-x="376" 
d="M189 520h-1c-102 0 -107 71 -107 137h21c0 -23 16 -72 87 -72c74 0 85 49 87 72h20c0 -63 -7 -137 -107 -137z" />
    <glyph glyph-name="dotaccent" unicode="&#x2d9;" horiz-adv-x="376" 
d="M187 662h1c42 0 65 -30 65 -65c0 -36 -25 -66 -66 -66s-65 30 -65 66c0 35 24 65 65 65z" />
    <glyph glyph-name="dieresis" unicode="&#xa8;" horiz-adv-x="376" 
d="M91 660h1c39 0 61 -29 61 -62c0 -35 -24 -63 -62 -63c-40 0 -62 28 -62 63c0 33 22 62 62 62zM284 660h1c39 0 61 -29 61 -62c0 -35 -24 -63 -62 -63c-40 0 -62 28 -62 63c0 33 22 62 62 62z" />
    <glyph glyph-name="ring" unicode="&#x2da;" horiz-adv-x="376" 
d="M188 677h-1c-25 0 -46 -23 -46 -68c0 -46 21 -69 47 -69s47 23 47 69c0 45 -21 68 -47 68zM188 699h1c47 0 96 -23 96 -90c0 -68 -49 -90 -97 -90s-97 22 -97 90c0 67 49 90 97 90z" />
    <glyph glyph-name="cedilla" unicode="&#xb8;" horiz-adv-x="398" 
d="M196 0h24l-34 -52c37 -6 93 -20 93 -79c0 -76 -62 -87 -106 -87c-23 0 -42 5 -53 12l3 17c11 -3 24 -3 31 -3c32 0 49 17 49 52c0 40 -39 51 -58 52l-3 7z" />
    <glyph glyph-name="hungarumlaut" unicode="&#x2dd;" horiz-adv-x="376" 
d="M110 511l-14 10l46 122c17 42 24 59 48 59c18 0 40 -16 40 -34c0 -19 -12 -33 -36 -60zM252 511l-13 10l46 122c16 42 24 59 48 59c18 0 40 -15 40 -34c0 -21 -13 -33 -36 -60z" />
    <glyph glyph-name="ogonek" unicode="&#x2db;" horiz-adv-x="398" 
d="M249 14h16c-50 -43 -79 -86 -79 -140c0 -32 21 -62 55 -62c20 0 40 7 59 23l8 -12c-35 -48 -76 -67 -119 -67c-57 0 -84 33 -84 81c0 71 79 145 144 177z" />
    <glyph glyph-name="caron" unicode="&#x2c7;" horiz-adv-x="376" 
d="M71 692l16 9l89 -88c11 -10 13 -9 22 -1l86 89l16 -9l-103 -181h-20z" />
    <glyph glyph-name="emdash" unicode="&#x2014;" horiz-adv-x="849" 
d="M38 263h773v-61h-773v61z" />
    <glyph glyph-name="AE" unicode="&#xc6;" horiz-adv-x="900" 
d="M414 339v287h-20c-41 -82 -100 -209 -138 -287h158zM414 305h-175c-54 -117 -93 -186 -111 -231c-13 -35 -7 -41 20 -45l57 -7v-22h-220v22c56 3 75 14 101 60c75 132 202 390 260 511c12 26 10 37 -9 39l-82 6v22h579v-173h-23c-27 95 -57 144 -160 144h-69
c-28 0 -34 -6 -34 -35v-257h92c74 0 90 13 105 87h22v-217h-22c-16 76 -28 96 -105 96h-92v-203c0 -65 23 -72 116 -72c115 0 155 57 186 164h23l-20 -194h-517v22c72 3 78 8 78 57v226z" />
    <glyph glyph-name="ordfeminine" unicode="&#xaa;" horiz-adv-x="326" 
d="M271 446v-115c0 -38 7 -48 43 -47l1 -13c-20 -9 -44 -17 -79 -17c-32 0 -38 16 -45 34c-26 -14 -48 -34 -82 -34c-59 0 -82 38 -82 78c0 28 10 49 54 64c37 12 86 24 109 36v34c0 28 -11 43 -36 43c-22 0 -37 -21 -51 -61c-6 -16 -11 -22 -25 -22c-18 0 -40 10 -40 35
c0 27 48 68 122 68c102 0 111 -49 111 -83zM190 325v89c-15 -6 -25 -11 -41 -19c-21 -10 -33 -27 -33 -54c0 -31 17 -51 41 -51c16 0 33 6 33 35z" />
    <glyph glyph-name="Lslash" unicode="&#x141;" horiz-adv-x="559" 
d="M370 444l12 -25l-139 -74v-245c0 -63 17 -72 106 -72c107 0 140 56 173 161h22l-13 -189h-498v22c72 3 74 7 74 57v194l-81 -43l-10 24l91 49v277c0 51 -2 54 -74 58v22h289v-22c-75 -4 -79 -4 -79 -58v-205z" />
    <glyph glyph-name="Oslash" unicode="&#xd8;" horiz-adv-x="718" 
d="M497 535l-262 -446c24 -48 64 -81 124 -81c146 0 166 190 166 322c0 62 -6 141 -28 205zM222 121l261 445c-23 51 -62 87 -124 87c-146 0 -166 -196 -166 -323c0 -65 5 -145 29 -209zM580 678l-31 -51c88 -60 126 -165 126 -297c0 -212 -98 -346 -316 -346
c-66 0 -120 12 -166 36l-38 -67l-23 15l38 64c-89 60 -127 167 -127 298c0 213 98 347 316 347c68 0 123 -13 168 -36l32 53z" />
    <glyph glyph-name="OE" unicode="&#x152;" horiz-adv-x="999" 
d="M509 72v516c0 42 -41 54 -105 54c-173 0 -208 -154 -208 -311c0 -161 38 -313 217 -313c54 0 96 13 96 54zM647 597v-236h92c74 0 89 13 104 88h23v-217h-23c-16 75 -28 95 -104 95h-92v-227c0 -63 23 -72 116 -72c114 0 153 59 185 165h22l-20 -193h-359l-179 -5
c-108 -2 -182 6 -254 56c-70 47 -116 142 -116 273c0 133 50 229 121 278c70 49 137 66 254 63l167 -5h347v-173h-22c-26 96 -56 145 -159 145h-69c-28 0 -34 -6 -34 -35z" />
    <glyph glyph-name="ordmasculine" unicode="&#xba;" horiz-adv-x="343" 
d="M171 529h1c108 0 144 -57 144 -137c0 -81 -36 -138 -145 -138c-108 0 -144 57 -144 138c0 79 37 137 144 137zM170 509h-1c-37 0 -50 -37 -50 -117c0 -78 13 -119 53 -119c39 0 51 37 51 119c0 85 -18 117 -53 117z" />
    <glyph glyph-name="ae" unicode="&#xe6;" horiz-adv-x="749" 
d="M674 247h-243c0 -108 29 -203 129 -203c70 0 111 32 142 98l16 -8c-29 -83 -87 -145 -198 -146c-95 0 -149 33 -179 86c-49 -37 -107 -86 -168 -86c-95 0 -136 66 -136 137c0 51 21 91 96 111c68 18 150 41 174 65v64c0 62 -30 85 -63 85c-39 0 -69 -30 -87 -119
c-5 -21 -12 -29 -32 -29c-24 0 -75 16 -75 55c0 53 72 116 201 116c73 0 113 -24 133 -57c27 30 74 57 145 57c179 0 193 -125 193 -191c0 -26 -14 -35 -48 -35zM307 112v162c-22 -11 -62 -27 -93 -43c-33 -17 -48 -41 -48 -85c0 -58 34 -107 75 -107c23 0 66 14 66 73z
M431 272h132c24 0 31 9 31 35c0 61 -13 143 -78 143c-70 0 -85 -108 -85 -178z" />
    <glyph glyph-name="dotlessi" unicode="&#x131;" horiz-adv-x="277" 
d="M26 445l175 27l4 -3v-398c0 -43 4 -45 59 -49v-22h-243v22c53 3 58 6 58 49v303c0 37 -7 44 -25 48l-28 4v19z" />
    <glyph glyph-name="lslash" unicode="&#x142;" horiz-adv-x="282" 
d="M273 462l-65 -39v-353c0 -42 4 -44 60 -48v-22h-246v22c56 3 60 6 60 48v279l-48 -29l-12 22l60 35v251c0 38 -7 47 -24 50l-34 5v20l180 18l4 -4v-265l54 32z" />
    <glyph glyph-name="oslash" unicode="&#xf8;" horiz-adv-x="543" 
d="M429 480l-22 -38c69 -38 99 -112 99 -212c0 -151 -68 -241 -234 -241c-43 0 -79 6 -108 17l-23 -41l-20 11l22 40c-74 36 -106 111 -106 214c0 151 69 242 235 242c45 0 84 -8 115 -20l23 41zM188 96l162 288c-16 40 -41 64 -78 64c-70 0 -101 -90 -101 -218
c0 -52 6 -98 17 -134zM359 354l-161 -286c16 -36 41 -56 74 -56c71 0 101 90 101 218c0 48 -5 90 -14 124z" />
    <glyph glyph-name="oe" unicode="&#x153;" horiz-adv-x="818" 
d="M170 230v-1c0 -127 31 -218 101 -218c71 0 101 91 101 219s-30 219 -101 219c-70 0 -101 -91 -101 -219zM741 247h-243c-1 -108 29 -203 128 -203c71 0 112 32 143 98l15 -8c-29 -83 -87 -146 -197 -146c-74 0 -122 25 -153 60c-34 -36 -86 -60 -163 -60
c-167 0 -235 91 -235 242s68 243 235 243c78 0 131 -27 164 -65c32 36 81 65 153 65c180 0 201 -125 201 -191c0 -26 -14 -35 -48 -35zM498 272h132c23 0 30 9 30 35c0 61 -11 142 -76 142c-69 0 -86 -107 -86 -177z" />
    <glyph glyph-name="germandbls" unicode="&#xdf;" horiz-adv-x="586" 
d="M204 500v-407c0 -45 1 -72 1 -93h-183v20c54 5 57 10 57 48v360h-57v33h57c0 72 17 142 55 187c36 43 92 73 174 73c188 0 191 -122 191 -166c0 -14 -1 -16 -5 -28c-55 -13 -112 -50 -112 -113c0 -36 29 -69 77 -105c45 -34 96 -75 96 -152c0 -98 -73 -169 -189 -169
c-76 0 -121 29 -121 62c0 29 28 53 48 53c14 0 17 -5 23 -15c27 -43 54 -74 86 -74c30 0 56 17 56 70c0 47 -25 84 -88 130c-75 55 -89 96 -89 141c0 67 52 119 121 147c3 10 8 26 8 43c0 61 -22 153 -102 153c-60 0 -104 -61 -104 -198z" />
    <glyph glyph-name="logicalnot" unicode="&#xac;" horiz-adv-x="485" 
d="M372 110v180h-330v49h386v-229h-56z" />
    <glyph glyph-name="mu" unicode="&#xb5;" horiz-adv-x="575" 
d="M245 -11h-1c-23 0 -51 6 -67 20c0 -70 5 -162 9 -233l-4 -4c-52 0 -115 29 -119 52c2 90 13 207 14 294v343h126v-316c0 -74 30 -104 81 -104c44 0 68 28 80 54c5 13 7 36 7 54v312h127v-366c0 -39 10 -52 35 -52c12 0 26 5 39 12l6 -16c-39 -38 -79 -50 -129 -50
c-47 0 -68 34 -76 78c-35 -42 -71 -78 -128 -78z" />
    <glyph glyph-name="trademark" unicode="&#x2122;" horiz-adv-x="293" 
d="M62 565v75h-8c-11 0 -13 -8 -16 -24h-10v34h99v-34h-10c-3 16 -4 24 -15 24h-9v-75c0 -5 2 -7 6 -8l11 -2v-9h-65v9l10 2c5 1 7 2 7 8zM264 630v-65c0 -6 0 -8 5 -8l12 -2v-9h-60v9l9 2c5 0 5 2 5 8v69h-1l-29 -86h-10l-29 83h-2v-46c0 -19 1 -28 6 -28l11 -2v-9h-45v9
l12 2c5 0 5 9 5 28v45c0 4 -3 9 -6 10h-11v10h52l22 -53h1c-1 0 20 53 20 53h50v-10l-11 -1c-4 0 -6 -6 -6 -9z" />
    <glyph glyph-name="Eth" unicode="&#xd0;" horiz-adv-x="725" 
d="M22 363h84v217c0 51 -5 54 -74 58v22h315c122 0 200 -20 257 -75c56 -55 79 -135 79 -239c0 -302 -208 -346 -374 -346h-277v22c67 3 74 8 74 57v253h-84v31zM382 363v-31h-140v-257c0 -40 12 -51 77 -51c120 0 213 63 213 313c0 179 -63 299 -208 299
c-69 1 -82 -4 -82 -32v-241h140z" />
    <glyph glyph-name="onehalf" unicode="&#xbd;" horiz-adv-x="744" 
d="M256 279h-212v19l36 4c18 2 25 8 25 30v239c0 19 -7 27 -20 28l-40 3v17l147 20l3 -3v-304c0 -22 7 -28 25 -30l36 -4v-19zM166 -28l-24 16l392 665l24 -14zM679 0h-266l-5 6c3 52 45 102 113 146c64 42 70 84 70 117c0 35 -9 71 -46 71c-35 0 -53 -39 -61 -86
c-3 -20 -10 -28 -30 -28c-18 0 -41 13 -41 43c0 42 54 91 144 91c81 0 132 -35 132 -106c0 -66 -47 -89 -101 -114c-50 -22 -109 -40 -128 -69h187c22 0 31 21 46 49l16 -6z" />
    <glyph glyph-name="plusminus" unicode="&#xb1;" horiz-adv-x="470" 
d="M50 261v48h166v170h54v-170h166v-48h-166v-179h-54v179h-166zM50 0v48h386v-48h-386z" />
    <glyph glyph-name="Thorn" unicode="&#xde;" horiz-adv-x="595" 
d="M230 581v-41h99c155 0 227 -46 227 -184c0 -168 -126 -205 -266 -205c-23 0 -45 1 -60 1v-73c0 -50 5 -50 86 -59v-20h-292v22c71 3 74 7 74 57v502c0 50 -3 53 -74 57v22h277v-22c-70 -4 -71 -7 -71 -57zM230 481v-272c0 -26 16 -34 57 -34c91 0 129 59 129 172
c0 131 -61 169 -129 169c-49 0 -57 -10 -57 -35z" />
    <glyph glyph-name="onequarter" unicode="&#xbc;" horiz-adv-x="744" 
d="M272 279h-212v19l36 4c18 2 24 8 24 31v238c0 19 -6 27 -19 28l-40 3v17l147 20l3 -3v-303c0 -23 7 -29 25 -31l36 -4v-19zM196 -28l-24 16l391 665l25 -14zM523 99h-136l-9 18c30 53 108 169 161 237h71v-229h59v-26h-59v-52c0 -19 7 -25 20 -26l24 -3v-18h-185v18l34 4
c13 1 20 6 20 25v52zM414 125h109v171h-2c-32 -44 -90 -136 -107 -171z" />
    <glyph glyph-name="divide" unicode="&#xf7;" horiz-adv-x="485" 
d="M243 315h-2c-22 0 -40 20 -40 45c0 23 18 43 42 43c22 0 40 -20 40 -43c0 -25 -18 -45 -40 -45zM50 204v48h387v-48h-387zM243 51h-2c-22 0 -40 19 -40 45c0 23 18 43 42 43c22 0 40 -20 40 -43c0 -26 -18 -45 -40 -45z" />
    <glyph glyph-name="brokenbar" unicode="&#xa6;" horiz-adv-x="239" 
d="M85 635h68v-329h-68v329zM85 -165v330h68v-330h-68z" />
    <glyph glyph-name="degree" unicode="&#xb0;" horiz-adv-x="292" 
d="M146 409h-1c-63 0 -112 39 -112 115c0 70 49 115 113 115c63 0 112 -41 112 -115s-49 -115 -112 -115zM145 608h-1c-34 0 -62 -17 -62 -84c0 -65 32 -85 64 -85c34 0 64 19 64 85c0 69 -33 84 -65 84z" />
    <glyph glyph-name="thorn" unicode="&#xfe;" horiz-adv-x="552" 
d="M191 406c44 30 89 67 155 67c112 0 170 -92 170 -228c0 -202 -113 -257 -245 -257c-29 0 -64 6 -80 13v-164c0 -42 8 -46 80 -49v-22h-268v22c56 3 63 7 63 49v789c0 39 -7 46 -24 49l-34 6v19l179 21l4 -4v-311zM191 299v-174c0 -19 1 -35 4 -50c10 -42 38 -64 81 -64
c78 0 107 93 107 214c0 155 -59 197 -102 197c-42 0 -68 -19 -83 -56c-5 -14 -7 -46 -7 -67z" />
    <glyph glyph-name="threequarters" unicode="&#xbe;" horiz-adv-x="744" 
d="M102 466v1c0 16 6 20 19 20c14 0 38 -7 57 -7c35 0 37 35 37 67c0 35 -11 72 -43 72c-24 0 -42 -16 -54 -67c-4 -17 -8 -27 -27 -27s-40 11 -40 36c0 39 48 78 134 78c62 0 126 -20 126 -90c0 -54 -47 -68 -91 -77v-3c48 -5 107 -24 107 -88c0 -58 -35 -108 -151 -108
c-67 0 -132 27 -132 73c0 23 20 40 42 40c18 0 24 -10 29 -26c16 -59 40 -68 63 -68c29 0 49 30 49 87c0 63 -30 75 -50 75c-21 0 -45 -9 -56 -9c-13 0 -19 6 -19 21zM211 -28l-23 16l391 665l25 -14zM547 99h-135l-10 18c31 53 109 169 161 237h72v-229h59v-26h-59v-52
c0 -19 6 -25 20 -26l24 -3v-18h-185v18l34 4c12 1 19 6 19 25v52zM438 125h109v171h-1c-32 -44 -90 -136 -108 -171z" />
    <glyph glyph-name="registered" unicode="&#xae;" horiz-adv-x="213" 
d="M116 542h-45v8l8 1c4 1 4 3 4 6v50c0 3 0 6 -4 6h-8v9h48c23 0 29 -9 29 -20c0 -13 -9 -19 -20 -20v-1c9 -3 13 -7 17 -19c2 -8 5 -9 12 -12v-8h-12c-11 0 -20 3 -22 10c-2 5 -4 10 -6 14c-1 5 -2 11 -9 11h-4v-20c0 -3 1 -5 4 -6l8 -1v-8zM104 608v-22h6
c11 0 15 6 15 13c0 9 -6 13 -14 13c-5 0 -7 -1 -7 -4zM112 493h-1c-46 0 -82 34 -82 86c0 49 36 87 83 87c50 0 82 -35 82 -87c0 -47 -36 -86 -82 -86zM46 579v-1c0 -40 27 -73 66 -73c37 0 66 29 66 74c0 43 -29 75 -66 75c-41 0 -66 -33 -66 -75z" />
    <glyph glyph-name="minus" unicode="&#x2212;" horiz-adv-x="485" 
d="M50 204v48h386v-48h-386z" />
    <glyph glyph-name="eth" unicode="&#xf0;" horiz-adv-x="540" 
d="M169 230v-1c0 -125 28 -218 101 -218s100 93 100 219c0 74 -4 141 -16 172c-3 8 -9 16 -14 22c-15 15 -36 25 -69 25c-73 0 -102 -93 -102 -219zM446 672l-95 -46c103 -77 152 -205 152 -363c0 -173 -68 -275 -233 -275c-166 0 -234 92 -234 242c0 151 68 243 234 243
c12 0 51 -4 69 -11l1 3c-14 49 -36 93 -63 124l-126 -62l-9 21l119 59c-46 45 -114 88 -172 99v8l30 7c79 -8 156 -45 211 -79l106 51z" />
    <glyph glyph-name="multiply" unicode="&#xd7;" horiz-adv-x="485" 
d="M419 374l-144 -146l144 -148l-33 -34l-145 148l-145 -148l-31 34l144 148l-144 146l31 36l145 -148l145 148z" />
    <glyph glyph-name="copyright" unicode="&#xa9;" horiz-adv-x="635" 
d="M317 33h-1c-165 0 -279 125 -279 292c0 162 110 293 280 293s280 -131 280 -293c0 -160 -107 -292 -280 -292zM317 595h-1c-154 0 -248 -103 -248 -270c0 -148 107 -270 249 -270c154 0 249 106 249 270c0 149 -107 270 -249 270zM447 383h-17c-11 40 -35 91 -92 91
c-61 0 -87 -69 -87 -142s23 -148 91 -148c50 0 75 38 94 86h16l-14 -81c-25 -14 -61 -23 -106 -23c-127 0 -173 67 -173 161c0 92 52 164 174 164c46 0 87 -9 114 -23v-85z" />
    <glyph glyph-name="Aacute" unicode="&#xc1;" horiz-adv-x="652" 
d="M657 0h-289v22l51 6c22 1 26 14 18 36c-15 48 -45 138 -62 189h-200c-21 -70 -40 -126 -52 -182c-8 -30 -4 -42 19 -45l55 -4v-22h-201v22c54 3 63 11 84 61c39 92 146 405 204 581h94c49 -149 154 -466 200 -593c16 -41 26 -47 79 -49v-22zM365 282
c-18 57 -67 209 -90 278h-3c-16 -52 -68 -215 -86 -278h179zM294 694l-9 15l111 96c30 27 47 43 64 43c22 0 39 -28 39 -49c0 -30 -37 -40 -64 -51z" />
    <glyph glyph-name="Acircumflex" unicode="&#xc2;" horiz-adv-x="652" 
d="M657 0h-289v22l51 6c22 1 26 14 18 36c-15 48 -45 138 -62 189h-200c-21 -70 -40 -126 -52 -182c-8 -30 -4 -42 19 -45l55 -4v-22h-201v22c54 3 63 11 84 61c39 92 146 405 204 581h94c49 -149 154 -466 200 -593c16 -41 26 -47 79 -49v-22zM365 282
c-18 57 -67 209 -90 278h-3c-16 -52 -68 -215 -86 -278h179zM468 699l-12 -15l-116 63c-9 6 -18 7 -27 0l-112 -63l-11 15l126 139h23z" />
    <glyph glyph-name="Adieresis" unicode="&#xc4;" horiz-adv-x="652" 
d="M657 0h-289v22l51 6c22 1 26 14 18 36c-15 48 -45 138 -62 189h-200c-21 -70 -40 -126 -52 -182c-8 -30 -4 -42 19 -45l55 -4v-22h-201v22c54 3 63 11 84 61c39 92 146 405 204 581h94c49 -149 154 -466 200 -593c16 -41 26 -47 79 -49v-22zM365 282
c-18 57 -67 209 -90 278h-3c-16 -52 -68 -215 -86 -278h179zM227 824h1c39 0 62 -29 62 -63c0 -35 -24 -64 -63 -64c-41 0 -64 29 -64 64c0 34 23 63 64 63zM430 824h1c39 0 62 -29 62 -63c1 -35 -24 -64 -63 -64c-40 0 -63 29 -63 64c0 34 23 63 63 63z" />
    <glyph glyph-name="Agrave" unicode="&#xc0;" horiz-adv-x="652" 
d="M657 0h-289v22l51 6c22 1 26 14 18 36c-15 48 -45 138 -62 189h-200c-21 -70 -40 -126 -52 -182c-8 -30 -4 -42 19 -45l55 -4v-22h-201v22c54 3 63 11 84 61c39 92 146 405 204 581h94c49 -149 154 -466 200 -593c16 -41 26 -47 79 -49v-22zM365 282
c-18 57 -67 209 -90 278h-3c-16 -52 -68 -215 -86 -278h179zM350 694l-142 54c-27 11 -64 21 -64 51c0 21 18 49 39 49c18 0 34 -16 66 -43l110 -96z" />
    <glyph glyph-name="Aring" unicode="&#xc5;" horiz-adv-x="652" 
d="M657 0h-289v22l51 6c22 1 26 14 18 36c-15 48 -45 138 -62 189h-200c-21 -70 -40 -126 -52 -182c-8 -30 -4 -42 19 -45l55 -4v-22h-201v22c54 3 63 11 84 61c39 92 146 405 204 581h94c49 -149 154 -466 200 -593c16 -41 26 -47 79 -49v-22zM365 282
c-18 57 -67 209 -90 278h-3c-16 -52 -68 -215 -86 -278h179zM329 849h-1c-26 0 -47 -24 -47 -70c0 -45 21 -69 48 -69c26 0 48 24 48 69c0 46 -22 70 -48 70zM329 871h1c47 0 97 -24 97 -92s-50 -91 -98 -91c-49 0 -98 23 -98 91s49 92 98 92z" />
    <glyph glyph-name="Atilde" unicode="&#xc3;" horiz-adv-x="652" 
d="M657 0h-289v22l51 6c22 1 26 14 18 36c-15 48 -45 138 -62 189h-200c-21 -70 -40 -126 -52 -182c-8 -30 -4 -42 19 -45l55 -4v-22h-201v22c54 3 63 11 84 61c39 92 146 405 204 581h94c49 -149 154 -466 200 -593c16 -41 26 -47 79 -49v-22zM365 282
c-18 57 -67 209 -90 278h-3c-16 -52 -68 -215 -86 -278h179zM458 804l16 -6c-11 -49 -31 -94 -81 -94c-21 0 -47 10 -72 17c-24 9 -47 18 -66 18c-27 0 -38 -11 -55 -44l-14 7c11 45 34 91 87 91c20 0 47 -9 70 -16c23 -8 46 -17 64 -17c21 0 39 7 51 44z" />
    <glyph glyph-name="Ccedilla" unicode="&#xc7;" horiz-adv-x="657" 
d="M392 -16l-24 -36c39 -7 95 -21 95 -81c0 -77 -63 -88 -107 -88c-24 0 -44 5 -55 11l4 18c11 -2 24 -3 31 -3c32 0 50 17 50 53c0 41 -40 52 -60 54l-2 6l44 66c-232 5 -326 127 -326 340c0 102 24 188 81 252c57 63 134 101 276 101c61 0 153 -13 202 -41v-166h-22
c-19 79 -73 183 -191 183c-174 0 -195 -211 -195 -316c0 -143 30 -329 204 -329c115 0 160 73 197 194h23l-14 -174c-51 -29 -143 -42 -211 -44z" />
    <glyph glyph-name="Eacute" unicode="&#xc9;" horiz-adv-x="585" 
d="M98 79v501c0 51 -9 53 -75 58v22h495v-173h-23c-25 96 -56 145 -158 145h-69c-28 0 -34 -6 -34 -35v-240h92c74 0 89 17 104 92h22v-221h-22c-16 75 -28 99 -104 99h-92v-227c0 -64 8 -72 116 -72c114 0 153 59 184 165h23l-20 -193h-512v22c67 4 73 7 73 57zM258 692
l-9 15l111 96c30 27 47 43 64 43c22 0 39 -28 39 -49c0 -30 -37 -40 -64 -51z" />
    <glyph glyph-name="Ecircumflex" unicode="&#xca;" horiz-adv-x="585" 
d="M98 79v501c0 51 -9 53 -75 58v22h495v-173h-23c-25 96 -56 145 -158 145h-69c-28 0 -34 -6 -34 -35v-240h92c74 0 89 17 104 92h22v-221h-22c-16 75 -28 99 -104 99h-92v-227c0 -64 8 -72 116 -72c114 0 153 59 184 165h23l-20 -193h-512v22c67 4 73 7 73 57zM438 708
l-12 -15l-116 63c-9 6 -18 7 -27 0l-112 -63l-11 15l126 139h23z" />
    <glyph glyph-name="Edieresis" unicode="&#xcb;" horiz-adv-x="585" 
d="M98 79v501c0 51 -9 53 -75 58v22h495v-173h-23c-25 96 -56 145 -158 145h-69c-28 0 -34 -6 -34 -35v-240h92c74 0 89 17 104 92h22v-221h-22c-16 75 -28 99 -104 99h-92v-227c0 -64 8 -72 116 -72c114 0 153 59 184 165h23l-20 -193h-512v22c67 4 73 7 73 57zM193 833h1
c39 0 62 -29 62 -63c0 -35 -24 -64 -63 -64c-41 0 -64 29 -64 64c0 34 23 63 64 63zM396 833h1c39 0 62 -29 62 -63c1 -35 -24 -64 -63 -64c-40 0 -63 29 -63 64c0 34 23 63 63 63z" />
    <glyph glyph-name="Egrave" unicode="&#xc8;" horiz-adv-x="585" 
d="M98 79v501c0 51 -9 53 -75 58v22h495v-173h-23c-25 96 -56 145 -158 145h-69c-28 0 -34 -6 -34 -35v-240h92c74 0 89 17 104 92h22v-221h-22c-16 75 -28 99 -104 99h-92v-227c0 -64 8 -72 116 -72c114 0 153 59 184 165h23l-20 -193h-512v22c67 4 73 7 73 57zM336 696
l-142 54c-27 11 -64 21 -64 51c0 21 18 49 39 49c18 0 34 -16 66 -43l110 -96z" />
    <glyph glyph-name="Iacute" unicode="&#xcd;" horiz-adv-x="331" 
d="M234 580v-501c0 -48 6 -54 73 -57v-22h-282v22c70 3 73 7 73 57v501c0 49 -3 54 -73 58v22h282v-22c-66 -4 -73 -7 -73 -58zM131 690l-9 15l111 96c30 27 47 43 64 43c22 0 39 -28 39 -49c0 -30 -37 -40 -64 -51z" />
    <glyph glyph-name="Icircumflex" unicode="&#xce;" horiz-adv-x="331" 
d="M234 580v-501c0 -48 6 -54 73 -57v-22h-282v22c70 3 73 7 73 57v501c0 49 -3 54 -73 58v22h282v-22c-66 -4 -73 -7 -73 -58zM305 708l-12 -15l-116 63c-9 6 -18 7 -27 0l-112 -63l-11 15l126 139h23z" />
    <glyph glyph-name="Idieresis" unicode="&#xcf;" horiz-adv-x="331" 
d="M234 580v-501c0 -48 6 -54 73 -57v-22h-282v22c70 3 73 7 73 57v501c0 49 -3 54 -73 58v22h282v-22c-66 -4 -73 -7 -73 -58zM64 833h1c39 0 62 -29 62 -63c0 -35 -24 -64 -63 -64c-41 0 -64 29 -64 64c0 34 23 63 64 63zM267 833h1c39 0 62 -29 62 -63
c1 -35 -24 -64 -63 -64c-40 0 -63 29 -63 64c0 34 23 63 63 63z" />
    <glyph glyph-name="Igrave" unicode="&#xcc;" horiz-adv-x="331" 
d="M234 580v-501c0 -48 6 -54 73 -57v-22h-282v22c70 3 73 7 73 57v501c0 49 -3 54 -73 58v22h282v-22c-66 -4 -73 -7 -73 -58zM199 696l-142 54c-27 11 -64 21 -64 51c0 21 18 49 39 49c18 0 34 -16 66 -43l110 -96z" />
    <glyph glyph-name="Ntilde" unicode="&#xd1;" horiz-adv-x="674" 
d="M585 0h-88c-113 171 -242 367 -364 548h-3v-328c0 -52 2 -92 6 -126c7 -68 29 -66 94 -72v-22h-217v22c59 8 73 10 79 72c4 33 6 76 6 131v360c0 40 -4 43 -79 53v22h195c106 -156 231 -333 336 -486l4 -1l-1 262c0 51 -2 97 -5 131c-8 68 -30 66 -99 72v22h217v-22
c-58 -8 -69 -12 -76 -72c-4 -33 -5 -83 -5 -131v-435zM469 812l16 -6c-11 -49 -31 -94 -81 -94c-21 0 -47 10 -72 17c-24 9 -47 18 -66 18c-27 0 -38 -11 -55 -44l-14 7c11 45 34 91 87 91c20 0 47 -9 70 -16c23 -8 46 -17 64 -17c21 0 39 7 51 44z" />
    <glyph glyph-name="Oacute" unicode="&#xd3;" horiz-adv-x="718" 
d="M359 653h-1c-145 0 -165 -197 -165 -323c0 -132 21 -322 166 -322c146 0 166 190 166 322c0 126 -20 323 -166 323zM359 677h1c217 0 315 -135 315 -347c0 -213 -98 -346 -316 -346s-316 133 -316 346c0 212 98 347 316 347zM324 705l-9 15l111 96c30 27 47 43 64 43
c22 0 39 -28 39 -49c0 -30 -37 -40 -64 -51z" />
    <glyph glyph-name="Ocircumflex" unicode="&#xd4;" horiz-adv-x="718" 
d="M359 653h-1c-145 0 -165 -197 -165 -323c0 -132 21 -322 166 -322c146 0 166 190 166 322c0 126 -20 323 -166 323zM359 677h1c217 0 315 -135 315 -347c0 -213 -98 -346 -316 -346s-316 133 -316 346c0 212 98 347 316 347zM498 718l-12 -15l-116 63c-9 6 -18 7 -27 0
l-112 -63l-11 15l126 139h23z" />
    <glyph glyph-name="Odieresis" unicode="&#xd6;" horiz-adv-x="718" 
d="M359 653h-1c-145 0 -165 -197 -165 -323c0 -132 21 -322 166 -322c146 0 166 190 166 322c0 126 -20 323 -166 323zM359 677h1c217 0 315 -135 315 -347c0 -213 -98 -346 -316 -346s-316 133 -316 346c0 212 98 347 316 347zM257 843h1c39 0 62 -29 62 -63
c0 -35 -24 -64 -63 -64c-41 0 -64 29 -64 64c0 34 23 63 64 63zM460 843h1c39 0 62 -29 62 -63c1 -35 -24 -64 -63 -64c-40 0 -63 29 -63 64c0 34 23 63 63 63z" />
    <glyph glyph-name="Ograve" unicode="&#xd2;" horiz-adv-x="718" 
d="M359 653h-1c-145 0 -165 -197 -165 -323c0 -132 21 -322 166 -322c146 0 166 190 166 322c0 126 -20 323 -166 323zM359 677h1c217 0 315 -135 315 -347c0 -213 -98 -346 -316 -346s-316 133 -316 346c0 212 98 347 316 347zM398 705l-142 54c-27 11 -64 21 -64 51
c0 21 18 49 39 49c18 0 34 -16 66 -43l110 -96z" />
    <glyph glyph-name="Otilde" unicode="&#xd5;" horiz-adv-x="718" 
d="M359 653h-1c-145 0 -165 -197 -165 -323c0 -132 21 -322 166 -322c146 0 166 190 166 322c0 126 -20 323 -166 323zM359 677h1c217 0 315 -135 315 -347c0 -213 -98 -346 -316 -346s-316 133 -316 346c0 212 98 347 316 347zM485 825l16 -6c-11 -49 -31 -94 -81 -94
c-21 0 -47 10 -72 17c-24 9 -47 18 -66 18c-27 0 -38 -11 -55 -44l-14 7c11 45 34 91 87 91c20 0 47 -9 70 -16c23 -8 46 -17 64 -17c21 0 39 7 51 44z" />
    <glyph glyph-name="Scaron" unicode="&#x160;" horiz-adv-x="519" 
d="M443 482h-20c-22 108 -86 170 -156 170c-64 0 -104 -39 -104 -111c0 -81 69 -116 139 -149c91 -42 177 -79 177 -205c0 -98 -55 -203 -235 -203c-64 0 -136 11 -189 52l-12 171h21c33 -117 102 -199 180 -199c86 0 116 53 116 117c0 73 -50 109 -130 148
c-90 42 -178 83 -178 207c0 120 77 196 224 196c52 0 123 -14 167 -41v-153zM121 848l11 15l116 -62c9 -7 18 -8 27 0l111 62l13 -15l-127 -139h-22z" />
    <glyph glyph-name="Uacute" unicode="&#xda;" horiz-adv-x="709" 
d="M420 660h271v-22c-68 -4 -70 -8 -70 -58v-362c0 -58 -11 -103 -32 -137c-41 -71 -122 -97 -232 -97c-117 0 -199 26 -239 96c-20 34 -30 80 -30 138v362c0 51 -3 54 -71 58v22h278v-22c-64 -3 -71 -7 -71 -58v-386c0 -110 35 -186 133 -186c102 0 135 74 135 186v386
c0 51 -3 54 -72 58v22zM320 692l-9 15l111 96c30 27 47 43 64 43c22 0 39 -28 39 -49c0 -30 -37 -40 -64 -51z" />
    <glyph glyph-name="Ucircumflex" unicode="&#xdb;" horiz-adv-x="709" 
d="M420 660h271v-22c-68 -4 -70 -8 -70 -58v-362c0 -58 -11 -103 -32 -137c-41 -71 -122 -97 -232 -97c-117 0 -199 26 -239 96c-20 34 -30 80 -30 138v362c0 51 -3 54 -71 58v22h278v-22c-64 -3 -71 -7 -71 -58v-386c0 -110 35 -186 133 -186c102 0 135 74 135 186v386
c0 51 -3 54 -72 58v22zM494 712l-12 -15l-116 63c-9 6 -18 7 -27 0l-112 -63l-11 15l126 139h23z" />
    <glyph glyph-name="Udieresis" unicode="&#xdc;" horiz-adv-x="709" 
d="M420 660h271v-22c-68 -4 -70 -8 -70 -58v-362c0 -58 -11 -103 -32 -137c-41 -71 -122 -97 -232 -97c-117 0 -199 26 -239 96c-20 34 -30 80 -30 138v362c0 51 -3 54 -71 58v22h278v-22c-64 -3 -71 -7 -71 -58v-386c0 -110 35 -186 133 -186c102 0 135 74 135 186v386
c0 51 -3 54 -72 58v22zM253 833h1c39 0 62 -29 62 -63c0 -35 -24 -64 -63 -64c-41 0 -64 29 -64 64c0 34 23 63 64 63zM456 833h1c39 0 62 -29 62 -63c1 -35 -24 -64 -63 -64c-40 0 -63 29 -63 64c0 34 23 63 63 63z" />
    <glyph glyph-name="Ugrave" unicode="&#xd9;" horiz-adv-x="709" 
d="M420 660h271v-22c-68 -4 -70 -8 -70 -58v-362c0 -58 -11 -103 -32 -137c-41 -71 -122 -97 -232 -97c-117 0 -199 26 -239 96c-20 34 -30 80 -30 138v362c0 51 -3 54 -71 58v22h278v-22c-64 -3 -71 -7 -71 -58v-386c0 -110 35 -186 133 -186c102 0 135 74 135 186v386
c0 51 -3 54 -72 58v22zM388 696l-142 54c-27 11 -64 21 -64 51c0 21 18 49 39 49c18 0 34 -16 66 -43l110 -96z" />
    <glyph glyph-name="Yacute" unicode="&#xdd;" horiz-adv-x="600" 
d="M471 0h-323v22c88 3 94 8 94 57v171c0 23 -6 42 -16 62c-39 78 -110 205 -153 273c-24 41 -33 50 -83 53v22h288v-22l-51 -6c-20 -1 -21 -14 -13 -29c42 -84 108 -209 148 -284h3c47 96 104 230 121 274c10 27 3 38 -15 40l-48 5v22h197v-22c-54 -5 -70 -15 -95 -57
c-39 -69 -91 -174 -130 -257c-11 -22 -17 -40 -17 -66v-179c0 -49 6 -54 93 -57v-22zM285 692l-9 15l111 96c30 27 47 43 64 43c22 0 39 -28 39 -49c0 -30 -37 -40 -64 -51z" />
    <glyph glyph-name="Ydieresis" unicode="&#x178;" horiz-adv-x="600" 
d="M471 0h-323v22c88 3 94 8 94 57v171c0 23 -6 42 -16 62c-39 78 -110 205 -153 273c-24 41 -33 50 -83 53v22h288v-22l-51 -6c-20 -1 -21 -14 -13 -29c42 -84 108 -209 148 -284h3c47 96 104 230 121 274c10 27 3 38 -15 40l-48 5v22h197v-22c-54 -5 -70 -15 -95 -57
c-39 -69 -91 -174 -130 -257c-11 -22 -17 -40 -17 -66v-179c0 -49 6 -54 93 -57v-22zM221 836h1c39 0 62 -29 62 -63c0 -35 -24 -64 -63 -64c-41 0 -64 29 -64 64c0 34 23 63 64 63zM424 836h1c39 0 62 -29 62 -63c1 -35 -24 -64 -63 -64c-40 0 -63 29 -63 64
c0 34 23 63 63 63z" />
    <glyph glyph-name="Zcaron" unicode="&#x17d;" horiz-adv-x="599" 
d="M48 660h514l3 -11c-103 -167 -308 -497 -382 -621h173c143 0 169 56 201 166h22l-18 -194h-542l-3 11c112 172 300 471 388 621h-159c-130 0 -155 -45 -175 -155h-22v183zM166 835l11 15l116 -62c9 -7 18 -8 27 0l111 62l13 -15l-127 -139h-22z" />
    <glyph glyph-name="aacute" unicode="&#xe1;" horiz-adv-x="501" 
d="M429 337v-230c0 -56 10 -69 25 -75c11 -4 25 -4 37 -3v-14c-29 -17 -64 -27 -111 -27s-64 26 -72 61c-33 -21 -75 -61 -135 -61c-94 0 -136 66 -136 137c0 51 21 90 96 111c68 18 150 41 173 65v58c0 62 -26 91 -66 91c-39 0 -69 -25 -86 -114c-5 -21 -17 -29 -37 -29
c-23 0 -65 14 -65 53c0 51 70 113 200 113c161 0 177 -78 177 -136zM306 109v165c-22 -11 -60 -27 -91 -44c-35 -16 -48 -40 -48 -85c0 -57 27 -106 76 -106c24 0 63 14 63 70zM231 511l-13 11l59 121c20 42 31 59 55 59c22 0 45 -20 45 -40c0 -22 -18 -35 -44 -60z" />
    <glyph glyph-name="acircumflex" unicode="&#xe2;" horiz-adv-x="501" 
d="M429 337v-230c0 -56 10 -69 25 -75c11 -4 25 -4 37 -3v-14c-29 -17 -64 -27 -111 -27s-64 26 -72 61c-33 -21 -75 -61 -135 -61c-94 0 -136 66 -136 137c0 51 21 90 96 111c68 18 150 41 173 65v58c0 62 -26 91 -66 91c-39 0 -69 -25 -86 -114c-5 -21 -17 -29 -37 -29
c-23 0 -65 14 -65 53c0 51 70 113 200 113c161 0 177 -78 177 -136zM306 109v165c-22 -11 -60 -27 -91 -44c-35 -16 -48 -40 -48 -85c0 -57 27 -106 76 -106c24 0 63 14 63 70zM361 520l-16 -9l-91 89c-10 7 -12 8 -21 0l-86 -89l-15 9l101 181h22z" />
    <glyph glyph-name="adieresis" unicode="&#xe4;" horiz-adv-x="501" 
d="M429 337v-230c0 -56 10 -69 25 -75c11 -4 25 -4 37 -3v-14c-29 -17 -64 -27 -111 -27s-64 26 -72 61c-33 -21 -75 -61 -135 -61c-94 0 -136 66 -136 137c0 51 21 90 96 111c68 18 150 41 173 65v58c0 62 -26 91 -66 91c-39 0 -69 -25 -86 -114c-5 -21 -17 -29 -37 -29
c-23 0 -65 14 -65 53c0 51 70 113 200 113c161 0 177 -78 177 -136zM306 109v165c-22 -11 -60 -27 -91 -44c-35 -16 -48 -40 -48 -85c0 -57 27 -106 76 -106c24 0 63 14 63 70zM152 660h1c39 0 61 -29 61 -62c0 -35 -24 -63 -62 -63c-40 0 -62 28 -62 63c0 33 22 62 62 62z
M345 660h1c39 0 61 -29 61 -62c0 -35 -24 -63 -62 -63c-40 0 -62 28 -62 63c0 33 22 62 62 62z" />
    <glyph glyph-name="agrave" unicode="&#xe0;" horiz-adv-x="501" 
d="M429 337v-230c0 -56 10 -69 25 -75c11 -4 25 -4 37 -3v-14c-29 -17 -64 -27 -111 -27s-64 26 -72 61c-33 -21 -75 -61 -135 -61c-94 0 -136 66 -136 137c0 51 21 90 96 111c68 18 150 41 173 65v58c0 62 -26 91 -66 91c-39 0 -69 -25 -86 -114c-5 -21 -17 -29 -37 -29
c-23 0 -65 14 -65 53c0 51 70 113 200 113c161 0 177 -78 177 -136zM306 109v165c-22 -11 -60 -27 -91 -44c-35 -16 -48 -40 -48 -85c0 -57 27 -106 76 -106c24 0 63 14 63 70zM272 511l-101 91c-27 25 -45 38 -45 60c0 20 23 40 46 40s34 -17 54 -59l59 -121z" />
    <glyph glyph-name="aring" unicode="&#xe5;" horiz-adv-x="501" 
d="M429 337v-230c0 -56 10 -69 25 -75c11 -4 25 -4 37 -3v-14c-29 -17 -64 -27 -111 -27s-64 26 -72 61c-33 -21 -75 -61 -135 -61c-94 0 -136 66 -136 137c0 51 21 90 96 111c68 18 150 41 173 65v58c0 62 -26 91 -66 91c-39 0 -69 -25 -86 -114c-5 -21 -17 -29 -37 -29
c-23 0 -65 14 -65 53c0 51 70 113 200 113c161 0 177 -78 177 -136zM306 109v165c-22 -11 -60 -27 -91 -44c-35 -16 -48 -40 -48 -85c0 -57 27 -106 76 -106c24 0 63 14 63 70zM251 677h-1c-25 0 -46 -23 -46 -68c0 -46 21 -69 47 -69s47 23 47 69c0 45 -21 68 -47 68z
M251 699h1c47 0 96 -23 96 -90c0 -68 -49 -90 -97 -90s-97 22 -97 90c0 67 49 90 97 90z" />
    <glyph glyph-name="atilde" unicode="&#xe3;" horiz-adv-x="501" 
d="M429 337v-230c0 -56 10 -69 25 -75c11 -4 25 -4 37 -3v-14c-29 -17 -64 -27 -111 -27s-64 26 -72 61c-33 -21 -75 -61 -135 -61c-94 0 -136 66 -136 137c0 51 21 90 96 111c68 18 150 41 173 65v58c0 62 -26 91 -66 91c-39 0 -69 -25 -86 -114c-5 -21 -17 -29 -37 -29
c-23 0 -65 14 -65 53c0 51 70 113 200 113c161 0 177 -78 177 -136zM306 109v165c-22 -11 -60 -27 -91 -44c-35 -16 -48 -40 -48 -85c0 -57 27 -106 76 -106c24 0 63 14 63 70zM376 644l15 -6c-11 -48 -30 -92 -80 -92c-20 0 -46 10 -70 18c-23 8 -47 17 -65 17
c-27 0 -37 -11 -54 -43l-14 7c11 44 33 89 85 89c20 0 47 -9 69 -16c23 -8 45 -17 63 -17c21 0 38 6 51 43z" />
    <glyph glyph-name="ccedilla" unicode="&#xe7;" horiz-adv-x="463" 
d="M273 -10l-28 -42c38 -6 94 -20 94 -79c0 -76 -62 -87 -106 -87c-24 0 -42 5 -54 12l4 17c11 -3 23 -3 31 -3c32 0 49 17 49 52c0 40 -39 51 -58 53l-3 6l46 70c-134 1 -212 81 -212 237c0 146 77 247 235 247c89 0 170 -40 170 -101c0 -40 -42 -56 -71 -56
c-23 0 -38 9 -42 30c-11 64 -24 103 -71 103c-49 0 -88 -67 -88 -197c0 -138 53 -208 125 -208c55 0 107 19 140 98l13 -7c-24 -100 -98 -140 -174 -145z" />
    <glyph glyph-name="eacute" unicode="&#xe9;" horiz-adv-x="482" 
d="M408 247h-239c-1 -108 29 -203 128 -203c69 0 108 31 138 97l17 -8c-30 -84 -86 -145 -196 -145c-170 0 -220 107 -220 242c0 133 59 243 223 243c179 0 197 -125 197 -191c0 -26 -14 -35 -48 -35zM169 272h128c24 0 31 9 31 35c0 61 -10 142 -75 142
c-69 0 -84 -107 -84 -177zM225 511l-13 11l59 121c20 42 31 59 55 59c22 0 45 -20 45 -40c0 -22 -18 -35 -44 -60z" />
    <glyph glyph-name="ecircumflex" unicode="&#xea;" horiz-adv-x="482" 
d="M408 247h-239c-1 -108 29 -203 128 -203c69 0 108 31 138 97l17 -8c-30 -84 -86 -145 -196 -145c-170 0 -220 107 -220 242c0 133 59 243 223 243c179 0 197 -125 197 -191c0 -26 -14 -35 -48 -35zM169 272h128c24 0 31 9 31 35c0 61 -10 142 -75 142
c-69 0 -84 -107 -84 -177zM361 520l-16 -9l-91 89c-10 7 -12 8 -21 0l-86 -89l-15 9l101 181h22z" />
    <glyph glyph-name="edieresis" unicode="&#xeb;" horiz-adv-x="482" 
d="M408 247h-239c-1 -108 29 -203 128 -203c69 0 108 31 138 97l17 -8c-30 -84 -86 -145 -196 -145c-170 0 -220 107 -220 242c0 133 59 243 223 243c179 0 197 -125 197 -191c0 -26 -14 -35 -48 -35zM169 272h128c24 0 31 9 31 35c0 61 -10 142 -75 142
c-69 0 -84 -107 -84 -177zM152 660h1c39 0 61 -29 61 -62c0 -35 -24 -63 -62 -63c-40 0 -62 28 -62 63c0 33 22 62 62 62zM345 660h1c39 0 61 -29 61 -62c0 -35 -24 -63 -62 -63c-40 0 -62 28 -62 63c0 33 22 62 62 62z" />
    <glyph glyph-name="egrave" unicode="&#xe8;" horiz-adv-x="482" 
d="M408 247h-239c-1 -108 29 -203 128 -203c69 0 108 31 138 97l17 -8c-30 -84 -86 -145 -196 -145c-170 0 -220 107 -220 242c0 133 59 243 223 243c179 0 197 -125 197 -191c0 -26 -14 -35 -48 -35zM169 272h128c24 0 31 9 31 35c0 61 -10 142 -75 142
c-69 0 -84 -107 -84 -177zM272 511l-101 91c-27 25 -45 38 -45 60c0 20 23 40 46 40s34 -17 54 -59l59 -121z" />
    <glyph glyph-name="iacute" unicode="&#xed;" horiz-adv-x="277" 
d="M26 445l175 27l4 -3v-398c0 -43 4 -45 59 -49v-22h-243v22c53 3 58 6 58 49v303c0 37 -7 44 -25 48l-28 4v19zM123 511l-13 11l59 121c20 42 31 59 55 59c22 0 45 -20 45 -40c0 -22 -18 -35 -44 -60z" />
    <glyph glyph-name="icircumflex" unicode="&#xee;" horiz-adv-x="277" 
d="M26 445l175 27l4 -3v-398c0 -43 4 -45 59 -49v-22h-243v22c53 3 58 6 58 49v303c0 37 -7 44 -25 48l-28 4v19zM246 520l-16 -9l-91 89c-10 7 -12 8 -21 0l-86 -89l-15 9l101 181h22z" />
    <glyph glyph-name="idieresis" unicode="&#xef;" horiz-adv-x="277" 
d="M26 445l175 27l4 -3v-398c0 -43 4 -45 59 -49v-22h-243v22c53 3 58 6 58 49v303c0 37 -7 44 -25 48l-28 4v19zM37 660h1c39 0 61 -29 61 -62c0 -35 -24 -63 -62 -63c-40 0 -62 28 -62 63c0 33 22 62 62 62zM230 660h1c39 0 61 -29 61 -62c0 -35 -24 -63 -62 -63
c-40 0 -62 28 -62 63c0 33 22 62 62 62z" />
    <glyph glyph-name="igrave" unicode="&#xec;" horiz-adv-x="277" 
d="M26 445l175 27l4 -3v-398c0 -43 4 -45 59 -49v-22h-243v22c53 3 58 6 58 49v303c0 37 -7 44 -25 48l-28 4v19zM155 511l-101 91c-27 25 -45 38 -45 60c0 20 23 40 46 40s34 -17 54 -59l59 -121z" />
    <glyph glyph-name="ntilde" unicode="&#xf1;" horiz-adv-x="576" 
d="M504 325v-257c0 -43 4 -42 59 -46v-22h-239v22c40 3 54 2 54 45v261c0 62 -28 94 -79 94c-42 0 -72 -23 -85 -48c-6 -13 -9 -34 -9 -55v-252c0 -43 14 -41 53 -45v-22h-238v22c55 3 59 7 59 50v300c0 39 -6 47 -24 49l-30 5v19l167 27l13 -67c61 37 104 68 161 68
c95 0 138 -58 138 -148zM413 644l15 -6c-11 -48 -30 -92 -80 -92c-20 0 -46 10 -70 18c-23 8 -47 17 -65 17c-27 0 -37 -11 -54 -43l-14 7c11 44 33 89 85 89c20 0 47 -9 69 -16c23 -8 45 -17 63 -17c21 0 38 6 51 43z" />
    <glyph glyph-name="oacute" unicode="&#xf3;" horiz-adv-x="541" 
d="M271 473h1c166 0 233 -92 233 -243s-67 -242 -234 -242c-166 0 -235 91 -235 242s69 243 235 243zM170 230v-1c0 -127 31 -218 101 -218c71 0 100 91 100 219s-29 219 -100 219c-70 0 -101 -91 -101 -219zM255 511l-13 11l59 121c20 42 31 59 55 59c22 0 45 -20 45 -40
c0 -22 -18 -35 -44 -60z" />
    <glyph glyph-name="ocircumflex" unicode="&#xf4;" horiz-adv-x="541" 
d="M271 473h1c166 0 233 -92 233 -243s-67 -242 -234 -242c-166 0 -235 91 -235 242s69 243 235 243zM170 230v-1c0 -127 31 -218 101 -218c71 0 100 91 100 219s-29 219 -100 219c-70 0 -101 -91 -101 -219zM383 520l-16 -9l-91 89c-10 7 -12 8 -21 0l-86 -89l-15 9
l101 181h22z" />
    <glyph glyph-name="odieresis" unicode="&#xf6;" horiz-adv-x="541" 
d="M271 473h1c166 0 233 -92 233 -243s-67 -242 -234 -242c-166 0 -235 91 -235 242s69 243 235 243zM170 230v-1c0 -127 31 -218 101 -218c71 0 100 91 100 219s-29 219 -100 219c-70 0 -101 -91 -101 -219zM174 660h1c39 0 61 -29 61 -62c0 -35 -24 -63 -62 -63
c-40 0 -62 28 -62 63c0 33 22 62 62 62zM367 660h1c39 0 61 -29 61 -62c0 -35 -24 -63 -62 -63c-40 0 -62 28 -62 63c0 33 22 62 62 62z" />
    <glyph glyph-name="ograve" unicode="&#xf2;" horiz-adv-x="541" 
d="M271 473h1c166 0 233 -92 233 -243s-67 -242 -234 -242c-166 0 -235 91 -235 242s69 243 235 243zM170 230v-1c0 -127 31 -218 101 -218c71 0 100 91 100 219s-29 219 -100 219c-70 0 -101 -91 -101 -219zM292 511l-101 91c-27 25 -45 38 -45 60c0 20 23 40 46 40
s34 -17 54 -59l59 -121z" />
    <glyph glyph-name="otilde" unicode="&#xf5;" horiz-adv-x="541" 
d="M271 473h1c166 0 233 -92 233 -243s-67 -242 -234 -242c-166 0 -235 91 -235 242s69 243 235 243zM170 230v-1c0 -127 31 -218 101 -218c71 0 100 91 100 219s-29 219 -100 219c-70 0 -101 -91 -101 -219zM396 644l15 -6c-11 -48 -30 -92 -80 -92c-20 0 -46 10 -70 18
c-23 8 -47 17 -65 17c-27 0 -37 -11 -54 -43l-14 7c11 44 33 89 85 89c20 0 47 -9 69 -16c23 -8 45 -17 63 -17c21 0 38 6 51 43z" />
    <glyph glyph-name="scaron" unicode="&#x161;" horiz-adv-x="408" 
d="M348 318h-20c-17 73 -65 131 -116 131c-44 0 -67 -27 -67 -69c0 -49 41 -69 99 -91c85 -33 135 -67 135 -148c0 -97 -76 -153 -185 -153c-52 0 -114 13 -144 39l-11 140h21c22 -78 76 -156 139 -156c41 0 74 21 74 71c0 46 -34 72 -97 97c-81 32 -132 73 -132 145
c0 93 67 149 172 149c47 0 95 -10 132 -31v-124zM92 692l16 9l89 -88c11 -10 13 -9 22 -1l86 89l16 -9l-103 -181h-20z" />
    <glyph glyph-name="uacute" unicode="&#xfa;" horiz-adv-x="566" 
d="M556 0h-181l-7 56c-37 -20 -85 -68 -165 -68c-68 0 -131 31 -131 141v245c0 37 -6 49 -25 53l-31 5v20l180 14l2 -2v-321c0 -73 34 -103 85 -103c43 0 66 22 77 48c6 14 8 35 8 53v233c0 36 -7 50 -25 52l-32 6v20l180 14l2 -2v-393c0 -41 7 -46 63 -49v-22zM263 511
l-13 11l59 121c20 42 31 59 55 59c22 0 45 -20 45 -40c0 -22 -18 -35 -44 -60z" />
    <glyph glyph-name="ucircumflex" unicode="&#xfb;" horiz-adv-x="566" 
d="M556 0h-181l-7 56c-37 -20 -85 -68 -165 -68c-68 0 -131 31 -131 141v245c0 37 -6 49 -25 53l-31 5v20l180 14l2 -2v-321c0 -73 34 -103 85 -103c43 0 66 22 77 48c6 14 8 35 8 53v233c0 36 -7 50 -25 52l-32 6v20l180 14l2 -2v-393c0 -41 7 -46 63 -49v-22zM388 520
l-16 -9l-91 89c-10 7 -12 8 -21 0l-86 -89l-15 9l101 181h22z" />
    <glyph glyph-name="udieresis" unicode="&#xfc;" horiz-adv-x="566" 
d="M556 0h-181l-7 56c-37 -20 -85 -68 -165 -68c-68 0 -131 31 -131 141v245c0 37 -6 49 -25 53l-31 5v20l180 14l2 -2v-321c0 -73 34 -103 85 -103c43 0 66 22 77 48c6 14 8 35 8 53v233c0 36 -7 50 -25 52l-32 6v20l180 14l2 -2v-393c0 -41 7 -46 63 -49v-22zM176 660h1
c39 0 61 -29 61 -62c0 -35 -24 -63 -62 -63c-40 0 -62 28 -62 63c0 33 22 62 62 62zM369 660h1c39 0 61 -29 61 -62c0 -35 -24 -63 -62 -63c-40 0 -62 28 -62 63c0 33 22 62 62 62z" />
    <glyph glyph-name="ugrave" unicode="&#xf9;" horiz-adv-x="566" 
d="M556 0h-181l-7 56c-37 -20 -85 -68 -165 -68c-68 0 -131 31 -131 141v245c0 37 -6 49 -25 53l-31 5v20l180 14l2 -2v-321c0 -73 34 -103 85 -103c43 0 66 22 77 48c6 14 8 35 8 53v233c0 36 -7 50 -25 52l-32 6v20l180 14l2 -2v-393c0 -41 7 -46 63 -49v-22zM304 511
l-101 91c-27 25 -45 38 -45 60c0 20 23 40 46 40s34 -17 54 -59l59 -121z" />
    <glyph glyph-name="yacute" unicode="&#xfd;" horiz-adv-x="482" 
d="M330 461h176v-22c-53 -4 -56 -8 -77 -58c-46 -116 -112 -309 -167 -459c-51 -137 -92 -167 -151 -167c-37 0 -68 24 -68 57c0 34 32 70 56 70c14 0 18 -3 32 -14c12 -11 29 -21 44 -21c20 0 40 15 59 77c5 14 -8 50 -16 68c-43 112 -111 277 -164 404
c-16 40 -26 38 -68 43v22h252v-22l-36 -5c-17 -2 -19 -11 -13 -29c31 -88 78 -208 111 -297h2c32 95 69 215 91 297c6 21 1 27 -16 28l-47 6v22zM245 511l-13 11l59 121c20 42 31 59 55 59c22 0 45 -20 45 -40c0 -22 -18 -35 -44 -60z" />
    <glyph glyph-name="ydieresis" unicode="&#xff;" horiz-adv-x="482" 
d="M330 461h176v-22c-53 -4 -56 -8 -77 -58c-46 -116 -112 -309 -167 -459c-51 -137 -92 -167 -151 -167c-37 0 -68 24 -68 57c0 34 32 70 56 70c14 0 18 -3 32 -14c12 -11 29 -21 44 -21c20 0 40 15 59 77c5 14 -8 50 -16 68c-43 112 -111 277 -164 404
c-16 40 -26 38 -68 43v22h252v-22l-36 -5c-17 -2 -19 -11 -13 -29c31 -88 78 -208 111 -297h2c32 95 69 215 91 297c6 21 1 27 -16 28l-47 6v22zM162 660h1c39 0 61 -29 61 -62c0 -35 -24 -63 -62 -63c-40 0 -62 28 -62 63c0 33 22 62 62 62zM355 660h1c39 0 61 -29 61 -62
c0 -35 -24 -63 -62 -63c-40 0 -62 28 -62 63c0 33 22 62 62 62z" />
    <glyph glyph-name="zcaron" unicode="&#x17e;" horiz-adv-x="448" 
d="M421 461l3 -7c-68 -116 -186 -315 -254 -427h100c99 0 122 41 146 137h22l-12 -164h-411l-5 8c88 138 189 307 262 426h-100c-92 0 -102 -34 -120 -117h-23v144h392zM116 692l16 9l89 -88c11 -10 13 -9 22 -1l86 89l16 -9l-103 -181h-20z" />
    <glyph glyph-name="twodotenleader" unicode="&#x2025;" horiz-adv-x="470" 
d="M115 -11h-1c-39 0 -65 28 -65 69c0 40 26 70 66 70c42 0 68 -30 67 -70c-1 -41 -25 -69 -67 -69zM353 -11h-1c-40 0 -66 28 -66 69c0 40 26 71 67 71s67 -31 66 -71c-1 -41 -25 -69 -66 -69z" />
    <glyph glyph-name="onedotenleader" unicode="&#x2024;" horiz-adv-x="470" 
d="M235 -11h-1c-40 0 -66 29 -66 69s26 71 67 71c42 0 68 -31 67 -71s-25 -69 -67 -69z" />
    <glyph glyph-name="colonmonetary" unicode="&#x20a1;" horiz-adv-x="512" 
d="M469 149c-29 -107 -102 -146 -159 -148l-11 -87h-28l11 88c-21 0 -31 -2 -48 1l-12 -89h-28l12 95c-125 35 -170 118 -170 296c0 179 67 314 245 322l8 71h26l-8 -70c17 -1 34 -2 47 -3l9 73h27l-10 -79c57 -15 96 -41 96 -77c0 -26 -19 -43 -38 -43c-13 0 -19 6 -26 21
c-8 20 -21 43 -37 59l-62 -542c65 3 109 38 136 117zM217 77l60 526c-71 -15 -107 -136 -107 -286c0 -90 5 -177 47 -240zM286 38l65 557c-12 6 -24 9 -47 10l-63 -550c14 -12 26 -14 45 -17z" />
    <glyph glyph-name="figuredash" unicode="&#x2012;" horiz-adv-x="294" 
d="M38 353h219v-61h-219v61z" />
    <glyph glyph-name="oneeighth" unicode="&#x215b;" horiz-adv-x="744" 
d="M252 279h-211v19l36 4c19 2 25 8 25 30v239c0 19 -7 27 -20 28l-40 3v17l146 20l4 -3v-304c0 -22 7 -28 25 -30l35 -4v-19zM169 -29l-24 17l391 665l26 -14zM552 -7h-1c-77 0 -147 30 -147 109c0 42 27 75 79 86v3c-43 8 -67 35 -67 76c0 69 71 93 136 93
c69 0 136 -23 136 -93c0 -42 -26 -70 -67 -76v-3c55 -11 80 -43 80 -85c0 -81 -71 -110 -149 -110zM552 340h-1c-29 0 -44 -27 -44 -73c0 -35 14 -71 45 -71c34 0 46 36 46 71c0 38 -11 73 -46 73zM552 176h-1c-35 0 -51 -31 -51 -78c0 -58 21 -85 53 -85c33 0 52 24 52 85
c0 46 -18 78 -53 78z" />
    <glyph glyph-name="threeeighths" unicode="&#x215c;" horiz-adv-x="744" 
d="M92 466v1c0 16 6 20 19 20c14 0 39 -7 57 -7c35 0 37 35 37 67c0 35 -11 72 -42 72c-24 0 -43 -16 -55 -67c-3 -17 -8 -27 -26 -27c-20 0 -40 11 -40 36c0 39 47 78 134 78c62 0 125 -20 125 -90c0 -54 -46 -68 -91 -77v-3c49 -5 108 -24 108 -88
c0 -58 -36 -108 -151 -108c-68 0 -133 26 -133 73c0 23 20 40 42 40c18 0 25 -10 29 -26c17 -59 41 -68 64 -68c28 0 49 30 49 87c0 63 -31 75 -50 75c-22 0 -45 -9 -57 -9s-19 6 -19 21zM180 -29l-24 17l391 665l25 -14zM554 -7h-1c-77 0 -147 30 -147 109
c0 42 27 75 80 86v3c-44 8 -68 34 -68 75c0 70 71 94 136 94c69 0 136 -23 136 -94c0 -41 -27 -69 -67 -75v-3c54 -11 80 -44 80 -86c0 -80 -72 -109 -149 -109zM554 340h-1c-28 0 -44 -27 -44 -74c0 -34 14 -70 45 -70c34 0 46 36 46 70c0 38 -11 74 -46 74zM554 176h-1
c-36 0 -51 -31 -51 -78c0 -58 22 -85 52 -85c34 0 53 24 53 85c0 46 -19 78 -53 78z" />
    <glyph glyph-name="fiveeighths" unicode="&#x215d;" horiz-adv-x="744" 
d="M83 634h223l3 -4l-26 -69h-165c-16 0 -20 -4 -22 -21l-12 -81c21 17 69 37 110 37c78 0 124 -31 124 -101c0 -71 -37 -122 -150 -122c-65 0 -124 26 -124 72c0 22 22 40 45 40c16 0 23 -9 29 -26c13 -45 32 -67 55 -67c29 0 46 24 46 89c0 56 -24 82 -64 82
c-35 0 -61 -14 -76 -32l-16 15l16 184zM176 -29l-23 17l391 665l25 -14zM550 -7h-1c-77 0 -147 30 -147 109c0 42 26 75 79 86v3c-43 8 -67 34 -67 75c0 70 70 94 135 94c69 0 136 -23 136 -94c0 -41 -26 -69 -66 -75v-3c54 -11 80 -44 80 -86c0 -80 -71 -109 -149 -109z
M550 340h-1c-29 0 -44 -27 -44 -74c0 -34 14 -70 44 -70c34 0 46 36 46 70c0 38 -11 74 -45 74zM550 176h-1c-35 0 -51 -31 -51 -78c0 -58 21 -85 52 -85c34 0 53 24 53 85c0 46 -18 78 -53 78z" />
    <glyph glyph-name="seveneighths" unicode="&#x215e;" horiz-adv-x="744" 
d="M69 634h265l3 -4c-9 -47 -33 -98 -75 -159c-28 -41 -38 -86 -38 -150c0 -34 -5 -48 -43 -48c-26 0 -47 7 -47 46c0 49 43 99 82 141c44 45 64 68 74 99h-179c-23 0 -27 -5 -51 -51l-16 6zM148 -29l-24 17l391 665l25 -14zM540 -7h-1c-76 0 -147 30 -147 109
c0 42 26 75 80 86v3c-43 8 -67 34 -67 75c0 70 71 94 135 94c69 0 136 -23 136 -94c0 -41 -26 -69 -67 -75v-3c55 -11 80 -44 80 -85c0 -81 -71 -110 -149 -110zM541 340h-1c-29 0 -44 -27 -44 -74c0 -34 13 -70 44 -70c34 0 46 36 46 70c0 38 -10 74 -45 74zM540 176h-1
c-35 0 -51 -31 -51 -78c0 -58 21 -85 53 -85c33 0 52 24 52 85c0 46 -18 78 -53 78z" />
    <glyph glyph-name="onethird" unicode="&#x2153;" horiz-adv-x="744" 
d="M262 279h-212v19l36 4c19 2 25 8 25 30v239c0 19 -6 27 -19 28l-40 3v17l145 20l4 -3v-304c0 -22 7 -28 25 -30l36 -4v-19zM172 -29l-24 17l392 665l24 -14zM465 188v1c0 14 6 19 18 19c14 0 38 -7 57 -7c35 0 37 35 37 67c0 35 -11 72 -43 72c-23 0 -42 -16 -54 -67
c-4 -18 -8 -27 -26 -27c-20 0 -40 12 -40 36c0 38 46 78 134 78c61 0 125 -21 125 -89c0 -54 -47 -69 -92 -78v-3c49 -5 109 -23 109 -88c0 -58 -35 -109 -151 -109c-67 0 -132 28 -132 75c0 22 20 40 41 40c19 0 25 -11 29 -26c18 -59 41 -69 64 -69c29 0 49 30 49 88
c0 62 -30 75 -50 75c-21 0 -45 -9 -56 -9c-13 0 -19 6 -19 21z" />
    <glyph glyph-name="twothirds" unicode="&#x2154;" horiz-adv-x="744" 
d="M299 279h-267l-5 6c3 52 45 102 113 146c64 42 70 83 70 117s-9 71 -46 71c-36 0 -52 -40 -60 -87c-4 -19 -10 -27 -31 -27c-19 0 -41 13 -41 42c0 43 54 92 144 92c81 0 132 -35 132 -107c0 -66 -47 -87 -102 -112c-50 -22 -108 -41 -127 -70h188c21 0 30 21 45 49
l16 -6zM192 -29l-24 17l392 665l24 -14zM480 188v1c0 14 6 19 18 19c14 0 38 -7 57 -7c35 0 37 35 37 67c0 35 -11 73 -43 73c-23 0 -42 -17 -54 -68c-4 -18 -8 -27 -26 -27c-20 0 -40 12 -40 36c0 38 47 78 134 78c61 0 125 -21 125 -89c0 -54 -47 -69 -92 -78v-3
c49 -5 109 -23 109 -88c0 -58 -35 -109 -151 -109c-68 0 -132 28 -132 75c0 22 19 40 42 40c17 0 23 -11 28 -26c17 -59 41 -69 64 -69c29 0 49 30 49 88c0 62 -31 75 -50 75c-21 0 -45 -9 -57 -9s-18 6 -18 21z" />
    <glyph glyph-name="one.superior" unicode="&#xb9;" 
d="M283 419h-213v19l36 4c19 3 25 8 25 31v238c0 19 -6 27 -19 28l-40 3v17l146 20l4 -3v-303c0 -23 7 -28 24 -31l37 -4v-19z" />
    <glyph glyph-name="two.superior" unicode="&#xb2;" 
d="M295 419h-266l-5 6c4 52 46 102 113 146c64 42 70 83 70 117s-9 71 -46 71c-35 0 -52 -40 -60 -87c-3 -19 -10 -27 -30 -27c-19 0 -41 13 -41 42c0 43 53 92 144 92c80 0 131 -35 131 -107c0 -66 -47 -87 -101 -112c-50 -22 -109 -41 -127 -70h186c22 0 31 21 46 49
l16 -6z" />
    <glyph glyph-name="three.superior" unicode="&#xb3;" 
d="M90 606v1c0 16 6 20 19 20s38 -7 57 -7c34 0 36 35 36 67c0 35 -10 72 -42 72c-24 0 -43 -16 -54 -67c-4 -17 -9 -27 -27 -27c-19 0 -40 11 -40 36c0 39 47 78 134 78c62 0 126 -20 126 -90c0 -54 -46 -68 -92 -77v-3c49 -5 108 -24 108 -88c0 -58 -35 -108 -150 -108
c-68 0 -133 27 -133 73c0 23 19 40 42 40c18 0 24 -10 29 -26c16 -59 41 -68 63 -68c29 0 49 30 49 87c0 63 -30 75 -49 75c-22 0 -46 -9 -57 -9c-13 0 -19 6 -19 21z" />
    <glyph glyph-name="orn.001" unicode="&#xe04f;" horiz-adv-x="697" 
d="M332 94c8 25 1 46 -4 54c-36 63 -51 107 -51 175c0 103 62 171 176 196c32 7 110 23 144 43l7 -9c-61 -80 -175 -273 -242 -428c95 3 208 58 222 193c7 71 5 190 50 260h12c-13 -51 -13 -110 -9 -149c5 -39 6 -69 6 -111c0 -121 -96 -182 -220 -206
c-22 -4 -73 -15 -83 -24zM319 85l-13 -7c-29 44 -84 118 -184 118c-64 0 -77 -8 -102 -22l-3 9c25 44 78 69 133 69c91 0 132 -94 169 -167zM646 15l-5 -6c-50 32 -128 53 -195 53c-66 0 -95 -6 -117 -15c-36 -32 -50 -94 -39 -186l-11 -3c-6 21 -28 40 -41 48
c-7 5 -12 9 -8 22c10 35 53 104 83 136c50 21 118 31 171 31c57 0 132 -11 162 -80z" />
    <glyph glyph-name="orn.002" unicode="&#xe050;" horiz-adv-x="741" 
d="M238 224c-56 -3 -186 -26 -216 -33l-3 7l43 33l-8 26c41 -5 118 -14 176 -17c-11 13 -21 32 -21 56c0 44 34 83 128 83c76 0 165 -43 211 -66c69 -33 136 -59 174 -65v-3c-38 -31 -229 -144 -390 -144c-76 0 -109 31 -109 82c0 11 10 27 15 41zM338 294h-1
c-52 0 -85 -23 -85 -57c0 -29 24 -58 84 -58c86 0 165 39 197 57v4c-42 18 -128 54 -195 54z" />
    <glyph glyph-name="orn.003" unicode="&#xe051;" horiz-adv-x="778" 
d="M12 276c14 34 76 92 132 92c65 0 112 -31 174 -80c-3 11 -6 20 -6 36c0 39 34 80 88 80c70 0 87 -29 146 -95c48 -53 95 -79 156 -79c34 0 47 17 58 26l6 -5c-5 -23 -29 -49 -62 -64c-6 -2 -9 -4 -13 -8c-50 -81 -146 -110 -252 -110c-101 0 -192 54 -192 133
c0 38 13 53 55 62c-63 30 -130 49 -154 49c-36 0 -91 -9 -129 -46z" />
    <glyph glyph-name="orn.024" unicode="&#xe052;" horiz-adv-x="313" 
d="M217 240c37 -59 65 -162 71 -200h-1c-65 63 -165 143 -254 199v1c89 56 189 136 254 200l1 -1c-8 -36 -36 -147 -71 -199z" />
    <glyph glyph-name="orn.025" unicode="&#xe053;" horiz-adv-x="313" 
d="M104 240c-37 58 -65 161 -71 199l1 1c65 -64 165 -144 254 -200v-1c-89 -56 -189 -136 -254 -199h-1c8 36 36 147 71 200z" />
    <glyph glyph-name="orn.028" unicode="&#xe054;" horiz-adv-x="435" 
d="M309 239l53 -164l-281 164h228zM337 239l68 218l-1 1l-374 -218v-1l374 -219h1z" />
    <glyph glyph-name="orn.029" unicode="&#xe055;" horiz-adv-x="435" 
d="M127 239l-54 164l281 -164h-227zM98 239l-68 -218l1 -1l374 218v1l-374 219h-1z" />
    <glyph glyph-name="orn.030" unicode="&#xe056;" horiz-adv-x="669" 
d="M291 239l111 159l-324 -159h213zM648 215l-315 13l136 -207l-1 -1l-444 218v1l444 219l1 -1l-137 -207l316 12v-47z" />
    <glyph glyph-name="orn.031" unicode="&#xe057;" horiz-adv-x="669" 
d="M381 239l-111 -159l324 159h-213zM24 263l316 -13l-137 207l1 1l444 -218v-1l-444 -219l-1 1l137 207l-316 -12v47z" />
    <glyph glyph-name="uni2190" unicode="&#x2190;" horiz-adv-x="482" 
d="M457 209h-347l161 -144l-27 -35l-219 200v1l219 200l27 -35l-161 -144h347v-43z" />
    <glyph glyph-name="uni2192" unicode="&#x2192;" horiz-adv-x="482" 
d="M25 252h347l-160 144l27 35l218 -200v-1l-218 -200l-27 35l160 144h-347v43z" />
    <glyph glyph-name="uni2190.alt2" unicode="&#xe063;" horiz-adv-x="425" 
d="M400 211h-174v-160l-1 -1l-200 179v1l200 181l1 -1v-160h174v-39z" />
    <glyph glyph-name="uni2192.alt2" unicode="&#xe065;" horiz-adv-x="425" 
d="M25 250h175v160v1l200 -179v-1l-200 -181v1v160h-175v39z" />
    <glyph glyph-name="uni25C0" unicode="&#x25c0;" horiz-adv-x="409" 
d="M359 383c0 0 -1 -310 0 -310h-1l-324 153v1l324 157z" />
    <glyph glyph-name="uni25B6" unicode="&#x25b6;" horiz-adv-x="409" 
d="M50 74c0 0 1 310 0 310h1l324 -153v-1l-324 -157z" />
    <glyph glyph-name="uni2190.alt1" unicode="&#xe062;" horiz-adv-x="668" 
d="M643 214l-439 10c45 -41 77 -119 78 -181l-1 -1c-65 87 -154 156 -256 193v2c100 37 194 107 256 193l1 -1c0 -66 -38 -132 -78 -182l439 10v-43z" />
    <glyph glyph-name="uni2192.alt1" unicode="&#xe064;" horiz-adv-x="668" 
d="M25 258l439 -10c-45 41 -77 119 -78 181l1 1c65 -87 154 -156 256 -193v-2c-100 -37 -194 -107 -256 -193l-1 1c0 66 38 132 78 182l-439 -10v43z" />
    <glyph glyph-name="uni25C1" unicode="&#x25c1;" horiz-adv-x="409" 
d="M322 132v197l-208 -100zM359 385c0 0 -1 -310 0 -310h-1l-324 153v1l324 157z" />
    <glyph glyph-name="uni25B7" unicode="&#x25b7;" horiz-adv-x="409" 
d="M86 329l1 -197l207 100zM50 76c0 0 1 310 0 310h1l324 -153v-1l-324 -157z" />
    <glyph glyph-name="orn.032" unicode="&#xe058;" horiz-adv-x="560" 
d="M407 173v-1c0 -51 -66 -101 -121 -101c-38 0 -61 8 -113 57c-41 40 -119 105 -147 123v1c11 11 24 15 31 17c86 97 156 135 210 135c66 0 94 -43 94 -110h-11c-13 28 -38 57 -91 57c-59 0 -104 -10 -171 -80c24 1 170 2 280 2c21 -26 39 -63 39 -100zM397 274
c26 2 99 10 135 23l1 -2l-18 -48l-106 8z" />
    <glyph glyph-name="orn.033" unicode="&#xe059;" horiz-adv-x="560" 
d="M152 301v1c0 52 66 102 120 102c39 0 62 -7 114 -57c41 -40 119 -104 147 -123v-1c-11 -11 -24 -15 -31 -17c-87 -97 -157 -135 -211 -135c-66 0 -94 43 -94 110h11c14 -28 39 -57 91 -57c60 0 105 9 171 80c-23 -1 -169 -2 -280 -2c-20 26 -38 63 -38 99zM162 201
c-26 -2 -99 -10 -135 -23l-1 2l18 48l105 -8z" />
    <glyph glyph-name="orn.034" unicode="&#xe05a;" horiz-adv-x="356" 
d="M50 315l58 57h198v-207l-55 -57h-201v207zM81 307v-168h161v168h-161z" />
    <glyph glyph-name="orn.035" unicode="&#xe05b;" horiz-adv-x="512" 
d="M229 458h54l-16 -194l126 149l38 -39l-149 -126l195 17v-55l-195 17l149 -126l-38 -39l-126 149l16 -194h-54l16 194l-126 -149l-39 39l149 126l-194 -17v55l194 -17l-149 126l39 39l126 -149z" />
    <glyph glyph-name="orn.036" unicode="&#xe05c;" horiz-adv-x="495" 
d="M227 338v112h39v-112h-39zM227 25v112h39v-112h-39zM348 257h112v-39h-112v39zM35 257h112v-39h-112v39zM162 294l-79 79l28 28l79 -79zM384 73l-80 79l28 28l79 -80zM305 322l79 80l28 -28l-80 -79zM83 101l80 79l27 -27l-79 -80zM248 309h1c39 0 70 -32 70 -72
s-31 -72 -71 -72s-71 32 -71 72s31 72 71 72z" />
    <glyph glyph-name="orn.037" unicode="&#xe05d;" horiz-adv-x="478" 
d="M245 447l21 -145l117 88l9 -9l-89 -117l145 -20v-13l-145 -20l89 -117l-9 -9l-117 88l-21 -145h-12l-22 144l-115 -87l-9 9l86 115l-143 22v13l145 20l-88 117l9 9l117 -88l20 145h12z" />
    <glyph glyph-name="uni25C9" unicode="&#x25c9;" horiz-adv-x="331" 
d="M166 376h1c72 0 129 -60 129 -133s-57 -133 -130 -133c-74 0 -131 59 -131 133s57 133 131 133zM166 340h-1c-51 0 -88 -45 -88 -97c0 -53 37 -97 89 -97s88 45 88 97s-36 97 -88 97zM166 295h-1c-28 0 -48 -24 -48 -52c0 -29 20 -53 49 -53c28 0 48 25 48 53
s-20 52 -48 52z" />
    <glyph glyph-name="uni25C6" unicode="&#x25c6;" horiz-adv-x="335" 
d="M29 236l137 137l140 -141l-137 -137z" />
    <glyph glyph-name="uni25A0" unicode="&#x25a0;" horiz-adv-x="285" 
d="M45 334h195v-200h-195v200z" />
    <glyph glyph-name="orn.038" unicode="&#xe05e;" horiz-adv-x="564" 
d="M414 479c15 18 83 46 111 52l4 -5c-122 -133 -259 -323 -384 -526h-10c-33 27 -100 163 -100 195c5 9 41 42 56 48h2c9 -50 41 -145 54 -176c37 69 188 316 267 412z" />
    <glyph glyph-name="uni2610" unicode="&#x2610;" horiz-adv-x="687" 
d="M101 542h498v-506l-38 -36h-495v509zM88 503v-480h468v480h-468z" />
    <glyph glyph-name="uni2611" unicode="&#x2611;" horiz-adv-x="687" 
d="M101 542h498v-506l-38 -36h-495v509zM88 503v-480h468v480h-468zM427 439c12 16 51 32 79 35v-2c-87 -95 -174 -285 -238 -412h-1c-23 19 -109 170 -109 195c6 13 31 36 43 39h1c7 -36 50 -139 70 -176c26 66 105 254 155 321z" />
    <glyph glyph-name="egrave.superior" unicode="&#xe046;" horiz-adv-x="313" 
d="M259 395h-142c1 -52 17 -106 76 -106c37 0 62 16 80 55l13 -8c-13 -39 -49 -82 -120 -82c-112 0 -139 67 -139 137s33 138 137 138c120 0 124 -83 124 -107c0 -21 -11 -27 -29 -27zM117 415h66c14 0 18 5 18 17c0 35 -6 78 -40 78c-35 0 -43 -57 -44 -95zM166 557l-68 60
c-17 15 -25 25 -25 36c0 14 20 32 38 32c14 0 18 -12 31 -39l35 -80z" />
    <glyph glyph-name="g.superior" unicode="&#xe04b;" horiz-adv-x="323" 
d="M237 510l72 17l4 -4l-13 -34l-42 -1c9 -9 18 -32 18 -52c0 -68 -59 -90 -124 -90c-7 0 -21 1 -33 2c-7 -1 -18 -9 -18 -19c0 -11 7 -24 40 -24h53c61 0 112 -21 112 -90c0 -41 -21 -71 -51 -87c-28 -16 -64 -24 -98 -24c-80 0 -136 27 -136 84c0 38 42 45 65 51v1
c-24 4 -51 25 -51 57c0 24 27 45 64 54v1c-33 6 -71 30 -71 83c0 44 29 94 128 94c30 0 63 -8 81 -19zM155 513h-1c-23 0 -44 -21 -44 -77c0 -46 18 -74 44 -74c28 0 45 28 45 74c0 53 -20 77 -44 77zM168 121h1c38 0 73 20 73 64c0 36 -28 50 -81 50c-26 0 -51 -1 -59 -7
c-10 -7 -18 -19 -18 -35c0 -47 32 -72 84 -72z" />
    <glyph glyph-name="Euro.oldstyle" unicode="&#xe013;" horiz-adv-x="502" 
d="M204 338h200v-26h-202v-67h202v-25h-200c5 -90 27 -186 122 -186c43 0 96 14 126 93l19 -9c-24 -80 -75 -128 -170 -128c-184 0 -221 113 -229 230h-38v25h36c0 20 0 47 2 67h-38v26h40c20 145 96 213 236 213c98 0 158 -44 158 -98c0 -23 -19 -40 -37 -40
c-16 0 -22 6 -27 23c-11 35 -36 93 -95 93c-61 0 -96 -61 -105 -191z" />
    <glyph glyph-name="colonmonetary.oldstyle" unicode="&#xe042;" horiz-adv-x="496" 
d="M455 126c-21 -91 -108 -126 -143 -125l-10 -80h-23l10 81c-19 0 -42 -2 -57 1l-10 -82h-24l11 86c-103 25 -166 90 -166 255c0 152 65 274 230 279l7 61h23l-6 -60c10 0 37 -1 54 -4l7 64h24l-10 -70c25 -5 83 -27 83 -65c0 -29 -21 -37 -32 -37c-12 0 -15 2 -21 16
c-10 22 -21 40 -34 53l-52 -463c49 4 92 21 123 98zM217 68l52 451c-87 -18 -102 -157 -102 -246c0 -69 8 -154 50 -205zM292 37l55 475c-15 7 -34 9 -53 9l-55 -469c15 -9 34 -12 53 -15z" />
    <glyph glyph-name="florin.oldstyle" unicode="&#xe04a;" horiz-adv-x="508" 
d="M417 295h-114l-22 -165c-22 -166 -90 -279 -204 -279c-76 0 -108 34 -108 64c0 31 28 54 56 54c22 0 25 -13 31 -29c21 -54 30 -65 42 -65c15 0 21 5 28 46c11 73 32 245 46 374h-83v26h87l7 43c12 80 50 235 202 235c79 0 102 -40 102 -68c0 -29 -29 -46 -52 -46
c-20 0 -27 10 -31 24c-11 39 -25 67 -43 67c-19 0 -27 -19 -36 -91c-7 -52 -11 -97 -19 -164h111v-26z" />
    <glyph glyph-name="numbersign.oldstyle" unicode="&#xe04e;" horiz-adv-x="488" 
d="M312 305h-113l-25 -97h114zM445 305h-102l-26 -97h102l-13 -63h-103l-45 -183h-31l47 183h-114l-46 -183h-31l46 183h-101l15 63h100l25 97h-101l16 63h100l42 171h30l-42 -171h114l42 171h30l-42 -171h101z" />
    <glyph glyph-name="sterling.oldstyle" unicode="&#xe060;" horiz-adv-x="499" 
d="M426 0h-398l-4 7l20 45c80 24 75 90 75 125c0 19 -8 63 -14 84h-76v25h68c-7 33 -12 60 -12 95c0 83 54 170 188 170c120 0 149 -59 149 -94c0 -29 -30 -53 -55 -53c-21 0 -29 9 -34 24c-17 61 -34 102 -76 102c-37 0 -53 -34 -53 -89c0 -44 16 -102 25 -155h131v-25
h-126c1 -61 -20 -121 -107 -167v-2h246c48 0 53 25 80 68l18 -8z" />
    <glyph glyph-name="yen.oldstyle" unicode="&#xe067;" horiz-adv-x="495" 
d="M386 0h-270v22c68 5 73 8 73 35v114h-110v27h110v69h-110v27h105c-45 82 -74 140 -106 192c-12 19 -23 28 -39 30l-25 3v21h234v-23l-31 -5c-18 -2 -14 -10 -9 -22c26 -56 62 -135 86 -185h1c36 76 65 141 80 182c7 18 2 26 -15 27l-35 5v21h160v-21l-29 -4
c-22 -2 -34 -12 -48 -35c-15 -23 -53 -103 -94 -186h110v-27h-112v-69h112v-27h-112v-114c0 -27 3 -31 74 -35v-22z" />
    <glyph glyph-name="currency.taboldstyle" unicode="&#xe043;" horiz-adv-x="496" 
d="M247 448h1c37 0 78 -6 111 -35l50 66l46 -44l-59 -60c27 -35 33 -80 33 -123s-8 -83 -37 -119l65 -55l-51 -54l-51 70c-30 -28 -73 -39 -111 -39c-47 0 -89 12 -112 35l-49 -63l-46 47l56 53c-21 37 -33 67 -33 125c0 41 8 84 35 121l-62 61l46 47l53 -70
c29 24 70 37 115 37zM244 399h-1c-68 0 -117 -49 -117 -144c0 -93 46 -150 121 -150c67 0 116 42 116 147c0 91 -49 147 -119 147z" />
    <glyph glyph-name="Euro.fitted" unicode="&#xe012;" horiz-adv-x="512" 
d="M204 379h217v-27h-219v-66h219v-27h-217c5 -109 35 -226 137 -226c58 0 98 28 128 110l16 -9c-21 -88 -86 -145 -181 -145c-180 0 -225 121 -230 270h-49v27h47c0 21 0 45 1 66h-47l-1 27h51c18 174 96 259 239 259c136 0 165 -71 165 -103c0 -27 -21 -45 -48 -45
c-21 0 -26 11 -30 29c-21 68 -45 96 -90 96c-64 0 -98 -78 -108 -236z" />
    <glyph glyph-name="cent.fitted" unicode="&#xe040;" horiz-adv-x="512" 
d="M284 553v71h28v-71c79 0 161 -37 161 -95c0 -31 -29 -47 -51 -47c-20 0 -28 9 -35 31c-17 69 -49 87 -75 89v-397c48 0 116 4 153 106l17 -7c-34 -110 -110 -139 -170 -142v-89h-28v88c-171 0 -243 85 -243 230c0 161 107 228 243 233zM284 138v393
c-56 -3 -109 -46 -109 -188c0 -126 39 -189 109 -205z" />
    <glyph glyph-name="colonmonetary.fitted" unicode="&#xe041;" horiz-adv-x="512" 
d="M469 149c-29 -107 -102 -146 -159 -148l-11 -87h-28l11 88c-21 0 -31 -2 -48 1l-12 -89h-28l12 95c-125 35 -170 118 -170 296c0 179 67 314 245 322l8 71h26l-8 -70c17 -1 34 -2 47 -3l9 73h27l-10 -79c57 -15 96 -41 96 -77c0 -26 -19 -43 -38 -43c-13 0 -19 6 -26 21
c-8 20 -21 43 -37 59l-62 -542c65 3 109 38 136 117zM217 77l60 526c-71 -15 -107 -136 -107 -286c0 -90 5 -177 47 -240zM286 38l65 557c-12 6 -24 9 -47 10l-63 -550c14 -12 26 -14 45 -17z" />
    <glyph glyph-name="dollar.fitted" unicode="&#xe044;" horiz-adv-x="512" 
d="M238 393v212c-48 -3 -96 -23 -96 -104c0 -56 31 -86 96 -108zM266 605v-223c131 -49 203 -72 203 -196c0 -139 -128 -186 -203 -186v-86h-28v86c-154 0 -199 81 -199 115c0 37 32 56 55 56c20 0 29 -8 34 -27c23 -108 89 -117 110 -120v233c-123 44 -194 78 -194 193
c0 117 91 174 194 178v74h28v-74c122 -3 175 -61 175 -100c0 -40 -34 -50 -51 -50c-19 0 -30 6 -33 24c-16 80 -64 98 -91 103zM266 247v-223c50 -1 98 26 98 108c0 64 -36 91 -98 115z" />
    <glyph glyph-name="florin.fitted" unicode="&#xe049;" horiz-adv-x="512" 
d="M424 343h-122l-27 -198c-20 -154 -86 -281 -206 -281c-78 0 -104 34 -104 64c0 29 24 51 48 51c20 0 24 -9 31 -26c15 -35 34 -64 49 -64c11 0 21 5 28 46c11 74 35 279 50 408h-88v26h92l11 69c13 84 51 228 201 228c86 0 104 -44 104 -69s-24 -45 -49 -45
c-18 0 -23 10 -28 25c-13 44 -21 65 -43 65c-18 0 -32 -20 -39 -76c-10 -61 -19 -134 -26 -197h118v-26z" />
    <glyph glyph-name="numbersign.fitted" unicode="&#xe04d;" horiz-adv-x="512" 
d="M320 374h-112l-24 -95h112zM450 374h-100l-25 -95h100l-13 -62h-100l-45 -182h-31l46 182h-113l-44 -182h-32l45 182h-98l15 62h97l25 95h-99l15 61h99l41 168h30l-41 -168h112l42 168h30l-41 -168h99z" />
    <glyph glyph-name="sterling.fitted" unicode="&#xe05f;" horiz-adv-x="512" 
d="M445 0h-412l-7 8l19 53c74 24 75 86 75 135c0 27 -11 77 -17 108h-76v27h68c-7 30 -14 77 -14 119c0 93 56 188 200 188c130 0 164 -67 164 -103c0 -31 -28 -51 -53 -51c-21 0 -29 10 -33 26c-23 77 -45 105 -90 105c-43 0 -69 -32 -69 -115c0 -41 13 -109 24 -169h140
v-27h-135c4 -96 -25 -153 -106 -205v-2h269c48 0 57 26 83 77l18 -8z" />
    <glyph glyph-name="yen.fitted" unicode="&#xe066;" horiz-adv-x="512" 
d="M392 0h-276v20c70 6 75 8 75 41v150h-115v27h115v75h-115v27h106c-48 94 -72 182 -113 232c-10 22 -23 32 -39 34l-25 3v19h251v-22l-43 -4c-18 -1 -15 -14 -9 -26c33 -74 66 -148 98 -222h3c37 88 67 163 85 218c7 21 2 29 -15 31l-48 6v19h178v-19l-30 -4
c-22 -2 -35 -14 -48 -39c-24 -46 -64 -140 -102 -226h110v-27h-118v-75h118v-27h-118v-150c0 -30 5 -35 75 -41v-20z" />
    <glyph glyph-name="uni0394" unicode="&#x394;" horiz-adv-x="630" 
d="M26 0v24c11 29 169 433 241 636h84l249 -633v-27h-574zM433 82c-12 36 -176 473 -176 473h-2l-165 -472c-8 -24 -7 -34 24 -34h290c28 0 38 3 29 33z" />
    <glyph glyph-name="uni03A9" unicode="&#x3a9;" horiz-adv-x="762" 
d="M349 0h-297l-19 172h23c25 -62 41 -77 67 -77h142v8c-111 39 -196 113 -196 274c0 209 128 298 318 298c203 0 311 -93 311 -295c0 -154 -81 -231 -204 -278v-7h147c26 0 48 6 68 77h22l-20 -172h-294l1 72c114 46 134 156 134 300c0 161 -47 279 -169 279
c-116 0 -167 -109 -167 -276c0 -127 29 -267 133 -303v-72z" />
    <glyph glyph-name="uni2215" unicode="&#x2215;" horiz-adv-x="105" 
d="M-140 -29l-24 16l391 666l25 -15z" />
    <glyph glyph-name="dollar.oldstyle" unicode="&#xf724;" horiz-adv-x="478" 
d="M250 491v-170c101 -30 189 -43 189 -161c-1 -121 -115 -160 -189 -160v-73h-28v73c-147 3 -190 72 -190 100c0 36 28 56 56 56c22 0 27 -15 35 -36c28 -76 71 -97 99 -100v182c-105 30 -181 51 -181 158c0 110 99 151 181 153v66h28v-66c124 -2 170 -62 169 -93
c1 -31 -24 -48 -45 -48c-24 0 -29 8 -35 29c-19 70 -67 88 -89 90zM222 330v161c-43 0 -83 -25 -83 -80c0 -51 40 -69 83 -81zM250 194v-174c44 0 88 19 88 87c0 53 -41 72 -88 87z" />
    <glyph glyph-name="dollar.superior" unicode="&#xf6e4;" horiz-adv-x="350" 
d="M184 756v-117c72 -21 135 -30 135 -110c0 -84 -83 -110 -135 -110v-56h-23v56c-98 1 -134 46 -134 70c0 22 27 40 47 40c13 0 18 -8 23 -25c15 -48 49 -67 64 -67v121c-107 25 -130 58 -130 112c0 69 59 102 130 104v44h23v-44c92 -3 119 -42 119 -65
c0 -21 -22 -34 -39 -34c-14 0 -21 5 -25 20c-15 51 -39 60 -55 61zM161 647v109c-31 0 -55 -19 -55 -53c0 -32 20 -47 55 -56zM184 551v-114c33 0 60 17 60 55c0 33 -24 49 -60 59z" />
    <glyph glyph-name="parenleft.superior" unicode="&#x207d;" horiz-adv-x="235" 
d="M50 572v1c0 40 7 94 31 138c19 34 59 79 125 79l3 -13c-67 -16 -95 -116 -95 -205c0 -88 28 -186 95 -204l-3 -13c-62 0 -101 28 -126 73c-24 44 -30 98 -30 144z" />
    <glyph glyph-name="parenright.superior" unicode="&#x207e;" horiz-adv-x="235" 
d="M188 572v-1c0 -39 -7 -93 -30 -136c-19 -35 -60 -80 -126 -80l-3 13c67 17 96 116 96 204s-29 187 -96 204l3 14c61 -1 102 -29 126 -74c24 -43 30 -97 30 -144z" />
    <glyph glyph-name="zero.oldstyle" unicode="&#xf730;" horiz-adv-x="538" 
d="M269 -11h-1c-157 0 -231 89 -231 245c0 155 74 245 232 245c159 0 232 -90 232 -245c0 -156 -73 -245 -232 -245zM269 456h-1c-68 0 -99 -93 -99 -222c0 -139 31 -223 100 -223c70 0 100 88 100 223c0 133 -30 222 -100 222z" />
    <glyph glyph-name="one.oldstyle" unicode="&#xf731;" horiz-adv-x="346" 
d="M328 0h-297v20l52 6c24 2 34 10 34 39v318c0 32 -8 42 -31 44l-52 5v15l205 32l4 -3v-411c0 -30 12 -37 33 -39l52 -6v-20z" />
    <glyph glyph-name="two.oldstyle" unicode="&#xf732;" horiz-adv-x="478" 
d="M415 0h-383l-4 6c8 73 66 137 168 186c78 37 95 83 95 146c0 68 -21 118 -73 118c-59 0 -77 -41 -92 -136c-4 -20 -14 -29 -38 -29c-21 0 -54 12 -54 55c0 65 75 133 198 133c113 0 194 -44 194 -149c0 -94 -71 -132 -172 -157c-97 -25 -135 -49 -147 -75h344l2 -5z" />
    <glyph glyph-name="three.oldstyle" unicode="&#xf733;" horiz-adv-x="480" 
d="M219 -114h-1c-168 0 -189 79 -189 111c0 30 28 50 52 50c23 0 31 -14 38 -39c23 -84 63 -100 100 -100c57 0 85 65 85 150c0 102 -39 129 -91 129c-31 0 -53 -10 -73 -10c-18 0 -27 3 -27 23c0 22 9 24 27 24c20 0 43 -11 73 -11c66 0 71 56 71 123c0 43 -11 120 -68 120
c-51 0 -69 -39 -87 -108c-5 -22 -15 -34 -37 -34c-28 0 -52 22 -52 47c0 50 69 118 185 118c81 0 188 -20 188 -143c0 -87 -84 -118 -143 -127v-8c63 -7 169 -20 169 -138c0 -107 -78 -177 -220 -177z" />
    <glyph glyph-name="four.oldstyle" unicode="&#xf734;" horiz-adv-x="481" 
d="M255 72h-229l-8 24c37 60 213 315 263 372h98v-358h82v-38h-82v-171l-124 -1v172zM67 110h188v286h-2c-51 -74 -146 -213 -186 -286z" />
    <glyph glyph-name="five.oldstyle" unicode="&#xf735;" horiz-adv-x="478" 
d="M397 363h-257c-21 0 -25 -5 -28 -23l-25 -168l1 -1c43 45 109 70 167 70c145 0 180 -77 180 -161c0 -104 -59 -194 -223 -194c-148 0 -178 75 -178 108c0 37 30 50 50 50c23 0 28 -13 35 -38c24 -84 62 -98 99 -98c50 0 86 58 86 153c0 99 -49 131 -110 131
c-54 0 -84 -18 -112 -55l-20 12l36 316l5 3h111c192 -3 203 2 216 8l5 -3z" />
    <glyph glyph-name="six.oldstyle" unicode="&#xf736;" horiz-adv-x="523" 
d="M447 573l-5 -15c-19 3 -41 5 -69 5c-111 0 -201 -92 -202 -263h2c32 33 86 74 156 73c90 -1 157 -51 157 -173c0 -109 -60 -211 -221 -211c-154 0 -223 82 -223 259c0 202 115 345 316 345c42 0 72 -8 89 -20zM268 325h-1c-43 0 -74 -19 -87 -55c-5 -15 -8 -35 -8 -54
c0 -103 32 -205 100 -205s87 82 87 160c1 102 -41 154 -91 154z" />
    <glyph glyph-name="seven.oldstyle" unicode="&#xf737;" horiz-adv-x="464" 
d="M55 468h390l3 -4c-12 -74 -47 -141 -128 -264c-36 -55 -66 -132 -65 -211c1 -16 2 -34 6 -50c10 -44 -19 -53 -62 -53c-30 0 -59 14 -59 66c0 87 82 173 138 243c74 90 95 139 104 168h-273c-31 0 -40 -15 -73 -74l-19 7z" />
    <glyph glyph-name="eight.oldstyle" unicode="&#xf738;" horiz-adv-x="511" 
d="M256 295h-1c-56 0 -87 -43 -87 -134c0 -93 30 -150 88 -150c62 0 87 59 87 150c0 88 -33 134 -87 134zM256 -11h-1c-113 0 -217 41 -217 174c0 99 62 132 132 150v1c-68 17 -113 50 -113 129c0 110 99 149 199 149c99 0 198 -38 198 -149c0 -79 -48 -113 -114 -128v-3
c66 -15 134 -50 134 -149c0 -134 -104 -174 -218 -174zM256 322h1c55 0 74 51 74 120c0 81 -21 127 -75 127c-46 0 -76 -37 -76 -127c0 -73 22 -120 76 -120z" />
    <glyph glyph-name="nine.oldstyle" unicode="&#xf739;" horiz-adv-x="510" 
d="M249 479h1c163 0 218 -104 218 -264c0 -184 -85 -329 -282 -329c-48 0 -91 9 -118 27l4 16c21 -5 45 -8 68 -8c126 0 189 79 198 244l-2 1c-30 -33 -80 -63 -131 -63c-97 0 -168 53 -168 179c0 107 69 197 212 197zM166 302v-1c0 -65 24 -152 95 -152c26 0 53 13 64 35
c7 15 14 28 14 80c0 110 -31 192 -92 192c-58 0 -81 -59 -81 -154z" />
    <glyph glyph-name="comma.superior" unicode="&#xf6e2;" horiz-adv-x="161" 
d="M23 357c23 33 31 61 31 109c0 12 -7 32 -13 44c7 8 53 25 69 23c10 -10 19 -31 19 -43c0 -49 -40 -104 -85 -147z" />
    <glyph glyph-name="uni2014.alt" unicode="&#xe061;" horiz-adv-x="654" 
d="M38 263h579v-61h-579v61z" />
    <glyph glyph-name="period.superior" unicode="&#xf6e8;" horiz-adv-x="161" 
d="M81 408h-1c-30 0 -48 24 -48 52c0 27 18 51 49 51c32 0 48 -24 48 -51c0 -28 -16 -52 -48 -52z" />
    <glyph glyph-name="a.superior" unicode="&#xf6e9;" horiz-adv-x="326" 
d="M271 446v-115c0 -38 7 -48 43 -47l1 -13c-20 -9 -44 -17 -79 -17c-32 0 -38 16 -45 34c-26 -14 -48 -34 -82 -34c-59 0 -82 38 -82 78c0 28 10 49 54 64c37 12 86 24 109 36v34c0 28 -11 43 -36 43c-22 0 -37 -21 -51 -61c-6 -16 -11 -22 -25 -22c-18 0 -40 10 -40 35
c0 27 48 68 122 68c102 0 111 -49 111 -83zM190 325v89c-15 -6 -25 -11 -41 -19c-21 -10 -33 -27 -33 -54c0 -31 17 -51 41 -51c16 0 33 6 33 35z" />
    <glyph glyph-name="b.superior" unicode="&#xf6ea;" horiz-adv-x="359" 
d="M61 254l-8 5v340c0 21 -4 25 -15 28l-20 4v13l119 14l2 -2v-165c27 19 52 38 85 38c72 0 108 -51 108 -129c0 -116 -62 -146 -149 -146c-37 0 -65 10 -85 20zM139 438v-104c0 -38 19 -60 47 -60c39 0 55 50 55 115c0 82 -30 106 -54 106c-25 0 -48 -12 -48 -57z" />
    <glyph glyph-name="cent.superior" unicode="&#xf6e0;" horiz-adv-x="350" 
d="M208 462v-56h-25v56c-125 1 -153 64 -153 133c0 84 48 136 154 139v45h24v-45c44 -2 110 -18 110 -63c0 -20 -23 -31 -37 -31c-15 0 -18 7 -23 23c-11 40 -30 53 -50 53v-227c34 0 73 7 98 62l12 -6c-19 -53 -59 -79 -110 -83zM183 492v224c-24 -2 -60 -28 -60 -111
c0 -54 16 -105 60 -113z" />
    <glyph glyph-name="d.superior" unicode="&#xf6eb;" horiz-adv-x="362" 
d="M348 260h-123v28c-32 -25 -60 -34 -84 -34c-76 0 -114 48 -114 134c0 94 64 142 153 142c19 0 33 -2 45 -6v74c0 22 -4 27 -14 28l-27 4v14l123 13l3 -2v-351c0 -22 4 -26 38 -28v-16zM225 337v114c0 54 -25 60 -45 60c-33 0 -59 -40 -59 -114c0 -66 27 -109 63 -109
c28 0 41 19 41 49z" />
    <glyph glyph-name="e.superior" unicode="&#xf6ec;" horiz-adv-x="313" 
d="M259 395h-142c1 -52 17 -106 76 -106c37 0 62 16 80 55l13 -8c-13 -39 -49 -82 -120 -82c-112 0 -139 67 -139 137s33 138 137 138c120 0 124 -83 124 -107c0 -21 -11 -27 -29 -27zM117 415h66c14 0 18 5 18 17c0 35 -6 78 -40 78c-35 0 -43 -57 -44 -95z" />
    <glyph glyph-name="i.superior" unicode="&#xf6ed;" horiz-adv-x="197" 
d="M99 644h1c27 0 41 -18 41 -42c0 -25 -15 -42 -42 -42c-28 0 -43 17 -43 42c0 24 15 42 43 42zM56 304v166c0 20 -4 25 -14 27l-20 5v13l116 14l3 -3v-222c0 -21 5 -25 38 -27v-17h-161v17c34 2 38 6 38 27z" />
    <glyph glyph-name="l.superior" unicode="&#xf6ee;" horiz-adv-x="198" 
d="M141 657v-353c0 -22 4 -26 38 -28v-16h-161v16c34 2 38 6 38 28v295c0 20 -4 25 -14 27l-20 5v13l116 14z" />
    <glyph glyph-name="m.superior" unicode="&#xf6ef;" horiz-adv-x="534" 
d="M515 260h-147v17c21 3 29 5 29 24v144c0 33 -14 46 -45 46c-23 0 -42 -21 -42 -50v-137c0 -21 3 -25 37 -27v-17h-148v17c21 3 29 5 29 24v144c0 33 -12 46 -43 46c-25 0 -44 -10 -44 -56v-134c0 -19 9 -21 29 -24v-17h-152v17c35 2 38 6 38 27v166c0 21 -4 25 -14 27
l-17 5v13l108 14l8 -40c35 24 55 40 90 40c44 0 63 -18 73 -43c33 24 62 43 96 43c60 0 77 -35 77 -86v-139c0 -21 5 -25 38 -27v-17z" />
    <glyph glyph-name="n.superior" unicode="&#x207f;" horiz-adv-x="370" 
d="M313 444v-140c0 -21 4 -25 37 -27v-17h-147v17c21 3 29 5 29 24v144c0 34 -14 47 -45 47c-23 0 -46 -11 -46 -57v-134c0 -19 9 -21 29 -24v-17h-152v17c34 2 38 6 38 27v167c0 21 -4 24 -14 27l-17 5v12l108 14l8 -40c35 24 59 40 94 40c61 0 78 -35 78 -85z" />
    <glyph glyph-name="o.superior" unicode="&#xf6f0;" horiz-adv-x="343" 
d="M171 529h1c108 0 144 -57 144 -137c0 -81 -36 -138 -145 -138c-108 0 -144 57 -144 138c0 79 37 137 144 137zM170 509h-1c-37 0 -50 -37 -50 -117c0 -78 13 -119 53 -119c39 0 51 37 51 119c0 85 -18 117 -53 117z" />
    <glyph glyph-name="r.superior" unicode="&#xf6f1;" horiz-adv-x="267" 
d="M132 529l8 -52c28 29 49 52 74 52c23 0 39 -13 39 -40c0 -29 -21 -50 -41 -50c-11 0 -15 3 -24 11c-13 13 -23 21 -32 21c-11 0 -15 -13 -15 -39v-128c0 -22 5 -25 50 -27v-17h-173v17c34 2 38 5 38 27v166c0 21 -4 25 -14 27l-20 5v13z" />
    <glyph glyph-name="s.superior" unicode="&#xf6f2;" horiz-adv-x="278" 
d="M231 435h-13c-14 39 -44 75 -73 75s-47 -11 -47 -32c0 -22 19 -32 67 -50c51 -19 86 -35 86 -85c0 -58 -44 -89 -121 -89c-37 0 -72 10 -96 26l-7 84h15c18 -47 55 -91 94 -91c23 0 42 12 42 36c0 23 -23 36 -64 51c-48 17 -84 37 -84 81c0 57 42 88 115 88
c26 0 62 -7 86 -21v-73z" />
    <glyph glyph-name="t.superior" unicode="&#xf6f3;" horiz-adv-x="215" 
d="M54 322v177h-35v23h36l53 69h30v-69h59v-23h-59v-158c0 -35 13 -50 34 -50c13 0 22 2 31 6l4 -14c-30 -19 -54 -29 -86 -29c-33 0 -67 18 -67 68z" />
    <glyph glyph-name="parenleft.inferior" unicode="&#x208d;" horiz-adv-x="235" 
d="M50 35v1c0 40 7 94 31 138c19 34 59 79 125 79l3 -13c-67 -16 -95 -116 -95 -205c0 -88 28 -186 95 -204l-3 -13c-62 0 -101 28 -126 73c-24 44 -30 98 -30 144z" />
    <glyph glyph-name="parenright.inferior" unicode="&#x208e;" horiz-adv-x="235" 
d="M188 35v-1c0 -39 -7 -93 -30 -136c-19 -35 -60 -80 -126 -80l-3 13c67 17 96 116 96 204s-29 187 -96 204l3 14c61 -1 102 -29 126 -74c24 -43 30 -97 30 -144z" />
    <glyph glyph-name="hyphen.superior" unicode="&#xf6e6;" horiz-adv-x="220" 
d="M34 615h148v-44h-148v44z" />
    <glyph glyph-name="R_p" unicode="&#xf6dd;" horiz-adv-x="1009" 
d="M565 0h-65c-77 0 -118 20 -136 83c-13 44 -18 99 -25 129c-11 50 -35 76 -78 76h-34v-213c0 -47 6 -50 67 -53v-22h-261v22c62 3 68 6 68 53v462c0 47 -6 49 -68 52v22h264c149 0 197 -64 197 -153c0 -85 -54 -134 -147 -149v-4c96 -24 121 -82 134 -154
c9 -52 16 -84 31 -103c12 -14 29 -26 53 -26v330c0 34 -6 42 -20 43l-30 5v19l156 24l15 -62c38 30 82 62 135 62c93 0 148 -85 148 -212c0 -198 -103 -242 -222 -242c-24 0 -47 4 -61 11v-136c0 -39 7 -42 70 -45v-22h-246v22c50 3 55 6 55 45v136zM227 314h38
c83 0 98 57 98 134c0 92 -40 136 -96 136c-47 0 -40 -10 -40 -38v-232zM686 287v-166c0 -73 15 -109 67 -109c65 0 90 85 90 202c0 147 -49 178 -86 178c-40 0 -71 -26 -71 -105z" />
    <glyph glyph-name="cent.oldstyle" unicode="&#xf7a2;" horiz-adv-x="480" 
d="M266 457v65h28v-65c82 -4 150 -33 150 -90c0 -29 -24 -44 -45 -44c-19 0 -27 10 -34 29c-16 53 -46 81 -71 83v-368c50 0 111 16 145 100l14 -10c-22 -85 -108 -126 -159 -127v-76h-28v76c-166 1 -225 84 -225 212c0 142 93 210 225 215zM266 71v364
c-42 -1 -96 -37 -96 -174c0 -100 27 -176 96 -190z" />
    <glyph glyph-name="hyphen.inferior" unicode="&#xf6e5;" horiz-adv-x="220" 
d="M34 78h148v-44h-148v44z" />
    <glyph glyph-name="zero.superior" unicode="&#x2070;" 
d="M175 779h1c113 0 145 -81 145 -183c0 -104 -32 -183 -146 -183c-115 0 -147 79 -147 183c0 102 32 183 147 183zM174 759h-1c-41 0 -50 -70 -50 -163c0 -97 10 -164 53 -164c42 0 50 76 50 164c0 91 -12 163 -52 163z" />
    <glyph glyph-name="four.superior" unicode="&#x2074;" 
d="M171 518h-136l-9 18c31 53 109 170 161 238h71v-230h59v-26h-59v-52c0 -19 7 -24 20 -26l25 -3v-18h-186v18l34 4c12 1 20 6 20 25v52zM61 544h110v172h-2c-31 -44 -89 -137 -108 -172z" />
    <glyph glyph-name="five.superior" unicode="&#x2075;" 
d="M78 774h223l3 -4l-26 -69h-164c-17 0 -21 -4 -24 -21l-10 -81c20 17 69 37 109 37c78 0 124 -31 124 -101c0 -71 -36 -122 -150 -122c-65 0 -123 26 -123 72c0 23 21 41 44 41c16 0 23 -9 29 -27c14 -45 32 -67 56 -67c29 0 45 24 45 89c0 56 -24 82 -64 82
c-35 0 -61 -13 -75 -32l-16 15l16 184z" />
    <glyph glyph-name="six.superior" unicode="&#x2076;" 
d="M189 779h1c85 0 115 -39 115 -65c0 -22 -21 -35 -42 -35c-18 0 -25 13 -31 27c-11 34 -28 53 -52 53c-55 0 -56 -129 -56 -159c31 27 64 43 96 43c56 0 103 -27 103 -103c0 -72 -36 -127 -146 -127c-106 0 -148 61 -148 177c0 101 48 189 160 189zM180 432h1
c37 0 47 42 47 92c0 58 -24 83 -52 83c-29 0 -52 -21 -52 -68c0 -55 16 -107 56 -107z" />
    <glyph glyph-name="seven.superior" unicode="&#x2077;" 
d="M52 774h265l3 -4c-10 -47 -33 -98 -74 -159c-29 -41 -39 -86 -39 -149c0 -34 -5 -48 -42 -48c-27 0 -48 6 -48 46c0 49 43 99 82 140c44 46 64 68 73 99h-178c-22 0 -30 -11 -50 -50l-17 6z" />
    <glyph glyph-name="eight.superior" unicode="&#x2078;" 
d="M172 595h-1c-35 0 -51 -31 -51 -79c0 -57 22 -84 53 -84c33 0 53 23 53 84c0 47 -19 79 -54 79zM172 413h-1c-76 0 -147 28 -147 108c0 42 27 75 80 86v3c-43 9 -67 34 -67 76c0 69 70 93 135 93c69 0 136 -23 136 -93c0 -42 -27 -70 -67 -76v-3c55 -11 81 -43 81 -85
c0 -80 -72 -109 -150 -109zM173 759h-1c-29 0 -44 -27 -44 -74c0 -34 13 -70 44 -70c34 0 46 36 46 70c0 39 -11 74 -45 74z" />
    <glyph glyph-name="nine.superior" unicode="&#x2079;" 
d="M170 779h1c86 0 144 -42 144 -173c0 -109 -41 -193 -159 -193c-72 0 -121 26 -121 67c0 24 26 40 43 40c18 0 23 -11 31 -28c17 -41 36 -60 60 -60c44 0 51 92 52 160h-2c-21 -21 -55 -35 -83 -35c-57 0 -108 29 -108 102s43 120 142 120zM167 760h-1
c-26 0 -45 -28 -45 -86c0 -59 21 -84 52 -84c26 0 45 18 45 60c0 77 -20 110 -51 110z" />
    <glyph glyph-name="zero.inferior" unicode="&#x2080;" 
d="M175 242h1c113 0 145 -81 145 -183c0 -104 -32 -183 -146 -183c-115 0 -147 79 -147 183c0 102 32 183 147 183zM174 222h-1c-41 0 -50 -70 -50 -163c0 -97 10 -164 53 -164c42 0 50 76 50 164c0 91 -12 163 -52 163z" />
    <glyph glyph-name="one.inferior" unicode="&#x2081;" 
d="M283 -118h-213v19l36 4c19 3 25 8 25 31v238c0 19 -6 27 -19 28l-40 3v17l146 20l4 -3v-303c0 -23 7 -28 24 -31l37 -4v-19z" />
    <glyph glyph-name="two.inferior" unicode="&#x2082;" 
d="M295 -118h-266l-5 6c4 52 46 102 113 146c64 42 70 83 70 117s-9 71 -46 71c-35 0 -52 -40 -60 -87c-3 -19 -10 -27 -30 -27c-19 0 -41 13 -41 42c0 43 53 92 144 92c80 0 131 -35 131 -107c0 -66 -47 -87 -101 -112c-50 -22 -109 -41 -127 -70h186c22 0 31 21 46 49
l16 -6z" />
    <glyph glyph-name="three.inferior" unicode="&#x2083;" 
d="M90 69v1c0 16 6 20 19 20s38 -7 57 -7c34 0 36 35 36 67c0 35 -10 72 -42 72c-24 0 -43 -16 -54 -67c-4 -17 -9 -27 -27 -27c-19 0 -40 11 -40 36c0 39 47 78 134 78c62 0 126 -20 126 -90c0 -54 -46 -68 -92 -77v-3c49 -5 108 -24 108 -88c0 -58 -35 -108 -150 -108
c-68 0 -133 27 -133 73c0 23 19 40 42 40c18 0 24 -10 29 -26c16 -59 41 -68 63 -68c29 0 49 30 49 87c0 63 -30 75 -49 75c-22 0 -46 -9 -57 -9c-13 0 -19 6 -19 21z" />
    <glyph glyph-name="four.inferior" unicode="&#x2084;" 
d="M171 -19h-136l-9 18c31 53 109 170 161 238h71v-230h59v-26h-59v-52c0 -19 7 -24 20 -26l25 -3v-18h-186v18l34 4c12 1 20 6 20 25v52zM61 7h110v172h-2c-31 -44 -89 -137 -108 -172z" />
    <glyph glyph-name="five.inferior" unicode="&#x2085;" 
d="M78 237h223l3 -4l-26 -69h-164c-17 0 -21 -4 -24 -21l-10 -81c20 17 69 37 109 37c78 0 124 -31 124 -101c0 -71 -36 -122 -150 -122c-65 0 -123 26 -123 72c0 23 21 41 44 41c16 0 23 -9 29 -27c14 -45 32 -67 56 -67c29 0 45 24 45 89c0 56 -24 82 -64 82
c-35 0 -61 -13 -75 -32l-16 15l16 184z" />
    <glyph glyph-name="six.inferior" unicode="&#x2086;" 
d="M189 242h1c85 0 115 -39 115 -65c0 -22 -21 -35 -42 -35c-18 0 -25 13 -31 27c-11 34 -28 53 -52 53c-55 0 -56 -129 -56 -159c31 27 64 43 96 43c56 0 103 -27 103 -103c0 -72 -36 -127 -146 -127c-106 0 -148 61 -148 177c0 101 48 189 160 189zM180 -105h1
c37 0 47 42 47 92c0 58 -24 83 -52 83c-29 0 -52 -21 -52 -68c0 -55 16 -107 56 -107z" />
    <glyph glyph-name="seven.inferior" unicode="&#x2087;" 
d="M52 237h265l3 -4c-10 -47 -33 -98 -74 -159c-29 -41 -39 -86 -39 -149c0 -34 -5 -48 -42 -48c-27 0 -48 6 -48 46c0 49 43 99 82 140c44 46 64 68 73 99h-178c-22 0 -30 -11 -50 -50l-17 6z" />
    <glyph glyph-name="eight.inferior" unicode="&#x2088;" 
d="M172 58h-1c-35 0 -51 -31 -51 -79c0 -57 22 -84 53 -84c33 0 53 23 53 84c0 47 -19 79 -54 79zM172 -124h-1c-76 0 -147 28 -147 108c0 42 27 75 80 86v3c-43 9 -67 34 -67 76c0 69 70 93 135 93c69 0 136 -23 136 -93c0 -42 -27 -70 -67 -76v-3c55 -11 81 -43 81 -85
c0 -80 -72 -109 -150 -109zM173 222h-1c-29 0 -44 -27 -44 -74c0 -34 13 -70 44 -70c34 0 46 36 46 70c0 39 -11 74 -45 74z" />
    <glyph glyph-name="nine.inferior" unicode="&#x2089;" 
d="M170 242h1c86 0 144 -42 144 -173c0 -109 -41 -193 -159 -193c-72 0 -121 26 -121 67c0 24 26 40 43 40c18 0 23 -11 31 -28c17 -41 36 -60 60 -60c44 0 51 92 52 160h-2c-21 -21 -55 -35 -83 -35c-57 0 -108 29 -108 102s43 120 142 120zM167 223h-1
c-26 0 -45 -28 -45 -86c0 -59 21 -84 52 -84c26 0 45 18 45 60c0 77 -20 110 -51 110z" />
    <glyph glyph-name="cent.inferior" unicode="&#xf6df;" horiz-adv-x="350" 
d="M208 -75v-56h-25v56c-125 1 -153 64 -153 133c0 84 48 136 154 139v45h24v-45c44 -2 110 -18 110 -63c0 -20 -23 -31 -37 -31c-15 0 -18 7 -23 23c-11 40 -30 53 -50 53v-227c34 0 73 7 98 62l12 -6c-19 -53 -59 -79 -110 -83zM183 -45v224c-24 -2 -60 -28 -60 -111
c0 -54 16 -105 60 -113z" />
    <glyph glyph-name="dollar.inferior" unicode="&#xf6e3;" horiz-adv-x="350" 
d="M184 219v-117c72 -21 135 -30 135 -110c0 -84 -83 -110 -135 -110v-56h-23v56c-98 1 -134 46 -134 70c0 22 27 40 47 40c13 0 18 -8 23 -25c15 -48 49 -67 64 -67v121c-107 25 -130 58 -130 112c0 69 59 102 130 104v44h23v-44c92 -3 119 -42 119 -65
c0 -21 -22 -34 -39 -34c-14 0 -21 5 -25 20c-15 51 -39 60 -55 61zM161 110v109c-31 0 -55 -19 -55 -53c0 -32 20 -47 55 -56zM184 14v-114c33 0 60 17 60 55c0 33 -24 49 -60 59z" />
    <glyph glyph-name="period.inferior" unicode="&#xf6e7;" horiz-adv-x="161" 
d="M81 -129h-1c-30 0 -48 24 -48 52c0 27 18 51 49 51c32 0 48 -24 48 -51c0 -28 -16 -52 -48 -52z" />
    <glyph glyph-name="comma.inferior" unicode="&#xf6e1;" horiz-adv-x="161" 
d="M23 -180c23 33 31 61 31 109c0 12 -7 32 -13 44c7 8 53 25 69 23c10 -10 19 -31 19 -43c0 -49 -40 -104 -85 -147z" />
    <glyph glyph-name="Delta" unicode="&#x2206;" horiz-adv-x="630" 
d="M26 0v24c11 29 169 433 241 636h84l249 -633v-27h-574zM433 82c-12 36 -176 473 -176 473h-2l-165 -472c-8 -24 -7 -34 24 -34h290c28 0 38 3 29 33z" />
    <glyph glyph-name="Omega" unicode="&#x2126;" horiz-adv-x="762" 
d="M349 0h-297l-19 172h23c25 -62 41 -77 67 -77h142v8c-111 39 -196 113 -196 274c0 209 128 298 318 298c203 0 311 -93 311 -295c0 -154 -81 -231 -204 -278v-7h147c26 0 48 6 68 77h22l-20 -172h-294l1 72c114 46 134 156 134 300c0 161 -47 279 -169 279
c-116 0 -167 -109 -167 -276c0 -127 29 -267 133 -303v-72z" />
    <glyph glyph-name="uni03BC" unicode="&#x3bc;" horiz-adv-x="575" 
d="M245 -11h-1c-23 0 -51 6 -67 20c0 -70 5 -162 9 -233l-4 -4c-52 0 -115 29 -119 52c2 90 13 207 14 294v343h126v-316c0 -74 30 -104 81 -104c44 0 68 28 80 54c5 13 7 36 7 54v312h127v-366c0 -39 10 -52 35 -52c12 0 26 5 39 12l6 -16c-39 -38 -79 -50 -129 -50
c-47 0 -68 34 -76 78c-35 -42 -71 -78 -128 -78z" />
    <glyph glyph-name="pi" unicode="&#x3c0;" horiz-adv-x="523" 
d="M129 379c-31 -1 -87 -6 -115 -20l-6 12c40 58 79 88 159 88h299c20 0 32 2 43 22l12 -7l-36 -95h-64v-291c0 -40 19 -48 39 -48c15 0 28 4 40 8l6 -14c-25 -33 -74 -45 -117 -45c-61 0 -93 30 -93 123v267h-128c4 -54 1 -147 1 -204c0 -131 -35 -193 -69 -193
c-36 0 -51 20 -51 41c0 15 3 17 11 24c43 35 77 83 77 193c0 49 -6 116 -8 139z" />
    <glyph glyph-name="Euro" unicode="&#x20ac;" horiz-adv-x="512" 
d="M204 380h217v-26h-219v-69h219v-27h-217c5 -109 35 -225 137 -225c58 0 98 28 128 110l16 -9c-21 -88 -86 -145 -181 -145c-180 0 -225 121 -230 269h-49v27h47c0 21 0 48 1 69h-47l-1 26h51c18 174 96 258 239 258c136 0 165 -71 165 -103c0 -27 -21 -45 -48 -45
c-21 0 -26 11 -30 29c-21 68 -45 96 -90 96c-64 0 -98 -77 -108 -235z" />
    <glyph glyph-name="afii61289" unicode="&#x2113;" horiz-adv-x="410" 
d="M374 138l14 -7c-25 -108 -72 -140 -154 -140c-119 0 -138 68 -138 168c-1 3 0 33 0 36c-14 -11 -44 -25 -61 -34l-9 14c23 15 46 30 69 51v258c0 163 51 213 140 213c86 0 106 -56 106 -136c0 -70 -22 -175 -134 -290l1 -127c0 -66 20 -98 65 -98c47 0 75 20 101 92z
M207 522v-210c59 71 85 167 85 255c0 49 -11 106 -43 106c-27 0 -42 -34 -42 -151z" />
    <glyph glyph-name="estimated" unicode="&#x212e;" horiz-adv-x="784" 
d="M754 304h-574c-3 0 -4 -1 -4 -4v-177c0 -7 2 -14 7 -20c53 -57 123 -91 210 -91c93 0 175 39 231 104h56c-65 -77 -172 -126 -288 -126c-200 0 -361 145 -361 324c0 180 161 325 361 325c201 0 362 -143 362 -323v-12zM608 330v180c0 7 -2 15 -8 20
c-58 62 -125 86 -207 86c-89 0 -149 -26 -209 -86c-6 -6 -8 -14 -8 -22v-178c0 -2 1 -6 4 -6h425c2 0 3 4 3 6z" />
    <glyph glyph-name="partialdiff" unicode="&#x2202;" horiz-adv-x="521" 
d="M68 583c-11 10 -19 23 -19 42c0 13 5 21 17 32c13 12 58 36 133 36c147 0 267 -150 267 -351c0 -207 -72 -355 -244 -355c-115 0 -180 66 -180 180c0 102 65 184 186 184c68 0 111 -33 126 -56h1c3 26 10 83 10 128c0 146 -29 232 -127 232c-53 0 -111 -33 -147 -74
c-4 -6 -10 -10 -23 2zM226 7h1c75 0 110 172 124 267c-15 18 -39 30 -81 30c-63 0 -120 -58 -120 -177c0 -75 33 -120 76 -120z" />
    <glyph glyph-name="product" unicode="&#x220f;" horiz-adv-x="706" 
d="M461 -63v646c0 28 -6 40 -35 40h-152c-27 0 -38 -11 -38 -40v-646c0 -49 3 -54 73 -57v-21h-278v21c70 3 73 8 73 57v636c0 49 -3 53 -73 56v21h635v-21c-69 -3 -72 -10 -72 -56v-636c0 -49 2 -54 72 -57v-21h-276v21c70 3 71 8 71 57z" />
    <glyph glyph-name="summation" unicode="&#x2211;" horiz-adv-x="551" 
d="M251 213l-224 422v15h456v-168h-21c-29 96 -44 141 -146 141h-149l174 -315l-224 -351h221c112 0 120 4 163 106h24l-34 -204h-459v20z" />
    <glyph glyph-name="uni2219" unicode="&#x2219;" horiz-adv-x="218" 
d="M109 163h-1c-40 0 -66 29 -66 70c0 40 26 70 67 70s68 -30 67 -70c-1 -41 -26 -70 -67 -70z" />
    <glyph glyph-name="radical" unicode="&#x221a;" horiz-adv-x="523" 
d="M500 791l-170 -953h-30l-189 436l-68 -31l-8 23l155 75l101 -252c10 -27 25 -73 34 -105h2c2 20 9 79 14 110l124 697h35z" />
    <glyph glyph-name="infinity" unicode="&#x221e;" horiz-adv-x="713" 
d="M663 239v-1c0 -83 -57 -155 -145 -155c-51 0 -99 23 -159 103c-47 -57 -96 -103 -167 -103c-74 0 -141 62 -141 151c0 90 64 153 148 153c69 0 117 -42 163 -102c37 43 82 102 162 102c78 -1 139 -58 139 -148zM198 138h1c56 0 97 51 131 94c-40 52 -74 102 -136 102
c-54 0 -88 -43 -88 -101c0 -52 38 -95 92 -95zM519 334h-1c-58 0 -99 -60 -129 -96c57 -71 86 -99 134 -99c54 0 84 51 84 95c0 53 -31 100 -88 100z" />
    <glyph glyph-name="integral" unicode="&#x222b;" horiz-adv-x="325" 
d="M324 731v-1c0 -30 -21 -46 -49 -46c-48 0 -44 57 -74 57c-12 0 -20 -17 -12 -108c10 -140 26 -344 33 -497c7 -146 -40 -324 -154 -324c-44 0 -72 19 -72 54c0 28 20 50 49 50c46 0 46 -63 75 -63c16 0 30 33 21 149c-10 132 -18 264 -29 399c-19 249 46 382 147 382
c41 0 65 -23 65 -52z" />
    <glyph glyph-name="approxequal" unicode="&#x2248;" horiz-adv-x="485" 
d="M409 209l28 -27c-27 -51 -58 -83 -114 -83c-26 0 -58 18 -86 31c-30 14 -47 23 -74 23c-38 0 -63 -24 -89 -59l-27 31c25 35 59 80 124 80c38 0 63 -16 88 -28c26 -13 49 -27 74 -27c37 0 48 17 76 59zM409 359l28 -28c-26 -51 -57 -83 -115 -83c-24 0 -56 20 -84 32
c-32 15 -47 23 -75 23c-39 0 -63 -25 -89 -59l-27 31c26 35 60 79 124 79c37 0 64 -15 87 -27c27 -13 51 -27 75 -27c38 0 49 17 76 59z" />
    <glyph glyph-name="notequal" unicode="&#x2260;" horiz-adv-x="485" 
d="M354 413l-34 -73h116v-49h-140l-57 -127h197v-49h-218l-42 -91l-38 20l33 71h-121v49h141l58 127h-199v49h222l44 92z" />
    <glyph glyph-name="lessequal" unicode="&#x2264;" horiz-adv-x="476" 
d="M435 135v-55l-382 173v64l382 172v-55l-334 -148l-1 -1zM50 0v48h386v-48h-386z" />
    <glyph glyph-name="greaterequal" unicode="&#x2265;" horiz-adv-x="476" 
d="M50 489l381 -172v-64l-381 -173v55l334 148v2l-334 149v55zM50 0v48h386v-48h-386z" />
    <glyph glyph-name="lozenge" unicode="&#x25ca;" horiz-adv-x="517" 
d="M472 317l-180 -348h-73l-174 346l178 347h73zM399 315l-114 237c-8 17 -19 47 -25 61h-3c-6 -14 -18 -43 -26 -61l-114 -234l115 -240c10 -22 20 -49 22 -60h5c3 12 20 47 26 58z" />
    <glyph glyph-name="uni00A0" unicode="&#xa0;" horiz-adv-x="184" 
 />
    <glyph glyph-name="uni00AD" unicode="&#xad;" horiz-adv-x="294" 
d="M38 263h219v-61h-219v61z" />
    <glyph glyph-name="uni02C9" unicode="&#x2c9;" horiz-adv-x="376" 
d="M63 620h250v-57h-250v57z" />
    <glyph glyph-name="uniEFED" unicode="&#xefed;" horiz-adv-x="382" 
d="M191 855h1c41 0 65 -30 65 -67c0 -36 -25 -66 -66 -66c-43 0 -67 30 -67 66c0 37 24 67 67 67z" />
    <glyph glyph-name="uniEFEE" unicode="&#xefee;" horiz-adv-x="382" 
d="M191 720h-1c-107 0 -117 61 -117 125h20c2 -26 22 -61 98 -61c75 0 95 32 97 61h21c0 -61 -12 -125 -118 -125z" />
    <glyph glyph-name="uniEFF1" unicode="&#xeff1;" horiz-adv-x="398" 
d="M249 14h16c-50 -43 -79 -86 -79 -140c0 -32 21 -62 55 -62c20 0 40 7 59 23l8 -12c-35 -48 -76 -67 -119 -67c-57 0 -84 33 -84 81c0 71 79 145 144 177z" />
    <glyph glyph-name="uniEFF2" unicode="&#xeff2;" horiz-adv-x="398" 
d="M196 0h24l-34 -52c37 -6 93 -20 93 -79c0 -76 -62 -87 -106 -87c-23 0 -42 5 -53 12l3 17c11 -3 24 -3 31 -3c32 0 49 17 49 52c0 40 -39 51 -58 52l-3 7z" />
    <glyph glyph-name="uniEFF3" unicode="&#xeff3;" horiz-adv-x="382" 
d="M191 845h-1c-26 0 -47 -24 -47 -70c0 -45 21 -69 48 -69c26 0 48 24 48 69c0 46 -22 70 -48 70zM191 867h1c47 0 97 -24 97 -92s-50 -91 -98 -91c-49 0 -98 23 -98 91s49 92 98 92z" />
    <glyph glyph-name="uniEFF5" unicode="&#xeff5;" horiz-adv-x="382" 
d="M317 825l16 -6c-11 -49 -31 -94 -81 -94c-21 0 -47 10 -72 17c-24 9 -47 18 -66 18c-27 0 -38 -11 -55 -44l-14 7c11 45 34 91 87 91c20 0 47 -9 70 -16c23 -8 46 -17 64 -17c21 0 39 7 51 44z" />
    <glyph glyph-name="uniEFF7" unicode="&#xeff7;" horiz-adv-x="382" 
d="M330 724l-12 -15l-116 63c-9 6 -18 7 -27 0l-112 -63l-11 15l126 139h23z" />
    <glyph glyph-name="acute.cap" unicode="&#xf6c9;" horiz-adv-x="380" 
d="M155 705l-9 15l111 96c30 27 47 43 64 43c22 0 39 -28 39 -49c0 -30 -37 -40 -64 -51z" />
    <glyph glyph-name="caron.cap" unicode="&#xf6ca;" horiz-adv-x="382" 
d="M52 848l11 15l116 -62c9 -7 18 -8 27 0l111 62l13 -15l-127 -139h-22z" />
    <glyph glyph-name="dieresis.cap" unicode="&#xf6cb;" horiz-adv-x="382" 
d="M89 849h1c39 0 62 -29 62 -63c0 -35 -24 -64 -63 -64c-41 0 -64 29 -64 64c0 34 23 63 64 63zM292 849h1c39 0 62 -29 62 -63c1 -35 -24 -64 -63 -64c-40 0 -63 29 -63 64c0 34 23 63 63 63z" />
    <glyph glyph-name="grave.cap" unicode="&#xf6ce;" horiz-adv-x="382" 
d="M224 709l-142 54c-27 11 -64 21 -64 51c0 21 18 49 39 49c18 0 34 -16 66 -43l110 -96z" />
    <glyph glyph-name="hungarumlaut.cap" unicode="&#xf6cf;" horiz-adv-x="382" 
d="M110 710l-14 11l41 89c20 43 26 62 50 62c19 0 42 -18 42 -36c0 -19 -12 -38 -40 -61zM256 710l-14 11l41 89c19 43 26 62 50 62c19 0 42 -17 42 -36c0 -22 -12 -38 -41 -61z" />
    <glyph glyph-name="macron.cap" unicode="&#xf6d0;" horiz-adv-x="382" 
d="M64 789h254v-58h-254v58z" />
    <glyph glyph-name="uniF637" unicode="&#xf637;" horiz-adv-x="372" 
d="M141 488c33 23 57 41 92 41c60 0 83 -32 83 -83v-142c0 -21 4 -25 38 -27v-17h-152v17c21 3 29 5 29 24v143c0 31 -14 48 -44 48c-27 0 -46 -17 -46 -62v-129c0 -19 9 -21 29 -24v-17h-152v17c34 2 38 6 38 27v295c0 18 -2 25 -13 27l-22 5v13l118 14l2 -1v-169z" />
    <glyph glyph-name="uniF638" unicode="&#xf638;" horiz-adv-x="512" 
d="M173 141l156 386c-14 52 -36 89 -73 89c-83 0 -94 -169 -94 -302c0 -58 2 -121 11 -173zM337 482l-154 -387c13 -50 36 -83 73 -83c81 0 93 161 93 302c0 56 -2 116 -12 168zM404 649l-19 -50c70 -57 95 -165 95 -285c0 -176 -51 -325 -224 -325c-42 0 -77 9 -106 25
l-20 -51l-24 10l22 55c-72 57 -97 166 -97 286c0 177 51 325 225 325c43 0 78 -9 107 -26l19 47z" />
    <glyph glyph-name="uniF639" unicode="&#xf639;" horiz-adv-x="512" 
d="M255 616h-1c-81 0 -87 -169 -87 -302c0 -139 7 -302 89 -302c81 0 89 161 89 302c0 133 -8 302 -90 302zM256 639h1c170 0 224 -149 224 -325s-52 -325 -225 -325c-172 0 -225 151 -225 325c0 177 52 325 225 325z" />
    <glyph glyph-name="uniF6DC" unicode="&#xf6dc;" horiz-adv-x="512" 
d="M428 0h-332v21l67 6c24 2 33 11 33 40v473c0 32 -8 40 -30 43l-66 7v18l224 31l4 -3v-569c0 -31 10 -38 32 -40l68 -6v-21z" />
    <glyph glyph-name="uniF63A" unicode="&#xf63a;" horiz-adv-x="512" 
d="M486 169l-40 -169h-413l-5 6c6 61 46 133 173 249c95 88 113 156 113 228c0 68 -18 133 -84 133c-58 0 -83 -46 -101 -157c-4 -20 -19 -27 -35 -27c-28 0 -59 22 -59 57c0 70 64 150 210 150c121 0 207 -50 207 -183c0 -108 -63 -153 -165 -207
c-101 -53 -174 -106 -195 -149h297c24 0 43 3 78 74z" />
    <glyph glyph-name="uniF63B" unicode="&#xf63b;" horiz-adv-x="512" 
d="M133 336v1c0 19 11 24 29 24c24 0 35 -9 74 -9c59 0 71 53 71 133c0 50 -13 131 -77 131c-53 0 -78 -41 -103 -122c-6 -18 -12 -26 -31 -26c-24 0 -48 18 -48 49c0 53 71 122 195 122c97 0 199 -31 199 -155c0 -92 -90 -125 -157 -138v-8c61 -9 185 -26 185 -158
c0 -120 -86 -191 -234 -191c-163 0 -199 66 -199 105c0 40 31 61 56 61c21 0 26 -9 33 -31c27 -87 64 -112 110 -112c62 0 94 63 94 164c0 113 -37 146 -94 146c-40 0 -52 -10 -75 -10c-17 0 -28 5 -28 24z" />
    <glyph glyph-name="uniF63C" unicode="&#xf63c;" horiz-adv-x="512" 
d="M273 182h-242l-13 22c34 62 236 375 275 424h105v-409h89v-37h-89v-124c0 -25 8 -30 28 -32l42 -5v-21h-271v21l51 6c18 2 25 5 25 31v124zM66 219h207v339h-1c-60 -91 -167 -267 -206 -339z" />
    <glyph glyph-name="uniF63D" unicode="&#xf63d;" horiz-adv-x="512" 
d="M413 524h-269c-19 0 -26 -5 -29 -22l-25 -194l1 -1c39 33 100 74 177 74c153 0 198 -85 198 -180c0 -113 -66 -212 -238 -212c-163 0 -190 72 -190 107c0 33 31 57 58 57c20 0 28 -14 35 -33c25 -79 44 -109 101 -109c67 0 89 72 89 173c0 111 -48 149 -108 149
c-54 0 -86 -11 -129 -64l-18 12l27 343l6 4h209c88 0 116 0 134 8l5 -7z" />
    <glyph glyph-name="uniF63E" unicode="&#xf63e;" horiz-adv-x="512" 
d="M284 639h1c124 0 171 -54 171 -96c0 -32 -30 -49 -54 -49c-20 0 -26 6 -30 25c-20 74 -53 98 -93 98c-88 0 -114 -155 -114 -302h2c27 30 86 75 151 75c97 0 170 -59 170 -185c0 -120 -65 -216 -228 -216c-172 0 -230 122 -230 311c0 75 16 172 51 232
c38 68 99 107 203 107zM259 344h-1c-62 0 -93 -58 -93 -114c0 -113 26 -218 99 -218c68 0 92 84 92 171c0 106 -43 161 -97 161z" />
    <glyph glyph-name="uniF63F" unicode="&#xf63f;" horiz-adv-x="512" 
d="M78 628h409l4 -4c-12 -86 -74 -189 -122 -274c-37 -64 -76 -153 -76 -250c0 -20 3 -48 5 -67c5 -36 -22 -44 -54 -44c-38 0 -66 10 -66 59c0 76 50 168 126 271c73 99 106 142 134 205h-310c-29 0 -37 -8 -57 -51l-12 -27l-20 5z" />
    <glyph glyph-name="uniF640" unicode="&#xf640;" horiz-adv-x="512" 
d="M255 319h-1c-64 0 -90 -54 -90 -147c0 -89 21 -160 92 -160c72 0 91 72 91 160c0 86 -26 147 -92 147zM255 -11h-1c-129 0 -226 57 -226 187c0 90 63 138 148 156v5c-83 15 -127 57 -127 136c0 107 81 166 207 166c128 0 206 -56 206 -164c0 -74 -43 -121 -125 -138v-5
c88 -20 146 -65 146 -156c0 -130 -97 -187 -228 -187zM258 343h1c63 0 76 64 76 132c0 77 -13 141 -80 141c-52 0 -78 -47 -78 -138c0 -82 21 -135 81 -135z" />
    <glyph glyph-name="uniF641" unicode="&#xf641;" horiz-adv-x="512" 
d="M212 256h-1c-100 0 -178 52 -178 176c0 121 73 207 215 207c83 0 138 -26 174 -77c37 -51 51 -129 51 -230c0 -127 -28 -216 -73 -268c-41 -48 -96 -75 -178 -75c-140 0 -170 64 -170 100c0 33 26 48 51 48c18 0 24 -7 29 -26c24 -78 70 -99 110 -99c75 0 97 108 97 307
h-2c-28 -33 -73 -63 -125 -63zM261 304h1c29 0 54 12 65 34c9 15 12 33 12 58c0 106 -18 220 -90 220c-63 0 -86 -75 -86 -166c0 -82 32 -146 98 -146z" />
    <glyph glyph-name="uniF642" unicode="&#xf642;" horiz-adv-x="679" 
d="M505 273h-1c-33 0 -47 -43 -47 -133c0 -83 14 -133 49 -133c36 0 49 50 49 133c0 90 -17 133 -50 133zM506 -11h-1c-93 0 -140 53 -140 151c0 99 43 152 137 152c93 0 144 -53 144 -152c0 -98 -47 -151 -140 -151zM516 577l26 -17l-372 -590l-25 18l320 500h-162
c7 -13 15 -50 15 -88c0 -99 -50 -151 -144 -151c-89 0 -136 52 -136 151s47 151 140 151c46 0 73 -11 100 -27c9 -6 24 -11 40 -11h114c37 0 48 6 63 29zM178 532h-1c-32 0 -47 -42 -47 -132c0 -83 14 -132 49 -132s48 49 48 132c0 90 -16 132 -49 132z" />
    <glyph glyph-name="uniF628" unicode="&#xf628;" horiz-adv-x="984" 
d="M505 273h-1c-33 0 -47 -43 -47 -133c0 -83 14 -133 49 -133c36 0 49 50 49 133c0 90 -17 133 -50 133zM506 -11h-1c-93 0 -140 53 -140 151c0 99 43 152 137 152c93 0 144 -53 144 -152c0 -98 -47 -151 -140 -151zM516 577l26 -17l-372 -590l-25 18l320 500h-162
c7 -13 15 -50 15 -88c0 -99 -50 -151 -144 -151c-89 0 -136 52 -136 151s47 151 140 151c46 0 73 -11 100 -27c9 -6 24 -11 40 -11h114c37 0 48 6 63 29zM178 532h-1c-32 0 -47 -42 -47 -132c0 -83 14 -132 49 -132s48 49 48 132c0 90 -16 132 -49 132zM810 273h-1
c-33 0 -47 -43 -47 -133c0 -83 14 -133 49 -133s48 50 48 133c0 90 -17 133 -49 133zM811 -11h-1c-93 0 -140 53 -140 151c0 99 43 152 137 152c93 0 143 -53 143 -152c0 -98 -46 -151 -139 -151z" />
    <glyph glyph-name="uniF643" unicode="&#xf643;" horiz-adv-x="496" 
d="M248 -11h-1c-147 0 -217 89 -217 245c0 155 70 245 218 245c151 0 219 -90 219 -245c0 -156 -68 -245 -219 -245zM248 456h-1c-63 0 -88 -93 -88 -222c0 -139 25 -223 89 -223c66 0 89 88 89 223c0 133 -23 222 -89 222z" />
    <glyph glyph-name="uniF644" unicode="&#xf644;" horiz-adv-x="496" 
d="M412 0h-318v20l62 7c24 3 34 10 34 40v316c0 32 -9 40 -31 43l-54 6v15l207 32l4 -3v-409c0 -31 12 -38 33 -40l63 -7v-20z" />
    <glyph glyph-name="uniF645" unicode="&#xf645;" horiz-adv-x="496" 
d="M424 0h-383l-4 6c8 73 66 137 168 186c78 37 95 83 95 146c0 68 -21 118 -73 118c-59 0 -77 -41 -92 -136c-4 -20 -14 -29 -38 -29c-21 0 -54 12 -54 55c0 65 75 133 198 133c113 0 194 -44 194 -149c0 -94 -71 -132 -172 -157c-97 -25 -135 -49 -147 -75h344l2 -5z" />
    <glyph glyph-name="uniF646" unicode="&#xf646;" horiz-adv-x="496" 
d="M227 -114h-1c-168 0 -189 79 -189 111c0 30 28 50 52 50c23 0 31 -14 38 -39c23 -84 63 -100 100 -100c57 0 85 65 85 150c0 102 -39 129 -91 129c-31 0 -53 -10 -73 -10c-18 0 -27 3 -27 23c0 22 9 24 27 24c20 0 43 -11 73 -11c66 0 71 56 71 123c0 43 -11 120 -68 120
c-51 0 -69 -39 -87 -108c-5 -22 -15 -34 -37 -34c-28 0 -52 22 -52 47c0 50 69 118 185 118c81 0 188 -20 188 -143c0 -87 -84 -118 -143 -127v-8c63 -7 169 -20 169 -138c0 -107 -78 -177 -220 -177z" />
    <glyph glyph-name="uniF647" unicode="&#xf647;" horiz-adv-x="496" 
d="M263 72h-229l-8 24c37 60 213 315 263 372h98v-358h82v-38h-82v-171l-124 -1v172zM74 110h189v286h-2c-51 -74 -146 -215 -187 -286z" />
    <glyph glyph-name="uniF648" unicode="&#xf648;" horiz-adv-x="496" 
d="M406 363h-257c-21 0 -25 -5 -28 -23l-25 -168l1 -1c43 45 109 70 167 70c145 0 180 -77 180 -161c0 -104 -59 -194 -223 -194c-148 0 -178 75 -178 108c0 37 30 50 50 50c23 0 28 -13 35 -38c24 -84 62 -98 99 -98c50 0 86 58 86 153c0 99 -49 131 -110 131
c-54 0 -84 -18 -112 -55l-20 12l36 316l5 3h111c192 -3 203 2 216 8l5 -3z" />
    <glyph glyph-name="uniF649" unicode="&#xf649;" horiz-adv-x="496" 
d="M432 573l-5 -15c-19 3 -41 5 -69 5c-111 0 -196 -92 -197 -263h2c32 33 81 74 151 73c90 -1 157 -51 157 -173c0 -109 -58 -211 -219 -211c-154 0 -220 82 -220 259c0 202 110 345 311 345c42 0 72 -8 89 -20zM255 325h-1c-43 0 -71 -19 -84 -55c-5 -15 -8 -35 -8 -54
c0 -103 29 -205 97 -205s85 82 85 160c1 102 -39 154 -89 154z" />
    <glyph glyph-name="uniF64A" unicode="&#xf64a;" horiz-adv-x="496" 
d="M68 468h390l3 -4c-12 -74 -47 -141 -128 -264c-36 -55 -66 -132 -65 -211c1 -16 2 -34 6 -50c10 -44 -19 -53 -62 -53c-30 0 -59 14 -59 66c0 87 82 173 138 243c74 90 95 139 104 168h-273c-31 0 -40 -15 -73 -74l-19 7z" />
    <glyph glyph-name="uniF64B" unicode="&#xf64b;" horiz-adv-x="496" 
d="M250 293h-1c-56 0 -87 -41 -87 -132c0 -93 30 -150 88 -150c62 0 87 59 87 150c0 88 -33 132 -87 132zM250 -11h-1c-113 0 -217 41 -217 174c0 98 63 132 132 148v2c-72 16 -113 54 -113 130c0 110 99 149 199 149c99 0 198 -38 198 -149c0 -77 -44 -115 -114 -130v-2
c65 -16 134 -50 134 -148c0 -134 -104 -174 -218 -174zM250 320h1c54 0 74 53 74 122c0 81 -21 127 -75 127c-46 0 -76 -37 -76 -127c0 -73 22 -122 76 -122z" />
    <glyph glyph-name="uniF64C" unicode="&#xf64c;" horiz-adv-x="496" 
d="M243 479h1c163 0 218 -104 218 -264c0 -184 -86 -329 -283 -329c-49 0 -90 9 -117 27l4 16c21 -5 29 -8 68 -8c126 0 193 81 198 244l-2 1c-30 -33 -80 -63 -131 -63c-97 0 -168 53 -168 179c0 107 69 197 212 197zM160 302v-1c0 -65 24 -152 95 -152c27 0 53 13 64 35
c8 15 14 28 14 80c0 110 -31 192 -92 192c-58 0 -81 -59 -81 -154z" />
    <glyph glyph-name="uniF64D" unicode="&#xf64d;" horiz-adv-x="496" 
d="M455 126c-21 -91 -108 -126 -143 -125l-10 -80h-23l10 81c-19 0 -42 -2 -57 1l-10 -82h-24l11 86c-103 25 -166 90 -166 255c0 152 65 274 230 279l7 61h23l-6 -60c10 0 37 -1 54 -4l7 64h24l-10 -70c25 -5 83 -27 83 -65c0 -29 -21 -37 -32 -37c-12 0 -15 2 -21 16
c-10 22 -21 40 -34 53l-52 -463c49 4 92 21 123 98zM217 68l52 451c-87 -18 -102 -157 -102 -246c0 -69 8 -154 50 -205zM292 37l55 475c-15 7 -34 9 -53 9l-55 -469c15 -9 34 -12 53 -15z" />
    <glyph glyph-name="uniF64E" unicode="&#xf64e;" horiz-adv-x="496" 
d="M199 338h200v-26h-202v-67h202v-25h-200c5 -90 27 -186 122 -186c43 0 96 14 126 93l19 -9c-24 -80 -75 -128 -170 -128c-184 0 -221 113 -229 230h-38v25h36c0 20 0 47 2 67h-38v26h40c20 145 96 213 236 213c98 0 158 -44 158 -98c0 -23 -19 -40 -37 -40
c-16 0 -22 6 -27 23c-11 35 -36 93 -95 93c-61 0 -96 -61 -105 -191z" />
    <glyph glyph-name="uniF64F" unicode="&#xf64f;" horiz-adv-x="496" 
d="M412 295h-114l-22 -165c-22 -166 -90 -279 -204 -279c-76 0 -108 34 -108 64c0 31 28 54 56 54c22 0 25 -13 31 -29c21 -54 30 -65 42 -65c15 0 21 5 28 46c11 73 32 245 46 374h-83v26h87l7 43c12 80 50 235 202 235c79 0 102 -40 102 -68c0 -29 -29 -46 -52 -46
c-20 0 -27 10 -31 24c-11 39 -25 67 -43 67c-19 0 -27 -19 -36 -91c-7 -52 -11 -97 -19 -164h111v-26z" />
    <glyph glyph-name="uniF650" unicode="&#xf650;" horiz-adv-x="496" 
d="M312 305h-113l-25 -97h114zM445 305h-102l-26 -97h102l-13 -63h-103l-45 -183h-31l47 183h-114l-46 -183h-31l46 183h-101l15 63h100l25 97h-101l16 63h100l42 171h30l-42 -171h114l42 171h30l-42 -171h101z" />
    <glyph glyph-name="uniF651" unicode="&#xf651;" horiz-adv-x="496" 
d="M424 0h-398l-4 7l20 45c80 24 75 90 75 125c0 19 -8 63 -14 84h-76v25h68c-7 33 -12 60 -12 95c0 83 54 170 188 170c120 0 149 -59 149 -94c0 -29 -30 -53 -55 -53c-21 0 -29 9 -34 24c-17 61 -34 102 -76 102c-37 0 -53 -34 -53 -89c0 -44 16 -102 25 -155h131v-25
h-126c1 -61 -20 -121 -107 -167v-2h246c48 0 53 25 80 68l18 -8z" />
    <glyph glyph-name="uniF652" unicode="&#xf652;" horiz-adv-x="496" 
d="M386 0h-270v22c68 5 73 8 73 35v114h-110v27h110v69h-110v27h105c-45 82 -74 140 -106 192c-12 19 -23 28 -39 30l-25 3v21h234v-23l-31 -5c-18 -2 -14 -10 -9 -22c26 -56 62 -135 86 -185h1c36 76 65 141 80 182c7 18 2 26 -15 27l-35 5v21h160v-21l-29 -4
c-22 -2 -34 -12 -48 -35c-15 -23 -53 -103 -94 -186h110v-27h-112v-69h112v-27h-112v-114c0 -27 3 -31 74 -35v-22z" />
    <glyph glyph-name="uniF653" unicode="&#xf653;" horiz-adv-x="496" 
d="M261 491v-170c101 -30 189 -43 189 -161c-1 -121 -115 -160 -189 -160v-73h-28v73c-147 3 -190 72 -190 100c0 36 28 56 56 56c22 0 27 -15 35 -36c28 -76 71 -97 99 -100v182c-105 30 -181 51 -181 158c0 110 99 151 181 153v66h28v-66c124 -2 170 -62 169 -93
c1 -31 -24 -48 -45 -48c-24 0 -29 8 -35 29c-19 70 -67 88 -89 90zM233 330v161c-43 0 -83 -25 -83 -80c0 -51 40 -69 83 -81zM261 194v-174c44 0 88 19 88 87c0 53 -41 72 -88 87z" />
    <glyph glyph-name="uniF654" unicode="&#xf654;" horiz-adv-x="496" 
d="M270 457v65h28v-65c82 -4 150 -33 150 -90c0 -29 -24 -44 -45 -44c-19 0 -27 10 -34 29c-16 53 -46 81 -71 83v-368c50 0 111 16 145 100l14 -10c-22 -85 -108 -126 -159 -127v-76h-28v76c-166 1 -225 84 -225 212c0 142 93 210 225 215zM270 71v364
c-42 -1 -96 -37 -96 -174c0 -100 27 -176 96 -190z" />
    <glyph glyph-name="uniF655" unicode="&#xf655;" 
d="M175 360h1c113 0 145 -81 145 -183c0 -104 -32 -183 -146 -183c-115 0 -147 79 -147 183c0 102 32 183 147 183zM174 340h-1c-41 0 -50 -70 -50 -163c0 -97 10 -164 53 -164c42 0 50 76 50 164c0 91 -12 163 -52 163z" />
    <glyph glyph-name="uniF656" unicode="&#xf656;" 
d="M283 0h-213v19l36 4c19 3 25 8 25 31v238c0 19 -6 27 -19 28l-40 3v17l146 20l4 -3v-303c0 -23 7 -28 24 -31l37 -4v-19z" />
    <glyph glyph-name="uniF657" unicode="&#xf657;" 
d="M295 0h-266l-5 6c4 52 46 102 113 146c64 42 70 83 70 117s-9 71 -46 71c-35 0 -52 -40 -60 -87c-3 -19 -10 -27 -30 -27c-19 0 -41 13 -41 42c0 43 53 92 144 92c80 0 131 -35 131 -107c0 -66 -47 -87 -101 -112c-50 -22 -109 -41 -127 -70h186c22 0 31 21 46 49l16 -6z
" />
    <glyph glyph-name="uniF658" unicode="&#xf658;" 
d="M90 187v1c0 16 6 20 19 20s38 -7 57 -7c34 0 36 35 36 67c0 35 -10 72 -42 72c-24 0 -43 -16 -54 -67c-4 -17 -9 -27 -27 -27c-19 0 -40 11 -40 36c0 39 47 78 134 78c62 0 126 -20 126 -90c0 -54 -46 -68 -92 -77v-3c49 -5 108 -24 108 -88c0 -58 -35 -108 -150 -108
c-68 0 -133 27 -133 73c0 23 19 40 42 40c18 0 24 -10 29 -26c16 -59 41 -68 63 -68c29 0 49 30 49 87c0 63 -30 75 -49 75c-22 0 -46 -9 -57 -9c-13 0 -19 6 -19 21z" />
    <glyph glyph-name="uniF659" unicode="&#xf659;" 
d="M171 99h-136l-9 18c31 53 109 170 161 238h71v-230h59v-26h-59v-52c0 -19 7 -24 20 -26l25 -3v-18h-186v18l34 4c12 1 20 6 20 25v52zM61 125h110v172h-2c-31 -44 -89 -137 -108 -172z" />
    <glyph glyph-name="uniF65A" unicode="&#xf65a;" 
d="M78 355h223l3 -4l-26 -69h-164c-17 0 -21 -4 -24 -21l-10 -81c20 17 69 37 109 37c78 0 124 -31 124 -101c0 -71 -36 -122 -150 -122c-65 0 -123 26 -123 72c0 23 21 41 44 41c16 0 23 -9 29 -27c14 -45 32 -67 56 -67c29 0 45 24 45 89c0 56 -24 82 -64 82
c-35 0 -61 -13 -75 -32l-16 15l16 184z" />
    <glyph glyph-name="uniF65B" unicode="&#xf65b;" 
d="M189 360h1c85 0 115 -39 115 -65c0 -22 -21 -35 -42 -35c-18 0 -25 13 -31 27c-11 34 -28 53 -52 53c-55 0 -56 -129 -56 -159c31 27 64 43 96 43c56 0 103 -27 103 -103c0 -72 -36 -127 -146 -127c-106 0 -148 61 -148 177c0 101 48 189 160 189zM180 13h1
c37 0 47 42 47 92c0 58 -24 83 -52 83c-29 0 -52 -21 -52 -68c0 -55 16 -107 56 -107z" />
    <glyph glyph-name="uniF65C" unicode="&#xf65c;" 
d="M52 355h265l3 -4c-10 -47 -33 -98 -74 -159c-29 -41 -39 -86 -39 -149c0 -34 -5 -48 -42 -48c-27 0 -48 6 -48 46c0 49 43 99 82 140c44 46 64 68 73 99h-178c-22 0 -30 -11 -50 -50l-17 6z" />
    <glyph glyph-name="uniF65D" unicode="&#xf65d;" 
d="M172 176h-1c-35 0 -51 -31 -51 -79c0 -57 22 -84 53 -84c33 0 53 23 53 84c0 47 -19 79 -54 79zM172 -6h-1c-76 0 -147 28 -147 108c0 42 27 75 80 86v3c-43 9 -67 34 -67 76c0 69 70 93 135 93c69 0 136 -23 136 -93c0 -42 -27 -70 -67 -76v-3c55 -11 81 -43 81 -85
c0 -80 -72 -109 -150 -109zM173 340h-1c-29 0 -44 -27 -44 -74c0 -34 13 -70 44 -70c34 0 46 36 46 70c0 39 -11 74 -45 74z" />
    <glyph glyph-name="uniF65E" unicode="&#xf65e;" 
d="M170 360h1c86 0 144 -42 144 -173c0 -109 -41 -193 -159 -193c-72 0 -121 26 -121 67c0 24 26 40 43 40c18 0 23 -11 31 -28c17 -41 36 -60 60 -60c44 0 51 92 52 160h-2c-21 -21 -55 -35 -83 -35c-57 0 -108 29 -108 102s43 120 142 120zM167 341h-1
c-26 0 -45 -28 -45 -86c0 -59 21 -84 52 -84c26 0 45 18 45 60c0 77 -20 110 -51 110z" />
    <glyph glyph-name="uniF65F" unicode="&#xf65f;" horiz-adv-x="161" 
d="M23 -62c23 33 31 61 31 109c0 12 -7 32 -13 44c7 8 53 25 69 23c10 -10 19 -31 19 -43c0 -49 -40 -104 -85 -147z" />
    <glyph glyph-name="uniF660" unicode="&#xf660;" horiz-adv-x="161" 
d="M81 -11h-1c-30 0 -48 24 -48 52c0 27 18 51 49 51c32 0 48 -24 48 -51c0 -28 -16 -52 -48 -52z" />
    <glyph glyph-name="uniF629" unicode="&#xf629;" horiz-adv-x="350" 
d="M208 43v-56h-25v56c-125 1 -153 64 -153 133c0 84 48 136 154 139v45h24v-45c44 -2 110 -18 110 -63c0 -20 -23 -31 -37 -31c-15 0 -18 7 -23 23c-11 40 -30 53 -50 53v-227c34 0 73 7 98 62l12 -6c-19 -53 -59 -79 -110 -83zM183 73v224c-24 -2 -60 -28 -60 -111
c0 -54 16 -105 60 -113z" />
    <glyph glyph-name="uniF62A" unicode="&#xf62a;" horiz-adv-x="350" 
d="M184 337v-117c72 -21 135 -30 135 -110c0 -84 -83 -110 -135 -110v-56h-23v56c-98 1 -134 46 -134 70c0 22 27 40 47 40c13 0 18 -8 23 -25c15 -48 49 -67 64 -67v121c-107 25 -130 58 -130 112c0 69 59 102 130 104v44h23v-44c92 -3 119 -42 119 -65
c0 -21 -22 -34 -39 -34c-14 0 -21 5 -25 20c-15 51 -39 60 -55 61zM161 228v109c-31 0 -55 -19 -55 -53c0 -32 20 -47 55 -56zM184 132v-114c33 0 60 17 60 55c0 33 -24 49 -60 59z" />
    <glyph glyph-name="uniF62B" unicode="&#xf62b;" horiz-adv-x="220" 
d="M34 196h148v-44h-148v44z" />
    <glyph glyph-name="uniF62C" unicode="&#xf62c;" horiz-adv-x="235" 
d="M50 153v1c0 40 7 94 31 138c19 34 59 79 125 79l3 -13c-67 -16 -95 -116 -95 -205c0 -88 28 -186 95 -204l-3 -13c-62 0 -101 28 -126 73c-24 44 -30 98 -30 144z" />
    <glyph glyph-name="uniF62D" unicode="&#xf62d;" horiz-adv-x="235" 
d="M188 153v-1c0 -39 -7 -93 -30 -136c-19 -35 -60 -80 -126 -80l-3 13c67 17 96 116 96 204s-29 187 -96 204l3 14c61 -1 102 -29 126 -74c24 -43 30 -97 30 -144z" />
    <glyph glyph-name="uniF661" unicode="&#xf661;" 
d="M175 639h1c113 0 145 -81 145 -183c0 -104 -32 -183 -146 -183c-115 0 -147 79 -147 183c0 102 32 183 147 183zM174 619h-1c-41 0 -50 -70 -50 -163c0 -97 10 -164 53 -164c42 0 50 76 50 164c0 91 -12 163 -52 163z" />
    <glyph glyph-name="uniF662" unicode="&#xf662;" 
d="M283 279h-213v19l36 4c19 3 25 8 25 31v238c0 19 -6 27 -19 28l-40 3v17l146 20l4 -3v-303c0 -23 7 -28 24 -31l37 -4v-19z" />
    <glyph glyph-name="uniF663" unicode="&#xf663;" 
d="M295 279h-266l-5 6c4 52 46 102 113 146c64 42 70 83 70 117s-9 71 -46 71c-35 0 -52 -40 -60 -87c-3 -19 -10 -27 -30 -27c-19 0 -41 13 -41 42c0 43 53 92 144 92c80 0 131 -35 131 -107c0 -66 -47 -87 -101 -112c-50 -22 -109 -41 -127 -70h186c22 0 31 21 46 49
l16 -6z" />
    <glyph glyph-name="uniF664" unicode="&#xf664;" 
d="M90 466v1c0 16 6 20 19 20s38 -7 57 -7c34 0 36 35 36 67c0 35 -10 72 -42 72c-24 0 -43 -16 -54 -67c-4 -17 -9 -27 -27 -27c-19 0 -40 11 -40 36c0 39 47 78 134 78c62 0 126 -20 126 -90c0 -54 -46 -68 -92 -77v-3c49 -5 108 -24 108 -88c0 -58 -35 -108 -150 -108
c-68 0 -133 27 -133 73c0 23 19 40 42 40c18 0 24 -10 29 -26c16 -59 41 -68 63 -68c29 0 49 30 49 87c0 63 -30 75 -49 75c-22 0 -46 -9 -57 -9c-13 0 -19 6 -19 21z" />
    <glyph glyph-name="uniF665" unicode="&#xf665;" 
d="M171 378h-136l-9 18c31 53 109 170 161 238h71v-230h59v-26h-59v-52c0 -19 7 -24 20 -26l25 -3v-18h-186v18l34 4c12 1 20 6 20 25v52zM61 404h110v172h-2c-31 -44 -89 -137 -108 -172z" />
    <glyph glyph-name="uniF666" unicode="&#xf666;" 
d="M78 634h223l3 -4l-26 -69h-164c-17 0 -21 -4 -24 -21l-10 -81c20 17 69 37 109 37c78 0 124 -31 124 -101c0 -71 -36 -122 -150 -122c-65 0 -123 26 -123 72c0 23 21 41 44 41c16 0 23 -9 29 -27c14 -45 32 -67 56 -67c29 0 45 24 45 89c0 56 -24 82 -64 82
c-35 0 -61 -13 -75 -32l-16 15l16 184z" />
    <glyph glyph-name="uniF667" unicode="&#xf667;" 
d="M189 639h1c85 0 115 -39 115 -65c0 -22 -21 -35 -42 -35c-18 0 -25 13 -31 27c-11 34 -28 53 -52 53c-55 0 -56 -129 -56 -159c31 27 64 43 96 43c56 0 103 -27 103 -103c0 -72 -36 -127 -146 -127c-106 0 -148 61 -148 177c0 101 48 189 160 189zM180 292h1
c37 0 47 42 47 92c0 58 -24 83 -52 83c-29 0 -52 -21 -52 -68c0 -55 16 -107 56 -107z" />
    <glyph glyph-name="uniF668" unicode="&#xf668;" 
d="M52 634h265l3 -4c-10 -47 -33 -98 -74 -159c-29 -41 -39 -86 -39 -149c0 -34 -5 -48 -42 -48c-27 0 -48 6 -48 46c0 49 43 99 82 140c44 46 64 68 73 99h-178c-22 0 -30 -11 -50 -50l-17 6z" />
    <glyph glyph-name="uniF669" unicode="&#xf669;" 
d="M172 455h-1c-35 0 -51 -31 -51 -79c0 -57 22 -84 53 -84c33 0 53 23 53 84c0 47 -19 79 -54 79zM172 273h-1c-76 0 -147 28 -147 108c0 42 27 75 80 86v3c-43 9 -67 34 -67 76c0 69 70 93 135 93c69 0 136 -23 136 -93c0 -42 -27 -70 -67 -76v-3c55 -11 81 -43 81 -85
c0 -80 -72 -109 -150 -109zM173 619h-1c-29 0 -44 -27 -44 -74c0 -34 13 -70 44 -70c34 0 46 36 46 70c0 39 -11 74 -45 74z" />
    <glyph glyph-name="uniF66A" unicode="&#xf66a;" 
d="M170 639h1c86 0 144 -42 144 -173c0 -109 -41 -193 -159 -193c-72 0 -121 26 -121 67c0 24 26 40 43 40c18 0 23 -11 31 -28c17 -41 36 -60 60 -60c44 0 51 92 52 160h-2c-21 -21 -55 -35 -83 -35c-57 0 -108 29 -108 102s43 120 142 120zM167 620h-1
c-26 0 -45 -28 -45 -86c0 -59 21 -84 52 -84c26 0 45 18 45 60c0 77 -20 110 -51 110z" />
    <glyph glyph-name="uniF66B" unicode="&#xf66b;" horiz-adv-x="161" 
d="M23 217c23 33 31 61 31 109c0 12 -7 32 -13 44c7 8 53 25 69 23c10 -10 19 -31 19 -43c0 -49 -40 -104 -85 -147z" />
    <glyph glyph-name="uniF66C" unicode="&#xf66c;" horiz-adv-x="161" 
d="M81 268h-1c-30 0 -48 24 -48 52c0 27 18 51 49 51c32 0 48 -24 48 -51c0 -28 -16 -52 -48 -52z" />
    <glyph glyph-name="uniF62E" unicode="&#xf62e;" horiz-adv-x="350" 
d="M208 322v-56h-25v56c-125 1 -153 64 -153 133c0 84 48 136 154 139v45h24v-45c44 -2 110 -18 110 -63c0 -20 -23 -31 -37 -31c-15 0 -18 7 -23 23c-11 40 -30 53 -50 53v-227c34 0 73 7 98 62l12 -6c-19 -53 -59 -79 -110 -83zM183 352v224c-24 -2 -60 -28 -60 -111
c0 -54 16 -105 60 -113z" />
    <glyph glyph-name="uniF62F" unicode="&#xf62f;" horiz-adv-x="350" 
d="M184 616v-117c72 -21 135 -30 135 -110c0 -84 -83 -110 -135 -110v-56h-23v56c-98 1 -134 46 -134 70c0 22 27 40 47 40c13 0 18 -8 23 -25c15 -48 49 -67 64 -67v121c-107 25 -130 58 -130 112c0 69 59 102 130 104v44h23v-44c92 -3 119 -42 119 -65
c0 -21 -22 -34 -39 -34c-14 0 -21 5 -25 20c-15 51 -39 60 -55 61zM161 507v109c-31 0 -55 -19 -55 -53c0 -32 20 -47 55 -56zM184 411v-114c33 0 60 17 60 55c0 33 -24 49 -60 59z" />
    <glyph glyph-name="uniF630" unicode="&#xf630;" horiz-adv-x="220" 
d="M34 475h148v-44h-148v44z" />
    <glyph glyph-name="uniF631" unicode="&#xf631;" horiz-adv-x="235" 
d="M50 432v1c0 40 7 94 31 138c19 34 59 79 125 79l3 -13c-67 -16 -95 -116 -95 -205c0 -88 28 -186 95 -204l-3 -13c-62 0 -101 28 -126 73c-24 44 -30 98 -30 144z" />
    <glyph glyph-name="uniF632" unicode="&#xf632;" horiz-adv-x="235" 
d="M188 432v-1c0 -39 -7 -93 -30 -136c-19 -35 -60 -80 -126 -80l-3 13c67 17 96 116 96 204s-29 187 -96 204l3 14c61 -1 102 -29 126 -74c24 -43 30 -97 30 -144z" />
    <glyph glyph-name="uniF6AE" unicode="&#xf6ae;" horiz-adv-x="385" 
d="M169 327v-1c0 -215 61 -400 185 -441l-4 -20c-214 15 -272 264 -272 462c0 296 121 457 272 467l4 -19c-117 -34 -185 -202 -185 -448z" />
    <glyph glyph-name="uniF6AF" unicode="&#xf6af;" horiz-adv-x="385" 
d="M216 334v1c0 214 -60 400 -185 440l4 20c214 -14 272 -264 272 -461c0 -296 -121 -457 -272 -468l-4 20c118 34 185 202 185 448z" />
    <glyph glyph-name="uniF6B0" unicode="&#xf6b0;" horiz-adv-x="319" 
d="M189 700v-754c0 -47 5 -47 100 -57v-24h-181v916h181v-24c-96 -9 -100 -17 -100 -57z" />
    <glyph glyph-name="uniF6B1" unicode="&#xf6b1;" horiz-adv-x="319" 
d="M131 -54v754c0 42 -10 48 -100 57v24h180v-916h-180v24c85 9 100 18 100 57z" />
    <glyph glyph-name="uniF6B2" unicode="&#xf6b2;" horiz-adv-x="323" 
d="M292 791v-21c-90 -5 -94 -59 -86 -134l9 -93c8 -88 28 -181 -101 -206v-7c130 -25 110 -118 101 -206l-9 -85c-8 -74 -4 -140 86 -144v-22h-33c-151 0 -151 123 -141 215l13 103c9 82 -13 132 -98 132v22c105 -1 106 52 98 130l-13 113c-9 91 -10 203 141 203h33z" />
    <glyph glyph-name="uniF6B3" unicode="&#xf6b3;" horiz-adv-x="323" 
d="M289 345v-22c-105 0 -105 -51 -97 -130l12 -112c9 -93 10 -208 -141 -208h-32v22c89 4 94 63 87 136l-10 94c-9 89 -28 181 102 206v6c-131 26 -112 119 -102 207l10 85c8 74 2 136 -87 141v21h32c151 0 151 -119 141 -210l-12 -104c-9 -82 12 -132 97 -132z" />
    <glyph glyph-name="uniF6B4" unicode="&#xf6b4;" horiz-adv-x="272" 
d="M126 446h20l66 -339c16 -69 2 -110 -76 -110c-79 0 -90 41 -75 110zM135 660h1c40 0 66 -30 66 -70c0 -39 -26 -69 -67 -69c-40 0 -67 30 -66 69c0 40 26 70 66 70z" />
    <glyph glyph-name="uniF6B5" unicode="&#xf6b5;" horiz-adv-x="456" 
d="M224 661h1c40 0 66 -30 66 -69c0 -40 -26 -69 -67 -69s-67 29 -66 68c1 40 25 70 66 70zM220 432h1c63 0 106 -33 106 -92c0 -29 -19 -57 -74 -102c-60 -48 -76 -92 -76 -140c0 -58 22 -90 54 -90c34 0 57 31 65 119c2 25 20 34 46 34c29 0 66 -18 66 -59
c0 -44 -51 -117 -188 -117c-108 0 -172 48 -172 136c0 55 22 70 94 124c46 33 65 63 65 88c0 28 -22 48 -48 48c-13 0 -21 -1 -30 -4l-5 15c24 22 57 40 96 40z" />
    <glyph glyph-name="uniF6B6" unicode="&#xf6b6;" horiz-adv-x="463" 
d="M228 477l12 -9l-88 -154c-5 -9 -6 -18 0 -29l88 -154l-12 -9l-170 163c-10 10 -9 21 0 30zM398 477l12 -9l-88 -154c-5 -9 -6 -18 0 -29l88 -154l-12 -9l-169 163c-10 10 -9 21 0 30z" />
    <glyph glyph-name="uniF6B7" unicode="&#xf6b7;" horiz-adv-x="463" 
d="M64 122l-11 9l87 154c5 9 6 18 0 29l-87 154l11 9l170 -163c10 -9 9 -21 0 -29zM234 122l-12 9l89 154c5 9 6 18 0 29l-89 154l12 9l171 -163c9 -9 9 -21 0 -29z" />
    <glyph glyph-name="uniF6B8" unicode="&#xf6b8;" horiz-adv-x="292" 
d="M229 484l11 -9l-87 -161c-5 -9 -7 -18 0 -29l87 -161l-11 -9l-170 170c-10 11 -9 20 0 30z" />
    <glyph glyph-name="uniF6B9" unicode="&#xf6b9;" horiz-adv-x="292" 
d="M52 476l11 8l171 -170c10 -10 8 -21 0 -29l-171 -170l-11 9l88 161c5 9 6 18 0 29z" />
    <glyph glyph-name="uniF6BA" unicode="&#xf6ba;" horiz-adv-x="294" 
d="M38 368h219v-61h-219v61z" />
    <glyph glyph-name="uniF6BB" unicode="&#xf6bb;" horiz-adv-x="458" 
d="M38 368h382v-61h-382v61z" />
    <glyph glyph-name="uniF6BC" unicode="&#xf6bc;" horiz-adv-x="849" 
d="M38 368h773v-61h-773v61z" />
    <glyph glyph-name="uniF6BD" unicode="&#xf6bd;" horiz-adv-x="218" 
d="M109 267h-1c-40 0 -66 29 -66 70c0 40 26 70 67 70s68 -30 67 -70c-1 -41 -26 -70 -67 -70z" />
    <glyph glyph-name="uniF633" unicode="&#xf633;" horiz-adv-x="818" 
d="M358 166h1c59 0 114 114 146 230c7 27 15 55 20 81c-8 12 -24 19 -44 19c-86 0 -156 -170 -156 -272c0 -42 10 -58 33 -58zM537 513h96c-20 -75 -54 -221 -69 -294c-12 -54 -14 -81 17 -81c71 0 160 84 160 254c0 188 -128 286 -285 286c-222 0 -333 -176 -333 -409
c0 -147 70 -322 295 -322c115 0 178 33 254 126l8 -12c-76 -110 -177 -155 -295 -155c-177 0 -340 97 -340 359c0 281 184 436 414 436c211 0 318 -115 318 -301c0 -157 -96 -293 -239 -293c-56 0 -101 28 -67 138l-3 1c-34 -57 -96 -139 -177 -139c-35 0 -69 26 -69 100
c0 120 70 311 245 311c24 0 49 -7 67 -18z" />
    <glyph glyph-name="exclam.sc" unicode="&#xf721;" horiz-adv-x="270" 
d="M144 193h-19l-62 267c-17 65 -3 99 72 99c76 0 88 -34 71 -99zM135 -12h-1c-42 0 -69 31 -69 74s27 74 70 74c45 0 73 -31 72 -74s-27 -74 -72 -74z" />
    <glyph glyph-name="hungarumlaut.sc" unicode="&#xf6f8;" horiz-adv-x="382" 
d="M97 547l-14 11l41 100c16 38 26 59 46 59c22 0 47 -21 47 -42c0 -23 -22 -38 -41 -56zM245 547l-13 11l40 100c16 38 27 59 46 59c23 0 47 -21 47 -42c0 -23 -21 -38 -40 -56z" />
    <glyph glyph-name="ampersand.sc" unicode="&#xf726;" horiz-adv-x="619" 
d="M263 519h1c87 0 139 -48 139 -117c0 -62 -61 -79 -128 -109c36 -40 107 -114 168 -165c19 25 31 67 31 106c0 29 -11 57 -16 75c23 22 63 34 78 34c17 -16 23 -42 23 -65c0 -56 -60 -131 -100 -165c49 -44 107 -89 138 -100l-6 -19l-56 1c-67 1 -126 9 -174 42
c-50 -33 -97 -47 -147 -47c-97 0 -175 42 -175 150c0 58 25 86 108 127c-26 34 -38 68 -38 108c0 80 55 144 154 144zM261 495h-1c-28 0 -54 -20 -54 -75c0 -39 26 -82 56 -113c31 21 56 52 56 106c0 48 -21 82 -57 82zM285 39h1c26 0 46 6 57 14c-72 57 -143 142 -182 194
c-8 -13 -15 -30 -15 -60c0 -85 66 -148 139 -148z" />
    <glyph glyph-name="acute.sc" unicode="&#xf7b4;" horiz-adv-x="382" 
d="M169 548l-10 14l72 101c25 34 41 54 61 53c22 0 44 -27 44 -48c0 -28 -38 -44 -61 -58z" />
    <glyph glyph-name="question.sc" unicode="&#xf73f;" horiz-adv-x="413" 
d="M212 560h1c97 0 160 -39 160 -114c0 -55 -40 -75 -78 -99c-48 -29 -61 -47 -61 -73c0 -22 19 -37 42 -37c12 0 16 0 22 1l4 -14c-28 -20 -58 -32 -92 -32c-60 0 -92 31 -92 80c0 24 19 50 71 90c42 33 56 71 56 107c0 49 -19 69 -42 69c-33 0 -52 -40 -59 -109
c-2 -22 -16 -29 -40 -29c-31 0 -64 21 -64 56c0 37 53 104 172 104zM209 -12h-1c-42 0 -70 31 -70 74s28 74 71 74c45 0 72 -31 72 -74c-1 -43 -27 -74 -72 -74z" />
    <glyph glyph-name="circumflex.sc" unicode="&#xf6f6;" horiz-adv-x="382" 
d="M304 559l-14 -11l-94 65c-11 7 -12 6 -22 -1l-89 -64l-13 11l102 157h23z" />
    <glyph glyph-name="grave.sc" unicode="&#xf760;" horiz-adv-x="382" 
d="M221 548l-106 62c-22 14 -60 30 -61 58c-1 21 22 48 44 48c20 1 37 -19 61 -53l73 -101z" />
    <glyph glyph-name="a.sc" unicode="&#xf761;" horiz-adv-x="570" 
d="M310 188h-152c-8 -30 -29 -95 -39 -132c-5 -22 5 -27 24 -30l41 -4v-22h-179v22c46 2 60 8 73 41c52 131 119 325 158 443h92c40 -116 131 -366 164 -448c12 -31 28 -35 70 -36v-22h-265v22l44 5c17 3 20 10 14 26c-11 36 -36 106 -45 135zM300 215
c-18 53 -50 152 -66 204h-2c-20 -57 -50 -153 -66 -204h134z" />
    <glyph glyph-name="b.sc" unicode="&#xf762;" horiz-adv-x="548" 
d="M25 505h282c131 0 180 -29 180 -116c0 -62 -40 -102 -129 -115v-7c95 -9 151 -38 151 -123c0 -118 -121 -144 -219 -144h-265v22c62 5 65 8 65 41v378c0 33 -4 37 -65 41v23zM218 455v-178h51c58 0 88 30 88 100c0 66 -30 105 -87 105c-31 0 -52 -3 -52 -27zM218 254
v-183c0 -35 15 -48 62 -48c48 0 91 35 91 119c0 68 -34 112 -101 112h-52z" />
    <glyph glyph-name="c.sc" unicode="&#xf763;" horiz-adv-x="550" 
d="M496 485v-136h-22c-17 55 -47 147 -142 147c-128 0 -152 -149 -152 -237c0 -105 29 -250 160 -250c82 0 118 72 145 150h22l-19 -138c-46 -24 -115 -35 -171 -35c-193 0 -278 85 -278 265c0 76 22 142 69 191c45 49 114 77 226 77c40 0 116 -11 162 -34z" />
    <glyph glyph-name="d.sc" unicode="&#xf764;" horiz-adv-x="607" 
d="M219 457v-393c0 -34 21 -41 66 -41c77 0 142 59 142 233c0 125 -34 225 -147 226c-52 0 -61 -9 -61 -25zM24 505h279c98 0 157 -19 201 -60c44 -42 63 -106 63 -183c0 -232 -165 -262 -297 -262h-246v22c58 2 66 6 66 46v368c0 41 -8 44 -66 46v23z" />
    <glyph glyph-name="e.sc" unicode="&#xf765;" horiz-adv-x="505" 
d="M23 505h420v-141h-23c-21 74 -46 113 -124 113h-51c-20 0 -26 -6 -26 -26v-175h53c56 0 76 15 87 72h23v-175h-23c-11 59 -28 78 -87 78h-53v-167c0 -51 13 -57 87 -57c46 0 76 8 95 29c21 22 36 61 48 100h23l-14 -156h-435v22c58 2 67 6 67 46v368c0 40 -8 44 -67 46
v23z" />
    <glyph glyph-name="f.sc" unicode="&#xf766;" horiz-adv-x="478" 
d="M29 505h418v-140l-23 -1c-21 73 -45 113 -123 113h-55c-21 0 -27 -5 -27 -26v-192h75c52 0 73 7 86 68h24v-171h-24c-14 63 -34 77 -86 77h-75v-165c0 -40 6 -44 78 -46v-22h-268v22c58 2 61 6 61 46v368c0 41 -2 44 -61 46v23z" />
    <glyph glyph-name="g.sc" unicode="&#xf767;" horiz-adv-x="594" 
d="M513 485v-146h-23c-27 87 -67 157 -157 157c-115 0 -153 -124 -153 -237c0 -117 39 -250 152 -250c21 0 35 2 45 7c10 6 12 13 12 27v130c0 39 -7 43 -70 46v22h246v-22c-39 -3 -46 -7 -46 -45v-155c-51 -18 -132 -33 -188 -33c-102 0 -156 14 -200 45
c-55 39 -92 107 -92 218c0 124 62 270 295 270c89 0 145 -21 179 -34z" />
    <glyph glyph-name="h.sc" unicode="&#xf768;" horiz-adv-x="626" 
d="M219 282h188v154c0 41 -4 44 -62 46v23h255v-23c-57 -2 -64 -6 -64 -46v-368c0 -39 6 -44 64 -46v-22h-255v22c57 2 62 6 62 46v187h-188v-187c0 -40 5 -44 62 -46v-22h-255v22c57 2 64 6 64 46v368c0 41 -7 44 -64 46v23h255v-23c-57 -2 -62 -6 -62 -46v-154z" />
    <glyph glyph-name="i.sc" unicode="&#xf769;" horiz-adv-x="309" 
d="M218 68c0 -39 7 -44 64 -46v-22h-258v22c58 2 65 6 65 46v368c0 41 -7 44 -65 46v23h258v-23c-57 -2 -64 -6 -64 -46v-368z" />
    <glyph glyph-name="j.sc" unicode="&#xf76a;" horiz-adv-x="300" 
d="M219 436v-336c0 -110 -25 -154 -90 -183c-35 -16 -78 -20 -113 -19l-4 20c26 8 37 11 52 30c19 20 26 68 26 143v345c0 41 -4 44 -61 46v23h251v-23c-58 -2 -61 -5 -61 -46z" />
    <glyph glyph-name="k.sc" unicode="&#xf76b;" horiz-adv-x="574" 
d="M218 68c0 -40 6 -45 64 -48v-20h-258v22c57 2 65 6 65 46v368c0 41 -8 44 -65 46v23h259v-23c-58 -2 -65 -5 -65 -46v-368zM356 505h202v-22c-47 -3 -69 -7 -99 -30c-42 -33 -88 -74 -140 -130c34 -62 120 -192 183 -261c32 -34 47 -42 74 -47l-1 -22h-50
c-88 1 -139 6 -188 69c-41 51 -75 117 -115 188v6c62 58 147 145 189 199c12 16 6 22 -6 23l-49 5v22z" />
    <glyph glyph-name="l.sc" unicode="&#xf76c;" horiz-adv-x="471" 
d="M438 0h-413v22c57 2 65 5 65 46v368c0 39 -8 44 -65 46v23h264v-23c-67 -2 -70 -6 -70 -46v-353c0 -49 6 -56 73 -56c39 0 72 6 91 24c21 21 33 63 50 109h22z" />
    <glyph glyph-name="m.sc" unicode="&#xf76d;" horiz-adv-x="712" 
d="M203 0h-185v22l33 4c18 2 32 16 35 41s4 51 4 106v263c0 41 -7 44 -66 46v23h202c36 -94 104 -257 136 -330h1c41 100 91 219 131 330h193v-23c-56 -2 -65 -6 -65 -46v-368c0 -40 8 -44 65 -46v-22h-259v22c58 2 68 6 68 46v366h-2c-41 -107 -120 -318 -158 -434h-47
c-24 65 -124 333 -165 442h-3v-269c0 -55 1 -80 4 -106c3 -25 15 -40 39 -41l39 -4v-22z" />
    <glyph glyph-name="n.sc" unicode="&#xf76e;" horiz-adv-x="571" 
d="M21 505h191c83 -122 162 -232 244 -350l3 1v185c0 54 -2 70 -5 97c-2 25 -17 38 -38 40l-42 4v23h184v-23l-31 -4c-19 -2 -29 -14 -32 -39c-3 -26 -5 -44 -5 -98v-341h-91c-91 137 -181 271 -275 415h-3v-243c0 -55 2 -77 4 -102c3 -25 16 -41 38 -43l41 -4v-23h-186v23
l34 4c17 2 31 18 34 43s4 47 4 102v264c0 40 -12 44 -69 46v23z" />
    <glyph glyph-name="o.sc" unicode="&#xf76f;" horiz-adv-x="605" 
d="M302 496h-1c-89 0 -121 -97 -121 -244c0 -115 20 -243 122 -243c99 0 122 108 122 243c0 90 -12 244 -122 244zM302 519h1c181 0 263 -102 263 -267c0 -164 -80 -266 -264 -266c-181 0 -263 102 -263 266c0 165 83 267 263 267z" />
    <glyph glyph-name="p.sc" unicode="&#xf770;" horiz-adv-x="515" 
d="M218 199v-130c0 -39 7 -43 77 -47v-22h-270v22c57 3 64 6 64 46v368c0 41 -6 44 -64 46v23h263c105 0 192 -21 192 -148c0 -60 -21 -99 -60 -124c-35 -24 -82 -37 -151 -37c-19 0 -38 1 -51 3zM218 454v-201c0 -26 13 -34 48 -34c61 0 84 59 84 133c0 86 -35 130 -84 130
c-35 0 -48 -6 -48 -28z" />
    <glyph glyph-name="q.sc" unicode="&#xf771;" horiz-adv-x="606" 
d="M303 496h-1c-88 0 -122 -98 -122 -244c0 -113 21 -243 123 -243c98 0 122 113 122 243c0 84 -13 244 -122 244zM304 519h1c181 0 261 -102 261 -267c0 -133 -49 -229 -178 -257c11 -23 33 -53 48 -70c41 -42 73 -49 101 -50c5 0 10 0 15 1l1 -14c-24 -14 -61 -22 -95 -22
c-125 0 -178 80 -212 151c-142 21 -207 117 -207 261c0 165 85 267 265 267z" />
    <glyph glyph-name="r.sc" unicode="&#xf772;" horiz-adv-x="553" 
d="M218 240v-172c0 -40 8 -44 65 -46v-22h-259v22c58 2 66 6 66 46v368c0 41 -8 44 -66 46v23h295c100 0 165 -27 165 -126c0 -72 -59 -109 -126 -119v-5c83 -21 109 -69 123 -141c7 -37 11 -58 29 -75c9 -10 32 -16 46 -17v-22h-76c-69 0 -107 11 -127 69
c-13 36 -17 81 -24 110c-8 34 -28 61 -77 61h-34zM218 453v-190h35c57 0 101 22 101 107c0 78 -39 112 -93 112c-35 0 -43 -5 -43 -29z" />
    <glyph glyph-name="s.sc" unicode="&#xf773;" horiz-adv-x="447" 
d="M378 364h-22c-20 87 -72 132 -129 132c-42 0 -83 -25 -83 -79c0 -58 44 -79 111 -106c124 -50 157 -80 157 -164c0 -78 -46 -161 -206 -161c-48 0 -119 15 -156 41l-12 139h23c25 -89 85 -157 154 -157c60 0 87 29 87 81c0 51 -44 81 -109 109c-84 35 -152 58 -152 166
c0 85 60 154 191 154c62 0 112 -17 146 -33v-122z" />
    <glyph glyph-name="t.sc" unicode="&#xf774;" horiz-adv-x="496" 
d="M312 477v-410c0 -49 32 -42 81 -45v-22h-287v22c50 3 78 -4 78 45v410h-29c-72 0 -90 -37 -113 -123h-23v151h458v-151h-23c-29 88 -40 123 -113 123h-29z" />
    <glyph glyph-name="u.sc" unicode="&#xf775;" horiz-adv-x="611" 
d="M345 505h248v-23c-56 -2 -62 -6 -62 -46v-270c0 -131 -82 -180 -223 -180c-149 0 -226 44 -226 180v270c0 40 -8 44 -63 46v23h253v-23c-56 -2 -62 -6 -62 -46v-288c0 -88 29 -139 99 -139c71 0 99 50 99 137v290c0 40 -8 41 -63 46v23z" />
    <glyph glyph-name="v.sc" unicode="&#xf776;" horiz-adv-x="543" 
d="M384 505h170v-23c-44 -3 -58 -9 -72 -45c-39 -99 -113 -296 -161 -437h-91c-39 110 -146 397 -166 443c-15 32 -27 37 -69 39v23h259v-23l-43 -4c-18 -1 -18 -13 -13 -28c29 -84 94 -258 129 -351h4c32 88 92 267 114 348c5 21 1 29 -19 31l-42 4v23z" />
    <glyph glyph-name="w.sc" unicode="&#xf777;" horiz-adv-x="766" 
d="M-4 505h250v-23l-39 -5c-19 -2 -21 -11 -16 -28c18 -59 70 -234 94 -313h3c7 23 76 342 80 357h89c22 -73 90 -277 121 -375h2c33 111 59 221 83 324c5 24 -2 31 -23 34l-46 6v23h175v-23c-44 -5 -57 -10 -68 -46c-43 -132 -90 -289 -130 -436h-90
c-24 82 -80 255 -114 355h-1c-8 -22 -76 -335 -82 -355h-90c-41 149 -94 312 -136 445c-9 29 -16 33 -62 37v23z" />
    <glyph glyph-name="x.sc" unicode="&#xf778;" horiz-adv-x="558" 
d="M9 505h256v-23l-30 -4c-15 -1 -17 -10 -10 -25c20 -36 60 -100 78 -130h2c32 44 70 101 86 131c7 15 1 23 -11 24l-37 4v23h180v-23c-42 -2 -61 -7 -87 -34c-41 -43 -70 -83 -117 -144c45 -75 102 -163 149 -235c26 -37 37 -44 87 -46v-23h-281v23l40 5c17 3 18 11 11 23
c-17 36 -68 116 -91 154h-2c-34 -49 -75 -110 -97 -151c-9 -17 -6 -25 13 -27l43 -4v-23h-188v23c52 3 61 8 90 42c33 39 81 103 124 165c-45 70 -96 154 -135 214c-22 32 -31 35 -73 38v23z" />
    <glyph glyph-name="y.sc" unicode="&#xf779;" horiz-adv-x="521" 
d="M-4 505h261v-23l-38 -4c-17 -2 -18 -12 -11 -24c28 -54 79 -151 108 -203h2c39 73 73 150 93 198c8 18 0 28 -16 29l-41 4v23h172v-23c-44 -5 -57 -10 -78 -42c-35 -54 -76 -135 -106 -192c-8 -16 -13 -31 -13 -52v-128c0 -40 6 -44 77 -46v-22h-285v22c71 2 79 6 79 46
v120c0 20 -7 37 -15 50c-34 63 -86 153 -118 204c-19 32 -30 37 -71 40v23z" />
    <glyph glyph-name="z.sc" unicode="&#xf77a;" horiz-adv-x="513" 
d="M43 505h423l5 -8c-81 -131 -219 -358 -286 -470h130c108 0 118 43 149 132h24l-18 -159h-447l-4 9c84 125 231 367 293 468h-115c-94 0 -111 -43 -130 -130h-24v158z" />
    <glyph glyph-name="tilde.sc" unicode="&#xf6fe;" horiz-adv-x="382" 
d="M315 668l16 -7c-10 -48 -31 -94 -79 -93c-19 0 -45 11 -68 18c-23 8 -46 17 -64 17c-26 0 -36 -11 -52 -44l-15 7c10 45 34 91 84 91c19 0 45 -9 67 -16c23 -8 44 -17 61 -17c21 0 38 7 50 44z" />
    <glyph glyph-name="exclamdown.sc" unicode="&#xf7a1;" horiz-adv-x="270" 
d="M124 310h20l62 -268c17 -65 3 -99 -72 -99c-77 0 -89 34 -72 99zM133 514h1c43 0 70 -30 70 -73s-27 -74 -71 -74s-72 31 -71 73c0 44 27 74 71 74z" />
    <glyph glyph-name="lslash.sc" unicode="&#xf6f9;" horiz-adv-x="480" 
d="M347 331l-118 -57v-191c0 -49 5 -56 74 -56c40 0 73 8 92 28s31 60 47 104h23l-17 -159h-415v24c59 2 66 6 66 46v142l-55 -26l-9 22l64 31v197c0 40 -8 44 -66 46v23h265v-23c-66 -2 -69 -6 -69 -46v-134l110 52z" />
    <glyph glyph-name="scaron.sc" unicode="&#xf6fd;" horiz-adv-x="447" 
d="M378 364h-22c-20 87 -72 132 -129 132c-42 0 -83 -25 -83 -79c0 -58 44 -79 111 -106c124 -50 157 -80 157 -164c0 -78 -46 -161 -206 -161c-48 0 -119 15 -156 41l-12 139h23c25 -89 85 -157 154 -157c60 0 87 29 87 81c0 51 -44 81 -109 109c-84 35 -152 58 -152 166
c0 85 60 154 191 154c62 0 112 -17 146 -33v-122zM105 704l15 13l92 -65c12 -8 12 -8 22 -1l90 66l13 -13l-103 -156h-22z" />
    <glyph glyph-name="zcaron.sc" unicode="&#xf6ff;" horiz-adv-x="513" 
d="M43 505h423l5 -8c-81 -131 -219 -358 -286 -470h130c108 0 118 43 149 132h24l-18 -159h-447l-4 9c84 125 231 367 293 468h-115c-94 0 -111 -43 -130 -130h-24v158zM138 704l15 13l92 -65c12 -8 12 -8 22 -1l90 66l13 -13l-103 -156h-22z" />
    <glyph glyph-name="dieresis.sc" unicode="&#xf7a8;" horiz-adv-x="382" 
d="M93 690h1c39 0 62 -29 62 -63c0 -35 -25 -64 -63 -64c-41 0 -64 29 -64 64c0 34 23 63 64 63zM288 690h1c39 0 62 -29 62 -63c0 -35 -24 -64 -63 -64c-40 0 -63 29 -63 64c0 34 23 63 63 63z" />
    <glyph glyph-name="breve.sc" unicode="&#xf6f4;" horiz-adv-x="382" 
d="M192 562h-1c-104 0 -109 59 -109 123h21c0 -24 16 -62 89 -62c75 0 86 38 87 62h22c0 -60 -7 -123 -109 -123z" />
    <glyph glyph-name="caron.sc" unicode="&#xf6f5;" horiz-adv-x="382" 
d="M72 704l15 13l92 -65c12 -8 12 -8 22 -1l90 66l13 -13l-103 -156h-22z" />
    <glyph glyph-name="dotaccent.sc" unicode="&#xf6f7;" horiz-adv-x="382" 
d="M191 695h1c41 0 65 -30 65 -67c0 -36 -25 -66 -66 -66c-43 0 -67 30 -67 66c0 37 24 67 67 67z" />
    <glyph glyph-name="macron.sc" unicode="&#xf7af;" horiz-adv-x="382" 
d="M77 632h231v-53h-231v53z" />
    <glyph glyph-name="ogonek.sc" unicode="&#xf6fb;" horiz-adv-x="398" 
d="M249 14h16c-50 -43 -79 -86 -79 -140c0 -32 21 -62 55 -62c20 0 40 7 59 23l8 -12c-35 -48 -76 -67 -119 -67c-57 0 -84 33 -84 81c0 71 79 145 144 177z" />
    <glyph glyph-name="ring.sc" unicode="&#xf6fc;" horiz-adv-x="382" 
d="M191 681h-1c-25 0 -45 -22 -45 -67c0 -44 20 -67 46 -67c25 0 46 23 46 67c0 45 -21 67 -46 67zM191 702h1c46 0 93 -23 93 -88c0 -66 -47 -88 -94 -88s-95 22 -95 88c0 65 48 88 95 88z" />
    <glyph glyph-name="cedilla.sc" unicode="&#xf7b8;" horiz-adv-x="398" 
d="M196 0h24l-34 -52c37 -6 93 -20 93 -79c0 -76 -62 -87 -106 -87c-23 0 -42 5 -53 12l3 17c11 -3 24 -3 31 -3c32 0 49 17 49 52c0 40 -39 51 -58 52l-3 7z" />
    <glyph glyph-name="questiondown.sc" unicode="&#xf7bf;" horiz-adv-x="413" 
d="M204 514h1c42 0 70 -30 70 -73s-28 -74 -71 -74c-45 0 -73 31 -72 74s27 73 72 73zM201 -57h-1c-98 0 -160 40 -160 115c0 54 39 74 77 98c48 30 61 47 61 73c0 23 -19 38 -41 38c-12 0 -17 0 -24 -1l-2 14c27 19 57 32 91 32c60 0 93 -32 93 -80c0 -25 -19 -51 -71 -91
c-42 -33 -56 -70 -56 -107c0 -48 19 -68 41 -68c34 0 52 39 60 109c2 21 16 28 40 28c32 0 64 -20 64 -55c0 -38 -53 -105 -172 -105z" />
    <glyph glyph-name="agrave.sc" unicode="&#xf7e0;" horiz-adv-x="570" 
d="M310 188h-152c-8 -30 -29 -95 -39 -132c-5 -22 5 -27 24 -30l41 -4v-22h-179v22c46 2 60 8 73 41c52 131 119 325 158 443h92c40 -116 131 -366 164 -448c12 -31 28 -35 70 -36v-22h-265v22l44 5c17 3 20 10 14 26c-11 36 -36 106 -45 135zM300 215
c-18 53 -50 152 -66 204h-2c-20 -57 -50 -153 -66 -204h134zM308 548l-106 62c-22 14 -60 30 -61 58c-1 21 22 48 44 48c20 1 37 -19 61 -53l73 -101z" />
    <glyph glyph-name="aacute.sc" unicode="&#xf7e1;" horiz-adv-x="570" 
d="M310 188h-152c-8 -30 -29 -95 -39 -132c-5 -22 5 -27 24 -30l41 -4v-22h-179v22c46 2 60 8 73 41c52 131 119 325 158 443h92c40 -116 131 -366 164 -448c12 -31 28 -35 70 -36v-22h-265v22l44 5c17 3 20 10 14 26c-11 36 -36 106 -45 135zM300 215
c-18 53 -50 152 -66 204h-2c-20 -57 -50 -153 -66 -204h134zM263 548l-10 14l72 101c25 34 41 54 61 53c22 0 44 -27 44 -48c0 -28 -38 -44 -61 -58z" />
    <glyph glyph-name="acircumflex.sc" unicode="&#xf7e2;" horiz-adv-x="570" 
d="M310 188h-152c-8 -30 -29 -95 -39 -132c-5 -22 5 -27 24 -30l41 -4v-22h-179v22c46 2 60 8 73 41c52 131 119 325 158 443h92c40 -116 131 -366 164 -448c12 -31 28 -35 70 -36v-22h-265v22l44 5c17 3 20 10 14 26c-11 36 -36 106 -45 135zM300 215
c-18 53 -50 152 -66 204h-2c-20 -57 -50 -153 -66 -204h134zM395 559l-14 -11l-94 65c-11 7 -12 6 -22 -1l-89 -64l-13 11l102 157h23z" />
    <glyph glyph-name="atilde.sc" unicode="&#xf7e3;" horiz-adv-x="570" 
d="M310 188h-152c-8 -30 -29 -95 -39 -132c-5 -22 5 -27 24 -30l41 -4v-22h-179v22c46 2 60 8 73 41c52 131 119 325 158 443h92c40 -116 131 -366 164 -448c12 -31 28 -35 70 -36v-22h-265v22l44 5c17 3 20 10 14 26c-11 36 -36 106 -45 135zM300 215
c-18 53 -50 152 -66 204h-2c-20 -57 -50 -153 -66 -204h134zM406 662l16 -7c-10 -48 -31 -94 -79 -93c-19 0 -45 11 -68 18c-23 8 -46 17 -64 17c-26 0 -36 -11 -52 -44l-15 7c10 45 34 91 84 91c19 0 45 -9 67 -16c23 -8 44 -17 61 -17c21 0 38 7 50 44z" />
    <glyph glyph-name="adieresis.sc" unicode="&#xf7e4;" horiz-adv-x="570" 
d="M310 188h-152c-8 -30 -29 -95 -39 -132c-5 -22 5 -27 24 -30l41 -4v-22h-179v22c46 2 60 8 73 41c52 131 119 325 158 443h92c40 -116 131 -366 164 -448c12 -31 28 -35 70 -36v-22h-265v22l44 5c17 3 20 10 14 26c-11 36 -36 106 -45 135zM300 215
c-18 53 -50 152 -66 204h-2c-20 -57 -50 -153 -66 -204h134zM184 680h1c39 0 62 -29 62 -63c0 -35 -25 -64 -63 -64c-41 0 -64 29 -64 64c0 34 23 63 64 63zM379 680h1c39 0 62 -29 62 -63c0 -35 -24 -64 -63 -64c-40 0 -63 29 -63 64c0 34 23 63 63 63z" />
    <glyph glyph-name="aring.sc" unicode="&#xf7e5;" horiz-adv-x="570" 
d="M310 188h-152c-8 -30 -29 -95 -39 -132c-5 -22 5 -27 24 -30l41 -4v-22h-179v22c46 2 60 8 73 41c52 131 119 325 158 443h92c40 -116 131 -366 164 -448c12 -31 28 -35 70 -36v-22h-265v22l44 5c17 3 20 10 14 26c-11 36 -36 106 -45 135zM300 215
c-18 53 -50 152 -66 204h-2c-20 -57 -50 -153 -66 -204h134zM281 685h-1c-25 0 -45 -22 -45 -67c0 -44 20 -67 46 -67c25 0 46 23 46 67c0 45 -21 67 -46 67zM281 706h1c46 0 93 -23 93 -88c0 -66 -47 -88 -94 -88s-95 22 -95 88c0 65 48 88 95 88z" />
    <glyph glyph-name="ae.sc" unicode="&#xf7e6;" horiz-adv-x="743" 
d="M332 231h-140c-40 -82 -63 -130 -81 -174c-8 -18 -5 -25 15 -28l44 -7v-22h-177v22c43 2 60 11 77 42c57 100 160 300 203 385c10 20 6 28 -9 29l-70 4v23h487v-141h-23c-21 74 -46 113 -124 113h-51c-19 0 -25 -5 -25 -26v-194h58c57 0 76 15 86 72h23v-175h-23
c-10 59 -27 78 -86 78h-58v-148c0 -49 10 -57 87 -57c45 0 75 7 94 27c20 22 35 63 48 102h24l-15 -156h-429v22c58 2 66 8 66 46zM332 257v219h-18c-34 -62 -83 -163 -110 -219h128z" />
    <glyph glyph-name="ccedilla.sc" unicode="&#xf7e7;" horiz-adv-x="550" 
d="M493 485v-136h-22c-17 55 -47 147 -141 147c-129 0 -150 -149 -150 -237c0 -105 29 -250 161 -250c81 0 117 72 143 150h22l-18 -138c-43 -22 -108 -33 -161 -35l-26 -38c38 -7 95 -21 95 -81c0 -77 -63 -88 -108 -88c-23 0 -43 5 -54 11l4 18c11 -2 24 -3 31 -3
c32 0 50 17 50 53c0 41 -41 52 -60 54l-2 6l45 68c-182 5 -264 93 -264 268c0 76 21 140 68 189c45 48 113 76 225 76c40 0 116 -11 162 -34z" />
    <glyph glyph-name="egrave.sc" unicode="&#xf7e8;" horiz-adv-x="505" 
d="M23 505h420v-141h-23c-21 74 -46 113 -124 113h-51c-20 0 -26 -6 -26 -26v-175h53c56 0 76 15 87 72h23v-175h-23c-11 59 -28 78 -87 78h-53v-167c0 -51 13 -57 87 -57c46 0 76 8 95 29c21 22 36 61 48 100h23l-14 -156h-435v22c58 2 67 6 67 46v368c0 40 -8 44 -67 46
v23zM283 548l-106 62c-22 14 -60 30 -61 58c-1 21 22 48 44 48c20 1 37 -19 61 -53l73 -101z" />
    <glyph glyph-name="eacute.sc" unicode="&#xf7e9;" horiz-adv-x="505" 
d="M23 505h420v-141h-23c-21 74 -46 113 -124 113h-51c-20 0 -26 -6 -26 -26v-175h53c56 0 76 15 87 72h23v-175h-23c-11 59 -28 78 -87 78h-53v-167c0 -51 13 -57 87 -57c46 0 76 8 95 29c21 22 36 61 48 100h23l-14 -156h-435v22c58 2 67 6 67 46v368c0 40 -8 44 -67 46
v23zM231 548l-10 14l72 101c25 34 41 54 61 53c22 0 44 -27 44 -48c0 -28 -38 -44 -61 -58z" />
    <glyph glyph-name="ecircumflex.sc" unicode="&#xf7ea;" horiz-adv-x="505" 
d="M23 505h420v-141h-23c-21 74 -46 113 -124 113h-51c-20 0 -26 -6 -26 -26v-175h53c56 0 76 15 87 72h23v-175h-23c-11 59 -28 78 -87 78h-53v-167c0 -51 13 -57 87 -57c46 0 76 8 95 29c21 22 36 61 48 100h23l-14 -156h-435v22c58 2 67 6 67 46v368c0 40 -8 44 -67 46
v23zM366 559l-14 -11l-94 65c-11 7 -12 6 -22 -1l-89 -64l-13 11l102 157h23z" />
    <glyph glyph-name="edieresis.sc" unicode="&#xf7eb;" horiz-adv-x="505" 
d="M23 505h420v-141h-23c-21 74 -46 113 -124 113h-51c-20 0 -26 -6 -26 -26v-175h53c56 0 76 15 87 72h23v-175h-23c-11 59 -28 78 -87 78h-53v-167c0 -51 13 -57 87 -57c46 0 76 8 95 29c21 22 36 61 48 100h23l-14 -156h-435v22c58 2 67 6 67 46v368c0 40 -8 44 -67 46
v23zM155 690h1c39 0 62 -29 62 -63c0 -35 -25 -64 -63 -64c-41 0 -64 29 -64 64c0 34 23 63 64 63zM350 690h1c39 0 62 -29 62 -63c0 -35 -24 -64 -63 -64c-40 0 -63 29 -63 64c0 34 23 63 63 63z" />
    <glyph glyph-name="igrave.sc" unicode="&#xf7ec;" horiz-adv-x="309" 
d="M218 68c0 -39 7 -44 64 -46v-22h-258v22c58 2 65 6 65 46v368c0 41 -7 44 -65 46v23h258v-23c-57 -2 -64 -6 -64 -46v-368zM185 548l-106 62c-22 14 -60 30 -61 58c-1 21 22 48 44 48c20 1 37 -19 61 -53l73 -101z" />
    <glyph glyph-name="iacute.sc" unicode="&#xf7ed;" horiz-adv-x="309" 
d="M218 68c0 -39 7 -44 64 -46v-22h-258v22c58 2 65 6 65 46v368c0 41 -7 44 -65 46v23h258v-23c-57 -2 -64 -6 -64 -46v-368zM133 548l-10 14l72 101c25 34 41 54 61 53c22 0 44 -27 44 -48c0 -28 -38 -44 -61 -58z" />
    <glyph glyph-name="icircumflex.sc" unicode="&#xf7ee;" horiz-adv-x="309" 
d="M218 68c0 -39 7 -44 64 -46v-22h-258v22c58 2 65 6 65 46v368c0 41 -7 44 -65 46v23h258v-23c-57 -2 -64 -6 -64 -46v-368zM268 559l-14 -11l-94 65c-11 7 -12 6 -22 -1l-89 -64l-13 11l102 157h23z" />
    <glyph glyph-name="idieresis.sc" unicode="&#xf7ef;" horiz-adv-x="309" 
d="M218 68c0 -39 7 -44 64 -46v-22h-258v22c58 2 65 6 65 46v368c0 41 -7 44 -65 46v23h258v-23c-57 -2 -64 -6 -64 -46v-368zM57 690h1c39 0 62 -29 62 -63c0 -35 -25 -64 -63 -64c-41 0 -64 29 -64 64c0 34 23 63 64 63zM252 690h1c39 0 62 -29 62 -63
c0 -35 -24 -64 -63 -64c-40 0 -63 29 -63 64c0 34 23 63 63 63z" />
    <glyph glyph-name="eth.sc" unicode="&#xf7f0;" horiz-adv-x="616" 
d="M99 275v161c0 41 -7 44 -65 46v23h277c97 0 159 -19 203 -60c44 -42 63 -106 63 -183c0 -232 -167 -262 -299 -262h-244v22c58 2 65 6 65 46v181h-70v26h70zM331 275v-26h-102v-185c0 -34 18 -41 62 -41c79 0 146 59 146 233c0 125 -38 225 -150 226
c-53 0 -58 -9 -58 -25v-182h102z" />
    <glyph glyph-name="ntilde.sc" unicode="&#xf7f1;" horiz-adv-x="571" 
d="M21 505h191c83 -122 162 -232 244 -350l3 1v185c0 54 -2 70 -5 97c-2 25 -17 38 -38 40l-42 4v23h184v-23l-31 -4c-19 -2 -29 -14 -32 -39c-3 -26 -5 -44 -5 -98v-341h-91c-91 137 -181 271 -275 415h-3v-243c0 -55 2 -77 4 -102c3 -25 16 -41 38 -43l41 -4v-23h-186v23
l34 4c17 2 31 18 34 43s4 47 4 102v264c0 40 -12 44 -69 46v23zM413 668l16 -7c-10 -48 -31 -94 -79 -93c-19 0 -45 11 -68 18c-23 8 -46 17 -64 17c-26 0 -36 -11 -52 -44l-15 7c10 45 34 91 84 91c19 0 45 -9 67 -16c23 -8 44 -17 61 -17c21 0 38 7 50 44z" />
    <glyph glyph-name="ograve.sc" unicode="&#xf7f2;" horiz-adv-x="605" 
d="M302 496h-1c-89 0 -121 -97 -121 -244c0 -115 20 -243 122 -243c99 0 122 108 122 243c0 90 -12 244 -122 244zM302 519h1c181 0 263 -102 263 -267c0 -164 -80 -266 -264 -266c-181 0 -263 102 -263 266c0 165 83 267 263 267zM333 548l-106 62c-22 14 -60 30 -61 58
c-1 21 22 48 44 48c20 1 37 -19 61 -53l73 -101z" />
    <glyph glyph-name="oacute.sc" unicode="&#xf7f3;" horiz-adv-x="605" 
d="M302 496h-1c-89 0 -121 -97 -121 -244c0 -115 20 -243 122 -243c99 0 122 108 122 243c0 90 -12 244 -122 244zM302 519h1c181 0 263 -102 263 -267c0 -164 -80 -266 -264 -266c-181 0 -263 102 -263 266c0 165 83 267 263 267zM281 548l-10 14l72 101c25 34 41 54 61 53
c22 0 44 -27 44 -48c0 -28 -38 -44 -61 -58z" />
    <glyph glyph-name="ocircumflex.sc" unicode="&#xf7f4;" horiz-adv-x="605" 
d="M302 496h-1c-89 0 -121 -97 -121 -244c0 -115 20 -243 122 -243c99 0 122 108 122 243c0 90 -12 244 -122 244zM302 519h1c181 0 263 -102 263 -267c0 -164 -80 -266 -264 -266c-181 0 -263 102 -263 266c0 165 83 267 263 267zM416 559l-14 -11l-94 65
c-11 7 -12 6 -22 -1l-89 -64l-13 11l102 157h23z" />
    <glyph glyph-name="otilde.sc" unicode="&#xf7f5;" horiz-adv-x="605" 
d="M302 496h-1c-89 0 -121 -97 -121 -244c0 -115 20 -243 122 -243c99 0 122 108 122 243c0 90 -12 244 -122 244zM302 519h1c181 0 263 -102 263 -267c0 -164 -80 -266 -264 -266c-181 0 -263 102 -263 266c0 165 83 267 263 267zM427 668l16 -7c-10 -48 -31 -94 -79 -93
c-19 0 -45 11 -68 18c-23 8 -46 17 -64 17c-26 0 -36 -11 -52 -44l-15 7c10 45 34 91 84 91c19 0 45 -9 67 -16c23 -8 44 -17 61 -17c21 0 38 7 50 44z" />
    <glyph glyph-name="odieresis.sc" unicode="&#xf7f6;" horiz-adv-x="605" 
d="M302 496h-1c-89 0 -121 -97 -121 -244c0 -115 20 -243 122 -243c99 0 122 108 122 243c0 90 -12 244 -122 244zM302 519h1c181 0 263 -102 263 -267c0 -164 -80 -266 -264 -266c-181 0 -263 102 -263 266c0 165 83 267 263 267zM205 684h1c39 0 62 -29 62 -63
c0 -35 -25 -64 -63 -64c-41 0 -64 29 -64 64c0 34 23 63 64 63zM400 684h1c39 0 62 -29 62 -63c0 -35 -24 -64 -63 -64c-40 0 -63 29 -63 64c0 34 23 63 63 63z" />
    <glyph glyph-name="oe.sc" unicode="&#xf6fa;" horiz-adv-x="833" 
d="M419 61v383c0 32 -30 44 -73 44c-143 0 -169 -131 -169 -236c0 -102 32 -235 171 -235c42 0 71 12 71 44zM481 0c-57 0 -94 -6 -149 -6c-92 0 -145 8 -199 44c-57 36 -94 111 -94 208c0 105 39 177 96 215c56 37 110 50 206 50c42 0 100 -6 135 -6h296l-1 -141h-23
c-21 74 -46 113 -123 113h-51c-21 0 -26 -6 -26 -26v-175h53c57 0 76 15 86 72h23v-175h-23c-10 59 -26 78 -86 78h-53v-167c0 -50 14 -57 87 -57c49 0 78 9 98 32c18 21 33 61 44 97h24l-15 -156h-305z" />
    <glyph glyph-name="oslash.sc" unicode="&#xf7f8;" horiz-adv-x="605" 
d="M198 107l198 324c-17 38 -46 65 -94 65c-90 0 -125 -93 -125 -244c0 -51 7 -102 21 -145zM406 401l-198 -325c18 -40 47 -67 94 -67c99 0 125 103 125 243c0 47 -6 103 -21 149zM484 524l-26 -42c74 -43 108 -122 108 -230c0 -164 -80 -266 -264 -266
c-53 0 -96 10 -133 25l-32 -52l-21 14l30 50c-73 44 -107 123 -107 229c0 165 83 267 263 267c52 0 98 -9 134 -25l28 44z" />
    <glyph glyph-name="ugrave.sc" unicode="&#xf7f9;" horiz-adv-x="611" 
d="M345 505h248v-23c-56 -2 -62 -6 -62 -46v-270c0 -131 -82 -180 -223 -180c-149 0 -226 44 -226 180v270c0 40 -8 44 -63 46v23h253v-23c-56 -2 -62 -6 -62 -46v-288c0 -88 29 -139 99 -139c71 0 99 50 99 137v290c0 40 -8 41 -63 46v23zM332 548l-106 62
c-22 14 -60 30 -61 58c-1 21 22 48 44 48c20 1 37 -19 61 -53l73 -101z" />
    <glyph glyph-name="uacute.sc" unicode="&#xf7fa;" horiz-adv-x="611" 
d="M345 505h248v-23c-56 -2 -62 -6 -62 -46v-270c0 -131 -82 -180 -223 -180c-149 0 -226 44 -226 180v270c0 40 -8 44 -63 46v23h253v-23c-56 -2 -62 -6 -62 -46v-288c0 -88 29 -139 99 -139c71 0 99 50 99 137v290c0 40 -8 41 -63 46v23zM284 548l-10 14l72 101
c25 34 41 54 61 53c22 0 44 -27 44 -48c0 -28 -38 -44 -61 -58z" />
    <glyph glyph-name="ucircumflex.sc" unicode="&#xf7fb;" horiz-adv-x="611" 
d="M345 505h248v-23c-56 -2 -62 -6 -62 -46v-270c0 -131 -82 -180 -223 -180c-149 0 -226 44 -226 180v270c0 40 -8 44 -63 46v23h253v-23c-56 -2 -62 -6 -62 -46v-288c0 -88 29 -139 99 -139c71 0 99 50 99 137v290c0 40 -8 41 -63 46v23zM419 559l-14 -11l-94 65
c-11 7 -12 6 -22 -1l-89 -64l-13 11l102 157h23z" />
    <glyph glyph-name="udieresis.sc" unicode="&#xf7fc;" horiz-adv-x="611" 
d="M345 505h248v-23c-56 -2 -62 -6 -62 -46v-270c0 -131 -82 -180 -223 -180c-149 0 -226 44 -226 180v270c0 40 -8 44 -63 46v23h253v-23c-56 -2 -62 -6 -62 -46v-288c0 -88 29 -139 99 -139c71 0 99 50 99 137v290c0 40 -8 41 -63 46v23zM208 684h1c39 0 62 -29 62 -63
c0 -35 -25 -64 -63 -64c-41 0 -64 29 -64 64c0 34 23 63 64 63zM403 684h1c39 0 62 -29 62 -63c0 -35 -24 -64 -63 -64c-40 0 -63 29 -63 64c0 34 23 63 63 63z" />
    <glyph glyph-name="yacute.sc" unicode="&#xf7fd;" horiz-adv-x="521" 
d="M-4 505h261v-23l-38 -4c-17 -2 -18 -12 -11 -24c28 -54 79 -151 108 -203h2c39 73 73 150 93 198c8 18 0 28 -16 29l-41 4v23h172v-23c-44 -5 -57 -10 -78 -42c-35 -54 -76 -135 -106 -192c-8 -16 -13 -31 -13 -52v-128c0 -40 6 -44 77 -46v-22h-285v22c71 2 79 6 79 46
v120c0 20 -7 37 -15 50c-34 63 -86 153 -118 204c-19 32 -30 37 -71 40v23zM246 561l-10 14l72 101c25 34 41 54 61 53c22 0 44 -27 44 -48c0 -28 -38 -44 -61 -58z" />
    <glyph glyph-name="thorn.sc" unicode="&#xf7fe;" horiz-adv-x="515" 
d="M281 0h-253v22c58 2 62 7 62 46v369c0 39 -3 43 -62 45v23h246v-23c-56 -2 -59 -6 -59 -45v-26h90c116 0 174 -36 174 -143c0 -134 -112 -157 -215 -157c-22 0 -38 2 -49 3v-46c0 -40 3 -43 66 -48v-20zM215 359v-193c0 -23 18 -32 52 -32c60 0 84 58 84 131
c0 87 -42 123 -92 123c-40 0 -44 -5 -44 -29z" />
    <glyph glyph-name="ydieresis.sc" unicode="&#xf7ff;" horiz-adv-x="521" 
d="M-4 505h261v-23l-38 -4c-17 -2 -18 -12 -11 -24c28 -54 79 -151 108 -203h2c39 73 73 150 93 198c8 18 0 28 -16 29l-41 4v23h172v-23c-44 -5 -57 -10 -78 -42c-35 -54 -76 -135 -106 -192c-8 -16 -13 -31 -13 -52v-128c0 -40 6 -44 77 -46v-22h-285v22c71 2 79 6 79 46
v120c0 20 -7 37 -15 50c-34 63 -86 153 -118 204c-19 32 -30 37 -71 40v23zM178 690h1c39 0 62 -29 62 -63c0 -35 -25 -64 -63 -64c-41 0 -64 29 -64 64c0 34 23 63 64 63zM373 690h1c39 0 62 -29 62 -63c0 -35 -24 -64 -63 -64c-40 0 -63 29 -63 64c0 34 23 63 63 63z" />
    <glyph glyph-name="A.sc" unicode="&#xe000;" horiz-adv-x="570" 
d="M310 188h-152c-8 -30 -29 -95 -39 -132c-5 -22 5 -27 24 -30l41 -4v-22h-179v22c46 2 60 8 73 41c52 131 119 325 158 443h92c40 -116 131 -366 164 -448c12 -31 28 -35 70 -36v-22h-265v22l44 5c17 3 20 10 14 26c-11 36 -36 106 -45 135zM300 215
c-18 53 -50 152 -66 204h-2c-20 -57 -50 -153 -66 -204h134z" />
    <glyph glyph-name="Aacute.sc" unicode="&#xe002;" horiz-adv-x="570" 
d="M310 188h-152c-8 -30 -29 -95 -39 -132c-5 -22 5 -27 24 -30l41 -4v-22h-179v22c46 2 60 8 73 41c52 131 119 325 158 443h92c40 -116 131 -366 164 -448c12 -31 28 -35 70 -36v-22h-265v22l44 5c17 3 20 10 14 26c-11 36 -36 106 -45 135zM300 215
c-18 53 -50 152 -66 204h-2c-20 -57 -50 -153 -66 -204h134zM263 548l-10 14l72 101c25 34 41 54 61 53c22 0 44 -27 44 -48c0 -28 -38 -44 -61 -58z" />
    <glyph glyph-name="Acircumflex.sc" unicode="&#xe003;" horiz-adv-x="570" 
d="M310 188h-152c-8 -30 -29 -95 -39 -132c-5 -22 5 -27 24 -30l41 -4v-22h-179v22c46 2 60 8 73 41c52 131 119 325 158 443h92c40 -116 131 -366 164 -448c12 -31 28 -35 70 -36v-22h-265v22l44 5c17 3 20 10 14 26c-11 36 -36 106 -45 135zM300 215
c-18 53 -50 152 -66 204h-2c-20 -57 -50 -153 -66 -204h134zM395 559l-14 -11l-94 65c-11 7 -12 6 -22 -1l-89 -64l-13 11l102 157h23z" />
    <glyph glyph-name="Adieresis.sc" unicode="&#xe004;" horiz-adv-x="570" 
d="M310 188h-152c-8 -30 -29 -95 -39 -132c-5 -22 5 -27 24 -30l41 -4v-22h-179v22c46 2 60 8 73 41c52 131 119 325 158 443h92c40 -116 131 -366 164 -448c12 -31 28 -35 70 -36v-22h-265v22l44 5c17 3 20 10 14 26c-11 36 -36 106 -45 135zM300 215
c-18 53 -50 152 -66 204h-2c-20 -57 -50 -153 -66 -204h134zM184 680h1c39 0 62 -29 62 -63c0 -35 -25 -64 -63 -64c-41 0 -64 29 -64 64c0 34 23 63 64 63zM379 680h1c39 0 62 -29 62 -63c0 -35 -24 -64 -63 -64c-40 0 -63 29 -63 64c0 34 23 63 63 63z" />
    <glyph glyph-name="Agrave.sc" unicode="&#xe005;" horiz-adv-x="570" 
d="M310 188h-152c-8 -30 -29 -95 -39 -132c-5 -22 5 -27 24 -30l41 -4v-22h-179v22c46 2 60 8 73 41c52 131 119 325 158 443h92c40 -116 131 -366 164 -448c12 -31 28 -35 70 -36v-22h-265v22l44 5c17 3 20 10 14 26c-11 36 -36 106 -45 135zM300 215
c-18 53 -50 152 -66 204h-2c-20 -57 -50 -153 -66 -204h134zM308 548l-106 62c-22 14 -60 30 -61 58c-1 21 22 48 44 48c20 1 37 -19 61 -53l73 -101z" />
    <glyph glyph-name="Aring.sc" unicode="&#xe006;" horiz-adv-x="570" 
d="M310 188h-152c-8 -30 -29 -95 -39 -132c-5 -22 5 -27 24 -30l41 -4v-22h-179v22c46 2 60 8 73 41c52 131 119 325 158 443h92c40 -116 131 -366 164 -448c12 -31 28 -35 70 -36v-22h-265v22l44 5c17 3 20 10 14 26c-11 36 -36 106 -45 135zM300 215
c-18 53 -50 152 -66 204h-2c-20 -57 -50 -153 -66 -204h134zM281 685h-1c-25 0 -45 -22 -45 -67c0 -44 20 -67 46 -67c25 0 46 23 46 67c0 45 -21 67 -46 67zM281 706h1c46 0 93 -23 93 -88c0 -66 -47 -88 -94 -88s-95 22 -95 88c0 65 48 88 95 88z" />
    <glyph glyph-name="Atilde.sc" unicode="&#xe007;" horiz-adv-x="570" 
d="M310 188h-152c-8 -30 -29 -95 -39 -132c-5 -22 5 -27 24 -30l41 -4v-22h-179v22c46 2 60 8 73 41c52 131 119 325 158 443h92c40 -116 131 -366 164 -448c12 -31 28 -35 70 -36v-22h-265v22l44 5c17 3 20 10 14 26c-11 36 -36 106 -45 135zM300 215
c-18 53 -50 152 -66 204h-2c-20 -57 -50 -153 -66 -204h134zM406 662l16 -7c-10 -48 -31 -94 -79 -93c-19 0 -45 11 -68 18c-23 8 -46 17 -64 17c-26 0 -36 -11 -52 -44l-15 7c10 45 34 91 84 91c19 0 45 -9 67 -16c23 -8 44 -17 61 -17c21 0 38 7 50 44z" />
    <glyph glyph-name="AE.sc" unicode="&#xe001;" horiz-adv-x="743" 
d="M332 231h-140c-40 -82 -63 -130 -81 -174c-8 -18 -5 -25 15 -28l44 -7v-22h-177v22c43 2 60 11 77 42c57 100 160 300 203 385c10 20 6 28 -9 29l-70 4v23h487v-141h-23c-21 74 -46 113 -124 113h-51c-19 0 -25 -5 -25 -26v-194h58c57 0 76 15 86 72h23v-175h-23
c-10 59 -27 78 -86 78h-58v-148c0 -49 10 -57 87 -57c45 0 75 7 94 27c20 22 35 63 48 102h24l-15 -156h-429v22c58 2 66 8 66 46zM332 257v219h-18c-34 -62 -83 -163 -110 -219h128z" />
    <glyph glyph-name="B.sc" unicode="&#xe008;" horiz-adv-x="548" 
d="M25 505h282c131 0 180 -29 180 -116c0 -62 -40 -102 -129 -115v-7c95 -9 151 -38 151 -123c0 -118 -121 -144 -219 -144h-265v22c62 5 65 8 65 41v378c0 33 -4 37 -65 41v23zM218 455v-178h51c58 0 88 30 88 100c0 66 -30 105 -87 105c-31 0 -52 -3 -52 -27zM218 254
v-183c0 -35 15 -48 62 -48c48 0 91 35 91 119c0 68 -34 112 -101 112h-52z" />
    <glyph glyph-name="C.sc" unicode="&#xe009;" horiz-adv-x="550" 
d="M496 485v-136h-22c-17 55 -47 147 -142 147c-128 0 -152 -149 -152 -237c0 -105 29 -250 160 -250c82 0 118 72 145 150h22l-19 -138c-46 -24 -115 -35 -171 -35c-193 0 -278 85 -278 265c0 76 22 142 69 191c45 49 114 77 226 77c40 0 116 -11 162 -34z" />
    <glyph glyph-name="Ccedilla.sc" unicode="&#xe00a;" horiz-adv-x="550" 
d="M493 485v-136h-22c-17 55 -47 147 -141 147c-129 0 -150 -149 -150 -237c0 -105 29 -250 161 -250c81 0 117 72 143 150h22l-18 -138c-43 -22 -108 -33 -161 -35l-26 -38c38 -7 95 -21 95 -81c0 -77 -63 -88 -108 -88c-23 0 -43 5 -54 11l4 18c11 -2 24 -3 31 -3
c32 0 50 17 50 53c0 41 -41 52 -60 54l-2 6l45 68c-182 5 -264 93 -264 268c0 76 21 140 68 189c45 48 113 76 225 76c40 0 116 -11 162 -34z" />
    <glyph glyph-name="D.sc" unicode="&#xe00b;" horiz-adv-x="607" 
d="M219 457v-393c0 -34 21 -41 66 -41c77 0 142 59 142 233c0 125 -34 225 -147 226c-52 0 -61 -9 -61 -25zM24 505h279c98 0 157 -19 201 -60c44 -42 63 -106 63 -183c0 -232 -165 -262 -297 -262h-246v22c58 2 66 6 66 46v368c0 41 -8 44 -66 46v23z" />
    <glyph glyph-name="Eth.sc" unicode="&#xe011;" horiz-adv-x="616" 
d="M99 275v161c0 41 -7 44 -65 46v23h277c97 0 159 -19 203 -60c44 -42 63 -106 63 -183c0 -232 -167 -262 -299 -262h-244v22c58 2 65 6 65 46v181h-70v26h70zM331 275v-26h-102v-185c0 -34 18 -41 62 -41c79 0 146 59 146 233c0 125 -38 225 -150 226
c-53 0 -58 -9 -58 -25v-182h102z" />
    <glyph glyph-name="E.sc" unicode="&#xe00c;" horiz-adv-x="505" 
d="M23 505h420v-141h-23c-21 74 -46 113 -124 113h-51c-20 0 -26 -6 -26 -26v-175h53c56 0 76 15 87 72h23v-175h-23c-11 59 -28 78 -87 78h-53v-167c0 -51 13 -57 87 -57c46 0 76 8 95 29c21 22 36 61 48 100h23l-14 -156h-435v22c58 2 67 6 67 46v368c0 40 -8 44 -67 46
v23z" />
    <glyph glyph-name="Eacute.sc" unicode="&#xe00d;" horiz-adv-x="505" 
d="M23 505h420v-141h-23c-21 74 -46 113 -124 113h-51c-20 0 -26 -6 -26 -26v-175h53c56 0 76 15 87 72h23v-175h-23c-11 59 -28 78 -87 78h-53v-167c0 -51 13 -57 87 -57c46 0 76 8 95 29c21 22 36 61 48 100h23l-14 -156h-435v22c58 2 67 6 67 46v368c0 40 -8 44 -67 46
v23zM231 548l-10 14l72 101c25 34 41 54 61 53c22 0 44 -27 44 -48c0 -28 -38 -44 -61 -58z" />
    <glyph glyph-name="Ecircumflex.sc" unicode="&#xe00e;" horiz-adv-x="505" 
d="M23 505h420v-141h-23c-21 74 -46 113 -124 113h-51c-20 0 -26 -6 -26 -26v-175h53c56 0 76 15 87 72h23v-175h-23c-11 59 -28 78 -87 78h-53v-167c0 -51 13 -57 87 -57c46 0 76 8 95 29c21 22 36 61 48 100h23l-14 -156h-435v22c58 2 67 6 67 46v368c0 40 -8 44 -67 46
v23zM366 559l-14 -11l-94 65c-11 7 -12 6 -22 -1l-89 -64l-13 11l102 157h23z" />
    <glyph glyph-name="Edieresis.sc" unicode="&#xe00f;" horiz-adv-x="505" 
d="M23 505h420v-141h-23c-21 74 -46 113 -124 113h-51c-20 0 -26 -6 -26 -26v-175h53c56 0 76 15 87 72h23v-175h-23c-11 59 -28 78 -87 78h-53v-167c0 -51 13 -57 87 -57c46 0 76 8 95 29c21 22 36 61 48 100h23l-14 -156h-435v22c58 2 67 6 67 46v368c0 40 -8 44 -67 46
v23zM155 690h1c39 0 62 -29 62 -63c0 -35 -25 -64 -63 -64c-41 0 -64 29 -64 64c0 34 23 63 64 63zM350 690h1c39 0 62 -29 62 -63c0 -35 -24 -64 -63 -64c-40 0 -63 29 -63 64c0 34 23 63 63 63z" />
    <glyph glyph-name="Egrave.sc" unicode="&#xe010;" horiz-adv-x="505" 
d="M23 505h420v-141h-23c-21 74 -46 113 -124 113h-51c-20 0 -26 -6 -26 -26v-175h53c56 0 76 15 87 72h23v-175h-23c-11 59 -28 78 -87 78h-53v-167c0 -51 13 -57 87 -57c46 0 76 8 95 29c21 22 36 61 48 100h23l-14 -156h-435v22c58 2 67 6 67 46v368c0 40 -8 44 -67 46
v23zM283 548l-106 62c-22 14 -60 30 -61 58c-1 21 22 48 44 48c20 1 37 -19 61 -53l73 -101z" />
    <glyph glyph-name="F.sc" unicode="&#xe014;" horiz-adv-x="478" 
d="M29 505h418v-140l-23 -1c-21 73 -45 113 -123 113h-55c-21 0 -27 -5 -27 -26v-192h75c52 0 73 7 86 68h24v-171h-24c-14 63 -34 77 -86 77h-75v-165c0 -40 6 -44 78 -46v-22h-268v22c58 2 61 6 61 46v368c0 41 -2 44 -61 46v23z" />
    <glyph glyph-name="G.sc" unicode="&#xe015;" horiz-adv-x="594" 
d="M513 485v-146h-23c-27 87 -67 157 -157 157c-115 0 -153 -124 -153 -237c0 -117 39 -250 152 -250c21 0 35 2 45 7c10 6 12 13 12 27v130c0 39 -7 43 -70 46v22h246v-22c-39 -3 -46 -7 -46 -45v-155c-51 -18 -132 -33 -188 -33c-102 0 -156 14 -200 45
c-55 39 -92 107 -92 218c0 124 62 270 295 270c89 0 145 -21 179 -34z" />
    <glyph glyph-name="H.sc" unicode="&#xe016;" horiz-adv-x="626" 
d="M219 282h188v154c0 41 -4 44 -62 46v23h255v-23c-57 -2 -64 -6 -64 -46v-368c0 -39 6 -44 64 -46v-22h-255v22c57 2 62 6 62 46v187h-188v-187c0 -40 5 -44 62 -46v-22h-255v22c57 2 64 6 64 46v368c0 41 -7 44 -64 46v23h255v-23c-57 -2 -62 -6 -62 -46v-154z" />
    <glyph glyph-name="I.sc" unicode="&#xe017;" horiz-adv-x="309" 
d="M218 68c0 -39 7 -44 64 -46v-22h-258v22c58 2 65 6 65 46v368c0 41 -7 44 -65 46v23h258v-23c-57 -2 -64 -6 -64 -46v-368z" />
    <glyph glyph-name="Iacute.sc" unicode="&#xe018;" horiz-adv-x="309" 
d="M218 68c0 -39 7 -44 64 -46v-22h-258v22c58 2 65 6 65 46v368c0 41 -7 44 -65 46v23h258v-23c-57 -2 -64 -6 -64 -46v-368zM133 548l-10 14l72 101c25 34 41 54 61 53c22 0 44 -27 44 -48c0 -28 -38 -44 -61 -58z" />
    <glyph glyph-name="Icircumflex.sc" unicode="&#xe019;" horiz-adv-x="309" 
d="M218 68c0 -39 7 -44 64 -46v-22h-258v22c58 2 65 6 65 46v368c0 41 -7 44 -65 46v23h258v-23c-57 -2 -64 -6 -64 -46v-368zM268 559l-14 -11l-94 65c-11 7 -12 6 -22 -1l-89 -64l-13 11l102 157h23z" />
    <glyph glyph-name="Idieresis.sc" unicode="&#xe01a;" horiz-adv-x="309" 
d="M218 68c0 -39 7 -44 64 -46v-22h-258v22c58 2 65 6 65 46v368c0 41 -7 44 -65 46v23h258v-23c-57 -2 -64 -6 -64 -46v-368zM57 690h1c39 0 62 -29 62 -63c0 -35 -25 -64 -63 -64c-41 0 -64 29 -64 64c0 34 23 63 64 63zM252 690h1c39 0 62 -29 62 -63
c0 -35 -24 -64 -63 -64c-40 0 -63 29 -63 64c0 34 23 63 63 63z" />
    <glyph glyph-name="Igrave.sc" unicode="&#xe01b;" horiz-adv-x="309" 
d="M218 68c0 -39 7 -44 64 -46v-22h-258v22c58 2 65 6 65 46v368c0 41 -7 44 -65 46v23h258v-23c-57 -2 -64 -6 -64 -46v-368zM185 548l-106 62c-22 14 -60 30 -61 58c-1 21 22 48 44 48c20 1 37 -19 61 -53l73 -101z" />
    <glyph glyph-name="J.sc" unicode="&#xe01c;" horiz-adv-x="300" 
d="M219 436v-336c0 -110 -25 -154 -90 -183c-35 -16 -78 -20 -113 -19l-4 20c26 8 37 11 52 30c19 20 26 68 26 143v345c0 41 -4 44 -61 46v23h251v-23c-58 -2 -61 -5 -61 -46z" />
    <glyph glyph-name="K.sc" unicode="&#xe01d;" horiz-adv-x="574" 
d="M218 68c0 -40 6 -45 64 -48v-20h-258v22c57 2 65 6 65 46v368c0 41 -8 44 -65 46v23h259v-23c-58 -2 -65 -5 -65 -46v-368zM356 505h202v-22c-47 -3 -69 -7 -99 -30c-42 -33 -88 -74 -140 -130c34 -62 120 -192 183 -261c32 -34 47 -42 74 -47l-1 -22h-50
c-88 1 -139 6 -188 69c-41 51 -75 117 -115 188v6c62 58 147 145 189 199c12 16 6 22 -6 23l-49 5v22z" />
    <glyph glyph-name="L.sc" unicode="&#xe01e;" horiz-adv-x="471" 
d="M438 0h-413v22c57 2 65 5 65 46v368c0 39 -8 44 -65 46v23h264v-23c-67 -2 -70 -6 -70 -46v-353c0 -49 6 -56 73 -56c39 0 72 6 91 24c21 21 33 63 50 109h22z" />
    <glyph glyph-name="Lslash.sc" unicode="&#xe01f;" horiz-adv-x="480" 
d="M347 331l-118 -57v-191c0 -49 5 -56 74 -56c40 0 73 8 92 28s31 60 47 104h23l-17 -159h-415v24c59 2 66 6 66 46v142l-55 -26l-9 22l64 31v197c0 40 -8 44 -66 46v23h265v-23c-66 -2 -69 -6 -69 -46v-134l110 52z" />
    <glyph glyph-name="M.sc" unicode="&#xe020;" horiz-adv-x="712" 
d="M203 0h-185v22l33 4c18 2 32 16 35 41s4 51 4 106v263c0 41 -7 44 -66 46v23h202c36 -94 104 -257 136 -330h1c41 100 91 219 131 330h193v-23c-56 -2 -65 -6 -65 -46v-368c0 -40 8 -44 65 -46v-22h-259v22c58 2 68 6 68 46v366h-2c-41 -107 -120 -318 -158 -434h-47
c-24 65 -124 333 -165 442h-3v-269c0 -55 1 -80 4 -106c3 -25 15 -40 39 -41l39 -4v-22z" />
    <glyph glyph-name="N.sc" unicode="&#xe021;" horiz-adv-x="571" 
d="M21 505h191c83 -122 162 -232 244 -350l3 1v185c0 54 -2 70 -5 97c-2 25 -17 38 -38 40l-42 4v23h184v-23l-31 -4c-19 -2 -29 -14 -32 -39c-3 -26 -5 -44 -5 -98v-341h-91c-91 137 -181 271 -275 415h-3v-243c0 -55 2 -77 4 -102c3 -25 16 -41 38 -43l41 -4v-23h-186v23
l34 4c17 2 31 18 34 43s4 47 4 102v264c0 40 -12 44 -69 46v23z" />
    <glyph glyph-name="Ntilde.sc" unicode="&#xe022;" horiz-adv-x="571" 
d="M21 505h191c83 -122 162 -232 244 -350l3 1v185c0 54 -2 70 -5 97c-2 25 -17 38 -38 40l-42 4v23h184v-23l-31 -4c-19 -2 -29 -14 -32 -39c-3 -26 -5 -44 -5 -98v-341h-91c-91 137 -181 271 -275 415h-3v-243c0 -55 2 -77 4 -102c3 -25 16 -41 38 -43l41 -4v-23h-186v23
l34 4c17 2 31 18 34 43s4 47 4 102v264c0 40 -12 44 -69 46v23zM413 668l16 -7c-10 -48 -31 -94 -79 -93c-19 0 -45 11 -68 18c-23 8 -46 17 -64 17c-26 0 -36 -11 -52 -44l-15 7c10 45 34 91 84 91c19 0 45 -9 67 -16c23 -8 44 -17 61 -17c21 0 38 7 50 44z" />
    <glyph glyph-name="O.sc" unicode="&#xe023;" horiz-adv-x="605" 
d="M302 496h-1c-89 0 -121 -97 -121 -244c0 -115 20 -243 122 -243c99 0 122 108 122 243c0 90 -12 244 -122 244zM302 519h1c181 0 263 -102 263 -267c0 -164 -80 -266 -264 -266c-181 0 -263 102 -263 266c0 165 83 267 263 267z" />
    <glyph glyph-name="Oacute.sc" unicode="&#xe025;" horiz-adv-x="605" 
d="M302 496h-1c-89 0 -121 -97 -121 -244c0 -115 20 -243 122 -243c99 0 122 108 122 243c0 90 -12 244 -122 244zM302 519h1c181 0 263 -102 263 -267c0 -164 -80 -266 -264 -266c-181 0 -263 102 -263 266c0 165 83 267 263 267zM281 548l-10 14l72 101c25 34 41 54 61 53
c22 0 44 -27 44 -48c0 -28 -38 -44 -61 -58z" />
    <glyph glyph-name="Ocircumflex.sc" unicode="&#xe026;" horiz-adv-x="605" 
d="M302 496h-1c-89 0 -121 -97 -121 -244c0 -115 20 -243 122 -243c99 0 122 108 122 243c0 90 -12 244 -122 244zM302 519h1c181 0 263 -102 263 -267c0 -164 -80 -266 -264 -266c-181 0 -263 102 -263 266c0 165 83 267 263 267zM416 559l-14 -11l-94 65
c-11 7 -12 6 -22 -1l-89 -64l-13 11l102 157h23z" />
    <glyph glyph-name="Odieresis.sc" unicode="&#xe027;" horiz-adv-x="605" 
d="M302 496h-1c-89 0 -121 -97 -121 -244c0 -115 20 -243 122 -243c99 0 122 108 122 243c0 90 -12 244 -122 244zM302 519h1c181 0 263 -102 263 -267c0 -164 -80 -266 -264 -266c-181 0 -263 102 -263 266c0 165 83 267 263 267zM205 684h1c39 0 62 -29 62 -63
c0 -35 -25 -64 -63 -64c-41 0 -64 29 -64 64c0 34 23 63 64 63zM400 684h1c39 0 62 -29 62 -63c0 -35 -24 -64 -63 -64c-40 0 -63 29 -63 64c0 34 23 63 63 63z" />
    <glyph glyph-name="Ograve.sc" unicode="&#xe028;" horiz-adv-x="605" 
d="M302 496h-1c-89 0 -121 -97 -121 -244c0 -115 20 -243 122 -243c99 0 122 108 122 243c0 90 -12 244 -122 244zM302 519h1c181 0 263 -102 263 -267c0 -164 -80 -266 -264 -266c-181 0 -263 102 -263 266c0 165 83 267 263 267zM333 548l-106 62c-22 14 -60 30 -61 58
c-1 21 22 48 44 48c20 1 37 -19 61 -53l73 -101z" />
    <glyph glyph-name="Oslash.sc" unicode="&#xe029;" horiz-adv-x="605" 
d="M198 107l198 324c-17 38 -46 65 -94 65c-90 0 -125 -93 -125 -244c0 -51 7 -102 21 -145zM406 401l-198 -325c18 -40 47 -67 94 -67c99 0 125 103 125 243c0 47 -6 103 -21 149zM484 524l-26 -42c74 -43 108 -122 108 -230c0 -164 -80 -266 -264 -266
c-53 0 -96 10 -133 25l-32 -52l-21 14l30 50c-73 44 -107 123 -107 229c0 165 83 267 263 267c52 0 98 -9 134 -25l28 44z" />
    <glyph glyph-name="Otilde.sc" unicode="&#xe02a;" horiz-adv-x="605" 
d="M302 496h-1c-89 0 -121 -97 -121 -244c0 -115 20 -243 122 -243c99 0 122 108 122 243c0 90 -12 244 -122 244zM302 519h1c181 0 263 -102 263 -267c0 -164 -80 -266 -264 -266c-181 0 -263 102 -263 266c0 165 83 267 263 267zM427 668l16 -7c-10 -48 -31 -94 -79 -93
c-19 0 -45 11 -68 18c-23 8 -46 17 -64 17c-26 0 -36 -11 -52 -44l-15 7c10 45 34 91 84 91c19 0 45 -9 67 -16c23 -8 44 -17 61 -17c21 0 38 7 50 44z" />
    <glyph glyph-name="OE.sc" unicode="&#xe024;" horiz-adv-x="833" 
d="M419 61v383c0 32 -30 44 -73 44c-143 0 -169 -131 -169 -236c0 -102 32 -235 171 -235c42 0 71 12 71 44zM481 0c-57 0 -94 -6 -149 -6c-92 0 -145 8 -199 44c-57 36 -94 111 -94 208c0 105 39 177 96 215c56 37 110 50 206 50c42 0 100 -6 135 -6h296l-1 -141h-23
c-21 74 -46 113 -123 113h-51c-21 0 -26 -6 -26 -26v-175h53c57 0 76 15 86 72h23v-175h-23c-10 59 -26 78 -86 78h-53v-167c0 -50 14 -57 87 -57c49 0 78 9 98 32c18 21 33 61 44 97h24l-15 -156h-305z" />
    <glyph glyph-name="P.sc" unicode="&#xe02b;" horiz-adv-x="515" 
d="M218 199v-130c0 -39 7 -43 77 -47v-22h-270v22c57 3 64 6 64 46v368c0 41 -6 44 -64 46v23h263c105 0 192 -21 192 -148c0 -60 -21 -99 -60 -124c-35 -24 -82 -37 -151 -37c-19 0 -38 1 -51 3zM218 454v-201c0 -26 13 -34 48 -34c61 0 84 59 84 133c0 86 -35 130 -84 130
c-35 0 -48 -6 -48 -28z" />
    <glyph glyph-name="Q.sc" unicode="&#xe02c;" horiz-adv-x="606" 
d="M303 496h-1c-88 0 -122 -98 -122 -244c0 -113 21 -243 123 -243c98 0 122 113 122 243c0 84 -13 244 -122 244zM304 519h1c181 0 261 -102 261 -267c0 -133 -49 -229 -178 -257c11 -23 33 -53 48 -70c41 -42 73 -49 101 -50c5 0 10 0 15 1l1 -14c-24 -14 -61 -22 -95 -22
c-125 0 -178 80 -212 151c-142 21 -207 117 -207 261c0 165 85 267 265 267z" />
    </font>
</defs>
</svg>
