<svg xmlns="http://www.w3.org/2000/svg" xmlns:xlink="http://www.w3.org/1999/xlink" version="1.1"><metadata>Created by FontForge 20161013 at Sun Oct 3 21:18:47 2010 By ,,, Copyright (c) 2009 by The Entente (AS &amp; EH). All rights reserved.</metadata><defs><font id="Apercu-LightItalic" horiz-adv-x="566"><font-face x-height="504" ascent="800" bbox="-82 -229 1185 947" cap-height="700" descent="-200" font-family="Apercu Light" font-stretch="normal" font-style="italic" font-weight="300" panose-1="2 0 5 6 4 0 0 9 0 4" slope="-12" underline-position="-200" underline-thickness="50" unicode-range="U+000D-FB02" units-per-em="1000"/><glyph d="M122 446h-80l12 58h80l5 25q18 87 77 133t148 46q65 0 111 -32l-24 -54q-43 28 -97 28q-61 0 -101 -32t-51 -88l-5 -26h265l-98 -504h-63l86 446h-202l-86 -446h-63z" glyph-name="fi" horiz-adv-x="515" unicode="fi"/><glyph d="M122 446h-78l12 58h78l8 40q33 164 185 164h213l-137 -708h-63l126 650h-152q-88 0 -109 -104l-8 -42h122l-12 -58h-122l-86 -446h-63z" glyph-name="fl" horiz-adv-x="580" unicode="fl"/><glyph d="M518 0h-417v700h417v-700zM454 58v584h-289v-584h289z" glyph-name=".notdef" horiz-adv-x="619"/><glyph glyph-name=".null" horiz-adv-x="0"/><glyph glyph-name=".null" horiz-adv-x="0"/><glyph glyph-name="nonmarkingreturn" horiz-adv-x="333"/><glyph glyph-name="CR" horiz-adv-x="222"/><glyph glyph-name="space" horiz-adv-x="222"/><glyph d="M126 184l78 516h86l-124 -516h-40zM80 13q-15 16 -15 40t15 39q16 16 40 16t39 -16q16 -15 16 -39t-16 -40q-15 -15 -39 -15t-40 15z" glyph-name="exclam" horiz-adv-x="331" unicode="!"/><glyph d="M185 480h-47l24 228h89zM332 480h-47l24 228h89z" glyph-name="quotedbl" horiz-adv-x="431" unicode="&quot;"/><glyph d="M233 432h-122l7 54h134l69 214h56l-69 -214h159l70 214h56l-70 -214h115l-7 -54h-126l-52 -164h119l-7 -54h-131l-69 -214h-56l69 214h-159l-70 -214h-56l70 214h-118l7 54h129zM449 432h-160l-52 -164h160z" glyph-name="numbersign" horiz-adv-x="684" unicode="#"/><glyph d="M477 594l-61 -34q-27 86 -101 86q-53 0 -84.5 -33.5t-31.5 -89.5q0 -45 34 -75q32 -27 74 -50q69 -39 102 -78.5t33 -94.5q0 -105 -54 -163q-56 -60 -148 -68l-16 -84h-60l16 84q-68 8 -113 60q-44 53 -44 127l60 30q0 -64 35 -111q36 -46 98 -46q73 0 115 40t42 111 q0 37 -18 66q-11 19 -25 32.5t-26.5 21t-43.5 24.5q-63 35 -95.5 74.5t-32.5 95.5q0 81 51 134q52 52 136 55l16 82h60l-17 -90q74 -26 99 -106z" glyph-name="dollar" horiz-adv-x="521" unicode="$"/><glyph d="M70 526q0 75 46 127q49 55 136 55q56 0 94 -38t38 -100q0 -75 -46 -127q-49 -55 -136 -55q-56 0 -94 38t-38 100zM244 654q-51 0 -84.5 -33.5t-33.5 -86.5q0 -43 23 -67.5t61 -24.5q51 0 84.5 33.5t33.5 86.5q0 43 -23 67.5t-61 24.5zM450 130q0 75 46 127q49 55 136 55 q56 0 94 -38t38 -100q0 -75 -46 -127q-49 -55 -136 -55q-56 0 -94 38t-38 100zM624 258q-51 0 -84.5 -33.5t-33.5 -86.5q0 -43 23 -67.5t61 -24.5q51 0 84.5 33.5t33.5 86.5q0 43 -23 67.5t-61 24.5zM76 11l680 715l36 -37l-680 -715z" glyph-name="percent" horiz-adv-x="893" unicode="%"/><glyph d="M211 -8q-73 0 -123 49q-51 49 -51 129q0 150 183 241q-37 71 -37 120q0 82 46.5 129.5t132.5 47.5q60 0 95 -33t35 -93q0 -62 -44 -105.5t-140 -89.5l120 -204q31 45 77 128l36 -52q-47 -83 -81 -130l76 -129h-72l-47 79q-85 -87 -206 -87zM227 50q87 0 159 81l-136 230 q-150 -71 -150 -179q0 -59 34 -95.5t93 -36.5zM354 654q-46 0 -77 -31.5t-31 -79.5q0 -53 34 -109q33 15 55 27q17 9 45 29q49 34 49 84q0 80 -75 80z" glyph-name="ampersand" horiz-adv-x="619" unicode="&amp;"/><glyph d="M185 480h-47l24 228h89z" glyph-name="quotesingle" horiz-adv-x="284" unicode="'"/><glyph d="M257 750h67q-200 -251 -200 -550q0 -143 45 -250h-67q-45 105 -45 252q0 162 54 305q54 142 146 243z" glyph-name="parenleft" horiz-adv-x="282" unicode="("/><glyph d="M24 -50h-67q201 250 201 550q0 143 -46 250h67q46 -105 46 -252q0 -162 -54 -305t-147 -243z" glyph-name="parenright" horiz-adv-x="282" unicode=")"/><glyph d="M276 708h56l-29 -146l148 46l10 -54l-150 -47l63 -116l-53 -34l-63 117l-109 -117l-39 34l109 116l-130 47l25 55l133 -47z" glyph-name="asterisk" horiz-adv-x="494" unicode="*"/><glyph d="M301 344h177l-11 -56h-177l-34 -177h-57l34 177h-177l11 56h177l34 176h57z" glyph-name="plus" horiz-adv-x="561" unicode="+"/><glyph d="M48 -77h-46l81 165h94z" glyph-name="comma" horiz-adv-x="298" unicode=","/><glyph d="M390 289h-329l11 56h329z" glyph-name="hyphen" horiz-adv-x="479" unicode="-"/><glyph d="M29 49q0 22 14.5 36.5t36.5 14.5t36.5 -14.5t14.5 -36.5t-14.5 -36.5t-36.5 -14.5t-36.5 14t-14.5 37z" glyph-name="period" horiz-adv-x="262" unicode="."/><glyph d="M-82 -50l591 800h73l-591 -800h-73z" glyph-name="slash" horiz-adv-x="501" unicode="/"/><glyph d="M358 708q90 0 137.5 -63t47.5 -177q0 -169 -70 -313q-36 -75 -100.5 -119t-145.5 -44q-91 0 -138 62.5t-47 177.5q0 169 70 313q36 75 100.5 119t145.5 44zM347 652q-60 0 -109 -41t-77 -109q-54 -128 -54 -255q0 -199 131 -199q60 0 109 41t77 108q54 131 54 256 q0 199 -131 199z" glyph-name="zero" horiz-adv-x="585" unicode="0"/><glyph d="M93 597l182 103h17l-137 -700h-63l116 594l-130 -73z" glyph-name="one" horiz-adv-x="355" unicode="1"/><glyph d="M398 0h-403l4 23l312 333q47 50 62 69q49 61 49 120q0 51 -25.5 79t-73.5 28q-53 0 -93 -38t-57 -104l-57 12q20 89 76.5 137.5t141.5 48.5q68 0 110.5 -41t42.5 -107t-28 -116q-30 -52 -94 -119l-255 -269h299z" glyph-name="two" horiz-adv-x="536" unicode="2"/><glyph d="M16 192l60 8q12 -152 132 -152q81 0 122.5 50t41.5 140q0 66 -32.5 104.5t-87.5 38.5q-44 0 -75 -18l-26 38l219 243h-257l11 56h361l-3 -17l-232 -251q11 3 26 3q70 0 114.5 -48t44.5 -138q0 -124 -58 -190.5t-169 -66.5q-89 0 -139.5 53.5t-52.5 146.5z" glyph-name="three" horiz-adv-x="536" unicode="3"/><glyph d="M334 0h-63l32 161h-302l3 17l390 522h77l-94 -483h90l-11 -56h-90zM390 612l-290 -395h214z" glyph-name="four" horiz-adv-x="534" unicode="4"/><glyph d="M29 184l65 9q0 -65 32 -105t88 -40q87 0 135 68q49 67 49 161q0 131 -124 131q-41 0 -88 -29q-48 -29 -75 -65l-43 10l108 376h325l-11 -56h-267l-70 -236q54 56 137 56q82 0 126.5 -47.5t44.5 -137.5q0 -129 -66 -209q-65 -78 -188 -78q-74 0 -127 50q-51 51 -51 142z" glyph-name="five" horiz-adv-x="545" unicode="5"/><glyph d="M298 448q81 0 125.5 -49t44.5 -139q0 -115 -71 -192q-70 -76 -184 -76q-79 0 -125.5 50.5t-46.5 131.5q0 108 69 196l266 338h69l-212 -277q26 17 65 17zM287 392q-79 0 -131 -64t-52 -149q0 -61 31.5 -96t88.5 -35q82 0 131 61q50 62 50 145q0 68 -30.5 103t-87.5 35z" glyph-name="six" horiz-adv-x="554" unicode="6"/><glyph d="M501 680l-396 -680h-73l377 644h-303l11 56h388z" glyph-name="seven" horiz-adv-x="479" unicode="7"/><glyph d="M340 708q72 0 113.5 -42.5t41.5 -114.5q0 -65 -32 -113.5t-87 -68.5q76 -35 76 -145q0 -111 -64 -169q-41 -36 -80.5 -49.5t-100.5 -13.5q-74 0 -126 50q-50 50 -50 129q0 156 145 208q-63 47 -63 126q0 96 77 158q56 45 150 45zM269 344q-73 0 -125 -47 q-50 -47 -50 -122q0 -56 35 -91.5t89 -35.5q80 0 127 46t47 122q0 60 -33 94t-90 34zM330 654q-64 0 -110 -41q-44 -41 -44 -106q0 -49 27.5 -78t76.5 -29q64 0 108 41t44 106q0 51 -26.5 79t-75.5 28z" glyph-name="eight" horiz-adv-x="541" unicode="8"/><glyph d="M257 252q-81 0 -125.5 49t-44.5 139q0 115 70 191q71 77 185 77q79 0 125.5 -50.5t46.5 -131.5q0 -107 -69 -196l-266 -338h-69l212 277q-26 -17 -65 -17zM268 308q78 0 130 64q53 65 53 149q0 61 -31.5 96t-88.5 35q-82 0 -131 -61q-50 -62 -50 -145q0 -68 30.5 -103 t87.5 -35z" glyph-name="nine" horiz-adv-x="554" unicode="9"/><glyph d="M44 49q0 33 32 46.5t55 -10.5q24 -23 10.5 -55t-46.5 -32q-23 0 -37 14t-14 37zM114 415q0 33 32 46.5t55 -10.5q24 -23 10.5 -55t-46.5 -32q-23 0 -37 14t-14 37z" glyph-name="colon" horiz-adv-x="289" unicode=":"/><glyph d="M26 -77h-46l81 165h94zM114 415q0 33 32 46.5t55 -10.5q24 -23 10.5 -55t-46.5 -32q-23 0 -37 14t-14 37z" glyph-name="semicolon" horiz-adv-x="289" unicode=";"/><glyph d="M381 96l-335 180v68l335 180v-62l-283 -152l283 -152v-62z" glyph-name="less" horiz-adv-x="458" unicode="&lt;"/><glyph d="M477 365h-387v56h387v-56zM477 199h-387v56h387v-56z" glyph-name="equal" horiz-adv-x="586" unicode="="/><glyph d="M77 524l335 -180v-68l-335 -180v62l283 152l-283 152v62z" glyph-name="greater" horiz-adv-x="458" unicode="&gt;"/><glyph d="M282 327l48 -22q-23 -59 -56 -83.5t-85 -24.5q-46 0 -77.5 31.5t-31.5 78.5q0 54 26 86t84 58l96 42q38 16 54 35t16 48q0 78 -81 78q-82 0 -117 -107l-58 18q45 143 182 143q66 0 101.5 -35t35.5 -95q0 -84 -101 -131l-102 -46q-40 -18 -58.5 -38t-18.5 -52 q0 -27 16.5 -43.5t41.5 -16.5q29 0 47.5 17.5t37.5 58.5zM109 13q-15 16 -15 40t15 39q16 16 40 16t39 -16q16 -15 16 -39t-16 -40q-15 -15 -39 -15t-40 15z" glyph-name="question" horiz-adv-x="440" unicode="?"/><glyph d="M584 453l23 56h52l-60 -281q-1 -5 -1 -16q0 -48 47 -48q65 0 97 60t32 163q0 137 -68 206t-201 69q-163 0 -268 -110t-105 -283q0 -136 86 -222q86 -85 215 -85q66 0 123 15t131 54l17 -52q-83 -45 -138 -58q-58 -15 -140 -15q-154 0 -257 99q-102 99 -102 257 q0 212 123 333q124 123 327 123q153 0 237.5 -83.5t84.5 -240.5q0 -57 -10.5 -106t-33 -90.5t-62.5 -65.5t-94 -24q-40 0 -65.5 21.5t-31.5 53.5q-58 -75 -151 -75q-68 0 -108 46.5t-40 123.5q0 102 64 169q65 69 169 69q39 0 68.5 -17t39.5 -46zM466 460q-70 0 -114 -53 t-44 -125q0 -118 97 -118q68 0 111 55q44 56 44 124q0 55 -24.5 86t-69.5 31z" glyph-name="at" horiz-adv-x="861" unicode="@"/><glyph d="M-54 0l379 700h63l116 -700h-68l-31 199h-283l-109 -199h-67zM396 261l-55 349l-186 -349h241z" glyph-name="A" horiz-adv-x="574" unicode="A"/><glyph d="M42 0l137 700h217q77 0 122.5 -41.5t45.5 -110.5q0 -122 -120 -172q93 -38 93 -144q0 -110 -70 -171t-189 -61h-236zM332 342h-156l-54 -280h156q90 0 140 42t50 122q0 55 -35 85.5t-101 30.5zM386 638h-153l-45 -234h153q71 0 112 35.5t41 99.5q0 99 -108 99z" glyph-name="B" horiz-adv-x="610" unicode="B"/><glyph d="M522 211l62 -19q-98 -200 -298 -200q-105 0 -174 75q-68 76 -68 204q0 112 44 211q43 96 133 162q88 64 204 64q95 0 153 -57q58 -56 67 -143l-62 -17q-23 155 -170 155q-89 0 -159 -54q-68 -52 -104 -134.5t-36 -178.5q0 -105 48.5 -165t135.5 -60q154 0 224 157z" glyph-name="C" horiz-adv-x="659" unicode="C"/><glyph d="M42 0l136 700h175q122 0 193 -74t71 -200q0 -116 -46 -211q-47 -95 -138 -155t-212 -60h-179zM346 638h-114l-111 -576h102q147 0 235 103q90 104 90 254q0 108 -52.5 163.5t-149.5 55.5z" glyph-name="D" horiz-adv-x="665" unicode="D"/><glyph d="M42 0l136 700h390l-13 -62h-323l-45 -234h263l-12 -62h-263l-54 -280h333l-13 -62h-399z" glyph-name="E" horiz-adv-x="561" unicode="E"/><glyph d="M42 0l136 700h393l-13 -62h-326l-47 -242h266l-12 -62h-266l-65 -334h-66z" glyph-name="F" horiz-adv-x="546" unicode="F"/><glyph d="M558 0h-55l8 100q-73 -108 -226 -108q-101 0 -172 75q-69 75 -69 207q0 113 43 209q44 98 132 161q88 64 205 64q98 0 156 -57q60 -58 67 -149l-61 -15q-13 81 -55.5 120t-118.5 39q-90 0 -160 -55q-68 -53 -103.5 -135t-35.5 -176q0 -104 49.5 -165t134.5 -61 q97 0 163.5 62.5t88.5 174.5h-160l12 62h226z" glyph-name="G" horiz-adv-x="699" unicode="G"/><glyph d="M530 403l58 297h67l-137 -700h-67l67 341h-342l-67 -341h-67l136 700h67l-57 -297h342z" glyph-name="H" horiz-adv-x="697" unicode="H"/><glyph d="M179 700h67l-137 -700h-67z" glyph-name="I" horiz-adv-x="288" unicode="I"/><glyph d="M319 198l97 502h67l-98 -507q-39 -201 -225 -201q-75 0 -120 52q-44 53 -44 127l65 14q0 -63 28.5 -97t82.5 -34q118 0 147 144z" glyph-name="J" horiz-adv-x="517" unicode="J"/><glyph d="M257 386l229 -386h-79l-225 371l-73 -371h-67l137 700h67l-58 -297l324 297h94z" glyph-name="K" horiz-adv-x="576" unicode="K"/><glyph d="M42 0l136 700h67l-124 -638h320l-13 -62h-386z" glyph-name="L" horiz-adv-x="502" unicode="L"/><glyph d="M42 0l137 700h76l109 -530l305 530h85l-137 -700h-67l112 572l-295 -508h-43l-103 508l-112 -572h-67z" glyph-name="M" horiz-adv-x="796" unicode="M"/><glyph d="M484 105l116 595h67l-137 -700h-77l-227 593l-117 -593h-67l137 700h77z" glyph-name="N" horiz-adv-x="709" unicode="N"/><glyph d="M423 708q108 0 174 -75q67 -74 67 -204q0 -93 -34 -180.5t-96 -150.5q-102 -106 -250 -106q-106 0 -174 75q-66 75 -66 203q0 94 34 181t96 151q102 106 249 106zM411 646q-125 0 -209 -104q-42 -53 -65.5 -124.5t-23.5 -145.5q0 -103 48.5 -160.5t134.5 -57.5 q126 0 210 104q89 111 89 268q0 104 -49 162t-135 58z" glyph-name="O" horiz-adv-x="712" unicode="O"/><glyph d="M332 314h-162l-62 -314h-67l137 700h222q85 0 132.5 -41.5t47.5 -114.5q0 -110 -69 -170q-68 -60 -179 -60zM232 638l-50 -262h166q73 0 118 42.5t45 114.5q0 105 -112 105h-167z" glyph-name="P" horiz-adv-x="578" unicode="P"/><glyph d="M423 708q108 0 174 -75q67 -74 67 -204q0 -93 -33.5 -179t-95.5 -151l54 -66l-49 -41l-52 64q-85 -64 -204 -64q-106 0 -174 75q-66 75 -66 203q0 94 34 181t96 151q102 106 249 106zM411 646q-125 0 -209 -104q-42 -53 -65.5 -124.5t-23.5 -145.5q0 -103 48.5 -160.5 t134.5 -57.5q84 0 154 50l-58 72l48 41l56 -70l10 11q89 111 89 268q0 104 -49 162t-135 58z" glyph-name="Q" horiz-adv-x="712" unicode="Q"/><glyph d="M523 0h-74l-148 346h-125l-68 -346h-67l137 700h214q83 0 128.5 -39.5t45.5 -109.5q0 -90 -50 -141t-142 -61zM379 638h-147l-44 -230h147q162 0 162 132q0 98 -118 98z" glyph-name="R" horiz-adv-x="596" unicode="R"/><glyph d="M477 594l-61 -34q-27 86 -101 86q-53 0 -84.5 -33.5t-31.5 -89.5q0 -45 34 -75q32 -27 74 -50q69 -39 102 -78.5t33 -94.5q0 -105 -54 -163q-64 -70 -184 -70q-76 0 -129 54q-52 53 -52 135l60 30q0 -64 35 -111q36 -46 98 -46q73 0 115 40t42 111q0 37 -18 66 q-11 19 -25 32.5t-26.5 21t-43.5 24.5q-63 35 -95.5 74.5t-32.5 95.5q0 85 53.5 137t141.5 52q56 0 95 -32t55 -82z" glyph-name="S" horiz-adv-x="521" unicode="S"/><glyph d="M274 638h-204l13 62h475l-13 -62h-204l-124 -638h-67z" glyph-name="T" horiz-adv-x="512" unicode="T"/><glyph d="M77 224l92 476h67l-93 -482q-4 -21 -4 -38q0 -64 33 -95t107 -31q80 0 133 45.5t68 118.5l93 482h67l-92 -476q-22 -121 -100 -177q-76 -55 -181 -55q-88 0 -141.5 47t-53.5 132q0 26 5 53z" glyph-name="U" horiz-adv-x="669" unicode="U"/><glyph d="M215 94l328 606h69l-377 -700h-69l-101 700h67z" glyph-name="V" horiz-adv-x="553" unicode="V"/><glyph d="M572 102l274 598h67l-323 -700h-67l-57 520l-252 -520h-67l-51 700h67l39 -598l252 524h62z" glyph-name="W" horiz-adv-x="885" unicode="W"/><glyph d="M244 384l-121 316h73l95 -260l195 260h78l-249 -326l142 -374h-69l-119 316l-241 -316h-76z" glyph-name="X" horiz-adv-x="525" unicode="X"/><glyph d="M120 0l60 304l-127 396h76l95 -331l229 331h79l-285 -396l-60 -304h-67z" glyph-name="Y" horiz-adv-x="472" unicode="Y"/><glyph d="M445 638h-333l12 62h427l-7 -32l-450 -606h350l-13 -62h-446l7 32z" glyph-name="Z" horiz-adv-x="546" unicode="Z"/><glyph d="M204 -50h-179l154 800h180l-11 -56h-119l-133 -688h119z" glyph-name="bracketleft" horiz-adv-x="320" unicode="["/><glyph d="M353 -50l-280 800h65l280 -800h-65z" glyph-name="backslash" horiz-adv-x="487" unicode="\"/><glyph d="M110 750h180l-155 -800h-179l10 56h119l133 688h-119z" glyph-name="bracketright" horiz-adv-x="320" unicode="]"/><glyph d="M75 429l184 271h48l184 -271h-67l-141 213l-141 -213h-67z" glyph-name="asciicircum" horiz-adv-x="556" unicode="^"/><glyph d="M368 -56h-409l11 56h409z" glyph-name="underscore" horiz-adv-x="468" unicode="_"/><glyph d="M61 700h93l43 -140h-51z" glyph-name="grave" horiz-adv-x="182" unicode="`"/><glyph d="M437 433l13 71h65l-97 -504h-65l12 66q-38 -41 -75 -57.5t-89 -16.5q-86 0 -129 58t-43 146q0 135 74 226q73 90 199 90q102 0 135 -79zM95 206q0 -72 31.5 -114t91.5 -42q63 0 109 40q89 78 89 214q0 71 -30.5 110.5t-91.5 39.5q-93 0 -146 -77t-53 -171z" glyph-name="a" horiz-adv-x="575" unicode="a"/><glyph d="M32 0l138 708h65l-51 -268q27 32 71 52t89 20q85 0 130 -54.5t45 -153.5q0 -136 -72 -224t-202 -88q-44 0 -82 24.5t-51 58.5l-15 -75h-65zM255 50q93 0 146 72q53 73 53 171q0 79 -32 120t-92 41q-82 0 -138 -80t-56 -176q0 -73 31 -110.5t88 -37.5z" glyph-name="b" horiz-adv-x="588" unicode="b"/><glyph d="M378 153l52 -22q-44 -75 -96.5 -107t-128.5 -32q-84 0 -131 59q-45 60 -45 148q0 126 75 219q76 94 202 94q68 0 112.5 -36t58.5 -103l-60 -22q-22 103 -122 103q-93 0 -147 -76q-54 -75 -54 -176q0 -71 31.5 -111.5t90.5 -40.5q99 0 162 103z" glyph-name="c" horiz-adv-x="525" unicode="c"/><glyph d="M443 433l53 275h65l-138 -708h-65l13 66q-65 -74 -167 -74q-84 0 -129.5 55.5t-45.5 145.5q0 135 75 227q77 92 201 92q45 0 82.5 -21t55.5 -58zM95 203q0 -68 32 -110.5t91 -42.5q92 0 148 80q55 79 55 172q0 152 -124 152q-64 0 -113 -41q-89 -75 -89 -210z" glyph-name="d" horiz-adv-x="601" unicode="d"/><glyph d="M479 280l-5 -28h-375q-7 -22 -7 -56q0 -69 32.5 -107.5t92.5 -38.5q51 0 89.5 26.5t81.5 86.5l51 -32q-81 -139 -233 -139q-84 0 -131.5 55.5t-47.5 151.5q0 75 33 146t98 119q66 48 149 48t130.5 -49t47.5 -132q0 -21 -6 -51zM296 454q-58 0 -105.5 -39.5t-74.5 -104.5 h306q0 144 -126 144z" glyph-name="e" horiz-adv-x="545" unicode="e"/><glyph d="M122 446h-80l11 58h81l6 32q17 89 60.5 130.5t118.5 41.5q40 0 62 -13l-24 -57q-24 12 -50 12q-81 0 -102 -104l-8 -42h116l-11 -58h-117l-86 -446h-63z" glyph-name="f" horiz-adv-x="329" unicode="f"/><glyph d="M87 316q0 88 55 142q56 54 145 54q55 0 83 -24l103 52l23 -53l-84 -46q20 -37 20 -78q0 -86 -53 -137.5t-141 -51.5q-52 0 -93 25q-58 -19 -58 -61q0 -44 53 -44h123q133 0 133 -118q0 -94 -61 -141t-175 -47q-85 0 -132.5 40t-47.5 109q0 84 68 129q-24 21 -24 59 q0 78 86 111q-23 35 -23 80zM250 40h-101q-23 0 -45 3q-64 -31 -64 -100q0 -45 33 -72t92 -27q68 0 118 29t50 93q0 74 -83 74zM281 458q-57 0 -94 -38.5t-37 -95.5q0 -47 24 -71.5t65 -24.5q59 0 94.5 36t35.5 94q0 47 -24 73.5t-64 26.5z" glyph-name="g" horiz-adv-x="508" unicode="g"/><glyph d="M493 346l-67 -346h-63l65 338q4 17 4 38q0 36 -21.5 57t-60.5 21q-67 0 -131 -69q-64 -68 -83 -170l-40 -215h-63l136 708h63l-61 -314q73 118 200 118q126 0 126 -118q0 -28 -4 -48z" glyph-name="h" horiz-adv-x="580" unicode="h"/><glyph d="M34 0l97 504h63l-97 -504h-63zM151 612q-14 15 -14 37t14 36q15 15 37 15t36 -15q15 -14 15 -36t-15 -37q-14 -14 -36 -14t-37 14z" glyph-name="i" horiz-adv-x="259" unicode="i"/><glyph d="M23 -55l108 559h63l-110 -568q-13 -68 -50 -103t-104 -45l-5 58q45 12 67 34t31 65zM151 612q-14 15 -14 37t14 36q15 15 37 15t36 -15q15 -14 15 -36t-15 -37q-14 -14 -36 -14t-37 14z" glyph-name="j" horiz-adv-x="259" unicode="j"/><glyph d="M33 0l137 708h63l-81 -422l247 218h86l-267 -234l185 -270h-78l-178 265l-51 -265h-63z" glyph-name="k" horiz-adv-x="497" unicode="k"/><glyph d="M48 0l136 708h63l-136 -708h-63z" glyph-name="l" horiz-adv-x="287" unicode="l"/><glyph d="M756 346l-67 -346h-63l65 338q6 30 6 47q0 69 -73 69q-59 0 -115 -65q-55 -65 -74 -168l-43 -221h-63l66 338q6 27 6 44q0 72 -74 72q-59 0 -115 -66q-55 -67 -74 -167l-42 -221h-63l97 504h63l-19 -98q28 49 75 77.5t99 28.5q110 0 116 -108q32 49 81 78.5t100 29.5 q117 0 117 -113q0 -21 -6 -53z" glyph-name="m" horiz-adv-x="846" unicode="m"/><glyph d="M483 346l-67 -346h-63l65 338q5 30 5 40q0 76 -78 76q-62 0 -125 -68q-62 -67 -82 -165l-42 -221h-63l97 504h63l-21 -105q31 49 85 81q55 32 109 32q58 0 90 -31.5t32 -90.5q0 -11 -5 -44z" glyph-name="n" horiz-adv-x="572" unicode="n"/><glyph d="M29 207q0 127 70 209q83 96 210 96q90 0 140.5 -57.5t50.5 -157.5q0 -127 -70 -209q-82 -96 -210 -96q-90 0 -140.5 57.5t-50.5 157.5zM298 454q-88 0 -150 -75q-54 -66 -54 -166q0 -76 35 -119.5t102 -43.5q89 0 150 75q54 66 54 166q0 76 -35 119.5t-102 43.5z" glyph-name="o" horiz-adv-x="568" unicode="o"/><glyph d="M115 71l-53 -275h-65l138 708h65l-13 -66q65 74 167 74q84 0 129.5 -55.5t45.5 -145.5q0 -136 -76 -227q-75 -92 -200 -92q-45 0 -82.5 21t-55.5 58zM463 301q0 68 -32 110.5t-91 42.5q-92 0 -148 -80q-55 -79 -55 -172q0 -152 124 -152q66 0 112 40q90 77 90 211z" glyph-name="p" horiz-adv-x="597" unicode="p"/><glyph d="M516 504l-137 -708h-65l51 268q-27 -32 -71 -52t-89 -20q-85 0 -130.5 54.5t-45.5 153.5q0 134 72 223q74 89 203 89q44 0 82 -24.5t51 -58.5l14 75h65zM294 454q-94 0 -147 -72q-53 -73 -53 -171q0 -78 32.5 -119.5t92.5 -41.5q82 0 138 80t56 176q0 73 -31 110.5 t-88 37.5z" glyph-name="q" horiz-adv-x="574" unicode="q"/><glyph d="M413 495l-26 -59q-28 18 -65 18q-58 0 -110 -64q-53 -65 -75 -176l-41 -214h-63l97 504h63l-18 -90q26 44 72 71t95 27q31 0 71 -17z" glyph-name="r" horiz-adv-x="415" unicode="r"/><glyph d="M253 512q90 0 135 -78l-49 -36q-32 56 -95 56q-37 0 -61.5 -22t-24.5 -57q0 -33 26 -54q23 -16 57 -31q115 -52 115 -135q0 -80 -46 -121.5t-129 -41.5q-71 0 -114 43t-49 97l60 28q23 -110 112 -110q44 0 71.5 24t27.5 65q0 27 -15 47q-13 19 -28 28.5t-49 24.5 q-53 22 -78.5 51.5t-25.5 75.5q0 69 42.5 107.5t117.5 38.5z" glyph-name="s" horiz-adv-x="448" unicode="s"/><glyph d="M122 446h-87l11 58h87l32 163l73 41l-40 -204h130l-11 -58h-130l-61 -313q-3 -15 -3 -29q0 -54 55 -54q40 0 68 16l6 -56q-36 -18 -91 -18q-46 0 -73.5 30t-27.5 83q0 13 6 49z" glyph-name="t" horiz-adv-x="343" unicode="t"/><glyph d="M59 158l67 346h63l-65 -338q-5 -30 -5 -40q0 -76 78 -76q62 0 125 67q62 67 82 166l42 221h63l-97 -504h-63l21 105q-32 -51 -86 -82q-52 -31 -108 -31q-58 0 -90 31.5t-32 90.5q0 11 5 44z" glyph-name="u" horiz-adv-x="569" unicode="u"/><glyph d="M153 83l218 421h67l-261 -504h-69l-74 504h65z" glyph-name="v" horiz-adv-x="435" unicode="v"/><glyph d="M441 88l195 416h67l-246 -504h-65l-25 407l-183 -407h-65l-59 504h65l42 -416l185 416h63z" glyph-name="w" horiz-adv-x="718" unicode="w"/><glyph d="M191 276l-100 228h69l74 -176l141 176h76l-192 -235l115 -269h-69l-89 216l-175 -216h-75z" glyph-name="x" horiz-adv-x="451" unicode="x"/><glyph d="M167 93l219 411h73l-388 -708h-67l113 207l-81 501h67z" glyph-name="y" horiz-adv-x="452" unicode="y"/><glyph d="M333 446h-244l11 58h332l-6 -34l-325 -412h259l-11 -58h-350l5 30z" glyph-name="z" horiz-adv-x="463" unicode="z"/><glyph d="M65 54l36 183q3 17 3 30q0 29 -15 42t-51 13l11 56q42 0 64 20t31 65l36 183q10 49 40.5 76.5t74.5 27.5h46l-11 -56h-30q-27 0 -40 -10.5t-19 -39.5l-39 -197q-8 -41 -27 -62.5t-54 -34.5q46 -16 46 -66q0 -15 -2 -31l-38 -192q-2 -16 -2 -21q0 -34 42 -34h30l-11 -56 h-46q-37 0 -57.5 19.5t-20.5 57.5q0 12 3 27z" glyph-name="braceleft" horiz-adv-x="316" unicode="{"/><glyph d="M105 -50v800h60v-800h-60z" glyph-name="bar" horiz-adv-x="235" unicode="|"/><glyph d="M250 646l-36 -183q-3 -17 -3 -30q0 -29 15 -42t51 -13l-11 -56q-42 0 -64 -20t-31 -65l-36 -183q-10 -49 -40.5 -76.5t-74.5 -27.5h-46l11 56h30q27 0 40 10.5t19 39.5l39 197q8 41 27 62.5t54 34.5q-46 16 -46 66q0 15 2 31l38 192q2 16 2 21q0 34 -42 34h-30l11 56h46 q37 0 57.5 -19.5t20.5 -57.5q0 -12 -3 -27z" glyph-name="braceright" horiz-adv-x="316" unicode="}"/><glyph d="M96 283l-28 39q64 76 133 76q39 0 86 -27q46 -27 83 -27q56 0 99 43l28 -39q-64 -76 -133 -76q-40 0 -87 27q-46 27 -82 27q-56 0 -99 -43z" glyph-name="asciitilde" horiz-adv-x="600" unicode="~"/><glyph glyph-name="nbspace" horiz-adv-x="222"/><glyph d="M179 310l-78 -516h-86l124 516h40zM224 480q16 -15 16 -39t-16 -40q-15 -15 -39 -15t-40 15q-15 16 -15 40t15 39q16 16 40 16t39 -16z" glyph-name="exclamdown" horiz-adv-x="331" unicode="¡"/><glyph d="M415 253l52 -22q-40 -68 -86.5 -100.5t-111.5 -37.5l-27 -143h-60l27 144q-68 10 -106 68q-37 58 -37 137q0 117 66 207q65 90 178 104l27 140h60l-27 -140q58 -7 95 -42.5t49 -94.5l-60 -22q-22 103 -122 103q-93 0 -147 -76q-54 -75 -54 -176q0 -71 31.5 -111.5 t90.5 -40.5q99 0 162 103z" glyph-name="cent" horiz-adv-x="546" unicode="¢"/><glyph d="M150 335h-84l11 58h62q-7 35 -7 83q0 108 63 170q64 62 165 62q61 0 103.5 -39.5t54.5 -101.5l-57 -23q-15 56 -40.5 81t-71.5 25q-72 0 -113 -49t-41 -133q0 -34 7 -75h167l-11 -58h-149v-31q0 -75 -29 -129t-92 -106q43 25 89 25q33 0 71 -24t61 -24q32 0 55 17 q19 14 59 67l41 -34q-42 -63 -77 -83q-37 -21 -90 -21q-38 0 -78 23t-67 23q-53 0 -117 -46l-37 55q79 64 117 124t38 132q0 19 -3 32z" glyph-name="sterling" horiz-adv-x="555" unicode="£"/><glyph d="M78 63l-55 55l87 67q-38 55 -38 122t38 122l-87 67l55 55l66 -85q52 43 123 43t123 -43l66 85l55 -55l-87 -67q38 -55 38 -122t-38 -122l87 -67l-55 -55l-66 85q-52 -43 -123 -43t-123 43zM167 414q-38 -41 -38 -107q0 -65 38 -108q38 -41 100 -41t100 41q38 43 38 108 q0 66 -38 107q-38 42 -100 42q-63 0 -100 -42z" glyph-name="currency" horiz-adv-x="565" unicode="¤"/><glyph d="M233 360l-109 340h75l94 -329l221 329h79l-239 -340h130l-10 -56h-159l-17 -87h159l-11 -56h-159l-32 -161h-67l32 161h-159l11 56h159l17 87h-159l10 56h134z" glyph-name="yen" horiz-adv-x="558" unicode="¥"/><glyph d="M105 -50v349h60v-349h-60zM165 750v-349h-60v349h60z" glyph-name="brokenbar" horiz-adv-x="235" unicode="¦"/><glyph d="M468 236q0 -49 -26.5 -83.5t-85.5 -68.5q32 -32 32 -98q0 -86 -56 -142t-147 -56q-68 0 -111.5 41.5t-43.5 106.5l56 17q5 -49 33.5 -78t76.5 -29q52 0 90 36q37 36 37 90q-3 37 -11 55.5t-31 33.5q-10 8 -30 20q-8 5 -42 22l-47 26q-88 49 -88 131q0 49 26.5 83.5 t85.5 68.5q-32 32 -32 98q0 87 55 142q56 56 148 56q68 0 111.5 -41.5t43.5 -106.5l-56 -17q-5 49 -33.5 78t-76.5 29q-52 0 -90 -36q-37 -36 -37 -90q3 -37 11 -55t31 -35l30 -19l41 -23q36 -18 48 -25q88 -49 88 -131zM258 145l54 -26q35 15 64 44t29 60q0 48 -36 75 q-24 19 -35 25q-14 9 -51 27q-44 23 -53 27q-35 -15 -64 -44t-29 -60q0 -46 36 -76q20 -15 34 -25z" glyph-name="section" horiz-adv-x="574" unicode="§"/><glyph d="M64 650q0 21 14 35.5t35 14.5t35 -14.5t14 -35.5q0 -20 -14 -34t-35 -14t-35 14t-14 34zM218 650q0 21 14 35.5t34 14.5q21 0 35.5 -14.5t14.5 -35.5q0 -20 -14.5 -34t-35.5 -14q-20 0 -34 14t-14 34z" glyph-name="dieresis" horiz-adv-x="287" unicode="¨"/><glyph d="M186 71q-106 112 -106 279q0 168 106 278q106 112 270 112q163 0 269 -112q107 -112 107 -278t-107 -279q-107 -111 -269 -111q-164 0 -270 111zM229 585q-87 -95 -87 -235t87 -235q88 -94 227 -94t226 94q88 94 88 235t-88 235q-87 94 -226 94t-227 -94zM570 280l53 -14 q-16 -63 -60 -97.5t-107 -34.5q-74 0 -135 55q-60 56 -60 161q0 106 60 161q61 55 135 55q63 0 107 -34.5t60 -97.5l-53 -14q-30 92 -114 92q-62 0 -99 -42.5t-37 -119.5t37 -119.5t99 -42.5q84 0 114 92z" glyph-name="copyright" horiz-adv-x="912" unicode="©"/><glyph d="M360 564v-264h-37l-10 63q-39 -67 -127 -67q-55 0 -89 32t-34 88q0 63 47.5 96.5t134.5 33.5h66v17q0 93 -91 93q-70 0 -93 -72l-48 12q10 50 48 79t93 29q66 0 103 -34.5t37 -105.5zM119 416q0 -35 19 -53.5t53 -18.5q46 0 83 34t37 107v15h-64q-128 0 -128 -84z" glyph-name="ordfeminine" horiz-adv-x="416" unicode="ª"/><glyph d="M264 94l-224 195l12 48l297 189l-14 -75l-233 -144l175 -151zM444 94l-224 195l12 48l297 189l-14 -75l-233 -144l175 -151z" glyph-name="guillemotleft" horiz-adv-x="558" unicode="«"/><glyph d="M405 322h-359v58h423v-238h-64v180z" glyph-name="logicalnot" horiz-adv-x="541" unicode="¬"/><glyph d="M390 289h-329l11 56h329z" glyph-name="uni00AD" horiz-adv-x="479" unicode="­"/><glyph d="M186 71q-106 112 -106 279q0 168 106 278q106 112 270 112q163 0 269 -112q107 -112 107 -278t-107 -279q-107 -111 -269 -111q-164 0 -270 111zM229 585q-87 -95 -87 -235t87 -235q88 -94 227 -94t226 94q88 94 88 235t-88 235q-87 94 -226 94t-227 -94zM628 137h-62 l-126 182h-61v-182h-59v426h144q60 0 96.5 -33.5t36.5 -88.5q0 -45 -27 -77.5t-69 -40.5zM464 509h-85v-136h85q36 0 55 18t19 50q0 68 -74 68z" glyph-name="registered" horiz-adv-x="912" unicode="®"/><glyph d="M314 644h-241l11 56h241z" glyph-name="overscore" horiz-adv-x="289" unicode="¯"/><glyph d="M136 513q-30 31 -30 80q0 47 30 79q32 32 79 32q48 0 78 -32q31 -31 31 -79q0 -49 -31 -80q-30 -31 -78 -31t-79 31zM171 638q-17 -17 -17 -45t17 -45t44 -17t44 17t17 45t-17 45t-44 17t-44 -17z" glyph-name="degree" horiz-adv-x="356" unicode="°"/><glyph d="M304 426h177v-56h-177v-177h-56v177h-177v56h177v176h56v-176zM481 0h-410v56h410v-56z" glyph-name="plusminus" horiz-adv-x="552" unicode="±"/><glyph d="M332 300h-249l3 19l182 185q16 16 28 30q26 32 26 68q0 52 -47 52q-29 0 -50.5 -20.5t-29.5 -55.5l-50 14q12 52 47.5 82t88.5 30q45 0 70.5 -26t25.5 -70q0 -62 -57 -121l-135 -137h157z" glyph-name="twosuperior" horiz-adv-x="447" unicode="²"/><glyph d="M100 414l53 7q0 -77 64 -77q39 0 62.5 26.5t23.5 69.5q0 31 -14.5 50t-42.5 19q-21 0 -37 -10l-20 35l107 118h-134l10 48h216l-4 -17l-125 -135q8 2 16 2q37 0 60.5 -28t23.5 -73q0 -68 -41 -110.5t-109 -42.5q-50 0 -79.5 33t-29.5 85z" glyph-name="threesuperior" horiz-adv-x="429" unicode="³"/><glyph d="M111 560h-56l97 140h95z" glyph-name="acute" horiz-adv-x="196" unicode="´"/><glyph d="M144 -204h-62v708h62v-338q0 -115 103 -115q71 0 117 63q46 64 46 169v221h62v-504h-62v105q-27 -52 -73.5 -82.5t-99.5 -30.5q-55 0 -93 26v-222z" glyph-name="mu" horiz-adv-x="583" unicode="µ"/><glyph d="M91 501q0 86 59 142q58 57 150 57h331l-12 -62h-72l-163 -842h-65l163 842h-128l-164 -842h-65l108 558q-63 0 -102.5 41t-39.5 106z" glyph-name="paragraph" horiz-adv-x="656" unicode="¶"/><glyph d="M88 349q0 33 32 46.5t55 -10.5q24 -23 10.5 -55t-46.5 -32q-23 0 -37 14t-14 37z" glyph-name="middot" horiz-adv-x="265" unicode="·"/><glyph d="M69 -60h56l-109 -154l-69 31z" glyph-name="cedilla" horiz-adv-x="184" unicode="¸"/><glyph d="M109 641l130 59h17l-77 -400h-51l63 325l-93 -41z" glyph-name="onesuperior" horiz-adv-x="325" unicode="¹"/><glyph d="M95 357q-51 62 -51 143q0 82 51 143t134 61t134 -61t51 -143q0 -81 -51 -143q-51 -61 -134 -61t-134 61zM132 610q-35 -47 -35 -110t35 -110q34 -46 97 -46t97 46q35 47 35 110t-35 110q-34 46 -97 46t-97 -46z" glyph-name="ordmasculine" horiz-adv-x="419" unicode="º"/><glyph d="M101 526l224 -195l-10 -44l-299 -193l14 75l230 145l-173 148zM311 526l224 -195l-10 -44l-299 -193l14 75l230 145l-173 148z" glyph-name="guillemotright" horiz-adv-x="558" unicode="»"/><glyph d="M88 11l680 715l36 -37l-680 -715zM183 641l130 59h17l-77 -400h-51l63 325l-93 -41zM650 0h-51l17 83h-176l3 17l219 300h65l-52 -269h52l-9 -48h-52zM662 326l-140 -195h103z" glyph-name="onequarter" horiz-adv-x="911" unicode="¼"/><glyph d="M88 11l680 715l36 -37l-680 -715zM173 641l130 59h17l-77 -400h-51l63 325l-93 -41zM762 0h-249l3 19l182 185q16 16 28 30q26 32 26 68q0 52 -47 52q-29 0 -50.5 -20.5t-29.5 -55.5l-50 14q12 52 47.5 82t88.5 30q45 0 70.5 -26t25.5 -70q0 -62 -57 -121l-135 -137h157z" glyph-name="onehalf" horiz-adv-x="922" unicode="½"/><glyph d="M141 11l680 715l36 -37l-680 -715zM100 414l53 7q0 -77 64 -77q39 0 62.5 26.5t23.5 69.5q0 31 -14.5 50t-42.5 19q-21 0 -37 -10l-20 35l107 118h-134l10 48h216l-4 -17l-125 -135q8 2 16 2q37 0 60.5 -28t23.5 -73q0 -68 -41 -110.5t-109 -42.5q-50 0 -79.5 33 t-29.5 85zM691 0h-51l17 83h-176l3 17l219 300h65l-52 -269h52l-9 -48h-52zM703 326l-140 -195h103z" glyph-name="threequarters" horiz-adv-x="964" unicode="¾"/><glyph d="M131 167l-48 22q23 59 56 83.5t85 24.5q46 0 77.5 -31.5t31.5 -78.5q0 -54 -26 -86t-84 -58l-96 -42q-38 -16 -54 -35t-16 -48q0 -78 81 -78q82 0 117 107l58 -18q-45 -143 -182 -143q-66 0 -101.5 35t-35.5 95q0 84 101 131l102 46q40 18 58.5 38t18.5 52 q0 27 -16.5 43.5t-41.5 16.5q-29 0 -47.5 -17.5t-37.5 -58.5zM303 480q16 -15 16 -39t-16 -40q-15 -15 -39 -15t-40 15q-15 16 -15 40t15 39q16 16 40 16t39 -16z" glyph-name="questiondown" horiz-adv-x="440" unicode="¿"/><glyph d="M-54 0l379 700h63l116 -700h-68l-31 199h-283l-109 -199h-67zM396 261l-55 349l-186 -349h241zM258 896h93l43 -140h-51z" glyph-name="Agrave" horiz-adv-x="574" unicode="À"/><glyph d="M-54 0l379 700h63l116 -700h-68l-31 199h-283l-109 -199h-67zM396 261l-55 349l-186 -349h241zM373 756h-56l97 140h95z" glyph-name="Aacute" horiz-adv-x="574" unicode="Á"/><glyph d="M-54 0l379 700h63l116 -700h-68l-31 199h-283l-109 -199h-67zM396 261l-55 349l-186 -349h241zM285 762h-77l164 151h24l120 -151h-72l-68 89z" glyph-name="Acircumflex" horiz-adv-x="574" unicode="Â"/><glyph d="M-54 0l379 700h63l116 -700h-68l-31 199h-283l-109 -199h-67zM396 261l-55 349l-186 -349h241zM215 791l-30 29q51 69 109 69q36 0 68 -21q34 -20 55 -20q37 0 74 36l30 -29q-51 -69 -109 -69q-35 0 -69 20q-31 21 -54 21q-36 0 -74 -36z" glyph-name="Atilde" horiz-adv-x="574" unicode="Ã"/><glyph d="M-54 0l379 700h63l116 -700h-68l-31 199h-283l-109 -199h-67zM396 261l-55 349l-186 -349h241zM243 846q0 21 14 35.5t35 14.5t35 -14.5t14 -35.5q0 -20 -14 -34t-35 -14t-35 14t-14 34zM397 846q0 21 14 35.5t34 14.5q21 0 35.5 -14.5t14.5 -35.5q0 -20 -14.5 -34 t-35.5 -14q-20 0 -34 14t-14 34z" glyph-name="Adieresis" horiz-adv-x="574" unicode="Ä"/><glyph d="M-54 0l379 700h63l116 -700h-68l-31 199h-283l-109 -199h-67zM396 261l-55 349l-186 -349h241zM287 849q0 41 28 69.5t69 28.5q42 0 69.5 -28t27.5 -70q0 -40 -27.5 -67t-69.5 -27q-41 0 -69 27t-28 67zM384 798q23 0 37 14.5t14 37.5q0 24 -14 39t-37 15 q-22 0 -36.5 -15.5t-14.5 -38.5t14.5 -37.5t36.5 -14.5z" glyph-name="Aring" horiz-adv-x="574" unicode="Å"/><glyph d="M-54 0l442 700h433l-13 -62h-322l-45 -234h262l-12 -62h-262l-54 -280h332l-13 -62h-399l39 199h-191l-128 -199h-69zM414 610h-11l-221 -349h164z" glyph-name="AE" horiz-adv-x="814" unicode="Æ"/><glyph d="M522 211l62 -19q-98 -200 -298 -200q-105 0 -174 75q-68 76 -68 204q0 112 44 211q43 96 133 162q88 64 204 64q95 0 153 -57q58 -56 67 -143l-62 -17q-23 155 -170 155q-89 0 -159 -54q-68 -52 -104 -134.5t-36 -178.5q0 -105 48.5 -165t135.5 -60q154 0 224 157z M283 -60h56l-109 -154l-69 31z" glyph-name="Ccedilla" horiz-adv-x="659" unicode="Ç"/><glyph d="M42 0l136 700h390l-13 -62h-323l-45 -234h263l-12 -62h-263l-54 -280h333l-13 -62h-399zM291 896h93l43 -140h-51z" glyph-name="Egrave" horiz-adv-x="561" unicode="È"/><glyph d="M42 0l136 700h390l-13 -62h-323l-45 -234h263l-12 -62h-263l-54 -280h333l-13 -62h-399zM366 756h-56l97 140h95z" glyph-name="Eacute" horiz-adv-x="561" unicode="É"/><glyph d="M42 0l136 700h390l-13 -62h-323l-45 -234h263l-12 -62h-263l-54 -280h333l-13 -62h-399zM302 762h-77l164 151h24l120 -151h-72l-68 89z" glyph-name="Ecircumflex" horiz-adv-x="561" unicode="Ê"/><glyph d="M42 0l136 700h390l-13 -62h-323l-45 -234h263l-12 -62h-263l-54 -280h333l-13 -62h-399zM263 846q0 21 14 35.5t35 14.5t35 -14.5t14 -35.5q0 -20 -14 -34t-35 -14t-35 14t-14 34zM417 846q0 21 14 35.5t34 14.5q21 0 35.5 -14.5t14.5 -35.5q0 -20 -14.5 -34t-35.5 -14 q-20 0 -34 14t-14 34z" glyph-name="Edieresis" horiz-adv-x="561" unicode="Ë"/><glyph d="M179 700h67l-137 -700h-67zM119 896h93l43 -140h-51z" glyph-name="Igrave" horiz-adv-x="288" unicode="Ì"/><glyph d="M179 700h67l-137 -700h-67zM225 756h-56l97 140h95z" glyph-name="Iacute" horiz-adv-x="288" unicode="Í"/><glyph d="M179 700h67l-137 -700h-67zM147 762h-77l164 151h24l120 -151h-72l-68 89z" glyph-name="Icircumflex" horiz-adv-x="288" unicode="Î"/><glyph d="M179 700h67l-137 -700h-67zM106 846q0 21 14 35.5t35 14.5t35 -14.5t14 -35.5q0 -20 -14 -34t-35 -14t-35 14t-14 34zM260 846q0 21 14 35.5t34 14.5q21 0 35.5 -14.5t14.5 -35.5q0 -20 -14.5 -34t-35.5 -14q-20 0 -34 14t-14 34z" glyph-name="Idieresis" horiz-adv-x="288" unicode="Ï"/><glyph d="M112 381l61 319h175q122 0 193 -74t71 -200q0 -116 -46 -211q-47 -95 -138 -155q-92 -60 -212 -60h-179l63 319h-64l12 62h64zM341 638h-114l-50 -257h139l-12 -62h-139l-49 -257h102q147 0 235 103q90 104 90 254q0 108 -52.5 163.5t-149.5 55.5z" glyph-name="Eth" horiz-adv-x="660" unicode="Ð"/><glyph d="M484 105l116 595h67l-137 -700h-77l-227 593l-117 -593h-67l137 700h77zM304 791l-30 29q51 69 109 69q36 0 68 -21q34 -20 55 -20q36 0 74 36l30 -29q-51 -69 -109 -69q-35 0 -69 20q-32 21 -54 21q-36 0 -74 -36z" glyph-name="Ntilde" horiz-adv-x="709" unicode="Ñ"/><glyph d="M423 708q108 0 174 -75q67 -74 67 -204q0 -93 -34 -180.5t-96 -150.5q-102 -106 -250 -106q-106 0 -174 75q-66 75 -66 203q0 94 34 181t96 151q102 106 249 106zM411 646q-125 0 -209 -104q-42 -53 -65.5 -124.5t-23.5 -145.5q0 -103 48.5 -160.5t134.5 -57.5 q126 0 210 104q89 111 89 268q0 104 -49 162t-135 58zM346 896h93l43 -140h-51z" glyph-name="Ograve" horiz-adv-x="712" unicode="Ò"/><glyph d="M423 708q108 0 174 -75q67 -74 67 -204q0 -93 -34 -180.5t-96 -150.5q-102 -106 -250 -106q-106 0 -174 75q-66 75 -66 203q0 94 34 181t96 151q102 106 249 106zM411 646q-125 0 -209 -104q-42 -53 -65.5 -124.5t-23.5 -145.5q0 -103 48.5 -160.5t134.5 -57.5 q126 0 210 104q89 111 89 268q0 104 -49 162t-135 58zM422 756h-56l97 140h95z" glyph-name="Oacute" horiz-adv-x="712" unicode="Ó"/><glyph d="M423 708q108 0 174 -75q67 -74 67 -204q0 -93 -34 -180.5t-96 -150.5q-102 -106 -250 -106q-106 0 -174 75q-66 75 -66 203q0 94 34 181t96 151q102 106 249 106zM411 646q-125 0 -209 -104q-42 -53 -65.5 -124.5t-23.5 -145.5q0 -103 48.5 -160.5t134.5 -57.5 q126 0 210 104q89 111 89 268q0 104 -49 162t-135 58zM347 762h-77l164 151h24l120 -151h-72l-68 89z" glyph-name="Ocircumflex" horiz-adv-x="712" unicode="Ô"/><glyph d="M423 708q108 0 174 -75q67 -74 67 -204q0 -93 -34 -180.5t-96 -150.5q-102 -106 -250 -106q-106 0 -174 75q-66 75 -66 203q0 94 34 181t96 151q102 106 249 106zM411 646q-125 0 -209 -104q-42 -53 -65.5 -124.5t-23.5 -145.5q0 -103 48.5 -160.5t134.5 -57.5 q126 0 210 104q89 111 89 268q0 104 -49 162t-135 58zM316 791l-30 29q51 69 109 69q36 0 68 -21q34 -20 55 -20q36 0 74 36l30 -29q-51 -69 -109 -69q-35 0 -69 20q-32 21 -54 21q-36 0 -74 -36z" glyph-name="Otilde" horiz-adv-x="712" unicode="Õ"/><glyph d="M423 708q108 0 174 -75q67 -74 67 -204q0 -93 -34 -180.5t-96 -150.5q-102 -106 -250 -106q-106 0 -174 75q-66 75 -66 203q0 94 34 181t96 151q102 106 249 106zM411 646q-125 0 -209 -104q-42 -53 -65.5 -124.5t-23.5 -145.5q0 -103 48.5 -160.5t134.5 -57.5 q126 0 210 104q89 111 89 268q0 104 -49 162t-135 58zM330 846q0 21 14 35.5t35 14.5t35 -14.5t14 -35.5q0 -20 -14 -34t-35 -14t-35 14t-14 34zM484 846q0 21 14 35.5t34 14.5q21 0 35.5 -14.5t14.5 -35.5q0 -20 -14.5 -34t-35.5 -14q-20 0 -34 14t-14 34z" glyph-name="Odieresis" horiz-adv-x="712" unicode="Ö"/><glyph d="M302 316l154 -154l-40 -39l-153 153l-154 -153l-39 39l153 154l-153 153l39 40l154 -154l152 153l40 -40z" glyph-name="multiply" horiz-adv-x="526" unicode="×"/><glyph d="M423 708q95 0 159 -60l62 70l42 -39l-67 -75q45 -73 45 -175q0 -93 -34 -180.5t-96 -150.5q-102 -106 -250 -106q-94 0 -159 59l-62 -69l-42 39l67 75q-44 71 -44 174q0 94 34 181t96 151q102 106 249 106zM595 426q0 72 -25 123l-400 -447q48 -48 126 -48q126 0 210 104 q89 111 89 268zM411 646q-125 0 -209 -104q-42 -53 -65.5 -124.5t-23.5 -145.5q0 -72 24 -121l400 447q-48 48 -126 48z" glyph-name="Oslash" horiz-adv-x="712" unicode="Ø"/><glyph d="M77 224l92 476h67l-93 -482q-4 -21 -4 -38q0 -64 33 -95t107 -31q80 0 133 45.5t68 118.5l93 482h67l-92 -476q-22 -121 -100 -177q-76 -55 -181 -55q-88 0 -141.5 47t-53.5 132q0 26 5 53zM324 896h93l43 -140h-51z" glyph-name="Ugrave" horiz-adv-x="669" unicode="Ù"/><glyph d="M77 224l92 476h67l-93 -482q-4 -21 -4 -38q0 -64 33 -95t107 -31q80 0 133 45.5t68 118.5l93 482h67l-92 -476q-22 -121 -100 -177q-76 -55 -181 -55q-88 0 -141.5 47t-53.5 132q0 26 5 53zM405 756h-56l97 140h95z" glyph-name="Uacute" horiz-adv-x="669" unicode="Ú"/><glyph d="M77 224l92 476h67l-93 -482q-4 -21 -4 -38q0 -64 33 -95t107 -31q80 0 133 45.5t68 118.5l93 482h67l-92 -476q-22 -121 -100 -177q-76 -55 -181 -55q-88 0 -141.5 47t-53.5 132q0 26 5 53zM333 762h-77l164 151h24l120 -151h-72l-68 89z" glyph-name="Ucircumflex" horiz-adv-x="669" unicode="Û"/><glyph d="M77 224l92 476h67l-93 -482q-4 -21 -4 -38q0 -64 33 -95t107 -31q80 0 133 45.5t68 118.5l93 482h67l-92 -476q-22 -121 -100 -177q-76 -55 -181 -55q-88 0 -141.5 47t-53.5 132q0 26 5 53zM298 846q0 21 14 35.5t35 14.5t35 -14.5t14 -35.5q0 -20 -14 -34t-35 -14 t-35 14t-14 34zM452 846q0 21 14 35.5t34 14.5q21 0 35.5 -14.5t14.5 -35.5q0 -20 -14.5 -34t-35.5 -14q-20 0 -34 14t-14 34z" glyph-name="Udieresis" horiz-adv-x="669" unicode="Ü"/><glyph d="M120 0l60 304l-127 396h76l95 -331l229 331h79l-285 -396l-60 -304h-67zM291 756h-56l97 140h95z" glyph-name="Yacute" horiz-adv-x="472" unicode="Ý"/><glyph d="M301 157h-162l-32 -157h-65l136 700h65l-30 -157h156q85 0 132.5 -41.5t47.5 -114.5q0 -110 -69 -170q-68 -60 -179 -60zM201 481l-50 -262h166q73 0 118 42.5t45 114.5q0 105 -112 105h-167z" glyph-name="Thorn" horiz-adv-x="579" unicode="Þ"/><glyph d="M115 354h-54l11 56h54l17 90q20 103 79 155.5t145 52.5q68 0 107.5 -40.5t39.5 -108.5q0 -64 -34 -112t-93 -64q47 -13 79.5 -56t32.5 -101q0 -112 -65.5 -173t-177.5 -61q-48 0 -83 7l12 58q31 -7 68 -7q81 0 131 43t50 120q0 66 -37.5 103.5t-103.5 37.5h-32l11 56h38 q63 0 102 37t39 97q0 106 -95 106q-56 0 -94.5 -38.5t-53.5 -114.5l-97 -497h-65z" glyph-name="germandbls" horiz-adv-x="581" unicode="ß"/><glyph d="M515 504l-97 -504h-65l12 66q-38 -41 -75 -57.5t-89 -16.5q-86 0 -129 58t-43 146q0 135 74 226q73 90 199 90q102 0 135 -79l13 71h65zM95 206q0 -72 31.5 -114t91.5 -42q63 0 109 40q47 41 68 97q21 55 21 117q0 71 -30.5 110.5t-91.5 39.5q-93 0 -146 -77t-53 -171z M245 700h93l43 -140h-51z" glyph-name="agrave" horiz-adv-x="575" unicode="à"/><glyph d="M515 504l-97 -504h-65l12 66q-38 -41 -75 -57.5t-89 -16.5q-86 0 -129 58t-43 146q0 135 74 226q73 90 199 90q102 0 135 -79l13 71h65zM95 206q0 -72 31.5 -114t91.5 -42q63 0 109 40q47 41 68 97q21 55 21 117q0 71 -30.5 110.5t-91.5 39.5q-93 0 -146 -77t-53 -171z M315 560h-56l97 140h95z" glyph-name="aacute" horiz-adv-x="575" unicode="á"/><glyph d="M515 504l-97 -504h-65l12 66q-38 -41 -75 -57.5t-89 -16.5q-86 0 -129 58t-43 146q0 135 74 226q73 90 199 90q102 0 135 -79l13 71h65zM95 206q0 -72 31.5 -114t91.5 -42q63 0 109 40q47 41 68 97q21 55 21 117q0 71 -30.5 110.5t-91.5 39.5q-93 0 -146 -77t-53 -171z M255 566h-77l164 151h24l120 -151h-72l-68 89z" glyph-name="acircumflex" horiz-adv-x="575" unicode="â"/><glyph d="M515 504l-97 -504h-65l12 66q-38 -41 -75 -57.5t-89 -16.5q-86 0 -129 58t-43 146q0 135 74 226q73 90 199 90q102 0 135 -79l13 71h65zM95 206q0 -72 31.5 -114t91.5 -42q63 0 109 40q47 41 68 97q21 55 21 117q0 71 -30.5 110.5t-91.5 39.5q-93 0 -146 -77t-53 -171z M210 595l-30 29q51 69 109 69q37 0 68 -21q34 -20 55 -20q36 0 74 36l30 -29q-51 -69 -109 -69q-35 0 -69 20q-32 21 -54 21q-36 0 -74 -36z" glyph-name="atilde" horiz-adv-x="576" unicode="ã"/><glyph d="M515 504l-97 -504h-65l12 66q-38 -41 -75 -57.5t-89 -16.5q-86 0 -129 58t-43 146q0 135 74 226q73 90 199 90q102 0 135 -79l13 71h65zM95 206q0 -72 31.5 -114t91.5 -42q63 0 109 40q47 41 68 97q21 55 21 117q0 71 -30.5 110.5t-91.5 39.5q-93 0 -146 -77t-53 -171z M215 650q0 21 14 35.5t35 14.5t35 -14.5t14 -35.5q0 -20 -14 -34t-35 -14t-35 14t-14 34zM369 650q0 21 14 35.5t34 14.5q21 0 35.5 -14.5t14.5 -35.5q0 -20 -14.5 -34t-35.5 -14q-20 0 -34 14t-14 34z" glyph-name="adieresis" horiz-adv-x="575" unicode="ä"/><glyph d="M515 504l-97 -504h-65l12 66q-38 -41 -75 -57.5t-89 -16.5q-86 0 -129 58t-43 146q0 135 74 226q73 90 199 90q102 0 135 -79l13 71h65zM95 206q0 -72 31.5 -114t91.5 -42q63 0 109 40q47 41 68 97q21 55 21 117q0 71 -30.5 110.5t-91.5 39.5q-93 0 -146 -77t-53 -171z M246 653q0 41 28 69.5t69 28.5q42 0 69.5 -28t27.5 -70q0 -40 -27.5 -67t-69.5 -27q-41 0 -69 27t-28 67zM343 602q23 0 37 14.5t14 37.5q0 24 -14 39t-37 15q-22 0 -36.5 -15.5t-14.5 -38.5t14.5 -37.5t36.5 -14.5z" glyph-name="aring" horiz-adv-x="575" unicode="å"/><glyph d="M813 280l-5 -28h-375q-6 -29 -6 -56q0 -69 32 -107.5t92 -38.5q102 0 170 104l52 -23q-49 -76 -104 -107.5t-129 -31.5q-123 0 -164 113q-46 -61 -94.5 -87t-109.5 -26q-58 0 -101 38q-42 37 -42 103q0 90 63 133.5t176 43.5h109l4 22q4 15 4 36q0 40 -24.5 63t-71.5 23 q-90 0 -130 -94l-57 14q20 64 74 101t124 37q52 0 89 -24.5t52 -69.5q81 94 200 94q83 0 130.5 -49t47.5 -132q0 -21 -6 -51zM366 256h-102q-77 0 -123.5 -31t-46.5 -91q0 -37 24 -60.5t65 -23.5q65 0 114.5 48t64.5 135zM630 454q-58 0 -105.5 -39.5t-74.5 -104.5h306 q0 144 -126 144z" glyph-name="ae" horiz-adv-x="879" unicode="æ"/><glyph d="M378 153l52 -22q-44 -75 -96.5 -107t-128.5 -32q-84 0 -131 59q-45 60 -45 148q0 126 75 219q76 94 202 94q68 0 112.5 -36t58.5 -103l-60 -22q-22 103 -122 103q-93 0 -147 -76q-54 -75 -54 -176q0 -71 31.5 -111.5t90.5 -40.5q99 0 162 103zM186 -60h56l-109 -154 l-69 31z" glyph-name="ccedilla" horiz-adv-x="525" unicode="ç"/><glyph d="M479 280l-5 -28h-375q-7 -22 -7 -56q0 -69 32.5 -107.5t92.5 -38.5q51 0 89.5 26.5t81.5 86.5l51 -32q-81 -139 -233 -139q-84 0 -131.5 55.5t-47.5 151.5q0 75 33 146t98 119q66 48 149 48t130.5 -49t47.5 -132q0 -21 -6 -51zM296 454q-58 0 -105.5 -39.5t-74.5 -104.5 h306q0 144 -126 144zM237 700h93l43 -140h-51z" glyph-name="egrave" horiz-adv-x="545" unicode="è"/><glyph d="M479 280l-5 -28h-375q-7 -22 -7 -56q0 -69 32.5 -107.5t92.5 -38.5q51 0 89.5 26.5t81.5 86.5l51 -32q-81 -139 -233 -139q-84 0 -131.5 55.5t-47.5 151.5q0 75 33 146t98 119q66 48 149 48t130.5 -49t47.5 -132q0 -21 -6 -51zM296 454q-58 0 -105.5 -39.5t-74.5 -104.5 h306q0 144 -126 144zM314 560h-56l97 140h95z" glyph-name="eacute" horiz-adv-x="545" unicode="é"/><glyph d="M479 280l-5 -28h-375q-7 -22 -7 -56q0 -69 32.5 -107.5t92.5 -38.5q51 0 89.5 26.5t81.5 86.5l51 -32q-81 -139 -233 -139q-84 0 -131.5 55.5t-47.5 151.5q0 75 33 146t98 119q66 48 149 48t130.5 -49t47.5 -132q0 -21 -6 -51zM296 454q-58 0 -105.5 -39.5t-74.5 -104.5 h306q0 144 -126 144zM240 566h-77l164 151h24l120 -151h-72l-68 89z" glyph-name="ecircumflex" horiz-adv-x="545" unicode="ê"/><glyph d="M479 280l-5 -28h-375q-7 -22 -7 -56q0 -69 32.5 -107.5t92.5 -38.5q51 0 89.5 26.5t81.5 86.5l51 -32q-81 -139 -233 -139q-84 0 -131.5 55.5t-47.5 151.5q0 75 33 146t98 119q66 48 149 48t130.5 -49t47.5 -132q0 -21 -6 -51zM296 454q-58 0 -105.5 -39.5t-74.5 -104.5 h306q0 144 -126 144zM215 650q0 21 14 35.5t35 14.5t35 -14.5t14 -35.5q0 -20 -14 -34t-35 -14t-35 14t-14 34zM369 650q0 21 14 35.5t34 14.5q21 0 35.5 -14.5t14.5 -35.5q0 -20 -14.5 -34t-35.5 -14q-20 0 -34 14t-14 34z" glyph-name="edieresis" horiz-adv-x="545" unicode="ë"/><glyph d="M34 0l97 504h63l-98 -504h-62zM63 700h93l43 -140h-51z" glyph-name="igrave" horiz-adv-x="259" unicode="ì"/><glyph d="M34 0l97 504h63l-98 -504h-62zM146 560h-56l97 140h95z" glyph-name="iacute" horiz-adv-x="259" unicode="í"/><glyph d="M34 0l97 504h63l-98 -504h-62zM77 566h-77l164 151h24l120 -151h-72l-68 89z" glyph-name="icircumflex" horiz-adv-x="259" unicode="î"/><glyph d="M34 0l97 504h63l-98 -504h-62zM44 650q0 21 14 35.5t35 14.5t35 -14.5t14 -35.5q0 -20 -14 -34t-35 -14t-35 14t-14 34zM198 650q0 21 14 35.5t34 14.5q21 0 35.5 -14.5t14.5 -35.5q0 -20 -14.5 -34t-35.5 -14q-20 0 -34 14t-14 34z" glyph-name="idieresis" horiz-adv-x="259" unicode="ï"/><glyph d="M336 619l-59 -68l-36 30l58 67q-25 16 -75 39l38 43q52 -26 74 -41l49 56l36 -30l-48 -54q66 -53 99 -128t33 -188q0 -156 -72 -255q-71 -98 -214 -98q-87 0 -139 60q-51 62 -51 158q0 127 78 214q78 88 204 88q85 0 125 -57q-12 91 -100 164zM300 454q-88 0 -147 -69 q-59 -70 -59 -169q0 -77 36 -121.5t101 -44.5q91 0 146 70t55 165q0 169 -132 169z" glyph-name="eth" horiz-adv-x="573" unicode="ð"/><glyph d="M483 346l-67 -346h-63l65 338q5 30 5 40q0 76 -78 76q-62 0 -125 -68q-62 -67 -82 -165l-42 -221h-63l97 504h63l-21 -105q31 49 85 81q55 32 109 32q58 0 90 -31.5t32 -90.5q0 -11 -5 -44zM201 595l-30 29q51 69 109 69q36 0 68 -21q34 -20 55 -20q37 0 74 36l30 -29 q-51 -69 -109 -69q-35 0 -69 20q-31 21 -54 21q-37 0 -74 -36z" glyph-name="ntilde" horiz-adv-x="572" unicode="ñ"/><glyph d="M29 207q0 127 70 209q83 96 210 96q90 0 140.5 -57.5t50.5 -157.5q0 -127 -70 -209q-82 -96 -210 -96q-90 0 -140.5 57.5t-50.5 157.5zM298 454q-88 0 -150 -75q-54 -66 -54 -166q0 -76 35 -119.5t102 -43.5q89 0 150 75q54 66 54 166q0 76 -35 119.5t-102 43.5zM245 700 h93l43 -140h-51z" glyph-name="ograve" horiz-adv-x="568" unicode="ò"/><glyph d="M29 207q0 127 70 209q83 96 210 96q90 0 140.5 -57.5t50.5 -157.5q0 -127 -70 -209q-82 -96 -210 -96q-90 0 -140.5 57.5t-50.5 157.5zM298 454q-88 0 -150 -75q-54 -66 -54 -166q0 -76 35 -119.5t102 -43.5q89 0 150 75q54 66 54 166q0 76 -35 119.5t-102 43.5zM315 560 h-56l97 140h95z" glyph-name="oacute" horiz-adv-x="568" unicode="ó"/><glyph d="M29 207q0 127 70 209q83 96 210 96q90 0 140.5 -57.5t50.5 -157.5q0 -127 -70 -209q-82 -96 -210 -96q-90 0 -140.5 57.5t-50.5 157.5zM298 454q-88 0 -150 -75q-54 -66 -54 -166q0 -76 35 -119.5t102 -43.5q89 0 150 75q54 66 54 166q0 76 -35 119.5t-102 43.5zM242 566 h-77l164 151h24l120 -151h-72l-68 89z" glyph-name="ocircumflex" horiz-adv-x="568" unicode="ô"/><glyph d="M29 207q0 127 70 209q83 96 210 96q90 0 140.5 -57.5t50.5 -157.5q0 -127 -70 -209q-82 -96 -210 -96q-90 0 -140.5 57.5t-50.5 157.5zM298 454q-88 0 -150 -75q-54 -66 -54 -166q0 -76 35 -119.5t102 -43.5q89 0 150 75q54 66 54 166q0 76 -35 119.5t-102 43.5zM205 595 l-30 29q51 69 109 69q36 0 68 -21q34 -20 55 -20q37 0 74 36l30 -29q-51 -69 -109 -69q-35 0 -69 20q-31 21 -54 21q-37 0 -74 -36z" glyph-name="otilde" horiz-adv-x="568" unicode="õ"/><glyph d="M29 207q0 127 70 209q83 96 210 96q90 0 140.5 -57.5t50.5 -157.5q0 -127 -70 -209q-82 -96 -210 -96q-90 0 -140.5 57.5t-50.5 157.5zM298 454q-88 0 -150 -75q-54 -66 -54 -166q0 -76 35 -119.5t102 -43.5q89 0 150 75q54 66 54 166q0 76 -35 119.5t-102 43.5zM219 650 q0 21 14 35.5t35 14.5t35 -14.5t14 -35.5q0 -20 -14 -34t-35 -14t-35 14t-14 34zM373 650q0 21 14 35.5t34 14.5q21 0 35.5 -14.5t14.5 -35.5q0 -20 -14.5 -34t-35.5 -14q-20 0 -34 14t-14 34z" glyph-name="odieresis" horiz-adv-x="568" unicode="ö"/><glyph d="M279 83q-23 0 -37 14.5t-14 36.5t14.5 36.5t36.5 14.5t36.5 -14.5t14.5 -36.5t-14.5 -36.5t-36.5 -14.5zM279 449q-23 0 -37 14.5t-14 36.5t14.5 36.5t36.5 14.5t36.5 -14.5t14.5 -36.5t-14.5 -36.5t-36.5 -14.5zM485 289h-410v56h410v-56z" glyph-name="divide" horiz-adv-x="555" unicode="÷"/><glyph d="M29 207q0 127 70 209q83 96 210 96q80 0 130 -47l75 77l40 -39l-81 -83q27 -54 27 -123q0 -127 -70 -209q-82 -96 -210 -96q-77 0 -126 43l-71 -73l-39 39l75 77q-30 51 -30 129zM298 454q-88 0 -150 -75q-54 -66 -54 -166q0 -47 15 -85l284 290q-35 36 -95 36zM435 291 q0 43 -12 78l-283 -288q34 -31 91 -31q89 0 150 75q54 66 54 166z" glyph-name="oslash" horiz-adv-x="568" unicode="ø"/><glyph d="M59 158l67 346h63l-65 -338q-5 -30 -5 -40q0 -76 78 -76q62 0 125 67q62 67 82 166l42 221h63l-97 -504h-63l21 105q-32 -51 -86 -82q-52 -31 -108 -31q-58 0 -90 31.5t-32 90.5q0 11 5 44zM248 700h93l43 -140h-51z" glyph-name="ugrave" horiz-adv-x="569" unicode="ù"/><glyph d="M59 158l67 346h63l-65 -338q-5 -30 -5 -40q0 -76 78 -76q62 0 125 67q62 67 82 166l42 221h63l-97 -504h-63l21 105q-32 -51 -86 -82q-52 -31 -108 -31q-58 0 -90 31.5t-32 90.5q0 11 5 44zM329 560h-56l97 140h95z" glyph-name="uacute" horiz-adv-x="569" unicode="ú"/><glyph d="M59 158l67 346h63l-65 -338q-5 -30 -5 -40q0 -76 78 -76q62 0 125 67q62 67 82 166l42 221h63l-97 -504h-63l21 105q-32 -51 -86 -82q-52 -31 -108 -31q-58 0 -90 31.5t-32 90.5q0 11 5 44zM245 566h-77l164 151h24l120 -151h-72l-68 89z" glyph-name="ucircumflex" horiz-adv-x="569" unicode="û"/><glyph d="M59 158l67 346h63l-65 -338q-5 -30 -5 -40q0 -76 78 -76q62 0 125 67q62 67 82 166l42 221h63l-97 -504h-63l21 105q-32 -51 -86 -82q-52 -31 -108 -31q-58 0 -90 31.5t-32 90.5q0 11 5 44zM208 650q0 21 14 35.5t35 14.5t35 -14.5t14 -35.5q0 -20 -14 -34t-35 -14 t-35 14t-14 34zM362 650q0 21 14 35.5t34 14.5q21 0 35.5 -14.5t14.5 -35.5q0 -20 -14.5 -34t-35.5 -14q-20 0 -34 14t-14 34z" glyph-name="udieresis" horiz-adv-x="569" unicode="ü"/><glyph d="M167 93l219 411h73l-388 -708h-67l113 207l-81 501h67zM261 560h-56l97 140h95z" glyph-name="yacute" horiz-adv-x="452" unicode="ý"/><glyph d="M-3 -204l177 912h63l-50 -268q27 32 71 52t89 20q85 0 130.5 -54.5t45.5 -153.5q0 -135 -73 -223q-72 -89 -202 -89q-44 0 -82 24.5t-51 58.5l-55 -279h-63zM258 50q94 0 147 72q53 73 53 171q0 78 -32.5 119.5t-92.5 41.5q-82 0 -138 -80t-56 -176q0 -73 31 -110.5 t88 -37.5z" glyph-name="thorn" horiz-adv-x="591" unicode="þ"/><glyph d="M167 93l219 411h73l-388 -708h-67l113 207l-81 501h67zM128 650q0 21 14 35.5t35 14.5t35 -14.5t14 -35.5q0 -20 -14 -34t-35 -14t-35 14t-14 34zM282 650q0 21 14 35.5t34 14.5q21 0 35.5 -14.5t14.5 -35.5q0 -20 -14.5 -34t-35.5 -14q-20 0 -34 14t-14 34z" glyph-name="ydieresis" horiz-adv-x="452" unicode="ÿ"/><glyph d="M34 0l97 504h63l-98 -504h-62z" glyph-name="dotlessi" horiz-adv-x="259" unicode="ı"/><glyph d="M108 342l70 358h67l-63 -321l141 70l17 -49l-170 -85l-49 -253h320l-13 -62h-386l54 278l-80 -40l-18 49z" glyph-name="Lslash" horiz-adv-x="502" unicode="Ł"/><glyph d="M126 315l-86 -43l-16 49l114 58l65 329h63l-58 -295l85 43l18 -49l-116 -58l-68 -349h-63z" glyph-name="lslash" horiz-adv-x="318" unicode="ł"/><glyph d="M635 573l25 127h390l-13 -62h-323l-45 -234h263l-12 -62h-263l-54 -280h333l-13 -62h-399l21 110l-11 -12q-102 -106 -250 -106q-106 0 -174 75q-66 75 -66 203q0 94 34 181t96 151q102 106 249 106q72 0 127.5 -35.5t84.5 -99.5zM411 646q-125 0 -209 -104 q-42 -53 -65.5 -124.5t-23.5 -145.5q0 -103 48.5 -160.5t134.5 -57.5q126 0 210 104q89 111 89 268q0 104 -49 162t-135 58z" glyph-name="OE" horiz-adv-x="1043" unicode="Œ"/><glyph d="M881 280l-5 -28h-375q-7 -22 -7 -56q0 -69 32.5 -107.5t92.5 -38.5q102 0 170 104l52 -23q-49 -76 -104 -107.5t-129 -31.5q-123 0 -165 113q-80 -113 -223 -113q-90 0 -140.5 57.5t-50.5 157.5q0 127 70 209q83 96 210 96q67 0 112.5 -32.5t64.5 -92.5q39 58 97 91.5 t126 33.5q83 0 130.5 -49t47.5 -132q0 -21 -6 -51zM298 454q-88 0 -150 -75q-54 -66 -54 -166q0 -76 35 -119.5t102 -43.5q89 0 150 75q54 66 54 166q0 76 -35 119.5t-102 43.5zM698 454q-58 0 -105.5 -39.5t-74.5 -104.5h306q0 144 -126 144z" glyph-name="oe" horiz-adv-x="947" unicode="œ"/><glyph d="M477 594l-61 -34q-27 86 -101 86q-53 0 -84.5 -33.5t-31.5 -89.5q0 -45 34 -75q32 -27 74 -50q69 -39 102 -78.5t33 -94.5q0 -105 -54 -163q-64 -70 -184 -70q-76 0 -129 54q-52 53 -52 135l60 30q0 -64 35 -111q36 -46 98 -46q73 0 115 40t42 111q0 37 -18 66 q-11 19 -25 32.5t-26.5 21t-43.5 24.5q-63 35 -95.5 74.5t-32.5 95.5q0 85 53.5 137t141.5 52q56 0 95 -32t55 -82zM433 913h77l-164 -151h-24l-120 151h72l68 -89z" glyph-name="Scaron" horiz-adv-x="521" unicode="Š"/><glyph d="M253 512q90 0 135 -78l-49 -36q-32 56 -95 56q-37 0 -61.5 -22t-24.5 -57q0 -33 26 -54q23 -16 57 -31q115 -52 115 -135q0 -80 -46 -121.5t-129 -41.5q-71 0 -114 43t-49 97l60 28q23 -110 112 -110q44 0 71.5 24t27.5 65q0 27 -15 47q-13 19 -28 28.5t-49 24.5 q-53 22 -78.5 51.5t-25.5 75.5q0 69 42.5 107.5t117.5 38.5zM371 717h77l-164 -151h-24l-120 151h72l68 -89z" glyph-name="scaron" horiz-adv-x="448" unicode="š"/><glyph d="M120 0l60 304l-127 396h76l95 -331l229 331h79l-285 -396l-60 -304h-67zM181 846q0 21 14 35.5t35 14.5t35 -14.5t14 -35.5q0 -20 -14 -34t-35 -14t-35 14t-14 34zM335 846q0 21 14 35.5t34 14.5q21 0 35.5 -14.5t14.5 -35.5q0 -20 -14.5 -34t-35.5 -14q-20 0 -34 14 t-14 34z" glyph-name="Ydieresis" horiz-adv-x="472" unicode="Ÿ"/><glyph d="M445 638h-333l12 62h427l-7 -32l-450 -606h350l-13 -62h-446l7 32zM442 913h77l-164 -151h-24l-120 151h72l68 -89z" glyph-name="Zcaron" horiz-adv-x="556" unicode="Ž"/><glyph d="M333 446h-244l11 58h332l-6 -34l-325 -412h259l-11 -58h-350l5 30zM378 717h77l-164 -151h-24l-120 151h72l68 -89z" glyph-name="zcaron" horiz-adv-x="463" unicode="ž"/><glyph d="M224 446h-90l12 58h90l6 32q17 91 62 131.5t124 40.5q39 0 61 -13l-24 -57q-23 12 -50 12q-88 0 -109 -104l-8 -42h122l-12 -58h-122l-94 -486q-18 -92 -61.5 -132t-120.5 -40q-43 0 -65 13l24 57q24 -12 50 -12q47 0 72.5 24.5t36.5 79.5z" glyph-name="florin" horiz-adv-x="434" unicode="ƒ"/><glyph d="M151 566h-77l164 151h24l120 -151h-72l-68 89z" glyph-name="circumflex" horiz-adv-x="383" unicode="ˆ"/><glyph d="M321 717h77l-164 -151h-24l-120 151h72l68 -89z" glyph-name="caron" horiz-adv-x="359" unicode="ˇ"/><glyph d="M236 700h51q-22 -109 -126 -109q-41 0 -64 23t-23 63q0 13 3 23h51q-2 -10 -2 -14q0 -45 45 -45q54 0 65 59z" glyph-name="breve" horiz-adv-x="250" unicode="˘"/><glyph d="M151 612q-14 15 -14 37t14 36q15 15 37 15t36 -15q15 -14 15 -36t-15 -37q-14 -14 -36 -14t-37 14z" glyph-name="dotaccent" horiz-adv-x="259" unicode="˙"/><glyph d="M63 653q0 41 28 69.5t69 28.5q42 0 69.5 -28t27.5 -70q0 -40 -27.5 -67t-69.5 -27q-41 0 -69 27t-28 67zM160 602q23 0 37 14.5t14 37.5q0 24 -14 39t-37 15q-22 0 -36.5 -15.5t-14.5 -38.5t14.5 -37.5t36.5 -14.5z" glyph-name="ring" horiz-adv-x="216" unicode="˚"/><glyph d="M47 -60h55l-32 -23q-14 -11 -27.5 -29.5t-13.5 -32.5q0 -28 28 -28q27 0 65 42l33 -31q-34 -37 -60 -52t-59 -15q-32 0 -49.5 16.5t-17.5 46.5q0 31 19 55t59 51z" glyph-name="ogonek" horiz-adv-x="227" unicode="˛"/><glyph d="M103 595l-30 29q51 69 109 69q36 0 68 -21q34 -20 55 -20q37 0 74 36l30 -29q-51 -69 -109 -69q-35 0 -69 20q-31 21 -54 21q-37 0 -74 -36z" glyph-name="tilde" horiz-adv-x="380" unicode="˜"/><glyph d="M113 560h-56l97 140h95zM263 560h-56l97 140h95z" glyph-name="hungarumlaut" horiz-adv-x="357" unicode="˝"/><glyph d="M292 0h-210v56h138q-14 22 -41 81q-21 49 -36 88q-13 37 -28 103q-13 58 -13 112q0 119 65 193q66 75 176 75q111 0 175 -75q66 -74 66 -193q0 -158 -102 -354l-16 -30h138v-56h-210v19q14 24 41 88q21 52 35 95q14 41 29 114q13 64 13 124q0 97 -46.5 154.5t-122.5 57.5 t-122.5 -57.5t-46.5 -154.5q0 -175 101 -388l17 -33v-19z" glyph-name="Omega" horiz-adv-x="686" unicode="Ω"/><glyph d="M134 448h-89v56h481v-56h-89v-448h-62v448h-179v-448h-62v448z" glyph-name="pi" horiz-adv-x="560" unicode="π"/><glyph d="M455 289h-395l11 56h395z" glyph-name="endash" horiz-adv-x="535" unicode="–"/><glyph d="M649 289h-589l11 56h589z" glyph-name="emdash" horiz-adv-x="729" unicode="—"/><glyph d="M76 708h102l30 -184h-50z" glyph-name="quoteleft" horiz-adv-x="234" unicode="‘"/><glyph d="M127 524h-51l96 184h105z" glyph-name="quoteright" horiz-adv-x="226" unicode="’"/><glyph d="M51 -14h-51l96 184h105z" glyph-name="quotesinglbase" horiz-adv-x="314" unicode="‚"/><glyph d="M76 708h102l30 -184h-50zM237 708h102l30 -184h-50z" glyph-name="quotedblleft" horiz-adv-x="395" unicode="“"/><glyph d="M131 524h-51l96 184h105zM291 524h-51l96 184h105z" glyph-name="quotedblright" horiz-adv-x="390" unicode="”"/><glyph d="M51 -14h-51l96 184h105zM211 -14h-51l96 184h105z" glyph-name="quotedblbase" horiz-adv-x="474" unicode="„"/><glyph d="M211 448h-133l10 56h134l48 246h61l-48 -246h135l-10 -56h-136l-96 -498h-61z" glyph-name="dagger" horiz-adv-x="453" unicode="†"/><glyph d="M212 448h-134l10 56h134l48 246h61l-48 -246h135l-10 -56h-135l-39 -196h135l-10 -56h-135l-48 -246h-61l48 246h-133l10 56h133z" glyph-name="daggerdbl" horiz-adv-x="453" unicode="‡"/><glyph d="M101 284q-19 19 -19 46t19 46t46 19t46 -19t19 -46t-19 -46t-46 -19t-46 19z" glyph-name="bullet" horiz-adv-x="313" unicode="•"/><glyph d="M29 49q0 22 14.5 36.5t36.5 14.5t36.5 -14.5t14.5 -36.5t-14.5 -36.5t-36.5 -14.5t-36.5 14t-14.5 37zM276 49q0 33 32 46.5t55 -10.5q24 -23 10.5 -55t-46.5 -32q-23 0 -37 14t-14 37zM523 49q0 22 14.5 36.5t36.5 14.5t36.5 -14.5t14.5 -36.5t-14.5 -36.5t-36.5 -14.5 t-36.5 14t-14.5 37z" glyph-name="ellipsis" horiz-adv-x="756" unicode="…"/><glyph d="M70 526q0 75 46 127q49 55 136 55q56 0 94 -38t38 -100q0 -75 -46 -127q-49 -55 -136 -55q-56 0 -94 38t-38 100zM244 654q-51 0 -84.5 -33.5t-33.5 -86.5q0 -43 23 -67.5t61 -24.5q51 0 84.5 33.5t33.5 86.5q0 43 -23 67.5t-61 24.5zM450 130q0 75 46 127q49 55 136 55 q56 0 94 -38t38 -100q0 -75 -46 -127q-49 -55 -136 -55q-56 0 -94 38t-38 100zM624 258q-51 0 -84.5 -33.5t-33.5 -86.5q0 -43 23 -67.5t61 -24.5q51 0 84.5 33.5t33.5 86.5q0 43 -23 67.5t-61 24.5zM830 130q0 75 46 127q49 55 136 55q56 0 94 -38t38 -100q0 -75 -46 -127 q-49 -55 -136 -55q-56 0 -94 38t-38 100zM1004 258q-51 0 -84.5 -33.5t-33.5 -86.5q0 -43 23 -67.5t61 -24.5q51 0 84.5 33.5t33.5 86.5q0 43 -23 67.5t-61 24.5zM76 11l680 715l36 -37l-680 -715z" glyph-name="perthousand" horiz-adv-x="1232" unicode="‰"/><glyph d="M264 94l-224 195l12 48l297 189l-14 -75l-233 -144l175 -151z" glyph-name="guilsinglleft" horiz-adv-x="378" unicode="‹"/><glyph d="M109 526l224 -195l-10 -44l-299 -193l14 75l230 145l-173 148z" glyph-name="guilsinglright" horiz-adv-x="378" unicode="›"/><glyph d="M15 11l680 715l36 -37l-680 -715z" glyph-name="fraction" horiz-adv-x="746" unicode="⁄"/><glyph d="M233 704q52 0 84 -39.5t32 -109.5q0 -63 -19 -119q-18 -56 -62 -99q-44 -41 -106 -41q-52 0 -84 39.5t-32 109.5q0 62 18 119q20 58 63 98q44 42 106 42zM224 656q-39 0 -69 -35q-56 -66 -56 -170q0 -107 72 -107q39 0 69 35q56 66 56 170q0 107 -72 107z" glyph-name="zerosuperior" horiz-adv-x="363" unicode="⁰"/><glyph d="M250 300h-51l17 83h-176l3 17l219 300h65l-52 -269h52l-9 -48h-52zM262 626l-140 -195h103z" glyph-name="foursuperior" horiz-adv-x="380" unicode="⁴"/><glyph d="M44 407l49 8q0 -32 16 -51.5t47 -19.5q43 0 68 30.5t25 78.5q0 64 -58 64q-47 0 -90 -43l-36 8l64 218h200l-10 -48h-156l-35 -115q31 28 77 28q48 0 74 -28.5t26 -77.5q0 -74 -42 -118.5t-113 -44.5q-47 0 -76.5 29.5t-29.5 81.5z" glyph-name="fivesuperior" horiz-adv-x="355" unicode="⁵"/><glyph d="M223 559q45 0 71.5 -27t26.5 -78q0 -66 -45 -112q-43 -46 -110 -46q-47 0 -77.5 30.5t-30.5 79.5q0 54 42 109l145 189h60l-122 -155q13 10 40 10zM208 511q-41 0 -67.5 -27.5t-26.5 -71.5q0 -31 16 -49.5t45 -18.5q39 0 64.5 29t25.5 71q0 67 -57 67z" glyph-name="sixsuperior" horiz-adv-x="354" unicode="⁶"/><glyph d="M327 678l-228 -378h-53l211 352h-166l9 48h231z" glyph-name="sevensuperior" horiz-adv-x="310" unicode="⁷"/><glyph d="M222 704q41 0 66.5 -26.5t25.5 -66.5q0 -33 -18.5 -59t-49.5 -37q48 -19 48 -84q0 -62 -41.5 -98.5t-106.5 -36.5q-46 0 -75 29t-29 77q0 38 23 69t62 46q-16 9 -26.5 29.5t-10.5 43.5q0 50 37.5 82t94.5 32zM183 489q-37 0 -61 -23t-24 -57q0 -65 57 -65q39 0 61 21.5 t22 62.5q0 61 -55 61zM214 660q-32 0 -53.5 -19t-21.5 -49q0 -24 15 -39.5t39 -15.5q32 0 52 17.5t20 48.5q0 57 -51 57z" glyph-name="eightsuperior" horiz-adv-x="317" unicode="⁸"/><glyph d="M165 441q-45 0 -71.5 27t-26.5 78q0 65 44 112q45 46 111 46q47 0 77.5 -30.5t30.5 -79.5q0 -54 -42 -109l-145 -189h-60l121 154q-14 -9 -39 -9zM180 489q41 0 67.5 27.5t26.5 71.5q0 31 -16 49.5t-45 18.5q-39 0 -64.5 -29t-25.5 -71q0 -67 57 -67z" glyph-name="ninesuperior" horiz-adv-x="354" unicode="⁹"/><glyph d="M130 395h-87l40 56h61q80 257 297 257q124 0 165 -116l-55 -27q-31 87 -121 87q-155 0 -221 -201h252l-40 -56h-228l-18 -90h258l-40 -56h-223q0 -103 34 -152t109 -49q91 0 149 90l49 -30q-47 -63 -94.5 -89.5t-114.5 -26.5q-97 0 -147 68t-50 189h-90l40 56h57z" glyph-name="Euro" horiz-adv-x="588" unicode="€"/><glyph d="M200 656h-110l8 44h270l-8 -44h-110l-69 -356h-50zM367 300l77 400h53l64 -282l166 282h59l-77 -400h-50l57 295l-157 -258h-28l-57 258l-57 -295h-50z" glyph-name="trademark" horiz-adv-x="804" unicode="™"/><glyph d="M176 560l-65 17q28 62 79 96.5t121 34.5q107 0 164 -91t57 -262q0 -99 -30 -180q-30 -83 -95.5 -133t-154.5 -50q-87 0 -143 59q-55 58 -55 155q0 126 75 216q76 90 199 90q41 0 80.5 -16t57.5 -41q-9 90 -52.5 142.5t-109.5 52.5q-82 0 -128 -90zM319 454 q-91 0 -145 -74t-54 -172q0 -70 36.5 -114t95.5 -44q92 0 151 72q59 74 59 173q0 75 -38 117t-105 42z" glyph-name="partialdiff" horiz-adv-x="608" unicode="∂"/><glyph d="M545 0h-538v16l236 684h66l236 -684v-16zM463 58l-187 549l-187 -549h374z" glyph-name="Delta" horiz-adv-x="641" unicode="∆"/><glyph d="M145 0h-62v700h353v-700h-62v644h-229v-644z" glyph-name="product" horiz-adv-x="519" unicode="∏"/><glyph d="M61 15l215 335l-215 335v15h416v-56h-322l183 -286v-16l-183 -286h322v-56h-416v15z" glyph-name="summation" horiz-adv-x="556" unicode="∑"/><glyph d="M466 289h-410l11 56h410z" glyph-name="minus" horiz-adv-x="560" unicode="−"/><glyph d="M270 108l182 600h56l-215 -708h-47l-108 333h-94v56h133z" glyph-name="radical" horiz-adv-x="519" unicode="√"/><glyph d="M642 168q-110 0 -198 133q-88 -133 -198 -133q-81 0 -131 53q-49 52 -49 138t49 138q50 53 131 53q110 0 198 -133q88 133 198 133q80 0 130 -53t50 -138t-50 -138t-130 -53zM259 224q91 0 158 135q-67 135 -158 135q-60 0 -95.5 -36t-35.5 -99t35.5 -99t95.5 -36z M629 224q60 0 95.5 36t35.5 99t-35.5 99t-95.5 36q-91 0 -158 -135q67 -135 158 -135z" glyph-name="infinity" horiz-adv-x="880" unicode="∞"/><glyph d="M128 -50l114 586q18 91 62.5 131.5t123.5 40.5q39 0 61 -13l-24 -57q-23 12 -50 12q-88 0 -109 -104l-114 -586q-18 -92 -61.5 -132t-120.5 -40q-43 0 -65 13l24 57q24 -12 50 -12q47 0 72.5 24.5t36.5 79.5z" glyph-name="integral" horiz-adv-x="434" unicode="∫"/><glyph d="M69 183l-28 39q64 76 133 76q40 0 86 -27q47 -27 83 -27q56 0 99 43l28 -39q-64 -76 -133 -76q-41 0 -87 27t-82 27q-56 0 -99 -43zM69 383l-28 39q64 76 133 76q40 0 86 -27q47 -27 83 -27q56 0 99 43l28 -39q-64 -76 -133 -76q-41 0 -87 27t-82 27q-56 0 -99 -43z" glyph-name="approxequal" horiz-adv-x="528" unicode="≈"/><glyph d="M296 365h-193v56h225l64 111l48 -28l-48 -83h98v-56h-130l-63 -110h193v-56h-225l-64 -111l-48 28l48 83h-98v56h130z" glyph-name="notequal" horiz-adv-x="593" unicode="≠"/><glyph d="M428 188l-335 180v68l335 180v-62l-283 -152l283 -152v-62zM465 0h-409v56h409v-56z" glyph-name="lessequal" horiz-adv-x="542" unicode="≤"/><glyph d="M99 616l335 -180v-68l-335 -180v62l283 152l-283 152v62zM62 56h409v-56h-409v56z" glyph-name="greaterequal" horiz-adv-x="542" unicode="≥"/><glyph d="M282 0h-62l-180 350l180 350h62l180 -350zM103 350l148 -288l148 288l-148 288z" glyph-name="lozenge" horiz-adv-x="502" unicode="◊"/><glyph d="M693 617v-595q0 -9 -6.5 -15.5t-15.5 -6.5q-4 0 -7 1l-267 77l-267 -77q-3 -1 -7 -1q-9 0 -15.5 6.5t-6.5 15.5v595q0 18 16 22l270 78q10 4 20 0l270 -78q16 -4 16 -22zM375 366v303l-230 -67q6 -93 71 -161q66 -67 159 -75zM649 602l-230 67v-303q94 8 158 75 q66 68 72 161zM144 463v-412l231 67v204q-73 6 -134 43.5t-97 97.5zM419 118l231 -67v412q-37 -60 -98 -97.5t-133 -43.5v-204z" glyph-name="apple" horiz-adv-x="794" unicode=""/><glyph d="M484 105l116 595h67l-137 -700h-77l-227 593l-117 -593h-67l137 700h77zM1081 0h-409l11 56h409zM714 403q0 127 70 209q82 96 210 96q90 0 140.5 -57.5t50.5 -157.5q0 -127 -70 -209q-83 -96 -210 -96q-90 0 -140.5 57.5t-50.5 157.5zM983 650q-89 0 -150 -75 q-54 -66 -54 -166q0 -76 35 -119.5t102 -43.5q88 0 150 75q54 66 54 166q0 76 -35 119.5t-102 43.5z" glyph-name="No" horiz-adv-x="1253"/><glyph d="M355 708q90 0 137.5 -63t47.5 -177q0 -169 -70 -313q-36 -75 -100.5 -119t-145.5 -44q-91 0 -138 62.5t-47 177.5q0 169 70 313q36 75 100.5 119t145.5 44zM344 652q-60 0 -109 -41t-77 -109q-54 -128 -54 -255q0 -199 131 -199q60 0 109 41t77 108q54 131 54 256 q0 199 -131 199z" glyph-name="zero.tn"/><glyph d="M202 597l182 103h17l-137 -700h-63l116 594l-130 -73z" glyph-name="one.tn"/><glyph d="M432 0h-403l4 23l312 333q47 50 62 69q49 61 49 120q0 51 -25.5 79t-73.5 28q-53 0 -93 -38t-57 -104l-57 12q20 89 76.5 137.5t141.5 48.5q68 0 110.5 -41t42.5 -107t-28 -116q-30 -52 -94 -119l-255 -269h299z" glyph-name="two.tn"/><glyph d="M65 192l60 8q12 -152 132 -152q81 0 122.5 50t41.5 140q0 66 -32.5 104.5t-87.5 38.5q-43 0 -75 -18l-26 38l219 243h-257l11 56h361l-3 -17l-232 -251q11 3 26 3q70 0 114.5 -48t44.5 -138q0 -124 -58 -190.5t-169 -66.5q-89 0 -139.5 53.5t-52.5 146.5z" glyph-name="three.tn"/><glyph d="M360 0h-63l32 161h-302l3 17l390 522h77l-94 -483h90l-11 -56h-90zM416 612l-290 -395h214z" glyph-name="four.tn"/><glyph d="M50 184l65 9q0 -65 32 -105t88 -40q87 0 135 68q49 67 49 161q0 131 -124 131q-41 0 -88 -29q-48 -29 -75 -65l-43 10l108 376h325l-11 -56h-267l-70 -236q54 56 137 56q82 0 126.5 -47.5t44.5 -137.5q0 -129 -66 -209q-64 -78 -188 -78q-74 0 -127 50q-51 51 -51 142z" glyph-name="five.tn"/><glyph d="M316 448q81 0 125.5 -49t44.5 -139q0 -115 -71 -192q-70 -76 -184 -76q-79 0 -125.5 50.5t-46.5 131.5q0 108 69 196l266 338h69l-212 -277q26 17 65 17zM305 392q-79 0 -131 -64t-52 -149q0 -61 31.5 -96t88.5 -35q82 0 131 61q50 62 50 145q0 68 -30.5 103t-87.5 35z" glyph-name="six.tn"/><glyph d="M561 680l-396 -680h-73l377 644h-303l11 56h388z" glyph-name="seven.tn"/><glyph d="M370 708q72 0 113.5 -42.5t41.5 -114.5q0 -65 -32 -113.5t-87 -68.5q76 -35 76 -145q0 -111 -64 -169q-41 -36 -80.5 -49.5t-100.5 -13.5q-74 0 -126 50q-50 50 -50 129q0 156 145 208q-63 47 -63 126q0 96 77 158q56 45 150 45zM299 344q-73 0 -125 -47 q-50 -47 -50 -122q0 -56 35 -91.5t89 -35.5q80 0 127 46t47 122q0 60 -33 94t-90 34zM360 654q-64 0 -110 -41q-44 -41 -44 -106q0 -49 27.5 -78t76.5 -29q64 0 108 41t44 106q0 51 -26.5 79t-75.5 28z" glyph-name="eight.tn"/><glyph d="M267 252q-81 0 -125.5 49t-44.5 139q0 115 70 191q71 77 185 77q79 0 125.5 -50.5t46.5 -131.5q0 -107 -69 -196l-266 -338h-69l212 277q-26 -17 -65 -17zM278 308q78 0 130 64q53 65 53 149q0 61 -31.5 96t-88.5 35q-82 0 -131 -61q-50 -62 -50 -145q0 -68 30.5 -103 t87.5 -35z" glyph-name="nine.tn"/></font>
</defs>
</svg>
